<svg height="801.6" width="712.5" viewBox="0 0 456 513" xml:space="preserve" fill="#fff" stroke="#fff" xmlns="http://www.w3.org/2000/svg">
  <path style="fill:#1bbce8;fill-opacity:1" d="M473.1 371.9a33.2 33.2 0 0 0 1-4.1v-.7l.2-1.7v-.7l.1-2.3V149.5a33.8 33.8 0 0 0-17-29.5l-22.9-13.2-21.4-12.3-17.2-10-66-38-25.7-14.9L285 20.5l-12-6.9a34 34 0 0 0-34 0l-11.8 6.9-19.3 11.1L182 46.5l-66 38-28.8 16.7-21.5 12.4-11.2 6.5a34.4 34.4 0 0 0-17 29.5v215.2l.1.7.2 1.6.1.7a35.5 35.5 0 0 0 1 4v.4a34.2 34.2 0 0 0 8 13.7l.1.2 2.3 2.1.3.3a34 34 0 0 0 5 3.5l22.5 13 21.4 12.3 17.5 10.2 91.7 52.9 19.3 11.1 12 6.9a34 34 0 0 0 34 0l11.8-6.9 19.3-11.1 25.7-14.9 55.6-32 10.4-6 26.3-15.3 21.4-12.3 13.8-8a34 34 0 0 0 4.8-3.4c.2 0 .3-.2.4-.3l2.3-2.1v-.2a34 34 0 0 0 8.1-13.7l.1-.3z" transform="translate(-28 .5)"/>
  <path d="M455.4 150a43 43 0 0 0-21.5-37.3L249.5 6.3a43.2 43.2 0 0 0-43 0L22 112.8a42.6 42.6 0 0 0-18.3 21A42.8 42.8 0 0 0 .5 150v213a42.6 42.6 0 0 0 .2 3.6v.2l.2 2 .2.8v.1a43.2 43.2 0 0 0 1.1 5.2l.1.4a43.3 43.3 0 0 0 10 17.4 43.1 43.1 0 0 0 3 2.9l.6.4a43 43 0 0 0 6.2 4.3l184.4 106.4a43.1 43.1 0 0 0 43 0L434 400.2a41.7 41.7 0 0 0 6.1-4.3h.1l.4-.4c1-.8 2-1.7 2.8-2.6l.2-.2c4.7-5 8.2-11 10.2-17.4v-.4l.7-2.4.2-.8.3-2v-.1a48.5 48.5 0 0 0 .4-2.9v-.9l.2-2.9zm-18 214.6-.1.5-.1 1.2-.1.5-.2 1.3-.1.4-.4 1.3v.3a25.1 25.1 0 0 1-6 10.1l-1.7 1.7-.3.2a24.4 24.4 0 0 1-3.5 2.5L240.5 491a25 25 0 0 1-25 0L31.1 384.6a25.5 25.5 0 0 1-3.5-2.5l-.3-.2a25.1 25.1 0 0 1-4.7-5.5 25 25 0 0 1-3-6.3v-.2l-.3-1.4-.1-.4-.3-1.2v-.5l-.2-1.2V363l-.1-213A24.8 24.8 0 0 1 31 128.5L215.5 22a25 25 0 0 1 25 0l184.4 106.5a26 26 0 0 1 10.5 12 25 25 0 0 1 2 9.6v214.6z"/>
  <path fill="#13a031" d="M305.9 376c0 7.7-2.4 14.3-6.5 20.2-2.5 3.6-5.8 5-9.6 3.5-3.9-1.5-3.6-5.7-3.6-9.3.1-8.9 2.7-16.3 10.1-20.6 6.6-3.8 9.5-2 9.6 6.2zM133.3 133.8a3.2 3.7 0 0 1-.4-1.2 162.7 188.6 0 0 1 18.2-17c.9.4 1.6 1 2.2 1.8 2 2.8 3.9 6 5.5 9.1 1.4 2.9-1.5 8.6 3 9 4 .5 9 2.5 12-1.5 9.4-13.2 21.6-13 34.8-12 7.6.7 15.2-11.2 14-20-.4-3.8-3.4-3.4-5.1-1.7-3 3-5.6 7-8.3 10.6-6.4 8.7-26.8 9.5-33.6 1.2-1.4-1.6-2-3.5-.6-5.6 1-1.6 2.1-3.7 3.6-4.7 8.2-5.2 16.4-10.3 25-14a161.5 187.2 0 0 1 25.6-4.9c2 .1 4.3.4 6.5.8a61.6 61.6 0 0 1 24.4 8.7c10.5 7.4 19.7 6.3 29.7.6l3.1-1.9c57 21.2 100.2 78 110.2 147.7-2.1 2.2-4.2 4.4-6.4 6.3a23 23 0 0 0-8.4 20.5c.5 7 .4 14.5-7.6 16.3-6.6 1.5-10.8-3.2-13.2-14.8-1.5-6.7-2.2-13.6-4-20.2-3.2-10.9-9-18.5-20.1-17.7-9.6.7-16.4-6.2-23.6-11.7-3-2.4-7.2-6-9.5-1.4-1.6 3.2 1.7 8.1 5.1 10.2 3.3 1.9 7 2.7 10.3 4.3 6.2 3 7.8 7 4.9 13.8a35.5 35.5 0 0 1-23.3 20.8c-6.7 2-11.6-2.6-15.3-8.4-6.7-10.8-13-21.9-19.6-32.8-1.6-2.6-3-5.4-4.7-7.8-.9-1.2-2.5-2-3.7-.7-.9 1-2 2.8-1.9 4a35 35 0 0 0 2.5 9 168.7 168.7 0 0 0 25.5 39.6c3.2 3.8 7.6 5.5 11.9 7.6 9 4.6 10.3 10.4 4.8 20.2a69.9 69.9 0 0 1-16.5 19c-10.6 8.9-14.5 19.7-10.5 34.6a30 30 0 0 1-6.2 28 48 48 0 0 0-9.8 19c-1.5 5.4-4 10.8-6.8 15.5-13.7 23.2-40.4 22.6-54-.8a67 67 0 0 1-10.5-43.4c1.2-9.8-.7-18.9-4.2-27.9-2.7-6.7-4.2-14-6.4-21-4.7-15-12.1-21-26-20.8-4.1 0-8.2 1.2-12.3 1.4-23.7 1.3-37.7-19-34.2-46.3 4.3-33.7 19.4-55.3 47.3-65.2 14-12.3 16.6-12.2 31.3-.5 10.7 8.4 22.4 12.3 35.1 7.3 5.4-2 10.7-2.7 15.9-1.7-5.2-3.4-9-10-15.5-10.3-8.3-.4-16.6-6-24.7 2.3-3.1 3.1-8.9 1.8-11.3-2.3-6.6-11.2-13.9-7-21.4-2.4a27 27 0 0 1-12.8 4.7c-3.6 0-7.3.2-11-.1-6.6-.7-9.9-4.4-9.7-10.6.3-7.3 4.8-14.2 10.2-14.7 2.7-.3 5.5.4 8.2 0 2.8-.4 3.3-3 3.3-6s-1.1-4.6-4.2-3.9c-3.1.7-7.9 1.5-8.8-2-1.5-5.9-5.4-9.3-8-14z" style="stroke-width:.720445" transform="translate(-28 .5)"/>
</svg>
