<svg height="801.6" width="712.5" viewBox="0 0 456 513" xml:space="preserve" fill="#fff" stroke="#fff" xmlns="http://www.w3.org/2000/svg">
  <path style="opacity:.83871;fill:#005a9c;fill-opacity:1" d="M473.1 371.9a33.2 33.2 0 0 0 1-4.1v-.7l.2-1.7v-.7l.1-2.3V149.5a33.8 33.8 0 0 0-17-29.5l-22.9-13.2-21.4-12.3-17.2-10-66-38-25.7-14.9L285 20.5l-12-6.9a34 34 0 0 0-34 0l-11.8 6.9-19.3 11.1L182 46.5l-66 38-28.8 16.7-21.5 12.4-11.2 6.5a34.4 34.4 0 0 0-17 29.5v215.2l.1.7.2 1.6.1.7a35.5 35.5 0 0 0 1 4v.4a34.2 34.2 0 0 0 8 13.7l.1.2 2.3 2.1.3.3a34 34 0 0 0 5 3.5l22.5 13 21.4 12.3 17.5 10.2 91.7 52.9 19.3 11.1 12 6.9a34 34 0 0 0 34 0l11.8-6.9 19.3-11.1 25.7-14.9 55.6-32 10.4-6 26.3-15.3 21.4-12.3 13.8-8a34 34 0 0 0 4.8-3.4c.2 0 .3-.2.4-.3l2.3-2.1v-.2a34 34 0 0 0 8.1-13.7l.1-.3z" transform="translate(-28 .5)"/>
  <path d="M455.4 150a43 43 0 0 0-21.5-37.3L249.5 6.3a43.2 43.2 0 0 0-43 0L22 112.8a42.6 42.6 0 0 0-18.3 21A42.8 42.8 0 0 0 .5 150v213a42.6 42.6 0 0 0 .2 3.6v.2l.2 2 .2.8v.1a43.2 43.2 0 0 0 1.1 5.2l.1.4a43.3 43.3 0 0 0 10 17.4 43.1 43.1 0 0 0 3 2.9l.6.4a43 43 0 0 0 6.2 4.3l184.4 106.4a43.1 43.1 0 0 0 43 0L434 400.2a41.7 41.7 0 0 0 6.1-4.3h.1l.4-.4c1-.8 2-1.7 2.8-2.6l.2-.2c4.7-5 8.2-11 10.2-17.4v-.4l.7-2.4.2-.8.3-2v-.1a48.5 48.5 0 0 0 .4-2.9v-.9l.2-2.9zm-18 214.6-.1.5-.1 1.2-.1.5-.2 1.3-.1.4-.4 1.3v.3a25.1 25.1 0 0 1-6 10.1l-1.7 1.7-.3.2a24.4 24.4 0 0 1-3.5 2.5L240.5 491a25 25 0 0 1-25 0L31.1 384.6a25.5 25.5 0 0 1-3.5-2.5l-.3-.2a25.1 25.1 0 0 1-4.7-5.5 25 25 0 0 1-3-6.3v-.2l-.3-1.4-.1-.4-.3-1.2v-.5l-.2-1.2V363l-.1-213A24.8 24.8 0 0 1 31 128.5L215.5 22a25 25 0 0 1 25 0l184.4 106.5a26 26 0 0 1 10.5 12 25 25 0 0 1 2 9.6v214.6z"/>
  <g style="fill:#000;stroke:none">
    <path d="m23.6 5.6-.9 1.9s-.4-.8-.8-1.1c-.4-.3-.8-.6-1.5-.6-.6 0-1.2.6-1.7 1.5-.5 1-.7 2-.7 3.1a6 6 0 0 0 .6 2.6l-.1-1.3c0-.5 0-1.1.4-2.3.3-1 1-1.7 1.7-1.9.6 0 .9 0 1.4.3A5 5 0 0 1 23 9l1-1.8ZM0 5.6l3.8 12.8h.1l2.4-7.9 2.3 7.9h.2L12 7.5l.2-.3h2.6L12.6 11v.8h.7c.8 0 1.4.2 1.7.7.4.5.5 1 .5 1.8 0 .7-.1 1.3-.4 1.8-.3.5-.7.7-1.1.7-.5 0-.8-.1-1.1-.4a3 3 0 0 1-.8-1.1l-1.3.5c.3.8.7 1.4 1.2 1.9.6.5 1.2.7 2 .7 1 0 1.7-.4 2.3-1.2a4.6 4.6 0 0 0 .3-5.3c-.4-.7-1-1.2-1.8-1.5l2.3-4v-.7h-6.2l-2.3 7.7-2.2-7.7H4.7l.8 2.5-1.6 5.2-2.3-7.7Zm17.4 9 .4 1 .7 1.3c.4.4 1 1.2 2 1.4 1 .2 1.7-.3 2-.4A5.1 5.1 0 0 0 24 16l-.2-1.2-.7 1c-.3.3-.7.8-1.3 1-.6.3-.9.4-1.5.3-.5 0-1-.4-1.2-.5a5 5 0 0 1-1-1l-.7-1z" style="fill:#fff;fill-opacity:1;stroke:none" transform="translate(35 63.6) scale(16.07514)"/>
  </g>
</svg>
