<?xml version="1.0" encoding="UTF-8" standalone="no"?>
<!-- Created with Inkscape (http://www.inkscape.org/) -->

<svg
   id="svg548"
   height="512"
   width="512"
   y="0.0000000"
   x="0.0000000"
   version="1.0"
   sodipodi:version="0.32"
   inkscape:version="1.2.2 (b0a8486541, 2022-12-01)"
   sodipodi:docname="es_cm.svg"
   inkscape:output_extension="org.inkscape.output.svg.inkscape"
   xmlns:inkscape="http://www.inkscape.org/namespaces/inkscape"
   xmlns:sodipodi="http://sodipodi.sourceforge.net/DTD/sodipodi-0.dtd"
   xmlns="http://www.w3.org/2000/svg"
   xmlns:svg="http://www.w3.org/2000/svg"
   xmlns:rdf="http://www.w3.org/1999/02/22-rdf-syntax-ns#"
   xmlns:cc="http://creativecommons.org/ns#"
   xmlns:dc="http://purl.org/dc/elements/1.1/">
  <metadata
     id="metadata2753">
    <rdf:RDF>
      <cc:Work
         rdf:about="">
        <dc:format>image/svg+xml</dc:format>
        <dc:type
           rdf:resource="http://purl.org/dc/dcmitype/StillImage" />
      </cc:Work>
    </rdf:RDF>
  </metadata>
  <sodipodi:namedview
     inkscape:window-height="744"
     inkscape:window-width="1280"
     inkscape:pageshadow="2"
     inkscape:pageopacity="0.0"
     borderopacity="1.0"
     bordercolor="#666666"
     pagecolor="#ffffff"
     id="base"
     inkscape:zoom="0.46167916"
     inkscape:cx="176.52952"
     inkscape:cy="323.81795"
     inkscape:window-x="415"
     inkscape:window-y="90"
     inkscape:current-layer="g3524"
     showgrid="false"
     inkscape:window-maximized="0"
     inkscape:showpageshadow="2"
     inkscape:pagecheckerboard="0"
     inkscape:deskcolor="#d1d1d1" />
  <defs
     id="defs549">
    <style
       id="style2435"
       type="text/css">
   
    .str0 {stroke:#000000;stroke-width:3}
    .fil1 {fill:none}
    .fil2 {fill:#0039F0}
    .fil0 {fill:#FFFF00}
   
  </style>
  </defs>
  <g
     id="g3524"
     transform="translate(0,-1.2560889e-5)">
    <g
       id="g2438"
       transform="matrix(1.006896,0,0,1.006896,1069.399,153.8578)">
      <g
         id="g2440" />
      <g
         id="g2442" />
      <g
         id="g2444" />
    </g>
    <g
       id="g2446"
       transform="matrix(1.006896,0,0,1.006896,1069.399,153.8578)" />
    <g
       id="g2448"
       transform="matrix(1.006896,0,0,1.006896,1069.399,153.8578)" />
    <g
       id="g2450"
       transform="matrix(1.006896,0,0,1.006896,1069.399,153.8578)">
      <g
         id="g2452" />
      <g
         id="g2454" />
    </g>
    <g
       id="g2456"
       transform="matrix(1.006896,0,0,1.006896,1069.399,153.8578)">
      <g
         id="g2458" />
      <g
         id="g2460" />
    </g>
    <g
       id="g2462"
       transform="matrix(1.006896,0,0,1.006896,1069.399,153.8578)" />
    <g
       id="g2464"
       transform="matrix(1.006896,0,0,1.006896,1069.399,153.8578)">
      <g
         id="g2466" />
      <g
         id="g2468" />
      <g
         id="g2470" />
      <g
         id="g2472" />
      <g
         id="g2474">
        <g
           id="g2476" />
      </g>
      <g
         id="g2478" />
    </g>
    <g
       id="g2480"
       transform="matrix(1.006896,0,0,1.006896,1069.399,153.8578)">
      <g
         id="g2482" />
    </g>
    <g
       id="g2484"
       transform="matrix(1.006896,0,0,1.006896,1069.399,153.8578)">
      <g
         id="g2486" />
      <g
         id="g2488" />
      <g
         id="g2490" />
    </g>
    <g
       id="g2492"
       transform="matrix(1.006896,0,0,1.006896,1069.399,153.8578)">
      <g
         id="g2494" />
    </g>
    <g
       id="g2617"
       transform="matrix(1.006896,0,0,1.006896,1069.399,153.8578)">
      <g
         id="g2619" />
      <g
         id="g2621" />
    </g>
    <g
       id="g2623"
       transform="matrix(1.006896,0,0,1.006896,1069.399,153.8578)">
      <g
         id="g2625">
        <g
           id="g2627" />
        <g
           id="g2629" />
        <g
           id="g2631" />
      </g>
    </g>
    <g
       id="g2633"
       transform="matrix(1.006896,0,0,1.006896,1069.399,153.8578)">
      <g
         id="g2635" />
      <g
         id="g2637" />
    </g>
    <g
       id="g2639"
       transform="matrix(1.006896,0,0,1.006896,1069.399,153.8578)">
      <g
         id="g2641" />
      <g
         id="g2643" />
    </g>
    <g
       id="g2645"
       transform="matrix(1.006896,0,0,1.006896,1069.399,153.8578)">
      <g
         id="g2647" />
      <g
         id="g2649" />
      <g
         id="g2651" />
      <g
         id="g2653" />
      <g
         id="g2655">
        <g
           id="g2657" />
      </g>
      <g
         id="g2659" />
    </g>
    <rect
       style="fill:#e3dbdb;fill-opacity:1"
       id="rect2849"
       width="5.3215337"
       height="0"
       x="824.83771"
       y="182.03836" />
    <rect
       id="rect171"
       style="font-size:12px;fill:#b81626;fill-opacity:1;fill-rule:evenodd;stroke-width:1pt"
       y="0"
       x="0"
       height="512"
       width="256" />
    <rect
       style="fill:#ffffff;fill-opacity:1"
       id="rect2847"
       width="256"
       height="512"
       x="256"
       y="0" />
    <g
       id="g3195"
       transform="translate(-53.232679,7.0813282)">
      <path
         d="M 72.831488,354.87731 V 331.4153 l 4.047324,-8.74268 v -75.70901 l -3.127526,-6.35665 v -17.67287 l 5.877444,-1.22243 v -50.92302 l -3.150002,-5.239 v -11.8052 l 3.073173,-1.15257 v 6.28679 l 2.919512,-1.46692 v -6.14708 l 3.150002,-1.22244 h 7.759758 v 7.68386 h 6.914637 v -7.75371 h 7.64452 v 7.50922 h 6.45366 v -7.68385 h 6.76098 l 3.34207,1.99081 v 6.4265 l 1.92074,1.01288 v -6.32173 l 3.03475,1.432 v 11.56071 l -2.95793,5.16914 v 72.50768 h 6.53049 v -2.72428 h 21.16648 v -92.78258 l -4.32165,-6.47889 v -14.84382 l 3.9375,-1.60662 v 7.89342 l 4.03354,-1.9559 v -7.614 l 4.26403,-1.67648 h 10.2183 v 9.5699 h 8.83536 v -9.74453 h 10.14147 v 9.5699 h 8.56647 v -9.53497 h 8.75854 l 4.1872,2.27023 v 8.20775 l 2.72744,1.11766 v -7.85849 l 4.11037,1.78125 V 141.817 l -3.78385,6.68845 v 92.48571 h 23.10641 v 2.68935 h 3.80306 v -73.86982 l -3.15001,-4.75002 v -12.17891 l 2.94895,-1.08667 v 6.49528 l 3.1781,-1.77818 v -6.07542 l 2.98796,-1.25954 h 7.90451 v 7.8289 h 6.70933 v -8.00178 h 7.66004 v 7.70542 h 6.57351 v -7.73012 h 6.70932 l 3.09661,1.87696 v 6.66815 l 2.30888,1.01258 v -6.37179 l 2.9608,1.30893 v 11.62985 l -2.9608,5.39863 v 52.86771 l 5.12465,0.34927 v 16.74732 l -3.61098,7.614 v 74.63819 l 4.1872,9.22065 v 23.22621 l -49.92266,19.78955 H 121.80685 Z"
         style="fill:#cab313;fill-opacity:1;fill-rule:evenodd;stroke:#000000;stroke-width:1.23347;stroke-linecap:butt;stroke-linejoin:miter;stroke-miterlimit:4;stroke-dasharray:none;stroke-opacity:1"
         id="path3511" />
      <path
         d="m 126.32174,216.76954 h 6.5689 v 7.38698 l 8.50885,-1.67648 v -8.73165 h 7.56768 v 7.07264 h 5.14757 v 17.58555 c -11.61926,-7.22593 -17.03418,-5.96616 -27.58172,0.3842 z"
         style="fill:#cab313;fill-opacity:1;fill-rule:evenodd;stroke:#000000;stroke-width:1.23347;stroke-linecap:butt;stroke-linejoin:miter;stroke-miterlimit:4;stroke-dasharray:none;stroke-opacity:1"
         id="path3513" />
      <path
         d="m 242.73338,216.44204 h -6.33161 v 7.39455 l -8.20148,-1.67819 v -8.7406 h -7.29431 v 7.07989 h -4.96161 v 17.60356 c 11.19952,-7.23333 16.41884,-5.97227 26.58536,0.38459 z"
         style="fill:#cab313;fill-opacity:1;fill-rule:evenodd;stroke:#000000;stroke-width:1.23347;stroke-linecap:butt;stroke-linejoin:miter;stroke-miterlimit:4;stroke-dasharray:none;stroke-opacity:1"
         id="path3515" />
      <path
         d="m 98.173403,194.62606 h 8.345587 v -8.62688 c 3.3013,-4.16808 2.60144,-9.7051 -4.13918,-12.87046 -7.315023,3.70968 -7.058581,8.93198 -4.302446,12.70456 z"
         style="fill:#0f47af;fill-opacity:1;fill-rule:evenodd;stroke:#000000;stroke-width:1.23347;stroke-linecap:butt;stroke-linejoin:miter;stroke-miterlimit:4;stroke-dasharray:none;stroke-opacity:1"
         id="path3517" />
      <path
         d="m 179.65978,177.84227 h 10.27655 v -10.62292 c 4.06514,-5.13248 3.20336,-11.95064 -5.09688,-15.84838 -9.00755,4.56802 -8.69177,10.99862 -5.29793,15.64409 z"
         style="fill:#0f47af;fill-opacity:1;fill-rule:evenodd;stroke:#000000;stroke-width:1.23347;stroke-linecap:butt;stroke-linejoin:miter;stroke-miterlimit:4;stroke-dasharray:none;stroke-opacity:1"
         id="path3519" />
      <path
         d="m 262.77503,194.57559 h 8.34558 v -8.62688 c 3.3013,-4.16809 2.60144,-9.70511 -4.13918,-12.87046 -7.31502,3.70968 -7.05858,8.93197 -4.30244,12.70456 z"
         style="fill:#0f47af;fill-opacity:1;fill-rule:evenodd;stroke:#000000;stroke-width:1.23347;stroke-linecap:butt;stroke-linejoin:miter;stroke-miterlimit:4;stroke-dasharray:none;stroke-opacity:1"
         id="path3521" />
      <path
         d="m 180.01448,234.98381 h 10.44269 v -13.58565 c 4.13087,-6.56392 3.25515,-15.28365 -5.17928,-20.26847 -9.15317,5.84203 -8.83229,14.06612 -5.38358,20.0072 z"
         style="fill:#0f47af;fill-opacity:1;fill-rule:evenodd;stroke:#000000;stroke-width:1.23347;stroke-linecap:butt;stroke-linejoin:miter;stroke-miterlimit:4;stroke-dasharray:none;stroke-opacity:1"
         id="path3523" />
      <path
         d="m 74.058605,240.78159 50.227155,19.89072 H 245.7721 l 48.7795,-19.72157"
         style="fill:none;fill-rule:evenodd;stroke:#000000;stroke-width:1.23347;stroke-linecap:butt;stroke-linejoin:miter;stroke-miterlimit:4;stroke-dasharray:none;stroke-opacity:1"
         id="path3525" />
      <path
         d="m 77.2591,247.59419 50.17054,20.54778 h 114.71045 l 49.05733,-20.70685"
         style="fill:none;fill-rule:evenodd;stroke:#000000;stroke-width:1.23347;stroke-linecap:butt;stroke-linejoin:miter;stroke-miterlimit:4;stroke-dasharray:none;stroke-opacity:1"
         id="path3527" />
      <path
         d="m 77.40068,264.95082 50.09271,20.52812"
         style="fill:none;fill-rule:evenodd;stroke:#000000;stroke-width:1.23347;stroke-linecap:butt;stroke-linejoin:miter;stroke-miterlimit:4;stroke-dasharray:none;stroke-opacity:1"
         id="path3529" />
      <path
         d="m 127.98317,284.91138 h 113.5057"
         style="fill:none;fill-rule:evenodd;stroke:#000000;stroke-width:1.23347;stroke-linecap:butt;stroke-linejoin:miter;stroke-miterlimit:4;stroke-dasharray:none;stroke-opacity:1"
         id="path3531" />
      <path
         d="m 241.90182,285.60992 49.25719,-20.60671"
         style="fill:none;fill-rule:evenodd;stroke:#000000;stroke-width:1.23347;stroke-linecap:butt;stroke-linejoin:miter;stroke-miterlimit:4;stroke-dasharray:none;stroke-opacity:1"
         id="path3533" />
      <path
         d="m 77.323852,285.67977 50.173698,20.49534"
         style="fill:none;fill-rule:evenodd;stroke:#000000;stroke-width:1.23347;stroke-linecap:butt;stroke-linejoin:miter;stroke-miterlimit:4;stroke-dasharray:none;stroke-opacity:1"
         id="path3535" />
      <path
         d="m 76.872022,304.23643 c 0.02717,0 50.747758,21.18989 50.747758,21.18989"
         style="fill:none;fill-rule:evenodd;stroke:#000000;stroke-width:1.23347;stroke-linecap:butt;stroke-linejoin:miter;stroke-miterlimit:4;stroke-dasharray:none;stroke-opacity:1"
         id="path3537" />
      <path
         d="m 127.91595,306.47859 h 113.7842 l 49.47807,-20.81628"
         style="fill:none;fill-rule:evenodd;stroke:#000000;stroke-width:1.23347;stroke-linecap:butt;stroke-linejoin:miter;stroke-miterlimit:4;stroke-dasharray:none;stroke-opacity:1"
         id="path3539" />
      <path
         d="m 127.56546,325.73504 h 113.70541 l 50.06101,-21.17741"
         style="fill:none;fill-rule:evenodd;stroke:#000000;stroke-width:1.23347;stroke-linecap:butt;stroke-linejoin:miter;stroke-miterlimit:4;stroke-dasharray:none;stroke-opacity:1"
         id="path3541" />
      <path
         d="m 172.49349,343.36857 h 24.7609 v -19.59693 c 8.47954,-15.10398 1.89745,-28.68041 -12.65763,-38.89518 -17.47279,9.66935 -20.44687,25.469 -12.3503,39.6417 z"
         style="fill:#0f47af;fill-opacity:1;fill-rule:evenodd;stroke:#000000;stroke-width:1.23347;stroke-linecap:butt;stroke-linejoin:miter;stroke-miterlimit:4;stroke-dasharray:none;stroke-opacity:1"
         id="path3543" />
      <path
         d="m 77.054945,322.47496 50.784175,21.30525 h 113.92069 l 49.60011,-21.37926"
         style="fill:none;fill-rule:evenodd;stroke:#000000;stroke-width:1.23347;stroke-linecap:butt;stroke-linejoin:miter;stroke-miterlimit:4;stroke-dasharray:none;stroke-opacity:1"
         id="path3545" />
      <path
         d="m 73.062374,331.90924 48.860886,20.67248 h 123.4839 l 50.1359,-20.64776"
         style="fill:none;fill-rule:evenodd;stroke:#000000;stroke-width:1.23347;stroke-linecap:butt;stroke-linejoin:miter;stroke-miterlimit:4;stroke-dasharray:none;stroke-opacity:1"
         id="path3547" />
      <path
         d="m 124.07448,243.68051 v 17.07911 l 3.6686,7.59654 v 75.06604 l -5.90907,8.88663 v 22.67171"
         style="fill:none;fill-rule:evenodd;stroke:#000000;stroke-width:1.23347;stroke-linecap:butt;stroke-linejoin:miter;stroke-miterlimit:4;stroke-dasharray:none;stroke-opacity:1"
         id="path3549" />
      <path
         d="m 245.39968,243.54391 v 18.27567 l -3.74853,6.47057 v 75.26368 l 3.89046,9.79628 v 21.46242"
         style="fill:none;fill-rule:evenodd;stroke:#000000;stroke-width:1.23347;stroke-linecap:butt;stroke-linejoin:miter;stroke-miterlimit:4;stroke-dasharray:none;stroke-opacity:1"
         id="path3551" />
      <path
         d="m 76.498527,165.60064 9.072528,-2.91423 h 35.692525 l 8.04032,3.03771"
         style="fill:none;fill-rule:evenodd;stroke:#000000;stroke-width:1.23347;stroke-linecap:butt;stroke-linejoin:miter;stroke-miterlimit:4;stroke-dasharray:none;stroke-opacity:1"
         id="path3553" />
      <path
         d="m 79.350672,170.83637 8.882385,-2.79074 h 29.349903 l 8.95029,3.0871"
         style="fill:none;fill-rule:evenodd;stroke:#000000;stroke-width:1.23347;stroke-linecap:butt;stroke-linejoin:miter;stroke-miterlimit:4;stroke-dasharray:none;stroke-opacity:1"
         id="path3555" />
      <path
         d="m 126.77772,203.01637 -9.4258,-3.23863 H 88.12797 l -8.668649,2.89287 c -1.559067,0.91263 -1.781494,2.9706 0,3.9268 l 8.800897,-2.46968 h 29.363492 l 9.30341,2.91422 c 1.05243,-1.17787 0.90735,-2.73732 -0.1494,-4.02558 z"
         style="fill:#cab313;fill-opacity:1;fill-rule:evenodd;stroke:#000000;stroke-width:1.23347;stroke-linecap:butt;stroke-linejoin:miter;stroke-miterlimit:4;stroke-dasharray:none;stroke-opacity:1"
         id="path3557" />
      <path
         d="m 79.296345,206.62211 c -1.905143,1.00681 -1.409213,3.57934 0,4.12438 l 8.963873,-3.03772 h 29.336322 l 8.82806,3.03772 c 1.10959,-0.76432 1.66424,-1.79518 0.0815,-3.85271 l -8.96388,-2.79075 H 88.226267 Z"
         style="fill:#cab313;fill-opacity:1;fill-rule:evenodd;stroke:#000000;stroke-width:1.23347;stroke-linecap:butt;stroke-linejoin:miter;stroke-miterlimit:4;stroke-dasharray:none;stroke-opacity:1"
         id="path3559" />
      <path
         d="m 85.842689,150.1898 v 12.69418 l 2.499022,4.48248 v 71.60853"
         style="fill:none;fill-rule:evenodd;stroke:#000000;stroke-width:1.23347;stroke-linecap:butt;stroke-linejoin:miter;stroke-miterlimit:4;stroke-dasharray:none;stroke-opacity:1"
         id="path3561" />
      <path
         d="m 120.99195,150.01692 v 12.89176 l -3.34108,5.30982 v 83.50006"
         style="fill:none;fill-rule:evenodd;stroke:#000000;stroke-width:1.23347;stroke-linecap:butt;stroke-linejoin:miter;stroke-miterlimit:4;stroke-dasharray:none;stroke-opacity:1"
         id="path3563" />
      <path
         d="m 242.76485,202.37425 9.4258,-3.23863 h 29.22395 l 8.66865,2.89287 c 1.55907,0.91263 1.7815,2.9706 0,3.9268 l -8.8009,-2.46968 h -29.36348 l -9.30342,2.91423 c -1.05243,-1.17788 -0.90735,-2.73733 0.1494,-4.02559 z"
         style="fill:#cab313;fill-opacity:1;fill-rule:evenodd;stroke:#000000;stroke-width:1.23347;stroke-linecap:butt;stroke-linejoin:miter;stroke-miterlimit:4;stroke-dasharray:none;stroke-opacity:1"
         id="path3565" />
      <path
         d="m 290.24623,205.97999 c 1.90514,1.00681 1.40921,3.57934 0,4.12438 l -8.96388,-3.03772 h -29.33632 l -8.82806,3.03772 c -1.10959,-0.76431 -1.66424,-1.79518 -0.0815,-3.85271 l 8.96388,-2.79075 h 29.31594 z"
         style="fill:#cab313;fill-opacity:1;fill-rule:evenodd;stroke:#000000;stroke-width:1.23347;stroke-linecap:butt;stroke-linejoin:miter;stroke-miterlimit:4;stroke-dasharray:none;stroke-opacity:1"
         id="path3567" />
      <path
         d="m 283.69988,149.54768 v 12.69418 l -2.49902,4.48248 v 71.60853"
         style="fill:none;fill-rule:evenodd;stroke:#000000;stroke-width:1.23347;stroke-linecap:butt;stroke-linejoin:miter;stroke-miterlimit:4;stroke-dasharray:none;stroke-opacity:1"
         id="path3569" />
      <path
         d="m 248.55062,149.3748 v 12.89176 l 3.34108,5.30982 v 83.50007"
         style="fill:none;fill-rule:evenodd;stroke:#000000;stroke-width:1.23347;stroke-linecap:butt;stroke-linejoin:miter;stroke-miterlimit:4;stroke-dasharray:none;stroke-opacity:1"
         id="path3571" />
      <path
         d="m 73.809364,223.71233 9.235508,3.58104 v 9.82935 l 8.447774,2.44499 v -8.81677 l 8.311959,3.18589 v 9.85404 l 7.252595,2.51908 v -9.48359 l 9.29594,3.71075 v 10.89744 l 4.68658,1.57136 v -10.68754 l 2.99634,1.3796 11.08079,-0.0553 v 10.47147 h 8.42061 V 243.5933 h 9.94175 v 10.02692 h 7.95883 v -10.12571 h 9.94176 v 9.87874 h 8.23046 v -9.82934 h 12.00617 v 10.24919 h 8.17614 v -10.24919 h 9.45281 v 9.53298 h 8.69225 v -9.4837 h 9.66434 v 9.41272 h 8.73933 v -9.48258 h 9.00824 l 3.11158,-1.44945 v 10.77487 l 3.59177,-1.39707 v -10.68755 l 9.64208,-3.75461 v 9.77945 l 7.30839,-2.82905 v -10.05887 l 8.19192,-3.10847 v 9.11585 l 8.14391,-2.82906 v -9.84931 l 9.29634,-3.49266"
         style="fill:none;fill-rule:evenodd;stroke:#000000;stroke-width:1.23347;stroke-linecap:butt;stroke-linejoin:miter;stroke-miterlimit:4;stroke-dasharray:none;stroke-opacity:1"
         id="path3573" />
      <path
         d="m 153.60512,188.40573 12.29392,-4.2241 h 38.11631 l 11.30638,3.77313 c 2.03347,1.19033 2.32357,3.8745 0,5.12166 l -11.47887,-3.22117 h -38.29831 l -12.13429,3.80098 c -1.37267,-1.53628 -1.18344,-3.57024 0.19486,-5.2505 z"
         style="fill:#cab313;fill-opacity:1;fill-rule:evenodd;stroke:#000000;stroke-width:1.23347;stroke-linecap:butt;stroke-linejoin:miter;stroke-miterlimit:4;stroke-dasharray:none;stroke-opacity:1"
         id="path3575" />
      <path
         d="m 215.5343,193.10864 c 2.48484,1.31317 1.83801,4.66847 0,5.37935 l -11.69144,-3.96204 h -38.26288 l -11.51429,3.96204 c -1.44722,-0.99688 -2.17065,-2.34142 -0.10629,-5.02502 l 11.69144,-3.63992 h 38.2363 z"
         style="fill:#cab313;fill-opacity:1;fill-rule:evenodd;stroke:#000000;stroke-width:1.23347;stroke-linecap:butt;stroke-linejoin:miter;stroke-miterlimit:4;stroke-dasharray:none;stroke-opacity:1"
         id="path3577" />
      <path
         d="m 239.66417,164.74633 9.60366,-2.65442 h 34.82288 l 8.46083,2.77666"
         style="fill:none;fill-rule:evenodd;stroke:#000000;stroke-width:1.23347;stroke-linecap:butt;stroke-linejoin:miter;stroke-miterlimit:4;stroke-dasharray:none;stroke-opacity:1"
         id="path3579" />
      <path
         d="m 242.58368,170.07264 8.98903,-2.82905 h 28.59971 l 9.45,3.091"
         style="fill:none;fill-rule:evenodd;stroke:#000000;stroke-width:1.23347;stroke-linecap:butt;stroke-linejoin:miter;stroke-miterlimit:4;stroke-dasharray:none;stroke-opacity:1"
         id="path3581" />
      <path
         d="m 162.14429,121.9366 v 15.70667 l 3.45643,6.07723 v 99.85523"
         style="fill:none;fill-rule:evenodd;stroke:#000000;stroke-width:1.23347;stroke-linecap:butt;stroke-linejoin:miter;stroke-miterlimit:4;stroke-dasharray:none;stroke-opacity:1"
         id="path3583" />
      <path
         d="m 208.43306,122.03107 v 15.89161 l -4.14879,6.35665 v 99.12176"
         style="fill:none;fill-rule:evenodd;stroke:#000000;stroke-width:1.23347;stroke-linecap:butt;stroke-linejoin:miter;stroke-miterlimit:4;stroke-dasharray:none;stroke-opacity:1"
         id="path3585" />
      <path
         d="m 150.11097,141.44711 11.73452,-3.30938 h 46.39485 l 11.19127,3.45756"
         style="fill:none;fill-rule:evenodd;stroke:#000000;stroke-width:1.23347;stroke-linecap:butt;stroke-linejoin:miter;stroke-miterlimit:4;stroke-dasharray:none;stroke-opacity:1"
         id="path3587" />
      <path
         d="m 153.72368,148.21405 12.11481,-3.70453 h 37.7159 l 12.30525,3.96385"
         style="fill:none;fill-rule:evenodd;stroke:#000000;stroke-width:1.23347;stroke-linecap:butt;stroke-linejoin:miter;stroke-miterlimit:4;stroke-dasharray:none;stroke-opacity:1"
         id="path3589" />
      <path
         d="m 79.703794,221.6131 v 4.54422"
         style="fill:none;fill-rule:evenodd;stroke:#000000;stroke-width:1.23347;stroke-linecap:butt;stroke-linejoin:miter;stroke-miterlimit:4;stroke-dasharray:none;stroke-opacity:1"
         id="path3591" />
      <path
         d="m 289.68004,223.31828 v 2.13053"
         style="fill:none;fill-rule:evenodd;stroke:#000000;stroke-width:1.23347;stroke-linecap:butt;stroke-linejoin:miter;stroke-miterlimit:4;stroke-dasharray:none;stroke-opacity:1"
         id="path3593" />
      <path
         d="m 92.958613,253.87908 -0.07683,17.32361"
         style="fill:none;fill-rule:evenodd;stroke:#000000;stroke-width:1.23347;stroke-linecap:butt;stroke-linejoin:miter;stroke-miterlimit:4;stroke-dasharray:none;stroke-opacity:1"
         id="path3595" />
      <path
         d="m 104.86715,276.09241 v 20.60672"
         style="fill:none;fill-rule:evenodd;stroke:#000000;stroke-width:1.23347;stroke-linecap:butt;stroke-linejoin:miter;stroke-miterlimit:4;stroke-dasharray:none;stroke-opacity:1"
         id="path3597" />
      <path
         d="m 91.883002,291.63474 v 18.89532"
         style="fill:none;fill-rule:evenodd;stroke:#000000;stroke-width:1.23347;stroke-linecap:butt;stroke-linejoin:miter;stroke-miterlimit:4;stroke-dasharray:none;stroke-opacity:1"
         id="path3599" />
      <path
         d="m 104.40618,315.62934 v 18.09199"
         style="fill:none;fill-rule:evenodd;stroke:#000000;stroke-width:1.23347;stroke-linecap:butt;stroke-linejoin:miter;stroke-miterlimit:4;stroke-dasharray:none;stroke-opacity:1"
         id="path3601" />
      <path
         d="m 141.79901,268.19136 v 16.69508"
         style="fill:none;fill-rule:evenodd;stroke:#000000;stroke-width:1.23347;stroke-linecap:butt;stroke-linejoin:miter;stroke-miterlimit:4;stroke-dasharray:none;stroke-opacity:1"
         id="path3603" />
      <path
         d="M 184.96143,284.29371 V 268.29015"
         style="fill:none;fill-rule:evenodd;stroke:#000000;stroke-width:1.23347;stroke-linecap:butt;stroke-linejoin:miter;stroke-miterlimit:4;stroke-dasharray:none;stroke-opacity:1"
         id="path3605" />
      <path
         d="m 227.52626,268.24076 v 16.39871"
         style="fill:none;fill-rule:evenodd;stroke:#000000;stroke-width:1.23347;stroke-linecap:butt;stroke-linejoin:miter;stroke-miterlimit:4;stroke-dasharray:none;stroke-opacity:1"
         id="path3607" />
      <path
         d="m 161.87266,284.66417 v 21.8567"
         style="fill:none;fill-rule:evenodd;stroke:#000000;stroke-width:1.23347;stroke-linecap:butt;stroke-linejoin:miter;stroke-miterlimit:4;stroke-dasharray:none;stroke-opacity:1"
         id="path3609" />
      <path
         d="m 206.77353,284.63947 v 21.93081"
         style="fill:none;fill-rule:evenodd;stroke:#000000;stroke-width:1.23347;stroke-linecap:butt;stroke-linejoin:miter;stroke-miterlimit:4;stroke-dasharray:none;stroke-opacity:1"
         id="path3611" />
      <path
         d="m 227.4176,306.52087 v 19.26357"
         style="fill:none;fill-rule:evenodd;stroke:#000000;stroke-width:1.23347;stroke-linecap:butt;stroke-linejoin:miter;stroke-miterlimit:4;stroke-dasharray:none;stroke-opacity:1"
         id="path3613" />
      <path
         d="m 141.63603,306.52087 v 19.21417"
         style="fill:none;fill-rule:evenodd;stroke:#000000;stroke-width:1.23347;stroke-linecap:butt;stroke-linejoin:miter;stroke-miterlimit:4;stroke-dasharray:none;stroke-opacity:1"
         id="path3615" />
      <path
         d="m 162.00847,325.73504 v 17.97929"
         style="fill:none;fill-rule:evenodd;stroke:#000000;stroke-width:1.23347;stroke-linecap:butt;stroke-linejoin:miter;stroke-miterlimit:4;stroke-dasharray:none;stroke-opacity:1"
         id="path3617" />
      <path
         d="m 206.55622,325.88322 v 17.88052"
         style="fill:none;fill-rule:evenodd;stroke:#000000;stroke-width:1.23347;stroke-linecap:butt;stroke-linejoin:miter;stroke-miterlimit:4;stroke-dasharray:none;stroke-opacity:1"
         id="path3619" />
      <path
         d="m 275.65955,254.11416 c 0.0543,0.19757 0,17.18901 0,17.18901"
         style="fill:none;fill-rule:evenodd;stroke:#000000;stroke-width:1.23347;stroke-linecap:butt;stroke-linejoin:miter;stroke-miterlimit:4;stroke-dasharray:none;stroke-opacity:1"
         id="path3621" />
      <path
         d="m 263.97936,296.64214 v -20.3996"
         style="fill:none;fill-rule:evenodd;stroke:#000000;stroke-width:1.23347;stroke-linecap:butt;stroke-linejoin:miter;stroke-miterlimit:4;stroke-dasharray:none;stroke-opacity:1"
         id="path3623" />
      <path
         d="m 276.63743,291.80154 v 18.81904"
         style="fill:none;fill-rule:evenodd;stroke:#000000;stroke-width:1.23347;stroke-linecap:butt;stroke-linejoin:miter;stroke-miterlimit:4;stroke-dasharray:none;stroke-opacity:1"
         id="path3625" />
      <path
         d="m 264.25099,315.8563 v 18.12747"
         style="fill:none;fill-rule:evenodd;stroke:#000000;stroke-width:1.23347;stroke-linecap:butt;stroke-linejoin:miter;stroke-miterlimit:4;stroke-dasharray:none;stroke-opacity:1"
         id="path3627" />
      <path
         d="m 154.2684,240.50218 v 13.13241"
         style="fill:none;fill-rule:evenodd;stroke:#000000;stroke-width:1.23347;stroke-linecap:butt;stroke-linejoin:miter;stroke-miterlimit:4;stroke-dasharray:none;stroke-opacity:1"
         id="path3629" />
      <path
         d="m 215.96233,240.78159 v 12.25925"
         style="fill:none;fill-rule:evenodd;stroke:#000000;stroke-width:1.23347;stroke-linecap:butt;stroke-linejoin:miter;stroke-miterlimit:4;stroke-dasharray:none;stroke-opacity:1"
         id="path3631" />
    </g>
  </g>
</svg>
