<?xml version="1.0" encoding="UTF-8" standalone="no"?>
<!-- Created with Sodipodi ("http://www.sodipodi.com/") -->

<svg
   id="svg548"
   inkscape:version="1.2.2 (b0a8486541, 2022-12-01)"
   sodipodi:version="0.33pre"
   version="1.1"
   sodipodi:docname="es_mc.svg"
   width="512.00006"
   height="512.06201"
   xmlns:inkscape="http://www.inkscape.org/namespaces/inkscape"
   xmlns:sodipodi="http://sodipodi.sourceforge.net/DTD/sodipodi-0.dtd"
   xmlns="http://www.w3.org/2000/svg"
   xmlns:svg="http://www.w3.org/2000/svg"
   xmlns:rdf="http://www.w3.org/1999/02/22-rdf-syntax-ns#"
   xmlns:cc="http://creativecommons.org/ns#"
   xmlns:dc="http://purl.org/dc/elements/1.1/">
  <defs
     id="defs46" />
  <sodipodi:namedview
     id="base"
     inkscape:window-x="0"
     inkscape:window-y="0"
     inkscape:window-height="991"
     inkscape:window-maximized="1"
     inkscape:zoom="1.2685914"
     showgrid="false"
     inkscape:current-layer="svg548"
     inkscape:cx="432.36932"
     inkscape:cy="271.95518"
     inkscape:window-width="1920"
     pagecolor="#ffffff"
     bordercolor="#000000"
     borderopacity="0.25"
     inkscape:showpageshadow="2"
     inkscape:pageopacity="0.0"
     inkscape:pagecheckerboard="0"
     inkscape:deskcolor="#d1d1d1" />
  <rect
     id="rect999"
     style="fill:#99011a;fill-rule:evenodd;stroke-width:1.03226pt"
     height="512.06201"
     width="512.00006"
     y="0"
     x="0" />
  <path
     id="path623"
     style="fill:#ffcc00;stroke:#000000;stroke-width:0.774173;stroke-linejoin:round"
     inkscape:connector-curvature="0"
     d="m 369.94574,376.5723 v -0.44697 l -0.11174,-0.55871 v -0.44696 l -0.11175,-0.55871 -0.33522,-1.00568 -0.33523,-1.11742 -0.44697,-1.11742 -0.44696,-1.00568 -0.55871,-1.00568 -0.55871,-1.00567 -1.00568,-1.67618 -0.89394,-1.34091 -0.67045,-0.89393 -0.22348,-0.33523 0.22348,0.11174 0.89394,0.22349 1.22921,0.44696 1.56439,0.44697 0.89393,0.33523 0.7822,0.44697 0.78219,0.33522 0.78219,0.44697 0.7822,0.44697 0.67045,0.55871 0.67045,0.44697 0.55871,0.67045 0.44697,0.44696 0.22348,0.55871 v 1.22922 l -0.22348,0.33522 -0.22348,0.33523 -0.33523,0.22348 -0.22348,0.22349 -0.33523,0.22348 -0.33523,0.22348 -0.22348,0.11175 -0.55871,0.11174 -0.22348,0.11174 v 0.11174 l 0.11174,0.44697 0.11174,0.55871 0.33523,0.55871 0.11174,0.33523 0.22348,0.44696 0.33523,0.22349 0.33522,0.22348 0.33523,0.22349 0.55871,0.22348 0.44697,0.11174 h 1.3409 l 0.67045,-0.11174 0.55871,-0.22348 0.55871,-0.22349 0.44697,-0.33522 0.44697,-0.22349 0.33522,-0.33522 0.33523,-0.33523 0.55871,-0.78219 0.44697,-0.55871 0.22348,-0.44697 v -0.11174 l 0.11174,0.11174 0.22349,0.44697 0.33522,0.67045 0.67045,0.67045 0.33523,0.44697 0.33523,0.33522 0.44696,0.33523 0.55871,0.33523 0.55871,0.22348 0.55871,0.11174 0.67045,0.22348 h 2.01136 l 0.55871,-0.11174 0.44697,-0.11174 0.33522,-0.11174 0.33523,-0.11174 0.33522,-0.11174 0.11175,-0.22349 0.22348,-0.22348 0.11174,-0.11174 0.11174,-0.22349 v -0.22348 l 0.11175,-0.44697 v -0.89394 l -0.11175,-0.44696 -0.11174,-0.22349 v -0.22348 l -0.22348,-0.11174 -0.11174,-0.11175 -0.22349,-0.11174 -0.22348,-0.11174 -0.33523,-0.11174 h -0.33522 l -0.44697,0.11174 h -0.44697 l -0.55871,0.11174 -0.55871,0.22349 v -0.11175 l 0.22349,-0.44696 0.11174,-0.67045 0.44697,-0.67046 0.22348,-0.33522 0.22348,-0.33523 0.22349,-0.22348 0.33522,-0.22349 0.33523,-0.22348 0.33522,-0.22348 0.44697,-0.11175 h 0.33523 v -0.11174 l 0.22348,-0.44697 0.33523,-0.55871 0.33522,-0.67045 0.44697,-0.55871 0.44697,-0.55871 0.33523,-0.22348 0.22348,-0.22348 0.33523,-0.11175 h 0.44696 l 0.33523,0.11175 0.22348,0.22348 0.33523,0.22348 0.55871,0.55871 0.44697,0.55871 0.33522,0.67045 0.33523,0.55871 0.22348,0.44697 v 0.11174 h 0.44697 l 0.33523,0.11175 0.33522,0.22348 0.33523,0.22348 0.33522,0.22349 0.22349,0.22348 0.33522,0.33523 0.11174,0.33522 0.44697,0.67046 0.22349,0.67045 0.22348,0.44696 v 0.11175 l -0.67045,-0.22349 -0.55871,-0.11174 h -0.44697 l -0.44697,-0.11174 h -0.33522 l -0.33523,0.11174 -0.22348,0.11174 -0.22349,0.11174 -0.11174,0.11175 -0.22348,0.11174 -0.11174,0.22348 v 0.22349 l -0.11175,0.44696 v 0.89394 l 0.11175,0.44697 v 0.22348 l 0.11174,0.22349 0.11174,0.11174 0.22348,0.22348 0.22349,0.22349 0.22348,0.11174 0.33523,0.11174 0.33522,0.11174 0.44697,0.11174 0.55871,0.11174 h 2.01136 l 0.67045,-0.22348 0.55871,-0.11174 0.67045,-0.22348 0.44697,-0.33523 0.44696,-0.33523 0.33523,-0.33522 0.44697,-0.44697 0.55871,-0.67045 0.33522,-0.67045 0.33523,-0.44697 v -0.11174 0.11174 l 0.33523,0.44697 0.33522,0.55871 0.55871,0.78219 0.33523,0.33523 0.33522,0.33522 0.44697,0.22349 0.44697,0.33522 0.55871,0.22349 0.55871,0.22348 0.67045,0.11174 h 1.3409 l 0.55871,-0.11174 0.44697,-0.22348 0.44697,-0.22349 0.22348,-0.22348 0.33523,-0.22349 0.22348,-0.44696 0.22349,-0.33523 0.22348,-0.55871 0.11174,-0.55871 0.11174,-0.44697 v -0.11174 l -0.22348,-0.11174 -0.44697,-0.11174 -0.33522,-0.11175 -0.33523,-0.22348 -0.22348,-0.22348 -0.33523,-0.22349 -0.33523,-0.22348 -0.22348,-0.33523 -0.22348,-0.33522 v -0.7822 l 0.11174,-0.44696 0.22348,-0.55871 0.33523,-0.44697 0.55871,-0.67045 0.67045,-0.44697 0.67045,-0.55871 0.7822,-0.44697 0.78219,-0.44697 0.89393,-0.33522 0.7822,-0.44697 0.78219,-0.33523 1.56439,-0.44696 1.22921,-0.44697 0.89394,-0.22349 0.33522,-0.11174 -0.33522,0.33523 -0.55871,0.89393 -0.89394,1.34091 -1.11742,1.67618 -0.55871,1.00568 -0.44696,1.00567 -0.55871,1.00568 -0.44697,1.11742 -0.33523,1.11742 -0.22348,1.00568 -0.11174,0.55871 -0.11175,0.44697 v 13.18606 h -46.03768 v -12.17961" />
  <path
     id="path625"
     style="fill:#ffcc00;stroke:#000000;stroke-width:0.774173;stroke-linejoin:round"
     inkscape:connector-curvature="0"
     d="m 369.94574,409.19166 v -0.55871 l -0.11174,-0.55871 v -0.44697 l -0.11175,-0.55871 -0.33522,-1.11742 -0.33523,-1.11742 -0.44697,-1.00567 -0.44696,-1.11742 -0.55871,-1.00568 -0.55871,-1.00568 -1.00568,-1.67618 -0.89394,-1.45259 -0.67045,-0.89394 -0.22348,-0.33522 0.22348,0.11174 0.89394,0.33522 1.22921,0.44697 1.56439,0.55871 0.89393,0.33523 0.7822,0.33522 0.78219,0.44697 0.78219,0.44697 0.7822,0.44697 0.67045,0.55871 0.67045,0.55871 0.55871,0.55871 0.44697,0.55871 0.22348,0.44696 v 1.34091 l -0.22348,0.33522 -0.22348,0.22349 -0.33523,0.33522 -0.22348,0.22349 -0.33523,0.22348 -0.33523,0.11174 -0.22348,0.11174 -0.55871,0.22349 h -0.22348 v 0.22348 l 0.11174,0.33523 0.11174,0.55871 0.33523,0.67045 0.11174,0.33522 0.22348,0.33523 0.33523,0.33523 0.33522,0.22348 0.33523,0.22348 0.55871,0.11175 0.44697,0.11174 0.67045,0.11174 0.67045,-0.11174 0.67045,-0.11174 0.55871,-0.22349 0.55871,-0.22348 0.44697,-0.22349 0.44697,-0.44696 0.33522,-0.33523 0.33523,-0.33523 0.55871,-0.67045 0.44697,-0.67045 0.22348,-0.44697 v -0.22348 l 0.11174,0.22348 0.22349,0.44697 0.33522,0.67045 0.67045,0.67045 0.33523,0.33523 0.33523,0.33523 0.44696,0.44696 0.55871,0.22349 0.55871,0.22348 0.55871,0.22349 0.67045,0.11174 0.67046,0.11174 h 0.78219 l 0.55871,-0.11174 h 0.55871 l 0.44697,-0.11174 0.33522,-0.11175 0.33523,-0.22348 0.33522,-0.11174 0.11175,-0.11174 0.22348,-0.22349 0.11174,-0.22348 0.11174,-0.22349 v -0.11174 l 0.11175,-0.44697 v -0.89393 l -0.11175,-0.44697 -0.11174,-0.11174 v -0.22348 l -0.22348,-0.11175 -0.11174,-0.22348 -0.22349,-0.11174 -0.22348,-0.11174 h -0.32 l -0.33523,-0.11175 -0.44696,0.11175 h -0.44697 l -0.55871,0.11174 -0.55871,0.11174 v -0.11174 l 0.22348,-0.33523 0.11174,-0.67045 0.44697,-0.55871 0.22349,-0.33523 0.22348,-0.33522 0.22348,-0.22348 0.33523,-0.33523 0.33522,-0.11174 0.33523,-0.11174 0.44697,-0.11175 h 0.33522 v -0.22348 l 0.22349,-0.44697 0.33522,-0.55871 0.33523,-0.67045 0.44697,-0.67045 0.44697,-0.67045 0.33522,-0.22349 0.22349,-0.22348 h 0.33522 l 0.11174,-0.11174 0.33523,0.11174 h 0.33522 l 0.22349,0.22348 0.33522,0.22349 0.55871,0.67045 0.44697,0.67045 0.33523,0.67045 0.33522,0.55871 0.22349,0.44697 v 0.22348 h 0.44697 l 0.33522,0.11175 0.33523,0.11174 0.33522,0.11174 0.33523,0.33523 0.22348,0.22348 0.33523,0.33522 0.11174,0.33523 0.44697,0.55871 0.22348,0.67045 0.22349,0.33523 v 0.11174 l -0.67046,-0.11174 -0.55871,-0.11174 h -0.44696 l -0.44697,-0.11175 -0.33523,0.11175 h -0.33522 l -0.22349,0.11174 -0.22348,0.11174 -0.11174,0.22348 -0.22349,0.11175 -0.11174,0.22348 v 0.11174 l -0.11174,0.44697 v 0.89393 l 0.11174,0.44697 v 0.11174 l 0.11174,0.22349 0.11175,0.22348 0.22348,0.22349 0.22348,0.11174 0.22349,0.11174 0.33522,0.22348 0.33523,0.11175 0.44697,0.11174 h 0.55871 l 0.55871,0.11174 h 0.78219 l 0.67045,-0.11174 0.67045,-0.11174 0.55871,-0.22349 0.67045,-0.22348 0.44697,-0.22349 0.44697,-0.44696 0.33523,-0.33523 0.44696,-0.33523 0.55871,-0.67045 0.33523,-0.67045 0.33523,-0.44697 v -0.22348 0.22348 l 0.33522,0.44697 0.33523,0.67045 0.55871,0.67045 0.33522,0.33523 0.33523,0.33523 0.44697,0.44696 0.44696,0.22349 0.55871,0.22348 0.55871,0.22349 0.67046,0.11174 0.67045,0.11174 0.67045,-0.11174 0.55871,-0.11174 0.44697,-0.11175 0.44696,-0.22348 0.22349,-0.22348 0.33522,-0.33523 0.22349,-0.33523 0.22348,-0.33522 0.22349,-0.67045 0.11174,-0.55871 0.11174,-0.33523 v -0.22348 h -0.22348 l -0.44697,-0.22349 -0.33523,-0.11174 -0.33522,-0.11174 -0.22349,-0.22348 -0.33522,-0.22349 -0.33523,-0.33522 -0.22348,-0.22349 -0.22349,-0.33522 v -0.89394 l 0.11174,-0.44697 0.22349,-0.44696 0.33522,-0.55871 0.55871,-0.55871 0.67046,-0.55871 0.67045,-0.55871 0.78219,-0.44697 0.7822,-0.44697 0.89393,-0.44697 0.78219,-0.33522 0.7822,-0.33523 1.56439,-0.55871 1.22921,-0.44697 0.89393,-0.33522 0.33523,-0.11174 -0.33523,0.33522 -0.55871,0.89394 -0.89393,1.45259 -1.11742,1.67618 -0.55871,1.00568 -0.44697,1.00568 -0.55871,1.11742 -0.44697,1.00567 -0.33522,1.11742 -0.22349,1.11742 -0.11174,0.55871 -0.11174,0.44697 v 12.96207 h -46.03768 v -11.84413" />
  <path
     id="path627"
     style="fill:#ffcc00;stroke:#000000;stroke-width:0.774173;stroke-linejoin:round"
     inkscape:connector-curvature="0"
     d="m 404.70187,441.49102 v -1.00568 l -0.11174,-0.55871 -0.11174,-0.44697 -0.33523,-1.11742 -0.33522,-1.00567 -0.44697,-1.11742 -0.44697,-1.00568 -0.55871,-1.00568 -0.44697,-1.00568 -1.11742,-1.67618 -0.89393,-1.3409 -0.67045,-0.89394 -0.22349,-0.33522 0.22349,0.11174 1.00567,0.22348 1.11742,0.44697 1.56439,0.55871 0.89394,0.33523 0.78219,0.33522 0.78219,0.44697 0.7822,0.44697 0.78219,0.44697 0.78219,0.44697 0.67046,0.44696 0.44696,0.55871 0.44697,0.55871 0.22349,0.55871 0.11174,0.44697 v 0.44697 l -0.11174,0.44697 -0.22349,0.33522 -0.22348,0.33523 -0.33523,0.22348 -0.22348,0.33523 -0.33523,0.22348 -0.33522,0.11174 -0.22349,0.11175 -0.55871,0.22348 -0.11174,0.11174 v 0.44697 l 0.11174,0.55871 0.33523,0.55871 0.11174,0.33522 0.22348,0.33523 0.33523,0.22348 0.33523,0.33523 0.33522,0.22348 0.55871,0.11175 0.44697,0.11174 h 1.3409 l 0.67045,-0.11174 0.55871,-0.22349 0.55871,-0.22348 0.44697,-0.33523 0.44697,-0.22348 0.33523,-0.33523 0.33522,-0.33522 0.55871,-0.7822 0.44697,-0.55871 0.22348,-0.44696 v -0.11175 l 0.11174,0.11175 0.22349,0.44696 0.33522,0.67045 0.67046,0.67046 0.33522,0.44696 0.44697,0.33523 0.33523,0.33523 0.55871,0.33522 0.5587,0.22349 0.67046,0.11174 0.55871,0.22348 h 1.45259 l 0.55871,-0.11174 h 0.55871 l 0.44697,-0.11174 0.33522,-0.11174 0.33523,-0.11175 0.33522,-0.22348 0.22349,-0.11174 0.11174,-0.22349 0.11174,-0.11174 0.11174,-0.22348 v -0.22349 l 0.11175,-0.44696 v -0.89394 l -0.11175,-0.33523 v -0.22348 l -0.11174,-0.22348 -0.22348,-0.22349 -0.11174,-0.11174 -0.22349,-0.11174 -0.22348,-0.11174 h -0.33523 l -0.33522,-0.11174 -0.44697,0.11174 h -0.44697 l -0.55871,0.11174 -0.55871,0.22348 V 437.58 l 0.22349,-0.44697 0.22348,-0.55871 0.33523,-0.67045 0.22348,-0.33523 0.22348,-0.33522 0.22349,-0.22349 0.33522,-0.33522 0.33523,-0.22349 0.33523,-0.11174 0.44696,-0.11174 h 0.33523 l 0.11174,-0.11174 0.11174,-0.44697 0.33523,-0.55871 0.33522,-0.67045 0.44697,-0.55871 0.55871,-0.67045 0.22349,-0.11174 0.22348,-0.22349 0.33523,-0.11174 h 0.44696 l 0.33523,0.11174 0.33523,0.22349 0.22348,0.11174 0.55871,0.67045 0.44697,0.55871 0.33522,0.67045 0.33523,0.55871 0.22348,0.44697 v 0.11174 h 0.44697 l 0.33523,0.11174 0.33522,0.11174 0.33523,0.22349 0.33522,0.33522 0.22349,0.22349 0.33522,0.33522 0.22349,0.33523 0.33522,0.67045 0.22349,0.55871 0.22348,0.44697 v 0.22348 l -0.67045,-0.22348 -0.55871,-0.11174 h -0.44697 l -0.44697,-0.11174 -0.33522,0.11174 h -0.22349 l -0.33522,0.11174 -0.22349,0.11174 -0.11174,0.11174 -0.11174,0.22349 -0.11174,0.22348 -0.11174,0.22348 v 1.67619 l 0.11174,0.22348 v 0.22348 l 0.11174,0.11175 0.22348,0.22348 0.22349,0.11174 0.22348,0.22349 0.33523,0.11174 0.33522,0.11174 0.44697,0.11174 h 0.55871 l 0.67045,0.11174 h 1.34091 l 0.67045,-0.22348 0.55871,-0.11174 0.67045,-0.22349 0.44697,-0.33522 0.44697,-0.33523 0.33522,-0.33522 0.44697,-0.44697 0.55871,-0.67045 0.33522,-0.67046 0.33523,-0.44696 v -0.11175 l 0.11174,0.11175 0.22349,0.44696 0.33522,0.55871 0.55871,0.7822 0.33523,0.33522 0.44697,0.33523 0.33522,0.22348 0.55871,0.33523 0.44697,0.22348 0.55871,0.22349 0.67045,0.11174 h 1.3409 l 0.55871,-0.11174 0.44697,-0.11174 0.44697,-0.22349 0.22348,-0.33522 0.33523,-0.22349 0.22348,-0.33522 0.22349,-0.33523 0.22348,-0.55871 0.11174,-0.55871 0.11174,-0.33523 v -0.11174 l -0.22348,-0.11174 -0.44697,-0.22348 -0.33522,-0.11175 -0.22349,-0.11174 -0.33522,-0.22348 -0.33523,-0.33523 -0.33522,-0.22348 -0.22349,-0.33523 -0.11174,-0.33522 -0.11174,-0.44697 v -0.44697 l 0.11174,-0.44697 0.11174,-0.22348 0.11174,-0.33523 0.11175,-0.22348 0.22348,-0.33523 0.55871,-0.55871 0.67045,-0.44696 0.67045,-0.44697 0.7822,-0.44697 0.78219,-0.44697 0.89394,-0.44696 0.78219,-0.33523 0.78219,-0.33523 1.56439,-0.55871 1.22921,-0.44696 0.89394,-0.22349 0.33522,-0.11174 -0.33522,0.33523 -0.55871,0.89393 -0.89394,1.34091 -1.11742,1.67618 -0.55871,1.00567 -0.44696,1.00568 -0.44697,1.00568 -0.44697,1.11742 -0.44697,1.00568 -0.22348,1.11742 -0.11174,0.44696 -0.11175,0.55871 v 13.18607 h -46.03768 v -12.17962" />
  <path
     id="path629"
     style="fill:#ffcc00;stroke:#000000;stroke-width:0.774173;stroke-linejoin:round"
     inkscape:connector-curvature="0"
     d="m 369.94574,474.1207 v -0.55871 l -0.11174,-0.55871 v -0.44697 l -0.11175,-0.67045 -0.33522,-1.00568 -0.33523,-1.11742 -0.44697,-1.11741 -0.44696,-1.00568 -0.55871,-1.00568 -0.55871,-1.00568 -1.00568,-1.67618 -0.89394,-1.45259 -0.67045,-0.89394 -0.22348,-0.33522 0.22348,0.11174 0.89394,0.33522 1.22921,0.44697 1.56439,0.55871 0.89393,0.33523 0.7822,0.33522 0.78219,0.44697 0.78219,0.44697 0.7822,0.44697 0.67045,0.55871 0.67045,0.55871 0.55871,0.55871 0.44697,0.55871 0.22348,0.44696 v 1.34091 l -0.22348,0.22348 -0.22348,0.33523 -0.33523,0.33522 -0.22348,0.22349 -0.33523,0.11174 -0.33523,0.22348 -0.22348,0.11174 -0.55871,0.22349 h -0.22348 v 0.22348 l 0.11174,0.33523 0.11174,0.55871 0.33523,0.67045 0.11174,0.33523 0.22348,0.33522 0.33523,0.22349 0.33522,0.33522 0.33523,0.22348 0.55871,0.11175 0.44697,0.11174 0.67045,0.11174 0.67045,-0.11174 0.67045,-0.11174 0.55871,-0.22349 0.55871,-0.22348 0.44697,-0.33523 0.44697,-0.33522 0.33522,-0.33523 0.33523,-0.33522 0.55871,-0.7822 0.44697,-0.55871 0.22348,-0.44697 v -0.22348 l 0.11174,0.22348 0.22349,0.44697 0.33522,0.67045 0.67045,0.7822 0.33523,0.33522 0.33523,0.44697 0.44696,0.33523 0.55871,0.22348 0.55871,0.33523 0.55871,0.22348 0.67045,0.11174 0.67046,0.11174 h 0.78219 l 0.55871,-0.11174 0.55871,-0.11174 h 0.44697 l 0.33522,-0.22348 0.33523,-0.11175 0.33522,-0.11174 0.11175,-0.22348 0.22348,-0.11174 0.11174,-0.22349 0.11174,-0.22348 v -0.33523 l 0.11175,-0.44696 v -0.89394 l -0.11175,-0.44697 -0.11174,-0.11174 v -0.22348 l -0.22348,-0.11175 -0.11174,-0.22348 -0.22349,-0.11174 -0.22348,-0.11174 h -0.32 l -0.33523,-0.11175 h -0.44696 l -0.44697,0.11175 -0.55871,0.11174 -0.55871,0.11174 v -0.11174 l 0.22348,-0.44697 0.11174,-0.55871 0.44697,-0.55871 0.22349,-0.33522 0.22348,-0.33523 0.22348,-0.22348 0.33523,-0.33523 0.33522,-0.22348 0.33523,-0.11175 h 0.78219 v -0.22348 l 0.22349,-0.44697 0.33522,-0.55871 0.33523,-0.67045 0.44697,-0.78219 0.44697,-0.55871 0.33522,-0.22349 0.22349,-0.22348 h 0.33522 l 0.11174,-0.11174 0.33523,0.11174 h 0.33522 l 0.22349,0.22348 0.33522,0.22349 0.55871,0.55871 0.44697,0.78219 0.33523,0.67045 0.33522,0.55871 0.22349,0.44697 v 0.22348 h 0.78219 l 0.33523,0.11175 0.33522,0.22348 0.33523,0.33523 0.22348,0.22348 0.33523,0.33523 0.11174,0.33522 0.44697,0.55871 0.22348,0.55871 0.22349,0.44697 v 0.11174 l -0.67046,-0.11174 -0.55871,-0.11174 -0.44696,-0.11175 h -0.44697 l -0.33523,0.11175 h -0.33522 l -0.22349,0.11174 -0.22348,0.11174 -0.11174,0.22348 -0.22349,0.11175 -0.11174,0.22348 v 0.11174 l -0.11174,0.44697 v 0.89394 l 0.11174,0.44696 v 0.33523 l 0.11174,0.22348 0.11175,0.22349 0.22348,0.11174 0.22348,0.22348 0.22349,0.11174 0.33522,0.11175 0.33523,0.22348 h 0.44697 l 0.55871,0.11174 0.55871,0.11174 h 0.78219 l 0.67045,-0.11174 0.67045,-0.11174 0.55871,-0.22348 0.67045,-0.33523 0.44697,-0.22348 0.44697,-0.33523 0.33523,-0.44697 0.44696,-0.33522 0.55871,-0.7822 0.33523,-0.67045 0.33523,-0.44697 v -0.22348 0.22348 l 0.33522,0.44697 0.33523,0.55871 0.55871,0.7822 0.33522,0.33522 0.33523,0.33523 0.44697,0.33522 0.44696,0.33523 0.55871,0.22348 0.55871,0.22349 0.67046,0.11174 0.67045,0.11174 0.67045,-0.11174 0.55871,-0.11174 0.44697,-0.11175 0.44696,-0.22348 0.22349,-0.33522 0.33522,-0.22349 0.22349,-0.33522 0.22348,-0.33523 0.22349,-0.67045 0.11174,-0.55871 0.11174,-0.33523 v -0.22348 h -0.22348 l -0.44697,-0.22349 -0.33523,-0.11174 -0.33522,-0.22348 -0.22349,-0.11174 -0.33522,-0.22349 -0.33523,-0.33522 -0.22348,-0.33523 -0.22349,-0.22348 v -0.89394 l 0.11174,-0.44697 0.22349,-0.44696 0.33522,-0.55871 0.55871,-0.55871 0.67046,-0.55871 0.67045,-0.55871 0.78219,-0.44697 0.7822,-0.44697 0.89393,-0.44697 0.78219,-0.33522 0.7822,-0.33523 1.56439,-0.55871 1.22921,-0.44697 0.89393,-0.33522 0.33523,-0.11174 -0.33523,0.33522 -0.55871,0.89394 -0.89393,1.45259 -1.11742,1.67618 -0.55871,1.00568 -0.44697,1.00568 -0.55871,1.00568 -0.44697,1.11741 -0.33522,1.11742 -0.22349,1.00568 -0.11174,0.67045 -0.11174,0.44697 v 12.96207 h -46.03768 v -11.84413" />
  <path
     id="path632"
     style="fill:#ffcc00;stroke:#1f1a16;stroke-width:0.774173"
     inkscape:connector-curvature="0"
     d="m 433.52252,409.19166 v -0.55871 l -0.11174,-0.55871 -0.11174,-0.44697 -0.11175,-0.55871 -0.22348,-1.11742 -0.33523,-1.11742 -0.44696,-1.00567 -0.55871,-1.11742 -0.55871,-1.00568 -0.55871,-1.00568 -1.11742,-1.67618 -0.89394,-1.45259 -0.67045,-0.89394 -0.22348,-0.33522 0.33522,0.11174 0.7822,0.33522 1.3409,0.44697 1.45259,0.55871 0.7822,0.33523 0.89393,0.33522 0.89394,0.44697 0.78219,0.44697 0.67045,0.44697 0.7822,0.55871 0.67045,0.55871 0.44697,0.55871 0.44696,0.55871 0.22349,0.44696 0.11174,0.44697 v 0.44697 l -0.11174,0.44697 -0.22349,0.33522 -0.22348,0.22349 -0.22348,0.33522 -0.33523,0.22349 -0.33522,0.22348 -0.33523,0.11174 -0.33523,0.11174 -0.44696,0.22349 h -0.11355 v 0.55871 l 0.11174,0.55871 0.33523,0.67045 0.11174,0.33522 0.33522,0.33523 0.33523,0.33523 0.33522,0.22348 0.44697,0.22348 0.44697,0.11175 0.55871,0.11174 0.67045,0.11174 0.67045,-0.11174 0.55871,-0.11174 0.55871,-0.22349 0.55871,-0.22348 0.33523,-0.22349 0.44697,-0.44696 0.33522,-0.33523 0.44697,-0.33523 0.44697,-0.67045 0.44697,-0.67045 0.22348,-0.44697 0.11174,-0.22348 v 0.22348 l 0.22349,0.44697 0.44696,0.67045 0.55871,0.67045 0.33523,0.33523 0.44697,0.33523 0.33522,0.44696 0.55871,0.22349 0.55871,0.22348 0.55871,0.22349 0.7822,0.11174 0.67045,0.11174 h 0.67045 l 0.55871,-0.11174 h 0.56774 l 0.44697,-0.11174 0.44697,-0.11175 0.33522,-0.22348 0.22349,-0.11174 0.22348,-0.11174 0.11174,-0.22349 0.11174,-0.22348 0.11175,-0.22349 0.11174,-0.11174 v -1.78787 l -0.11174,-0.11174 -0.11175,-0.22348 -0.11174,-0.11175 -0.11174,-0.22348 -0.22348,-0.11174 -0.22349,-0.11174 h -0.33032 l -0.33523,-0.11175 -0.44696,0.11175 h -0.55742 l -0.44697,0.11174 -0.67045,0.11174 v -0.11174 l 0.11174,-0.33523 0.33522,-0.67045 0.33523,-0.55871 0.22348,-0.33523 0.22349,-0.33522 0.33522,-0.22348 0.22349,-0.33523 0.33522,-0.11174 0.33523,-0.11174 0.44697,-0.11175 h 0.33522 l 0.11175,-0.22348 0.22348,-0.44697 0.22348,-0.55871 0.44697,-0.67045 0.44697,-0.67045 0.55871,-0.67045 0.22348,-0.22349 0.22349,-0.22348 h 0.34064 l 0.33523,-0.11174 0.33522,0.11174 h 0.22349 l 0.22348,0.22348 0.33523,0.22349 0.44696,0.67045 0.55871,0.67045 0.33523,0.67045 0.33523,0.55871 0.22348,0.44697 0.11174,0.22348 h 0.22349 l 0.44696,0.11175 0.33523,0.11174 0.22348,0.11174 0.33523,0.33523 0.22348,0.22348 0.22349,0.33522 0.22348,0.33523 0.33523,0.55871 0.22348,0.67045 0.11174,0.33523 0.11174,0.11174 -0.67045,-0.11174 -0.44697,-0.11174 h -0.5587 l -0.33523,-0.11175 -0.44697,0.11175 h -0.33522 l -0.22349,0.11174 -0.22348,0.11174 -0.11174,0.22348 -0.11175,0.11175 -0.11174,0.22348 -0.11174,0.11174 -0.11174,0.44697 v 0.89393 l 0.11174,0.44697 v 0.11174 l 0.11174,0.22349 0.11174,0.22348 0.22349,0.22349 0.22348,0.11174 0.22349,0.11174 0.33522,0.22348 0.44697,0.11175 0.33523,0.11174 h 0.5587 l 0.67046,0.11174 h 0.67045 l 0.67045,-0.11174 0.67045,-0.11174 0.67045,-0.22349 0.44697,-0.22348 0.55871,-0.22349 0.44697,-0.44696 0.44697,-0.33523 0.33522,-0.33523 0.55871,-0.67045 0.44697,-0.67045 0.11174,-0.44697 0.11174,-0.22348 0.11175,0.22348 0.22348,0.44697 0.33523,0.67045 0.55871,0.67045 0.33522,0.33523 0.44697,0.33523 0.44697,0.44696 0.44696,0.22349 0.55871,0.22348 0.55871,0.22349 0.55871,0.11174 0.7822,0.11174 0.55871,-0.11174 0.55871,-0.11174 0.44696,-0.11175 0.44697,-0.22348 0.33523,-0.22348 0.22348,-0.33523 0.22349,-0.33523 0.22348,-0.33522 0.22348,-0.67045 0.11175,-0.55871 0.11174,-0.33523 v -0.22348 h -0.22349 l -0.44696,-0.22349 -0.33523,-0.11174 -0.22348,-0.11174 -0.33523,-0.22348 -0.33523,-0.22349 -0.22348,-0.33522 -0.33522,-0.22349 -0.11175,-0.33522 v -0.89394 l 0.11175,-0.44697 0.22348,-0.44696 0.44697,-0.55871 0.44696,-0.55871 0.67046,-0.55871 0.67045,-0.55871 0.78219,-0.44697 0.7822,-0.44697 0.78219,-0.44697 0.89393,-0.33522 0.7822,-0.33523 1.45259,-0.55871 1.22921,-0.44697 0.89394,-0.33522 0.33523,-0.11174 -0.22349,0.33522 -0.67045,0.89394 -1.00568,1.45259 -1.00567,1.67618 -0.55871,1.00568 -0.44697,1.00568 -0.55871,1.11742 -0.33523,1.00567 -0.44697,1.11742 -0.22348,1.11742 -0.11174,0.55871 -0.11174,0.44697 v 12.96207 h -45.81369 v -11.84413" />
  <path
     id="path633"
     style="fill:#ffcc00;stroke:#000000;stroke-width:0.774173;stroke-linejoin:round"
     inkscape:connector-curvature="0"
     d="m 306.58573,409.19166 v -0.55871 l -0.11174,-0.55871 -0.11174,-0.44697 -0.11175,-0.55871 -0.22348,-1.11742 -0.33523,-1.11742 -0.44696,-1.00567 -0.44697,-1.11742 -0.55871,-1.00568 -0.55871,-1.00568 -1.00568,-1.67618 -1.00568,-1.45259 -0.55871,-0.89394 -0.22348,-0.33522 0.22348,0.11174 0.89394,0.33522 1.22921,0.44697 1.56439,0.55871 0.78219,0.33523 0.7822,0.33522 0.78219,0.44697 0.78219,0.44697 0.7822,0.44697 0.67045,0.55871 0.55871,0.55871 0.55871,0.55871 0.44697,0.55871 0.22348,0.44696 0.22348,0.44697 v 0.44697 l -0.11174,0.44697 -0.11174,0.33522 -0.33522,0.22349 -0.22349,0.33522 -0.33522,0.22349 -0.33523,0.22348 -0.22348,0.11174 -0.33523,0.11174 -0.44697,0.22349 h -0.22348 v 0.22348 l 0.11174,0.33523 0.11174,0.55871 0.22349,0.67045 0.22348,0.33522 0.22348,0.33523 0.22349,0.33523 0.44697,0.22348 0.33522,0.22348 0.55871,0.11175 0.44697,0.11174 0.67045,0.11174 0.67045,-0.11174 0.55871,-0.11174 0.67045,-0.22349 0.44697,-0.22348 0.55871,-0.22349 0.33523,-0.44696 0.44696,-0.33523 0.33523,-0.33523 0.55871,-0.67045 0.33523,-0.67045 0.22348,-0.44697 0.11174,-0.22348 0.11174,0.22348 0.22349,0.44697 0.33522,0.67045 0.67046,0.67045 0.22348,0.33523 0.44697,0.33523 0.44697,0.44696 0.5587,0.22349 0.44697,0.22348 0.67045,0.22349 0.67046,0.11174 0.67045,0.11174 h 0.78219 l 0.55871,-0.11174 h 0.55871 l 0.44697,-0.11174 0.33522,-0.11175 0.33523,-0.22348 0.33523,-0.11174 0.22348,-0.11174 0.11174,-0.22349 0.11174,-0.22348 0.11175,-0.22349 v -0.11174 l 0.11174,-0.44697 v -0.89393 l -0.11174,-0.44697 -0.11175,-0.11174 -0.11174,-0.22348 -0.11174,-0.11175 -0.11174,-0.22348 -0.22349,-0.11174 -0.22348,-0.11174 h -0.33523 l -0.33522,-0.11175 -0.44697,0.11175 h -0.44697 l -0.55871,0.11174 -0.67045,0.11174 0.11174,-0.11174 0.11175,-0.33523 0.33522,-0.67045 0.22349,-0.55871 0.22348,-0.33523 0.33523,-0.33522 0.11174,-0.22348 0.33522,-0.33523 0.33523,-0.11174 0.33522,-0.11174 0.33523,-0.11175 h 0.33523 l 0.11174,-0.22348 0.11174,-0.44697 0.33523,-0.55871 0.44696,-0.67045 0.44697,-0.67045 0.55871,-0.67045 0.22349,-0.22349 0.22348,-0.22348 h 0.33523 l 0.33522,-0.11174 0.22348,0.11174 h 0.33523 l 0.22348,0.22348 0.22349,0.22349 0.55871,0.67045 0.44697,0.67045 0.44696,0.67045 0.33523,0.55871 0.11174,0.44697 0.11174,0.22348 h 0.44697 l 0.33523,0.11175 0.33522,0.11174 0.33523,0.11174 0.22348,0.33523 0.33523,0.22348 0.22348,0.33522 0.22349,0.33523 0.33522,0.55871 0.33523,0.67045 0.11174,0.33523 0.11174,0.11174 -0.78219,-0.11174 -0.55871,-0.11174 h -0.44697 l -0.44697,-0.11175 -0.33522,0.11175 h -0.33523 l -0.22348,0.11174 -0.22349,0.11174 -0.11174,0.22348 -0.11174,0.11175 -0.11174,0.22348 v 0.11174 l -0.11174,0.44697 v 0.89393 l 0.11174,0.44697 v 0.11174 l 0.11174,0.22349 0.11174,0.22348 0.11174,0.22349 0.22349,0.11174 0.33522,0.11174 0.22349,0.22348 0.44697,0.11175 0.44696,0.11174 h 0.55871 l 0.55871,0.11174 h 0.7822 l 0.67045,-0.11174 0.67045,-0.11174 0.55871,-0.22349 0.55871,-0.22348 0.44697,-0.22349 0.55871,-0.44696 0.33522,-0.33523 0.33523,-0.33523 0.55871,-0.67045 0.44697,-0.67045 0.22348,-0.44697 0.11174,-0.22348 0.11174,0.22348 0.11175,0.44697 0.44696,0.67045 0.44697,0.67045 0.44697,0.33523 0.33522,0.33523 0.33523,0.44696 0.55871,0.22349 0.44697,0.22348 0.55871,0.22349 0.55871,0.11174 0.67045,0.11174 0.67045,-0.11174 0.55871,-0.11174 0.44697,-0.11175 0.44697,-0.22348 0.44696,-0.22348 0.22349,-0.33523 0.33522,-0.33523 0.11175,-0.33522 0.33522,-0.67045 0.11174,-0.55871 v -0.55871 h -0.11354 l -0.44697,-0.22349 -0.33523,-0.11174 -0.33522,-0.11174 -0.33523,-0.22348 -0.33523,-0.22349 -0.22348,-0.33522 -0.22348,-0.22349 -0.22349,-0.33522 -0.11174,-0.44697 v -0.44697 l 0.11174,-0.44697 0.33523,-0.44696 0.33522,-0.55871 0.55871,-0.55871 0.55871,-0.55871 0.67046,-0.55871 0.78219,-0.44697 0.78219,-0.44697 0.89394,-0.44697 0.78219,-0.33522 0.7822,-0.33523 1.45259,-0.55871 1.22921,-0.44697 0.89394,-0.33522 0.22348,-0.11174 -0.22348,0.33522 -0.67045,0.89394 -0.89394,1.45259 -1.00568,1.67618 -0.55871,1.00568 -0.55871,1.00568 -0.44696,1.11742 -0.44697,1.00567 -0.33523,1.11742 -0.33522,1.11742 -0.11175,0.55871 v 0.44697 l -0.11174,0.55871 v 12.40361 h -45.69807 v -11.84413" />
  <path
     id="path635"
     style="fill:#ffcc00;stroke:#000000;stroke-width:0.774173;stroke-linejoin:round"
     inkscape:connector-curvature="0"
     d="m 381.11477,441.49102 0.11174,-0.44697 v -0.55871 l 0.11175,-0.55871 v -0.44697 l 0.33522,-1.11742 0.33523,-1.00567 0.44696,-1.11742 0.55871,-1.00568 0.44697,-1.00568 0.55871,-1.00568 1.11742,-1.67618 0.89394,-1.3409 0.55871,-0.89394 0.33522,-0.33522 -0.33522,0.11174 -0.89394,0.22348 -1.22921,0.44697 -1.56439,0.55871 -0.78219,0.33523 -0.89394,0.33522 -0.78219,0.44697 -0.7822,0.44697 -0.78219,0.44697 -0.78219,0.44697 -0.55871,0.44696 -0.55871,0.55871 -0.22349,0.33523 -0.11174,0.22348 -0.22348,0.33523 -0.11174,0.22348 -0.11175,0.44697 0.11175,0.44697 v 0.44697 l 0.22348,0.33522 0.22348,0.33523 0.33523,0.22348 0.22348,0.33523 0.33523,0.22348 0.33523,0.11174 0.33522,0.11175 0.44697,0.22348 0.22348,0.11174 v 0.11174 l -0.11174,0.33523 -0.11174,0.55871 -0.33523,0.55871 -0.11174,0.33522 -0.22348,0.33523 -0.33523,0.22348 -0.33522,0.33523 -0.33523,0.22348 -0.44697,0.11175 -0.67045,0.11174 h -1.23871 l -0.67045,-0.11174 -0.55871,-0.22349 -0.55871,-0.22348 -0.44697,-0.33523 -0.44697,-0.22348 -0.33522,-0.33523 -0.33523,-0.33522 -0.55871,-0.7822 -0.44697,-0.55871 -0.22348,-0.44696 v -0.11175 l -0.11174,0.11175 -0.22349,0.44696 -0.44696,0.67045 -0.44697,0.67046 -0.44697,0.44696 -0.33522,0.33523 -0.44697,0.33523 -0.55871,0.33522 -0.55871,0.22349 -0.55871,0.11174 -0.67045,0.22348 h -1.4526 l -0.55871,-0.11174 h -0.55871 l -0.44696,-0.11174 -0.33523,-0.11174 -0.33523,-0.11175 -0.22348,-0.22348 -0.22348,-0.11174 -0.22349,-0.22349 -0.11174,-0.11174 -0.11174,-0.22348 v -0.22349 l -0.11174,-0.44696 v -0.89394 l 0.11174,-0.33523 v -0.22348 l 0.11174,-0.22348 0.22348,-0.22349 0.11175,-0.11174 0.22348,-0.11174 0.22348,-0.11174 h 0.33523 l 0.33523,-0.11174 0.44696,0.11174 h 0.44697 l 0.55871,0.11174 0.55871,0.22348 V 437.58 l -0.11174,-0.44697 -0.33523,-0.55871 -0.33522,-0.67045 -0.22349,-0.33523 -0.22348,-0.33522 -0.22348,-0.22349 -0.33523,-0.33522 -0.33523,-0.22349 -0.33522,-0.11174 -0.33523,-0.11174 h -0.44697 l -0.11174,-0.11174 -0.11174,-0.44697 -0.33523,-0.55871 -0.44696,-0.67045 -0.44697,-0.55871 -0.44697,-0.67045 -0.33522,-0.11174 -0.22349,-0.22349 -0.33522,-0.11174 h -0.5471 l -0.22349,0.11174 -0.22348,0.22349 -0.33523,0.11174 -0.44696,0.67045 -0.44697,0.55871 -0.33523,0.67045 -0.33522,0.55871 -0.22349,0.44697 v 0.11174 h -0.44696 l -0.33523,0.11174 -0.33523,0.11174 -0.33522,0.22349 -0.33523,0.33522 -0.22348,0.22349 -0.22349,0.33522 -0.22348,0.33523 -0.44697,0.67045 -0.22348,0.55871 -0.11174,0.44697 -0.11174,0.22348 0.67045,-0.22348 0.55871,-0.11174 h 0.44696 l 0.44697,-0.11174 0.33523,0.11174 h 0.33522 l 0.22349,0.11174 0.22348,0.11174 0.11174,0.11174 0.11175,0.22349 0.11174,0.22348 0.11174,0.22348 0.11174,0.33523 v 0.89394 l -0.11174,0.44696 v 0.22349 l -0.11174,0.22348 -0.11174,0.11174 -0.22349,0.22349 -0.22348,0.11174 -0.22349,0.22348 -0.33522,0.11175 -0.33523,0.11174 -0.44697,0.11174 h -0.55871 l -0.67045,0.11174 h -1.3409 l -0.67045,-0.22348 -0.55871,-0.11174 -0.55871,-0.22349 -0.55871,-0.33522 -0.44697,-0.33523 -0.33523,-0.33523 -0.44696,-0.44696 -0.55871,-0.67046 -0.33523,-0.67045 -0.22348,-0.44696 -0.11174,-0.11175 v 0.11175 l -0.33523,0.44696 -0.33523,0.55871 -0.55871,0.7822 -0.33522,0.33522 -0.33523,0.33523 -0.55871,0.22348 -0.44697,0.33523 -0.5587,0.22348 -0.55871,0.22349 -0.55871,0.11174 h -1.34091 l -0.44697,-0.11174 -0.55871,-0.11175 -0.33522,-0.22348 -0.33523,-0.33523 -0.33522,-0.22348 -0.22349,-0.33523 -0.22348,-0.33522 -0.22348,-0.55871 -0.11175,-0.55871 -0.11174,-0.33523 v -0.11174 l 0.22349,-0.11174 0.44696,-0.22348 0.33523,-0.11175 0.33523,-0.11174 0.22348,-0.22348 0.33522,-0.33523 0.33523,-0.22348 0.22348,-0.33523 0.11175,-0.33522 0.11174,-0.44697 v -0.44697 l -0.11174,-0.44697 -0.11175,-0.55871 -0.44696,-0.55871 -0.55871,-0.55871 -0.67045,-0.44696 -0.67046,-0.44697 -0.78219,-0.44697 -0.78219,-0.44697 -0.7822,-0.44697 -0.89393,-0.33522 -0.7822,-0.33523 -1.56438,-0.55871 -1.22922,-0.44697 -0.89393,-0.22348 -0.22349,-0.11174 0.22349,0.33522 0.67045,0.89394 0.89393,1.3409 1.00568,1.67618 0.55871,1.00568 0.44697,1.00568 0.55871,1.00568 0.33523,1.11742 0.44696,1.00567 0.33523,1.11742 0.11174,0.44697 v 13.74452 h 46.03768 v -12.17961" />
  <g
     id="g1934"
     transform="matrix(1.0322582,0,0,1.0322582,-1.2139893e-7,-3.7664197e-4)">
    <path
       id="path565"
       inkscape:connector-curvature="0"
       style="fill:#ffcc00;stroke:#000000;stroke-width:0.69039"
       transform="matrix(1.0863,0,0,1.0863,-19.751,-279.69)"
       d="M 118.9,361.8 133,315.1 h 28.5 l 14.2,46.7 H 157 v -20.1 l -0.1,-1 -0.1,-1 -0.3,-0.9 -0.3,-0.9 -0.4,-0.8 -0.5,-0.8 -0.5,-0.7 -0.6,-0.7 -0.7,-0.7 -0.8,-0.5 -0.8,-0.5 -0.8,-0.4 -0.9,-0.4 -0.9,-0.2 -1,-0.1 -1,-0.1 h -0.5 l -0.5,0.1 h -0.4 l -0.5,0.1 -1,0.2 -0.8,0.4 -0.9,0.4 -0.8,0.5 -0.7,0.5 -0.7,0.7 -0.6,0.7 -0.6,0.7 -0.5,0.8 -0.4,0.8 -0.3,0.9 -0.2,0.9 -0.1,0.5 -0.1,0.5 v 21.1 h -18.8" />
    <path
       id="path567"
       inkscape:connector-curvature="0"
       style="fill:#ffcc00;stroke:#000000;stroke-width:0.69039"
       transform="matrix(1.0863,0,0,1.0863,-19.751,-279.69)"
       d="m 135.3,296.6 v 8.9 h 3.8 v -16.8 h -9.5 v 7.9 h 5.7" />
    <path
       id="path569"
       inkscape:connector-curvature="0"
       style="fill:#ffcc00;stroke:#000000;stroke-width:0.69039"
       transform="matrix(1.0863,0,0,1.0863,-19.751,-279.69)"
       d="m 143.4,305.5 v -8.9 h 7.9 v 8.9 H 152 V 283 h -9.6 v 22.5 h 1" />
    <path
       id="path571"
       inkscape:connector-curvature="0"
       style="fill:#ffcc00;stroke:#000000;stroke-width:0.69039"
       transform="matrix(1.0863,0,0,1.0863,-19.751,-279.69)"
       d="m 159.4,305.5 v -8.9 h 5.7 v -7.9 h -9.7 v 16.8 h 4" />
    <path
       id="path573"
       inkscape:connector-curvature="0"
       style="fill:#ffcc00;stroke:#000000;stroke-width:0.69039"
       transform="matrix(1.0863,0,0,1.0863,-19.751,-279.69)"
       d="m 135.3,296.6 v 8.9 h 8.1 v -8.9 h 7.9 v 8.9 h 8.1 v -8.9 h 7.8 V 312 h -39.8 v -15.4 h 7.9" />
    <path
       id="path581"
       inkscape:connector-curvature="0"
       style="fill:#ffcc00;stroke:#000000;stroke-width:0.69039"
       transform="matrix(1.0863,0,0,1.0863,-19.751,-279.69)"
       d="m 52.6,361.8 14,-46.7 h 28.7 l 14,46.7 H 90.6 v -20.1 l -0.1,-1 -0.1,-1 -0.2,-0.9 -0.4,-0.9 -0.4,-0.8 -0.5,-0.8 -0.5,-0.7 -0.6,-0.7 -0.7,-0.7 -0.8,-0.5 -0.8,-0.5 -0.8,-0.4 -0.9,-0.4 -0.9,-0.2 -1,-0.1 L 81,332 h -0.6 l -0.4,0.1 h -0.5 l -0.5,0.1 -0.9,0.2 -0.9,0.4 -0.8,0.4 -0.8,0.5 -0.8,0.5 -0.6,0.7 -0.7,0.7 -0.5,0.7 -0.5,0.8 -0.4,0.8 -0.4,0.9 -0.2,0.9 -0.1,0.5 v 0.5 l -0.1,0.5 v 20.6 H 52.6" />
    <path
       id="path583"
       inkscape:connector-curvature="0"
       style="fill:#ffcc00;stroke:#000000;stroke-width:0.69039"
       transform="matrix(1.0863,0,0,1.0863,-19.751,-279.69)"
       d="m 69,296.6 v 8.9 h 3.7 v -16.8 h -9.5 v 7.9 H 69" />
    <path
       id="path585"
       inkscape:connector-curvature="0"
       style="fill:#ffcc00;stroke:#000000;stroke-width:0.69039"
       transform="matrix(1.0863,0,0,1.0863,-19.751,-279.69)"
       d="m 77,305.5 v -8.9 h 7.9 v 8.9 h 0.8 V 283 h -9.5 v 22.5 H 77" />
    <path
       id="path587"
       inkscape:connector-curvature="0"
       style="fill:#ffcc00;stroke:#000000;stroke-width:0.69039"
       transform="matrix(1.0863,0,0,1.0863,-19.751,-279.69)"
       d="m 93,305.5 v -8.9 h 5.7 v -7.9 h -9.5 v 16.8 H 93" />
    <path
       id="path589"
       inkscape:connector-curvature="0"
       style="fill:#ffcc00;stroke:#000000;stroke-width:0.69039"
       transform="matrix(1.0863,0,0,1.0863,-19.751,-279.69)"
       d="m 69,296.6 v 8.9 h 8 v -8.9 h 7.9 v 8.9 H 93 v -8.9 h 7.9 V 312 H 61.1 V 296.6 H 69" />
    <path
       id="path591"
       inkscape:connector-curvature="0"
       style="fill:#ffcc00;stroke:#000000;stroke-width:0.69039"
       transform="matrix(1.0863,0,0,1.0863,-19.751,-279.69)"
       d="m 127.3,384.6 h 14.1 v -5.3 h -14.1 z" />
    <path
       id="path593"
       inkscape:connector-curvature="0"
       style="fill:#ffcc00;stroke:#000000;stroke-width:0.69039"
       transform="matrix(1.0863,0,0,1.0863,-19.751,-279.69)"
       d="m 140.2,378.9 h 14.2 v -5.5 h -14.2 z" />
    <path
       id="path595"
       inkscape:connector-curvature="0"
       style="fill:#ffcc00;stroke:#000000;stroke-width:0.69039"
       transform="matrix(1.0863,0,0,1.0863,-19.751,-279.69)"
       d="m 153.2,384.6 h 14.2 v -5.3 h -14.2 z" />
    <path
       id="path597"
       inkscape:connector-curvature="0"
       style="fill:#ffcc00;stroke:#000000;stroke-width:0.69039"
       transform="matrix(1.0863,0,0,1.0863,-19.751,-279.69)"
       d="M 118.9,458.8 133,412.2 h 28.5 l 14.2,46.6 H 157 v -20.1 l -0.1,-1 -0.1,-0.9 -0.3,-0.9 -0.3,-0.9 -0.4,-0.8 -0.5,-0.8 -0.5,-0.8 -0.6,-0.7 -0.7,-0.6 -0.8,-0.5 -0.8,-0.5 -0.8,-0.4 -0.9,-0.4 -0.9,-0.2 -1,-0.1 -1,-0.1 h -0.5 l -0.5,0.1 h -0.4 l -0.5,0.1 -1,0.2 -0.8,0.4 -0.9,0.4 -0.8,0.5 -0.7,0.5 -0.7,0.6 -0.6,0.7 -0.6,0.8 -0.5,0.8 -0.4,0.8 -0.3,0.9 -0.2,0.9 -0.1,0.5 -0.1,0.4 v 21.1 h -18.8" />
    <path
       id="path599"
       inkscape:connector-curvature="0"
       style="fill:#ffcc00;stroke:#000000;stroke-width:0.69039"
       transform="matrix(1.0863,0,0,1.0863,-19.751,-279.69)"
       d="m 135.3,393.7 v 8.8 h 3.8 v -16.7 h -9.5 v 7.9 h 5.7" />
    <path
       id="path601"
       inkscape:connector-curvature="0"
       style="fill:#ffcc00;stroke:#000000;stroke-width:0.69039"
       transform="matrix(1.0863,0,0,1.0863,-19.751,-279.69)"
       d="m 143.4,402.5 v -8.8 h 7.9 v 8.8 h 0.7 v -22.4 h -9.6 v 22.4 h 1" />
    <path
       id="path603"
       inkscape:connector-curvature="0"
       style="fill:#ffcc00;stroke:#000000;stroke-width:0.69039"
       transform="matrix(1.0863,0,0,1.0863,-19.751,-279.69)"
       d="m 159.4,402.5 v -8.8 h 5.7 v -7.9 h -9.7 v 16.7 h 4" />
    <path
       id="path605"
       inkscape:connector-curvature="0"
       style="fill:#ffcc00;stroke:#000000;stroke-width:0.69039"
       transform="matrix(1.0863,0,0,1.0863,-19.751,-279.69)"
       d="m 135.3,393.7 v 8.8 h 8.1 v -8.8 h 7.9 v 8.8 h 8.1 v -8.8 h 7.8 V 409 h -39.8 v -15.3 h 7.9" />
    <path
       id="path607"
       inkscape:connector-curvature="0"
       style="fill:#ffcc00;stroke:#000000;stroke-width:0.69039"
       transform="matrix(1.0863,0,0,1.0863,-19.751,-279.69)"
       d="M 60.9,384.6 H 75 v -5.3 H 60.9 Z" />
    <path
       id="path609"
       inkscape:connector-curvature="0"
       style="fill:#ffcc00;stroke:#000000;stroke-width:0.69039"
       transform="matrix(1.0863,0,0,1.0863,-19.751,-279.69)"
       d="M 73.9,378.9 H 88 v -5.5 H 73.9 Z" />
    <path
       id="path611"
       inkscape:connector-curvature="0"
       style="fill:#ffcc00;stroke:#000000;stroke-width:0.69039"
       transform="matrix(1.0863,0,0,1.0863,-19.751,-279.69)"
       d="m 86.9,384.6 h 14.2 v -5.3 H 86.9 Z" />
    <path
       id="path613"
       inkscape:connector-curvature="0"
       style="fill:#ffcc00;stroke:#000000;stroke-width:0.69039"
       transform="matrix(1.0863,0,0,1.0863,-19.751,-279.69)"
       d="m 52.6,458.8 14,-46.6 h 28.7 l 14,46.6 H 90.6 v -20.1 l -0.1,-1 -0.1,-0.9 -0.2,-0.9 -0.4,-0.9 -0.4,-0.8 -0.5,-0.8 -0.5,-0.8 -0.6,-0.7 -0.7,-0.6 -0.8,-0.5 -0.8,-0.5 -0.8,-0.4 -0.9,-0.4 -0.9,-0.2 -1,-0.1 -0.9,-0.1 h -0.6 l -0.4,0.1 h -0.5 l -0.5,0.1 -0.9,0.2 -0.9,0.4 -0.8,0.4 -0.8,0.5 -0.8,0.5 -0.6,0.6 -0.7,0.7 -0.5,0.8 -0.5,0.8 -0.4,0.8 -0.4,0.9 -0.2,0.9 -0.1,0.5 v 0.4 l -0.1,0.6 v 20.5 H 52.6" />
    <path
       id="path615"
       inkscape:connector-curvature="0"
       style="fill:#ffcc00;stroke:#000000;stroke-width:0.69039"
       transform="matrix(1.0863,0,0,1.0863,-19.751,-279.69)"
       d="m 69,393.7 v 8.8 h 3.7 v -16.7 h -9.5 v 7.9 H 69" />
    <path
       id="path617"
       inkscape:connector-curvature="0"
       style="fill:#ffcc00;stroke:#000000;stroke-width:0.69039"
       transform="matrix(1.0863,0,0,1.0863,-19.751,-279.69)"
       d="m 77,402.5 v -8.8 h 7.9 v 8.8 h 0.8 v -22.4 h -9.5 v 22.4 H 77" />
    <path
       id="path619"
       inkscape:connector-curvature="0"
       style="fill:#ffcc00;stroke:#000000;stroke-width:0.69039"
       transform="matrix(1.0863,0,0,1.0863,-19.751,-279.69)"
       d="m 93,402.5 v -8.8 h 5.7 v -7.9 h -9.5 v 16.7 H 93" />
    <path
       id="path621"
       inkscape:connector-curvature="0"
       style="fill:#ffcc00;stroke:#000000;stroke-width:0.69039"
       transform="matrix(1.0863,0,0,1.0863,-19.751,-279.69)"
       d="m 69,393.7 v 8.8 h 8 v -8.8 h 7.9 v 8.8 H 93 v -8.8 h 7.9 V 409 H 61.1 V 393.7 H 69" />
    <path
       id="path1558"
       style="fill:#ffcc00;stroke:#000000;stroke-width:0.75"
       inkscape:connector-curvature="0"
       d="m 118.54,32.975 h 15.32 v -5.757 h -15.32 z" />
    <path
       id="path1560"
       style="fill:#ffcc00;stroke:#000000;stroke-width:0.75"
       inkscape:connector-curvature="0"
       d="m 132.56,26.783 h 15.42 v -5.975 h -15.42 z" />
    <path
       id="path1562"
       style="fill:#ffcc00;stroke:#000000;stroke-width:0.75"
       inkscape:connector-curvature="0"
       d="M 146.68,32.975 H 162.1 V 27.218 H 146.68 Z" />
    <path
       id="path1564"
       style="fill:#ffcc00;stroke:#000000;stroke-width:0.75"
       inkscape:connector-curvature="0"
       d="M 46.408,32.975 H 61.725 V 27.218 H 46.408 Z" />
    <path
       id="path1566"
       style="fill:#ffcc00;stroke:#000000;stroke-width:0.75"
       inkscape:connector-curvature="0"
       d="M 60.53,26.783 H 75.848 V 20.808 H 60.53 Z" />
    <path
       id="path1568"
       style="fill:#ffcc00;stroke:#000000;stroke-width:0.75"
       inkscape:connector-curvature="0"
       d="M 74.653,32.975 H 90.079 V 27.218 H 74.653 Z" />
  </g>
  <metadata
     id="metadata45">
    <rdf:RDF>
      <cc:Work>
        <dc:format>image/svg+xml</dc:format>
        <dc:type
           rdf:resource="http://purl.org/dc/dcmitype/StillImage" />
        <cc:license
           rdf:resource="http://creativecommons.org/publicdomain/zero/1.0/" />
        <dc:publisher>
          <cc:Agent
             rdf:about="http://openclipart.org/">
            <dc:title>Openclipart</dc:title>
          </cc:Agent>
        </dc:publisher>
      </cc:Work>
      <cc:License
         rdf:about="http://creativecommons.org/publicdomain/zero/1.0/">
        <cc:permits
           rdf:resource="http://creativecommons.org/ns#Reproduction" />
        <cc:permits
           rdf:resource="http://creativecommons.org/ns#Distribution" />
        <cc:permits
           rdf:resource="http://creativecommons.org/ns#DerivativeWorks" />
      </cc:License>
    </rdf:RDF>
  </metadata>
</svg>
