<svg xmlns="http://www.w3.org/2000/svg" width="512" height="512" viewBox="-247 -247 512 512" xml:space="preserve"><switch><g><path fill="#36A9E1" d="M-68.8 88.3c-44 37.1-73.2 63.3-64.4 78 8.9 14.7 25.6-1.6 28.4-16.6 3-15 16.2-39.7 36-61.4zM34.5 86.1c-44 37.1-73.3 63.3-64.4 78 8.8 14.8 25.5-1.6 28.4-16.6 2.9-15 16.2-39.7 36-61.4zM137.7 84c-43.9 37-73.2 63.2-64.3 78 8.8 14.7 25.5-1.6 28.4-16.6 2.8-15 16.2-39.7 36-61.5zM241 81.8c-44 37-73.2 63.3-64.4 78 8.9 14.7 25.5-1.6 28.4-16.6 3-15 16.2-39.7 36-61.4zM-146.6 134.6c-44 37.2-73.2 63.3-64.4 78 8.8 14.8 25.5-1.5 28.4-16.5 2.9-15 16.2-39.7 36-61.5zM-43.4 132.5c-44 37.1-73.2 63.3-64.3 78 8.8 14.7 25.5-1.6 28.4-16.6 2.8-15 16.2-39.7 36-61.4zM60 130.3c-44 37.1-73.3 63.3-64.5 78 8.9 14.8 25.6-1.6 28.4-16.5 3-15 16.2-39.8 36-61.5zM163.2 128.1c-44 37.2-73.2 63.3-64.4 78 8.8 14.8 25.5-1.5 28.4-16.5 2.9-15 16.2-39.8 36-61.5zM-118.9-230.3c14 57.1 5.2 99.2 23.8 94.3 18.6-4.9-9.6-36.1-23.8-94.3zM-201.7-121.1c25 14.2 41.7 45.7 51.1 29 9.5-16.8-27-15.3-51.1-29zM-245.3 3.1c60.7-17 92.8-6.5 87.4-25-5.4-18.5-26.7 8-87.4 25zM5.5-177c-14.9 24.6-46.8 40.3-30.4 50.3 16.5 10 16-26.6 30.4-50.4zM-107 18a64.5 64.5 0 0 1 25.6-5.5h2.5c2.6 0 5.2.2 7.7.4-4-27.2 20.2-50 49.3-51.8A50 50 0 0 1-1.2-77.5 75.6 75.6 0 1 0-107 18.1z"/><path fill="#36A9E1" d="M226.7 12c-7-4-17.2-9.5-28.2-9.2h-.7a30 30 0 0 0-7.9 1.3l-12.8 3.8-3.5-12.8c-1.1-4.1-3-8.1-5.4-11.9a57.7 57.7 0 0 0-34.7-24.8c-3.3-.7-6.4-1-9.3-1h-.8c-1.3 0-2.5.3-3.8.5l-11 1.8-3.5-10.5c-7.5-22.2-26-32.3-58-32l-1.3.1H45c-16.3.5-53.6 15.9-54 44l-.2 12-12 .8a43.5 43.5 0 0 0-30.9 15c-3.7 4.6-7.7 12.1-6.3 22l2.5 16.6-16.8-1.8a61 61 0 0 0-8.5-.4c-14.5.3-26.5 5.5-32 13.8-4.9 7.3-5 17.3-.6 29.7 1.8.1 4.4.2 8.3 0h7.7c122.2-2.6 332-7.2 343.7-7.8l.8-.1c.3-1 .5-2.9.6-3.8l.2-2.6-.3-.1c3-14-12.3-38.2-20.6-42.7z"/></g></switch></svg>