<svg xmlns="http://www.w3.org/2000/svg" width="512" height="512" viewBox="-247 -247 512 512" xml:space="preserve"><switch><g><path fill="#F59E00" d="M122.5-116h-78v-45h69.9a10 10 0 0 0 10-10v-50a10 10 0 0 0-10-10h-80a10 10 0 0 0-10.1 10v105h-128.8A102 102 0 0 0-206.4-14V95.5a10 10 0 0 0 10 10H2.4v114.1H-102c-5.6 0-10 9-10 14.5 0 5.6 4.4 15 10 15H138c5.6 0 10-9.4 10-15 0-5.5-4.4-14.5-10-14.5H29.5v-114h184.8a10 10 0 0 0 10.1-10.1V-14a102 102 0 0 0-101.9-102zM-58.4-19.8h-90.2v-34.5h90.2v34.5zM204.2 85.4H-2.6V-14c0-33.5-16.2-63.2-41.1-81.8h68v37.1a10 10 0 0 0 20.1 0v-37h78.1c45 0 81.7 36.6 81.7 81.7v99.4z"/></g></switch></svg>