<svg xmlns="http://www.w3.org/2000/svg" width="512" height="512" viewBox="-247 -247 512 512" xml:space="preserve"><switch><g><g fill="#F59E00"><path d="M-29.7-130c-.5 8.3-10.7 12.3-11.5 28-.5 8.3 11.8 20.6 24.6 21.3 12.9.7 95.2-15 108.1-15.7 13-.8 152.6-16.3 161.3-18.7-8.4-3.3-145.4-36.3-158.2-38.4-12.8-2.1-93.2-23.5-106-24.2-12.9-.7-26.3 10.3-26.8 18.6-.9 17.1 9.2 16.2 8.5 29z"/><path d="M-51.3-131.2c-29 .3-85.3 7.6-94.8 45 2.1 8.4 16.3 26 16.3 26l-3.1-22.7a31.8 31.8 0 0 0 32.5 13.3c-7.4-3.8-13.7-10.4-13.7-10.4l10.7-10.9-17.7-7.2 10.9-8c6.4 9.5 21.6 41.4 50.1 39.3l-15.2-11.8 14-4-22.9-19.7 21.4-1.6-8.2-13.7s14-5.3 36.3-12.7a933.4 933.4 0 0 1-34.8-16.5l9.6-12.8-21-3.8 24.9-17.3-13.6-5.4 16.4-10c-28.1-5.1-46.7 24.9-54 33.7l-10-9 18.4-5.4-9.5-12s7-6 14.7-8.9c-13.8-4-26.3 1-33.8 9.9l5.5-22.3s-16 16-18.9 24.2c5.5 38 60.7 51.3 89.5 54.7z"/><path d="m-186.2-132.6-24.9 10.1 34.5-3.9 29-5.6-14.8 9.2-9.9 23.8s41.8-32.1 72-34.8c-31.4-1.7-67.9-42.2-67.9-42.2l7.3 24.7 13.7 10.7-28.2-8.6-33.9-7.6 23.7 12.7-38.9 3.7 38.3 7.8zM217.7 114.4c-17.8-9.2-37.6-12-54.9-17.6-18.8-3.5-39.8-11-58.8-8.5C100.2 68 88 49.4 70 43.6c-23-1.3-45.2-2.3-67.6 0C-1.2 57.2 12.8 67.8 21 77.3c-47.7 3-57.7-7-144.8 11.6l-34.8-5c-13-21.6-32.9-46.1-59.1-42.4-5.6 12 4.3 39.4 20.7 55.7 1.9 7.6-37.4-2.3-24.6 40 3.7 4.7 40.8-13.7 55.6-19.4 16 4.3 29.1 2.2 41.5 12.2 78.4 51.5 132.1 53.9 136.9 58-66.7 13.4 7 26.2 21.6 45.9 22.3 6.2 39.5-36.7 42-42 46.4-4.2 93.5-16 134.1-40.1 2-3.7 7.5-4.5 7.5-9.8l-26.3-4c7.6-2 45.3-20.2 26.4-23.6zm-68.3 33.8a17.5 17.5 0 1 1 0-35 17.5 17.5 0 0 1 0 35zM109.7 17C60.1 17 60.1-7.7 10.5-7.7-39-7.7-39 17-88.6 17c-49.6 0-49.6-24.7-99.2-24.7-31 0-42.7 9.7-59.2 17v15C-230.2 17-218.6 7-187.2 7c49.6 0 49.6 24.7 99.2 24.7S-38.4 7.1 11.2 7.1s49.6 24.7 99.2 24.7c49.7 0 49.7-24.7 99.3-24.7 28.5 0 40.7 8.1 55.3 15V7.8c-15-7-27-15.4-56-15.4-49.6 0-49.6 24.6-99.3 24.6z"/><path d="M209-41c-49.6 0-49.6 24.7-99.3 24.7-49.6 0-49.6-24.6-99.2-24.6C-39-41-39-16.3-88.6-16.3c-49.6 0-49.6-24.6-99.2-24.6-31 0-42.7 9.6-59.2 16.9v15c16.8-7.3 28.4-17.1 59.8-17.1 49.6 0 49.6 24.6 99.2 24.6S-38.4-26 11.2-26 60.8-1.5 110.4-1.5c49.7 0 49.7-24.6 99.3-24.6 28.5 0 40.7 8.1 55.3 15v-14.4c-15-7-27-15.4-56-15.4z"/></g></g></switch></svg>