<svg xmlns="http://www.w3.org/2000/svg" width="512" height="512" viewBox="-247 -247 512 512" xml:space="preserve"><switch><g><path fill="#EA572D" d="M-109.5-206.6a112 112 0 1 0 112 112 112 112 0 0 0-112-112zm87.8 112a87 87 0 0 1-13 45.6l-134-110.1a87 87 0 0 1 59.2-23.3 87.9 87.9 0 0 1 87.8 87.8zm-175.5 0c0-16.9 4.8-32.5 13-46L-50-30.2a87.9 87.9 0 0 1-147.3-64.3zM130.9-32.7l-27.6-16c-72.3 13.3-84-39.3-86-60.5 24.3-13.8 77-15 90.2 48.3l23.9 15.4.8-23.4C76.9-107 121.4-169 135.7-180.8c22.8 7.3 60.2 80.7 7.6 112v24.6l23.2-13.5c-3.7-22.8 42-78.6 95-49.3-9 33.2-54.6 83.8-90.7 59.4l-27 16 .2 43.2-13.1.5v-44.8z"/><g fill="#EA572D"><path d="M216.5 35.5c-20.8 0-20.8 27.6-41.7 27.6S154 35.5 133.3 35.5 112.4 63 91.6 63c-20.9 0-20.9-27.6-41.7-27.6-11 0-16.2 7.7-21.7 15-2.8 7.4-4.8 15.3-5.9 23.4C31 66 35.3 52 50.1 52 71 52 71 79.7 91.8 79.7c20.8 0 20.8-27.7 41.7-27.7 20.8 0 20.8 27.7 41.6 27.7C196 79.7 196 52 216.8 52c14.8 0 19.2 13.8 27.8 21.9a108 108 0 0 0-5.4-22.3c-5.9-7.6-11-16.1-22.7-16.1z"/><path d="M216.5 72.7c-20.8 0-20.8 27.7-41.7 27.7S154 72.7 133.3 72.7s-20.8 27.7-41.6 27.7c-20.9 0-20.9-27.7-41.7-27.7-15.1 0-19.3 14.6-28.5 22.6.3 5.1.9 10.2 1.8 15 8.1-8 12.7-21 27-21 20.7 0 20.7 27.7 41.6 27.7 20.8 0 20.8-27.7 41.7-27.7 20.8 0 20.8 27.7 41.6 27.7 20.9 0 20.9-27.7 41.7-27.7 14.3 0 18.9 12.8 27 21 .9-4.7 1.4-9.6 1.7-14.6-9.5-7.8-13.5-23-29-23z"/><path d="M216.5 110.1c-20.8 0-20.8 27.7-41.7 27.7S154 110 133.3 110s-20.8 27.7-41.6 27.7c-20.9 0-20.9-27.7-41.7-27.7-11.5 0-16.7 8.4-22.5 16 1.3 3.8 2.8 7.5 4.5 11 4.5-5.5 9.5-10.4 18.2-10.4 20.8 0 20.8 27.6 41.7 27.6 20.8 0 20.8-27.6 41.7-27.6 20.8 0 20.8 27.6 41.6 27.6 20.9 0 20.9-27.6 41.7-27.6 8.7 0 13.7 4.8 18.2 10.4 1.6-3.4 3-7 4.4-10.6-6-7.7-11.1-16.4-22.9-16.4z"/></g><path fill="#EA572D" d="M143.4 179s-34.8 14.7-31.9 15.6c-41-12-64.2 7.4-65.2 7.1-7-1.8-12.1-1.9-18-2 3.6 0 7.2-.1 10.9-.5 1.4-.2 8.1-1.3 13.4-5.9 4-3.6 12.4-33.4-38.5-37-28.4-2-43-11.2-65-61.6-5.7-13-27.8-23.7-52.7-26-15.6-1.4-44 .7-50.4 1.6-21.2 3-36 1-47.7 1-9.2.1-30-2.6-45.3-4.9v107.8c30.1-16.9 89.8-43.8 109.9-6.8 18 33.4 28.2 54.6 28.2 54.6s14.5 27.4 56.9 19.5c0 0 36.9 3 78.4.7 19.4-1.1 44.9 7.1 61.3-.3 26.8-12 66-26 66-26s33.7-11.7 34.2-13c4.5-13.3-14.5-34.2-44.5-24zM21.6 199.4h-1 1zm-1.5 0z"/></g></switch></svg>