<svg xmlns="http://www.w3.org/2000/svg" width="512" height="512" viewBox="-247 -247 512 512" xml:space="preserve"><switch><g><g fill="#E9572E"><path d="m142-102.7.7-.1c3.7-1.7 6.5-4.5 7.5-7.4 1-3 .2-7.2-3-9.2-.5-.3-1.3-.7-1.8-.7-1.3 1-1.5 2.3-1.7 3.6-.1.7-.2 1.5-.5 2.3-.5 1.3-1.7 2.1-2.9 3-1.7 1.3-3.2 2.4-2.8 4.8.4 2.1 2.7 3.7 4.4 3.7zM101.1 172.8A50.9 50.9 0 0 1 80.6 161c-3.6-3.7 1.5-8-.7-11s-5.1 5.8-11 1.5c-5.8-4.4-12.4-8-13.1-14.7-.3-2.9-1-6.3-2-9.4-1.4-3.8-3.5-7.2-6.8-8.8-5.8-3-9.5-3.7-8-10.3 1.4-6.6-1.5-12.4 3.6-14.6 5.2-2.2 6.6-5.9 10.3-2.2l-1.3-1.8-.4-.7c2.3-1.6 2-2.8 1.4-5.4l-.4-1.7a27.9 27.9 0 0 1-11.4-6.7c-3-3.3-3.6-3.9-7.2-3.4l-3.8.5a22 22 0 0 0-3.6.6c-.1 1-.4 2-1.2 3.1-3.1 4.6-6.4 4-8.4 3.4 0 3.6-2.1 4.6-4 4.9a5 5 0 0 1-4.4-1.7 5.3 5.3 0 0 1-2 3.3c-.8.4-1.6.7-2.4.7l-1.5-.2c-3.3-1-4.3-4-5-6-.2-.8-.4-1.4-.7-1.8v.3c-.8 1.5-2.2 4.7-6.4 5-3.5.3-4.7-.2-6.5-1.2l-1.2-.7c-.9.7-1.8 1.1-2.3 1.3-.4 1.5.3 2.7 1 4.1l1 2.3c.7 1.5 1.3 3.2 1.3 5.5 0 2.9-1 5-1.8 6.6l-.7 1.5 2.1 1.5c2.3 1.6 4.1 3.2 4.8 8.2 5.2-1.7 8.2-8.6 13.8-6.2 6.6 3 8.8 6.6 9.5 10.3a19.6 19.6 0 0 0 5.2 10.3c2.8 2.8 2.8 2.2 3.6 6.5.7 4.4.7 1.5 4.4 5.9 3.6 4.3 11 8 10.2 13.1-.7 5.1 8.8 6.6 13.2 8 1.8.7 3.9 2.3 5.8 4.3 2.5 2.6 4.7 5.8 5.1 7.5.8 2.9 6.6 2.9 8 8 1.6 5.1 8.1 3.7 8.1 8.8 0 5.1 3.7 8 2.2 13.1-1.5 5.2-9.5 6.6-5.8 11.7 3.6 5.2 5.8-.7 10.2-4.3 4.4-3.7 6.6-5.2 8-9.6 1.5-4.3-11.7-10.2-4.3-16.8 7.3-6.6 6.5-6.6 11.6-1.4 5.2 5 11 9.5 12.5 4.4 1.4-5.2-2.2-14-8-14zM169.2 213.7c4.3-2.2 7.2 8 10.2 4.4 2.9-3.7-2.2-8.8-8-12.4-6-3.7-12.5-3.7-11-7.3 1.4-3.7 8-5.9 6.5-9.6-1.4-3.6-11.7-10.2-7.2-14.6 4.3-4.4 8.7 11 12.4 7.3 3.6-3.6-2.2-6.5 4.3-10.2 6.6-3.7 14.7-6.6 19.8-5.1 2.3.6 3 1.4 3.5 2.4l-.9-2.3 2-1c3-1.7 5.5-4.4 5.5-5.7 0-2-.9-4-2.4-5.5l-.1.5c-.3 1-.6 2.4-1.3 3.6-2.4 4.2-8.2 3.8-14.3 3.3-3.9-.2-5.4-1.2-6.7-2.2-.6-.5-.7-.6-1.7-.7-.2 0-.4 0-1.5 1-1.7 1.5-4.4 4-10.2 3.4l-.6 1-.7 1.3a7.2 7.2 0 0 1-5.8 3.5c-4.6.4-5.8-2.2-6.5-3.5l-.4-3.5-.2 3-.3.5-1.3 2.6c-1 2-2.4 5.4-5.4 5.4-.4 0-.7 0-1.2-.2a8 8 0 0 1-3.4-1.9l-.5-.4v1.3c0 .2-2.8 17.2-12 20.5l.6.6c2.9 4.4-.7 9.5 2.2 12.5 3 2.9 8.8 0 11 2.2 2.1 2.2 21.2-1.5 20.4 3.6-.7 5.1-8 5.1-11 4.4-2.9-.7-13.1-2.2-11.6 1.5 1.4 3.6 5.8 9.5 5.8 14.6s5.1 2.2 5.1 2.2 1.5 6.6 5.1 6.6c3.7 0 0-6.6 3-6.6s4.4 7.3 6.5 4.4c2.3-3-7.2-13.2-5-16.1 2.1-3 5 3.6 8.7 1.4 3.6-2.1-5.8-8-1.4-10.2zM135.8 171.2c.2-1.3-.9-2.7-2.6-4.6l-1-1.3a9.6 9.6 0 0 1-2.2-4c-.9-3.8-1.2-6.7 1.3-12.1-.2-1-3.5-2.7-6.6-3.3-.4.8-1 2.2-1.3 3.3-1 3-2.2 6.3-4.7 8a9 9 0 0 1 .7 6l-.4 2c-1.4 7.1-3 12.3.4 16.3 2.6 3.2 5.5 5.7 8 8.4l-.2-2.6c4.2-.4 7.8-10.6 8.6-16z"/><path d="M220.3 126c3-2.5 5-3 6.1-5.8l-2.2 2.6a35.8 35.8 0 0 0-12-7.7c-1.2-.2-2.6.7-4.9 2.3-1.7 1.2-3.8 2.7-6.5 4a43.4 43.4 0 0 1-17 4.4c-1.5 0-3-.2-4.3-.6-1.3-.5-4-.5-6.4-.6-4.7 0-9.5-.1-12.4-2.5-.8-.6-1.4-1.3-2-2-.4.9-.1 2.3.7 3.7.6 1 1.7 1.7 3 2.3l2 1.4c1.4 1.2 2.7 2.9 1.8 5.6-1 3-4 3.8-6.1 4.5-.8.2-2 .5-2.3.8l2.3 4.3a18 18 0 0 1 2 5.4h.3c1.3 0 3.3 0 4.7 1.8 1 1 1.3 2.5 1 4.3l-.6 2.9 1.2-.2c3.1.3 4.2-.6 5.6-1.8 1.3-1.2 3-2.9 6-2.5 2.6.2 3.8 1 5 1.9.6.5 1 .8 3 1 3 .2 8.2.5 9-.3l.6-2c.5-2.2 1.3-5.4 5-7.3 2-1 4-1.1 6.2-1.2 2.8-.2 6-.3 10.7-2.5l.7 1.5c-.2-1-.3-2-.2-3.1 1.2-9.7-2.6-10.9-1.4-13 .2-.5.7-1 1.4-1.6z"/><path d="M228 92.9a43 43 0 0 1-8.6-.5c-2-.4-3.4-1.3-4.5-2.6l-.7-.7c-2.3-3.6-1-8.5.4-14.2l.2-.9c.8-3-.5-4.7-3.2-7.9-1.5-1.8-3.3-3.8-4.6-6.4-2.1-4.4-5.7-7-10.6-7.9-.2 0-.6.4-.8.7-1 1.3-2.7 3.6-6.6 3.4-1.2-.2-1.2 0-2.2.7a17.8 17.8 0 0 1-16 3c-2.9-.8-6.2-1.5-12.3-.8-4.5.5-11 13.6-12.4 20-1 4.5-5 7.1-11 7.6a15 15 0 0 1 3 3.4 13 13 0 0 1 1.7 6.5v1.1h3.1c1.8 0 6.6.2 6.6 4.8 0 2-1 3.4-1.7 4.4l-.5.7.8 1c.3.4.5.6 3.1-.6 2-1 5.4-2.6 8 0 1.7 1.7 2.3 3.7 3 5.4.5 1.8 1 3.2 2.2 4.3 1.4 1 5.7 1.1 8.8 1.2 3 0 6 0 8.2.8 3 1 10.5-.5 16.8-3.5 2.2-1 4-2.3 5.6-3.4 3-2.1 5.7-4.1 9.4-3.4 5 .9 11.3 6 14 8.3l.4-3.1c.8-8.8-4.4-11 .8-16.1 5.1-5.1 6.6 3.6 8-5.9l.3-2-1.7 3.3c-1.4-.7-4.3-.7-7-.7zM112 103.5c-.3-2.8-.3-5.5.3-8.3-3 .3-6.5.5-10.8.5-3.8 0-6.5-1.3-8.7-3.1-.5 3.7-2.3 6-4.1 7.2a16.2 16.2 0 0 1-9.2 2.3c-9.5 0-21-4.5-25.4-6.6.2 4.9-2.2 12 1.7 13.6 5.1 2.2 3.7-12.4 8.8-8.7 5.1 3.6-3 9.5 3.7 16 3.9 4 6.3 8.2 9.3 11.1 2 2 4.2 3.3 7.5 3.6l3.8.5c-1-1.4-2-2.8-2.6-4-4.4-8-3.4-13.6-1.2-17 4.7-7.2 16.1-9 27-7.1z"/><path d="M136.6 102.3c-2.7-1.5-2.8-4.2-2.8-5.8 0-2-.3-4-4-6.6-1 .3-2.1.3-3.6-.1-.2-.1-.4 0-.7-.2l-.8-.3-.4.5-1.8 1.9c-1 .8-2 1.5-3.4 2a19 19 0 0 0-.7 11.4c.2 1 .6 2 1 3.1.8 3 1.9 6 3.1 9 1.4 3.4 2.6 6.9 3.6 10.3a33 33 0 0 1 1.3 12.9c3.2.8 7.5 2.5 9.2 5.5.8 1.4.8 3 .5 4.5 5.3-3 12.5-3.7 18.4-3.3l-.8-1.7c-.7-1.3-1.5-3-2.3-5.3-.8-2-.4-3.7.1-4.6 1.2-2.4 3.8-3.1 5.8-3.8l1-.3c-1.4-.8-3.1-2-4.5-3.9l-.8-.8c-1.7-3.2-2-6.4-.9-9a7.6 7.6 0 0 1 3-3.2c-.2-.8-.5-1.5-.8-2l-1.4.6c-2.3 1-7 3.4-10.5-1-3.4-4-2-7-.9-8.6-1.7 0-4-.1-6-1.2zM-20.3 109.9c-.9-.6-1.8-1.3-2.8-2.3-3.2-3.2-1.6-6.4-.6-8.4.6-1.3 1.2-2.4 1.2-4 0-1.8-.7-3.2-1.6-4.9l-.3-.5c-1-1.8-1.8-3.7-1.8-6.3 0-4.1 3-5.3 4.2-5.7 0-1.7-1.4-3.2-2.6-4.5-1.7-1.7-3.4-3.5-3.3-6a5 5 0 0 1 2.1-3.7l2.9-2.1c3.8-2.8 10-7.4 11.5-11.2A32 32 0 0 1-6 42c1.4-1.8 4.4-5.5 4-6.5-.8-2.6-5.9-7-12.4-10.7a47.1 47.1 0 0 1-8.3-7l-3.8-3.5a13 13 0 0 0-3.5-2.5C-35.4 10-48-2.5-48.5-10.6l3-.2c-4.4 0-8.4-2.5-11 .8-2.5 3.2-1 10.6-7 11.7-5.8 1-11.6 4.7-12.7 7.3-1 2.5-2.2 1.4-6.2.3-4-1-4.4-1.4-6.2-5-1.8-3.7-4-6.7-6.6-4.8-2.6 1.8.3 8.7-.4 12-.7 3.3-2.2 2.6-5.8 2.2-3.7-.3-6.6 1.1-9.5-2.5-3-3.7-13.6-6.6-17.2-3.7a19 19 0 0 0-4.8 6.8c-1.3 3.4-1.1 6.7 3.3 7 8 .8 12.4 4.1 14.6 7.4 2.2 3.3 1.5 8.8 2.2 13.5.8 4.8 8.5 10.6 7 16.1-1.1 4.2-6.4 22.6-12.4 31.5-1.2 1.9-2.6 3.3-3.9 4l.9-.2c2.7 8.1 3.6 8.8 10.2 12.1 2.5 1.3 4 .9 5.9.3 2.4-.7 5.7-1.7 9.9 1.5 3.2 2.3 4.3 4.4 5.2 6 .8 1.5 1.5 2.8 4.8 4.7 5.7 3.5 9.1 3.4 11.9 3.3h1a18 18 0 0 1 6.7-9.4c5.1-3.7 11-1.5 15.4.7s8 5.9 12.4 10.2c4.4 4.4 3-1.4 7.3-2.9 3.7-1.2 7-5.4 12.3-6.2-.3-2.8-.7-3-2.1-4zM54.1 93.4l-.6-1 .4 1.3.2-.3zM52.9 91.6l.6.8-.6-.8z"/><path d="M-75.9 127.5c-3-.1-7-.8-12.5-4-4.6-2.9-5.9-5.1-7-7.1-.7-1.4-1.3-2.5-3.5-4-1.7-1.4-2.5-1.2-4.5-.6-2.4.7-5.7 1.7-10.4-.7-8.2-4.1-10-6.3-13.2-15.6l3-1c-4.8 0-10.8-2.3-16.9-4.7-4.2-1.8-8.5-3.6-12.4-4.8-9.6-3-22.9-8.5-29.3-13.1-10.2-7.4-8 .7-13.2 1.4-5 .7-10.2-5.1-11.6 1.5-1.4 6-.4 9.5-2.4 13.5 6.8-1.6 10.7-1.2 13 1.5.5.7 1 1.4 1.5 2.4.5 1.2.6 1.4 1.3 1.7 1.3.5 2.7.8 4 1.2 4.4 1.2 10.4 3 10.4 9.7 0 4.8-3.8 6.3-6 7.2-2.4 1-3.3 1.4-3.5 3.3-.5 5-2.7 8.2-4.5 10.8l-.9 1.4c-.6 1-1 1.8-1.2 2.6a5 5 0 0 1-2 3.5c-2 1.4-4.3.9-6.2.5l-.9-.1.5 1.5c.6 1.7 1.3 4 1.3 7.3 0 4-2.2 6-4.2 7 1.7 1 3.4 2.2 3.8 4.2.3 1.3 0 2.6-.9 3.8a17 17 0 0 1-3.6 3.2 18.2 18.2 0 0 0-4.5 4.3 8.9 8.9 0 0 0-1.6 4.1l-3-.3c5.2 3.7 8.8 5.1 8 11-.7 5.8-2.1 10.2 3.7 11.7 5.9 1.4 10.3-3 14.7-1.5 4.4 1.5 10.2-5.1 13.1-3.6 3 1.4 5.9 1.4 10.3 5.8 4.3 4.4 11 4.4 13.1.7 2.2-3.6 6.6-6.5 10.2-5.8 3.7.7 6.7.7 9.6-4.4 2.9-5.1 5.8-6.6 12.4-8.8 5.3-1.7-.3-4.5-1.2-9-.2-1-.1-2.1.5-3.4 3-6.6 3.6-13.9 11.7-16.8 8-3 15.3-8.8 26.3-9.5 10.9-.7 10.2-1.5 11-8H-76z"/><path d="m-211.5 156 1.3-1-1-.4c-2-1.1-4.4-2.5-4.4-5.2 0-3 2.8-4 4.2-4.4 2.1-.7 2.4-1 2.4-2.2 0-2.3-.6-3.8-1-5.4-.7-2-1.5-4.3-.2-7 1.7-3.3 5.5-2.6 7.5-2.2l1.2.2.3-.9c.7-1.8 1.6-3.3 2.6-4.8a16 16 0 0 0 3.5-8c.6-5.7 4.7-7.3 7.2-8.3 2.3-.9 2.3-1 2.3-1.6 0-1.8-1-2.5-6-3.9l-4.5-1.3c-3.2-1.3-4.2-3.7-4.8-5-.4-1.2-.9-2.3-9.4 0l-.9-3.3c-1.5 5.2 0 14.4-6.5 21.5-3.7 4.1-8.4 9.6-12.2 14.7-3.5 5-6 9.5-6 12.4 0 5.8 9.4 8 5 12.4-3.3 3.3-6.9 7.6-7.8 11.5-.3 1.3.3 2.4 1.1 3.4 2.9 3.7 4.5-2.5 9-.3 3.5 1.8 5.6-.2 9 .8 0-.8.3-1.7.5-2.4 1.6-4.7 5-7.4 7.6-9.2zM162 154.2l-2-.3v.2c-6.8-2.4-20.7-1-23.8 5.1l-.5-.2.2 1c.1.6 1.1 1.7 1.9 2.6.7.7 1.3 1.6 2 2.5 1.7-.5 3.1-.3 4.3.2.8.3 1.5.7 2.1 1.3l.5-1.1.1-.2c1.2-2.7 3-6.9 7.6-6.5 3.8.3 5 2.7 5.6 3.8-.2-1.7.3-3.3.9-5 .3-.9.8-2 1-3.4zM97.5 137c2 2 5.1 4.2 8 6.6 2.2-3.8 5.9-5.6 8.8-6.9 2.7-1.2 4.4-2 5-3.6l2 .7c-.3-2-.8-4.1-1.5-6.3-.8-2.6-1.8-5.3-3-8-1.2-3.2-2.4-6.4-3.4-9.6-10-2.4-20-1-23.1 4-2 3-.8 7.9 3.2 13.6 1.6 2.3 3.5 4.8 6 7.3l-2 2.1zM117.7 147.2c.8-2.4 1.8-5 3.6-6.5l.1-1c-1.4 1-3 1.8-4.6 2.5-3.5 1.6-5.6 2.9-6.5 6 .3.3.8.7 1 1.2 1.5 2 3.6 3.5 5.4 5.2l-1.4-2.4c.8-.4 1.8-3.4 2.4-5zM222.1 147.8a32 32 0 0 1-12.7 3h-.5c2.2 2.5 3.5 5.6 3.5 8.8 0 2-1.1 4-2.5 5.7a22 22 0 0 1-9 6.7l-1-2.8c.3 1.2.4 2.6 1.4 4.3 2.2 3.7 8.8-.4 10.2-2.2 2.3-2.8 4.4-4.6 6.4-6 1.3-.8 2.5-1.5 3.9-2 3.6-1.5 10.2-2.2 11.7-5.9 1-2.7-7.5-4.2-11.4-9.6zM162.1-40.3c9.2-4.2 14.4-7.2 15.2-9 .6-1.2 1-2.8 1.3-4.2.6-3 1.4-6.3 4.4-7.7l.4-.3c1-.4 2.1-1.8 3-3.8-11.1-9.2-17-9.6-22.2-9.9l-3.1-.2c-1.5-.2-1.8.1-2.9 1.9-1 1.6-2.3 4-5.6 4.3-3.9.4-5.6-1.8-6.4-2.9-.5-.3-1.7.6-2.4 1.2-2 1.5-4.3 3.2-7.3 3a162.1 162.1 0 0 0 1 10.2l.3-3 16.4 1.3 7.6 16.8-.6.9 1 1.4z"/><path d="M245-40.1h.3c-.7-1.8-4.3-4-6.5-5.3-5.3-3-11.8-7-13-13.4l-.6-2.4c-1.7-7.3-3.6-10.8-5.1-12.2-.7.5-1.6 1.4-2.2 2-1.8 1.8-3.6 3.7-6.1 3.3-3-.5-3.5-3.5-3.8-5-.3-2-.6-2.5-1.7-2.8-1.2-.3-1.9.2-4 2.8-1 1.3-2 2.6-3.4 3.5a7 7 0 0 1-5.2.8 21 21 0 0 1-2.6 7.6 11.6 11.6 0 0 1-5.5 5.4c-.4.3-.9 2.4-1.1 3.6-.4 1.7-.8 3.6-1.7 5.4-1.7 3.8-8.3 7.5-18 12l1.8 4c1.2 2.7 2.4 5 3 7.3 1.1 3.8.9 7-2.5 10-1.8 1.4-2 1.9-2 2l.9 2.4c5.5-2.4 12.7-4 17.1-3.2 2.1.3 4.3 1 6.4 1.6 2.8.8 5.4 1.6 7.8 1.6 2.2 0 4.5-.3 6.5-.6 2.5-.3 4.6-.7 6.4-.4 2.3.3 3.6 2 4.6 3.3l1 1.2c.3-.2.8-.9 1.3-1.6 1.2-1.5 3.1-4 6.8-3.7 2.4.3 4.1 1.6 5.4 2.8.3-1.6 1-3.4 2.8-5.2l2.4-2.5 3.6-3.7c-1.2-1.2-2-2.6-2.5-4-1.2-3-1-6.5.6-10.4 2.4-5.7 6.6-6 8.9-6.2zM126.4-45.3h2.5l3.1.4c3.2.4 10.5 1.4 12.3.4 2-1.1 5.2-2.8 9-2.4l-3.2-6.7-12.3-1c-.4 4.8-7-1.3-9.6.7-2.5 1.8-1.3 5.8-3.4 7.8l1-.5.6 1.3zM123-45.1a4 4 0 0 0 1.8-1l-1.7 1zM-28 6c1.9.7 4 2.3 6 4.2 2-1.8 4.3-3.6 6.4-4.8l-.7-.7-1.4-1C-21 1-22.5-.7-21.7-6.8c.4-3.8-.3-5.8-5.5-7.7l2.1-5.7c7.3 2.7 10.2 7.1 9.3 14.2-.3 3-.3 3.3 1.3 4.5 1.3-1 1.2-1.5 1.1-2.7 0-.1-1-9 2.7-13.1 1.2-1.3 2.7-2 4.3-2 1.8 0 4.4-1.5 5.5-4.2.3-.7.6-1.5.7-2.5.1-2.5 1-4.6 1.6-6.5 1.2-3 1.6-4.7.4-7-.1.3-.2.6-.1 1-3.7-3-2.3-1-6.6-1.5-5.5-.8-11.3 5-9.5 8-4-2.2-4.7-3-7.3.4-2.6 3.3-1.1 4.4-2.6 6.2-.3.4-.6 1-.8 2-.9 2.8-1.5 7.5-3.2 9-2.2 1.8-5.1-.8-8.4-1.1-3.3-.4-4.4 4.7-8.8 4.7l3-.2c.3 5.2 11 16 14.4 17z"/><path d="M-6.4-13.2c-.6.6-1.3 4.8-1 8.3.5 3.7-.8 5.8-2.7 7.6.8 1.2 1 2.4.9 4-.1.7-.2 1.4 0 2.5.3 1.9.2 3.5.1 5a118.4 118.4 0 0 1-.6 6.3c4.4 2.7 11.8 7.8 13.5 13 1.4 4.2-1.9 8.3-5 12.3-1.6 2-3 4-4 5.7 1.8 1.2 3 1.3 5 1.5l1.5.1c.3 0 1.8-.7 2.6-1.1 2.5-1.4 7.2-4 11.3.2a7.8 7.8 0 0 1 2.1 4c7.1.3 24.2.6 27.2.6s4.5 2.3 5.4 3.7l.3.4-.5-1.3c-.8-2.4-2-6 .4-9 2.3-2.9 5-5 7.8-6.3v-.8c.2-3.2.2-4-2-6a20.9 20.9 0 0 0-3.8-2.6c-2.4-1.4-5-3-7-7-1.5-2.8-2.8-6-1.4-9 1-2.4 3.3-3.7 5.6-4.6l2.8-1c3.8-1 6.1-2.6 8.4-4.1 2.2-1.5 4.5-3 7.7-4 2.2-.5 3.3-1 4.2-1.4l1-.4A58.1 58.1 0 0 0 69.2-19c-.6-1.4-1-3-1.2-4.5a48 48 0 0 1 .6-15.2l6 .6v.4c-.6 3.5-1.5 9.7-.4 14.2l.5 2c3 6.3 4.7 15.2 5 25 3.6 1.6 8.7 6.5 12.2 10.8 1.6 2 3 3.7 3.6 5l.4-.2a12 12 0 0 1 5.6-1.1c5.1.4 7 1.2 10.5 5.5.9 1.1 1.7 2.3 2.4 3.5 1.5 2.2 2.4 3.5 3.6 4 .3-1 .8-2.7 2.5-3.5.7-.4 2-.8 3.6-.2 2.2.7 3.5 2.1 4.4 3.1 1.1 1.2 1.2 1.2 1.7 1.1l2.3-.3c3.7-.7 9.2-1.7 14.3 1.5l1.7 1.1c2.1 1.3 3.9 2.5 5 4 1.7-1 2.4-4.4 3-10.1l.6-4c.7-3.8 2.4-6.8 4-9.4l1-1.7c.9-1.3 1.7-2.5 2.1-3.7 1-2.5-.6-7.3-2.6-12.7l-1.1-3c-1.9-4.6-2.2-7.2 2.7-11.4 1.2-1 1.3-2 0-5.3-.4-1.2-1-2.7-2-4.7l-3.2-7c-1.3-3.1-2.8-5-4.5-5.6-2-.7-4.4.6-6 1.5-3.4 1.9-9.3 1.3-16.1.4l-3-.3-1.7-.1c-3.5-.2-4.4-1-6.2-4.4l2.7-1.4c-10.3 2.9-8-5.9-11.7-6.6-3.7-.8-7.4.7-12.4 4.4-5.2 3.6-6.6-1.5-14 2.9-7.3 4.4-13.8 7.3-16 5.1-2.2-2.2-3.7-8.8-8.8-8-5.1.7-11.7 8-16.1 3.6-4.4-4.4 3-3.6.7-5.8-2.2-2.2-9.5 3.6-10.2-2.2L33-49.2C27.8-52.4 21.3-53 21.2-53c-.4 3.9-.8 8 1 10.1 2.9 3.7 0 1.5-3 3-2.9 1.4-1.4-2.2-6.5-3-1.9-.2-3.8 0-5.7.5 2.7 5 1.3 9 .1 12.1-.6 1.7-1.2 3.2-1.3 4.8 0 .8-.4 1.4-.5 2.1-1.5 6.3-6.7 10.3-11.7 10.3zM10.9 56.4c-.7-.6-1-.8-4 .9-1.9 1-4 2-6.2 1.8H-.7c-2.4-.3-4.6-.5-7.5-2.4-3 3.8-7.6 7-11.1 9.7l-2.1 1.5 1.1 1.2c1.7 1.8 3.8 4 4.4 7.1l2.7 1.3c.8.6 1 .6 3 .5.5 0 .6 0 1.2-1.5.6-1.4 2-4.8 6.5-4 3.2.6 4.5 3 5.2 5 .4-2 1.3-4.3 4-4.3 2 0 3.2 1.1 4 2.3.7-1.8 2-2.4 3.3-2.6 1.6-.3 3 .3 4 .6l1 .3s.4-.1 1-1.1c-.1-.6-2.2-1.8-3.4-2.4-2-1-3.8-2-5-3.6-1.8-2.5-1-5.1-.5-6.9.7-2 .7-2.4-.2-3.4zM-17.5 14.3l2 2v-.2a46.5 46.5 0 0 0 .4-3.8l-2.4 2z"/><path d="M65.3 42.5c1.5 0 3-2 4.4-3.8 1.8-2.3 3.7-5 6.9-4.6 1.9.2 3 1.4 3.8 2.6 13.8-2 18.5-5.2 19.8-7.7.2-.5.9-2-.5-4.9l-1.6.6c-1.6.7-5.4 2.2-8-2.6a42 42 0 0 0-6.5-7.8c-2.6-2.7-5.3-5-6.5-5.3-1-.2-1-.2-2.1.3-1 .5-2.5 1.2-5.3 1.9a17.4 17.4 0 0 0-6 3 31 31 0 0 1-10 5c-4 1-4.5 2-4.5 2.1-.1.3-.1 1.1 1.3 3.9 1.2 2.4 2.6 3.2 4.7 4.5 1.5.8 3.1 1.8 4.8 3.3 3.9 3.6 4.1 6.5 4 9.7l1.3-.2zM29.2 66.3c1 0 2.1-.2 3.5-.4 6.5-.9 8.9 1.3 12.6 5.4 2.9 3.2 9.2 5.3 15.4 7.2 4.1 1.2 9.3-1.3 14.4-3.7l6.7-2.9c3.3-1.1 3.3-1.7 3.2-4 0-1.2 0-2.6.4-4.1.6-2.2 2-4 3.4-5.6 1.7-2.2 3.3-4 3-6.6 0-1.5-.3-2.5-.7-2.8-1-.8-4.6-.4-6-.3-6.4.8-8.3-4.5-9.2-7l-.2-.7-1.1 1.5c-2 2.7-4.7 6.3-9.3 6.3-5 0-8.7 3.6-10.4 5.8-.4.4.2 2.2.6 3.3.7 2.4 2.3 7.2-2.6 9.3-4.8 2-7.2-1.8-8.1-3.3l-.8-1c-2.7.1-20-.2-27.2-.5l-.2 1c.3.3 1.9 1.2 3 1.8 1.3.7 2.8 1.5 4 2.5 1.9-.6 3.7-1 5.6-1.2zM89.7 89.5a47.8 47.8 0 0 1-4.4-7.1c-.8-1.6-1.7-3-2.5-4.3-1.7.6-3.4 1.4-5.1 2.2A36 36 0 0 1 63 84.8a14 14 0 0 1-4-.6 9.6 9.6 0 0 1-1 6.3c7.8 3.6 22.3 7.7 27.3 4.3.8-.6 1.8-1.7 1.5-5h.6l2.3-.3zM140.2 77.4c.6-2.3 3.5-11.3 8.3-17.8V50c-1.4.8-3.2 1.2-6.2.7l-2.9-.6c-3.7-.9-4.5-.8-5.5.5A28 28 0 0 1 119.5 61c-1.6.4-3 1.1-4.4 2a15.8 15.8 0 0 1-7.5 2.3c-.8 0-1.6 0-2.4-.3-3.5-.8-7.8-2.4-10.9-4l-.8 1.1c-1 1.2-2 2.4-2.3 3.3l-.1 2.5c0 2.6-.3 5.3-3 7.5 1 1.4 1.9 2.9 2.6 4.3 3.2 6.3 5.4 10 10.8 10 8.5 0 14.6-.4 17-2.5.7-.6 1.1-1.1 1.5-1.6 1.8-2.3 3.7-3.3 7.9-1.5l.1-.2c.8-1.1 2.2-3.3 5.3-3.3 2.3 0 6.3-.4 7-3.1zM222.3 49.6c-1.6-1.5-3.2-1.5-5.9-1.3-1.5 0-3.2.2-5-.2a31 31 0 0 1-4.2-1c-2.7-.9-5.1-1.5-8-.8 4.5 1.2 9.9 4 13.2 10.7 1 2 2.4 3.6 3.8 5.2 2.8 3.3 6 7 4.5 13.3l-.2.9c-1 3.6-2 8-1.2 9.5l.6.2c1-2.3 2.8-4.6 4.6-6.7 1-1 1.8-2 2.5-3 1-1.5 2.2-2.6 3.3-3.6 2.3-2 4-3.5 4.2-7.3.1-2.4-1.1-3.2-4.4-4.7-2-.9-4-1.8-5.4-3.7-1.5-2.3-1.3-4.2-1.3-5.3.1-.9.1-1.1-1-2.2z"/><path d="m145.2 39-1.8-1.2c-3-2-6.7-1.3-9.9-.7l-2.8.5c-3.6.3-5.5-1.7-6.7-3l-.7-.8c-1.3 2.9-3.2 3.9-6 3.4-4-.8-6.2-4-8-7-.7-1-1.3-2-2.1-2.9l-.6-.7c0 2.2-.4 4-1 5.2-3.4 6.5-13.4 9.3-22.2 10.7h1c4-.4 8-.7 10.6 1.6 1.8 1.5 2.8 3.8 3 7.1 0 1.7-.3 3-.7 4.4a46 46 0 0 0 9.3 3.4c1.8.4 3.2-.2 5.7-1.5 1.6-.9 3.3-1.8 5.5-2.5 4.2-1.1 8.5-4.2 11.2-8 3.6-4.8 8.3-3.6 11.9-2.8l2.4.5c2 .4 2 .4 3.5-1.4l1.4-1.6.5-.7c-.3.3-2.1-1.2-3.5-2zM46.3-81c0-4.4-5.9-2.2-4.4-8.7 1.5-6.6 5.1-13.2 1.5-14-3.7-.7-3.7 5.9-7.4 8-3.6 2.3-10.2 1.6-12.4 6.7-2.2 5-8 9.5-6.6 15.3 1.3 5.2 3.2 8.7 4.1 12.5l.3 1.4c.2 1 .1 2.3 0 3.6l.3-3c.4.1 7.7.9 14 4.6 2.2-1.4 7-.3 7-5.2l-.1-1.4c-.4-6.1-2.8-12-2.2-14.7.8-2.9 5.9-.7 5.9-5zM192.2-123.6c1-.4 1.7-.8 2.1-1.4l-.8-.5a49 49 0 0 1-3-2.3c-.5 1.3-.4 1.8-2 1.1-3.3-1.4-8-2.2-13.2-1.8l-19.3 11c-.8 15.3 5.8 3.6 6.5 13.1l.8 5.2-.2-3c2-.2 2.3-.6 3-1.6 1.5-1.8 3.3-3.4 7.6-3.2 4.7.2 7.7 3 10.4 5.5 1.6 1.5 3.1 2.8 4.7 3.4 1.5.5 1.8.3 3.5-1.4.6-.6 1.4-1.4 2.3-2v-1.4c0-2.9-1-3.8-2.6-5.3a12.7 12.7 0 0 1-4.2-6.4c-1.6-5.8 2.3-7.8 4.4-9z"/><path d="M190-91.8c-1 0-2-.2-3.2-.6-2.8-1-4.8-2.8-6.8-4.6-2.2-2-4.2-3.8-6.7-4-1.5 0-1.7 0-2.4 1a9 9 0 0 1-7 3.7c1.1 5.4 2 9.2-2 10.2-6 1.5-8.9-11-14-10.2-5 .7-11 5-11.7 13.9-.3 3.8-.2 8.4.1 12.7l.4-4.2c1 .2 2.3-1 3.4-1.9 1.7-1.2 3.6-2.7 6-2.7 2.8 0 4.2 1.7 5 2.7 0 .2.3.5.4.6.8-.2 1.3-1 1.6-1.4 1.1-2 3.2-5.5 8.7-4.8l2.7.2c5.2.3 12.2.7 23.7 9.5a5 5 0 0 1 1.8-2.5c1.6-1.1 3.4-.8 4.4-.6h1.3c.5-.3 1.2-1.2 1.9-2l.9-1.1c-1.5-2.3-3-6.8-3.6-15.8-1.2 1-2.8 2-5 2zM-103.6-51.7c-1.5 5.8-11 2.9-14 7.3-2.8 4.4 8.9 6.6 14.7 10.2 5.9 3.7-3 5.9-7.3 4.4-4.4-1.5-7.3.7-10.2 4.4-3 3.6-11 3-11 5.8 0 3 13.2 2.2 16 3 3 .7 3.8-3.7 6.7-4.4 2.9-.8 5.8 3 11 3a58 58 0 0 1 21.2 4.3c5.8 3 18.2 3 19-1.5.7-4.4-3.7-4.4-4.4-8-.8-3.7 13.1-5.9 11.7-17.6-.8-5.8-8-2.2-10.3-7.3l-.7-19.7a31.5 31.5 0 0 1-3.8-9.5c-1.4-5.7-2.2-12.2-3.5-17.6-2.2-8.8-11-1.4-13.2-8-2.2-6.6 26.4-7.3 25.6-19-.4-6-16.8-1.5-19.7-7.4-3-5.8 13.6-5.8 13.1-10.2-.7-6.6-16-5.1-21.2-1.5-5 3.7-11.7 3.7-10.2 10.3 1.4 6.6-1.5 5.1-6.6 11-5.1 5.8 2.2 7.3.7 12.4-1.4 5.1 5.9 7.3 4.4 10.2-1.4 3-5 8.8-.7 10.3 4 1.3 5 4 6.3 9.5l.3 1.4c1.5 6.6 3.6 11-1.5 14.7-5.1 3.6-10.2-8-16-4.4-6 3.6 5 8 3.6 13.9z"/><path d="M-124-90.5c0 2 2.1 3.3 5.3 5 1.8 1 3.5 1.8 4.8 3.1l-.5.5 1.6-.8c3.9-1.8 7-3.2 7-7.8 0-2.8-.5-8-3.4-11.4a25.3 25.3 0 0 1-6.6 4.8c-2.8 1.7-8.2 4.8-8.2 6.6z"/><path d="M-155.5-51.8c4.8 0 6.4-1.8 7.9-3.4 1-1.1 2-2.3 4-2.3.8 0 1.8.2 3 .7l3.6 1.5c3 1.3 5.4 2.3 7.2 2.3 1.2 0 2.1-.4 3-1.4 2.8-3.6 5.7-7.2 7.9-11.6 1.7-3.5 2-11.1 2-13.5l-1.3 1.4a16 16 0 0 0-3.3-2c-3.6-2-8.6-4.6-8.6-10.4 0-5.3 6-8.8 11.3-11.8l4.1-2.6c-.7-.2-1.3-.3-2.1-.3l-2 .1-3 .3c-3.4.3-9.2.8-10 2.4 0 .1-.2.5.3 1.3 1.4 2 1.7 4.5.8 6.2-1 2-3.5 2.3-5.6.6-2.9-2.3-5.2-3.5-6.9-3.5-.9 0-2.2.3-2.8 3.1-.7 3.3-3 4.8-4.7 5.8-.8.6-1.6 1.1-1.7 1.7 0 .4.3 1.2 1.1 2 1 1.3 2.2 2.4 3.2 3.3 1.8 1.6 3.2 3 3 4.6-.1 1.2-1.2 2.3-3.5 3.6-2 1.1-4.2 2-6 2.6-4.1 1.6-7 2.7-7.5 6.3l-.2 1.7c-.5 3.4-1 7.2.8 9.4 1.1 1.3 3 2 6 2zM65.8 215a7.9 7.9 0 0 0-4.3-1.1c-1.5 0-3 .2-4.7.6-1.6.3-3.3.6-5 .6a11 11 0 0 1-3.1-.4c-1.5-.5-2.5-1.6-3.4-2.6-.8-.8-1.5-1.7-2.1-1.7-.3 0-.6.2-.9.4a7.3 7.3 0 0 1-4.4 1.6c-1.4 0-2.7-.5-4-1l-1.5-.5h-.5c-.8 0-1.7.7-2 1.6-.3.4-.6 1.4.1 2.2 5 5.4 11.5 8.4 18.4 11.5 2.5 1.1 5.1 2.3 7.6 3.6l.2.1c2 1 4.6 2.5 6.4 2.5.6 0 1-.1 1.3-.4 1.3-1.2.8-3.1.3-5.4-.5-2-1-4.1 0-6l.2-.6c.4-1 1-2.5 2-3.6.1 0 .2-.1.2-.3-.1-.4-.6-1-.8-1zM2.2 127.8H2c-.2 0-.5.1-1.1 1l-.7 1c-.6 1-1 1.7-1.8 2-5 1.8-8.9 3.7-7.7 7.3.5 1.6.7 3.4.9 5 .3 2.7.5 5.2 2.3 7.1 1.3 1.4 3.5.8 4.3-1.1.3-.7 0-1.7-.2-2.5-.3-.9-.7-2 .2-2.5 6.4-4.2 5.2-10.6 4-16.8l-.1-.5zM-3.4 156.5c-1.7 0-3.8 1-5.7 2-.4 0-.7.2-1 .4v.3a7 7 0 0 1-2.8.5l-2-.1h-1.6c-.9 0-1.4 0-1.7.3-.2.3-.3.8-.3 1.4l.4 4.7c.6 7 1.3 14 .5 21.3 1.4.6 3 .9 4.8.9 3.8 0 7.7-1.3 10.4-2.4.1-3.5.7-7 1.3-10.4.9-5.5 1.8-10.6.6-16-.6-2.6-1.9-2.9-2.9-2.9zM-66.2 164.5l-1.1-.8-.5-.3c-.6-.5-1.3-.7-2-.7-1.5 0-2.7 1-3 1.6a3.6 3.6 0 0 0 0 3.7c1.2 2 3.7 3.4 6 3.1.3 0 .5-.2.7-.4.8-1.1.3-3.9 0-5.7l-.1-.5zM-82.6 163.6c-3 .4-5.6 1.9-7.4 3.3-.3.1-.4.3-.4.7 0 .9 1.1 2.3 2.4 3.2 1.2.8 5.4 3.3 8.2.3 1.7-1.8 2.4-3.4 2.1-5.2-.2-2.4-1.8-2.5-5-2.3zM207.3 253.7l-2.7.2c-1 0-2-.6-3-1.3-1.1-.6-2.3-1.4-3.5-1.2v-.8l-3 .8v.7h-2.5a25 25 0 0 1-8-.6c-2.7-.6-6.3-1.5-7.9-.4-.5.4-.8 1-.8 1.8-.2 2.3 1.5 2.6 5 3 1.1 0 2.3.1 3.3.4l3.3 1c4.4 1.6 9 3.2 13.2 1 1.8-1 3.6-.4 5.1.2 1.1.4 2.1.8 3 .7 1-.1 1.8-.6 2.3-1.4.5-.8.7-1.7.5-2.5-.5-2-1.8-2-4.3-1.6zM-90.7-147.2l-1.6-.2c-6.3 0-9.8 6.7-12.6 12.5a59 59 0 0 1 4.7-2.4c5.2-2.6 10.2-5 9.5-10zM-59.4-143l2.6.9c.5.2.9 0 1-.3.4-.4.5-.7.5-.8-.8-3.1-1.8-6-4.3-6a4 4 0 0 0-.4 0c-1.7.2-3.1 1.8-3.4 3-.4 2 1 2.5 4 3.3zM54.7-73.8a6 6 0 0 0-2 .4c-2.4.8-3.3 3-2.8 6.5.3 2.4 1.3 5.5 4.4 6.7 1.6.6 3.2-.1 4-1.8 1.2-2.5 1.3-7.1-.4-9.9-.8-1.2-1.9-1.9-3.2-1.9zM105.8-89.9c-1.6 4.1-3.3 8.4-1.5 11.5.1.2.2.2.3.2 1 0 2.7-1.8 3.3-3.5 1.5-3.6 1.3-7.9-.6-12.2h-.2c-.3 0-.7 0-.9.2l-.2.1.2.7c.2.4.4 1 .2 1.5l-.6 1.5zM117.9-94.6c0 .6.7.8 1.1.8.9 0 1.8-.5 2-1.1l.6-1.4c1.4-3 2.2-5.3.8-7-2.4 2.6-4.9 5.2-4.5 8.7zM260.5-24.6c.2 0-.4.7-1 1.1a16.1 16.1 0 0 1-13 5.1c-1.6.2-5.6 4.6-7.6 6.7L236.4-9c-1.2 1.2-1.3 2.4-1.4 3.8 0 1.2-.2 4.5-3.6 5-2.6.5-4.3-1.3-5.6-2.7-.8-1-1.7-1.9-2.5-2-.2 0-.4.1-1.3 1.4-1 1.3-2.5 3.1-5 3.7-3.8.9-5.9-1.9-7-3.3-.3-.4-.7-1-1-1.1l-4.3.5c-2.3.3-4.8.7-7.4.7-3.2 0-6.5-1-9.5-1.9-2-.6-3.8-1.2-5.6-1.4a31 31 0 0 0-14 3c1.8 5.5 3.2 10.4 1.6 14.5-.4 1-1.1 2-1.8 3l-.9 1.7a25.3 25.3 0 0 0-4.1 9l-.5 3.5c-.7 5.6-1.8 14.4-8.7 15.6-.3.5-.5 1.1-1 1.7l-.1.1h1.8v8c1-.5 2.2-1 3.3-1 7.1-.9 11.4.1 14.4.8 2.5.6 4 1 6.4.3 2.6-.7 3.6-1.5 4.6-2.2 1.6-1.2 3.1-2 6.2-1.9-.6-1-1-2.2-.7-3.5.6-2.9 3.5-4 7.5-5.4 5.2-2 9.4-.7 12.8.4l3.4.9c1.2.2 2.4 0 3.6 0 3-.2 6.8-.4 10.4 3 3.1 2.8 3.2 5 3.1 7 0 .8 0 1 .3 1.5s1.7 1.1 2.8 1.6c3 1.4 8.3 3.7 8 10.5-.4 6.3-3.7 9.3-6.2 11.5-1 1-1.9 1.7-2.4 2.5l-2.9 3.5-2.8 3.5h1.6c3.5 0 6.6.1 9.2 1.2.7-4.8.7-4.7 3.7-8.8 3.6-5.2 2.2-14 8.8-14.7 6.5-.7 5.8 10.3 13.9 9.5.5 0 1-.4 1.5-1.2v-93c-.9-1.2-1.8-2.4-2.7-3.3-.7-.6-1.3-1-1.8-1zM203.7-247c-2 7.1-3 13.4-3.8 12.9.2.5-1.3 19.5-1 20l.8 1.9c1.6 3.9 1.5 7.2 1.4 10-.1 1.7-.2 3.3.2 4.8.4.3 2.4.5 3.5.7 2.9.2 6 .6 8 3 1 1.6 1.4 3.5 1 5.8 0 .3-6.9 37-15.2 45.9 1.9 1.7 3 3.5 1.9 5.3-.5.8-1.4 1.6-2.9 2.3l-3.1 2 2.5 1.9c2.1 1.4 5.7 3.9 2.4 8.8-1.2 1.8-3 2.8-4.3 3.5l-1.6 1 .1 1c.4 1.6 1.3 2.4 2.5 3.5a12 12 0 0 1 4.6 9.8c0 11 1.3 19.4 2.6 21.4a7.8 7.8 0 0 1 10.3 5.8c2-2 5.8-5.8 9.6-3 3.7 2.8 6.3 8.5 8.2 17.5l.3 1.2c.8 3.8 5.8 6.8 10.2 9.4 4.8 2.9 9.4 5.6 9.6 10 .3 6-4.2 6.3-5.9 6.5-1.8.2-2.8.2-3.8 2.6-1.7 3.8-1.1 6.1.7 8l.3.3c.2 0 .3-.2.5-.3 1.2-.6 2.4-1 3.6-.9 4.4.4 6.5-1.6 8.5-3.5 1.5-1.3 3-2.7 5.1-2.7 1.7 0 3.2.6 4.5 1.5V-247h-61.3zM11.2-117.5c3 5.8 3.6 9.5 10.2 10.2 6.6.7 13.2-5.1 17.5-9.5 4.5-4.4 12.5-10.2 14.7-4.4l-.7-3c2.4-.5 3.3-3.5 4.2-7.6.6-2.3 1-4.4 2.1-5.8.5-.8 1-4 1.2-6 .8-6 1.7-12 5.4-14.5l-.8-2.2c-1.2-2.9-3-7.2-1-12.4.7-2.3 1-5.2 1-8.3.4-6.6.8-14.9 9-19.6 5.6-3.2 6.4-6.4 7.3-10a42 42 0 0 1 2.7-6.7c1.2-1.7 1.8-3.8 2.4-6.3 1-3.8 2-8.2 6.2-11.8l2-1.7c4.2-3.7 6.3-5.4 7-9.9H88l-8.8 11.7c-6.6 8.8-2.2 14-11 20.5a26 26 0 0 0-3 2.6c-6.8 6.5-10.8 15.2-16 17.1-5.8 2.2-4.4 5.9-8 8.8-3.7 3-6.6-.7-11 2.2-4.4 3-9.5 1.5-11.7 5.1-2.2 3.7-5.1 4.4-4.4 10.3.7 5.8-.7 9.5-3 13.1-2.1 3.7.8 11 0 19-.6 8-2.8 13.2 0 19z"/><path d="M96.5-230.8c-2.6 2.4-3.4 5.3-4.2 8.7-.7 2.8-1.5 5.7-3.3 8.3a22.2 22.2 0 0 0-1.8 4.6c-1 4.2-2.3 9.4-10.2 13.8-5.3 3.1-5.6 8.5-5.9 14.7-.2 3.4-.3 7-1.5 10-1 3.1 0 5.6 1 8 1 2.6 2.8 6.8-1.4 9.7-1.5 1-2.3 7-2.8 10.2-.6 4.3-1 7-2.3 8.8-.4.4-.8 2.3-1 3.5-1 4.3-2.6 10.8-8.8 12.2.4 3.5-1 5.3.8 8.8 2.2 4.4 3.6 6.6 3.6 14.6s3.7 11 3.7 16.1c0 5.1-.8 16.1 6.6 16.8 7.3.8 6.5-8.8 13.1-8.8s11.7-5 12.5-11c.7-5.8 3.6-16 5.8-23.3 2.2-7.3 11-3 13.2-14 2.2-10.9 4.3-20.4-4.4-24-8.8-3.7-7.3-14.7-4.4-21.2 2.9-6.6 8.8-15.4 12.4-19 3.7-3.7 14-9.6 17.6-15.4 2.5-4 .1-8.8.1-13.5 0-2.1.5-4.2 2-6.3 5.2-6.5 14-11 19.8-5.8 4.7 4.1 6.6 8.3 4.4 12-.5 1-1.2 1.8-2.2 2.6-5.1 4.4-10.2 16.8-15.4 22.7-5 5.8-8 9.5-6.5 18.3a35 35 0 0 1-.8 19.7c-2.1 5.9 6.6 6.6 9.5 9.5.9.9 1.4 1.8 1.8 2.8 1.1 2.3 2 4.3 7.7 3.8 4.3-.4 9.3-2 14.2-3.8l12.2-5c7.3-2.9 10.2-5 14.6-2.2L194-146c5.1-5.2 11.5-30.6 13.7-43 .2-.7 0-1 0-1-.3-.4-2.4-.6-3.6-.7-3-.3-7.5-.8-8.7-5-.7-2.5-.6-4.8-.5-7 .2-2.8.3-5.2-1.4-8.4l-.5-1.1c-1.3-2.8 2.4-26.1 1.6-29.5-11.8-7.9-28.8 5.1-41.6-1 1.2 5.7 2 11.3 1.5 16.4l-6-.4c.4-5.7-.8-12.5-2.5-19.2l-2.6-1.1h-35.7c-.9 7.3-4.6 10.5-9.3 14.5l-2 1.7z"/></g></g></switch></svg>