<svg xmlns="http://www.w3.org/2000/svg" width="512" height="512" viewBox="-247 -247 512 512" xml:space="preserve"><switch><g><g fill="#95C11F"><path d="M265 172v-15.8c-24-4.7-47.6-8.5-70.7-11.6-8.7-8-22.8-19-22.2-21-9.5-13.3-4.2-50.4-4.2-67.7 0 0 66.4 0 67.3-7.2 0-4-44.6-37.6-58.8-56 12.4-3 29.4 4.2 37-9-5.7-12.3-58.8-78-57-88.1 9.6 0 22.6-3.8 31.1-1.8 2.7-10.3-25.3-28.2-33.9-49.6-7.5-11.2-4.8-26.5-7.7-37.7-18-1-3.6 27.6-13.2 35.7-17 14.2-19.9 32.6-35 45.8-3.8 14.2 20.4 4.3 26.1 12.4C111.5-80.3 55-9.5 62.5-11.3c14.3 1 28.5 4 41.8 3 0 0-64.5 54-56 65.2 21.8 8.1 47.4 5 69.3-1 4.7 8.1-2.5 51-2.5 58.2 0 10.7-22.2 15.6-30.8 20.6-19-.9-37.4-1.4-55.4-1.4V-247H10.4v380.3c-29.5.3-57.6 1.5-84.1 3.4C-85.3 56-87.7-25.8-66.8-56c1.4 5-1.8 10-1.8 10l4.7 6.9s3-8 1.9-13.2c-1.2-5.1 2.7 6.9 2.3 14.9-.4 8 5.4 10.3 5.4 10.3.4-6.9 0-13.8 0-13.8s5 7.5 4.2 17.2c-.3 4.5 5.4 8.5 5.4 8.5s2-6.8.4-14.8c-1.5-8 5 10.3 4.3 18.3l4.6 4.5-.4-16c3.5 8.6 1.2 16.6 10.4 25.7 0-13.2-10.6-36.7-19-50.3l10 9.1 11 4.7s1.5-5.1-7-17.7c0 0 8.9 3.4 10.8 19.4l8 2.9s.9-4-4.9-15.4c0 0 5.4 5.7 10.4 17l5 .7c-3.7-23-20.2-33.9-40.4-37l-10.9-11.6c2.8-.9 9.7 6.9 9.7 6.9l8.8-8.6c-5-6.3-12.3-5.1-12.3-5.1s7.1-1.6 12.7 1.7c2 1.1 9.7-10.8 9.7-10.8-9.7-9.7-13.4-9-41.1 13.8-23.8-51-30.8-20.5-38.8-29 1 1.6 1.6 7.9 10 9.4l10.9 4.6H-91l4.7 7.4c5.8 0 10 5.2 10 5.2H-84l10.6 9.1-4.8-.6c-21-7.8-31.7-.8-39.7 6a339.7 339.7 0 0 0-24.8-62.2h-.3c.3-.1.6-.2.9-.1 6.6 1.5 12.7 12.5 12.7 12.5l8.7 1.5-.6-12 7.6 11.2 9.2.8-2-13.5L-97-115h8.6l-5.6-13.5 11.6 12.8 7.6-.8-3-6s5.6 9 20.8.8c-21.4 7.2-26.8-37.3-76.5-18.8l-6.3.8 13.9-12H-136s5.5-6.7 13.1-6.7l6.1-9.8h-10.6l14.2-6c11-2 12-10.2 13.2-12.3-10.6 11-19.7-28.9-50.9 37.9-36.6-29.9-41.3-30.8-54-18 0 0 10.1 15.6 12.7 14.2 7.3-4.4 16.7-2.3 16.7-2.3s-9.6-1.5-16.2 6.7l11.6 11.3s9-10.2 12.7-9l-14.2 15.3c-26.6 4-48.3 18.3-53.2 48.4l6.6-.8c6.6-15 13.7-22.4 13.7-22.4C-222-90.1-221-85-221-85l10.6-3.8c2.6-21 14.2-25.4 14.2-25.4-11.1 16.5-9.1 23.2-9.1 23.2L-191-97l13-12c-11 17.9-24.9 48.7-24.9 66 12.2-12 9.1-22.4 13.7-33.7l-.5 21 6-6c-1-10.5 7.7-34.4 5.6-24-2 10.5.5 19.5.5 19.5s7.6-5.3 7.1-11.2c-1-12.7 5.6-22.5 5.6-22.5s-.5 9 0 18c0 0 7.6-3 7-13.5-.4-10.5 4.6-26.2 3.1-19.5-1.5 6.8 2.6 17.3 2.6 17.3l6-9s-4-6.7-2.2-13.2c9.4 13.7 15.8 35.3 19.6 62-2.3 1-4.8 1.3-7.7.3 3.3 1.8 6 2.4 8 2.6 7.2 52.8 4.6 126-6 197.3-43.8 5-81.8 11.5-112.6 17.6v15.5c102.8-20.2 296-44.4 512-3.5zM-108.3-62.6l-4.2 10.2h6.5l7.4-9.7-1.6 10.3 7-.6 5.7-8.5-.4 9.1 6.6-1.1s4.7-8.4 9.7-9.5h.7-.2a340.9 340.9 0 0 0-33 96.3c-.4-28.3-3-58-11-89.1l6.8-7.4zM246.8 218.7l18 3.4.2-.2v-15.4c-2.3-.5-4.3-1-5-1C64 170.7-111.7 188-219.4 207l-27.6 5.7V228l42.6-8c105-17.6 268.9-32 451.2-1.2zM-99.9-186.4zM-173 265l21.9-2.7c84.3-10 195.2-15.6 317.8-2.3 1.5.2 27.5 4.4 32 5H265v-6.1c-29.4-4.5-77.4-11.8-79.6-12a1436 1436 0 0 0-359.2 3l-48.1 7.4-25.1 4.9v2.8h74zM-104-107.2z"/></g></g></switch></svg>