<svg xmlns="http://www.w3.org/2000/svg" width="512" height="512" viewBox="-247 -247 512 512" xml:space="preserve"><switch><g><path fill="#B2B2B2" d="M76.3-120.7v-81.8H-15V13h-156.3v-76.7h-43.2V216h447.1v-336.6H76.3zm-214.1 336h-18.3v-21.8h18.3v21.8zm8-37.8H-156V149H-129.8v28.4zm0-38.5H-156v-28.3H-129.8V139zm0-38.4H-156V72.2H-129.8v28.4zm0-38.5H-156V33.8H-129.8v28.3zM-83 215.3h-18.3v-21.8H-83v21.8zm4-37.8h-26.4V149H-79v28.4zm0-38.5h-26.4v-28.3H-79V139zm0-38.4h-26.4V72.2H-79v28.4zm0-38.5h-26.4V33.8H-79v28.3zm50.8 153.2h-18.3v-21.8h18.3v21.8zm0-37.8h-26.4V149h26.4v28.4zm0-38.5h-26.4v-28.3h26.4V139zm0-38.4h-26.4V72.2h26.4v28.4zm0-38.5h-26.4V33.8h26.4v28.3zM7.3 195H-3v-376.5H7.3v376.5zm20.3 0H17.4v-376.5h10.2v376.5zm20.3 0H37.7v-376.5H48v376.5zm20.3 0H58v-376.5h10.2v376.5zm41.6 20H91.5v-36.2h18.3V215zm8-62.8H91.6v-47H117.8v47zm0-63.8H91.6v-47H117.8v47zm0-63.7H91.6v-47.1H117.8v47zm0-63.8H91.6v-47H117.8v47zm46.8 254.1h-18.3v-36.2h18.3V215zm4-62.8h-26.4v-47h26.4v47zm0-63.8h-26.4v-47h26.4v47zm0-63.7h-26.4v-47.1h26.4v47zm0-63.8h-26.4v-47h26.4v47zm50.8 254.1H201v-36.2h18.3V215zm0-62.8H193v-47h26.4v47zm0-63.8H193v-47h26.4v47zm0-63.7H193v-47.1h26.4v47zm0-63.8H193v-47h26.4v47z"/></g></switch></svg>