<svg xmlns="http://www.w3.org/2000/svg" width="512" height="512" viewBox="-247 -247 512 512" xml:space="preserve"><switch><g><g fill="#B2B2B2"><path d="M6.8 44.3H-95.3v181.8h151V79A72.1 72.1 0 0 1 6.8 44.3zM-19.5 148a11 11 0 1 1 0-22.1 11 11 0 0 1 0 22.1zM-95.3-28.1H6.8a72.1 72.1 0 0 1 48.9-34.6V-208h-151v180zM-19.5-130a11 11 0 1 1 0 22.2 11 11 0 0 1 0-22.2zM74.5 79.7V226H265v-9.7L113.2 64.6a71 71 0 0 1-38.7 15zm67.5 46a11 11 0 1 1 0 22.2 11 11 0 0 1 0-22.1zM141 8.1c0 16.2-5.5 31-14.6 43L265 189.9v-353L130.5-28.9a71.6 71.6 0 0 1 10.5 37zm86.8-.6a11 11 0 1 1 0 22.2 11 11 0 0 1 0-22.2zM74.5-208.1v144.6a71.7 71.7 0 0 1 44.3 19.7L265-189.9v-18.2H74.5zM142-107.8a11 11 0 1 1 0-22.1 11 11 0 0 1 0 22zM-247 226.1h132.8V44.3H-247v181.8zm39-100.3a11 11 0 1 1 0 22.1 11 11 0 0 1 0-22.1zM-247-28.1h132.8v-180H-247v180zm39-101.9a11 11 0 1 1 0 22.2 11 11 0 0 1 0-22.2z"/></g></g></switch></svg>