<svg xmlns="http://www.w3.org/2000/svg" width="512" height="512" viewBox="-247 -247 512 512" xml:space="preserve"><switch><g><path fill="#36A9E1" d="m250.2 28.2-15-102.7H97.2l-15 102.7H30.8v-211.6h62a37.6 37.6 0 1 0 0-14.9H-15.7A60.1 60.1 0 0 0-27-226.9a37.7 37.7 0 0 0-47.7 28.6h-24.5a37.6 37.6 0 0 0-47.8-28.6 60.2 60.2 0 0 0 0 72.1 37.7 37.7 0 0 0 47.8-28.6h24.5A37.7 37.7 0 0 0-27-154.8c6-8.2 10-18 11.3-28.6h20v340h-149.7v-27.7c21.3-3.4 37-14.6 37-28 0-10-8.7-18.7-21.7-24h21.6c0-10-8.6-18.7-21.6-24h21.6c0-10-8.6-18.7-21.6-24h21.6c0-10-8.6-18.7-21.6-24h21.6c0-10-8.6-18.7-21.6-24h21.6c0-13.4-15.6-24.6-36.9-28v-25.4h62.9l-14.2-53H-222l-14.2 53h64.3V-47c-21.2 3.4-37 14.6-37 28h21.7c-13 5.3-21.7 14-21.7 24h21.7c-13 5.3-21.7 14-21.7 24h21.7c-13 5.3-21.7 14-21.7 24h21.7c-13 5.3-21.7 14-21.7 24h21.7c-13 5.3-21.7 14-21.7 24 0 13.4 15.8 24.6 37 28l-.7 54.2H4.3V265h26.5V54.7h220V28.2h-.6z"/></g></switch></svg>