<svg xmlns="http://www.w3.org/2000/svg" width="512" height="512" viewBox="-247 -247 512 512" xml:space="preserve"><switch><g><g fill="#F59E00"><path d="M162.6-118c7.4 0 13-2.6 17-7h.3c-1.4 7.5-5 13.4-10.1 17.5-4.4 3.5-10 5.6-16 6-3.4.4-5.7.5-8.1.3v11.8c2.2.1 5.5.1 8.9-.2 10.6-.8 20-4.5 26.8-10.8a48.4 48.4 0 0 0 13.6-36.5c0-19.2-9.7-33.4-28-33.4-16.6 0-28.2 12.9-28.2 28 0 14.4 10.1 24.2 23.8 24.2zm3.7-41.3c9.6 0 13.6 9 13.6 19.6 0 2-.4 3.3-.8 4.4a14.6 14.6 0 0 1-12.7 6.5c-8.2 0-12.9-6.3-12.9-14.4 0-9.5 5.3-16.2 12.8-16.2zM231-89.3c18.8 0 28.7-15.8 28.7-41 0-23.1-8.8-40-27.7-40-18.3 0-28.7 16.3-28.7 40.7.1 24 9.7 40.3 27.7 40.3zm.6-69.7c9 0 13.2 10.7 13.2 29 0 18.8-4.5 29.4-13.3 29.4-8 0-13.3-9.9-13.3-29 0-19.6 5.6-29.4 13.4-29.4zM193.7-37.7H141v12.3h37v.2l-33.1 65.9h15.6l33.2-68.9zM231 42c18.8 0 28.7-15.8 28.7-41.1 0-23-8.8-40-27.7-40-18.3 0-28.7 16.3-28.7 40.8.1 24 9.7 40.3 27.7 40.3zm.6-69.7c9 0 13.2 10.7 13.2 29 0 18.8-4.5 29.4-13.3 29.4-8 0-13.3-10-13.3-29.1 0-19.5 5.6-29.3 13.4-29.3zM159.9 148.2c-7.1 0-13.9-2.3-17.3-4.1l-3 11.2c4.1 2.3 11.7 4.6 20.9 4.6 19.2 0 31.6-12.2 31.6-27.1 0-9.6-4.3-16.2-10.3-20-5.1-3.4-12.1-5-19-5-2.3 0-3.9.1-5.6.4l2.3-15.7h30.2V80.2H149l-5 39.5c3-.3 6.2-.7 10.7-.7 15.6 0 22.2 5.9 22.2 15 0 9.2-8.3 14.2-17 14.2zM231 159.9c18.8 0 28.7-15.8 28.7-41.1 0-23-8.8-40-27.7-40-18.3 0-28.7 16.3-28.7 40.8.1 23.9 9.7 40.3 27.7 40.3zm.6-69.7c9 0 13.2 10.7 13.2 29 0 18.7-4.5 29.4-13.3 29.4-8 0-13.3-10-13.3-29.1 0-19.5 5.6-29.3 13.4-29.3zM72 75.6C62.5 60.3 51 24.8 41.2-5.2h-218.8c-15 36.2-31.2 74.6-33 80.8-.7 2.2-3.2 6-6.9 10.6H78.2L72 75.6zM-20.5-146.8c-6.2-12.2-32.4-75.5-46.3-76.5-8.3-.6-35.5 50.2-57.1 94.3h112.5l-9-17.8zM26.8-47.2c-8-19.4-20-45-30.2-65.6h-128.3a822.6 822.6 0 0 0-20.6 45.5c-3.3 8.8-10.4 26.2-18.6 46H36a413.2 413.2 0 0 0-9-26zM-247-129v16.2h115.3l7.8-16.2H-247zM113.9-112.8c3.6 0 6.5-3.6 6.5-8 0-4.6-2.9-8.2-6.5-8.2H-11.4a2080 2080 0 0 1 8 16.2h117.3zM113.6-5.2c3.8 0 6.8-3.7 6.8-8.1 0-4.5-3-8-6.8-8H36l5.3 16h72.4z"/><path d="M-247-21.4v16.2h69.4l6.7-16.2H-247zM-247 86.2v16.2h15c5.7-5.9 10.7-11.5 14.5-16.2H-247zM113.8 102.4c3.7 0 6.6-3.6 6.6-8.1s-3-8.1-6.6-8.1H78.2c3.8 6.6 6.2 11.6 8.2 16.2h27.4z"/><path d="M95 122.6c-4-8.6-6-14.2-8.6-20.2H-232a92.9 92.9 0 0 0-15 23.2V265h512c-96-10.6-161.5-124.2-170-142.4z"/></g></g></switch></svg>