<svg xmlns="http://www.w3.org/2000/svg" width="512" height="512" viewBox="-247 -247 512 512" xml:space="preserve"><switch><g><path fill="#F59E00" d="M-88.5-35h-156.3a481 481 0 0 1 6.6 20.7h143.4c2-6.7 4-13.6 6.3-20.7zM-8.5 34.8H-90c-11 68 .4 124.8 37.4 193.7h83.3C-13.2 156.7-24.7 104.6-8.5 34.8zM1.2.3h-84c-1.7 6.8-3.1 13.4-4.5 20h82.5C-3 13.6-1 7 1.2.2zM66 2.4A240 240 0 0 0 102.3-52L94 265h33l-8.3-320.7c1-1 2-2.1 2.8-3.3a238.5 238.5 0 0 0 62.2 23.2c43.5 9.2 81.3 2.3 81.3 2.3s-31.7-21.8-75.2-31c-26.4-5.6-51-5.3-66-4.2-.2-1 0-2-.4-3.1A15 15 0 0 0 109-82.2c-.4-15-2.6-39.9-11-66a236 236 0 0 0-38.9-72s-2.8 38.8 11 81a239.5 239.5 0 0 0 29.8 60 15 15 0 0 0-5.5 16.7c.3 1 1 1.8 1.5 2.6-12.9 8-33.4 22.2-51.8 42.7-29.7 33-42.9 69.6-42.9 69.6s35-17 64.7-50z"/><path fill="#F59E00" d="M-229 138.6c-5.4 17.3-12.8 28.1-18 35.7V265h199.6l-2.9-4.6C-109 164.3-122.9 95.4-98.7.3h-135.5c13.6 52.6 14 97.4 5.1 138.3z"/></g></switch></svg>