<svg xmlns="http://www.w3.org/2000/svg" width="512" height="512" viewBox="-247 -247 512 512" xml:space="preserve"><switch><g><g fill-rule="evenodd" clip-rule="evenodd" fill="#B17F4A"><path d="M218 202c-2.8-11.7-14.3-26.3-22-39C143.7 76.3 87.5-15.5 36.2-99.9c2.6-10.7 4.9-21.8 7-33 44.3-30.3 90.9-58.4 154-70 .8-3.9-1.4-12.4-3-17-36.8 3.8-69 7.6-98 16-28.9 8.4-53 21.9-77 36-47.8 28.2-92.9 56.7-141 85 12.7 22 26.3 43 39 65 25.6-13.5 48-30.1 72-45 52.7 83.5 108.1 175.4 162 264 7 11.5 16.4 29.6 26 34a29.2 29.2 0 0 0 41-33zM-62.9 61c-6.8-9.4-15.3-17.3-22-27-18 13.8-33.9 29.5-52 43 13.7 18 29.6 33.8 43 52 9.4-7.2 18.6-14.6 27-23a444 444 0 0 1 4-45zM-43.9 129c-12 30-19.8 64.2-30 96 5.9 1.9 11.4 3.4 17 5 5 1.6 11 5 16 5 5.3 0 12.4-4.6 19-7l58-20c-3.3-20.7-8.8-39.2-13-59-23-6-45.2-12.8-67-20zM-111.9 134h-93v31c0 10.2-2.2 22 0 31 1.5 6 9.5 13 14 18 5.6 6.2 12 10.5 16 16h64c-.6-31.6 1.3-66-1-96z"/></g></g></switch></svg>