<svg xmlns="http://www.w3.org/2000/svg" width="512" height="512" viewBox="-247 -247 512 512" xml:space="preserve"><switch><g fill="#B2B2B2"><path d="M9-247a256 256 0 1 0 0 512 256 256 0 0 0 0-512zm170.4 426.4a240.2 240.2 0 0 1-264.2 51.7 240.2 240.2 0 0 1-128.3-128.3A239.5 239.5 0 0 1-232 9a239.5 239.5 0 0 1 70.6-170.4A240.2 240.2 0 0 1 9-232a239.4 239.4 0 0 1 170.4 70.6A240.2 240.2 0 0 1 250 9a239.4 239.4 0 0 1-70.6 170.4z"/><path d="M132-75.1h52.1v54.4H132zM172.2-137.1H132v54.3h52v-38.4c-3.8-5.7-7.8-11-11.8-16zM132-13.1h52.1v54.4H132zM124.3-176.1c-15.4-9.4-33.1-18-52-24.4v55.7h52V-176zM85.4-73.4C92-78 102.3-57.6 100-48.6 98.4-42 87.8-31.3 78-20.7h46.4v-54.4h-52v8.3c5.4-2.4 10.4-4.9 13-6.6zM72.2-137.1h52.1v54.4H72.2zM64.6 27.9V-5.5c-8.1 11.2-10.9 23.5 0 33.4zM-1.5-122c1.4 2.8 3.6 5.3 6 7.6v-22.2c-5 4.7-8.5 9.5-6 14.6zM191.7 41.3h8c1.8-3.6 3-7 3-9.7 0-8.5-2.4-29-7.2-44.6h-3.8v54.3zM132 49v54.4h25.4c11.8-12 14.3-33.7 20.4-36.8 1.9-.9 4-2.5 6.3-4.6V49H132zM191.7-109.5v26.7H207c-4.5-8.6-9.7-17.8-15.2-26.7zM27.9-105c5.5-2.3 10 15.3 4.7 22.2h32V-137H12.8v28.4c6 3.3 12.2 4.8 15 3.6zM192.5-21.5a39 39 0 0 1-.8-2v2.8h1.1l-.3-.8zM20.5-75c-4.3 2.2-7.4 4.8-5 9.5 4.5 9 31.5 10.1 36 7.9 2-1 7.2-3.2 13.1-5.8V-75h-44zM-166.7-118.8v36h17.6c-1-9.6-1.8-18.7 0-21.2a99.3 99.3 0 0 1 28.1-15.8c1 0 3.6 1.5 6.4 3.8V-137h-38.6c-5 6-9.5 12.2-13.5 18.3zM-174.3-57.2V-75h-8.4c-.5 2-1.4 3.9-2.6 5-2.5 2.6 5.1 10.2 11 13zM-174.3-82.8V-106c-3.6 6.6-6.5 13-8.7 19 .6 1.2 1 2.6 1 4.2h7.7zM-148-72.3l-.3-2.8h-18.4v17.6c6.7-1.8 19.6-4.2 18.6-14.8zM-114.6-144.8v-27.4l7.6-5v32.4h48c.7-2 2.1-3.2 4.1-4v-52.1a237 237 0 0 1 7.7-2.2v53.2c5.1 0 11 .8 15.3.8 9 0 4.5-8 12.4-14.7 6-5.1 16.4-1.9 24-3.9v-42.6h8.3v36.7c6-4 11.3 10.7 8.3 20-1 2.9-3.8 5.8-7.1 8.8h50.6v-58h.4a188.4 188.4 0 0 0-54-8.5c-73.3 0-125 31.3-157.5 66.5h31.9zM-64.9-137.1h-42v29.3c2.6 4 3.6 8 .6 10.6l-.7.6v13.8h11.2c6.1-4.4 12.8-10.1 12-13.2-1.1-4.6-9-14.7-3.4-22.6 4-5.6 15.2-12.3 22.3-18.5zM135.2 111c2.3.2 4.5.2 6.6 0h-6.6zM132-144.8h33.4c-1.8-2-3.7-3.8-5.6-5.5-7.6-6.8-17-14-27.8-21v26.5zM124.3 41.3V-13h-52V33c14.3 7.6 25.7 2.3 35.5 8.2h16.5zM124.3 49h-9.6c5 12.8-1.2 40.8 7 54.4h2.6V49zM191.7 49v4.7l3.5-4.7h-3.5zM191.7-75v19.5c1.6-3.5 3.8-6 6.4-6.7 9-2.2 19.2 20.4 18 29.4 1.2 8 11.3 4.5 9-7.9-.8-4.8-6.2-18.2-14.3-34.4h-19zM-54.9 103.4V49h-52v9c9 7.5 15.9 19.8 16.3 38a96 96 0 0 1-3 7.4H-55zM-147 50.8c1.8-.8 3.7-1.4 5.8-1.8h-25.5V88c1.5-2.2 2.6-4.2 2.8-5.6 1.2-5.7 3.5-25.4 17-31.7zM-54.9 111h-42.5c-3.4 6.8-7 14-9.6 21.7v32.7h52.1V111zM-166.7-13.1h52.1v54.4h-52.1zM-107-13.1h52.1v54.4H-107zM-174.3-13h-32.8c-.8 13.6-.6 34 2 54.3h30.8V-13zM-126.3 49c3.9.7 7.9 2 11.7 4v-4h-11.7zM-174.3 96.6V49h-29.8c3.2 20.3 9 39.7 18.8 51.5 3 1.5 7-.6 11-4zM-35.3-64.4c1.8-1.1-3.5-2.4-12-3.3v7.8c5.3-1.7 9.8-3.2 12-4.5zM-106.3-59.9l-.7.6v38.6h52.1v-17c-11-2.6-24-10-15.4-14.3 3.8-1.9 9.6-3.8 15.4-5.6v-10.7c-18-.9-42.9.5-51.4 8.4zM-114.6-20.7v-30.7c-9.6 11-16 20.9-22.2 20.9-3.4 0-16.2-4.7-29.9-7v16.8h52zM57.2 88.1c-11.3 0-37.2 11.3-41.7-3.4C12.8 76 12.9 62 13.7 49h-.9v54.4h14.4l.7-.6c8.7-1.6 25.3.2 36.7-1.8V84.2c-2.3.7-4.8 2-7.4 4zM75.2 96c3.8-5.1 1.9-10.2-3-11.8v14.3a9.6 9.6 0 0 0 3-2.5zM-174.3-20.7v-17.9c-15-1.3-29.3 1.6-32.2 17.9h32.2zM25.8 173h-13v55.3l-3.8.1-4.4-.1V173h-51.8V220a79 79 0 0 0 7.4 3.8c17 3.4 72.2 11.3 102.6-1.2-8.8-8-25.6-31-37-49.5zM-54.9 173h-49.3l1.2 2c2.6 7.8 28.8 28.1 48.1 40.3V173zM-47.2 111H4.6v54.4h-51.8zM-47.2 49H4.6v54.4h-51.8zM-47.2-13.1H4.6v54.4h-51.8zM4.6-21.7c-15.5-4.1-39-11-51.8-14.2v15.2H4.6v-1zM12.8 41.3h1.4L15.5 26c.8-7.1-1-28.2-1.4-39h-1.3v54.3zM14.3 150.2a63.4 63.4 0 0 1 7-39.2h-8.5v54.4h8.5c-3.8-6.6-6.3-12-7-15.2z"/></g></switch></svg>