<svg xmlns="http://www.w3.org/2000/svg" width="512" height="512" viewBox="-247 -247 512 512" xml:space="preserve"><switch><g fill="#B2B2B2"><path d="M-186 145.5h-33.6v31.2h37.4v9.3h-48.5V99.7h46.6v9.3h-35.5v27.3h33.6v9.2zM-171.5 124.8a132 132 0 0 1 19.7-1.4c10.4 0 27.5 1.6 27.5 15.5 0 7.7-5.9 12.4-13 14v.2c9.2 1.3 15.8 6.4 15.8 15.4 0 16.2-20.4 18.3-32.6 18.3-7 0-14.1-.5-17.4-.8v-61.2zm10.6 53.8c3.2.4 5.5.5 9 .5 7.6 0 19-1.8 19-10.8s-9-10.9-19.8-10.9h-8.2v21.2zm.1-28.6h8.5c8.3 0 16.9-2.4 16.9-9.7 0-6.2-5.4-9.1-16.7-9.1-3.7 0-6 .2-8.7.5V150zM-110.4 144.2c0-7.9-.3-14.3-.6-20.2h10.2l.5 10.6h.2c4.6-7.5 12-12 22-12 15 0 26.3 12.7 26.3 31.5 0 22.3-13.6 33.3-28.2 33.3-8.2 0-15.3-3.6-19-9.7h-.3v33.7h-11.1v-67.2zm11.1 16.6c0 1.6.3 3.2.5 4.6 2 7.8 8.9 13.2 17 13.2 11.8 0 18.7-9.8 18.7-24 0-12.4-6.5-23-18.4-23a18 18 0 0 0-17 14c-.4 1.3-.8 3-.8 4.5v10.7zM15.3 154.5c0 23-15.8 33-30.8 33-16.8 0-29.7-12.4-29.7-32 0-20.7 13.5-32.9 30.7-32.9 17.8 0 29.8 13 29.8 31.9zm-49.1.6c0 13.6 7.8 23.9 18.8 23.9 10.7 0 18.8-10.2 18.8-24.1 0-10.5-5.2-23.8-18.6-23.8-13.3 0-19 12.3-19 24zM77.3 124v62H66.1v-53H37.2v53H26.1v-62h51.2zM126.8 186l-1-7.8h-.3a23 23 0 0 1-19 9.2c-12.5 0-19-8.8-19-17.8 0-15 13.4-23.2 37.3-23v-1.3c0-5.2-1.4-14.4-14-14.4-5.8 0-11.8 1.8-16.2 4.6l-2.5-7.4a38.5 38.5 0 0 1 20.3-5.5c19 0 23.6 13 23.6 25.4V171c0 5.4.2 10.7 1 14.9h-10.2zm-1.7-31.6c-12.3-.3-26.3 1.9-26.3 14 0 7.2 5 10.7 10.7 10.7 8 0 13.2-5.1 15-10.4.3-1.1.6-2.4.6-3.6v-10.7zM-186-145.5h-33.6v31.1h37.4v9.4h-48.5v-86.3h46.6v9.3h-35.5v27.3h33.6v9.2zM-120.3-122c0 6.5.1 12.1.5 17h-10l-.6-10.1h-.3c-3 5-9.5 11.5-20.5 11.5-9.7 0-21.4-5.4-21.4-27.1V-167h11.3v34.3c0 11.8 3.6 19.8 13.8 19.8 7.6 0 12.8-5.3 14.9-10.3.6-1.7 1-3.7 1-5.8v-38h11.3v45zM-104.8-147.7c0-7.3-.1-13.5-.5-19.3h9.8l.4 12.2h.5c2.9-8.4 9.6-13.6 17.2-13.6 1.3 0 2.2.1 3.2.4v10.6a17 17 0 0 0-3.8-.4c-8 0-13.6 6-15.2 14.5-.2 1.5-.5 3.3-.5 5.3v33h-11.1v-42.7zM-11.3-136.5c0 23-15.9 33-30.9 33-16.8 0-29.7-12.4-29.7-32 0-20.7 13.6-32.9 30.7-32.9 17.8 0 29.9 13 29.9 31.9zm-49.2.6c0 13.6 7.8 23.9 18.8 23.9 10.8 0 18.9-10.2 18.9-24.1 0-10.5-5.3-23.9-18.6-23.9s-19.1 12.3-19.1 24.1zM-.3-146.8c0-7.9-.3-14.3-.5-20.2H9.3l.5 10.6h.3c4.6-7.5 11.9-12 22-12 15 0 26.3 12.7 26.3 31.5 0 22.3-13.6 33.3-28.2 33.3-8.2 0-15.4-3.6-19.1-9.7h-.3v33.7H-.3v-67.2zm11.1 16.6c0 1.6.3 3.2.6 4.6 2 7.8 8.8 13.2 16.9 13.2 11.9 0 18.8-9.8 18.8-24 0-12.4-6.5-23-18.5-23a18 18 0 0 0-17 14c-.4 1.3-.8 3-.8 4.5v10.7zM103.7-105l-.9-7.8h-.4a23 23 0 0 1-19 9.2c-12.5 0-18.9-8.8-18.9-17.8 0-15 13.3-23.2 37.3-23v-1.3c0-5.2-1.4-14.4-14.1-14.4-5.8 0-11.8 1.8-16.1 4.6l-2.6-7.4a38.5 38.5 0 0 1 20.4-5.5c19 0 23.5 13 23.5 25.4v23.1c0 5.4.3 10.7 1 14.9h-10.2zm-1.7-31.6c-12.3-.3-26.2 1.9-26.2 14 0 7.2 4.8 10.7 10.6 10.7 8 0 13.2-5.1 15-10.4.4-1.1.6-2.4.6-3.6v-10.7zM-186-.6h-33.6v31.1h37.4v9.4h-48.5v-86.4h46.6v9.4h-35.5v27.3h33.6v9.2zM-120.3 23c0 6.4.1 12 .5 16.9h-10l-.6-10.2h-.3c-3 5-9.5 11.6-20.5 11.6-9.7 0-21.4-5.4-21.4-27.2V-22h11.3v34.3c0 11.8 3.6 19.7 13.8 19.7 7.6 0 12.8-5.2 14.9-10.2.6-1.7 1-3.7 1-5.8v-38h11.3v45zM-104.8-2.8c0-7.3-.1-13.6-.5-19.3h9.8L-95-10h.5c2.9-8.3 9.6-13.5 17.2-13.5 1.3 0 2.2 0 3.2.3v10.7A17 17 0 0 0-78-13c-8 0-13.6 6-15.2 14.5-.2 1.5-.5 3.3-.5 5.2v33h-11.1V-2.7zM-11.3 8.3c0 23-15.9 33-30.9 33-16.8 0-29.7-12.3-29.7-32 0-20.7 13.6-32.8 30.7-32.8 17.8 0 29.9 12.9 29.9 31.8zm-49.2.7c0 13.6 7.8 23.8 18.8 23.8 10.8 0 18.9-10.1 18.9-24 0-10.6-5.3-23.9-18.6-23.9S-60.5-2.8-60.5 9zM-.3-1.9c0-8-.3-14.3-.5-20.2H9.3l.5 10.6h.3c4.6-7.6 11.9-12 22-12 15 0 26.3 12.6 26.3 31.5 0 22.2-13.6 33.3-28.2 33.3-8.2 0-15.4-3.6-19.1-9.8h-.3v33.7H-.3V-1.9zm11.1 16.5c0 1.7.3 3.2.6 4.6 2 7.8 8.8 13.2 16.9 13.2 11.9 0 18.8-9.7 18.8-24 0-12.4-6.5-23-18.5-23a18 18 0 0 0-17 14c-.4 1.4-.8 3-.8 4.6v10.6zM75.7 11c.2 15.1 10 21.4 21.2 21.4 8 0 13-1.4 17.2-3.2l1.9 8c-4 1.9-10.8 4-20.6 4-19.1 0-30.5-12.6-30.5-31.3 0-18.7 11-33.4 29-33.4 20.3 0 25.7 17.8 25.7 29.2 0 2.3-.3 4-.4 5.2H75.7zm33-8.2c.1-7.1-3-18.3-15.6-18.3C81.7-15.5 76.7-5 75.8 2.8h32.9zM265-17.8a26 26 0 0 1-6.2-.7c-.8-.5-1.1-7.5-7.2-.8-5-.8-9-.2-11.7.8-5.5 2.3-1.4-6.9-2.8-8.3-1.4-1.4 3-10.7-1.6-10-7.3 1.1-9.2-2.2-12.5.5a41.6 41.6 0 0 1-14.2 6.2 17.7 17.7 0 0 1-10.6 10.5c0 5.9-10 6.2-10 6.2s.5 6.3-6.1 6.6c-6.7.3.5 5.3-15.9 2.5-.5 7.8-7.8 10.6-8.9 13.4-1 2.7 9 28.9-16.7 28.9-1.3 0 2.3 2.2 2.3 2.2s.8 3.6-2 5.9c-2.8 2.2-.5 10.5-5.8 14.1-5.3 3.6-10.3 29.2 1 35.6 2.3-3.6-2.6 34.4 21.5 66.5 7.5 10 16.4 3.6 16.4 3.6s6.1 23.4 17.8 8.9c6.4-1.4 17.8 1.1 17.8 1.1s3.4-3 3.4-5.3c0-2.2 3.6-2.5 4.4.3.8 2.8 5.9-2.7 5.9-2.7s3-14.6 18.1-17.5l3-1.8s3.3 4.2 2.8 5.9c-.6 1.7 2.2-.6 2.2-.6s4.6 8.7 5.8 7.3c1.1-1.4 5.5-10.5 6.8-2.8 1 .2 2.1 1 3 2V-17.7zM265-141.2v-3.9l-.1.2c-1.7 2.2-1 3.2.1 3.7z"/><path d="M265-76c-2-.4-3.6-1.3-3.9-3.8-.6-6.9-1.3-11.7-1.3-11.7s3.4-1.6 5.2-1.1v-10c-1.1-2.5-2.7-4.2-4.5-3.3-4.6 2.3 5.2-6.9-4-10.4 1.7-5.3-5.5-4.6-3.2-11.1-5.2-2-3.6-6.9-.6-6.9-1.4-3 3.9-4.2 3.9-4.2s1-6 5.2-4c-1.3-4.5-1.7-13 .6-12.4 1.9.6 2.5 2 2.6 2.5V-247H161.2c-.7 5.7-.6 8.4 6.6 14.4 8.1 7-4 8.2-6.2 6.3-2.3-2-10.8-2.3-13.4-.4-2.6 2-1-2.6 2.6-2.9 3.6-.3 1-5 7.2-6.9 6.2-2-8.2-6.1-10.5-4.5-2.2 1.6-11.7-3-20.5-.7l-1.3-2s-6 .4-5.6 2c.3 1.6-8.8-1.3-12.4 3.3-3.6 4.5 3.3 11.4 0 15 5 2 7.5 10.4 6.6 14.4-1 3.9 6.8 3.2 6.8 3.2s4 1.3-.3 7.8c4.2 1.7 2.6 9.8 1.3 12.5-1.3 2.6 4 6.1 2.6 9.7-1.3 3.6 6.5 3.6 6.5 3.6s3.3 8.5 5.9 10.8c2.6 2.3 8.8-3.3 7.8-12.4-.3-3 5 1 5 1s6.1 5.2 5.5 8.2c-.7 2.9-2 6.5-5.9 3.9-1.6 6.2-.7 14.7 6.5 13-.3-3.6 3-3 3-3s-6.3-5.3 6.2-2.2c6.5 1.6 2.6-5.9 6.2-12.4s6.2-8.5-2-8.2c-8.1.3-10-6-10.8-8.1-2-6.2-1 4.7-10-8.8-3.3-5 2-2.6-4.3-7.6-3-2.2 3.2-9.7 3.2-9.7s-3.2-5.3-9-2.6c-6 2.6-1.4-5.6 0-5.3 1.2.4 5.8 1.7 8 0 2.3-1.6 5 3 5 3s-2 18 7.5 16c4.5-1 4.2 10.4 11.4 1.6h3.2s1.4-4.9 3.6-4c2.3 1 2-6.8 1-8.7-1-2 11.3.2 6.5 14.3-1.9 5.9-9 5.2-9 5.2l3.8 6.9c3.6 10.4 9.2 11.7 7.2 23.8-.4 2.8-6.9 3.6-6.9 3.6s-.6 7.5-9.7 7.2c0 0-5.6 2.3-6.9 2.6-1.3.3.3 7.2-2.6 7.5-3 .3-3 12-11.4 2.6s-3 13.4 1 8.5c3.9-4.9 1.6 9.2 3.2 5.9 1.6-3.3 1 12-10.1 12.7-11 .7 1.6 8.2 4.2 7.5 2.6-.6 3.3 3-10.8 2.6-14-.3-11 14.7 2.4 10.1 13.3-4.5 6.5 1.4 6.5 1.4l3 2.3s-1.2.4-1.5 2c-.2 1.5 4.4 3.8 5.3 4.5 1 .6 5.3 9.1 4.3 11.4-1 2.3 5.2 10.5-18.3 5.5-2.6 4-16 .7-16 .7s4.2 5.1-6.9 5.9c-4.5.3 6.3 2 7.2 9.4 1 7.5 4.3 8.9 4.3 8.9l-.4 10.7s2.7 6.2 12.8 3c0 6.5 4.6 12 15.3 3.9h6.6s-1.4-5.9 9-5.9c1.4-2.6-1.9-4.2 2-8.5 4-4.2-7.5-7.1 5.3-15.6 12.7-8.6-5.3-2 4.5-14.4-2.3-3.6-7.8-17.6 6.6-8.5.3-5.2 1.3-15 2.6-15s15.4-5.6 14.3 7.8c-.3 4.3 6.2-2 14.4 7.9 6.9-.4 15 3.2 15 3.2s-2.2 6.5-.6 14.4c.6 3.2-6 1.3-6 1.3-1.5 8.5 10.5 4.9 13.8 4.6 3.2-.4-4-7.9-4-7.9-1.2-6.2 12.2-11.7-.6-17 0 0 12.4-4.2-5.9-5.8-15.9-1.5-10-5.2-10-5.2s-9.9.3-10.8-8.5c-11.1-.4-6.6-19.3 5.9-3.3 12.3 16 0-4 15 7.2 4.8 0 13.6 3 14.3 5.2.7 2.3 1.7 9.1 1.7 9.1s4.9-2 5.2 2c.3 4 10.4 8.2 11.7 6.5l.3-.1V-76z"/></g></switch></svg>