<svg xmlns="http://www.w3.org/2000/svg" width="512" height="512" viewBox="-247 -247 512 512" xml:space="preserve"><switch><g><path fill="#95C11F" d="M-156.8-156.4a60 60 0 1 1 119.3 14 60 60 0 0 1-119.3-14z"/><path fill="#95C11F" d="M-156.8-156.4a60 60 0 1 1 119.3 14 60 60 0 0 1-119.3-14zM112.6 29c-13.1 1-27.2-1.8-41.3-2.7-7.6 1.6 48.5-63.7 60.7-81.6-5.7-7.5-29.7 1.7-26-11.4C121-79 124-96 140.8-109c9.4-7.6-4.8-34 13-33 2.9 10.4.2 24.5 7.6 34.8 8.5 19.8 36.3 36.3 33.7 45.8-8.5-1.9-21.4 1.7-30.8 1.7-1.9 9.3 50.7 70 56.4 81.3-7.5 12.2-24.5 5.6-36.7 8.4 14.1 17 58.3 48 58.3 51.7-1 6.6-66.8 6.6-66.8 6.6 0 16-5.1 50.3 4.3 62.5-1 2.8-56.6 5.1-56.4-8.8 0-6.5 7-46.2 2.4-53.7-21.7 5.6-47 8.5-68.6 1C48.7 78.8 112.6 29 112.6 29z"/><path fill="#95C11F" d="m73.7 41.9-2.5-.2H71c-4.8 0-9.2-2.1-12.1-5.7-1 7.7-1.8 14.3-1.8 16.5 0 1.5.6 2.7 1.6 3.8 4-4.2 9-9 15-14.4zM60.9 11.5c2-3 4.6-6.7 8.2-11.4 7-9.2 16.1-20.6 25-31.7L104.9-45c-4-1.2-7.9-3.4-10.9-7.5-2.1-3-5.3-9.2-2.7-18.4l1.3-4.6 3.8-3c5.2-4.3 8.7-9.9 12.8-16.2 2.1-3.5 4.4-7 7.1-10.7-11.4-15.2-21.3-29.2-20.5-33.3 9 0 21.2-3.3 29.2-1.5 2.6-9-23.8-24.7-31.8-43.4-7.1-9.8-4.5-23.2-7.2-33-17-.9-3.5 24.1-12.4 31.2-16 12.5-18.7 28.5-33 40.1-3.5 12.5 19.3 3.8 24.7 10.9C53.7-117.5.5-55.6 7.7-57.2c13.4.9 26.7 3.6 39.2 2.7 0 0-60.6 47.2-52.6 57 20.5 7.1 44.5 4.4 65-1C60.4 3.4 61 7 61 11.6z"/><path fill="#95C11F" d="M-247 68.5H48.3c4.8-6.5 12.5-15 25.4-26.6l-2.5-.2H71a15.6 15.6 0 0 1-15.2-11.5H-247v38.3z"/><path fill="#95C11F" d="M-247 85.6v30.7H41l-2.9 2A437.7 437.7 0 0 1 10.3 137H-247v23h214c-89 40.7-172.2 38.8-214 12.6V265h512V36.4c-11.1-2-22.4-3-34-3-3.5 4.1-7.6 6.8-11.6 8.4l12.3 10 14.7 12c5.5 4.8 11.2 9.8 11.2 18v1l-.1 1c-.6 4-3 11.2-13.5 14.6-2.7 1-6 1.7-10.3 2.3-6 .9-14.3 1.6-24.4 2-6.7.4-13.4.6-19 .7-.5 8-1 17-.7 24.8.5 10.5 2.3 13.2 2.3 13.3l5.1 6.5-2.7 7.9c-3.5 10-13.8 11.1-18.8 11.7a145.2 145.2 0 0 1-38.5-1c-10.7-1.8-18-5-22.8-9.9-4-4-6.2-9.2-6.2-14.7 0-2.6.5-6.3 1.4-13.5a487 487 0 0 0 2.3-21.5c-8.8 1.4-17.1 2.1-25 2.1-12.7 0-24.3-1.8-34.6-5.4l-4-1.4-2.8-3.4A19 19 0 0 1 41 85.6H-247z"/></g></switch></svg>