<svg xmlns="http://www.w3.org/2000/svg" width="512" height="512" viewBox="-247 -247 512 512" xml:space="preserve"><switch><g><g fill="#EA572D"><path d="m97.5 36-.5-2.9-4.4 18.6a10.3 10.3 0 0 1-16 5.9L61.7 46.8 32 146.3a10.3 10.3 0 0 1-20-2L-3.2-8.1l-12.6 59.6c-1 4.7-5.1 8.1-9.9 8.2h-.2c-4.7 0-8.8-3.2-10-7.8l-7.9-32.3-4.8 13.7a10.3 10.3 0 0 1-9.7 7h-82C-83 123 9 194.1 9 194.1s88.8-68.7 146.2-149.8h-47.6c-5 0-9.1-3.5-10-8.4z"/><path d="M-51.7-19.9a10 10 0 0 1 10.1-6.8c4.6.2 8.4 3.4 9.5 7.8l5.5 22.2 17-80.4a10.3 10.3 0 0 1 20.2 1L27.3 90.6l19-63.7a10.3 10.3 0 0 1 16-5.3l14 10.3 12-50.7c1-4.7 5.2-8 10-8h.2c4.9.2 9 3.7 9.9 8.5l7.8 42.2h52.6c20.1-32.5 34-66.3 34-97.7 0-201.3-193.8-31-193.8-31s-193.7-168-193.7 31c0 30 12.6 62.2 31.3 93.4h87.8L-51.7-20zM-247 40.1h106.8c-4.7-6.8-9.1-13.6-13.2-20.5H-247V40zM265 23.9h-96.2c-4.3 6.9-8.9 13.7-13.6 20.5H265V24z"/></g></g></switch></svg>