<svg xmlns="http://www.w3.org/2000/svg" width="512" height="512" viewBox="-247 -247 512 512" xml:space="preserve"><switch><g><g fill="#36A9E1"><path d="M9 126A117 117 0 0 0 126 9.2C126-55.4 9-242 9-242S-108-55.4-108 9.1a117 117 0 0 0 117 117z"/><path d="M133.1 64.3c-2.8 7.6-6.3 14.9-10.4 21.7h.1a130.5 130.5 0 0 1-27.7 32.7c13.2 5.5 20.5 11.6 20.5 16C115.6 145.5 75 165 9 165s-106.6-19.5-106.6-30.1c0-4.5 7.3-10.6 20.4-16A132.4 132.4 0 0 1-104.8 86h.1c-4.1-7-7.6-14.2-10.4-21.8-74.6 15.1-131.9 44.4-131.9 86.4 0 63.7 132 98.1 256 98.1 124.1 0 256-34.4 256-98.1 0-42-57.3-71.3-131.9-86.4zm-233.4 40.1c-12.9 8.1-20.7 18.2-20.7 30.4 0 35.1 65.4 53.5 130 53.5s130-18.4 130-53.5c0-12.2-7.8-22.3-20.7-30.4 37.5 10.7 58.6 25.9 58.6 38.3 0 21.7-63.9 51.8-168 51.8-104 0-167.8-30.1-167.8-51.8 0-12.4 21-27.6 58.6-38.3zM9 225.4c-137 0-232.5-39.4-232.5-74.7 0-20.2 31.2-41.7 83.5-56.4-25.8 12.2-42.4 28.4-42.4 48.4 0 49 98.6 75.3 191.4 75.3 92.8 0 191.4-26.4 191.4-75.3 0-20-16.5-36.2-42.4-48.4 52.3 14.7 83.5 36.2 83.5 56.4 0 35.3-95.5 74.7-232.5 74.7z"/></g></g></switch></svg>