<svg xmlns="http://www.w3.org/2000/svg" width="512" height="512" viewBox="-247 -247 512 512" xml:space="preserve"><switch><g><g fill="#95C11F"><path d="M265 68.8v-13c-74-3.4-134.3 8.7-178.3 23-31.2 3.5-47.2 1.5-61-20.7C20.8 21.8 23.3-15 39-44.5c7.9-14.9 20.4 7 20.4 7 7.2 7.1 1.8 24.1 9.7 30.4 5.7 4.6 33.7 6 33.7 1.4 0-16.5 24.1-21.7 24.1-21.7 12 5.8 33.8-13 35-23.3 2.4-5.7 4.8-8.6 6-15.9-4.8-7.2-13.3-14.5-12-23.2 3.6-5.8 9.6-4.3 9.6-10.1-2.4-4.4-6-5.8-7.2-8.7l-4.9-18.9c-15.6-13-10.8 8.7-15.6-23.2-1.2-7.2-18.1-14.4-25.4-27.5C99.2-200 69.7-194.4 63-211.5c.7 1.8-7.2-3-14.4 2.9 0 0-25.4 8.6-31.4 2.9-24 7.2-48.2-5.8-66.3 10.1-2.4 0-4.8 0-6-1.4l-23 15.9c-2.3 4.4-8.4 11.6-4.7 16 6 1.4 1.2 8.6-19.3 17.4-14.8 6.2-20.5 21.7-24.1 39 1.2 5.9-17.1 15-19.5 48.7l-3.4 15.2c1.2 7.5 14.4 14.4 14.4 14.4C-131-31.8-96-18.7-85.3-7c17 7.2 37.4-16 38.6-24.7 2.4-4.3 29-11.6 39.8-10.1C8.8-14.4 7.6 32-5.7 62.4c0 3-6 17.4-6 14.5-20.8 4.2-50.3-6.2-69.7 10.6a1272.2 1272.2 0 0 0-165.6-36v13.2c107.1 16 304.3 61 486.8 186.2 4.4 2.9 12.2 8.8 19.3 14.1h5.9v-11.8c-5-4-10.5-8.2-15.8-11.8-10.2-7-20.4-14-30.7-20.6 8.5-3 24-7.7 46.5-10.8v-13.6a215 215 0 0 0-61 15.4c-10.6-6.5-21.2-12.7-31.8-18.7 15.5-7.2 46.9-19 92.8-23.9v-13.6c-58.2 5.8-94.5 22.1-107.7 29.2-16.8-9.1-33.7-17.8-50.4-25.8 12.6-7.2 66.4-34.2 158.1-39v-12.9c-98.1 5.5-157.6 36-172.8 45A1196 1196 0 0 0 22 122.3c26-15.7 112.3-59.8 243-53.5z"/><path d="M-247 109.7c99 15.5 267.5 55.1 431.6 155.3H210C37.2 154.8-143.3 112.4-247 96.3v13.4zM-247 154.8A1218 1218 0 0 1 96.3 265h28.8A1230.6 1230.6 0 0 0-247 141.5v13.3zM-247 200a1233.8 1233.8 0 0 1 235.1 65h35.6A1249.3 1249.3 0 0 0-247 186.6V200zM-247 231.5v14c11.2 2.3 23.6 4.5 28.4 5.5 18.6 3.8 38.7 8.5 60 14h48.8c-46.4-13.9-88.9-23.8-125-30.6l-12.2-2.9z"/></g></g></switch></svg>