<svg xmlns="http://www.w3.org/2000/svg" width="512" height="512" viewBox="-247 -247 512 512" xml:space="preserve"><switch><g><path fill="#EA572D" d="m143-160.2-1.9.2v-45.5c0-4.9-4-8.8-8.8-8.8H15c-4.9 0-8.8 4-8.8 8.8v13l-18.2-37.6 6.5-3.4a5.3 5.3 0 0 0-5-9.5l-21.2 11a5.3 5.3 0 0 0-2.3 7.3 5.3 5.3 0 0 0 7.2 2.3l5.4-2.8L-2.1-185h-17.3c2.9 3 5.7 6.2 8.1 9.6l-4.2 8.4c1.6 2.4 3 5 4.3 7.5l9.5.5c2.6 5.9 4.6 12 5.9 18.2l-7.4 6c.5 2.8.8 5.7 1 8.6L6-122c0 6.5-.6 12.9-2 19l-9 2.5-.7 2h65a47.6 47.6 0 0 1 81-5.3c.5-1 .7-2.2.7-3.4v-19.1l2 .2c7 0 12.7-7.6 12.7-17.1 0-9.5-5.7-17.1-12.7-17.1z"/><path fill="#EA572D" d="M101.5-108a31.7 31.7 0 1 0 0 63.3 31.7 31.7 0 0 0 0-63.3zm0 48.3a16.6 16.6 0 1 1 0-33.2 16.6 16.6 0 0 1 0 33.2zM-20.9-98a76.9 76.9 0 0 0 1.7-16.3l-7.2-3.7c-.1-2.5-.4-5-.7-7.4l6.2-5.1a78.6 78.6 0 0 0-5-15.7l-8.1-.4a73.1 73.1 0 0 0-3.8-6.5l3.7-7.2a76.6 76.6 0 0 0-11-12.3l-7.6 3-6-4.5.4-8c-4.8-2.8-9.8-5-15.1-6.8l-5.7 5.8c-2.4-.6-4.8-1.2-7.3-1.6l-3-7.5c-5.4-.6-11-.6-16.4 0l-3 7.5c-2.4.4-4.8 1-7.2 1.6l-5.8-5.7c-5.2 1.6-10.2 3.9-15 6.7l.4 8-6 4.5-7.6-3c-4 3.7-7.8 7.8-11 12.3l3.6 7.2a66 66 0 0 0-3.7 6.5l-8 .4c-2.3 5-4 10.3-5.2 15.7l6.3 5a65 65 0 0 0-.7 7.5l-7.3 3.7c0 5.5.6 11 1.7 16.4l7.9 2.1a72 72 0 0 0 2.3 7.1l-5.1 6.3c2.2 5 5 9.8 8.2 14.3l8-1.3a71 71 0 0 0 5 5.6l-2 7.8c4 3.7 8.5 7 13.3 9.7l6.8-4.4c2.2 1.1 4.5 2.1 6.8 3l1.3 8a78 78 0 0 0 16.1 3.5l4.4-6.9c2.5.2 5 .2 7.5 0l4.4 6.8c5.5-.5 10.9-1.6 16.1-3.4l1.3-8c2.3-.9 4.6-1.9 6.8-3l6.8 4.4c4.8-2.8 9.2-6 13.4-9.7l-2.1-7.8c1.7-1.8 3.4-3.6 5-5.6l8 1.3c3.2-4.5 6-9.2 8.2-14.3l-5-6.3c.8-2.3 1.6-4.7 2.2-7.1l7.8-2.1zm-76.7 28.4a44.7 44.7 0 1 1 0-89.4 44.7 44.7 0 0 1 0 89.4z"/><path fill="#EA572D" d="M-119.9-114.3a22.3 22.3 0 1 1 44.7 0 22.3 22.3 0 0 1-44.7 0zM-38.3 49.6l-97.2-62-97.2 62v25.2l10.8.2v90.2h172.1V74.8h11.5V49.6zm-97.2 100.2h-42V60.5h42v89.3zm62.7-40.7H-113V60.5h40v48.6zM161.9 114.3V32.9h-24.6v81.4h-13.4V-14.2H99.3v128.5h-56v64.3H21.7V42H-3v136.5h-18.5v66.3h246V114.3h-62.6zm32 64.8H79.8v-32.7h114v32.7z"/></g></switch></svg>