<svg xmlns="http://www.w3.org/2000/svg" width="512" height="512" viewBox="-247 -247 512 512" xml:space="preserve"><switch><g><g fill="#36A9E1"><path d="m204 159.2-4.2-7.2c40-41.2 62-94.3 62-150 0-123.4-107.7-223.7-240-223.7-132.4 0-240.1 100.3-240.1 223.7 0 58 24.1 116 65 157a157 157 0 0 1-82.1-6.1 6.3 6.3 0 1 0-4.5 11.8c16 6 33 9 50.5 9.4l27.1 44.8 16.7-48.2c42 28 90 44.9 139.5 44.9 58 0 122.3-19.3 195.2-57.8 13 22 21.3 45 22.7 66.4.3 3.3 3 5.9 6.3 5.9h.5a6.3 6.3 0 0 0 5.9-6.8c-.3-4.3-1-8.8-1.7-13.3 12.8-8 20.1-19.6 17.6-30.6-3-12.6-18-20.5-36.5-20.2zM-205.7 2c0-116.4 102-211 227.3-211 125.4 0 227.4 94.6 227.4 211 0 51.4-20 100.5-56.4 139-2.3-3.4-4.8-6.8-7.3-10.1 10.2-15.5 11.6-33 2-42.9-8.1-8.5-22-9.2-35.7-3.3 20.6-27.2 31.8-60 31.8-93.6 0-89.4-78-162-173.8-162C-86-171-164-98.4-164-9c0 55.5 33.2 112.6 82 142.8a240.9 240.9 0 0 1-56.3 21.9A212.5 212.5 0 0 1-205.6 2zM112 65c18.3-22.2 27.9-49.6 27-77.6A116 116 0 0 0 102-93.9c-25-23.6-60-36.3-95.6-35.5-71.3 2.2-127.7 58-125.7 124.6 1.4 48 33.7 90.8 81 108.4-9.5 8.3-20 16-31.2 23-48.3-26.8-81.8-82-81.8-135.5 0-82.4 72.2-149.4 161.1-149.4C98.6-158.3 171-91.3 171-9c0 33-11.9 65.2-33.5 91.2A248 248 0 0 0 112 65zM12 37.5c-2.8.2-5.2 2.4-5.7 5.1l-.8 1.6A145.5 145.5 0 0 1-28 93.8l-.7-.2c-45.4-14.5-76.8-54.2-78-98.7-1.8-59.6 49-109.7 113.4-111.6 32.3-1 63.9 10.7 86.5 32a103.5 103.5 0 0 1 33.2 72.5c.8 24.8-7.7 49-23.9 68.7C104.1 38.3 97 22.4 83.7 18c-14-4.7-30 4.5-39.7 21.4a143.7 143.7 0 0 0-32-1.7zm-32.3 66 57.2 10.2L9.5 65.3a124 124 0 0 0 7.3-15.2C56.7 48.5 97.2 65.8 131 92.2c-67.9 49.1-116.6 53-187.7 40.5a239.7 239.7 0 0 0 36.4-29.2zm-114.3 63.8a249 249 0 0 0 30.1-9.8l50.6 30.9-6.8-46.8c23.2 4.1 44 6.7 63.9 6.7 45.1 0 85.1-13.1 135.4-50a244.7 244.7 0 0 1 45.4 51.3c-131.8 69.7-230.5 75.1-318.6 17.7z"/><path d="M30-2.2H-7.4v-76h-21.1v93.8H30z"/></g></g></switch></svg>