<svg xmlns="http://www.w3.org/2000/svg" width="512" height="512" viewBox="-247 -247 512 512" xml:space="preserve"><switch><g><path fill-rule="evenodd" clip-rule="evenodd" fill="#B17F4A" d="M141.8-166.7h-261.9c-35.3 45.3-71 90.1-107 134.6v1C-148 49-69.7 129.9 8.1 211.4 88.8 132.3 165.6 49.3 245-31.1v-1c-34.5-44.8-69.6-89-103.3-134.6zm-29.5 36.9C105.9-103.6 99-78 92.9-51.4a1743.7 1743.7 0 0 1-60-78.4h79.4zm-122.7 0A1471.2 1471.2 0 0 1-73-49.6c-6-26.6-11.6-53.5-18.4-79.3 25.2-2.1 54.4-.3 81.1-1zM-167-23.8h83c24.5 53.2 48 107.5 72.8 160.5A5707.6 5707.6 0 0 1-167.1-23.8zm103.3 0H82.8C59.3 31.2 33.7 84 9.9 138.5c-25.7-53-49.5-107.8-73.8-162.3zm173.3-18.4c5.7-27.5 13-53.4 19.4-80.2 20 26.3 43.5 54.2 60.8 80.2h-80.2z"/></g></switch></svg>