<svg xmlns="http://www.w3.org/2000/svg" width="512" height="512" viewBox="-247 -247 512 512" xml:space="preserve"><switch><g><g fill="#B17F4A"><path d="M-19.6-186.6-233.4 188h425.9l1.7-15.9h-1.7S97 87.3 82.9 82c-14.1-5.3-3.5-21.2-3.5-21.2L68.8 34.3s-8.9-5.3-7.1-14.1C63.5 11.3 63.5.7 63.5.7L58-9.9 53-29.3 42.3-40v-10.6l-9.8-9.7s4.5.8 4.5-4.4c0-5.4-8.9-3.6-8.9-8.9 0-5.3 4.4-6.2 0-10.6l-9.7-9.7-6.2-6.2v-51.2l-8.8-8.9-10.6-10.6-8.9-8.8-3.5-7z"/><path d="M194.2 32.5S125.3 75 146.5 96.2c21.2 21.1 5.3 40.6 31.8 37 26.5-3.5 13.3 28.6 30 23 26.5-8.8 32.7-15 46-37.1 5.3-8.8 14.1-56.5 3.5-58.3-10.6-1.8-12.3-21.2-26.5-19.4-14.1 1.7-31.8-17.7-37-8.9zM164.2 22c5.3-1.8 58.3-5.4 31.8-37.2 0 0-19.4-37-28.3-24.7 0 0-26.5 14.1-21.2 26.5 0 0-5.3 33.6 14.1 28.3 19.5-5.3 3.6 7 3.6 7zM102.3-137.1s-8.8 0-14.1 5.3c-5.3 5.3-5.3 3.5-10.6 8.8-5.3 5.3-3.6-3.5-8.8 7.1-5.3 10.6-5.3 14.1-7.1 19.4-1.8 5.3-1.8 14.2-1.8 14.2s-8.8 1.7 1.8 10.6C72.3-62.9 74-57.6 74-57.6l12.4 14.1 7.1 5.3 8.8 5.3 14.2-1.7 3.5-8.9 5.3-14.1 7-15.9 1.8-5.3v-12.4l-1.7-8.8-5.3-8.8-5.3-7-5.3-7.2-7.1-8.8-7-5.3z"/></g></g></switch></svg>