<svg xmlns="http://www.w3.org/2000/svg" width="512" height="512" viewBox="-247 -247 512 512" xml:space="preserve"><switch><g fill="#B2B2B2"><path d="m-76.3 168.4-.9 1.9v2c0 9 6.3 16.7 18.7 23L-131 265h25.9l65.1-62.8 1 .3c13.6 3.8 30.2 6.6 48.2 8L-47.3 265h25.9L34 211.6h5.5c20.3 0 39.7-1.4 56.7-4.3l-60 57.7h26l70-67.3c14.7-6.1 22.7-13.8 23.9-23L265 70V30H91.5L39.7-82.2l153 96 1.4.2 4.4.3a35 35 0 0 0 17.1-4.3l7.2-4.3L85-95c17.8-4 49.4-10.2 72.2-14.8l23.2-4.7 18.3 11.5 26-6.4-33.1-28.4 7.3-34.6-22.6 1.2-7.6 13.8-4.8-4.2-19.3 3 12.1 20.5-57.2 7.7-56.4 4.2-131.6-89.3-1.6-.8a34 34 0 0 0-9.4-1.5c-5.6 0-8.7 2.1-10.3 4l-3.7 4 97.4 80.7c-11 1.9-16.9 6.3-20 10.5-8.9 1.6-31 6.4-37 16-2 3-2.3 6.2-1.1 9.4 4.7 12.4 29.4 13.4 36.8 13.4 4.7 0 9.4-.3 13.7-.8l27.8-1.8c8.2 6.2 18.3 5.2 23.5-2l7-1 4.8 3L-12.4 30H-247v18h89.8L-247 135v25.1l115.8-112.3h57.9L-247 216v25.5L-47.3 48h26.6l-25 54.3L-214 265h25.3l122-117.7-9.7 21.1zm103.6 24.7c-18.9-.6-36.7-2.6-51.6-5.9l28.6-27.5a271 271 0 0 1 35.4-3.2c7.5-.2 15.8.2 24.4 1.2L27.3 193zm95.7-11.5c-3.4 1.2-7.3 2.5-12.1 3.8-16 4.2-36 6.9-57.6 7.7l33.2-32 12 2.8a100 100 0 0 1 30.5 11.9l-6 5.8zm-20.7-35.7 15.6-15 11 24c-7.5-3.4-16.7-6.4-26.6-9zm159.6-98L149.6 156 132 117.5 204 47.9H262zm-141.6 0H178L124 100.1 106 61.6l14.2-13.7zM92 75.1l17.8 38.5-29 27.9a234 234 0 0 0-54.9-2.8l66-63.6zM39.5-38.8 71.3 30H7.8l31.7-68.8zM-.5 48h11L-9.3 67l8.8-19zM-30 112.2l66.6-64.3h43l4.6 9.9-87.8 84.6A298.5 298.5 0 0 0-49.5 154l19.4-42zm1 54.7-15.1 14.5a54.9 54.9 0 0 1-10.2-5c4.5-2.4 12.5-5.9 25.3-9.5zM138.8 265 265 143.5v-25.1L112.9 265z"/></g></switch></svg>