<svg xmlns="http://www.w3.org/2000/svg" width="512" height="512" viewBox="-247 -247 512 512" xml:space="preserve"><switch><g><path fill="#EA572D" d="M-106.5-24.7a27.7 27.7 0 1 0-55.4 0 27.7 27.7 0 0 0 55.4 0zM14.7 3a27.7 27.7 0 1 0 0-55.4 27.7 27.7 0 0 0 0 55.4zM163.6 3a27.7 27.7 0 1 0 0-55.4 27.7 27.7 0 0 0 0 55.4z"/><g fill="#EA572D"><path d="M62.5 8.4H37.3a39.6 39.6 0 0 1-45.1 0h-26.5a13 13 0 0 0-13 13v89.3a13 13 0 0 0 26 0V42.2h5.6V246c0 7.2 6 13.9 13.1 13.9a13 13 0 0 0 13-13V122.9h7.4v124a13 13 0 0 0 13 13c7.2 0 13.2-6.6 13.2-13.8V42h5.5v68.6a13 13 0 1 0 26 0V21.4a13 13 0 0 0-13-13zM-86.4 8.4h-25.2a39.7 39.7 0 0 1-45.1 0h-26.5a13 13 0 0 0-13 13v89.3a13 13 0 1 0 26 0V42.2h5.6v48.4l-12.8 110.8h12.8v44.7c0 7.2 6 13.9 13.1 13.9s13-5.9 13-13v-45.6h7.4V247a13 13 0 0 0 13 13c7.2 0 13.2-6.7 13.2-13.9v-44.7h12.8l-12.8-110.7V42.2h5.5v68.5a13 13 0 1 0 26 0V21.5a13 13 0 0 0-13-13.1zM211.4 8.4h-25.2a39.7 39.7 0 0 1-45.1 0h-26.5a13 13 0 0 0-13 13v89.3a13 13 0 0 0 26 0V42.2h5.6v48.4l-12.8 110.8h12.8v44.7c0 7.2 6 13.9 13.1 13.9a13 13 0 0 0 13-13v-45.6h7.4V247a13 13 0 0 0 13 13c7.2 0 13.2-6.7 13.2-14v-44.6h12.8L193 90.9V42.2h5.5v68.5a13 13 0 1 0 26 0V21.4a13 13 0 0 0-13-13z"/></g><path fill-rule="evenodd" clip-rule="evenodd" fill="#EA572D" d="M-60.6-183.5a27.7 27.7 0 1 0 0-55.4 27.7 27.7 0 0 0 0 55.4z"/><path fill="#EA572D" d="M-12.8-178.2H-33a43 43 0 0 1-55.3 0h-21.3a13 13 0 0 0-13 13v89.4a13 13 0 0 0 26 0v-68.6h5.5V-4h4.7c9 0 17 4.8 21.5 12v-71.7h7.4v75C-53.6 2.3-44.7-4-34.3-4h3v-140.4h5.5v68.6a13 13 0 1 0 26 0v-89.3a13 13 0 0 0-13-13z"/><path fill-rule="evenodd" clip-rule="evenodd" fill="#EA572D" d="M90-183.5a27.7 27.7 0 1 0 0-55.4 27.7 27.7 0 0 0 0 55.4z"/><path fill="#EA572D" d="M137.9-178.2h-20.2a43 43 0 0 1-55.3 0H41.1a13 13 0 0 0-13 13v89.4a13 13 0 0 0 26 0v-68.6h5.5V-3.9h3c10.3 0 19.3 6.2 23.2 15.2v-75H93V7.9a25.4 25.4 0 0 1 21.5-11.8h4.7v-140.5h5.5v68.6a13 13 0 1 0 26.1 0v-89.3a13 13 0 0 0-13-13z"/></g></switch></svg>