<svg xmlns="http://www.w3.org/2000/svg" width="512" height="512" viewBox="-247 -247 512 512" xml:space="preserve"><switch><g><g fill="#F59E00"><path d="M121.5 112.1V47.3L34.7 80.2V54.7h-85.3v60l-63 23.3-9.9-177h-27l-10.4 194.6-31.4 12v64.3h402.6V112h-88.8zM1 189.5h-51.7v-44H.9v44zm79 0H28v-44h51.7v44zm78.8 0H107v-44h51.7v44zM-132.3-64.6c7.7 0 3.6-26.9 17.3-41.2 14.2-15 46.3-16.8 63 8.7a50.2 50.2 0 0 0 94.3 2.3 50.1 50.1 0 0 0 96.4-24.7A50.1 50.1 0 1 0 82.3-193a50.1 50.1 0 0 0-86.7-.2 50.2 50.2 0 0 0-90.3 42.6c-24 .8-46.4 17.2-46.4 41.4 0 24.7-1.7 44.6 8.8 44.6z"/></g></g></switch></svg>