<svg xmlns="http://www.w3.org/2000/svg" width="512" height="512" viewBox="-247 -247 512 512" xml:space="preserve"><switch><g><g fill="#95C11F"><path d="M-92.6-44.7c23 16 59.8 9.8 85.7 17l29.3 12v26.5c-38.4 6-75.8 33.4-87.2 57h190.6c-10.1-24.2-46.5-50.7-87.4-57v-62.1l39.4-12.4c38.9 23.1 65.2 6.5 88.1-9.6 25.9-18.3 21.2-47 15.2-70.9-2.2 7.6-13 15.5-20.8 17-28.4 5.7-44.5-14.3-74.2 3C65.4-110.8 58.3-93 64.6-72.2l-26.2 6c0-.3-1-31.5-.3-51.7 1-28 35.6-31 33-69-2.4-44.7-47-46.3-76.9-51.3 4.5 3.8 6 35.3 5 39.7-4.4 19-12.4 31.6-5.8 48 4.7 13.6 29 9 29 23.1v100.2l-27.1-9A52.1 52.1 0 0 0-18-91c-19.2-19.6-40.6-2-69-7.6-7.8-1.5-18.5-9.4-20.7-17-6 24-10.7 52.6 15 70.9zM145 59.8l12 28.7h51.2c25.2 0 25.2-37.7 0-37.7h-68c1.9 3 3.5 6 4.8 9z"/><path d="M227.6 147.3h-174c-4.1 0-4.1-10.5 0-10.5h174c25.2 0 25.2-37.8 0-37.8h-174c-4 0-4-9.7-.4-10.4h-151l14.3-29.8c12-25 42.3-48.7 75.3-61h-48.4c-28.9 0-77.5 75.7-77.5 75.7H-215V233h413c25.2 0 25.2-37.4 0-37.4H53.6c-4.1 0-4.1-10.6 0-10.6h174c25.2 0 25.2-37.7 0-37.7zM70-2.3a153.1 153.1 0 0 1 55.7 34.7c11.1-11.6 4.8-34.7-17-34.7H69.8z"/></g></g></switch></svg>