<svg xmlns="http://www.w3.org/2000/svg" width="512" height="512" viewBox="-247 -247 512 512" xml:space="preserve"><switch><g><g fill="#B2B2B2"><path d="m260.2 190-95.5-55A165.3 165.3 0 0 0 180 65c0-89.3-70.8-162.4-160-167.5V-226a10.5 10.5 0 1 0-21 0v123.7A168.8 168.8 0 0 0-160.4 65c0 24.8 5.4 48.3 15.2 69.4l-96.2 55.6a10.5 10.5 0 1 0 10.5 18.2L-135 153c30 48 83.7 80 145 80 61.1 0 114.7-31.8 144.7-79.6l95 54.9a10.5 10.5 0 1 0 10.5-18.2zM55.4 124.3c-4.6 6.2-24 3-32.6 4.6-6.2 4.6-11.6 20.7-9.3 32.2 1.7 8.4 24 40.7 33.4 49-21 8.5-59 3.2-70.6.9-10.9-4.6-41.2-26.1-43.5-33-13.2-20 3.1-39.1 8.6-53.7-.8-29.9-27.2-36-38.8-30.7-9.3 4.3-11 17.7-11.7 21.5-.8 3.9-10 14.6-14.7 12.3-15.5-18.4-16.3-63.7-14.8-81.3 3.1-24.5 42.7-7.7 48.1-7.7 5.5 0 10.9-10.7 21-20 10-9.1 52.8-5.3 48.9-3-4 2.3-17.9 5.4-24 8.4-6.3 3.1 3.8 8.5 11.6 10 7.7 1.6 36.4 10 46.5 12.3-.8 3 1.6 24.5.8 30.7-.8 10-3.1 29.9 0 39.8 3.1 10 21 2.4 28.7 2.4 9.3-7 17-.8 12.4 5.3zm97-87.4c.8-6.1-6.2-21.5-12.4-20-6.2 1.6-8.5 17-3.9 27.6 4.7 10.8 7 29.2 7 36 0 7-10.9 20.8-17 23.9-6.3 3-7 33.7-31.1 29.9-17.8-2.9-6.2-36-14-44.5-7.7-8.4-17-1.5-29.5-9.2C39.1 72.8 42.2 62 50 52.9c7.7-9.2 21-20.7 22.5-26.8C74 19.9 67 6 62.4 9 57.7 12.3 42.2 18.5 39 20c-3 1.6-21.7.8-24.8-5.4C11.2 8.5 22 7.7 25.9 3c4-4.6.8-16.8-3-15.3-4 1.6-16.4-3.8-20.2-11.5-4-7.7 13.1-14.6 15.5-21.5 2.3-6.9-2.4-18.4-7-12.2-4.7 6.1-15.5.7-21 5.3-5.4 4.6-2.3 10-8.5 10s-17-2.3-18.6 3c-1.6 5.4-15.5 12.3-19.4 17.7C-60.2-16-54.8-9.2-54-6.2c.8 3.1-9.3 10-13.2 12.3-3.9 2.3-7.7-8.4-2.3-13s-7.8-15.4-10.1-15.4-17.8 8.5-19.4 10.8c-1.5 2.3 0 13 .8 21.5.8 8.4-11.7 9.2-14.8 10.7-3 1.5-13.1-7-10.8-9.2 2.3-2.3 3-8.5 1.5-11.5 12.4-33 55.1-84.4 133.5-84.4 41.1 0 81.5 23 102.4 41.4 21 18.4 43.5 66 45 74.4 1.6 8.5-5.4 10.8-6.2 5.4z"/><path d="M72.8-175.2c0 .8-.3 1.8-1 3a28.8 28.8 0 0 1-9.4 10.7c-3.5 2.5-7 4-9.9 4.8l3.9 14.3a36 36 0 0 0 17.9-8.7c8-6.9 14.2-18.1 23.5-43.4l17-46.1H96.4l-10.5 36c-1.4 4.4-2.7 9.5-3.6 13.3h-.5c-1-3.8-2.4-9-3.8-13L66-240.7H47l25 62c.6 1.7.8 2.7.8 3.4zM217.2 125.8l7.8-13.5c2-3.8 4.1-7.1 6-11h.4c2 3.8 3.9 7.4 6 11l8.3 13.5H265l-23-35.2 22.6-32.5H246l-7.5 12.5-6 10.7h-.3l-6-10.4-8.1-12.8h-19l22.6 33.2-23.5 34.5h18.9zM-184.7 112.1h-35.5v-.2c3.4-3.6 6.6-7.5 10-11.6l24.7-31.8V58.1h-53.6v13.6h32.8v.3c-3.5 3.9-6.4 7.2-9.9 11.4l-25.4 32.5v9.9h57V112z"/></g></g></switch></svg>