<svg xmlns="http://www.w3.org/2000/svg" width="512" height="512" viewBox="-247 -247 512 512" xml:space="preserve"><switch><g fill="#95C11F"><path d="M103.4 256a55 55 0 0 1 15.6-26.4c16.9-17.9 36.7-31.9 47.8-54 2-4 5.5-10.8 2.2-13.2-12.6-9.2-28.7 14.8-37.7 12.7-6.4-1.6-2.6-9 9.7-15.7a78.8 78.8 0 0 0 30.7-25.3c4.3-5.7 8-12 6.7-19.4-11.7-10.4-26.5 1.3-39 4.6-4.9 1.3-8.6 5.2-14.3 2.8-3.2-4.7.1-10.3 3.2-13.6 9.9-10.5 21.7-19 27.6-32 2.9-6.2 2.7-13.2.7-19.8-1.4-4.7-6.4-6-10.7-6.8-5.2-1-18.4 9-24.8 10-4.2.5-4.5-4.4-4.4-7.6.4-9.3.3-18.8-4-27.2-2-3.8-6.6-5.9-10.5-4.9C95 22 89.9 28.7 87.8 35.4c-3.1 10-.6 35.5-9 31.3-12.3-6.2-30-16.9-40.4-2.8-2.5 3.4-.3 8.4 1.6 12a57.8 57.8 0 0 0 23.5 26c5.8 3 23.7 29.2 3.2 22-12.5-4.4-23-13.9-37-11.6-4 .7-6.9 5-6 9.3A29 29 0 0 0 32 136a204 204 0 0 0 36.3 30.9c17.5 11.6 12 24.5 1 15.1-8.5-7-25.2-19.1-31.3-19.5-3.8-.2-8 .3-9.2 3.9-4.1 11.6 4.9 22.2 11.8 31.2 10.2 13.2 22.5 22.2 35.4 32.6 9.9 7.9 19.4 16.3 24.1 28v6.8h3.4v-9z"/><path d="M239.7 5.6c-.6-4-2.2-11.6-2.5-14.1-.3-2.5-6.9-10.1-13.2-13.6-5-5.9-21.8-25.6-23.4-29.3-1.7-3.8-2.5-6.9-.8-8.1 1.6-1.3 5.5-6.6 6.3-9.6 3-.8 6.6-3.8 7.7-5.6 3-.2 5.2-.2 6-1.2l15.2 4.7-11.6-8.3c-.8-3.8-2.2-9.8-10.1-12.9-8-3-18-1.5-23.8 3.3-2.7.3-13.5.8-15 3.6-3.4-17.2-16.6-74.8-25.5-86-5.4-11-31.9-36.8-46.2-46-14.4-9-32.5-22.1-38-29.2-.6 1.5 1.6 8 4.4 10.6-3.4-.5 1 7.6 3.8 10.1-3.3 1 1.7 9 5 13.1-3.9-1-3.9 3-1.1 6.1-3.3 0 3.8 10.1 7.1 12.1-3.8-.5-1.6 4.6 2.2 6.6 4 2 5.5 4.5 1.7 4-3.9-.5 1 5 5 6.6 3.8 1.5 5 4 1.6 3.5-3.3-.5.6 3 4.4 5.6 2.2 2.5 8.3 4.5 8.3 7 3.3 3.1 6 9.7 8.2 11.7-2.2 3.5 1.7 13.1 3.4 16.2-.6 2.5-1.7 9 2.2 12a26 26 0 0 0 5.5 13.7c-.6 5 2.2 16.2 4.4 18.2-2.2 3.5 1 12.6 3.3 16.7 1 3.5 4.4 7 2.2 10-2.2 3.1-6 4.6-10.5 5.6-4.4 1-88.7 19.2-100.8 20.8 11 1 81.5-5.6 84.8-5.6 3.3 0 7.2 1.5-2.2 5.6-9.3 4-68.8 39.4-75 43.9 21.6-9.6 97.6-45 107-49a49 49 0 0 0 15.4-1c.6 2.5 5.3 4.8 7.5 5 1.3 3.6 7.1 7.6 9.3 7.9.6 2.2 6.4 5.5 8.8 5 0 2.6 6.1 8.4 8.8 8.4.9 2.7 4.5 5.5 6.7 5 .8 3 5.2 8.9 7.4 8.9s.6 2.2.8 3.8c.3 1.5 1.1 7.5 3.3 6.5.9 2.5-.8 8.1 3 5.8.3 2.3.9 12.7 4 6.8-.6 3.6 0 14.2 2.7 8.6 1.4 4.6 3.6 11.4 5.2 6.8 1.1 4.1 5.8 14.2 6.4 10.7 2.7 5.3 6.6 21 7.7 12.3.8 3.3 4.4 14.2 5.2 10.4.8-3.8.5-.3 2 1a12 12 0 0 1 3 6.3c.3-8.6-5.7-63.4-7.2-71zM-145-59.3a99.2 99.2 0 0 0-58.5-26.6c-5.3 0-11.5-2.6-17.7 1.8v1.8c12.4 8.8 17.7 26.6 17.7 44.3 1.8 16 21 24 23 28.3l3.1 6c-.8 4.8-9-1.3-13.6-4.2-3.4-2-5.4-5.3-10.7-7-1.8 0-3.6 1.7-3.6 3.5-1.7 5.3-2.3 12.2 1.8 16A40.9 40.9 0 0 0-175 15c19.5-1.7 42.5-7 56.7 7.1 1.7 3.6 5.8 6.8 3.8 9.5-3 3.9-3.8 3-5.6 3-8.8-7.2-16-19.6-28.3-17.8-12.4 0-21.3 7.1-26.6 16-1.8 5.3-1.8 12.4 1.8 16 7 7 14.1 15.9 14.1 26.5-1.7 8.9-7 19.5-1.7 28.4 3.5 1.7 5.3 5.3 8.8 5.3 8.9-21.3 35.4-21.3 39-46 1.3-8.9-1.8-21.4 3.5-26.7 3.6-3.5 5.4-5.3 7.1-10.6 1.8-37.2-17.7-62-42.5-85zm-35 5.9c-1.3-1.2-1.5-10 10.5-6.5 18.3 7.5 29.8 20.1 40.5 36-8.9-7-15.7-13.9-26.6-19.4-8.8-4.5-18.1-4.7-24.4-10.1zm24.4 31.3s-1.8-1.7 0-3.5l2.7-1.1 3.2.3a44 44 0 0 1 26 20.3c-7.1-8.9-19-11.3-32-16zm19.5 95.7c-2.1 1.6-4.3 3.5-7.1 1.8-2.2-1.2-3-4-1.8-5.3 6.2-6.8 9.7-7.4 19.5-12.4-1.8 7-4 11-10.6 16zM5.9-85.9a99.2 99.2 0 0 0-58.5 26.6c-24.8 23-44.3 47.9-42.6 85 1.8 5.4 3.6 7.2 7.1 10.7 5.3 5.3 2.3 17.7 3.6 26.5 3.5 24.8 30.1 25 39 46.2 3.5 0 5.3-3.6 8.8-5.3 5.4-8.9 0-19.5-1.7-28.4 0-10.6 7-19.5 14.1-26.6 3.6-3.5 3.6-10.6 1.8-16A30.5 30.5 0 0 0-49.1 17c-12.4-1.8-19.5 10.7-28.3 17.7-1.8 0-2.7 1-5.6-3-2-2.6 2-5.8 3.8-9.4 14.2-14.1 37.2-8.8 56.7-7 10.6 0 20.2-3.3 28.4-10.7C10 .8 9.4-6 7.7-11.5 7.7-13.1 5.9-15 4-15c-5.3 1.8-7.3 5-10.7 7.1-4.6 2.9-12.9 9-13.6 4.2l3-6C-15.1-14 4.1-22 5.8-38c0-17.7 5.4-35.5 17.8-44.3v-1.8c-6.2-4.4-12.4-1.8-17.7-1.8zm-58.5 156c1.2 1.3.4 4-1.8 5.3-2.9 1.7-5-.2-7-1.8-6.7-5-9-8.8-10.7-16 9.7 5.1 13.3 5.7 19.5 12.5zM-42-22.1C-55-17.4-66.8-15-73.9-6a43.9 43.9 0 0 1 26-20.3l3.2-.3 2.7 1c1.8 1.9 0 3.6 0 3.6zm24.4-31.3c-6.3 5.4-15.6 5.6-24.4 10-11 5.6-17.7 12.5-26.6 19.6C-57.9-39.8-46.4-52.4-28-60c12-3.5 11.8 5.3 10.5 6.5z"/></g></switch></svg>