<svg xmlns="http://www.w3.org/2000/svg" width="512" height="512" viewBox="-247 -247 512 512" xml:space="preserve"><switch><g fill="#B17F4A"><path d="m-69 176 8 36.1c3.6 0 7.2.6 10.7 1.7l3.4-36.9a66 66 0 0 0-22-1zM72.4 218.4l14 33.8c8.5-3.4 15.8-7.9 22.3-12.6l-16.2-33.7a75 75 0 0 1-20 12.5zM9.6 248.6c9 3.6 17.3 6 25.1 7.5l3.8-36.5a108 108 0 0 1-10.6-3l-18.3 32zM-38 179.4l-3.4 38c4.9 2.6 9.9 5.9 15.2 9.6l13-35.4c-7.4-4.7-15.7-9.1-24.7-12.2zM1 201.4l-6.4-4.6-13 35.6C-12 237.2-5.6 241.5 1 245l18.2-31.8c-5.2-2.4-11.6-7-18.3-11.7zM47.6 221.3l-3.8 36.3a85.6 85.6 0 0 0 33.9-2.4l-14.2-34.3c-4.8.8-10 1-16 .4zM100.4 199.2l-.7.6 16.4 34a377 377 0 0 0 8.3-6.9l8.7-7.2-26-26.1-6.7 5.6zM116.1 186.5l-1.7 1.4 25.8 26a18.3 18.3 0 0 0-24-27.4zM-122.4 206a18.3 18.3 0 0 0 26.2 25.7 65.4 65.4 0 0 1 26.1-18l-7.8-36a98.7 98.7 0 0 0-44.5 28.4zm17.6 14.8a10.6 10.6 0 1 1 0-21.3 10.6 10.6 0 0 1 0 21.3zM265 84.7V55C215.1 11.6 112.8-9.5 18-11.2v-40L52.7-72c46.8 31.7 106-33.9 117.7-77-68.8-37.9-128 34.3-123.2 64l-30 17.5-.1-32C85.3-139.8 36.9-235 7.3-244.4c-18.5 15.1-76.1 95.5-4.5 145L1.8-69l-31-20c-17.2-82-85.4-80.5-117-62.6 2.7 27.5 17.9 95.7 111.5 78.4L1.1-52.6v41.3C-94.5-10.7-196.7 10-247 53.4V83C-213.5 33.7-104.3 7.7 1.5 7l-1 4.9a61 61 0 0 1-40.6 43.7l-22.5-12.4c-2.6-1.5-5.9-.1-7.1 3-1.3 3.2-.1 7 2.6 8.5l9.6 5.3-4 .8c-8.8 1-16 2.2-22.4 3.7l-20.6-13c-2.5-1.6-5.8-.5-7.2 2.6-1.4 3.1-.4 7 2.2 8.7l10.7 6.7c-11.6 5.6-18.2 14-24.4 28.3-1.4 3.1-.4 7 2.2 8.6.8.5 1.7.7 2.5.7 2 0 3.8-1.3 4.8-3.4 5.7-13 11-20 24.3-24.6v14.4c0 3.5 2.4 6.3 5.4 6.3 3 0 5.4-2.8 5.4-6.3V76.3c5-1 11-2 18.1-2.8A112 112 0 0 0-46.9 71l.4 12.7c.2 3.5 2.5 6.1 5.4 6.1h.2c3-.1 5.3-3 5.2-6.6l-.6-15.7A76 76 0 0 0-.5 40.4c-4.9 19-14 39.7-29.6 51.3-8 5.9-13.8 8.1-19.4 10.3a47.2 47.2 0 0 0-19.9 12.7l-14-7.1c-2.8-1.4-6 .1-7 3.3-1.2 3.3 0 7 2.7 8.4l10.6 5.4c-2.3 3.5-4.8 7.5-7.6 12.5-1.6 3-.9 7 1.6 8.8 1 .7 2 1 3 1 1.7 0 3.4-1 4.4-2.8 4-7.1 7.2-12.1 10.2-16a5.7 5.7 0 0 0 2.8-3.2l.1-.4c2.4-2.6 4.7-4.5 7-6v15.7c0 3.6 2.3 6.4 5.3 6.4s5.3-2.8 5.3-6.4v-20.7c5.5-2 12-4.8 20.6-11.1A82 82 0 0 0-2 74.8c-6.4 22-19.1 49.6-45.8 77.5a7.2 7.2 0 0 0-.5 9 5 5 0 0 0 4 2.1 5 5 0 0 0 3.6-1.6c9-9.4 16.5-18.8 22.8-28a276 276 0 0 0 10.5 33.6c.9 2.3 2.8 3.7 5 3.7a5 5 0 0 0 2.1-.5c2.7-1.5 4-5.3 2.7-8.5a210 210 0 0 1-11.7-42C.5 103 6.4 87 9.8 73.3c3.6 13.6 9.4 29.7 19.6 47-1.8 15.1-9.4 35.8-11.7 41.8-1.2 3.2 0 7 2.6 8.5a5 5 0 0 0 2.3.5c2 0 4-1.4 4.8-3.7 2-5 7.3-19.4 10.5-33.5 6.3 9.1 13.8 18.5 22.9 28a5 5 0 0 0 3.5 1.5 5 5 0 0 0 4-2.1c2-2.7 1.8-6.7-.4-9a186.5 186.5 0 0 1-47-79.8 83.3 83.3 0 0 0 23.7 30c8.5 6.3 15 9 20.5 11.1v20.7c0 3.6 2.4 6.4 5.4 6.4 3 0 5.3-2.8 5.3-6.4v-15.7c2.3 1.5 4.5 3.4 7 6v.4a5.7 5.7 0 0 0 2.9 3.2c3 3.9 6.2 8.9 10.1 16 1 1.8 2.8 2.9 4.5 2.9 1 0 2-.4 3-1 2.4-2 3.2-6 1.5-8.9-2.7-5-5.2-9-7.6-12.5l10.6-5.4c2.8-1.4 4-5.1 2.9-8.4-1.2-3.2-4.3-4.7-7.1-3.3l-14 7.1c-6.6-7-12.6-9.8-20-12.7-5.6-2.2-11.3-4.4-19.3-10.3-15.7-11.6-24.7-32.3-29.6-51.3a76 76 0 0 0 35.8 27.1l-.6 15.7c-.1 3.5 2.2 6.5 5.1 6.6h.3c2.8 0 5.2-2.6 5.3-6l.5-12.8c4.3 1 8.8 1.9 13.5 2.5 7.1.8 13 1.7 18.2 2.8v17.2c0 3.5 2.4 6.3 5.4 6.3 3 0 5.3-2.8 5.3-6.3V79c13.4 4.6 18.7 11.6 24.4 24.6 1 2.1 2.8 3.4 4.8 3.4.8 0 1.6-.2 2.4-.7 2.6-1.6 3.7-5.5 2.3-8.6-6.2-14.3-12.8-22.7-24.4-28.3l10.7-6.7c2.6-1.7 3.6-5.6 2.2-8.7-1.4-3-4.7-4.2-7.3-2.6l-20.6 13c-6.3-1.5-13.6-2.7-22.3-3.7l-4-.8 9.6-5.3c2.7-1.5 3.8-5.3 2.6-8.4-1.3-3.2-4.5-4.6-7.2-3.1L60.3 55.6a61 61 0 0 1-40.6-43.7l-1-4.8C123.3 9 232.4 35.6 265 84.7z"/></g></switch></svg>