<svg xmlns="http://www.w3.org/2000/svg" width="512" height="512" viewBox="-247 -247 512 512" xml:space="preserve"><switch><g><path fill="#36A9E1" d="M135.4-62.4c.3-.3 2.1 0 2.6 0 0-.5-.3-3 0-3.3-1-.3-.6-.6-2-.6-1.2 0-.6 2.8-.6 3.9z"/><path fill="#36A9E1" d="M239.2 120.6a39.2 39.2 0 0 0-13.7-15.6c1-1.9 1-3.3 2-5.2-.9-.3-2.8-.1-4-.6 0-6.8-3.1-6.3-7.5-10.2.6-.6 1-.5 1.7-.8 0-7.6-7.3-16.2-13.6-18.9v-.6l-4.5-2.6c0-4.4-2-2.7-2-7.8 1.3.1 2 .7 3.3 1.3-.6-3.1-.2-4.8-1.3-7.2h-1.3c-2.7-14.7-6.2-26.9-6.5-42.8C196.8-9 189-15 180-31.3c-.7.5-1.2-.4-2 0v2c-.4 0-1.5-.2-1.9 0-.4-.4-.2-2.2-.6-2.6-.4-.3-1.5.2-2 0 0 0-1.7-3.2-1.9-3.3h-.6C163-50.7 137.8-51.8 125.6-63c-.3-.3-.4-2.4-.7-2.7 2.6-.4 3.8.4 4 2.7l5.2.6c0-17-37-28-46.8-28.5-3 .1-3.7-.7-5.8-1.3a16 16 0 0 1 .6-8.5c-11.9-4.1-13.4-8.6-19.4-16.9h-1.3c-2-2.5-3-5.3-3.2-8.4 1.6-1 3-.8 4.5.7-.4-1.8-2.3-4.8.7-4a6.1 6.1 0 0 0 6.4 3.3c-9.1-12.1-20.9-48-31.1-53.2v-2l-5.2-1.2c-3.4 9.1-8.7 14.4-11.7 22-.7-.3-1.9.3-2.6 0-3.7-6.8-5.9-14-6.5-22-4.8-3.3-2.6-2.8-2.6-8.5 1-.5 1.5.5 2 .7 1.5-3.4 4.6-5 5-9.1.2-3.3-2.9-5-5.7-7.8.7 2.8-.6 4.5-3.8 5.2-1.7-1-4.6-4.3-7.1-4.5-5 2.9-5.7 4.6-2 5.2v1.3c-12.3-1-14.9 5.6-26 7 .3-1.6 1.8-5.7-.6-5.7-2 5-3.8 10.2-5.2 15.5 1.8 4.7 6.3 9.5 7.8 15.6-1.1.2-2.2 0-3.3 0v1.3c-1.1-.2-.5-2-.6-3.3-.4 0-2.3.3-2.6 0 .5 2 .8 3.3.6 5.2-3.5-1-4.8.5-3.8 4.6-3.4 0-4.7-.2-8.5-1.3-.4.5-2.5 2.2-2.6 2.6-1.2 3.7 5.7 5.3 7.2 5.8l.6 1.3c1.6.3 2.5-.8 3.3-.6.9 7.4 3.5 25.7 11 28.5 9.5 8.1 18.7 15.6 28.5 23.4-1.5 6.2 0 9.4 4.6 9.7 1.2 9.7 1 15 1.9 23.4C16.4-54 28-46.5 34.2-35.8c3 6.2 11.3 12.5 17.5 16.2 2.8-1.6 5-1.2 6.5 1.3 2.3.4 7.5-.9 10.3-1.3v-1.3a16 16 0 0 0 14.3-2c6.5 8.5-1.6 16.1-8.4 18.9-.7 1.1 0 2-.7 3.2h-1.3C72.1 1 91 6.8 92.5 7.7c10.7 6.4 27.4 25.2 39 30.5 21.8 11 35 14 28.5 46-12.6-1-10.8-8-11.7-14.9-3.6-2-4.7-4.7-3.2-7.8-1.6-2.2-4-2.7-7.1-1.3l-.7-1.3c-7.8-1.1-16 .2-18.8-9-3 .4-9.7.5-11.7 1.9-5.4 3.3-17.2 24.9-17.5 31.2-1.2 9.4 10.3 8.2 15 12.3 4.5 4.4 8.1 5.3 7 13.6l-1.2.6c0 6.1 1.7 8.9 1.9 15-1-.3-.5.9-2 .6-18 2.5-28.5 17-34.3 37h-1.3c-.8 1.2.1 2.6-.7 3.9-4.1-.4-7.4 1.7-9.7 6.5-9.4-.1-9.8-4-9.8-15 7.4-2.3 11.3-7.9 11.7-16.8-1-.3-2.3.1-2.5-.7-1.8-4.1 6.8-8 9-9-.2 2.5.9 3.4 3.3 2.5 4-8 1.8-15.3 0-24h-1.3c-1.8-8.5-5-15.7-9.8-22.7-2.4-7-2.6-12.5-5.8-18.1-1.3.1-4.5-.1-5.9.6.1 1.2-.3 2.3-1.2 3.3a25.2 25.2 0 0 1-15-13.7C47.3 36.4 28.7 40.8 18 40.1c2.4-2 3.2-4.3 2.6-7.1-.6 0-2.8.3-3.2 0-.9-.7-.4-1.9-.6-3.3-2.7-1.6-4.4-1.2-5.3 1.3v-1.9c-1.8-1-3.5-.9-5.1.6-3.4-11.2-2-20.3-13.6-22-.8 2 0 1.5-1.4 2.6-24.9-17-50.6-38.7-68-66.8-4.2-1.7-6.8-1-7.9 1.9-1.6.4-.8-1-2-.7.4-.6-.2-1.9 0-2.6.4-.6 2.7-1.4 3.3-2 .8-2.2 0-3.5-2.5-3.8-1.9-2.2.8-5.8-4-7.1-.5-.8-.4-2.5-.6-3.3-6 .6-10.4-2.2-13-8.4-.2-3 .9-4.9 3.3-5.8 1.7-6.2.4-9.6-4-10.4-5-12 .2-39.4-14.8-42.8-.8-.4-2 .3-2.6 0v1.9c-.3.1-7-5-7.2-5.2-10.1-13.8-25-20.7-40.9-7.8-13.3 11.8-17.8 10-35 14.3l-9 4.5v1.3c-2.5 0-3.8 1.1-4 3.3-3.6 2.2-7.8 1.2-11 2.6l-.6 3.2-5.2.6c-.1 2.7.1 5.3.7 7.8-4.5-.5-6-.4-9.1-.6-.4.9 0 1.5-.7 2l-3.5.3V107c10.5-4.6 14.1-15 30.3-15 20.8 0 20.8 17.2 41.6 17.2s20.9-17.1 41.7-17.1c20.9 0 20.9 17.1 41.7 17.1 20.9 0 20.9-17.1 41.7-17.1 20.9 0 20.9 17.1 41.7 17.1v10.3c-20.5-.2-20.6-17.1-41.4-17.1-20.8 0-20.8 17.1-41.7 17.1-20.9 0-20.9-17.1-41.7-17.1-20.8 0-20.8 17.1-41.7 17.1-20.8 0-20.8-17.1-41.7-17.1-16.2 0-19.8 10.4-30.5 15v24c10.5-4.6 14.1-15 30.3-15 20.8 0 20.8 17.3 41.6 17.3s20.9-17.2 41.7-17.2c20.9 0 20.9 17.2 41.7 17.2 20.9 0 20.9-17.2 41.7-17.2 20.9 0 20.9 17.1 41.7 17.2V154c-20.5-.2-20.6-17.1-41.4-17.1-20.8 0-20.8 17.1-41.7 17.1-20.9 0-20.9-17.1-41.7-17.1-20.8 0-20.8 17.1-41.7 17.1-20.8 0-20.8-17.1-41.7-17.1-16.2 0-19.8 10.4-30.5 15V265h512V119.9a82.3 82.3 0 0 0-25.8.7zm-401.7-64h-1.3c.5 4-.8 7.4-4 10.4-5.3-1-3 .2-6.4-2.6.2-.9 1-1 .6-2.6-4-2.4-8.6-2-13.6 1.3-1 2.2-.9 4.1.7 5.9-5.3 17.5-15.3.4-17.6-4.6-2.5 1.2-3.7 1.2-5.8 2.6.2-.1-.5-2.6-.6-3.2 1.1-.4 2-.4 3.9-.7 1-11.3 3.4-17.5 5.1-29.1 2-.8 3-.8 4.6-1.3-.3-2.4.3-4.8-.7-6.6-1 .2-2.2 0-3.2-.6v-5.8c1-.4 1.6.3 2.6.6 1.7-8 5-25.6-6.5-27.9 2.4-4.3.5-4.4 1.3-8.4h.6c1-2 1-3 2-5.2.6.4 1 1.9 1.3 2.6 12.4 0 22.4-1 31.8-11 .5-.2 1.5.2 2 0 .6-.6 0-2.8.6-3.2 2.7 7.1 6.6 9.7 11.6 7.7-1.9 5.4-.8 9.7 3.3 13 0-.3-.1-.4 0 0l.3.8c5.5 17.5-6.9 47.4-14 63.4-.3 2.7 1.7 1.5 1.4 4.6zm9-109-3.1.7c-3.4 2.7 1.7 10.4-7.9 10.4l-.6 1.3h-1.3v-4.5c-2.6-1-7.6-6.2-10.4-6.5v-2c6.4 1.1 4.1.5 5.8-3.9-6.6-2.5-10.6-8.1-6.4-15h1.2c1.5-4.5-3.2-5.8-1.9-10.3 4.3-1.8 2.2-3.4 0-6.5 10.3-7.9 27.8-9.9 29.2-20 2.4-.9 3-2.6 2-5.3.7 1.1 1.8 1.1 3.2 0 .2 1.3-.3 1.4-.7 2.6.4-1.2 1.5 1.1 0 0 7.2 5.5-6.5 54.2-9 59zM42 175.9a9.4 9.4 0 0 0-5.1 7.1h-1.3c-1.8 3.4-6.3 7.5-7.8 10.4-2.2 3.2-2 12.7-7.1 15-4.1 1.3.2 10-.7 16.1 11.4 8-1.8 5-4 20.2C5 241 .8 245-4.7 236-13 229-23.7 221.5-34 217.3c-3.7-2.6-7-4-11-4.5-.3-.7-.1-2.3-.7-3.3-4.4-6.1-9-8.7-14.2-9.7l-.7-2c-13-1.5-10.3-.2-15.5-12.9 3.5-3.2 3.5-5 7-6.5v-.7c3.7-.4 5.2-2.3 4.6-5.8.3.3 2.2 0 2.6 0 .3.7-.2 1.9 0 2.6 5 6.2 9.1 6.4 12.3.7-.4-.2-.9.4-1.2.6-.8-.6-1.9-2.1-2.6-2.6l11.6-.7c1.4 6.2 1 6.6 6.5 4 2.8 9.8 28.7 9.7 34.5 8.4 6.8-4 24.3-4 27.8-10.4 4.2.8 9.4 0 14.3-.7-.5 1 1 .4.6 2z"/></g></switch></svg>