<svg xmlns="http://www.w3.org/2000/svg" width="512" height="512" viewBox="-247 -247 512 512" xml:space="preserve"><switch><g><g fill="#F59E00"><path d="M-9 15.2c-4.5-4.1-10-4.7-25.1 5.2l-37.4 33.8-42.6-6c11.9-13.1 0-25.7-11.6-8.6l-5.3 6.7-30-3 4-6.8c6.4-10.3-2.8-17.2-11.4-8.6L-179 40.6s-35.3-7.3-41-1.7l-14.4 14.2 73 26.6c10.1 4.8 23.3 12 29.5 17 8.2 6.5 11.7 8.6-3 22.8l-37.4 45.5-45.7-6-11.5 11.3 34 20-3.2 5.9 7.4 7.3 6-3 19.8 34.2 11.4-11.5-5.8-45.7 45.7-37.2c14.3-14.6 16.4-11 22.9-2.8 4.9 6.2 12 19.4 16.8 29.6l26 73.2L-34 226c5.7-5.7-1.5-41-1.5-41l12.9-10.4c8.5-8.6 1.7-18-8.6-11.5l-6.8 4-2.9-30 6.8-5.4c17.2-11.4 4.6-23.4-8.6-11.6l-5.7-42.7 34-37.1c10-15 9.9-21 5.4-25zM38.2-43v-14.2h-25V-43c0 12 25 12.2 25 0zM-78.3-42.6v-14.7H-102v14.4c0 12 23.6 12.9 23.6.3zM49.4-64.4c1.6 0 2.7-.7 2.7-2.8v-37.6l.1-64.3c0-7.1-1.6-19.3-4.5-27.4-1.8-5-3.9-10.8-8.8-13.3-37.6-19.4-105-19.4-139.4.3a23 23 0 0 0-11.1 13.3 123.8 123.8 0 0 0-4.5 27v102c0 1.5 1.5 2.8 3.4 2.8H49.4zM-70.1-210.7c0-1.4 1.1-2.6 2.6-2.6H2.8c1.5 0 2.6 1.2 2.6 2.6v6.6c0 1.5-1.1 2.7-2.6 2.7h-70.3a2.7 2.7 0 0 1-2.6-2.7v-6.6zM-90.4-92.4a12.3 12.3 0 1 1 0-24.6 12.3 12.3 0 0 1 0 24.6zm116.8 0a12.3 12.3 0 1 1 0-24.6 12.3 12.3 0 0 1 0 24.6zm8.4-36.2h-135.7c-1.4 0-2.8-2.3-2.8-3.5l3.5-57.7c0-2 2.2-4.9 4.9-4.9H31.3c1.2 0 4.2 3 4.2 6.3l4.2 55.6c0 2-2.5 4.2-4.9 4.2z"/><path d="M-3.7-146.5c-8.7 0-15.9 6-17.8 14H14c-2-8-9.2-14-17.7-14zM210.8 119.8l-5.4 2.7c.2-1 .3-2.4.3-4V75c0-3 .5-6.8 2-10.8L221 30.7c1.5-3.8 2.6-7 2.4-9.5l-80-34.8c-6.7-2.9-8.3-2.6-14.5 0L50 20.8c-.3 2.4.8 5.6 2.1 9.5 3.7 10.7 9.7 27.6 11.8 34 1.4 4.1 2.6 6.3 2.6 11V122c0 .7 0 1.3.2 2-2.8-.6-5.7-1.8-9.2-4-14.7-9-27.2-9-41.8 0l9.3 15c9-5.6 14.2-5.6 23.4 0a39 39 0 0 0 20.5 6.6c6.8 0 13.6-2.2 21-6.7 8.9-5.4 14.1-5.4 23.4 0 14.8 8.8 26.4 8.8 41.2.2 9.8-5.7 14-5.7 23.8 0 15 8.6 25.8 8.6 41.1 0 10.2-5.8 13.7-5.8 23.8 0l8.6-15.3c-15.3-8.7-25.6-8.7-41 0z"/><path d="M127.9-27.3h-24c-3 0-5.3-2.3-5.3-5.3v-4.9c0-2.9 2.3-5.3 5.2-5.3h64.7c3 0 5.3 2.4 5.3 5.3v5c0 2.9-2.4 5.2-5.3 5.2h-24.3l3.3 1.3L203-1.8v-24.6c0-2.4-1.6-3.6-3.7-3.6H187c-2.5 0-3.6-1.5-3.6-3.6v-12.5c0-2.5-1.7-3.7-3.8-3.7H160c-2.2 0-3.6-1.3-3.6-3.5v-16.2c0-2.8-1.2-3.7-3.6-3.7h-33.2c-2.4 0-3.6 1.3-3.6 3.7v16.1c0 2.6-1.5 3.6-3.6 3.6H92.5c-2.8 0-3.6.8-3.6 3.6v12.6c0 3-.5 3.7-3.8 3.7H72.7c-2.7 0-3.6 1-3.6 3.6v24.5A77987.4 77987.4 0 0 1 128-27.3z"/></g></g></switch></svg>