<svg xmlns="http://www.w3.org/2000/svg" width="512" height="512" viewBox="-247 -247 512 512" xml:space="preserve"><switch><g fill="#F59E00"><path d="M111.6-177.4 37.3 265h16l7.8-47.3h80.7l.2 47.3h15.6l-.2-47.3h80.5l8.5 47.3h12.9l-71.8-442.4a7.7 7.7 0 0 0-3.7-14.6H157.4v-15.3a7.8 7.8 0 0 0-15.6 0v15.3H123l-1-.4c-1.4-.2-2.7 0-3.9.4h-3a7.8 7.8 0 0 0-7.8 7.8c0 3 1.7 5.5 4.2 6.8zM233.5 191l-72-61 54-45.4 18 106.4zM192.7-52l16.2 97-49-58.1L192.6-52zm-8.4-50.3L159-140.5l15-22.8 10.3 61zm-26.9-74h6.5l-6.5 9.8v-9.8zm0 61.8 25 37.6h-25v-37.6zm0 53.3H180l-22.6 26.7v-26.7zm0 69.4 46 54.4h-46V8.2zm0 70h41.4l-41.4 34.9V78.2zm0 69 64.9 54.8h-64.9v-54.9zM106.4-52l32.9 38.9L90.1 45l16.3-97zm-23 136.6 53.8 45.5-71.4 60L83.5 84.7zM141.9 202H76l65.8-55.3V202zm0-88.6-41.6-35.2h41.6v35.2zm0-50.8h-46l46-54.4v54.4zm0-97L119-61.3h22.7v26.7zm0-42.5h-25l25-37.6V-77zm0-99.4v9.7l-6.5-9.7h6.5zm-16.7 13 15 22.8-25.3 38.3 10.3-61.2zM-227.8-46.5h4.5a8.3 8.3 0 0 0-1.1 4c0 4.8 4 8.5 10.6 10.3-6.7 2-10.6 5.5-10.6 10.4 0 8.2 10.9 12.5 21.7 12.5 10.7 0 21.7-4.3 21.7-12.5 0-4.9-4-8.5-10.7-10.4C-185-34-181-37.7-181-42.5c0-1.5-.5-2.8-1.2-4h19.6L-192 265h15.7l6.6-72.4H-9.8L-3 265h15.7L-17-46.5h22c-.3 1-.6 2-.6 3 0 4.6 3.7 8.2 9.9 10.1-6.2 2-9.9 5.5-9.9 10.2 0 8.2 11 12.5 21.7 12.5C37-10.7 48-15 48-23.2c0-4.7-3.7-8.2-9.8-10.2 6.1-1.9 9.8-5.5 9.8-10.1 0-1-.2-2-.6-3h4.1a7.8 7.8 0 0 0 7-11.3l-47.2-96a7.8 7.8 0 0 0-7-4.4h-184.5c-3 0-5.7 1.7-7 4.4l-47.5 96c-1.2 2.4-1 5.3.4 7.6s4 3.7 6.6 3.7zm59.6 223.4 5.2-54.5 54.7 54.5h-60zM-43-25.9l-46.9 46.7-47.1-46.7h94zm-63.7-36.3L-131.4-87h83.2L-73-62.2h-33.7zm16.8 155.9-53.5-53.4h106.8l-53.3 53.4zm66.3-44.3 4.6 47.7h-52.2l47.6-47.7zm-85 47.7h-52.1l4.5-47.4 47.6 47.4zm-42 15.7h121.1l-60.4 60.5-60.7-60.5zm134 9.2 5.2 55h-60l54.8-55zM-.7-142.5 39-62.2h-57.3l-7.6-80.3H-.7zM-25.8 24.7h-45.7L-29.8-17l4 41.6zm-6.3-66.2h-39.3l5-5h33.8l.5 5zm-2-20.7h-16.7l15.3-15.3 1.4 15.3zm-3.8-40.4h-33.5l30.5-30.8 3 30.8zm-16-40-35.9 36.2-36.2-36.1h72.2zm-84.8 9.5 30.6 30.5h-33.5l3-30.5zm-5.3 55.6 15.3 15.3h-16.7l1.4-15.3zm-3 31h33.9l5 5h-39.3l.5-5zm39 71.2h-45.7l4-41.3 41.6 41.3zm-67.5-167.2h22l-7.7 80.3h-54l39.7-80.3z"/></g></switch></svg>