<?xml version="1.0" encoding="UTF-8" standalone="no"?>
<svg
   viewBox="0 0 72 96"
   version="1.1"
   id="svg4"
   sodipodi:docname="atom.svg"
   xml:space="preserve"
   inkscape:version="1.3 (0e150ed6c4, 2023-07-21)"
   xmlns:inkscape="http://www.inkscape.org/namespaces/inkscape"
   xmlns:sodipodi="http://sodipodi.sourceforge.net/DTD/sodipodi-0.dtd"
   xmlns="http://www.w3.org/2000/svg"
   xmlns:svg="http://www.w3.org/2000/svg"><defs
     id="defs4" /><sodipodi:namedview
     id="namedview4"
     pagecolor="#ffffff"
     bordercolor="#666666"
     borderopacity="1.0"
     inkscape:showpageshadow="2"
     inkscape:pageopacity="0.0"
     inkscape:pagecheckerboard="0"
     inkscape:deskcolor="#d1d1d1"
     inkscape:zoom="5.12"
     inkscape:cx="9.4726562"
     inkscape:cy="52.34375"
     inkscape:window-width="1718"
     inkscape:window-height="1078"
     inkscape:window-x="82"
     inkscape:window-y="92"
     inkscape:window-maximized="0"
     inkscape:current-layer="svg4"
     showguides="true"><sodipodi:guide
       position="5.7478621,23.347024"
       orientation="1,0"
       id="guide4"
       inkscape:locked="false" /><sodipodi:guide
       position="5.6900931,117.29721"
       orientation="0.70710678,-0.70710678"
       id="guide2"
       inkscape:locked="false" /></sodipodi:namedview><style
     id="style1">.st0{fill:#999}</style><path
     class="st0"
     d="M0 2v92c0 1.1.9 2 2 2h68c1.1 0 2-.9 2-2V28H50c-1.1 0-2-.9-2-2V0H2C.9 0 0 .9 0 2z"
     id="path1"
     style="fill:#e9a92f;fill-opacity:1" /><rect
     style="fill:#ffffff;fill-opacity:1;stroke:none;stroke-opacity:1"
     id="rect4"
     width="60.237595"
     height="49.54657"
     x="5.8812027"
     y="40.809822" /><path
     class="st0"
     d="M71.9 24c-.1-.4-.2-.7-.4-1L52 1.2V24h19.9z"
     id="path2"
     style="fill:#e9a92f;fill-opacity:1" /><text
     xml:space="preserve"
     style="font-style:normal;font-variant:normal;font-weight:normal;font-stretch:normal;font-size:13.3333px;line-height:0.9;font-family:'Lucida Sans';-inkscape-font-specification:'Lucida Sans';letter-spacing:0px;word-spacing:0px;stroke-width:0.626177"
     x="5.7896199"
     y="17.796076"
     id="text4"><tspan
       sodipodi:role="line"
       x="5.7896199"
       y="17.796076"
       style="font-style:normal;font-variant:normal;font-weight:bold;font-stretch:normal;font-size:13.3333px;line-height:0.9;font-family:'Open Sans';-inkscape-font-specification:'Open Sans Bold';fill:#ffffff;fill-opacity:1;stroke:none;stroke-width:0.626177;stroke-opacity:1"
       id="tspan4">ATOM</tspan></text><g
     style="fill:#000000"
     id="g5"
     transform="matrix(1.3574102,0,0,1.3574102,19.485748,47.77685)"><g
       id="g3">&#10;	<g
   id="c40_rss">&#10;		<path
   d="M 3.607,17.11 C 1.618,17.11 0,18.726 0,20.717 c 0,1.984 1.618,3.604 3.607,3.604 1.989,0 3.607,-1.619 3.607,-3.604 0,-1.991 -1.618,-3.607 -3.607,-3.607 z"
   id="path1-9"
   style="fill:#e9a92f;fill-opacity:1" />&#10;		<path
   d="M 0.375,7.951 C 0.169,7.951 0,8.12 0,8.328 v 4.578 c 0,0.206 0.169,0.374 0.375,0.374 5.879,0 10.665,4.784 10.665,10.665 0,0.205 0.166,0.375 0.375,0.375 h 4.581 0.016 c 0.209,0 0.377,-0.17 0.377,-0.375 L 16.371,23.828 C 16.305,15.064 9.152,7.951 0.375,7.951 Z"
   id="path2-3"
   style="fill:#e9a92f;fill-opacity:1" />&#10;		<path
   d="M 24.311,23.828 C 24.246,10.681 13.531,0.01 0.375,0.01 0.169,0.01 0,0.179 0,0.387 v 4.711 c 0,0.207 0.169,0.375 0.375,0.375 10.186,0 18.472,8.287 18.472,18.473 0,0.205 0.168,0.375 0.373,0.375 h 4.713 0.02 c 0.205,0 0.379,-0.17 0.379,-0.375 z"
   id="path3"
   style="fill:#e9a92f;fill-opacity:1" />&#10;	</g>&#10;	<g
   id="Capa_1_3_">&#10;	</g>&#10;</g></g></svg>
