<svg viewBox="0 0 72 96" version="1.1" id="svg4" xml:space="preserve" xmlns="http://www.w3.org/2000/svg"><style id="style1">.st0{fill:#999}</style><path class="st0" d="M0 2v92c0 1.1.9 2 2 2h68a2 2 0 0 0 2-2V28H50a2 2 0 0 1-2-2V0H2a2 2 0 0 0-2 2z" id="path1" style="fill:#ed7824;fill-opacity:1"/><path style="fill:#fff;fill-opacity:1;stroke:none;stroke-opacity:1" id="rect4" d="M5.9 40.8h60.2v49.5H5.9z"/><path class="st0" d="M71.9 24a3 3 0 0 0-.4-1L52 1.2V24h19.9z" id="path2" style="fill:#ed7824;fill-opacity:1"/><text xml:space="preserve" style="font-style:normal;font-variant:normal;font-weight:400;font-stretch:normal;font-size:9.33333px;line-height:.9;font-family:'Lucida Sans';-inkscape-font-specification:'Lucida Sans';letter-spacing:0;word-spacing:0;stroke-width:.626177" x="5.2" y="11.8" id="text4"><tspan x="5.2" y="11.8" style="font-style:normal;font-variant:normal;font-weight:700;font-stretch:normal;font-size:9.33333px;line-height:.9;font-family:'Open Sans';-inkscape-font-specification:'Open Sans Bold';fill:#fff;fill-opacity:1;stroke:none;stroke-width:.626177;stroke-opacity:1" id="tspan1">DUBLIN</tspan><tspan x="5.2" y="20.5" style="font-style:normal;font-variant:normal;font-weight:700;font-stretch:normal;font-size:9.33333px;line-height:.9;font-family:'Open Sans';-inkscape-font-specification:'Open Sans Bold';fill:#fff;fill-opacity:1;stroke:none;stroke-width:.626177;stroke-opacity:1" id="tspan4">CORE</tspan></text><path style="fill:#ed7824;fill-opacity:1;stroke:#ed7824;stroke-width:.288671;stroke-linecap:square;stroke-linejoin:round;stroke-dasharray:none;stroke-opacity:1;paint-order:markers fill stroke" d="M32.2 81.8c-.4-.2-.7-.6-.8-1.2v-.7l.1-.2c0-.2.3-.5.6-.7.2-.1.4-.2.9-.2.6 0 .7 0 1 .3.4.3.5.6.5 1.3 0 .6-.2 1-.6 1.3-.3.2-1.3.2-1.7 0zm.7-.1c0-.1-.2-.2-.2 0 0 0 0 0 0 0h.2zm1.1-.4v-.1h-.1v.2l.1-.1zm-2.2-1s0-.2-.2-.2l-.1.2.1.3c.1 0 .2-.1.2-.3zm2-1.1-.2-.1s0 0 0 0l.1.1s0 0 0 0zm4.7 2.6c-.4-.1-.8-.6-.9-1.1 0-.7 0-1 .5-1.5l.3-.4h.7c.5 0 .7 0 1 .2.5.3.6.6.6 1.3 0 .7-.1 1-.6 1.4-.3.2-1.2.2-1.6 0zm-.2-.5L38 81v.3l.2-.1zm2.3-1-.1-.2-.1.2.1.3.1-.3zm-.2-.7-.2-.2c-.1 0-.1 0 0 .1 0 .2.2.2.2.1zm-.6-.5s0 0 0 0c0-.1-.1 0-.1 0s0 0 0 0h.1zm4.4.2c-.6-.2-.8-.5-1-1-.1-.9.2-1.7 1-2 .3-.1 1.2 0 1.5.2.5.3.6.7.6 1.3 0 .8-.2 1.1-.8 1.5-.6.2-.7.3-1.3 0zm.7-.1-.1-.1c-.2 0-.3 0-.2.2l.3-.1zm-.5-.1-.2-.1s0 0 0 0l.1.2s.1 0 0-.1zm1.2-.1.3-.3c0-.2 0-.1-.3 0l-.4.4.4-.1zm-1.8-.4-.2-.1.1.2h.1zm.7-2v-.2l-.2.1.1.1h.1zm-17.9 2.7c-.5-.3-.8-.7-.8-1.5 0-.6.2-1 .7-1.3.3-.3 1.3-.4 1.5-.2l.2.1.6.7v.1c.2 0 .1 1 0 1.5l-.7.5c-.5.3-1 .3-1.5 0zm1-.1-.3-.1c-.2 0-.3 0-.1.2l.3-.1zm-.7-.1-.4-.3c-.2-.2-.3-.3-.3-.1l.3.3c.3.2.6.2.4 0zm1.7-.6s0 0 0 0h-.2l.1.1h.1zm-.8-2-.2-.1.1.2h.1zm5.6.4c-.6-.2-1-.8-1-1.5s.4-1.3 1-1.5l1-.1.5.2c1 .5 1 2.2 0 2.8a2 2 0 0 1-1.5 0zm1-.2h-.6s0 0 0 0c0 .2.6.2.6 0zm-1.6-1.1v-.1c-.2 0-.3.1-.2.2l.2-.1zm2.7-.3c0-.3-.2-.3-.2 0v.4c.1 0 .3-.1.2-.4zm-2.7-.1V75c-.2 0-.3.2-.2.2.1.1.2.1.2 0zm2.4-.6c-.1-.3-.3-.4-.3-.3l.4.6v-.3zm-1.9-.4s0 0 0 0l-.2.1v.1c.1 0 .2 0 .2-.2zm.6-.1-.2-.1s0 0 0 0v.2l.2-.1zm3.5 2.7c-.6-.3-.8-.6-.8-1.4 0-.9.1-1 .8-1.5.6-.3 1.3-.2 1.9.3.5.5.5 1.9 0 2.4-.5.4-1.4.5-1.9.2zm1 0c0-.1-.1-.2-.3-.2l-.3.1c0 .1.1.2.3.2.2 0 .3 0 .3-.2zm.7-.4h-.2v.1h.2zm.5-.8-.2-.1s-.1 0 0 .2l.2-.1zm0-.4-.2-.2v.2s0 .1 0 0h.1zm-2.7-.4v-.1s0 0 0 0c-.1.1-.1.2 0 .2v-.1zm2.4-.2h-.1l.1.2v-.2zm-2.2 0v-.2l-.1.1s0 0 0 0h.1zm1.9-.3-.2-.1s0 .2.2.2v-.1zm-.5-.2-.1-.1h-.1v.2l.2-.1zm-8.7 1.1a2 2 0 0 1-.7-.4c-.2-.3-.3-.4-.3-.9 0-.7.1-1.1.6-1.5.2-.2.4-.2 1-.2s.9.1 1.3.6l.2.9-.1.8c-.2.3-.5.6-.8.7l-.3.1h-1zm.7-.1c0-.2-.1-.2-.3-.2-.2.1-.1.3.1.3l.2-.1zm-1.3-.7s0 0 0 0H29l.1.1h.1zm2-1.8c-.1-.2-.3-.2-.3 0h.2zm-.8-.2c0-.1-.2-.1-.2 0 0 0 0 0 0 0h.2zm10.8 2.8c-.4-.1-.7-.4-.8-.8a3 3 0 0 1 0-1.5l.5-.5c.2-.2.4-.2 1-.2.5 0 .6 0 .9.2.5.4.6.7.5 1.5 0 .6 0 .6-.4 1l-.5.3-.2.1h-1zm.8-.1c0-.2-.1-.2-.3-.2-.2.1-.1.3.1.3l.2-.1zm1-.7s0 0 0 0 0 0 0 0v.1s0 0 0 0zm-1-2-.2-.1h-.1l.1.2c.1 0 .2 0 .1-.1zm-19.7 2.2c-.4-.3-.6-.8-.6-1.4 0-.6.1-1 .5-1.2.3-.2.4-.3 1-.3s.7 0 1 .2c.4.3.6.7.6 1.3 0 .7-.2 1-.7 1.4-.4.2-1.4.2-1.8 0zm1.5 0-.1-.2-.1.1s0 0 0 0h.2zm.4-.4c.2-.1.4-.5.3-.5l-.3.3c-.3.4-.3.6 0 .2zm-1.8 0s-.1-.1-.2 0c-.1 0 0 .1 0 .1h.2zm-.5-.6s0 0 0 0l.1.2v-.2zm2.8-.4h-.1s-.1 0 0 0v.1c.1 0 .1 0 0-.1zm-2.7-.3v-.1h-.2l.1.1h.1zm2.4-.5h-.2s0 0 0 0h.1s0 0 0 0zM48 74.6c-.4-.3-.6-.7-.6-1.4 0-.6.1-1 .5-1.3.3-.1.4-.2 1-.2s.8 0 1 .3c.4.2.6.6.6 1.2s-.3 1.1-.7 1.4c-.4.3-1.4.2-1.8 0zm.5 0v-.2l-.1.1s0 0 0 0h.1zM48 74c-.4-.4-.5-.4-.3 0 .1.2.3.4.5.4L48 74zm2 .2s-.1-.1-.1 0h-.1v.1l.1-.1zm.3-.5s0 0 0 0H50v.1h.2zm-2.6-.5-.1-.1c-.1 0-.2.1-.1.2 0 .1.2 0 .2 0zm2.6-.4s0 0 0 0H50l.1.1s0 0 0 0zm-2.3-.4H47.7 48zm-13.5.5a7 7 0 0 1-5-3.8c-.7-1.5-.9-3.6-.4-5.2a7 7 0 0 1 5-5c1.7-.5 3.8-.3 5.2.4a7 7 0 0 1 3.8 5c.2.7.2 2.4 0 3a7 7 0 0 1-5.5 5.6h-3.1zm3.4-.8c.6-.3 2-1.2 2.5-1.7a6.1 6.1 0 0 0 1.4-7.3c-1-1.9-2.3-3-4-3.6h-3.3a7 7 0 0 0-3.4 2.4c-1.1 1.6-1.4 2.4-1.4 4 0 1.3.2 2.2.8 3 .6 1.1 2.2 2.5 3.2 3 .8.2 1.1.3 2.6.3l1.6-.1zm3-1-.2-.1s0 0 0 0v.2l.1-.1zm-10-.6-.1-.1s0 0 0 0v.2-.1zm10.5 0v-.1h-.2v.2l.2-.1zM30.2 62H30s0 0 0 0v.1s0 0 0 0zm10.6-1.5v-.1h-.2l.1.1h.1zM26.6 72c-.4-.3-.5-.7-.5-1.3 0-1 .5-1.6 1.5-1.6s1.5.6 1.5 1.6c0 .6 0 1-.5 1.3-.2.1-.3.2-1 .2-.6 0-.7 0-1-.2zm0-.4s-.2-.3-.3-.2l.3.3s0 0 0 0zm2.2 0-.1-.2-.1.1v.1h.2zm-2.4-1.3v-.1h-.2l.1.2.1-.1zm2.3-.6-.2-.1-.1.1c0 .2.3.2.3 0zm-1.5-.2v-.2l-.2.2h-.1.3zM43.6 72c-.4-.3-.6-.7-.6-1.3 0-1 .5-1.6 1.6-1.5 1 0 1.5.5 1.5 1.5s-.5 1.5-1.6 1.5c-.5 0-.7 0-.9-.2zm0-.5-.2-.2h-.1v.2c.1.1.2.1.2 0zm2.2 0v-.1l-.2.1s0 .1 0 0h.2zm.1-1.2v-.1h-.2l.1.2.1-.1zm-2.2-.6c.1-.1.1-.1 0-.1l-.2.1c0 .2 0 .2.2 0zm1.9 0h-.1c0-.1-.1 0-.1 0s0 0 0 0h.2zm-25.2-1c-.3-.2-.6-.5-.6-.7v-.2c-.1 0-.2-.2-.2-.5l.1-.3.1-.2c0-.3.5-.8.9-1 .4 0 1.2 0 1.6.3.4.3.5.6.5 1.2 0 .7 0 1-.5 1.3-.3.3-.4.3-1 .3-.5 0-.7 0-.9-.2zm1.7-.2s0 0 0 0h-.2v.1h.2zm-2-1.2c0-.2-.3-.2-.3 0v.3c.2 0 .4-.2.3-.3zm1-1.2V66c-.1 0-.1 0 0 0v.2-.1zm28.7 2.5c-.4-.3-.5-.6-.5-1.3 0-.5 0-.6.2-.9.4-.4.8-.6 1.5-.6.6 0 .8.2 1.2.7.1.2.2.3.2.9 0 .6 0 .7-.2 1-.4.4-.7.5-1.4.5-.6 0-.7 0-1-.3zm.5 0-.2-.2v.2h.2zm2-1.3-.1-.2c-.2 0-.2.2-.2.4.1.2.3 0 .3-.2zm-1.2-1.2V66H51v.2l.1-.1zm-25.4 2.2c-.5-.2-.7-.5-.9-1-.2-.8.2-1.6.8-1.9.5-.2 1.2-.2 1.6 0 .5.4.7.8.7 1.4 0 .8-.3 1.3-1 1.5-.4.2-.8.2-1.2 0zm.8 0-.1-.2-.2.1c0 .1 0 .2.2.2v-.2zm-.6-.2h-.1s0 0 0 0 0 0 0 0h.1zm1.6-.4h-.2s-.2.2-.1.3l.3-.3zm-2.1 0c0-.1-.2-.3-.3-.2 0 0 0 .2.2.2 0 0 0 0 0 0zm19.8.6a2 2 0 0 1-.5-.2c-.5-.4-.6-1.6-.3-2.1.4-.5.8-.7 1.3-.7.7 0 1.1.2 1.4.6.2.3.3.5.2 1 0 .7-.2 1-.7 1.3-.5.3-1 .3-1.4.1zm.8 0c0-.1 0-.2-.2-.2l-.2.1.2.2.2-.2zm-1-.4-.1-.2c-.2-.2-.3 0-.1.2 0 .1.2.1.2 0zm2-.3v-.1h-.1v.2l.1-.1zm-21-3.4c-.4-.2-.7-.6-.7-.9l-.1-.1c-.1 0-.1-.8 0-.8l.2-.4c.3-.5.7-.8 1.3-.8 1 0 1.6.5 1.6 1.5 0 .5 0 .7-.2 1l-.5.5c-.4.2-1.3.2-1.7 0zm2.2-1L28 63l-.1.2s0 0 0 0h.2zm-2.6-.3c0-.2-.1-.4-.3-.4v.3c0 .3.2.4.3.1zm.2-1s0 0 0 0h-.1v.1s0 0 0 0zm1.6-.3c-.2-.2-.3-.2-.2 0h.2c.2 0 .2 0 0 0zm17.1 2.6c-.4-.2-.7-.8-.7-1.4 0-.6.2-1 .6-1.3.3-.2.5-.3 1-.3.6 0 1 .2 1.3.6.2.3.2.4.2 1s-.2 1.1-.6 1.4c-.4.2-1.4.2-1.8 0zm.2-.3s-.1-.1-.2 0c0 0 0 .2.2.2s.2 0 0-.2zm-.6-.7V63l-.1.1v.2l.1-.1zm2.8-.4c0-.1 0-.2-.2-.2-.1 0-.2.1 0 .3 0 .2.2.1.2-.1zm-2-1.3c.1 0 0 0 0 0s0 0 0 0v.1s0 0 0 0zm-23.5 1.2c-.8-.2-1.2-1-1-2 .3-.7.7-1 1.5-1 .7 0 1 .2 1.4.6.2.3.2.5.2 1 0 .6-.2 1-.6 1.3-.4.2-1 .2-1.5.1zm1.9-1c0-.1-.1 0-.1 0-.2.2-.1.3 0 .1l.1-.2zm0-.9s0 0 0 0h-.1s0 0 0 0h.1zm-2-.6c0-.1.1-.2 0-.2l-.4.3.3-.1zm.9-.3c0-.1 0-.2-.2-.1-.4 0-.4.2 0 .2l.2-.1zm27.5 2.8c-.7-.1-1-.6-1-1.5 0-1 .7-1.7 1.9-1.5.5 0 1 .5 1.1 1.1.3 1.3-.7 2.3-2 2zm-.7-1c-.1-.2-.2-.2-.2-.1l.2.3v-.2zm0-.9h-.2s0 0 0 0h.2zm2.3-.5-.5-.3c-.1 0 .2.4.4.4v-.1zm-.9-.4c0-.2-.5-.2-.5 0l.3.1h.2zm-22.4.8c-.5-.3-.7-.6-.7-1.4 0-.7.1-1 .6-1.4.4-.2 1.4-.2 1.8 0 .5.3.7.7.6 1.4 0 .8-.2 1.1-.7 1.4-.4.2-1.2.1-1.6 0zm1.6-.2-.1-.1h-.1v.1h.2zm.2-2.2-.3-.2.2.2c.3.3.4.3.1 0zm-1.8 0v-.1h-.2v.1h.2zm14.5 2.4c-.4-.3-.6-.6-.7-1.2 0-.7.1-1.2.5-1.5.2-.2.4-.2 1-.3.5 0 .6 0 .9.2.5.3.6.6.6 1.4 0 .6 0 .7-.2 1l-.5.4c-.4.2-1.3.1-1.6 0zm.2-.2v-.1h-.1v.1h.1zm-.6-1.2L42 59c-.1 0-.2.4 0 .5l.1-.2zm-10.9-1c-.5-.3-.7-.9-.6-1.6 0-1 .5-1.3 1.5-1.3s1.5.4 1.5 1.5c0 .7-.2 1.1-.7 1.4a2 2 0 0 1-1.7 0zm2-.6.2-.3-.5.5c0 .2.2 0 .4-.2zM31 57h-.1s0 0 0 0v.1s0 0 0 0zm.4-1.3s0 0 0 0H31v.2l.2-.2zm8 2.5c-.6-.3-.8-.7-.8-1.4s.2-1 .6-1.3c.2-.2.4-.2 1-.2.7 0 1 .1 1.3.7.4.6.2 1.7-.3 2-.4.3-1.4.4-1.9.2zm1.5-.2V58h-.2l.1.2.1-.1zm-1.6-.2-.1-.2c-.1 0-.2.1 0 .2 0 .1.1.1.1 0zm2.2-.8s0 0 0 0h-.2l.1.1h.1zm-.5-1.4c-.3-.2-.4 0-.1.1.1.2.2.2.3.2 0-.1 0-.2-.2-.3zm-5.4 1.8c-.4-.1-.8-.5-.9-.8l-.1-.3V55.5c0-.3.5-.7.8-.9.3-.2 1.2-.2 1.5 0 .4.2.6.5.8 1v.9c-.3 1-1.2 1.4-2.1 1zm-.7-1.4v-.2c-.2 0-.2 0-.2.2l.1.1.1-.1zm2.7 0v-.2c-.1 0-.2 0-.2.2s.2.2.2 0zm-2-1.2c0-.1-.1-.2-.2 0 0 0-.1.1 0 .1h.1zm1.4 0h-.1s-.1 0 0 0v.1h.1zm-12.8 2.3c-.4-.3-.6-.6-.6-1.3 0-1 .4-1.4 1.3-1.6h.8c.7.4 1 .8 1 1.6 0 .5 0 .6-.2.9-.4.5-.6.6-1.3.6-.5 0-.6 0-1-.2zm0-.5-.3-.2s0 .3.2.3v-.1zm2.3-.4s0 0 0 0l-.2.1h.2zm-.6-1.6h-.1s0 0 0 0v.1s0 0 0 0zm-1.3 0v-.1h-.2v.1h.2zm.8-.2h-.5c0 .2.5.1.5 0zm21 2.8a2 2 0 0 1-.5-.5c-.2-.3-.2-.4-.2-.9v-.8c.2-.3.7-.7 1-.7 0 0 0 0 0 0l.5-.2.4.1h.2c.2 0 .7.6.8.8a3 3 0 0 1 0 1.6c-.3.6-1.5 1-2.1.6zm2-.7s0-.1 0 0H48v.1l.2-.1zm-1-2c0-.1 0-.2-.2-.2l-.2.1c0 .1 0 .2.2.1h.2zm-18-.9c-.3-.1-.6-.4-.8-1-.2-.4-.2-.5 0-.7 0-.1 0-.4.2-.5.2-.6.6-.8 1.3-.8 1 0 1.6.6 1.6 1.5 0 .8-.3 1.3-.9 1.5h-1.4zm0-.4s0 0 0 0h-.1v.1h.1zm-.5-.6h-.1c0 .1 0 .2.2.2l-.1-.2zm0-.5h-.2s-.1.1 0 .2c0 0 .2 0 .2-.2zm.4-1c-.1 0-.3.1-.3.3l.2-.1.1-.2zm12 2.4c-.4-.2-.7-.7-.7-1.4 0-.5.2-.8.6-1.2.3-.3.4-.3 1-.3 1 0 1.4.3 1.5 1.2.2.6 0 1.1-.4 1.5-.3.3-.3.3-1 .4-.5 0-.7 0-1-.2zm2.4-1.4h-.2v.2c.2 0 .2 0 .2-.2zm-.5-1c-.1-.2-.3-.2-.3 0 0 0 .4.4.5.3 0 0 0-.2-.2-.3zm-1.4-.2v-.1h-.1v.2l.1-.1zm-6.4 1.4c-.4-.2-.5-.4-.8-1.1l-.1-.3v-.4c.4-.7.5-.8.8-1l.4-.2h1l.2.2c.4 0 .8.5.8.8v.3c.2 0 .2.4 0 .6 0 0 0 .3-.2.5-.2.4-.7.8-1.3.8l-.8-.2zm1 0c0-.2-.5-.2-.5-.1h.5zm1-.6H37l-.1.2h.1l.2-.2zm-2.5-.8v-.2c-.2 0-.2 0-.2.2l.1.1.1-.1zm2.8 0-.2-.2-.1.2.1.1.2-.1zm-.5-1c-.2-.1-.3 0-.1.1.1.1.2.1.2 0V50zm-1.8 0v-.2l-.2.1v.1h.2zm1-.4c0-.1-.3-.2-.5 0 0 0 0 0 0 0 0 .2.6.1.6 0z" id="path5"/></svg>