<?xml version="1.0" encoding="UTF-8" standalone="no"?>
<svg
   viewBox="0 0 72 96"
   version="1.1"
   id="svg4"
   sodipodi:docname="fdgc.svg"
   xml:space="preserve"
   inkscape:version="1.3 (0e150ed6c4, 2023-07-21)"
   xmlns:inkscape="http://www.inkscape.org/namespaces/inkscape"
   xmlns:sodipodi="http://sodipodi.sourceforge.net/DTD/sodipodi-0.dtd"
   xmlns="http://www.w3.org/2000/svg"
   xmlns:svg="http://www.w3.org/2000/svg"><defs
     id="defs4" /><sodipodi:namedview
     id="namedview4"
     pagecolor="#ffffff"
     bordercolor="#666666"
     borderopacity="1.0"
     inkscape:showpageshadow="2"
     inkscape:pageopacity="0.0"
     inkscape:pagecheckerboard="0"
     inkscape:deskcolor="#d1d1d1"
     inkscape:zoom="4.3494433"
     inkscape:cx="12.760254"
     inkscape:cy="34.257258"
     inkscape:window-width="1718"
     inkscape:window-height="1078"
     inkscape:window-x="174"
     inkscape:window-y="109"
     inkscape:window-maximized="0"
     inkscape:current-layer="svg4"
     showguides="true"><sodipodi:guide
       position="5.7478621,23.347024"
       orientation="1,0"
       id="guide4"
       inkscape:locked="false" /></sodipodi:namedview><style
     id="style1">.st0{fill:#999}</style><path
     class="st0"
     d="M0 2v92c0 1.1.9 2 2 2h68c1.1 0 2-.9 2-2V28H50c-1.1 0-2-.9-2-2V0H2C.9 0 0 .9 0 2z"
     id="path1"
     style="fill:#416690;fill-opacity:1" /><rect
     style="fill:#ffffff;fill-opacity:1;stroke:none;stroke-opacity:1"
     id="rect4"
     width="60.237595"
     height="49.54657"
     x="5.8812027"
     y="40.809822" /><path
     class="st0"
     d="M71.9 24c-.1-.4-.2-.7-.4-1L52 1.2V24h19.9z"
     id="path2"
     style="fill:#416690;fill-opacity:1" /><text
     xml:space="preserve"
     style="font-style:normal;font-variant:normal;font-weight:normal;font-stretch:normal;font-size:14.6667px;line-height:1.25;font-family:'Lucida Sans';-inkscape-font-specification:'Lucida Sans';letter-spacing:0px;word-spacing:0px;stroke-width:0.626177"
     x="5.4203258"
     y="19.310097"
     id="text4"><tspan
       sodipodi:role="line"
       id="tspan4"
       x="5.4203258"
       y="19.310097"
       style="font-style:normal;font-variant:normal;font-weight:bold;font-stretch:normal;font-size:14.6667px;font-family:'Open Sans';-inkscape-font-specification:'Open Sans Bold';fill:#ffffff;fill-opacity:1;stroke:none;stroke-width:0.626177;stroke-opacity:1">FDGC</tspan></text><g
     style="mix-blend-mode:hard-light;fill:#213348;fill-opacity:1;stroke:none"
     id="g1"
     transform="matrix(1.472754,0,0,1.472754,19.49435,42.041871)"><path
       d="m 19.066837,8.094 c 2.063,2.063 3.344,4.875 3.344,7.906 0,3.063 -1.281,5.813 -3.344,7.875 -2.063,2.062 -4.844,3.313 -7.875,3.313 -3.0630004,0 -5.8130004,-1.25 -7.8750004,-3.313 -2.062,-2.063 -3.31300006,-4.813 -3.31300006,-7.875 0,-3.031 1.25000006,-5.844 3.31300006,-7.906 2.063,-2.062 4.813,-3.313 7.8750004,-3.313 3.031,0 5.813,1.25 7.875,3.313 z m -6.594,14.219 h 0.063 c 0.094,0 0.188,0.031 0.25,0.125 0.063,0.063 0.125,0.125 0.25,0.125 0.031,0 0.063,-0.031 0.063,-0.094 0,-0.125 0.031,-0.25 0.031,-0.281 0.031,-0.094 0.094,-0.094 0.156,-0.094 0.031,0 0.031,0 0.031,-0.063 l -0.063,-0.063 c -0.031,0 -0.063,0.031 -0.063,0.063 -0.031,0.031 -0.063,0.063 -0.094,0 l -0.188,0.125 -0.219,-0.063 -0.375,-0.563 0.125,-0.813 c 0,-0.031 -0.031,-0.094 -0.125,-0.125 -0.094,-0.031 -0.094,-0.094 -0.063,-0.125 -0.125,-0.063 -0.281,-0.125 -0.469,-0.125 -0.031,0 -0.125,0.031 -0.281,0.063 -0.156,0 -0.25,0 -0.25,-0.063 0,-0.094 0.094,-0.281 0.156,-0.5 0.031,-0.094 0.063,-0.25 0.094,-0.313 0,-0.063 0.031,-0.125 0.031,-0.125 l 0.156,-0.375 -0.031,-0.063 -0.219,-0.031 c -0.063,0 -0.281,0.125 -0.438,0.25 -0.156,0.188 -0.281,0.344 -0.281,0.469 l -0.625,0.125 c -0.1250004,0 -0.2500004,-0.031 -0.3440004,-0.156 -0.031,-0.156 -0.125,-0.344 -0.25,-0.531 -0.125,-0.156 -0.156,-0.313 -0.156,-0.469 0,-0.188 0.031,-0.438 0.094,-0.594 0.063,-0.188 0.063,-0.406 -0.063,-0.594 0.031,0 0.125,-0.063 0.063,-0.125 l 0.156,-0.188 0.031,-0.031 0.031,0.031 c 0.125,-0.094 0.3440004,-0.125 0.5310004,-0.094 0.219,0.031 0.344,-0.063 0.406,-0.219 l 0.219,0.219 c 0.063,0.031 0.188,-0.188 0.188,-0.25 l -0.094,-0.063 0.563,-0.125 0.031,0.063 h 0.25 l 0.313,0.188 c 0.031,0 0.063,-0.031 0.094,-0.063 0.063,-0.063 0.094,-0.063 0.125,-0.031 l 0.281,0.313 c -0.031,0.063 -0.031,0.125 -0.031,0.188 0.031,0.031 0.063,0.063 0.063,0.094 0,0.125 0.281,0.688 0.438,0.688 0.094,0 0.125,-0.063 0.094,-0.188 v -0.25 c 0,-0.156 -0.031,-0.344 -0.094,-0.531 -0.094,-0.156 -0.156,-0.375 -0.219,-0.563 v -0.063 c 0,-0.094 0.063,-0.188 0.188,-0.25 0.094,-0.063 0.156,-0.125 0.156,-0.125 0.094,-0.063 0.188,-0.156 0.313,-0.219 0.094,-0.063 0.188,-0.219 0.25,-0.313 l 0.094,-0.219 v -0.125 h 0.094 c 0,0 0.063,-0.031 0.063,-0.094 0,0 -0.031,-0.031 -0.063,-0.031 -0.031,-0.031 -0.125,-0.094 -0.188,-0.156 l 0.063,-0.063 c 0.094,-0.094 0.125,-0.313 0.063,-0.406 l 0.25,-0.125 c -0.063,0.125 0.125,0.156 0.188,0.125 l 0.125,-0.281 c -0.063,-0.156 -0.094,0 0,-0.188 0.094,-0.031 0.188,-0.063 0.281,-0.125 0.094,-0.031 0.156,-0.063 0.25,-0.063 0.031,0 0.063,0.031 0.063,0.031 0.063,0 0.094,-0.031 0.094,-0.031 0,-0.094 -0.031,-0.156 -0.063,-0.156 l 0.156,-0.344 c 0.125,0 0.25,-0.063 0.313,-0.188 l 0.25,-0.031 c 0.063,0 0.094,-0.031 0.094,-0.094 v -0.063 l 0.469,-0.125 0.063,-0.156 -0.125,-0.188 c 0,0 0.031,-0.031 0.031,-0.063 0,-0.032 -0.031,-0.063 -0.063,-0.094 -0.031,0 -0.063,-0.031 -0.094,-0.031 -0.031,-0.031 -0.063,-0.063 -0.094,-0.063 h 0.25 c 0,0 0.125,-0.031 0.125,-0.125 0,-0.125 -0.063,-0.156 -0.188,-0.156 -0.344,0 -0.875,0.125 -1.063,0.5 l -0.188,0.094 0.25,-0.25 0.031,-0.063 c 0,-0.031 -0.031,-0.063 -0.094,-0.094 h -0.094 c 0.313,0 0.5,-0.094 0.625,-0.188 0.094,-0.094 0.188,-0.188 0.406,-0.25 0.219,0.031 0.438,0.031 0.656,0.031 0.188,-0.031 0.375,-0.031 0.594,-0.031 0.094,-0.063 0.219,-0.188 0.281,-0.313 l 0.313,-0.031 c 0.063,0.063 0.281,-0.094 0.281,-0.188 0,-0.094 -0.031,-0.125 -0.125,-0.156 -0.094,-0.031 -0.188,-0.094 -0.188,-0.188 v -0.094 c 0.031,-0.031 0,-0.063 -0.031,-0.063 -0.125,0 -0.438,0.156 -0.531,0.219 -0.063,0.063 -0.094,-0.031 -0.094,-0.094 l 0.031,0.031 0.125,-0.063 0.313,-0.125 0.031,-0.031 c 0,-0.125 -0.188,-0.156 -0.25,-0.156 -0.031,0 -0.094,0.031 -0.156,0.063 -0.063,0 -0.125,0 -0.125,-0.063 l 0.031,-0.063 c -0.219,-0.156 -0.406,-0.469 -0.406,-0.563 V 9.646 c 0.031,-0.031 0,-0.031 -0.063,-0.031 h -0.094 c -0.031,0.031 -0.063,0 -0.063,-0.063 0,-0.063 -0.125,-0.406 -0.281,-0.406 l -0.094,0.094 c 0,0.063 -0.031,0.094 -0.094,0.125 -0.063,0.031 -0.094,0.063 -0.094,0.094 h -0.031 l -0.313,0.188 c 0,-0.063 -0.031,-0.063 -0.063,-0.031 -0.031,0 -0.031,0.031 -0.094,0.031 h -0.063 c 0.156,0 0.125,-0.219 0,-0.219 l -0.25,0.031 c -0.063,0 -0.063,0 0,-0.063 0.031,-0.063 0.094,-0.125 0.031,-0.188 0,-0.063 -0.031,-0.063 -0.063,-0.031 l 0.063,-0.094 c 0.063,-0.031 -0.031,-0.156 -0.094,-0.219 l -0.281,-0.031 -0.188,-0.188 c -0.031,0.031 -0.063,0 -0.125,-0.031 -0.031,-0.031 -0.094,-0.094 -0.125,-0.094 l -0.219,0.094 -0.563,-0.125 c -0.063,0 -0.156,0.031 -0.156,0.125 0,0.031 0,0.063 0.031,0.063 0.063,0.031 0.063,0.063 0.063,0.094 0,0.031 0.031,0.156 0.063,0.313 0,0.156 0,0.219 -0.094,0.188 l -0.125,0.188 c 0,0.063 0.063,0.094 0.094,0.094 0.094,0.063 0.188,0.156 0.25,0.25 0.063,0.063 0.063,0.156 0.031,0.25 l -0.594,0.469 v 0.031 c 0,0.094 0,0.156 0.031,0.219 0.063,0.063 0.063,0.156 0.125,0.25 0.156,0.063 0.156,0.125 0.031,0.188 -0.063,0 -0.125,0.031 -0.188,0.063 l -0.063,0.063 c 0,0.031 -0.031,0.031 -0.063,0.031 h -0.156 c 0,0 0,-0.031 0.031,-0.031 0,0 0.031,-0.031 0.031,-0.063 l -0.281,-0.156 -0.125,-0.219 c 0.031,-0.094 0.031,-0.156 0,-0.188 -0.031,-0.032 -0.031,-0.094 -0.031,-0.156 0,-0.062 -0.063,-0.219 -0.188,-0.219 -0.156,0 -0.281,0.031 -0.438,0.063 0.063,-0.031 -0.063,-0.188 -0.094,-0.188 -0.156,0 -0.344,-0.063 -0.563,-0.188 -0.219,-0.125 -0.375,-0.188 -0.5,-0.188 -0.094,0 -0.281,0.031 -0.406,0.094 0.063,-0.031 0.063,-0.063 0.094,-0.156 l -0.188,-0.313 -0.031,-0.031 c -0.063,0 -0.125,0.031 -0.188,0.094 -0.063,0.031 -0.1560004,0 -0.1560004,-0.125 0,-0.031 0.031,-0.063 0.031,-0.063 0.031,-0.031 0.031,-0.031 0,-0.063 0,-0.094 0.031,-0.188 0.1250004,-0.281 0.063,-0.063 0.094,-0.188 0.125,-0.281 0.063,-0.031 0.063,-0.063 0.063,-0.094 0,-0.063 0.031,-0.063 0.063,-0.063 0.063,0 0.156,-0.031 0.219,-0.063 0.063,-0.063 0.125,-0.094 0.219,-0.094 l 0.031,-0.094 c 0,-0.031 -0.094,-0.063 -0.281,-0.094 -0.219,-0.031 -0.313,-0.031 -0.313,-0.094 l 0.031,-0.031 c 0.188,0.063 0.344,0.094 0.438,0.094 0.188,0.031 0.281,-0.031 0.469,-0.125 0.063,-0.031 0.25,-0.094 0.406,-0.188 0,-0.031 -0.031,-0.031 -0.125,-0.063 h 0.125 l 0.219,-0.125 V 7.551 l -0.063,-0.063 0.313,-0.063 c -0.031,-0.063 0.031,-0.094 0.063,-0.094 0.063,0 0.125,0.031 0.188,0.094 0.063,0.063 0.094,0.063 0.125,0.063 l 0.281,-0.094 c 0,-0.031 0.031,-0.031 0.094,-0.031 0.063,-0.031 0.094,-0.063 0.063,-0.094 l -0.219,-0.219 c -0.063,0 -0.094,-0.094 -0.031,-0.094 0.094,0 0.156,-0.031 0.094,-0.125 -0.063,-0.031 -0.156,-0.094 -0.25,-0.125 -0.094,-0.063 -0.188,-0.094 -0.281,-0.094 -0.063,0 -0.188,0.031 -0.188,0.125 0,0.063 0.031,0.063 0.063,0.063 0.063,0 0.094,0.031 0.094,0.063 0.063,0.031 0.031,0.063 -0.031,0.063 h -0.063 c -0.063,0 -0.156,0.063 -0.219,0.188 -0.063,0.094 -0.156,0.188 -0.25,0.219 -0.031,0 -0.031,0 -0.031,-0.031 0.031,-0.031 0,-0.031 0,-0.063 -0.031,-0.031 -0.063,-0.063 -0.094,-0.063 -0.063,-0.031 -0.125,-0.031 -0.125,-0.063 0,-0.063 0.063,-0.094 0.125,-0.188 0.031,-0.094 -0.063,-0.125 -0.219,-0.125 -0.063,0 -0.125,0.031 -0.156,0.094 -0.031,0.031 -0.063,0.094 -0.094,0.156 l -0.313,-0.344 -0.25,-0.031 c 0,-0.063 0.031,-0.125 0.063,-0.188 0.063,-0.125 -0.188,-0.281 -0.281,-0.375 -0.031,0 -0.094,-0.031 -0.156,-0.031 -0.031,0 -0.2190004,0.156 -0.3440004,0.219 -0.063,0.031 -0.094,0.063 -0.094,0.094 0,0.063 0.063,0.063 0.156,0.063 h -0.031 c -0.063,0 -0.094,0.031 -0.094,0.125 0,0.031 0.25,0.094 0.313,0.094 0.063,0 0.1250004,0 0.1250004,0.031 0.031,0.031 0.031,0.031 0.094,0.031 l 0.094,-0.031 V 6.77 c 0,0 -0.031,0.063 -0.031,0.063 l 0.031,0.094 -0.3130004,0.156 -0.031,0.031 c -0.031,0 -0.063,0 -0.063,0.031 0,0.031 0,0.094 0.063,0.156 0.031,0.063 0,0.094 -0.156,0.094 l -0.094,-0.063 c 0,-0.063 -0.063,-0.125 -0.219,-0.188 -0.281,-0.094 -0.781,-0.125 -1.219,-0.125 -0.219,-0.031 -0.375,-0.031 -0.5,-0.031 l -0.469,0.156 0.125,0.25 c -0.031,0 -0.094,0.031 -0.094,0.031 -0.125,-0.094 -0.313,-0.281 -0.375,-0.281 l -0.219,-0.031 c -0.688,0.031 -1.5,0.688 -2.281,1.469 -0.781,0.781 -1.469,1.656 -1.813,2.188 h 0.063 c 0.063,0 0.094,-0.031 0.188,-0.063 0.063,-0.031 0.094,0.031 0.094,0.125 0,0.063 0,0.094 -0.031,0.156 -0.031,0.062 0.031,0.094 0.156,0.094 0.031,0 0.063,-0.031 0.063,-0.094 0.031,-0.063 0.031,-0.063 0.031,0 l 0.063,0.219 v 0.031 c 0,0.031 -0.031,0.063 -0.063,0.094 -0.094,0.031 0,0.125 0.094,0.125 h 0.156 l 0.063,-0.031 0.031,-0.031 c 0,0.125 0.125,0.156 0.219,0.156 h 0.031 c 0,0 -0.031,0.063 -0.063,0.094 -0.063,0 -0.063,0.031 0,0.063 l 0.313,0.063 v 0.031 l 0.188,0.406 c 0,0.063 -0.063,0.219 -0.125,0.219 -0.062,0 -0.063,-0.031 -0.063,-0.063 0.031,0 0.031,-0.031 0.031,-0.094 0,-0.031 -0.031,-0.063 -0.031,-0.094 -0.031,-0.031 -0.094,-0.031 -0.219,-0.031 -0.031,0 -0.125,0 -0.063,0.094 l 0.156,0.344 0.063,0.063 c -0.188,0 -0.219,0.625 -0.219,0.813 l 0.031,0.25 0.031,0.094 v 0.031 l -0.031,0.281 0.375,0.625 h 0.094 c 0,0.031 0,0.063 -0.031,0.094 -0.031,0.031 -0.031,0.063 -0.031,0.125 l 0.125,0.094 c 0,0.188 0.063,0.219 0.219,0.375 0,0.094 0.125,0.219 0.313,0.344 0.219,0.094 0.344,0.156 0.406,0.188 0.125,0.438 0.344,0.906 0.656,1.188 l 0.031,0.188 -0.063,0.063 c -0.063,0 -0.063,0.031 -0.031,0.063 l 0.25,0.125 c 0.063,-0.063 0.094,0 0.156,0.094 0.063,0.125 0.094,0.188 0.125,0.219 v 0.094 l 0.156,0.219 0.063,0.063 0.063,-0.156 c -0.063,-0.156 -0.281,-0.5 -0.469,-0.781 -0.094,-0.156 -0.188,-0.313 -0.281,-0.438 -0.063,-0.094 -0.094,-0.156 -0.094,-0.188 0,-0.032 -0.031,-0.375 -0.063,-0.438 0.031,0.031 0.125,0.063 0.188,0.094 0.094,0.031 0.188,0.063 0.25,0.094 0.031,0.25 0.125,0.438 0.281,0.594 0.125,0.125 0.25,0.281 0.344,0.469 -0.063,0.063 0.063,0.063 0.125,0.063 0.031,0.063 0.031,0.094 0.031,0.219 0.281,0.281 0.844,0.938 0.844,1.219 v 0.031 l -0.063,0.188 c 0.125,0.281 0.406,0.5 0.688,0.594 h 0.063 c 0.156,0.094 0.375,0.188 0.594,0.281 0.188,0.125 0.375,0.219 0.563,0.281 l 0.313,-0.188 c 0.1560004,0.031 0.3440004,0.188 0.5630004,0.375 0.219,0.187 0.5,0.406 0.875,0.469 0.125,-0.094 0.188,-0.063 0.188,0.063 v 0.063 l 0.344,0.406 0.063,0.188 c 0.188,0.125 0.406,0.313 0.5,0.531 z M 8.4418366,6.594 l -0.031,-0.063 c -0.063,-0.031 -0.219,-0.094 -0.281,-0.094 -0.031,0 -0.094,0.031 -0.219,0.063 -0.219,0.125 -0.563,0.219 -0.813,0.344 -0.125,0.063 -0.219,0.094 -0.281,0.094 0.125,0 0.25,-0.031 0.375,-0.094 0.094,-0.063 0.219,-0.094 0.344,-0.094 l 0.094,0.063 c 0.063,0.031 0.094,0.031 0.156,0.031 0.031,0 0.063,0 0.125,0.063 0.063,-0.031 0.125,-0.031 0.219,0.031 l 0.094,-0.063 V 6.75 l -0.031,-0.063 0.063,0.031 c 0.063,0 0.125,-0.031 0.188,-0.125 z m 4.7180004,18.312 0.031,0.188 c 0,0.063 -0.031,0.063 -0.063,0.125 -0.094,0.063 -0.25,0.156 -0.25,0.344 0,0.031 0.031,0.063 0.031,0.125 0.031,0.031 0.063,0.063 0.063,0.125 0,0.031 -0.031,0.063 -0.031,0.094 2.156,-0.375 4.094,-1.406 5.594,-3 h -0.031 c -0.063,0.031 -0.156,0.031 -0.188,0 l -0.094,0.031 -0.156,-0.031 h -0.094 c -0.063,-0.094 -0.125,-0.156 -0.219,-0.219 l -0.031,-0.031 c -0.031,0 -0.063,0 -0.063,0.063 0,-0.281 -0.219,-0.531 -0.469,-0.531 0,0.031 -0.031,0.031 -0.031,0.031 h -0.063 l -0.063,-0.031 h 0.094 l 0.063,-0.188 -0.156,-0.094 -0.031,0.031 c -0.125,-0.031 -0.219,-0.094 -0.281,-0.219 l -0.094,-0.031 v 0.031 l -0.063,0.031 c -0.125,0.031 -0.219,0.063 -0.281,0.094 -0.125,-0.031 -0.219,-0.094 -0.25,-0.125 l -0.375,0.031 c 0,-0.125 -0.063,-0.281 -0.219,-0.281 -0.188,0 -0.438,0 -0.5,0.219 0,0.063 0.031,0.156 0.063,0.188 v 0.125 l -0.031,0.063 -0.031,0.031 h -0.031 l -0.094,-0.219 0.094,-0.125 c -0.031,-0.063 -0.031,-0.094 -0.031,-0.156 0,-0.062 -0.031,-0.094 -0.031,-0.156 l -0.031,-0.031 h -0.094 l -0.188,0.125 h -0.125 l -0.031,0.063 c -0.031,0 -0.031,0.031 -0.031,0.063 0,0 -0.031,0 -0.031,0.031 l -0.031,-0.031 h -0.125 c -0.063,0.063 -0.094,0.156 -0.125,0.25 l 0.063,0.063 -0.156,0.063 -0.031,0.063 -0.094,0.063 v 0.031 h -0.031 v 0.156 h -0.031 c -0.031,-0.125 -0.125,-0.25 -0.313,-0.344 h -0.094 v 0.063 c 0,0.063 0.063,0.094 0.125,0.125 0.063,0.063 0.094,0.125 0.125,0.156 -0.031,-0.031 -0.094,0 -0.094,0.031 v 0.063 l 0.188,0.281 v 0.531 l 0.063,0.125 c -0.063,0.156 -0.125,0.313 -0.219,0.406 v -0.031 l -0.063,0.031 -0.031,0.031 -0.031,0.125 0.031,0.031 v 0.031 l -0.063,-0.063 -0.031,0.188 -0.156,0.063 c -0.063,0.031 -0.094,0.063 -0.063,0.156 0,0.063 -0.031,0.094 -0.094,0.125 l 0.031,0.063 -0.063,0.094 c 0,0.031 0,0.063 -0.031,0.063 v 0.125 l 0.031,0.219 0.063,0.031 0.063,-0.031 z"
       id="path1-8"
       style="fill:#213348;fill-opacity:1;stroke:none" /></g></svg>
