<?xml version="1.0" encoding="UTF-8" standalone="no"?>
<svg
   viewBox="0 0 72 96"
   version="1.1"
   id="svg4"
   sodipodi:docname="json.svg"
   xml:space="preserve"
   inkscape:version="1.3 (0e150ed6c4, 2023-07-21)"
   xmlns:inkscape="http://www.inkscape.org/namespaces/inkscape"
   xmlns:sodipodi="http://sodipodi.sourceforge.net/DTD/sodipodi-0.dtd"
   xmlns="http://www.w3.org/2000/svg"
   xmlns:svg="http://www.w3.org/2000/svg"><defs
     id="defs4" /><sodipodi:namedview
     id="namedview4"
     pagecolor="#ffffff"
     bordercolor="#666666"
     borderopacity="1.0"
     inkscape:showpageshadow="2"
     inkscape:pageopacity="0.0"
     inkscape:pagecheckerboard="0"
     inkscape:deskcolor="#d1d1d1"
     inkscape:zoom="8.6988866"
     inkscape:cx="27.07243"
     inkscape:cy="49.086742"
     inkscape:window-width="1718"
     inkscape:window-height="1078"
     inkscape:window-x="317"
     inkscape:window-y="111"
     inkscape:window-maximized="0"
     inkscape:current-layer="svg4"
     showguides="true"><sodipodi:guide
       position="5.7478621,23.347024"
       orientation="1,0"
       id="guide4"
       inkscape:locked="false" /></sodipodi:namedview><style
     id="style1">.st0{fill:#999}</style><path
     class="st0"
     d="M0 2v92c0 1.1.9 2 2 2h68c1.1 0 2-.9 2-2V28H50c-1.1 0-2-.9-2-2V0H2C.9 0 0 .9 0 2z"
     id="path1"
     style="fill:#da7b24;fill-opacity:1" /><rect
     style="fill:#ffffff;fill-opacity:1;stroke:none;stroke-opacity:1"
     id="rect4"
     width="60.237595"
     height="49.54657"
     x="5.8812027"
     y="40.809822" /><path
     class="st0"
     d="M71.9 24c-.1-.4-.2-.7-.4-1L52 1.2V24h19.9z"
     id="path2"
     style="fill:#da7b24;fill-opacity:1" /><text
     xml:space="preserve"
     style="font-style:normal;font-variant:normal;font-weight:normal;font-stretch:normal;font-size:14.6667px;line-height:1.25;font-family:'Lucida Sans';-inkscape-font-specification:'Lucida Sans';letter-spacing:0px;word-spacing:0px;stroke-width:0.626177"
     x="7.1273537"
     y="18.058615"
     id="text4"><tspan
       sodipodi:role="line"
       id="tspan4"
       x="7.1273537"
       y="18.058615"
       style="font-style:normal;font-variant:normal;font-weight:bold;font-stretch:normal;font-size:14.6667px;line-height:1.25;font-family:'Open Sans';-inkscape-font-specification:'Open Sans Bold';fill:#ffffff;fill-opacity:1;stroke:none;stroke-width:0.626177;stroke-opacity:1">JSON</tspan></text><path
     class="st2"
     d="m 16.427778,67.633107 v -4.1 c 0.9,-0.1 1.6,-0.2 2,-0.4 0.4,-0.2 0.8,-0.6 1.2,-1 0.4,-0.5 0.5,-1.1 0.7,-1.9 0.1,-0.6 0.2,-1.5 0.2,-2.8 0,-2.2 0.1,-3.7 0.4,-4.6 0.2,-0.8 0.6,-1.6 1.2,-2 0.5,-0.5 1.4,-0.9 2.5,-1.2 0.7,-0.2 1.9,-0.4 3.5,-0.4 h 0.9 v 3.9 c -1.3,0 -2.2,0.1 -2.6,0.3 -0.4,0.2 -0.6,0.4 -0.9,0.6 -0.2,0.3 -0.3,0.7 -0.3,1.5 0,0.8 -0.1,2 -0.2,4.1 -0.1,1.2 -0.2,2 -0.4,2.8 -0.3,0.6 -0.6,1.2 -1,1.8 -0.4,0.4 -1,0.9 -1.8,1.4 0.7,0.4 1.3,0.8 1.8,1.3 0.5,0.5 0.8,1.2 1.1,1.9 0.3,0.7 0.4,1.8 0.4,3 0.1,1.9 0.1,3.1 0.1,3.6 0,0.7 0.1,1.2 0.3,1.6 0.2,0.4 0.5,0.5 0.9,0.6 0.4,0.2 1.2,0.3 2.6,0.3 v 4.1 h -1 c -1.6,0 -2.9,-0.1 -3.7,-0.4 -0.9,-0.3 -1.6,-0.6 -2.2,-1.2 -0.6,-0.6 -1,-1.2 -1.2,-2 -0.2,-0.8 -0.3,-2.1 -0.3,-4 0,-2 -0.1,-3.5 -0.3,-4.1 -0.3,-0.9 -0.7,-1.6 -1.2,-2 -0.7,-0.5 -1.5,-0.7 -2.7,-0.7 z m 39.1,0 c -0.9,0.1 -1.6,0.2 -2,0.4 -0.4,0.2 -0.8,0.6 -1.2,1 -0.4,0.5 -0.5,1.1 -0.7,1.9 -0.1,0.6 -0.2,1.5 -0.2,2.8 0,2.2 -0.1,3.7 -0.4,4.6 -0.2,0.9 -0.6,1.6 -1.2,2 -0.5,0.5 -1.4,0.9 -2.5,1.2 -0.7,0.2 -1.9,0.4 -3.5,0.4 h -1 v -4.1 c 1.3,0 2.1,-0.1 2.6,-0.3 0.5,-0.2 0.7,-0.4 0.9,-0.6 0.2,-0.3 0.3,-0.7 0.3,-1.5 0,-0.6 0.1,-2 0.2,-4 0.1,-1.2 0.3,-2.1 0.5,-2.8 0.3,-0.7 0.6,-1.3 1.1,-1.9 0.4,-0.5 1,-0.9 1.7,-1.3 -0.9,-0.6 -1.6,-1.1 -2,-1.6 -0.5,-0.7 -1,-1.8 -1.2,-2.8 -0.2,-0.8 -0.3,-2.6 -0.3,-5.2 0,-0.8 -0.1,-1.4 -0.3,-1.8 -0.2,-0.3 -0.4,-0.5 -0.8,-0.6 -0.2,-0.3 -1,-0.3 -2.5,-0.3 v -4 h 1 c 1.6,0 2.9,0.1 3.7,0.4 0.9,0.3 1.6,0.6 2.2,1.2 0.6,0.6 1,1.2 1.2,2 0.2,0.8 0.4,2.1 0.4,4 0,2 0.1,3.4 0.3,4.1 0.3,0.9 0.7,1.6 1.2,1.9 0.5,0.4 1.4,0.6 2.5,0.6 0.1,0.1 0,4.3 0,4.3 z"
     id="path4-8"
     style="fill:#da7b24;fill-opacity:1;stroke:none;stroke-width:0.5;stroke-miterlimit:10" /><path
     class="st2"
     d="m 44,67.183107 c -0.7,-0.3 -1.2,-0.9 -1.2,-1.6 0,-0.7 0.5,-1.4 1.2,-1.6 0.3,-0.1 0.4,-0.3 0.3,-0.5 -0.3,-0.8 -0.5,-1.6 -1,-2.2 -0.1,-0.3 -0.4,-0.3 -0.6,-0.2 -0.2,0.1 -0.5,0.3 -0.8,0.3 -1,0 -1.7,-0.8 -1.7,-1.7 0,-0.3 0.1,-0.6 0.3,-0.8 0.1,-0.3 0,-0.4 -0.2,-0.6 -0.7,-0.4 -1.5,-0.7 -2.2,-1 -0.3,-0.1 -0.4,0.1 -0.5,0.3 -0.3,0.7 -0.9,1.2 -1.6,1.2 -0.7,0 -1.4,-0.5 -1.6,-1.2 -0.1,-0.3 -0.3,-0.4 -0.5,-0.3 -0.8,0.3 -1.6,0.5 -2.2,1 -0.3,0.1 -0.3,0.4 -0.2,0.6 0.2,0.3 0.3,0.5 0.3,0.8 0,1 -0.8,1.7 -1.7,1.7 -0.3,0 -0.6,-0.1 -0.8,-0.3 -0.3,-0.1 -0.4,0 -0.6,0.2 -0.4,0.7 -0.7,1.5 -1,2.2 -0.1,0.3 0.1,0.4 0.3,0.5 0.7,0.3 1.2,0.9 1.2,1.6 0,0.7 -0.5,1.4 -1.2,1.6 -0.3,0.1 -0.4,0.3 -0.3,0.5 0.3,0.8 0.5,1.6 1,2.2 0.1,0.3 0.4,0.3 0.6,0.2 0.3,-0.2 0.5,-0.3 0.8,-0.3 1,0 1.7,0.8 1.7,1.7 0,0.3 -0.1,0.6 -0.3,0.8 -0.1,0.3 0,0.4 0.2,0.6 0.7,0.4 1.5,0.7 2.2,1 0.2,0 0.4,-0.1 0.4,-0.3 0.3,-0.7 0.9,-1.2 1.6,-1.2 0.7,0 1.4,0.5 1.6,1.2 0.1,0.3 0.3,0.4 0.5,0.3 0.8,-0.3 1.6,-0.5 2.2,-1 0.3,-0.1 0.3,-0.4 0.2,-0.6 -0.1,-0.3 -0.3,-0.5 -0.3,-0.8 0,-1 0.8,-1.7 1.7,-1.7 0.3,0 0.6,0.1 0.8,0.3 0.3,0.1 0.4,0 0.6,-0.2 0.4,-0.7 0.7,-1.5 1,-2.2 0.2,-0.1 0.1,-0.4 -0.2,-0.5 z m -8.3,1 c -1.5,0 -2.7,-1.2 -2.7,-2.7 0,-1.5 1.2,-2.7 2.7,-2.7 1.5,0 2.7,1.2 2.7,2.7 0.1,1.5 -1.2,2.7 -2.7,2.7 z"
     id="path6"
     style="fill:#da7b24;fill-opacity:1;stroke:none;stroke-width:0.5;stroke-miterlimit:10" /></svg>
