<?xml version="1.0" encoding="UTF-8" standalone="no"?>
<svg
   viewBox="0 0 72 96"
   version="1.1"
   id="svg4"
   sodipodi:docname="csv.svg"
   xml:space="preserve"
   inkscape:version="1.3 (0e150ed6c4, 2023-07-21)"
   xmlns:inkscape="http://www.inkscape.org/namespaces/inkscape"
   xmlns:sodipodi="http://sodipodi.sourceforge.net/DTD/sodipodi-0.dtd"
   xmlns="http://www.w3.org/2000/svg"
   xmlns:svg="http://www.w3.org/2000/svg"><defs
     id="defs4">&#10;	&#10;	&#10;	&#10;	&#10;	&#10;</defs><sodipodi:namedview
     id="namedview4"
     pagecolor="#ffffff"
     bordercolor="#666666"
     borderopacity="1.0"
     inkscape:showpageshadow="2"
     inkscape:pageopacity="0.0"
     inkscape:pagecheckerboard="0"
     inkscape:deskcolor="#d1d1d1"
     inkscape:zoom="6.1510417"
     inkscape:cx="29.913632"
     inkscape:cy="51.048264"
     inkscape:window-width="1718"
     inkscape:window-height="1078"
     inkscape:window-x="61"
     inkscape:window-y="83"
     inkscape:window-maximized="0"
     inkscape:current-layer="svg4"
     showguides="true"><sodipodi:guide
       position="5.7478621,23.347024"
       orientation="1,0"
       id="guide4"
       inkscape:locked="false" /></sodipodi:namedview><style
     id="style1">.st0{fill:#999}</style><path
     class="st0"
     d="M0 2v92c0 1.1.9 2 2 2h68c1.1 0 2-.9 2-2V28H50c-1.1 0-2-.9-2-2V0H2C.9 0 0 .9 0 2z"
     id="path1"
     style="fill:#2d984a;fill-opacity:1" /><rect
     style="fill:#ffffff;fill-opacity:1;stroke:none;stroke-opacity:1"
     id="rect4"
     width="60.237595"
     height="49.54657"
     x="5.8812027"
     y="40.809822" /><path
     class="st0"
     d="M71.9 24c-.1-.4-.2-.7-.4-1L52 1.2V24h19.9z"
     id="path2"
     style="fill:#2d984a;fill-opacity:1" /><text
     xml:space="preserve"
     style="font-style:normal;font-variant:normal;font-weight:normal;font-stretch:normal;font-size:14.6667px;line-height:1.25;font-family:'Lucida Sans';-inkscape-font-specification:'Lucida Sans';letter-spacing:0px;word-spacing:0px;stroke-width:0.626177"
     x="4.8455396"
     y="19.338837"
     id="text4"><tspan
       sodipodi:role="line"
       id="tspan4"
       x="4.8455396"
       y="19.338837"
       style="font-style:normal;font-variant:normal;font-weight:bold;font-stretch:normal;font-size:14.6667px;font-family:'Open Sans';-inkscape-font-specification:'Open Sans Bold';fill:#ffffff;fill-opacity:1;stroke:none;stroke-width:0.626177;stroke-opacity:1">CSV</tspan></text><polygon
     style="fill:#d1d3d3"
     points="270.346,50.525 219.821,0 219.821,50.525 "
     id="polygon5"
     transform="translate(-125.15383,-103.88675)" /><g
     id="g15"
     transform="matrix(0.35722713,0,0,0.33609264,-18.918712,23.407793)">&#10;		<rect
   x="134.957"
   y="80.344002"
   style="fill:#007934"
   width="33.273998"
   height="15.418"
   id="rect5" />&#10;		<rect
   x="175.60201"
   y="80.344002"
   style="fill:#007934"
   width="33.272999"
   height="15.418"
   id="rect6" />&#10;		<rect
   x="134.957"
   y="102.661"
   style="fill:#007934"
   width="33.273998"
   height="15.419"
   id="rect7" />&#10;		<rect
   x="175.60201"
   y="102.661"
   style="fill:#007934"
   width="33.272999"
   height="15.419"
   id="rect8" />&#10;		<rect
   x="134.957"
   y="124.979"
   style="fill:#007934"
   width="33.273998"
   height="15.418"
   id="rect9" />&#10;		<rect
   x="175.60201"
   y="124.979"
   style="fill:#007934"
   width="33.272999"
   height="15.418"
   id="rect10" />&#10;		<rect
   x="94.311996"
   y="124.979"
   style="fill:#007934"
   width="33.272999"
   height="15.418"
   id="rect11" />&#10;		<rect
   x="134.957"
   y="147.298"
   style="fill:#007934"
   width="33.273998"
   height="15.418"
   id="rect12" />&#10;		<rect
   x="175.60201"
   y="147.298"
   style="fill:#007934"
   width="33.272999"
   height="15.418"
   id="rect13" />&#10;		<rect
   x="94.311996"
   y="147.298"
   style="fill:#007934"
   width="33.272999"
   height="15.418"
   id="rect14" />&#10;		<g
   id="g14">&#10;			<path
   style="fill:#007934"
   d="m 127.088,116.162 h -10.04 l -6.262,-10.041 -6.196,10.041 H 94.769 L 105.425,99.727 95.406,84.04 h 9.624 l 5.8,9.932 5.581,-9.932 h 9.909 l -10.173,16.369 z"
   id="path14" />&#10;		</g>&#10;	</g></svg>
