<?xml version="1.0" encoding="UTF-8" standalone="no"?>
<svg
   viewBox="0 0 72 96"
   version="1.1"
   id="svg4"
   sodipodi:docname="dc.svg"
   xml:space="preserve"
   inkscape:version="1.3 (0e150ed6c4, 2023-07-21)"
   xmlns:inkscape="http://www.inkscape.org/namespaces/inkscape"
   xmlns:sodipodi="http://sodipodi.sourceforge.net/DTD/sodipodi-0.dtd"
   xmlns="http://www.w3.org/2000/svg"
   xmlns:svg="http://www.w3.org/2000/svg"><defs
     id="defs4" /><sodipodi:namedview
     id="namedview4"
     pagecolor="#ffffff"
     bordercolor="#666666"
     borderopacity="1.0"
     inkscape:showpageshadow="2"
     inkscape:pageopacity="0.0"
     inkscape:pagecheckerboard="0"
     inkscape:deskcolor="#d1d1d1"
     inkscape:zoom="3.6203867"
     inkscape:cx="7.5958737"
     inkscape:cy="11.048544"
     inkscape:window-width="1718"
     inkscape:window-height="1078"
     inkscape:window-x="82"
     inkscape:window-y="92"
     inkscape:window-maximized="0"
     inkscape:current-layer="svg4"
     showguides="true"><sodipodi:guide
       position="5.7478621,23.347024"
       orientation="1,0"
       id="guide4"
       inkscape:locked="false" /><sodipodi:guide
       position="5.6900931,117.29721"
       orientation="0.70710678,-0.70710678"
       id="guide2"
       inkscape:locked="false" /></sodipodi:namedview><style
     id="style1">.st0{fill:#999}</style><path
     class="st0"
     d="M0 2v92c0 1.1.9 2 2 2h68c1.1 0 2-.9 2-2V28H50c-1.1 0-2-.9-2-2V0H2C.9 0 0 .9 0 2z"
     id="path1"
     style="fill:#ed7824;fill-opacity:1" /><rect
     style="fill:#ffffff;fill-opacity:1;stroke:none;stroke-opacity:1"
     id="rect4"
     width="60.237595"
     height="49.54657"
     x="5.8812027"
     y="40.809822" /><path
     class="st0"
     d="M71.9 24c-.1-.4-.2-.7-.4-1L52 1.2V24h19.9z"
     id="path2"
     style="fill:#ed7824;fill-opacity:1" /><text
     xml:space="preserve"
     style="font-style:normal;font-variant:normal;font-weight:normal;font-stretch:normal;font-size:9.33333px;line-height:0.9;font-family:'Lucida Sans';-inkscape-font-specification:'Lucida Sans';letter-spacing:0px;word-spacing:0px;stroke-width:0.626177"
     x="5.1706877"
     y="11.796076"
     id="text4"><tspan
       sodipodi:role="line"
       x="5.1706877"
       y="11.796076"
       style="font-style:normal;font-variant:normal;font-weight:bold;font-stretch:normal;font-size:9.33333px;line-height:0.9;font-family:'Open Sans';-inkscape-font-specification:'Open Sans Bold';fill:#ffffff;fill-opacity:1;stroke:none;stroke-width:0.626177;stroke-opacity:1"
       id="tspan1">DUBLIN</tspan><tspan
       sodipodi:role="line"
       x="5.1706877"
       y="20.465302"
       style="font-style:normal;font-variant:normal;font-weight:bold;font-stretch:normal;font-size:9.33333px;line-height:0.9;font-family:'Open Sans';-inkscape-font-specification:'Open Sans Bold';fill:#ffffff;fill-opacity:1;stroke:none;stroke-width:0.626177;stroke-opacity:1"
       id="tspan4">CORE</tspan></text><path
     style="fill:#ed7824;fill-opacity:1;stroke:#ed7824;stroke-width:0.288671;stroke-linecap:square;stroke-linejoin:round;stroke-dasharray:none;stroke-opacity:1;paint-order:markers fill stroke"
     d="m 32.242378,81.764937 c -0.421818,-0.192405 -0.701888,-0.595833 -0.828791,-1.19383 -0.08648,-0.407526 -0.08998,-0.566527 -0.01412,-0.642375 0.05544,-0.05544 0.100795,-0.155817 0.100795,-0.223066 0,-0.165559 0.311735,-0.550657 0.59924,-0.740272 0.172422,-0.113715 0.412673,-0.155182 0.90154,-0.155607 0.593825,-5.22e-4 0.700235,0.02574 0.976242,0.240871 0.420151,0.327482 0.552251,0.657649 0.541441,1.353226 -0.0099,0.638873 -0.171366,0.968383 -0.617722,1.260848 -0.315404,0.20666 -1.295426,0.265867 -1.658611,0.100202 z m 0.663015,-0.09634 c 0,-0.0927 -0.168541,-0.131634 -0.218669,-0.05053 -0.03035,0.04908 0.0064,0.08926 0.08175,0.08926 0.07531,0 0.136915,-0.01742 0.136914,-0.03873 z m 1.141676,-0.400379 c 0,-0.0483 -0.03951,-0.08783 -0.08783,-0.08783 -0.0483,0 -0.08783,0.03952 -0.08783,0.08783 0,0.0483 0.03951,0.08783 0.08783,0.08783 0.0483,0 0.08783,-0.03952 0.08783,-0.08783 z m -2.283358,-0.922127 c 0,-0.13661 -0.04976,-0.219553 -0.131729,-0.219553 -0.08197,0 -0.131735,0.08294 -0.131735,0.219553 0,0.136611 0.04977,0.219554 0.131735,0.219554 0.08197,0 0.131729,-0.08294 0.131729,-0.219554 z m 2.019894,-1.185588 c 0,-0.0483 -0.0616,-0.08782 -0.136914,-0.08782 -0.07531,0 -0.112491,0.03952 -0.08264,0.08782 0.02988,0.04831 0.09147,0.08783 0.136914,0.08783 0.04545,0 0.08264,-0.03952 0.08264,-0.08783 z m 4.68199,2.63017 c -0.397288,-0.12138 -0.784074,-0.625876 -0.850304,-1.109079 -0.09452,-0.689627 0.01797,-1.072103 0.439139,-1.493293 l 0.379085,-0.379085 h 0.672566 c 0.521238,0 0.737064,0.03986 0.959256,0.177189 0.484886,0.299676 0.609829,0.571796 0.611112,1.330977 0.0013,0.7277 -0.107218,0.970058 -0.598029,1.336503 -0.271859,0.202971 -1.151903,0.27761 -1.612825,0.136788 z M 38.262499,81.28285 c 0,-0.11435 -0.104401,-0.190401 -0.189325,-0.137913 -0.09083,0.05613 -0.01252,0.211096 0.106685,0.211096 0.04544,0 0.08264,-0.03293 0.08264,-0.07319 z m 2.355056,-0.939492 c -0.0153,-0.122257 -0.06731,-0.222285 -0.115612,-0.222285 -0.0483,0 -0.100327,0.100023 -0.115612,0.222285 -0.01981,0.15842 0.01344,0.222283 0.115612,0.222283 0.102202,0 0.135414,-0.06386 0.115612,-0.222283 z m -0.247342,-0.733002 c 0,-0.04239 -0.05928,-0.126267 -0.131734,-0.186397 -0.142991,-0.118672 -0.160865,-0.09028 -0.07842,0.124549 0.05643,0.147054 0.210162,0.192295 0.210161,0.06184 z m -0.526929,-0.488589 c 0,-0.02129 -0.03951,-0.06316 -0.08782,-0.09302 -0.0483,-0.02985 -0.08781,-0.01242 -0.08781,0.03873 0,0.05115 0.03951,0.09301 0.08781,0.09301 0.0483,0 0.08782,-0.01742 0.08782,-0.03873 z m 4.39107,0.20287 c -0.590321,-0.261008 -0.855642,-0.558664 -0.975536,-1.094417 -0.180228,-0.80534 0.185378,-1.596498 0.865552,-1.873019 0.40355,-0.164059 1.27694,-0.0876 1.582173,0.138505 0.466582,0.345633 0.635524,0.703827 0.635524,1.347467 0,0.756804 -0.207065,1.092623 -0.878213,1.42428 -0.570778,0.282057 -0.706619,0.288376 -1.2295,0.05718 z m 0.710687,-0.120231 c -4.36e-4,-0.0483 -0.08176,-0.100451 -0.180281,-0.115886 -0.176624,-0.02767 -0.237619,0.07202 -0.117538,0.192106 0.0854,0.08539 0.299232,0.03066 0.297819,-0.07623 z m -0.578954,-0.131733 c -0.02988,-0.0483 -0.0938,-0.08783 -0.1421,-0.08783 -0.0483,0 -0.06339,0.03952 -0.03353,0.08783 0.02983,0.0483 0.09379,0.08783 0.142096,0.08783 0.0483,0 0.0634,-0.03952 0.03354,-0.08783 z m 1.251453,-0.08686 c 0.156981,-0.09571 0.285419,-0.24128 0.285419,-0.323478 0,-0.11861 -0.05891,-0.09635 -0.285419,0.107806 -0.156978,0.141492 -0.322964,0.287205 -0.368849,0.323806 -0.174157,0.138913 0.0913,0.06108 0.368849,-0.108134 z m -1.822296,-0.347067 c 0,-0.103616 -0.171279,-0.214458 -0.234189,-0.151552 -0.06291,0.06291 0.04793,0.234191 0.151554,0.234191 0.04544,0 0.08263,-0.03718 0.08263,-0.08264 z m 0.746483,-2.112896 c 0.02987,-0.0483 -0.0073,-0.08782 -0.08264,-0.08782 -0.07531,0 -0.136915,0.03952 -0.136915,0.08782 0,0.0483 0.0372,0.08783 0.08264,0.08783 0.04546,0 0.107064,-0.03952 0.136915,-0.08783 z M 26.61295,79.254594 c -0.561192,-0.254816 -0.821093,-0.703921 -0.821093,-1.418821 0,-0.656285 0.186285,-1.030409 0.678082,-1.361832 0.379103,-0.255477 1.292134,-0.361599 1.481532,-0.1722 0.07496,0.07496 0.179341,0.136289 0.231957,0.136289 0.128489,0 0.594357,0.52867 0.594357,0.674478 0,0.06376 0.04493,0.115914 0.09984,0.115914 0.146881,0 0.04463,1.03964 -0.140647,1.430095 -0.109028,0.229758 -0.276473,0.381198 -0.599416,0.54213 -0.534556,0.266381 -1.019018,0.283523 -1.524618,0.05394 z m 0.935337,-0.05019 c 0,-0.08197 -0.08294,-0.131733 -0.219554,-0.131733 -0.213217,0 -0.280411,0.08552 -0.161009,0.204916 0.11048,0.110478 0.380563,0.05854 0.380563,-0.07319 z m -0.663055,-0.110456 c -0.04589,-0.0366 -0.211866,-0.182314 -0.36885,-0.323805 -0.226513,-0.204167 -0.285416,-0.226415 -0.285416,-0.107806 0,0.0822 0.128437,0.227763 0.285416,0.323478 0.277547,0.169223 0.543008,0.247047 0.36885,0.108133 z m 1.716913,-0.548204 c 0,-0.0483 -0.03951,-0.08783 -0.08782,-0.08783 -0.04831,0 -0.08781,0.03952 -0.08781,0.08783 0,0.04831 0.03951,0.08783 0.08781,0.08783 0.0483,0 0.08782,-0.03952 0.08782,-0.08783 z M 27.811751,76.54049 c 0,-0.114351 -0.1044,-0.190402 -0.189329,-0.137914 -0.09082,0.05613 -0.01252,0.211097 0.10669,0.211097 0.04545,0 0.08264,-0.03293 0.08264,-0.07319 z m 5.576656,0.318536 c -0.581872,-0.203331 -0.922123,-0.747532 -0.922123,-1.474853 0,-0.701047 0.342074,-1.275632 0.878212,-1.475144 0.346052,-0.128775 1.07302,-0.215355 1.132032,-0.134822 0.02948,0.0402 0.210631,0.152131 0.402611,0.248735 1.015443,0.510967 0.994706,2.205433 -0.03354,2.740577 -0.418185,0.217642 -0.998784,0.255696 -1.457199,0.0955 z m 0.966036,-0.11362 c 0,-0.104301 -0.352879,-0.166763 -0.53888,-0.09538 -0.072,0.02762 -0.104938,0.09225 -0.0732,0.143626 0.07135,0.115438 0.612075,0.07281 0.612075,-0.04824 z m -1.536874,-1.141682 c 0,-0.07246 -0.0372,-0.131732 -0.08264,-0.131732 -0.110742,0 -0.190054,0.137142 -0.119891,0.207304 0.0989,0.0989 0.20253,0.06024 0.20253,-0.07558 z m 2.707373,-0.267948 c -0.0433,-0.368785 -0.248371,-0.383211 -0.248371,-0.01746 0,0.165033 0.02699,0.327063 0.06001,0.360069 0.107967,0.107967 0.21781,-0.09182 0.188361,-0.342597 z m -2.707373,-0.171159 c 0,-0.07246 -0.0372,-0.131732 -0.08264,-0.131732 -0.110742,0 -0.190054,0.137141 -0.119891,0.207305 0.0989,0.0989 0.20253,0.06023 0.20253,-0.07558 z m 2.402799,-0.569093 c -0.138525,-0.277671 -0.275457,-0.401935 -0.355122,-0.322268 -0.05244,0.05244 0.329615,0.571163 0.426549,0.579127 0.03254,0.0027 3.49e-4,-0.112914 -0.07142,-0.256859 z m -1.892337,-0.347543 c 0.02197,-0.06587 -0.01099,-0.09879 -0.07685,-0.07685 -0.06339,0.02114 -0.132554,0.09029 -0.153687,0.153688 -0.02194,0.06587 0.01099,0.09879 0.07685,0.07685 0.0634,-0.02114 0.132558,-0.09029 0.153687,-0.153688 z m 0.526561,-0.187718 c -0.01731,-0.05193 -0.069,-0.09441 -0.114897,-0.09441 -0.04589,0 -0.09759,0.04248 -0.114901,0.09441 -0.01731,0.05193 0.03441,0.09441 0.114901,0.09441 0.08051,0 0.132206,-0.04249 0.114897,-0.09441 z m 3.573605,2.774075 c -0.64906,-0.304845 -0.834305,-0.622708 -0.834305,-1.431571 0,-0.860373 0.124041,-1.086782 0.817365,-1.491857 0.551006,-0.321929 1.268964,-0.202713 1.839886,0.305506 0.574444,0.511364 0.55575,1.840345 -0.03324,2.363134 -0.425342,0.377529 -1.271798,0.498036 -1.7897,0.254788 z m 0.922122,-0.08894 c 0,-0.08783 -0.08783,-0.131732 -0.263464,-0.131732 -0.175645,0 -0.263465,0.04391 -0.263465,0.131732 0,0.08783 0.08783,0.131733 0.263465,0.131733 0.175644,0 0.263464,-0.04391 0.263464,-0.131733 z m 0.702572,-0.307374 c 0,-0.0483 -0.03951,-0.08782 -0.08783,-0.08782 -0.0483,0 -0.08783,0.03952 -0.08783,0.08782 0,0.0483 0.03951,0.08782 0.08783,0.08782 0.0483,0 0.08783,-0.03952 0.08783,-0.08782 z m 0.526929,-0.883399 c 0,-0.04545 -0.05928,-0.08264 -0.131735,-0.08264 -0.135806,0 -0.174475,0.103626 -0.07558,0.202531 0.07016,0.07016 0.207304,-0.0091 0.207304,-0.119892 z m -0.07465,-0.390013 c 0,-0.04589 -0.04248,-0.09759 -0.09441,-0.114899 -0.05193,-0.0173 -0.0944,0.0344 -0.0944,0.114899 0,0.08051 0.04248,0.132208 0.0944,0.1149 0.05193,-0.0173 0.09441,-0.06901 0.09441,-0.1149 z M 36.945179,74.76942 c 0,-0.0483 -0.01744,-0.08782 -0.03873,-0.08782 -0.02128,0 -0.06316,0.03952 -0.09302,0.08782 -0.02983,0.0483 -0.01243,0.08783 0.03873,0.08783 0.05115,0 0.09302,-0.03952 0.09302,-0.08783 z m 2.369416,-0.133854 c -0.06109,-0.07362 -0.129175,-0.11577 -0.151279,-0.09367 -0.06091,0.06091 0.06285,0.227519 0.168976,0.227519 0.05824,0 0.05157,-0.0504 -0.01771,-0.133854 z m -2.193777,-0.12961 c 0,-0.0483 -0.01744,-0.08783 -0.03873,-0.08783 -0.02133,0 -0.06316,0.03952 -0.09302,0.08783 -0.02983,0.0483 -0.01243,0.08783 0.03873,0.08783 0.05115,0 0.09301,-0.03952 0.09301,-0.08783 z m 1.842489,-0.221675 c -0.06109,-0.07362 -0.129175,-0.115769 -0.151276,-0.09366 -0.0609,0.06091 0.06284,0.227519 0.168975,0.227519 0.05823,0 0.05157,-0.05039 -0.01771,-0.133853 z m -0.481249,-0.21743 c 0.02988,-0.0483 -0.0073,-0.08783 -0.08264,-0.08783 -0.07531,0 -0.136914,0.03952 -0.136914,0.08783 0,0.0483 0.03719,0.08782 0.08264,0.08782 0.04545,0 0.10706,-0.03952 0.136914,-0.08782 z m -8.703139,1.170295 c -0.19806,-0.06868 -0.493218,-0.262217 -0.655907,-0.430069 -0.265845,-0.274282 -0.299203,-0.365375 -0.32938,-0.899494 -0.04152,-0.734956 0.108203,-1.130594 0.557599,-1.473367 0.292303,-0.222949 0.39973,-0.250647 0.972181,-0.250647 0.716943,0 0.971036,0.124683 1.330527,0.652889 0.153177,0.225064 0.197601,0.414454 0.197601,0.842467 0,0.303672 -0.03912,0.65502 -0.08693,0.780769 -0.118216,0.310932 -0.513763,0.662594 -0.812486,0.722338 -0.135258,0.02704 -0.267189,0.08359 -0.293183,0.125662 -0.06652,0.107633 -0.456334,0.07639 -0.880024,-0.07054 z m 0.7553,-0.153031 c 0,-0.14063 -0.164947,-0.22108 -0.329331,-0.160628 -0.199721,0.07345 -0.11823,0.285042 0.109777,0.285042 0.130871,0 0.219554,-0.05027 0.219554,-0.124414 z m -1.317323,-0.665982 c 0,-0.0483 -0.03951,-0.08782 -0.08783,-0.08782 -0.0483,0 -0.08782,0.03952 -0.08782,0.08782 0,0.04831 0.03951,0.08783 0.08782,0.08783 0.0483,0 0.08783,-0.03952 0.08783,-0.08783 z m 1.911945,-1.860715 c -0.05428,-0.16284 -0.243341,-0.189848 -0.243341,-0.03475 0,0.07648 0.06258,0.139051 0.139053,0.139051 0.07648,0 0.123405,-0.04693 0.104288,-0.104287 z m -0.76368,-0.183328 c -0.01086,-0.105008 -0.131319,-0.08467 -0.169058,0.02854 -0.01931,0.05795 0.0123,0.08958 0.07026,0.07026 0.05795,-0.01932 0.10242,-0.06379 0.0988,-0.0988 z m 10.857769,2.833421 c -0.38919,-0.147965 -0.723627,-0.449688 -0.8685,-0.783547 -0.113632,-0.261861 -0.07478,-1.238749 0.0596,-1.498615 0.07241,-0.140009 0.275365,-0.364187 0.451031,-0.498173 0.281013,-0.214341 0.395656,-0.243609 0.954206,-0.243609 0.558551,0 0.673194,0.02927 0.954206,0.243609 0.486943,0.371411 0.606262,0.674433 0.567533,1.441341 -0.03222,0.638459 -0.04178,0.662161 -0.400741,0.997008 -0.202242,0.188652 -0.445951,0.343002 -0.541577,0.343002 -0.09562,0 -0.198281,0.03952 -0.228137,0.08783 -0.07994,0.129337 -0.469927,0.09278 -0.947621,-0.08884 z m 0.815892,-0.123398 c 0,-0.14063 -0.164947,-0.22108 -0.329332,-0.160628 -0.199717,0.07345 -0.118228,0.285042 0.109777,0.285042 0.130871,0 0.219555,-0.05027 0.219555,-0.124414 z m 1.053857,-0.66598 c 0,-0.0483 -0.03951,-0.08782 -0.08783,-0.08782 -0.0483,0 -0.08783,0.03952 -0.08783,0.08782 0,0.04831 0.03951,0.08783 0.08783,0.08783 0.0483,0 0.08783,-0.03952 0.08783,-0.08783 z m -1.158511,-2.026478 c -0.01731,-0.05193 -0.06901,-0.09441 -0.114901,-0.09441 -0.04589,0 -0.09759,0.04248 -0.114902,0.09441 -0.01731,0.05193 0.03441,0.09441 0.114902,0.09441 0.08051,0 0.13221,-0.04248 0.114901,-0.09441 z m -19.636542,2.184816 c -0.396158,-0.244758 -0.63337,-0.74276 -0.63337,-1.329702 0,-0.605279 0.169967,-1.00977 0.541075,-1.287634 0.255702,-0.191459 0.383127,-0.219553 0.995796,-0.219553 0.595007,0 0.746475,0.03131 0.989316,0.204522 0.41153,0.293524 0.583551,0.670885 0.587341,1.288442 0.0039,0.618244 -0.198314,1.034376 -0.650312,1.338976 -0.39922,0.269036 -1.398025,0.271737 -1.829846,0.0049 z m 1.47434,-0.07051 c 0,-0.0483 -0.03951,-0.08783 -0.08782,-0.08783 -0.0483,0 -0.08783,0.03952 -0.08783,0.08783 0,0.0483 0.03951,0.08782 0.08783,0.08782 0.0483,0 0.08782,-0.03952 0.08782,-0.08782 z m 0.432463,-0.25682 c 0.19232,-0.192322 0.389084,-0.531695 0.33793,-0.582851 -0.01883,-0.01882 -0.182076,0.142636 -0.36277,0.358806 -0.323449,0.386946 -0.304946,0.553828 0.02486,0.224045 z m -1.837606,0.008 c 0,-0.114351 -0.104398,-0.1904 -0.189324,-0.137913 -0.09082,0.05613 -0.01251,0.211098 0.106686,0.211098 0.04546,0 0.08264,-0.03293 0.08264,-0.07319 z M 21.94382,73.608725 c -0.06303,-0.06302 -0.103924,-0.06821 -0.103924,-0.01317 0,0.117221 0.103859,0.221081 0.16247,0.162468 0.02495,-0.02496 -0.0013,-0.09213 -0.05855,-0.149295 z m 2.745636,-0.427579 c -0.02825,-0.04575 -0.08885,-0.06005 -0.134597,-0.03177 -0.04575,0.02828 -0.06005,0.08885 -0.03179,0.134597 0.02827,0.04575 0.08885,0.06005 0.1346,0.03177 0.04575,-0.02828 0.06005,-0.08885 0.03179,-0.134597 z M 22.01554,72.886454 c 0,-0.02129 -0.03951,-0.06316 -0.08782,-0.09301 -0.0483,-0.02986 -0.08783,-0.01242 -0.08783,0.03872 0,0.05116 0.03951,0.09302 0.08783,0.09302 0.0483,0 0.08782,-0.01742 0.08782,-0.03873 z m 2.371179,-0.4882 c 0,-0.0483 -0.0616,-0.08783 -0.136915,-0.08783 -0.07531,0 -0.11249,0.03952 -0.08264,0.08783 0.02983,0.0483 0.09146,0.08783 0.136915,0.08783 0.04545,0 0.08264,-0.03952 0.08264,-0.08783 z m 23.619735,2.173281 c -0.452,-0.304602 -0.654101,-0.720733 -0.650307,-1.338977 0.0039,-0.617556 0.175806,-0.994917 0.58734,-1.288443 0.242841,-0.173208 0.394308,-0.204521 0.989316,-0.204521 0.612668,0 0.74009,0.02809 0.995796,0.219552 0.371105,0.277865 0.541079,0.682356 0.541079,1.287635 0,0.602152 -0.240194,1.08847 -0.659905,1.336105 -0.45677,0.269502 -1.395326,0.263595 -1.803319,-0.01135 z m 0.531149,-0.06557 c 0,-0.0483 -0.03951,-0.08782 -0.08783,-0.08782 -0.0483,0 -0.08782,0.03952 -0.08782,0.08782 0,0.0483 0.03951,0.08783 0.08782,0.08783 0.0483,0 0.08783,-0.03952 0.08783,-0.08783 z m -0.583262,-0.480912 c -0.345616,-0.413467 -0.46936,-0.464305 -0.290781,-0.119456 0.158205,0.305507 0.358869,0.512495 0.496831,0.512495 0.07408,0 -0.0073,-0.155332 -0.20605,-0.393039 z m 1.988409,0.168303 c 0,-0.07531 -0.03951,-0.112491 -0.08783,-0.08264 -0.0483,0.02985 -0.08782,0.09147 -0.08782,0.136916 0,0.04545 0.03951,0.08264 0.08782,0.08264 0.0483,0 0.08783,-0.0616 0.08783,-0.136916 z m 0.307374,-0.477834 c 0.02983,-0.0483 0.01243,-0.08783 -0.03872,-0.08783 -0.05115,0 -0.09302,0.03952 -0.09302,0.08783 0,0.0483 0.01744,0.08783 0.03872,0.08783 0.02129,0 0.06316,-0.03952 0.09302,-0.08783 z m -2.590733,-0.483018 c 0,-0.07246 -0.03719,-0.131733 -0.08264,-0.131733 -0.11074,0 -0.190052,0.137142 -0.119889,0.207304 0.0989,0.0989 0.202529,0.06023 0.202529,-0.07558 z m 2.634644,-0.395197 c 0,-0.0483 -0.03951,-0.08782 -0.08783,-0.08782 -0.0483,0 -0.08783,0.03952 -0.08783,0.08782 0,0.0483 0.03951,0.08782 0.08783,0.08782 0.0483,0 0.08783,-0.03952 0.08783,-0.08782 z M 47.966765,72.3982 c 0.02988,-0.0483 -0.0073,-0.08783 -0.08264,-0.08783 -0.07531,0 -0.136914,0.03952 -0.136914,0.08783 0,0.0483 0.0372,0.08783 0.08264,0.08783 0.04545,0 0.107064,-0.03952 0.136914,-0.08783 z m -13.480582,0.489395 c -2.218095,-0.492998 -3.904401,-1.800354 -4.90983,-3.806472 -0.733845,-1.464239 -0.931653,-3.541082 -0.493154,-5.177824 0.689106,-2.572146 2.503323,-4.386363 5.07547,-5.075468 1.629201,-0.43648 3.708864,-0.240772 5.175848,0.487074 2.004875,0.994724 3.342014,2.728855 3.806411,4.936545 0.162069,0.770444 0.164092,2.400537 0.0039,3.140962 -0.609646,2.817777 -2.679265,4.887396 -5.497043,5.49704 -0.69144,0.149598 -2.484919,0.148544 -3.161602,-0.0019 z m 3.396972,-0.835581 c 0.586341,-0.266213 1.99846,-1.181867 2.535619,-1.644163 0.980791,-0.8441 1.713903,-2.15814 1.941372,-3.479732 0.232319,-1.349744 0.04029,-2.58529 -0.601077,-3.867736 -0.913863,-1.827275 -2.251663,-2.999169 -4.017481,-3.519259 -0.608884,-0.179336 -2.578376,-0.191093 -3.211496,-0.01916 -1.230335,0.334091 -2.734425,1.383332 -3.440216,2.399866 -1.130413,1.628108 -1.381492,2.352678 -1.378314,3.977595 0.0026,1.269779 0.220832,2.16361 0.741359,3.034807 0.647194,1.083202 2.218386,2.490051 3.239627,2.900777 0.772492,0.310683 1.150962,0.36544 2.593969,0.375301 1.03207,0.007 1.288457,-0.01836 1.596638,-0.158288 z m 2.926166,-0.971135 c 0,-0.0483 -0.03951,-0.08783 -0.08783,-0.08783 -0.0483,0 -0.08783,0.03952 -0.08783,0.08783 0,0.0483 0.03951,0.08783 0.08783,0.08783 0.0483,0 0.08783,-0.03952 0.08783,-0.08783 z M 30.8855,70.466157 c 0,-0.0483 -0.04187,-0.08783 -0.09301,-0.08783 -0.05116,0 -0.06857,0.03952 -0.03873,0.08783 0.02983,0.0483 0.07171,0.08783 0.093,0.08783 0.02133,0 0.03873,-0.03952 0.03873,-0.08783 z m 10.494659,0 c 0.02988,-0.0483 0.01243,-0.08783 -0.03873,-0.08783 -0.05115,0 -0.09302,0.03952 -0.09302,0.08783 0,0.0483 0.01744,0.08783 0.03872,0.08783 0.02129,0 0.06316,-0.03952 0.09301,-0.08783 z m -11.19723,-8.343031 c 0,-0.0483 -0.03951,-0.08783 -0.08783,-0.08783 -0.0483,0 -0.08782,0.03952 -0.08782,0.08783 0,0.0483 0.03951,0.08783 0.08782,0.08783 0.0483,0 0.08783,-0.03952 0.08783,-0.08783 z m 10.626392,-1.531692 c 0,-0.0213 -0.03951,-0.06316 -0.08783,-0.09301 -0.0483,-0.02985 -0.08783,-0.01242 -0.08783,0.03873 0,0.05115 0.03951,0.09302 0.08783,0.09302 0.0483,0 0.08783,-0.01742 0.08783,-0.03873 z M 26.64001,71.999624 c -0.413248,-0.285929 -0.584689,-0.671637 -0.584689,-1.315434 0,-0.990176 0.545398,-1.535334 1.536013,-1.535334 1.013405,0 1.537739,0.521571 1.537739,1.529647 0,0.636614 -0.112438,0.935529 -0.481698,1.280638 -0.204099,0.190749 -0.329056,0.223122 -0.952426,0.246754 -0.656827,0.0249 -0.746038,0.0074 -1.054939,-0.206271 z m 0.03005,-0.381016 c 0,-0.112302 -0.258226,-0.308727 -0.32201,-0.244944 -0.06379,0.06379 0.132642,0.322012 0.244944,0.322012 0.04239,0 0.07707,-0.03468 0.07707,-0.07706 z m 2.107715,-0.09857 c 0,-0.0483 -0.03951,-0.08783 -0.08784,-0.08783 -0.0483,0 -0.08782,0.03952 -0.08782,0.08783 0,0.0483 0.03951,0.08782 0.08782,0.08782 0.0483,0 0.08784,-0.03952 0.08784,-0.08782 z m -2.371179,-1.2295 c 0,-0.0483 -0.03951,-0.08783 -0.08782,-0.08783 -0.0483,0 -0.08781,0.03952 -0.08781,0.08783 0,0.0483 0.03951,0.08783 0.08781,0.08783 0.0483,0 0.08782,-0.03952 0.08782,-0.08783 z m 2.261445,-0.548884 c -0.02011,-0.06037 -0.102299,-0.122526 -0.182656,-0.138112 -0.101884,-0.01975 -0.130061,0.01347 -0.0931,0.109778 0.06229,0.162351 0.329519,0.189809 0.275758,0.02834 z m -1.50979,-0.282625 c 0.09377,-0.07091 0.130953,-0.128939 0.08265,-0.128939 -0.0483,0 -0.164532,0.05801 -0.258293,0.128939 -0.09377,0.07091 -0.130953,0.128938 -0.08265,0.128938 0.0483,0 0.164532,-0.05803 0.258296,-0.128938 z m 16.457122,2.565684 c -0.450604,-0.303661 -0.643937,-0.705399 -0.640705,-1.331375 0.0051,-0.991959 0.57431,-1.545905 1.585509,-1.543033 1.004182,0.0028 1.518416,0.540292 1.518416,1.586939 0,1.005547 -0.513096,1.485366 -1.588382,1.485366 -0.457539,0 -0.643654,-0.0421 -0.874838,-0.197897 z m -0.08359,-0.49392 c 0,-0.04239 -0.05928,-0.126267 -0.131734,-0.186397 -0.106834,-0.08867 -0.13173,-0.08517 -0.13173,0.01851 0,0.07032 0.02634,0.154195 0.05854,0.186396 0.0834,0.0834 0.204919,0.07243 0.204919,-0.01851 z m 2.266887,-0.09309 c 0.02197,-0.06587 -0.01098,-0.0988 -0.07685,-0.07685 -0.06339,0.02113 -0.132555,0.09029 -0.153688,0.153688 -0.02198,0.06587 0.01098,0.0988 0.07685,0.07685 0.06339,-0.02113 0.132554,-0.09029 0.153688,-0.153688 z m 0.104287,-1.141984 c 0,-0.04545 -0.03951,-0.107063 -0.08782,-0.136916 -0.0483,-0.02985 -0.08783,0.0073 -0.08783,0.08264 0,0.07531 0.03951,0.136915 0.08783,0.136915 0.0483,0 0.08782,-0.03718 0.08782,-0.08264 z M 43.71583,69.709567 c 0.101859,-0.122733 0.0954,-0.137536 -0.04783,-0.109776 -0.09106,0.01764 -0.182019,0.08148 -0.202123,0.14186 -0.05216,0.156664 0.110655,0.135766 0.249958,-0.03208 z m 1.835844,0.0153 c 0,-0.02129 -0.03951,-0.06316 -0.08783,-0.09301 -0.0483,-0.02985 -0.08783,-0.01242 -0.08783,0.03873 0,0.05115 0.03951,0.09302 0.08783,0.09302 0.0483,0 0.08783,-0.01742 0.08783,-0.03873 z M 20.419227,68.729203 c -0.295793,-0.195079 -0.599238,-0.576212 -0.599238,-0.752652 0,-0.07406 -0.03951,-0.159078 -0.08782,-0.188929 -0.0483,-0.02985 -0.08783,-0.229784 -0.08783,-0.444292 0,-0.214508 0.03951,-0.390013 0.08783,-0.390013 0.0483,0 0.08782,-0.07766 0.08782,-0.172587 0,-0.256576 0.490934,-0.767948 0.851495,-0.886943 0.439597,-0.14508 1.27461,-0.05573 1.592137,0.170374 0.434917,0.309689 0.575618,0.609994 0.581174,1.240442 0.0061,0.696101 -0.125883,1.023098 -0.540701,1.339277 -0.281531,0.214586 -0.391147,0.241444 -0.983329,0.240929 -0.488866,-4.36e-4 -0.729117,-0.04189 -0.901538,-0.155606 z m 1.684116,-0.1951 c 0,-0.0483 -0.03719,-0.08783 -0.08264,-0.08783 -0.04545,0 -0.10706,0.03952 -0.136914,0.08783 -0.02983,0.0483 0.0073,0.08782 0.08264,0.08782 0.07531,0 0.136914,-0.03952 0.136914,-0.08782 z m -1.991408,-1.281947 c -0.07743,-0.201769 -0.291946,-0.141721 -0.291946,0.08172 0,0.112705 0.02856,0.233472 0.06346,0.268373 0.09162,0.09163 0.284554,-0.203994 0.22849,-0.350092 z m 1.025376,-1.177053 c 0,-0.0483 -0.04187,-0.08783 -0.09301,-0.08783 -0.05115,0 -0.06858,0.03952 -0.03873,0.08783 0.02988,0.0483 0.07171,0.08783 0.09301,0.08783 0.02128,0 0.03873,-0.03952 0.03873,-0.08783 z m 28.699575,2.568837 c -0.417129,-0.32513 -0.551294,-0.656934 -0.546871,-1.3525 0.003,-0.492489 0.04003,-0.63161 0.235431,-0.887811 0.342799,-0.449431 0.764669,-0.618292 1.43764,-0.575441 0.595548,0.03792 0.881314,0.186767 1.213667,0.632152 0.146949,0.196934 0.180647,0.370591 0.178833,0.921685 -0.0017,0.573367 -0.03363,0.71896 -0.204043,0.935592 -0.363374,0.461956 -0.610209,0.566561 -1.33841,0.567192 -0.59383,5.24e-4 -0.700241,-0.02574 -0.976247,-0.240869 z m 0.413222,-0.109837 c -0.02988,-0.0483 -0.09147,-0.08783 -0.136914,-0.08783 -0.04546,0 -0.08264,0.03952 -0.08264,0.08783 0,0.0483 0.06161,0.08782 0.136914,0.08782 0.07531,0 0.112489,-0.03952 0.08264,-0.08782 z m 2.0638,-1.18559 c 0,-0.13087 -0.05025,-0.219554 -0.124412,-0.219554 -0.14063,0 -0.221081,0.164946 -0.16063,0.329331 0.07345,0.199718 0.285042,0.118227 0.285042,-0.109777 z m -1.185587,-1.27341 c 0.02988,-0.0483 0.01243,-0.08783 -0.03873,-0.08783 -0.05115,0 -0.09302,0.03952 -0.09302,0.08783 0,0.0483 0.01744,0.08783 0.03872,0.08783 0.02128,0 0.06316,-0.03952 0.09302,-0.08783 z m -25.468207,2.205192 c -0.466477,-0.215292 -0.708691,-0.497331 -0.834756,-0.972003 -0.204497,-0.769982 0.14172,-1.633316 0.758301,-1.89094 0.491674,-0.205435 1.26325,-0.173506 1.620208,0.06704 0.486682,0.327976 0.695691,0.717197 0.695691,1.295536 0,0.843273 -0.281375,1.304832 -0.938267,1.539108 -0.462906,0.165095 -0.886869,0.152467 -1.301177,-0.03875 z m 0.834303,-0.05356 c 0,-0.07246 -0.05928,-0.131733 -0.131734,-0.131733 -0.07246,0 -0.13173,0.05928 -0.13173,0.131733 0,0.07246 0.05928,0.131731 0.13173,0.131731 0.07246,0 0.131734,-0.05928 0.131734,-0.131731 z m -0.570839,-0.131737 c -0.02988,-0.04831 -0.0938,-0.08783 -0.1421,-0.08783 -0.0483,0 -0.0634,0.03952 -0.03354,0.08783 0.02988,0.0483 0.09379,0.08783 0.142097,0.08783 0.0483,0 0.0634,-0.03952 0.03354,-0.08783 z m 1.536871,-0.362039 c 0,-0.04239 -0.05505,-0.07707 -0.122336,-0.07707 -0.13187,0 -0.249972,0.21317 -0.165113,0.298027 0.06193,0.06194 0.287449,-0.111418 0.287449,-0.220957 z m -2.107713,-0.07188 c 0,-0.103617 -0.171284,-0.21446 -0.234191,-0.151552 -0.0629,0.06291 0.04793,0.234189 0.151551,0.234189 0.04546,0 0.08264,-0.03718 0.08264,-0.08264 z m 19.824851,0.659686 c -0.181589,-0.0648 -0.391954,-0.169101 -0.467481,-0.23178 -0.489115,-0.405929 -0.641119,-1.56689 -0.27608,-2.108575 0.330818,-0.490898 0.716183,-0.695693 1.309088,-0.695693 0.69126,0 1.061069,0.169316 1.361553,0.623379 0.204597,0.309163 0.246759,0.465893 0.243998,0.907082 -0.0047,0.756587 -0.207649,1.128258 -0.768615,1.407799 -0.495892,0.247112 -0.904208,0.275583 -1.402463,0.09779 z m 0.813183,-0.09403 c 0,-0.07319 -0.07806,-0.131732 -0.175645,-0.131732 -0.09758,0 -0.175644,0.05855 -0.175644,0.131732 0,0.07319 0.07806,0.131732 0.175644,0.131732 0.09758,0 0.175645,-0.05855 0.175645,-0.131732 z m -0.966038,-0.301109 c 0,-0.04485 -0.0674,-0.148943 -0.149767,-0.231315 -0.17898,-0.178981 -0.277401,-0.01612 -0.111245,0.184084 0.120359,0.145025 0.261012,0.170478 0.261012,0.04723 z m 2.019895,-0.357558 c 0,-0.0483 -0.03951,-0.08783 -0.08783,-0.08783 -0.0483,0 -0.08783,0.03952 -0.08783,0.08783 0,0.0483 0.03951,0.08783 0.08783,0.08783 0.0483,0 0.08783,-0.03952 0.08783,-0.08783 z M 25.923578,64.184003 c -0.289185,-0.143433 -0.658663,-0.62515 -0.658663,-0.858754 0,-0.08154 -0.03951,-0.148252 -0.08782,-0.148252 -0.100886,0 -0.121635,-0.760729 -0.02194,-0.805029 0.03624,-0.0161 0.144904,-0.186129 0.24151,-0.377841 0.266343,-0.528569 0.657228,-0.7492 1.327327,-0.7492 1.04506,0 1.543399,0.462933 1.596817,1.483358 0.027,0.515363 0.003,0.622181 -0.214396,0.952682 -0.13463,0.20473 -0.370656,0.431968 -0.524504,0.504972 -0.359662,0.170674 -1.312551,0.169559 -1.658314,-0.0019 z m 2.239444,-1.056099 c 0,-0.07531 -0.03951,-0.112491 -0.08782,-0.08264 -0.0483,0.02985 -0.08783,0.09147 -0.08783,0.136914 0,0.04546 0.03951,0.08264 0.08783,0.08264 0.0483,0 0.08782,-0.0616 0.08782,-0.136914 z m -2.612458,-0.201897 c 0.05157,-0.197195 -0.08826,-0.475388 -0.203227,-0.404333 -0.04534,0.02801 -0.08242,0.14082 -0.08242,0.250673 0,0.329199 0.210179,0.442261 0.285649,0.15366 z m 0.241279,-0.978509 c 0,-0.0483 -0.01744,-0.08782 -0.03871,-0.08782 -0.02128,0 -0.06316,0.03952 -0.093,0.08782 -0.02988,0.0483 -0.01243,0.08783 0.03873,0.08783 0.05115,0 0.09301,-0.03952 0.09301,-0.08783 z m 1.631107,-0.397081 c -0.18048,-0.136542 -0.281331,-0.11484 -0.185665,0.03995 0.03183,0.05151 0.124717,0.09242 0.206392,0.09088 0.130383,-0.0024 0.127854,-0.01841 -0.02072,-0.130824 z m 17.115048,2.63239 c -0.428817,-0.211644 -0.742767,-0.777795 -0.742767,-1.339446 0,-0.604284 0.201169,-1.025275 0.642776,-1.345176 0.298635,-0.216328 0.431573,-0.253258 0.91164,-0.253258 0.66332,0 0.976568,0.139279 1.316963,0.585557 0.211574,0.277387 0.245847,0.402791 0.246046,0.900262 2.67e-4,0.70701 -0.224609,1.191894 -0.661488,1.426197 -0.37649,0.201914 -1.327386,0.216271 -1.71317,0.02586 z m 0.200271,-0.276057 c -0.08166,-0.08165 -0.17312,-0.1238 -0.203258,-0.09366 -0.08643,0.08643 0.04626,0.242124 0.20635,0.242124 0.134054,0 0.133814,-0.01155 -0.003,-0.14846 z M 44.14652,63.182179 c 0,-0.04545 -0.03951,-0.107063 -0.08783,-0.136914 -0.0483,-0.02985 -0.08783,0.0073 -0.08783,0.08264 0,0.07531 0.03951,0.136915 0.08783,0.136915 0.0483,0 0.08783,-0.03719 0.08783,-0.08264 z m 2.722463,-0.405562 c 0,-0.1264 -0.05106,-0.21437 -0.124413,-0.21437 -0.164,0 -0.223082,0.1808 -0.122776,0.375701 0.104943,0.203917 0.247189,0.11108 0.247189,-0.161331 z m -1.88816,-1.268227 c 0.02983,-0.0483 0.01243,-0.08783 -0.03873,-0.08783 -0.05115,0 -0.09301,0.03952 -0.09301,0.08783 0,0.0483 0.01744,0.08783 0.03873,0.08783 0.02128,0 0.06316,-0.03952 0.09302,-0.08783 z m -23.566119,1.234131 c -0.783421,-0.196364 -1.211132,-1.135207 -0.9408,-2.065108 0.207374,-0.713353 0.577916,-0.969362 1.403022,-0.969362 0.772224,0 1.100423,0.144904 1.399729,0.618008 0.187023,0.295614 0.231831,0.473 0.231831,0.917709 0,0.637827 -0.19274,1.030524 -0.642096,1.308243 -0.329044,0.203359 -1.032241,0.295643 -1.451686,0.19051 z m 1.886179,-1.11972 c -0.03597,-0.03597 -0.102174,-0.0073 -0.147114,0.06378 -0.135214,0.213807 -0.09466,0.308827 0.06408,0.1501 0.08165,-0.08166 0.119027,-0.177897 0.08304,-0.213874 z m 0.03196,-0.816983 c 0,-0.0483 -0.03951,-0.08782 -0.08783,-0.08782 -0.0483,0 -0.08782,0.03952 -0.08782,0.08782 0,0.0483 0.03951,0.08783 0.08782,0.08783 0.0483,0 0.08783,-0.03952 0.08783,-0.08783 z m -2.11723,-0.619867 c 0.11552,-0.0962 0.188113,-0.196846 0.161306,-0.22365 -0.06244,-0.06245 -0.503074,0.223691 -0.503074,0.326689 0,0.121426 0.113222,0.08729 0.341768,-0.103039 z m 0.975552,-0.30809 c 0,-0.09749 -0.06838,-0.12947 -0.234739,-0.109778 -0.341898,0.04047 -0.372045,0.247343 -0.03606,0.247343 0.187252,0 0.270786,-0.04244 0.270786,-0.137565 z m 27.530173,2.866245 c -0.718191,-0.172239 -1.09593,-0.689368 -1.09593,-1.500338 0,-1.134796 0.754325,-1.723506 1.974002,-1.540605 0.543717,0.08154 0.952614,0.489343 1.097906,1.094983 0.310956,1.2962 -0.667481,2.259769 -1.975979,1.94596 z m -0.752245,-1.074274 c -0.06938,-0.12964 -0.123423,-0.163571 -0.147151,-0.09239 -0.03855,0.115683 0.149349,0.404732 0.218291,0.335786 0.0212,-0.02119 -0.01082,-0.130709 -0.07113,-0.243397 z m 0.0076,-0.864014 c 0,-0.0483 -0.03951,-0.08782 -0.08783,-0.08782 -0.0483,0 -0.08782,0.03952 -0.08782,0.08782 0,0.0483 0.03951,0.08783 0.08782,0.08783 0.0483,0 0.08783,-0.03952 0.08783,-0.08783 z m 2.283358,-0.516828 c 0,-0.098 -0.439147,-0.39062 -0.497958,-0.331811 -0.06238,0.06238 0.257163,0.393479 0.388181,0.402215 0.06037,0.004 0.109777,-0.02766 0.109777,-0.0704 z m -0.811806,-0.383341 c -0.05596,-0.170432 -0.505517,-0.195144 -0.505517,-0.02779 0,0.09513 0.08352,0.137566 0.270782,0.137566 0.177301,0 0.25834,-0.0379 0.234735,-0.109776 z m -22.454628,0.746345 c -0.504287,-0.257142 -0.660477,-0.556238 -0.690941,-1.323112 -0.0307,-0.772964 0.119026,-1.117399 0.618031,-1.421645 0.406546,-0.247875 1.381675,-0.2452 1.786347,0.0049 0.503941,0.311453 0.675316,0.694479 0.63834,1.426703 -0.03689,0.730668 -0.234472,1.09264 -0.722913,1.324418 -0.402865,0.191171 -1.243258,0.18536 -1.628864,-0.01127 z m 1.574542,-0.197462 c 0,-0.0483 -0.03951,-0.08783 -0.08783,-0.08783 -0.0483,0 -0.08783,0.03952 -0.08783,0.08783 0,0.0483 0.03951,0.08783 0.08783,0.08783 0.0483,0 0.08783,-0.03952 0.08783,-0.08783 z M 29.8313,58.302563 c -0.113266,-0.120564 -0.266713,-0.219208 -0.340997,-0.219208 -0.08272,0 -0.01723,0.09878 0.168995,0.254897 0.358434,0.300482 0.466713,0.278014 0.172002,-0.03568 z m -1.800013,-0.04356 c 0.02983,-0.0483 -0.0073,-0.08783 -0.08264,-0.08783 -0.07531,0 -0.136916,0.03952 -0.136916,0.08783 0,0.0483 0.0372,0.08783 0.08264,0.08783 0.04545,0 0.107061,-0.03952 0.136916,-0.08783 z m 14.472376,2.393132 c -0.451061,-0.248578 -0.652108,-0.580988 -0.705145,-1.165877 -0.05852,-0.645391 0.128539,-1.175471 0.525773,-1.489894 0.224098,-0.177382 0.39685,-0.224814 0.913903,-0.250924 0.542746,-0.02741 0.685168,-0.0028 0.957633,0.165616 0.499626,0.308786 0.65255,0.635158 0.652928,1.393513 2.66e-4,0.567392 -0.02917,0.689035 -0.230801,0.953399 -0.127119,0.166666 -0.362971,0.358114 -0.524107,0.425442 -0.4146,0.173229 -1.248868,0.156823 -1.590184,-0.03126 z m 0.237709,-0.197598 c 0,-0.0483 -0.03951,-0.08783 -0.08782,-0.08783 -0.0483,0 -0.08783,0.03952 -0.08783,0.08783 0,0.0483 0.03951,0.08783 0.08783,0.08783 0.0483,0 0.08782,-0.03952 0.08782,-0.08783 z M 42.12662,59.263766 c 0,-0.132004 -0.05061,-0.214371 -0.13173,-0.214371 -0.131446,0 -0.188675,0.352889 -0.07558,0.465994 0.09953,0.09954 0.2073,-0.03126 0.2073,-0.251623 z M 31.214089,58.23931 c -0.488271,-0.283003 -0.715172,-0.806453 -0.658054,-1.518066 0.07817,-0.973822 0.514016,-1.360581 1.532624,-1.360022 1.060424,5.67e-4 1.518385,0.466552 1.518952,1.545515 3.54e-4,0.72349 -0.18962,1.093617 -0.700872,1.365295 -0.438459,0.232997 -1.261659,0.217084 -1.69265,-0.03273 z m 2.058482,-0.579005 c 0.08589,-0.153735 0.135305,-0.279519 0.109816,-0.279519 -0.06901,0 -0.47103,0.471485 -0.474244,0.556203 -0.006,0.157287 0.216232,-0.01141 0.364428,-0.276684 z m -2.387095,-0.542983 c 0,-0.0483 -0.03951,-0.08783 -0.08783,-0.08783 -0.0483,0 -0.08783,0.03952 -0.08783,0.08783 0,0.0483 0.03951,0.08782 0.08783,0.08782 0.0483,0 0.08783,-0.03952 0.08783,-0.08782 z m 0.422642,-1.311833 c 0.02194,-0.06587 -0.01098,-0.09879 -0.07685,-0.07685 -0.06339,0.02113 -0.132554,0.09029 -0.153686,0.153687 -0.02194,0.06587 0.01098,0.0988 0.07685,0.07685 0.06339,-0.02113 0.132555,-0.09029 0.153688,-0.153688 z m 7.935954,2.486946 c -0.495089,-0.253449 -0.718132,-0.680662 -0.718132,-1.375503 0,-0.691457 0.132406,-1.008029 0.55708,-1.331945 0.254682,-0.194255 0.381593,-0.224093 0.953143,-0.224093 0.761968,0 1.124804,0.181609 1.400914,0.7012 0.338921,0.637788 0.141695,1.721087 -0.384117,2.109837 -0.371022,0.274308 -1.377466,0.341355 -1.808888,0.120504 z m 1.565222,-0.209077 c 0,-0.0483 -0.03951,-0.08782 -0.08782,-0.08782 -0.0483,0 -0.08783,0.03952 -0.08783,0.08782 0,0.0483 0.03951,0.08783 0.08783,0.08783 0.0483,0 0.08782,-0.03952 0.08782,-0.08783 z m -1.580781,-0.219554 c 0,-0.07246 -0.05928,-0.131732 -0.131734,-0.131732 -0.137142,0 -0.174236,0.103865 -0.07319,0.204917 0.101052,0.10105 0.20492,0.06396 0.20492,-0.07319 z m 2.195534,-0.746482 c 0,-0.0483 -0.03951,-0.08783 -0.08782,-0.08783 -0.0483,0 -0.08782,0.03952 -0.08782,0.08783 0,0.0483 0.03951,0.08782 0.08782,0.08782 0.0483,0 0.08782,-0.03952 0.08782,-0.08782 z m -0.487719,-1.375529 c -0.296769,-0.217002 -0.451747,-0.130511 -0.170943,0.0954 0.152936,0.12304 0.277745,0.172124 0.297505,0.116999 0.0187,-0.05224 -0.03825,-0.14781 -0.126562,-0.212401 z m -5.462445,1.785469 c -0.391499,-0.142012 -0.810713,-0.556763 -0.871879,-0.862605 -0.02791,-0.139459 -0.08513,-0.27483 -0.127191,-0.300828 -0.105691,-0.06532 -0.09649,-0.628911 0.01134,-0.695561 0.0483,-0.02985 0.08783,-0.12795 0.08783,-0.217998 0,-0.21198 0.390766,-0.674617 0.708668,-0.839012 0.316694,-0.163769 1.246357,-0.166867 1.557092,-0.0052 0.36514,0.18998 0.606381,0.494048 0.765986,0.96548 0.136588,0.403429 0.136113,0.460546 -0.0076,0.91759 -0.292962,0.931404 -1.198439,1.373925 -2.124192,1.038122 z M 34.83744,56.063465 c 0,-0.09758 -0.05855,-0.175643 -0.131729,-0.175643 -0.07319,0 -0.131735,0.07806 -0.131735,0.175643 0,0.09758 0.05855,0.175644 0.131735,0.175644 0.07319,0 0.131729,-0.07806 0.131729,-0.175644 z m 2.706947,-0.02924 c 0.0168,-0.08666 -0.028,-0.14641 -0.109778,-0.14641 -0.08147,0 -0.138171,0.07507 -0.138171,0.182961 0,0.214026 0.20522,0.183772 0.247949,-0.03655 z m -2.132494,-1.118287 c 0.09452,-0.152938 -0.01313,-0.185326 -0.133582,-0.04019 -0.06927,0.08346 -0.07593,0.133854 -0.01771,0.133854 0.05137,0 0.11944,-0.04215 0.151279,-0.09366 z m 1.489355,0.0058 c -0.02987,-0.0483 -0.0938,-0.08783 -0.142099,-0.08783 -0.0483,0 -0.06339,0.03952 -0.03354,0.08783 0.02988,0.0483 0.09379,0.08782 0.142096,0.08782 0.0483,0 0.0634,-0.03952 0.03354,-0.08782 z M 24.145622,57.230759 C 23.672285,56.91946 23.50848,56.574195 23.50848,55.887806 c 0,-0.949462 0.351878,-1.389475 1.262299,-1.578478 0.438024,-0.09093 0.548276,-0.08493 0.829005,0.04512 0.717801,0.332559 0.982447,0.752761 0.982447,1.55991 0,0.438465 -0.04348,0.626119 -0.197596,0.852545 -0.339227,0.498423 -0.622027,0.649258 -1.27622,0.680688 -0.524142,0.02517 -0.631596,9.4e-4 -0.962793,-0.216842 z m -0.110213,-0.547362 c 0,-0.103617 -0.171283,-0.214459 -0.23419,-0.151552 -0.0629,0.06291 0.04793,0.23419 0.151551,0.23419 0.04546,0 0.08264,-0.03719 0.08264,-0.08264 z m 2.371178,-0.366834 c 0,-0.0483 -0.03951,-0.06339 -0.08782,-0.03354 -0.0483,0.02985 -0.08781,0.0938 -0.08781,0.142098 0,0.0483 0.03951,0.0634 0.08781,0.03354 0.0483,-0.02985 0.08782,-0.0938 0.08782,-0.142098 z m -0.614749,-1.57042 c 0,-0.0483 -0.04187,-0.08782 -0.09301,-0.08782 -0.05116,0 -0.06858,0.03952 -0.03873,0.08782 0.02983,0.0483 0.07171,0.08783 0.09301,0.08783 0.02133,0 0.03871,-0.03952 0.03871,-0.08783 z m -1.317321,-0.08782 c 0,-0.0483 -0.01744,-0.08783 -0.03872,-0.08783 -0.02129,0 -0.06316,0.03952 -0.09301,0.08783 -0.02988,0.0483 -0.01243,0.08782 0.03873,0.08782 0.05115,0 0.09301,-0.03952 0.09301,-0.08782 z m 0.797762,-0.131732 c 8.72e-4,-0.0483 -0.06177,-0.101044 -0.139592,-0.117203 -0.20576,-0.04272 -0.415216,0.05688 -0.348066,0.165525 0.07082,0.114617 0.485008,0.07356 0.487658,-0.04832 z m 21.080331,2.796665 c -0.163246,-0.08309 -0.410243,-0.307674 -0.54888,-0.49906 -0.215042,-0.296856 -0.252075,-0.430544 -0.252075,-0.91 0,-0.321683 0.05498,-0.668352 0.128578,-0.810667 0.166032,-0.321066 0.627761,-0.70867 0.844198,-0.70867 0.0929,0 0.168902,-0.03952 0.168902,-0.08783 0,-0.0483 0.175509,-0.08782 0.390013,-0.08782 0.214509,0 0.414439,0.03952 0.444289,0.08782 0.02988,0.0483 0.122181,0.08783 0.205169,0.08783 0.200689,0 0.695721,0.459641 0.805228,0.747656 0.131365,0.345516 0.105116,1.252599 -0.04532,1.566339 -0.304967,0.636 -1.451197,0.965072 -2.140099,0.614402 z m 1.992865,-0.727373 c 0.02194,-0.06587 -0.01099,-0.0988 -0.07685,-0.07685 -0.0634,0.02114 -0.13256,0.09029 -0.153689,0.153687 -0.02198,0.06587 0.01099,0.0988 0.07685,0.07685 0.06339,-0.02114 0.132555,-0.09029 0.153686,-0.153688 z m -1.031929,-2.069269 c 0,-0.0483 -0.100023,-0.100327 -0.222285,-0.11561 -0.158422,-0.01982 -0.222283,0.0134 -0.222283,0.11561 0,0.102199 0.06386,0.135415 0.222283,0.11561 0.122254,-0.01529 0.222285,-0.06731 0.222285,-0.11561 z M 29.260803,53.696323 c -0.270486,-0.11188 -0.540888,-0.44469 -0.74057,-0.911489 -0.199968,-0.467478 -0.217425,-0.601306 -0.108042,-0.828214 0.04042,-0.08387 0.149113,-0.30935 0.241512,-0.501061 0.255136,-0.52938 0.646147,-0.749202 1.332653,-0.749202 1.029407,0 1.601715,0.544093 1.601715,1.522744 0,0.734533 -0.305782,1.262241 -0.851672,1.469787 -0.260639,0.09909 -1.233911,0.0974 -1.475596,-0.0026 z m 0.04391,-0.355322 c 0,-0.0483 -0.04187,-0.08783 -0.09301,-0.08783 -0.05115,0 -0.06857,0.03952 -0.03871,0.08783 0.02988,0.0483 0.07171,0.08783 0.09301,0.08783 0.02129,0 0.03873,-0.03952 0.03873,-0.08783 z m -0.510825,-0.633779 c -0.06302,-0.06303 -0.10392,-0.06821 -0.10392,-0.01317 0,0.117221 0.103854,0.22108 0.162469,0.162469 0.02495,-0.02496 -0.0013,-0.09213 -0.05855,-0.149297 z m -0.01609,-0.469173 c 0,-0.06959 -0.05928,-0.126549 -0.13173,-0.126549 -0.13228,0 -0.180533,0.185391 -0.07558,0.290351 0.08196,0.08196 0.207304,-0.01709 0.207303,-0.163802 z m 0.441381,-1.077191 c -0.133388,-0.04446 -0.353551,0.153587 -0.353551,0.318042 0,0.103666 0.0538,0.08574 0.224773,-0.07488 0.123628,-0.116141 0.181576,-0.225567 0.128778,-0.243165 z m 12.074662,2.486203 c -0.529239,-0.285331 -0.74797,-0.698337 -0.74797,-1.412323 0,-0.565665 0.128481,-0.851054 0.559575,-1.242961 0.292097,-0.265543 0.357236,-0.28542 0.935411,-0.28542 0.967131,0 1.422062,0.329951 1.595586,1.15725 0.134246,0.640015 -0.01015,1.175735 -0.425477,1.578258 -0.282736,0.27404 -0.347425,0.295182 -0.978944,0.319933 -0.494724,0.0194 -0.746514,-0.0114 -0.938181,-0.114737 z m 2.325781,-1.403829 c 0,-0.07246 -0.05928,-0.131732 -0.131734,-0.131732 -0.07246,0 -0.131729,0.05928 -0.131729,0.131732 0,0.07246 0.05928,0.131732 0.131729,0.131732 0.07246,0 0.131734,-0.05928 0.131734,-0.131732 z m -0.487628,-1.015028 c -0.171052,-0.189014 -0.302773,-0.221583 -0.302773,-0.07486 0,0.134399 0.388444,0.436714 0.426166,0.331669 0.017,-0.04743 -0.03851,-0.162999 -0.123393,-0.256809 z m -1.40054,-0.258382 c 0.02983,-0.0483 0.01473,-0.08783 -0.03353,-0.08783 -0.0483,0 -0.112251,0.03952 -0.1421,0.08783 -0.02988,0.0483 -0.01473,0.08783 0.03354,0.08783 0.0483,0 0.112247,-0.03952 0.142101,-0.08783 z m -6.449902,1.383186 c -0.359383,-0.185156 -0.460886,-0.316962 -0.810684,-1.052665 -0.03986,-0.08388 -0.0725,-0.232607 -0.0725,-0.330521 0,-0.09791 0.03261,-0.246649 0.0725,-0.330522 0.333863,-0.702186 0.459527,-0.870008 0.77179,-1.030711 0.187711,-0.0966 0.354468,-0.205282 0.370567,-0.241508 0.03948,-0.08875 0.892853,-0.08463 0.892853,0.0043 0,0.0386 0.138235,0.120165 0.307191,0.181261 0.345738,0.125021 0.746667,0.59292 0.746667,0.87139 0,0.101269 0.03951,0.20855 0.08781,0.238402 0.106833,0.06603 0.114975,0.429073 0.0143,0.637898 -0.04042,0.08387 -0.149113,0.310573 -0.241512,0.50378 -0.209568,0.438225 -0.768528,0.746482 -1.353578,0.746482 -0.24459,0 -0.552008,-0.07733 -0.785421,-0.197598 z m 1.019752,-0.03644 c -0.094,-0.09399 -0.497794,-0.112995 -0.497794,-0.02342 0,0.045 0.125145,0.08183 0.278099,0.08183 0.152954,0 0.251816,-0.02629 0.219695,-0.05841 z m 0.907348,-0.54717 c 0,-0.09549 -0.04061,-0.08746 -0.175646,0.03474 -0.0966,0.08742 -0.175644,0.192684 -0.175644,0.23391 0,0.04122 0.07903,0.0256 0.175644,-0.03474 0.0966,-0.06033 0.175646,-0.165588 0.175646,-0.23391 z m -2.371179,-0.799565 c 0,-0.09758 -0.05855,-0.175643 -0.131735,-0.175643 -0.07319,0 -0.131729,0.07806 -0.131729,0.175643 0,0.09758 0.05855,0.175643 0.131729,0.175643 0.07319,0 0.131735,-0.07806 0.131735,-0.175643 z m 2.722463,0 c 0,-0.09758 -0.05855,-0.175643 -0.13173,-0.175643 -0.07319,0 -0.131734,0.07806 -0.131734,0.175643 0,0.09758 0.05855,0.175643 0.131734,0.175643 0.07319,0 0.13173,-0.07806 0.13173,-0.175643 z m -0.450361,-0.974849 c -0.21914,-0.138818 -0.282081,-0.08194 -0.114382,0.103372 0.106633,0.117828 0.177407,0.145318 0.19996,0.07766 0.01919,-0.05759 -0.01931,-0.13906 -0.08558,-0.181037 z m -1.832994,-0.079 c 0,-0.0483 -0.01744,-0.08783 -0.03872,-0.08783 -0.02129,0 -0.06316,0.03952 -0.09301,0.08783 -0.02983,0.0483 -0.01243,0.08783 0.03872,0.08783 0.05115,0 0.09302,-0.03952 0.09302,-0.08783 z m 1.097767,-0.307374 c 0,-0.1043 -0.35288,-0.166764 -0.538882,-0.09538 -0.07201,0.02762 -0.104941,0.09225 -0.0732,0.143626 0.07135,0.115438 0.612075,0.07282 0.612075,-0.04824 z"
     id="path5" /></svg>
