<?xml version="1.0" encoding="UTF-8" standalone="no"?>
<svg
   viewBox="0 0 72 96"
   version="1.1"
   id="svg4"
   sodipodi:docname="inspire_iso19139.svg"
   xml:space="preserve"
   inkscape:version="1.3 (0e150ed6c4, 2023-07-21)"
   xmlns:inkscape="http://www.inkscape.org/namespaces/inkscape"
   xmlns:sodipodi="http://sodipodi.sourceforge.net/DTD/sodipodi-0.dtd"
   xmlns="http://www.w3.org/2000/svg"
   xmlns:svg="http://www.w3.org/2000/svg"><defs
     id="defs4" /><sodipodi:namedview
     id="namedview4"
     pagecolor="#ffffff"
     bordercolor="#666666"
     borderopacity="1.0"
     inkscape:showpageshadow="2"
     inkscape:pageopacity="0.0"
     inkscape:pagecheckerboard="0"
     inkscape:deskcolor="#d1d1d1"
     inkscape:zoom="5.12"
     inkscape:cx="20.214844"
     inkscape:cy="43.164062"
     inkscape:window-width="1718"
     inkscape:window-height="1078"
     inkscape:window-x="664"
     inkscape:window-y="83"
     inkscape:window-maximized="0"
     inkscape:current-layer="svg4"
     showguides="true"><sodipodi:guide
       position="5.7478621,23.347024"
       orientation="1,0"
       id="guide4"
       inkscape:locked="false" /><sodipodi:guide
       position="5.6900931,117.29721"
       orientation="0.70710678,-0.70710678"
       id="guide2"
       inkscape:locked="false" /></sodipodi:namedview><style
     id="style1">.st0{fill:#999}</style><path
     class="st0"
     d="M0 2v92c0 1.1.9 2 2 2h68c1.1 0 2-.9 2-2V28H50c-1.1 0-2-.9-2-2V0H2C.9 0 0 .9 0 2z"
     id="path1"
     style="fill:#335f9f;fill-opacity:1" /><rect
     style="fill:#ffffff;fill-opacity:1;stroke:none;stroke-opacity:1"
     id="rect4"
     width="60.237595"
     height="49.54657"
     x="4.2612624"
     y="40.809822" /><path
     class="st0"
     d="M71.9 24c-.1-.4-.2-.7-.4-1L52 1.2V24h19.9z"
     id="path2"
     style="fill:#335f9f;fill-opacity:1" /><text
     xml:space="preserve"
     style="font-style:normal;font-variant:normal;font-weight:normal;font-stretch:normal;font-size:9.33333px;line-height:0.9;font-family:'Lucida Sans';-inkscape-font-specification:'Lucida Sans';letter-spacing:0px;word-spacing:0px;stroke-width:0.626177"
     x="5.1706877"
     y="11.796076"
     id="text4"><tspan
       sodipodi:role="line"
       id="tspan4"
       x="5.1706877"
       y="11.796076"
       style="font-style:normal;font-variant:normal;font-weight:bold;font-stretch:normal;font-size:10px;line-height:0.9;font-family:'Open Sans';-inkscape-font-specification:'Open Sans Bold';fill:#ffffff;fill-opacity:1;stroke:none;stroke-width:0.626177;stroke-opacity:1">INSPIRE</tspan><tspan
       sodipodi:role="line"
       x="5.1706877"
       y="20.591269"
       style="font-style:normal;font-variant:normal;font-weight:bold;font-stretch:normal;font-size:8px;line-height:0.9;font-family:'Open Sans';-inkscape-font-specification:'Open Sans Bold';fill:#ffffff;fill-opacity:1;stroke:none;stroke-width:0.626177;stroke-opacity:1"
       id="tspan2">ISO 19139</tspan><tspan
       sodipodi:role="line"
       x="5.1706877"
       y="29.00856"
       style="font-style:normal;font-variant:normal;font-weight:bold;font-stretch:normal;font-size:9.33333px;line-height:0.9;font-family:'Open Sans';-inkscape-font-specification:'Open Sans Bold';fill:#ffffff;fill-opacity:1;stroke:none;stroke-width:0.626177;stroke-opacity:1"
       id="tspan1" /></text><path
     style="fill:#335f9f;fill-opacity:1;stroke:none;stroke-width:0.994714"
     d="m 23.241087,50.062957 1.493106,1.959701 c -1.707707,0.07331 -3.112856,1.278928 -3.707741,2.799572 -0.190774,0.487654 -0.396724,0.903196 -0.280821,1.446446 0.185055,0.867381 0.997582,1.520196 1.702244,1.974064 0.382807,0.246564 0.853625,0.558146 1.306467,0.638869 -0.566489,0.764195 -1.158744,1.495224 -1.618826,2.332977 -1.557619,2.83622 -2.115349,6.096305 -1.580376,9.285246 0.247274,1.473983 0.756252,2.939581 1.47928,4.246019 0.705443,1.274662 1.582818,2.498227 2.653114,3.49529 4.596915,4.282382 11.450248,5.064723 16.890751,1.943929 1.162011,-0.666556 2.237957,-1.554165 3.134108,-2.546329 1.44507,-1.599891 2.538146,-3.476904 3.145127,-5.552485 1.510132,-5.163903 -0.185998,-10.953732 -4.226216,-14.497758 -2.466234,-2.163349 -5.67615,-3.431731 -8.958631,-3.512138 -1.29758,-0.03178 -2.505889,0.254791 -3.779422,0.419253 0.154274,-1.954719 0.381728,-4.943491 -2.146338,-5.369555 -0.328537,-0.05537 -0.651317,-0.05537 -0.97985,0 -0.423428,0.07136 -0.813189,0.226679 -1.166489,0.47214 -0.551923,0.383461 -0.920521,0.898028 -1.353127,1.39795 l -0.373276,-1.913041 -1.633084,0.97985 m 0.466596,2.659593 -0.04667,0.04667 0.04667,-0.04667 m 2.006359,1.026511 -0.04666,0.04667 0.04666,-0.04667 m 1.633085,0.699893 -0.04667,0.04666 0.04667,-0.04666 m 17.077389,7.045588 c 0.307655,0.179569 0.803468,0.284937 1.046849,0.542992 0.221154,0.234491 0.220098,0.872332 0.259618,1.183412 l 0.699893,-0.746554 h 0.09331 c 0.57208,1.474553 1.097863,2.974131 1.166489,4.572636 -0.389103,-0.109213 -0.700514,-0.560536 -0.979851,-0.839872 -0.01397,0.325517 0.0066,0.986626 -0.212958,1.24159 -0.228821,0.265676 -0.706272,0.384293 -1.00019,0.578131 l 1.073711,0.53277 0.232757,1.193634 0.886531,-0.886532 c -3.9e-4,3.432363 -1.903139,6.972342 -4.432656,9.199164 -0.803852,0.70766 -1.714799,1.431919 -2.706253,1.859145 -0.236658,-0.534563 0.167352,-0.951844 0.373277,-1.446445 -0.296368,0.100359 -0.909455,0.308972 -1.213149,0.20446 -0.334075,-0.114968 -0.641133,-0.565633 -0.886531,-0.811034 l -0.183759,1.19781 -1.029389,0.575252 v 0.04667 c 0.563149,0.191759 1.152827,0.364585 1.166488,1.026509 -1.266058,0.292899 -2.426597,0.614625 -3.732762,0.704069 -0.374358,0.02563 -0.792324,0.105069 -1.165805,0.02643 -0.219416,-0.04621 -0.310389,-0.223846 -0.413599,-0.40388 -0.380852,-0.664328 -0.140973,-1.050528 0.226277,-1.679743 l -1.213148,0.158305 -0.886531,-0.764878 -0.214611,1.194929 -0.998537,0.624792 c 0.356177,0.06349 0.882885,0.283506 1.119829,0.559915 -3.0085,-0.405128 -5.782838,-2.493583 -7.655909,-4.759272 -0.488051,-0.590354 -0.902057,-1.242488 -1.270319,-1.913042 -0.154023,-0.280456 -0.362372,-0.553598 -0.31236,-0.886531 l 1.259808,0.186638 c -0.172898,-0.293182 -0.535184,-0.728363 -0.558619,-1.07317 -0.02228,-0.327901 0.349954,-0.842263 0.511959,-1.119829 l -1.213148,0.197225 -0.886531,-0.803798 -0.04667,0.139978 h -0.04666 c -0.107026,-0.828741 -0.524809,-1.705362 0.0854,-2.379636 0.109865,-0.1214 0.211837,-0.28538 0.381377,-0.325285 0.33758,-0.07945 0.824511,0.09541 1.166308,0.138648 l -0.531761,-1.07317 0.485101,-1.119829 c -0.316665,0.08193 -0.794198,0.258054 -1.119829,0.210543 -1.021447,-0.149034 -0.43395,-1.63326 -0.266384,-2.216903 0.403793,-1.406438 1.046664,-2.711729 1.868865,-3.9194 0.310529,-0.456113 0.699979,-0.852414 1.010453,-1.306468 0.999046,0.134643 1.915814,0.421987 2.939551,0.445356 1.749144,0.03993 3.166698,-0.612338 4.759273,-1.191908 v -0.04667 l -0.419936,-0.04667 v -0.04667 c 0.525665,-0.249079 1.183114,-0.44966 1.586424,-0.88653 -1.419721,-0.0293 -2.108116,-0.854822 -2.426297,-2.146341 0.801188,-0.402095 2.008854,-0.466594 2.892893,-0.466594 -0.05585,0.231934 -0.02106,0.579858 -0.141276,0.783276 -0.171959,0.290973 -0.770699,0.491118 -1.071873,0.616509 0.299701,0.159777 0.861338,0.279308 1.07605,0.543535 0.195713,0.240844 0.217393,0.879553 0.230418,1.182868 l 0.847792,-0.834398 1.251886,0.134505 -0.5651,-1.073169 0.51844,-1.119828 c -0.620258,0.116864 -1.341026,0.446383 -1.679744,-0.279958 3.260182,0 6.421931,1.108945 8.911972,3.232181 0.731611,0.623837 1.371752,1.326934 1.959196,2.087007 0.146802,0.18994 0.538122,0.572792 0.465838,0.835513 -0.08739,0.317621 -0.795243,0.542403 -1.071908,0.65759 m -18.383856,-5.505825 -0.04667,0.04667 0.04667,-0.04667 m 4.712612,0.513256 -0.04667,0.04666 0.04667,-0.04666 m 0.886532,0.886531 -0.04667,0.04666 0.04667,-0.04666 m 0.09332,0.04666 -0.04667,0.04667 0.04667,-0.04667 m 7.885461,1.119829 -0.180014,1.156552 -1.033134,0.616511 1.046849,0.578132 0.259619,1.14827 0.844047,-0.791879 1.208972,0.09199 -0.511921,-1.073169 0.465262,-1.119829 -1.166488,0.177385 -0.933192,-0.783947 m -13.904541,1.633083 c -0.0063,0.305127 0.0096,1.004633 -0.210616,1.230071 -0.262647,0.268801 -0.711673,0.348653 -1.002531,0.589652 0.30543,0.173822 0.811411,0.269069 1.046852,0.532767 0.219563,0.245917 0.219104,0.874776 0.259614,1.193635 0.321266,-0.228195 0.524071,-0.671382 0.886531,-0.836738 0.282919,-0.129072 0.874397,0.06489 1.166489,0.136845 l -0.506919,-1.119828 0.460259,-1.119829 -1.166489,0.203306 -0.93319,-0.80988 m 6.112399,0.186637 c -8.41e-4,0.305555 0.01986,0.90482 -0.168132,1.156553 -0.213751,0.286218 -0.739987,0.438478 -1.045016,0.61651 0.310336,0.208752 0.787839,0.275784 1.049192,0.542992 0.222478,0.227467 0.233018,0.876494 0.257275,1.183411 l 0.890707,-0.825253 1.208972,0.12536 -0.538818,-1.07317 0.492158,-1.119828 -1.213147,0.171841 -0.933191,-0.778416 m 8.02544,4.525976 -0.187755,1.148307 -1.025393,0.578096 v 0.09331 c 0.301211,0.125406 0.830588,0.272481 1.038716,0.531473 0.199279,0.247978 0.214723,0.839812 0.221091,1.14827 l 0.933191,-0.825253 1.166488,0.12536 -0.546558,-1.100028 0.499899,-1.092969 -1.166489,0.169032 -0.93319,-0.775607 m -6.205718,1.679744 c -0.0025,0.309288 0.0147,0.999469 -0.210617,1.230069 -0.262644,0.268801 -0.711676,0.348656 -1.002531,0.589652 0.302579,0.143376 0.826126,0.278096 1.046853,0.531618 0.210988,0.242338 0.234677,0.881433 0.259614,1.194785 l 0.93319,-0.856542 1.119829,0.10999 -0.500402,-1.073171 0.453742,-1.119828 c -0.301532,0.07804 -0.866643,0.298776 -1.166487,0.183002 -0.369128,-0.142527 -0.614987,-0.565428 -0.933191,-0.789575 m -6.812292,0.233296 -0.180014,1.156553 -1.033134,0.616511 1.046852,0.572729 0.259615,1.153672 0.886567,-0.82522 1.166452,0.125327 -0.511419,-1.073168 0.46476,-1.119829 -1.166488,0.171841 -0.933191,-0.778415 m 14.091179,4.852591 c -0.100667,0.339797 -0.01075,0.803096 -0.187755,1.114932 -0.157553,0.277564 -0.738879,0.491554 -1.025393,0.611472 v 0.09331 c 0.303743,0.126292 0.829269,0.268063 1.03857,0.531473 0.192779,0.242616 0.20824,0.845508 0.221238,1.14827 l 0.888367,-0.830655 1.211311,0.130762 -0.547063,-1.100026 0.500404,-1.092972 -1.213149,0.171841 -0.88653,-0.778414 m -6.998931,0.93319 c -0.02587,0.327871 -0.0034,0.940094 -0.212955,1.203212 -0.218904,0.274804 -0.700942,0.39519 -1.000192,0.569849 v 0.04667 l 1.07371,0.569888 0.279415,1.156515 c 0.18945,-0.248646 0.570643,-0.802713 0.887215,-0.869862 0.341742,-0.07249 0.768985,0.116081 1.119146,0.12331 l -0.522183,-1.07317 0.475524,-1.119829 c -0.302999,0.07839 -0.915485,0.309498 -1.213148,0.181165 -0.343976,-0.148301 -0.579552,-0.5715 -0.886531,-0.787739 m -7.138901,0.419939 c -0.01321,0.307738 0.0047,0.999238 -0.212955,1.23007 -0.254439,0.269925 -0.711409,0.347883 -1.000192,0.589652 l 1.045698,0.536511 0.260768,1.189892 0.894452,-0.856544 1.158568,0.109991 -0.515702,-1.073171 0.469042,-1.119828 c -0.302217,0.08496 -0.91406,0.319934 -1.213148,0.183505 C 27.329349,73.65243 27.0974,73.237949 26.787201,73.01944 Z"
     id="path3" /></svg>
