<?xml version="1.0" encoding="UTF-8" standalone="no"?>
<svg
   viewBox="0 0 72 96"
   version="1.1"
   id="svg4"
   sodipodi:docname="rdf.svg"
   xml:space="preserve"
   inkscape:version="1.3 (0e150ed6c4, 2023-07-21)"
   xmlns:inkscape="http://www.inkscape.org/namespaces/inkscape"
   xmlns:sodipodi="http://sodipodi.sourceforge.net/DTD/sodipodi-0.dtd"
   xmlns="http://www.w3.org/2000/svg"
   xmlns:svg="http://www.w3.org/2000/svg"><defs
     id="defs4" /><sodipodi:namedview
     id="namedview4"
     pagecolor="#ffffff"
     bordercolor="#666666"
     borderopacity="1.0"
     inkscape:showpageshadow="2"
     inkscape:pageopacity="0.0"
     inkscape:pagecheckerboard="0"
     inkscape:deskcolor="#d1d1d1"
     inkscape:zoom="8.6988866"
     inkscape:cx="26.382687"
     inkscape:cy="47.707255"
     inkscape:window-width="1718"
     inkscape:window-height="1078"
     inkscape:window-x="317"
     inkscape:window-y="111"
     inkscape:window-maximized="0"
     inkscape:current-layer="svg4"
     showguides="true"><sodipodi:guide
       position="5.7478621,23.347024"
       orientation="1,0"
       id="guide4"
       inkscape:locked="false" /></sodipodi:namedview><style
     id="style1">.st0{fill:#999}</style><path
     class="st0"
     d="M0 2v92c0 1.1.9 2 2 2h68c1.1 0 2-.9 2-2V28H50c-1.1 0-2-.9-2-2V0H2C.9 0 0 .9 0 2z"
     id="path1"
     style="fill:#2d3f98;fill-opacity:1" /><rect
     style="fill:#ffffff;fill-opacity:1;stroke:none;stroke-opacity:1"
     id="rect4"
     width="60.237595"
     height="49.54657"
     x="5.8812027"
     y="40.809822" /><path
     class="st0"
     d="M71.9 24c-.1-.4-.2-.7-.4-1L52 1.2V24h19.9z"
     id="path2"
     style="fill:#2d3f98;fill-opacity:1" /><path
     style="fill:#2d3f98;fill-opacity:1"
     d="m 25.35678,81.388429 c -1.664943,-0.07147 -2.907192,-0.292906 -3.820197,-0.680966 -0.470091,-0.199806 -0.818835,-0.430704 -1.117028,-0.739565 -0.642718,-0.665713 -1.031275,-1.706275 -1.20158,-3.217856 -0.07877,-0.699148 -0.09489,-1.366058 -0.09514,-3.9368 -1.46e-4,-1.495326 -0.0099,-2.585808 -0.02477,-2.777259 -0.09382,-1.205954 -0.367645,-2.068633 -0.83734,-2.638066 -0.345546,-0.418922 -0.947643,-0.741616 -1.695483,-0.908694 -0.53412,-0.119329 -0.740448,-0.136501 -1.784317,-0.148501 l -0.978486,-0.01125 V 65.10511 63.880746 l 0.861302,-0.01503 c 0.923398,-0.01611 1.35627,-0.05063 1.828458,-0.145836 1.079879,-0.217725 1.736102,-0.662123 2.126743,-1.440244 0.125598,-0.250179 0.279316,-0.734603 0.349837,-1.102468 0.137876,-0.719215 0.135205,-0.651456 0.154691,-3.924785 0.0099,-1.662841 0.02399,-3.070806 0.03132,-3.128812 0.0073,-0.05801 0.02495,-0.242571 0.03915,-0.410144 0.0905,-1.067643 0.330525,-2.015919 0.677269,-2.675665 0.437658,-0.832727 1.008947,-1.291846 2.064756,-1.659349 0.4541,-0.158062 1.222968,-0.323862 1.897413,-0.409161 0.714718,-0.09039 2.005106,-0.149669 2.999909,-0.137805 l 0.597638,0.0071 0.0061,1.221117 0.0061,1.221117 -0.978693,0.01385 c -1.042882,0.01476 -1.348316,0.03479 -1.869291,0.122595 -0.734331,0.123758 -1.251672,0.347885 -1.548868,0.671016 -0.310181,0.337248 -0.518713,0.945427 -0.633574,1.847803 -0.03541,0.278153 -0.04224,0.686079 -0.05651,3.374898 -0.01623,3.057349 -0.0218,3.262486 -0.106625,3.925662 -0.178885,1.398559 -0.586789,2.305291 -1.310564,2.913267 -0.471085,0.395714 -1.039156,0.678797 -1.761461,0.877777 -0.20552,0.05662 -0.257211,0.07824 -0.215387,0.09012 1.489165,0.422928 2.335123,1.037721 2.806692,2.039743 0.20235,0.429967 0.365338,1.014804 0.458087,1.643721 0.106761,0.723928 0.111435,0.872408 0.128897,4.095172 0.0181,3.34032 0.01718,3.31632 0.153591,3.995973 0.07256,0.361541 0.150774,0.6016 0.286332,0.87888 0.233641,0.477905 0.652512,0.769472 1.361212,0.947509 0.597606,0.150127 0.945428,0.181524 2.195936,0.198219 l 1.078092,0.01439 0.0061,1.236291 0.0061,1.23629 -0.966975,-0.0045 c -0.531836,-0.0025 -1.035527,-0.0075 -1.119314,-0.01106 z M 45.160869,80.1643 v -1.239701 l 1.095669,-0.01177 c 1.144603,-0.01229 1.397567,-0.03017 1.927677,-0.136273 0.476204,-0.09531 0.804784,-0.218714 1.095973,-0.411614 0.499505,-0.330902 0.763604,-0.938043 0.910693,-2.093601 0.03541,-0.278153 0.04224,-0.686079 0.05651,-3.374898 0.01621,-3.054639 0.02173,-3.258335 0.10629,-3.925662 0.08721,-0.68824 0.288996,-1.437817 0.501577,-1.863225 0.487642,-0.975849 1.32309,-1.572307 2.787737,-1.990271 0.04497,-0.01283 0.01368,-0.02741 -0.15234,-0.07094 -1.215301,-0.318682 -2.071123,-0.906001 -2.546061,-1.747267 -0.299607,-0.530699 -0.506823,-1.285601 -0.614377,-2.238214 -0.06752,-0.598011 -0.0833,-1.329819 -0.08343,-3.868245 -7.9e-5,-1.553547 -0.0097,-2.666796 -0.02466,-2.859288 -0.05262,-0.676379 -0.151046,-1.189265 -0.308646,-1.608373 -0.114088,-0.303396 -0.213245,-0.460045 -0.428525,-0.67699 -0.551233,-0.555498 -1.528331,-0.7589 -3.650489,-0.759921 l -0.674017,-3.25e-4 0.0061,-1.224572 0.0061,-1.224572 0.58592,-0.0071 c 0.692025,-0.0084 1.830424,0.02857 2.390552,0.07768 1.597082,0.140028 2.75363,0.455219 3.505864,0.955442 0.958242,0.637216 1.485119,1.800995 1.700051,3.755114 0.03282,0.298377 0.0413,0.805313 0.0561,3.351461 0.01111,1.912407 0.02699,3.097615 0.0438,3.269432 0.09511,0.97224 0.235103,1.533897 0.519917,2.085875 0.289045,0.560178 0.701291,0.917819 1.351934,1.172859 0.676742,0.265272 1.520425,0.372425 2.941172,0.373548 l 0.533187,4.21e-4 v 1.228096 1.228096 l -0.978486,0.01151 c -1.04539,0.01229 -1.285003,0.0319 -1.810492,0.148156 -0.887184,0.196274 -1.50083,0.559337 -1.873356,1.108369 -0.350994,0.517299 -0.568754,1.25064 -0.672239,2.263878 -0.03202,0.313531 -0.04148,0.872413 -0.05769,3.410053 -0.01066,1.669285 -0.02583,3.082524 -0.03371,3.14053 -0.0079,0.05801 -0.03504,0.279484 -0.06038,0.492173 -0.142718,1.198149 -0.466474,2.152432 -0.947853,2.793833 -0.53276,0.709862 -1.356788,1.142795 -2.706145,1.421772 -0.955123,0.197469 -2.064897,0.284159 -3.638561,0.284223 l -0.861302,3.5e-5 z m -3.578681,-2.617755 c -1.519235,-0.22133 -2.841725,-1.200652 -3.476342,-2.574278 -0.265726,-0.575164 -0.387261,-1.096428 -0.421146,-1.806299 -0.02313,-0.484625 -0.0608,-0.651827 -0.221778,-0.984345 -0.152376,-0.314758 -0.364383,-0.597211 -0.704143,-0.938122 -0.333543,-0.334672 -0.558171,-0.517496 -0.985153,-0.801814 -1.004349,-0.668773 -2.214151,-1.195202 -3.149389,-1.370412 -0.375311,-0.07031 -0.945372,-0.07044 -1.185609,-2.64e-4 -0.283535,0.08282 -0.393872,0.131625 -0.550765,0.243605 -0.580743,0.414499 -1.243097,0.684455 -1.980409,0.807159 -0.294452,0.049 -0.993575,0.05573 -1.289023,0.0124 -1.864176,-0.273394 -3.356026,-1.61129 -3.8061,-3.413321 -0.125922,-0.504173 -0.165928,-1.199387 -0.09778,-1.699167 0.252481,-1.85157 1.607541,-3.367899 3.411704,-3.817739 0.693326,-0.17287 1.514542,-0.173065 2.202166,-5.22e-4 0.388733,0.09754 0.900656,0.3051 1.178591,0.477855 0.09495,0.05902 0.132822,0.05497 0.07034,-0.0075 -0.0161,-0.0161 0.04236,-0.0023 0.1299,0.03064 0.532475,0.200423 1.305737,0.16125 2.110643,-0.106924 0.628115,-0.209271 1.199407,-0.494462 1.937038,-0.966978 1.362676,-0.872908 2.199568,-1.795503 2.320227,-2.55783 0.01428,-0.09023 0.03414,-0.166972 0.04414,-0.170534 0.01,-0.0036 0.0103,-0.0645 6.76e-4,-0.135413 -0.130907,-0.964658 0.07262,-1.98435 0.569884,-2.855166 0.359967,-0.630381 0.981864,-1.261439 1.600092,-1.623664 0.740663,-0.433959 1.492391,-0.640333 2.333741,-0.640686 1.235535,-5.2e-4 2.357144,0.462677 3.227235,1.332768 0.853248,0.853247 1.324507,1.994102 1.322709,3.202097 -0.0011,0.736881 -0.147696,1.377665 -0.461123,2.015564 -0.405977,0.826259 -1.048931,1.506424 -1.851461,1.958614 -0.125231,0.07056 -0.133877,0.08008 -0.0835,0.09198 l 0.05619,0.01327 -0.06619,0.05206 c -0.177083,0.139294 -0.451311,0.613464 -0.572233,0.989455 -0.221095,0.687466 -0.327958,1.657256 -0.299575,2.718668 0.03017,1.128302 0.154805,1.971759 0.394285,2.668336 0.155328,0.4518 0.302016,0.71057 0.543349,0.958507 0.110306,0.113324 0.132122,0.146506 0.09638,0.146593 -0.02541,6.3e-5 0.05779,0.04701 0.184875,0.104318 0.957071,0.431599 1.798503,1.263388 2.229643,2.204093 0.497278,1.08501 0.56593,2.268177 0.195824,3.374898 -0.232482,0.695189 -0.584305,1.261439 -1.107632,1.782705 -0.701343,0.698581 -1.55395,1.128132 -2.533252,1.276273 -0.359385,0.05437 -0.977162,0.05865 -1.31703,0.0091 z m -2.115937,-2.476337 c -0.416128,-0.62205 -0.392754,-1.594326 0.06338,-2.636547 0.08638,-0.197368 0.127037,-0.260187 0.228298,-0.352734 0.187465,-0.171331 0.297939,-0.194154 0.643787,-0.132999 0.206186,0.03646 0.286371,0.03157 0.481936,-0.02937 0.442055,-0.137751 0.730853,-0.616501 0.646654,-1.071977 -0.02732,-0.14776 -0.115733,-0.340888 -0.19617,-0.428485 -0.02659,-0.02895 -0.0439,-0.05619 -0.03848,-0.06054 0.0054,-0.0043 0.07314,-0.04542 0.150478,-0.09128 1.081776,-0.641415 2.355556,-0.78321 2.960434,-0.32955 0.04274,0.03205 0.08289,0.0531 0.08923,0.04677 0.02222,-0.02222 -0.403369,-0.323129 -0.603884,-0.426978 -0.440834,-0.228313 -0.913132,-0.3397 -1.437994,-0.339138 -0.576586,6.17e-4 -1.047991,0.110269 -1.56595,0.364249 -0.40907,0.200588 -0.693036,0.405355 -1.037414,0.748077 -0.474965,0.472683 -0.776643,0.947474 -0.968208,1.523798 -0.157116,0.472684 -0.178441,0.613575 -0.17737,1.17184 8.33e-4,0.433923 0.0074,0.518523 0.05551,0.714822 0.123863,0.505377 0.378673,1.005404 0.689721,1.353474 0.06773,0.07579 0.07516,0.06494 0.01604,-0.02344 z m -0.512826,-5.39422 c 0.236751,-0.03843 0.255903,-0.04743 0.480281,-0.225739 0.193887,-0.154074 0.50978,-0.354181 0.750435,-0.475373 0.438615,-0.220883 0.82916,-0.89752 1.02421,-1.77449 0.128237,-0.576574 0.143594,-0.760883 0.143456,-1.721685 -1.35e-4,-0.932568 -0.02074,-1.226316 -0.130262,-1.857037 -0.127666,-0.735209 -0.383604,-1.427061 -0.669879,-1.810821 -0.153983,-0.206419 -0.212084,-0.247399 -0.500018,-0.352672 -0.309122,-0.113021 -0.512646,-0.211319 -0.800634,-0.386689 -0.243247,-0.148125 -0.3581,-0.175752 -0.735684,-0.176965 -0.913775,-0.0029 -2.162009,0.498189 -3.584621,1.439101 -1.055947,0.698402 -1.769577,1.388524 -2.062619,1.994673 -0.132195,0.273443 -0.166841,0.462644 -0.12771,0.697427 0.01574,0.09446 0.03112,0.377399 0.03418,0.628759 0.0062,0.509666 0.01349,0.541417 0.203567,0.886476 0.42004,0.762524 1.482019,1.602441 2.962929,2.343374 1.262024,0.63142 2.307284,0.906118 3.012367,0.791661 z M 25.333691,67.787712 c -0.300214,-0.421611 -0.367615,-1.233234 -0.163531,-1.969177 0.135547,-0.488792 0.320994,-0.88673 0.477388,-1.024393 0.142496,-0.12543 0.237719,-0.156684 0.420679,-0.138076 0.417825,0.0425 0.523162,0.04302 0.659827,0.0033 0.274857,-0.0799 0.484812,-0.265002 0.614358,-0.541627 0.05755,-0.122897 0.06509,-0.16611 0.06509,-0.373351 0,-0.206052 -0.0077,-0.2508 -0.06372,-0.370368 -0.03505,-0.0748 -0.08968,-0.169174 -0.121418,-0.209722 l -0.0577,-0.07372 0.132183,-0.07963 c 1.059778,-0.638402 2.293752,-0.792186 2.955431,-0.36832 l 0.131695,0.08436 -0.09375,-0.08562 c -0.05156,-0.04709 -0.167573,-0.135736 -0.257805,-0.196995 -1.036996,-0.704022 -2.544845,-0.659436 -3.69658,0.109303 -0.892504,0.595712 -1.48941,1.46625 -1.708324,2.491446 -0.07068,0.331011 -0.07784,1.009045 -0.01386,1.312461 0.103085,0.488849 0.302015,0.944197 0.552903,1.265586 0.152975,0.195963 0.275159,0.316256 0.167132,0.164545 z m 13.340804,-8.594581 c -0.410348,-0.582298 -0.370719,-1.652827 0.09884,-2.670121 0.121454,-0.263129 0.280088,-0.413141 0.490462,-0.463808 0.03771,-0.0091 0.170689,0.0018 0.300784,0.02454 0.276911,0.04847 0.457628,0.02793 0.670439,-0.07619 0.356907,-0.174618 0.57541,-0.598558 0.51554,-1.000252 -0.01946,-0.130534 -0.117832,-0.357011 -0.187113,-0.430757 -0.02639,-0.02809 -0.04139,-0.06172 -0.03335,-0.07474 0.02092,-0.03385 0.394736,-0.244734 0.585384,-0.33024 0.482655,-0.216472 0.921615,-0.325827 1.386266,-0.345352 0.478468,-0.02011 0.818788,0.04937 1.070045,0.218456 0.169377,0.113982 0.184433,0.117888 0.0774,0.02008 -0.113963,-0.104137 -0.423673,-0.311163 -0.592526,-0.396074 -0.473542,-0.238131 -1.122616,-0.354126 -1.674978,-0.299334 -0.478591,0.04747 -0.82844,0.144139 -1.249864,0.345342 -0.410979,0.196216 -0.728381,0.422239 -1.066363,0.759361 -0.473234,0.47203 -0.778611,0.954391 -0.970947,1.533671 -0.315281,0.949567 -0.234519,1.950745 0.22028,2.730727 0.110493,0.189495 0.378407,0.548154 0.396185,0.530376 0.0054,-0.0054 -0.01098,-0.03949 -0.03649,-0.07568 z"
     id="path4" /><text
     xml:space="preserve"
     style="font-style:normal;font-variant:normal;font-weight:normal;font-stretch:normal;font-size:14.6667px;line-height:1.25;font-family:'Lucida Sans';-inkscape-font-specification:'Lucida Sans';letter-spacing:0px;word-spacing:0px;stroke-width:0.626177"
     x="4.8455396"
     y="19.338837"
     id="text4"><tspan
       sodipodi:role="line"
       id="tspan4"
       x="4.8455396"
       y="19.338837"
       style="font-style:normal;font-variant:normal;font-weight:bold;font-stretch:normal;font-size:14.6667px;font-family:'Open Sans';-inkscape-font-specification:'Open Sans Bold';fill:#ffffff;fill-opacity:1;stroke:none;stroke-width:0.626177;stroke-opacity:1">RDF</tspan></text></svg>
