<?xml version="1.0" encoding="UTF-8" standalone="no"?>
<svg
   version="1.1"
   id="senyera_coronada"
   x="0px"
   y="0px"
   width="512"
   height="512.00049"
   xml:space="preserve"
   sodipodi:docname="es_vc.svg"
   inkscape:version="1.2.2 (b0a8486541, 2022-12-01)"
   xmlns:inkscape="http://www.inkscape.org/namespaces/inkscape"
   xmlns:sodipodi="http://sodipodi.sourceforge.net/DTD/sodipodi-0.dtd"
   xmlns="http://www.w3.org/2000/svg"
   xmlns:svg="http://www.w3.org/2000/svg"><defs
   id="defs401" /><sodipodi:namedview
   id="namedview399"
   pagecolor="#ffffff"
   bordercolor="#000000"
   borderopacity="0.25"
   inkscape:showpageshadow="2"
   inkscape:pageopacity="0.0"
   inkscape:pagecheckerboard="0"
   inkscape:deskcolor="#d1d1d1"
   showgrid="false"
   inkscape:zoom="1.0048773"
   inkscape:cx="327.90073"
   inkscape:cy="155.24283"
   inkscape:window-width="1920"
   inkscape:window-height="991"
   inkscape:window-x="0"
   inkscape:window-y="0"
   inkscape:window-maximized="1"
   inkscape:current-layer="senyera" />
<rect
   id="tafatà"
   x="0"
   y="1.1327441"
   fill="#0072bc"
   width="254.86749"
   height="509.73499"
   style="stroke-width:1.13274" />
<g
   id="senyera">
	<rect
   id="or"
   x="153"
   fill="#fcdd09"
   width="359"
   height="512"
   y="0"
   style="stroke-width:1.13274" />
	<rect
   id="barra_3"
   x="182"
   y="284"
   fill="#da121a"
   width="330"
   height="56.8888"
   style="stroke-width:1.13274" />
	<rect
   id="barra_2"
   x="182"
   y="398"
   fill="#da121a"
   width="330"
   height="56.8888"
   style="stroke-width:1.13274" />
	<rect
   id="barra_1"
   x="182"
   y="171"
   fill="#da121a"
   width="330"
   height="56.88888"
   style="stroke-width:1.13274" />
	<rect
   id="barra_0"
   x="182"
   y="57"
   fill="#da121a"
   width="330"
   height="56.88888"
   style="stroke-width:1.13274" />
</g>
<g
   id="corona"
   transform="matrix(1.1327444,0,0,1.1327444,-65.699178,1.1327444)">
	<rect
   id="rect3959"
   x="175.54201"
   fill="#da121a"
   width="49.765999"
   height="450"
   y="0" />
	<g
   id="florons">
		<g
   id="g3981">
			<g
   id="g286">
				<g
   id="g284">
					<path
   id="path3989"
   fill="#fcdd09"
   stroke="#000000"
   stroke-width="0.5"
   d="m 102.723,410.292 c 0,0 -20.386,45.264 -29.51,23.565 0,0 2.643,1.025 4.621,-1.001 1.774,-1.826 1.587,-3.53 -0.504,-6.065 -2.231,-2.719 -8.645,-1.518 -9.919,1.71 -2.935,7.422 3.951,17.231 10.272,16.796 16.557,-1.127 18.413,-18.955 29.432,-34.164 0.664,-0.919 -4.392,-0.841 -4.392,-0.841 z" />
				</g>
			</g>
		</g>
		<path
   id="path3993"
   fill="#fcdd09"
   stroke="#000000"
   stroke-width="0.5"
   d="m 103.056,358.139 c 0,0 -20.386,-45.263 -29.51,-23.564 0,0 2.647,-1.025 4.62,1.007 1.774,1.821 1.588,3.525 -0.498,6.064 -2.238,2.715 -8.65,1.519 -9.926,-1.713 -2.929,-7.422 3.952,-17.226 10.272,-16.796 16.557,1.127 18.414,18.955 29.432,34.164 0.665,0.915 -4.39,0.838 -4.39,0.838 z" />
		<path
   id="path3997"
   fill="#fcdd09"
   stroke="#000000"
   stroke-width="0.5"
   d="m 171.576,368.788 c -2.944,5.668 -26.906,14.828 -26.906,14.828 0,0 23.449,8.896 26.614,14.897 l 0.293,8.766 c -11.937,-16.284 -23.766,-17.784 -32.997,-18.282 -6.55,-0.351 -5.935,3.486 -4.733,5.02 10.706,13.686 -3.107,17.567 -5.237,28.891 -0.108,0.567 -1.715,-1.924 -2.226,-5.196 -0.343,-2.159 0.331,-5.342 0.331,-5.342 -4.761,7.963 -10.809,1.597 -14.506,9.498 0,0 -0.767,-1.255 -1.153,-1.626 -1.061,-1.007 -4.474,-0.498 -4.968,-9.492 -0.019,-0.312 -3.907,0.718 -3.907,0.718 2.16,-7.443 21.076,-15.719 16.152,-20.542 -5.558,-5.454 -5.993,11.66 -14.697,12.823 -0.498,0.068 1.296,-4.951 1.296,-4.951 -4.06,0.226 -5.867,4.951 -6.341,7.734 l -0.952,-2.577 c -3.942,-2.226 0.952,-13.378 -0.84,-15.289 -1.398,-1.489 -6.052,4.644 -8.078,5.641 -2.014,0.986 -13.408,0.986 -7.829,7.939 0.444,0.556 -1.138,-3.106 1.495,-3.589 2.91,-0.533 2.808,2.891 2.804,3.228 -0.025,1.43 -2.608,4.901 -6.663,2.934 -0.229,-0.113 -7.819,-5.644 2.077,-13.51 0,0 -6.057,3.715 -12.436,-2.951 -1.363,-1.425 -3.198,-3.228 -5.402,-4.609 2.199,-1.388 3.815,-3.061 5.173,-4.492 6.355,-6.68 12.425,-2.993 12.425,-2.993 -9.929,-7.827 -2.354,-13.387 -2.124,-13.5 4.043,-1.983 6.641,1.479 6.671,2.911 0.01,0.336 0.123,3.76 -2.794,3.233 -2.631,-0.474 -1.064,-4.141 -1.51,-3.58 -5.553,6.974 5.847,6.934 7.859,7.912 2.032,0.986 6.71,7.128 8.102,5.634 1.784,-1.914 -3.149,-13.076 0.782,-15.312 l 0.948,-2.582 c 0.479,2.779 2.306,7.505 6.365,7.715 0,0 -1.812,-5.02 -1.315,-4.951 8.709,1.133 9.206,18.248 14.746,12.769 4.904,-4.843 -14.043,-13.047 -16.23,-20.479 0,0 3.893,1.015 3.907,0.702 0.465,-8.999 3.878,-8.5 4.934,-9.511 0.39,-0.376 1.148,-1.631 1.148,-1.631 3.726,7.887 9.754,1.5 14.541,9.444 0,0 -0.684,-3.184 -0.353,-5.341 0.504,-3.273 2.096,-5.772 2.209,-5.204 2.172,11.313 15.995,15.151 5.343,28.871 -1.192,1.539 -1.797,5.376 4.753,5 9.226,-0.528 21.051,-2.069 32.93,-18.397 z" />
		<path
   id="path3999"
   fill="none"
   stroke="#000000"
   stroke-width="0.5"
   d="m 97.639,403.954 c 1.294,-11.069 10.608,-14.669 10.398,-20.079 -0.215,-5.415 -9.627,-11.073 -10.687,-20.321 m 13.256,56.484 c -7.35,-15.287 16.239,-20.381 15.464,-36.152 -0.743,-14.98 -22.975,-21.606 -15.606,-36.368 m 33.921,36.196 -81.62,0.03" />
		<path
   id="path4001"
   fill="#fcdd09"
   stroke="#000000"
   stroke-width="0.5"
   d="m 136.951,299.203 c -2.583,-7.167 -10.139,-9.106 -14.423,-9.252 -4.816,-0.167 -12.332,6.391 -16.918,9.252 -4.084,2.538 -11.503,-0.796 -12.675,-3.668 -2.618,-6.43 1.51,-7.665 3.467,-7.294 0,0 -2.426,4.638 1.617,4.042 2.549,-0.376 3.169,-4.146 2.754,-5.664 -0.83,-3.003 -5.055,-2.671 -6.754,-2.168 -5.496,1.626 -4.576,9.307 -2.749,12.251 2.715,4.375 9.509,5.049 13.837,4.413 6.55,-0.956 11.932,-7.749 15.844,-7.582 1.036,0.044 2.096,3.648 1.079,3.833 -6.624,1.211 -5.748,5.919 -5.748,5.919 v 0.083 c 0,0 -0.876,4.668 5.748,5.879 1.017,0.187 -0.303,3.872 -1.333,3.916 -3.917,0.167 -9.041,-6.709 -15.591,-7.666 -4.327,-0.635 -11.12,0.039 -13.837,4.413 -1.827,2.944 -2.745,10.626 2.749,12.251 1.7,0.504 5.925,0.835 6.754,-2.167 0.415,-1.514 -0.205,-5.288 -2.754,-5.664 -4.043,-0.597 -1.617,4.042 -1.617,4.042 -1.957,0.371 -6.086,-0.86 -3.467,-7.295 1.172,-2.872 8.591,-6.206 12.675,-3.668 4.586,2.863 12.102,9.42 16.918,9.253 4.284,-0.152 11.839,-2.084 14.423,-9.253 v -8.207 h 0.001 z" />
		<path
   id="path4005"
   fill="#fcdd09"
   stroke="#000000"
   stroke-width="0.5"
   d="m 170.125,294.495 c -0.913,4.752 -12.752,8.833 -12.752,8.833 0,0 11.668,6.083 13.339,11.083 l -0.293,5.752 c -3.751,-12.94 -18.317,-13.941 -18.317,-13.941 3.062,4.375 5.813,10.44 -1.627,16.442 0,0 2.179,-5.587 1.061,-6.939 0,0 -1.002,3.501 -5.187,6.747 -1.745,1.352 -6.38,1.128 -8.504,2.379 l 1.812,-5.688 c -2.188,4.624 -8.44,5.248 -8.44,5.248 -0.361,-1.578 -0.176,-5.42 1.748,-8.374 3.63,-5.562 2.75,-9.503 2.75,-9.503 -3.126,6.939 -15.376,7.563 -17.691,5.811 -0.313,-0.236 2.749,-3.248 2.749,-3.248 -1.123,0.185 -4.19,-2.003 -4.126,-2.627 0.088,-0.879 2.13,-2.813 2.5,-3.374 0,0 -2.325,-1.909 -2.413,-2.793 -0.064,-0.626 2.998,-2.808 4.122,-2.622 0,0 -3.062,-3.012 -2.749,-3.251 2.315,-1.749 14.564,-1.124 17.695,5.815 0,0 0.874,-3.94 -2.749,-9.503 -1.93,-2.954 -2.116,-6.796 -1.755,-8.374 0,0 6.252,0.626 8.44,5.248 l -1.812,-5.687 c 2.124,1.25 6.759,1.02 8.504,2.373 4.191,3.253 5.187,6.752 5.187,6.752 1.119,-1.352 -1.059,-6.938 -1.059,-6.938 7.438,6 4.689,12.06 1.627,16.435 0,0 14.564,-0.997 18.315,-13.935 z" />
		<path
   id="path4009"
   fill="#fcdd09"
   stroke="#000000"
   stroke-width="0.5"
   d="m 101.199,304.871 c -4,0.123 -9.514,2.953 -14.462,2.207 -3.585,-0.543 -10.047,-4.791 -10.047,-4.791 0,0 6.506,-3.378 9.753,-4.126 5.29,-1.221 10.628,3.412 14.63,3.501 0.8,0.017 0.927,3.186 0.126,3.209 z" />
		<path
   id="path4013"
   fill="#fcdd09"
   stroke="#000000"
   stroke-width="0.5"
   d="m 101.301,296.785 c 2.228,-0.498 1.774,6.378 1.774,6.378 0,0.953 0.289,6.002 -1.774,6.417 -2.354,-0.293 -1.73,-6.46 -1.73,-6.46 0,0 -0.247,-6.417 1.73,-6.335 z" />
		<path
   id="path4015"
   fill="#fcdd09"
   stroke="#000000"
   stroke-width="0.5"
   d="m 116.242,303.075 41.385,0.292 m -18.257,16.461 5.92,-16.582 m -0.002,0 -5.793,-16.294" />
		<path
   id="path4017"
   fill="#fcdd09"
   stroke="#000000"
   stroke-width="0.5"
   d="m 103.056,249.622 c 0,0 -20.386,45.269 -29.51,23.569 0,0 2.647,1.022 4.62,-1.005 1.774,-1.821 1.588,-3.526 -0.498,-6.065 -2.238,-2.715 -8.65,-1.519 -9.926,1.713 -2.929,7.423 3.952,17.228 10.272,16.798 16.557,-1.128 18.414,-18.955 29.432,-34.164 0.665,-0.918 -4.39,-0.846 -4.39,-0.846 z" />
		<path
   id="path4021"
   fill="#fcdd09"
   stroke="#000000"
   stroke-width="0.5"
   d="m 103.392,197.475 c 0,0 -20.39,-45.269 -29.509,-23.569 0,0 2.641,-1.022 4.615,1.005 1.774,1.826 1.592,3.526 -0.498,6.066 -2.238,2.715 -8.65,1.519 -9.926,-1.713 -2.93,-7.423 3.951,-17.226 10.272,-16.798 16.557,1.129 18.413,18.955 29.432,34.164 0.665,0.919 -4.386,0.845 -4.386,0.845 z" />
		<path
   id="path4025"
   fill="#fcdd09"
   stroke="#000000"
   stroke-width="0.5"
   d="m 171.907,208.119 c -2.944,5.668 -26.903,14.829 -26.903,14.829 0,0 23.444,8.896 26.61,14.897 l 0.293,8.771 c -11.937,-16.285 -23.767,-17.789 -32.999,-18.282 -6.55,-0.352 -5.93,3.486 -4.733,5.019 10.707,13.683 -3.105,17.569 -5.235,28.892 -0.108,0.567 -1.71,-1.924 -2.228,-5.202 -0.341,-2.152 0.333,-5.336 0.333,-5.336 -4.763,7.958 -10.809,1.591 -14.506,9.498 0,0 -0.763,-1.255 -1.153,-1.626 -1.056,-1.007 -4.474,-0.499 -4.968,-9.492 -0.02,-0.312 -3.902,0.712 -3.902,0.712 2.155,-7.442 21.069,-15.712 16.152,-20.542 -5.563,-5.454 -5.998,11.66 -14.702,12.828 -0.498,0.068 1.294,-4.951 1.294,-4.951 -4.059,0.219 -5.861,4.951 -6.335,7.729 l -0.958,-2.572 c -3.941,-2.227 0.953,-13.38 -0.84,-15.294 -1.397,-1.484 -6.052,4.649 -8.078,5.641 -2.012,0.986 -13.406,0.986 -7.828,7.943 0.444,0.558 -1.134,-3.105 1.495,-3.589 2.91,-0.536 2.813,2.892 2.803,3.228 -0.024,1.426 -2.608,4.897 -6.663,2.929 -0.23,-0.108 -7.819,-5.644 2.076,-13.511 0,0 -6.057,3.717 -12.435,-2.943 -1.363,-1.426 -3.199,-3.233 -5.402,-4.609 2.198,-1.393 3.813,-3.062 5.172,-4.492 6.355,-6.685 12.426,-2.993 12.426,-2.993 -9.931,-7.827 -2.355,-13.388 -2.125,-13.501 4.043,-1.982 6.642,1.48 6.671,2.907 0.01,0.336 0.123,3.764 -2.793,3.238 -2.631,-0.474 -1.061,-4.141 -1.51,-3.585 -5.553,6.978 5.847,6.934 7.858,7.916 2.032,0.986 6.71,7.128 8.103,5.636 1.782,-1.914 -3.151,-13.081 0.782,-15.317 l 0.948,-2.577 c 0.483,2.774 2.309,7.499 6.364,7.71 0,0 -1.812,-5.02 -1.309,-4.951 8.704,1.137 9.203,18.247 14.742,12.774 4.903,-4.848 -14.043,-13.052 -16.225,-20.484 0,0 3.892,1.015 3.907,0.702 0.459,-8.999 3.878,-8.5 4.933,-9.511 0.386,-0.371 1.143,-1.631 1.143,-1.631 3.727,7.887 9.754,1.499 14.541,9.444 0,0 -0.684,-3.184 -0.351,-5.337 0.503,-3.277 2.101,-5.771 2.208,-5.206 2.172,11.309 15.995,15.148 5.343,28.872 -1.192,1.534 -1.797,5.371 4.753,5 9.231,-0.528 21.051,-2.075 32.93,-18.403 z" />
		<path
   id="path4027"
   fill="none"
   stroke="#000000"
   stroke-width="0.5"
   d="m 97.97,243.286 c 1.294,-11.066 10.614,-14.664 10.4,-20.079 -0.215,-5.415 -9.628,-11.069 -10.687,-20.322 m 13.255,56.489 c -7.35,-15.289 16.24,-20.381 15.464,-36.152 -0.737,-14.98 -22.975,-21.606 -15.605,-36.368 m 33.926,36.196 -81.625,0.03" />
		<path
   id="path4029"
   fill="#fcdd09"
   stroke="#000000"
   stroke-width="0.5"
   d="m 102.39,90.624 c 0,0 -20.385,45.269 -29.509,23.569 0,0 2.641,1.022 4.62,-1.005 1.774,-1.821 1.588,-3.526 -0.503,-6.066 -2.236,-2.715 -8.65,-1.519 -9.926,1.713 -2.93,7.423 3.956,17.226 10.277,16.798 16.557,-1.129 18.409,-18.955 29.427,-34.164 0.665,-0.919 -4.386,-0.845 -4.386,-0.845 z" />
		<g
   id="g4033">
			<g
   id="g305">
				<g
   id="g303">
					<path
   id="path4041"
   fill="#fcdd09"
   stroke="#000000"
   stroke-width="0.5"
   d="m 102.723,38.475 c 0,0 -20.386,-45.269 -29.51,-23.569 0,0 2.643,-1.022 4.621,1.005 1.774,1.821 1.587,3.526 -0.504,6.066 -2.231,2.715 -8.645,1.519 -9.919,-1.713 -2.935,-7.423 3.951,-17.228 10.272,-16.798 16.557,1.129 18.413,18.955 29.431,34.164 0.665,0.919 -4.391,0.845 -4.391,0.845 z" />
				</g>
			</g>
		</g>
		<path
   id="path4045"
   fill="#fcdd09"
   stroke="#000000"
   stroke-width="0.5"
   d="m 171.239,49.121 c -2.94,5.668 -26.903,14.829 -26.903,14.829 0,0 23.444,8.896 26.614,14.897 l 0.294,8.771 c -11.942,-16.29 -23.767,-17.789 -32.997,-18.282 -6.555,-0.352 -5.935,3.486 -4.733,5.014 10.706,13.687 -3.105,17.574 -5.24,28.896 -0.103,0.563 -1.711,-1.924 -2.228,-5.199 -0.336,-2.152 0.333,-5.336 0.333,-5.336 -4.758,7.958 -10.805,1.591 -14.502,9.491 0,0 -0.767,-1.25 -1.153,-1.625 -1.059,-1.007 -4.474,-0.499 -4.967,-9.492 -0.02,-0.307 -3.907,0.717 -3.907,0.717 2.159,-7.442 21.074,-15.712 16.152,-20.542 -5.559,-5.455 -5.993,11.66 -14.697,12.827 -0.499,0.064 1.294,-4.956 1.294,-4.956 -4.059,0.226 -5.866,4.956 -6.34,7.735 l -0.953,-2.578 c -3.941,-2.221 0.948,-13.378 -0.84,-15.287 -1.397,-1.489 -6.052,4.644 -8.083,5.641 -2.006,0.986 -13.406,0.986 -7.824,7.938 0.445,0.558 -1.138,-3.105 1.491,-3.589 2.915,-0.533 2.813,2.892 2.808,3.228 -0.025,1.431 -2.608,4.902 -6.661,2.936 -0.235,-0.113 -7.824,-5.646 2.075,-13.511 0,0 -6.062,3.717 -12.435,-2.948 -1.363,-1.426 -3.199,-3.228 -5.408,-4.61 2.204,-1.386 3.815,-3.061 5.178,-4.491 6.355,-6.68 12.421,-2.993 12.421,-2.993 -9.926,-7.828 -2.354,-13.388 -2.126,-13.501 4.05,-1.983 6.647,1.48 6.678,2.911 0.01,0.337 0.123,3.76 -2.793,3.233 -2.633,-0.474 -1.066,-4.135 -1.51,-3.579 -5.554,6.973 5.842,6.934 7.858,7.909 2.032,0.986 6.71,7.128 8.098,5.636 1.787,-1.914 -3.146,-13.076 0.785,-15.317 l 0.948,-2.577 c 0.479,2.778 2.305,7.504 6.365,7.71 0,0 -1.812,-5.015 -1.315,-4.946 8.709,1.133 9.208,18.242 14.746,12.768 4.904,-4.847 -14.042,-13.051 -16.229,-20.483 0,0 3.892,1.015 3.907,0.702 0.464,-8.999 3.877,-8.501 4.933,-9.511 0.391,-0.371 1.148,-1.631 1.148,-1.631 3.727,7.887 9.754,1.499 14.541,9.444 0,0 -0.684,-3.184 -0.351,-5.337 0.503,-3.277 2.096,-5.771 2.208,-5.204 2.175,11.309 15.995,15.146 5.344,28.872 -1.192,1.533 -1.798,5.376 4.753,5 9.226,-0.528 21.051,-2.075 32.93,-18.403 z" />
		<path
   id="path4047"
   fill="none"
   stroke="#000000"
   stroke-width="0.5"
   d="M 97.306,84.285 C 98.595,73.221 107.914,69.617 107.704,64.207 107.485,58.792 98.077,53.133 97.013,43.885 m 13.261,56.486 c -7.35,-15.283 16.239,-20.376 15.464,-36.152 -0.743,-14.981 -22.98,-21.601 -15.604,-36.363 m 33.92,36.196 -81.626,0.029" />
		<path
   id="path4049"
   fill="#fcdd09"
   stroke="#000000"
   stroke-width="0.5"
   d="m 136.614,139.536 c -2.583,-7.169 -10.139,-9.103 -14.418,-9.254 -4.815,-0.165 -12.332,6.393 -16.923,9.254 -4.079,2.538 -11.497,-0.791 -12.67,-3.668 -2.618,-6.43 1.505,-7.666 3.463,-7.29 0,0 -2.423,4.634 1.622,4.039 2.549,-0.371 3.169,-4.146 2.749,-5.664 -0.825,-3.002 -5.05,-2.67 -6.75,-2.167 -5.494,1.626 -4.576,9.306 -2.749,12.251 2.715,4.375 9.51,5.049 13.838,4.413 6.544,-0.958 11.932,-7.744 15.843,-7.578 1.037,0.045 2.096,3.643 1.076,3.829 -6.624,1.211 -5.745,5.918 -5.745,5.918 v 0.089 c 0,0 -0.879,4.663 5.745,5.874 1.021,0.186 -0.298,3.871 -1.335,3.916 -3.911,0.165 -9.04,-6.71 -15.584,-7.666 -4.327,-0.636 -11.123,0.044 -13.838,4.419 -1.827,2.943 -2.744,10.626 2.749,12.246 1.701,0.503 5.926,0.835 6.75,-2.163 0.42,-1.518 -0.2,-5.292 -2.749,-5.668 -4.045,-0.59 -1.622,4.044 -1.622,4.044 -1.96,0.375 -6.082,-0.86 -3.463,-7.29 1.173,-2.877 8.591,-6.211 12.67,-3.668 4.591,2.857 12.108,9.419 16.923,9.248 4.279,-0.152 11.834,-2.085 14.418,-9.248 z" />
		<path
   id="path4053"
   fill="#fcdd09"
   stroke="#000000"
   stroke-width="0.5"
   d="m 169.793,134.833 c -0.919,4.746 -12.753,8.832 -12.753,8.832 0,0 11.668,6.081 13.339,11.079 l -0.293,5.751 c -3.751,-12.938 -18.32,-13.94 -18.32,-13.94 3.062,4.375 5.817,10.439 -1.622,16.44 0,0 2.179,-5.582 1.059,-6.939 0,0 -1.001,3.501 -5.187,6.749 -1.745,1.358 -6.38,1.127 -8.504,2.378 l 1.812,-5.688 c -2.189,4.625 -8.44,5.249 -8.44,5.249 -0.361,-1.578 -0.175,-5.42 1.75,-8.376 3.623,-5.562 2.749,-9.501 2.749,-9.501 -3.126,6.939 -15.381,7.563 -17.69,5.815 -0.318,-0.238 2.749,-3.251 2.749,-3.251 -1.124,0.191 -4.191,-2.003 -4.127,-2.627 0.088,-0.879 2.124,-2.808 2.5,-3.374 0,0 -2.329,-1.909 -2.418,-2.794 -0.058,-0.626 3.004,-2.808 4.127,-2.621 0,0 -3.062,-3.012 -2.749,-3.253 2.311,-1.747 14.564,-1.123 17.695,5.816 0,0 0.876,-3.941 -2.754,-9.503 -1.925,-2.953 -2.11,-6.796 -1.748,-8.373 0,0 6.252,0.626 8.44,5.248 l -1.812,-5.688 c 2.124,1.25 6.759,1.022 8.502,2.374 4.186,3.251 5.188,6.752 5.188,6.752 1.118,-1.352 -1.061,-6.939 -1.061,-6.939 7.438,6.002 4.689,12.061 1.627,16.437 0,0 14.564,-0.996 18.315,-13.936 z" />
		<path
   id="path4057"
   fill="#fcdd09"
   stroke="#000000"
   stroke-width="0.5"
   d="m 100.868,145.204 c -4.001,0.122 -9.515,2.953 -14.463,2.206 -3.585,-0.542 -10.047,-4.789 -10.047,-4.789 0,0 6.501,-3.373 9.754,-4.125 5.289,-1.221 10.628,3.417 14.628,3.5 0.801,0.015 0.928,3.184 0.128,3.208 z" />
		<path
   id="path4061"
   fill="#fcdd09"
   stroke="#000000"
   stroke-width="0.5"
   d="m 100.971,137.123 c 2.226,-0.503 1.769,6.373 1.769,6.373 0,0.956 0.293,6 -1.769,6.415 -2.355,-0.287 -1.73,-6.455 -1.73,-6.455 0,0 -0.254,-6.415 1.73,-6.333 z" />
		<path
   id="path4063"
   fill="#fcdd09"
   stroke="#000000"
   stroke-width="0.5"
   d="m 115.911,143.411 41.383,0.288 m -18.257,16.461 5.92,-16.582 m 0,0 -5.793,-16.294" />
		<path
   id="path4065"
   fill="#fcdd09"
   stroke="#000000"
   stroke-width="0.5"
   d="m 171.044,351.25 c -4.064,-11.002 -18.947,-9.815 -18.947,-9.815 0,0 14.82,0.128 18.57,-12.813 z" />
		<path
   id="path4069"
   fill="#fcdd09"
   stroke="#000000"
   stroke-width="0.5"
   d="m 171.044,417.246 c -4.064,11 -18.947,9.813 -18.947,9.813 0,0 14.82,-0.127 18.57,12.813 z" />
		<path
   id="path4073"
   fill="#fcdd09"
   stroke="#000000"
   stroke-width="0.5"
   d="m 136.897,427.371 c 0,0 6.096,4.873 10.154,3.936 0,0 -4.689,4.565 -0.81,8.125 0,0 1.192,-4.688 6.813,-5.563 4.728,-0.732 6.641,-4.629 6.565,-6.499 v 0.064 c 0.078,-1.87 -1.837,-5.766 -6.565,-6.499 -5.627,-0.879 -6.813,-5.562 -6.813,-5.562 -3.873,3.559 0.81,8.125 0.81,8.125 -4.058,-0.94 -10.154,3.875 -10.154,3.873 z" />
		<path
   id="path4077"
   fill="#fcdd09"
   stroke="#000000"
   stroke-width="0.5"
   d="m 170.54,255.746 c -4.064,11.002 -18.941,9.815 -18.941,9.815 0,0 14.813,-0.128 18.564,12.813 z" />
		<path
   id="path4081"
   fill="#fcdd09"
   stroke="#000000"
   stroke-width="0.5"
   d="m 171.044,191.746 c -4.064,-11.002 -18.947,-9.813 -18.947,-9.813 0,0 14.82,0.127 18.57,-12.808 z" />
		<path
   id="path4085"
   fill="#fcdd09"
   stroke="#000000"
   stroke-width="0.5"
   d="m 171.044,95.248 c -4.064,11.002 -18.947,9.81 -18.947,9.81 0,0 14.82,-0.123 18.57,12.813 z" />
		<path
   id="path4089"
   fill="#fcdd09"
   stroke="#000000"
   stroke-width="0.5"
   d="m 171.044,31.747 c -4.064,-11.002 -18.947,-9.813 -18.947,-9.813 0,0 14.82,0.127 18.57,-12.808 z" />
		<g
   id="rect4093">
			<rect
   x="170.041"
   y="-0.75"
   fill="#fcdd09"
   width="5.5019999"
   height="451.5"
   id="rect322" />
			<g
   id="g326">
				<path
   d="m 175.293,-0.5 v 451 h -5.002 v -451 h 5.002 m 0.5,-0.5 h -0.5 -5.002 -0.5 v 0.5 451 0.5 h 0.5 5.002 0.5 v -0.5 -451 z"
   id="path324" />
			</g>
		</g>
		<path
   id="path4105"
   fill="#fcdd09"
   stroke="#000000"
   stroke-width="0.5"
   d="m 137.23,340.707 c 0,0 6.096,4.873 10.159,3.936 0,0 -4.689,4.565 -0.812,8.125 0,0 1.187,-4.688 6.813,-5.563 4.724,-0.732 6.637,-4.629 6.564,-6.499 v 0.064 c 0.074,-1.87 -1.841,-5.766 -6.564,-6.504 -5.627,-0.874 -6.813,-5.562 -6.813,-5.562 -3.877,3.564 0.812,8.125 0.812,8.125 -4.063,-0.936 -10.159,3.878 -10.159,3.878 z" />
		<path
   id="path4109"
   fill="#fcdd09"
   stroke="#000000"
   stroke-width="0.5"
   d="m 136.897,265.707 c 0,0 6.096,4.873 10.159,3.936 0,0 -4.689,4.565 -0.815,8.125 0,0 1.192,-4.688 6.818,-5.563 4.723,-0.732 6.636,-4.629 6.56,-6.499 v 0.064 c 0.078,-1.87 -1.837,-5.766 -6.56,-6.499 -5.627,-0.879 -6.818,-5.567 -6.818,-5.567 -3.873,3.564 0.815,8.125 0.815,8.125 -4.063,-0.935 -10.159,3.878 -10.159,3.878 z" />
		<path
   id="path4113"
   fill="#fcdd09"
   stroke="#000000"
   stroke-width="0.5"
   d="m 137.23,182.041 c 0,0 6.096,4.872 10.159,3.935 0,0 -4.689,4.565 -0.812,8.125 0,0 1.187,-4.688 6.813,-5.562 4.724,-0.732 6.637,-4.629 6.564,-6.499 v 0.063 c 0.074,-1.87 -1.841,-5.766 -6.564,-6.504 -5.627,-0.874 -6.813,-5.562 -6.813,-5.562 -3.877,3.565 0.812,8.125 0.812,8.125 -4.063,-0.936 -10.159,3.879 -10.159,3.879 z" />
		<path
   id="path4117"
   fill="#fcdd09"
   stroke="#000000"
   stroke-width="0.5"
   d="m 137.23,105.038 c 0,0 6.096,4.872 10.159,3.935 0,0 -4.689,4.566 -0.812,8.125 0,0 1.187,-4.688 6.813,-5.562 4.724,-0.732 6.637,-4.629 6.564,-6.499 v 0.064 c 0.074,-1.87 -1.841,-5.766 -6.564,-6.499 -5.627,-0.88 -6.813,-5.563 -6.813,-5.563 -3.877,3.56 0.812,8.125 0.812,8.125 -4.063,-0.941 -10.159,3.874 -10.159,3.874 z" />
		<path
   id="path4121"
   fill="#fcdd09"
   stroke="#000000"
   stroke-width="0.5"
   d="m 137.562,21.704 c 0,0 6.096,4.877 10.159,3.94 0,0 -4.689,4.561 -0.81,8.125 0,0 1.187,-4.688 6.813,-5.562 4.723,-0.737 6.644,-4.629 6.565,-6.499 v 0.059 c 0.074,-1.87 -1.842,-5.766 -6.565,-6.499 -5.627,-0.875 -6.813,-5.563 -6.813,-5.563 -3.878,3.56 0.81,8.125 0.81,8.125 -4.064,-0.937 -10.159,3.874 -10.159,3.874 z" />
	</g>
	<g
   id="perles">
		
			<path
   id="path3961"
   fill="#ffffff"
   stroke="#000000"
   stroke-width="0.25"
   stroke-miterlimit="10"
   d="m 206.41,425.165 c 0,4.14 -3.356,7.5 -7.502,7.5 -4.142,0 -7.502,-3.361 -7.502,-7.5 0,-4.146 3.359,-7.5 7.502,-7.5 4.146,10e-4 7.502,3.354 7.502,7.5 z" />
		
			<path
   id="path3965"
   fill="#ffffff"
   stroke="#000000"
   stroke-width="0.25"
   stroke-miterlimit="10"
   d="m 206.41,325.165 c 0,4.14 -3.356,7.5 -7.502,7.5 -4.142,0 -7.502,-3.361 -7.502,-7.5 0,-4.141 3.359,-7.5 7.502,-7.5 4.146,10e-4 7.502,3.36 7.502,7.5 z" />
		
			<path
   id="path3969"
   fill="#ffffff"
   stroke="#000000"
   stroke-width="0.25"
   stroke-miterlimit="10"
   d="m 206.41,225.166 c 0,4.14 -3.356,7.499 -7.502,7.499 -4.142,0 -7.502,-3.361 -7.502,-7.499 0,-4.141 3.359,-7.499 7.502,-7.499 4.146,-0.002 7.502,3.358 7.502,7.499 z" />
		
			<path
   id="path3973"
   fill="#ffffff"
   stroke="#000000"
   stroke-width="0.25"
   stroke-miterlimit="10"
   d="m 206.41,125.166 c 0,4.14 -3.356,7.499 -7.502,7.499 -4.142,0 -7.502,-3.361 -7.502,-7.499 0,-4.141 3.359,-7.499 7.502,-7.499 4.146,-0.002 7.502,3.358 7.502,7.499 z" />
		
			<path
   id="path3977"
   fill="#ffffff"
   stroke="#000000"
   stroke-width="0.25"
   stroke-miterlimit="10"
   d="m 206.41,25.166 c 0,4.145 -3.356,7.499 -7.502,7.499 -4.142,0 -7.502,-3.356 -7.502,-7.499 0,-4.141 3.359,-7.499 7.502,-7.499 4.146,-0.002 7.502,3.357 7.502,7.499 z" />
		<g
   id="g350">
			<polygon
   id="polygon4165"
   fill="#fcdd09"
   stroke="#000000"
   stroke-width="0.25"
   stroke-miterlimit="10"
   points="186.463,75.589 198.882,63.168 211.299,75.589 198.882,88.007 " />
			<polygon
   id="polygon4169"
   fill="#da121a"
   stroke="#000000"
   stroke-width="0.25"
   stroke-miterlimit="10"
   points="198.795,87.089 198.966,87.089 202.717,83.344 202.717,79.423 206.639,79.423 210.385,75.678 210.385,75.502 206.639,71.757 202.717,71.757 202.717,67.836 198.966,64.086 198.795,64.086 195.044,67.836 195.044,71.757 191.122,71.757 187.376,75.502 187.376,75.678 191.122,79.423 195.044,79.423 195.044,83.344 " />
			
				<path
   id="path4173"
   fill="#fcdd09"
   stroke="#000000"
   stroke-width="0.25"
   stroke-miterlimit="10"
   d="m 193.667,65.692 c 0.563,0.563 -0.029,2.061 -1.318,3.35 -1.291,1.284 -2.784,1.875 -3.346,1.314 -0.562,-0.562 0.034,-2.057 1.32,-3.346 1.288,-1.283 2.782,-1.875 3.344,-1.318 z" />
			
				<path
   id="path4177"
   fill="#fcdd09"
   stroke="#000000"
   stroke-width="0.25"
   stroke-miterlimit="10"
   d="m 204.114,65.692 c -0.562,0.563 0.029,2.061 1.318,3.35 1.291,1.284 2.784,1.875 3.346,1.314 0.562,-0.562 -0.029,-2.057 -1.318,-3.346 -1.29,-1.283 -2.789,-1.875 -3.346,-1.318 z" />
			
				<path
   id="path4181"
   fill="#fcdd09"
   stroke="#000000"
   stroke-width="0.25"
   stroke-miterlimit="10"
   d="m 204.114,85.459 c -0.562,-0.557 0.029,-2.057 1.318,-3.346 1.291,-1.289 2.789,-1.88 3.346,-1.322 0.562,0.562 -0.029,2.059 -1.318,3.349 -1.29,1.29 -2.789,1.879 -3.346,1.319 z" />
			
				<path
   id="path4185"
   fill="#fcdd09"
   stroke="#000000"
   stroke-width="0.25"
   stroke-miterlimit="10"
   d="m 193.672,85.464 c -0.562,0.562 -2.06,-0.03 -3.349,-1.324 -1.286,-1.289 -1.876,-2.788 -1.32,-3.346 0.562,-0.557 2.061,0.035 3.346,1.324 1.289,1.289 1.88,2.789 1.323,3.346 z" />
			
				<path
   id="path4189"
   fill="#fcdd09"
   stroke="#000000"
   stroke-width="0.25"
   stroke-miterlimit="10"
   d="m 194.956,61.435 c 0,-0.644 1.446,-1.235 3.111,-1.396 0.336,-0.034 0.815,-0.449 0.815,-0.449 0,0 0.484,0.424 0.743,0.449 1.797,0.132 3.233,0.722 3.233,1.396 0,0.776 -1.768,1.401 -3.951,1.401 -2.177,0 -3.951,-0.625 -3.951,-1.401 z" />
			
				<path
   id="path4193"
   fill="#fcdd09"
   stroke="#000000"
   stroke-width="0.25"
   stroke-miterlimit="10"
   d="m 202.86,89.746 c 0,0.639 -1.441,1.235 -3.111,1.401 -0.338,0.029 -0.817,0.444 -0.817,0.444 0,0 -0.483,-0.425 -0.738,-0.444 -1.802,-0.138 -3.237,-0.727 -3.237,-1.401 0,-0.776 1.773,-1.401 3.956,-1.401 2.178,-0.001 3.947,0.625 3.947,1.401 z" />
			
				<path
   id="path4197"
   fill="#fcdd09"
   stroke="#000000"
   stroke-width="0.25"
   stroke-miterlimit="10"
   d="m 184.749,79.545 c -0.645,0 -1.237,-1.45 -1.398,-3.115 -0.034,-0.336 -0.444,-0.815 -0.444,-0.815 0,0 0.425,-0.479 0.444,-0.737 0.128,-1.801 0.719,-3.238 1.398,-3.238 0.777,0 1.402,1.772 1.402,3.95 -0.001,2.182 -0.626,3.955 -1.402,3.955 z" />
			
				<path
   id="path4201"
   fill="#fcdd09"
   stroke="#000000"
   stroke-width="0.25"
   stroke-miterlimit="10"
   d="m 213.067,71.639 c 0.645,0 1.236,1.446 1.402,3.111 0.034,0.336 0.445,0.815 0.445,0.815 0,0 -0.425,0.479 -0.445,0.737 -0.131,1.801 -0.723,3.238 -1.402,3.238 -0.772,0 -1.397,-1.767 -1.397,-3.951 0.001,-2.182 0.625,-3.95 1.397,-3.95 z" />
		</g>
		<g
   id="g366">
			
				<path
   id="path4205"
   fill="#fcdd09"
   stroke="#000000"
   stroke-width="0.25"
   stroke-miterlimit="10"
   d="m 196.661,192.333 c 0,1.24 1.007,2.246 2.248,2.246 1.241,0 2.253,-1.007 2.253,-2.246 0,-1.245 -1.012,-2.246 -2.253,-2.246 -1.241,0 -2.248,1.001 -2.248,2.246 z" />
			
				<path
   id="path4209"
   fill="#fcdd09"
   stroke="#000000"
   stroke-width="0.25"
   stroke-miterlimit="10"
   d="m 196.661,157.079 c 0,1.24 1.007,2.246 2.248,2.246 1.241,0 2.253,-1.007 2.253,-2.246 0,-1.239 -1.012,-2.246 -2.253,-2.246 -1.241,0 -2.248,1.007 -2.248,2.246 z" />
			
				<path
   id="path4213"
   fill="#fcdd09"
   stroke="#000000"
   stroke-width="0.25"
   stroke-miterlimit="10"
   d="m 207.236,174.754 c 0,8.184 -3.741,14.815 -8.357,14.815 -4.615,0 -8.361,-6.631 -8.361,-14.815 0,-8.183 3.746,-14.818 8.361,-14.818 4.615,0 8.357,6.636 8.357,14.818 z" />
			
				<path
   id="path4217"
   fill="#078930"
   stroke="#000000"
   stroke-width="0.25"
   stroke-miterlimit="10"
   d="m 205.926,174.613 c 0,-6.993 -2.754,-12.739 -6.286,-13.427 -0.235,-0.049 -0.733,0.879 -0.733,0.879 0,0 -0.469,-0.923 -0.709,-0.879 -3.526,0.702 -6.276,6.445 -6.276,13.427 0,0.02 0,0.044 0,0.069 0,0.029 0,0.049 0,0.073 0,6.993 2.754,12.74 6.286,13.428 0.24,0.044 0.738,-0.879 0.738,-0.879 0,0 0.469,0.923 0.708,0.874 3.527,-0.698 6.272,-6.442 6.272,-13.423 0,-0.024 0,-0.044 0,-0.073 0,-0.026 0,-0.049 0,-0.069 z" />
			
				<path
   id="path4221"
   fill="#fcdd09"
   stroke="#000000"
   stroke-width="0.25"
   stroke-miterlimit="10"
   d="m 209.867,174.754 c 0,-0.62 -0.503,-1.127 -1.123,-1.127 -0.62,0 -1.124,0.503 -1.124,1.127 0,0.622 0.504,1.123 1.124,1.123 0.621,0.002 1.123,-0.501 1.123,-1.123 z" />
			
				<path
   id="path4225"
   fill="#fcdd09"
   stroke="#000000"
   stroke-width="0.25"
   stroke-miterlimit="10"
   d="m 190.13,174.754 c 0,-0.62 -0.503,-1.127 -1.128,-1.127 -0.62,0 -1.124,0.503 -1.124,1.127 0,0.622 0.504,1.123 1.124,1.123 0.625,0.002 1.128,-0.501 1.128,-1.123 z" />
			
				<path
   id="path4229"
   fill="#fcdd09"
   stroke="#000000"
   stroke-width="0.25"
   stroke-miterlimit="10"
   d="m 206.073,187.84 c 0,-0.626 -0.503,-1.127 -1.123,-1.127 -0.62,0 -1.124,0.503 -1.124,1.127 0,0.62 0.504,1.123 1.124,1.123 0.62,0.002 1.123,-0.502 1.123,-1.123 z" />
			
				<path
   id="path4233"
   fill="#fcdd09"
   stroke="#000000"
   stroke-width="0.25"
   stroke-miterlimit="10"
   d="m 193.92,187.84 c 0,-0.626 -0.503,-1.127 -1.123,-1.127 -0.62,0 -1.123,0.503 -1.123,1.127 0,0.62 0.503,1.123 1.123,1.123 0.621,0.002 1.123,-0.502 1.123,-1.123 z" />
			
				<path
   id="path4237"
   fill="#fcdd09"
   stroke="#000000"
   stroke-width="0.25"
   stroke-miterlimit="10"
   d="m 190.902,181.591 c 0,-1.245 -1.006,-2.251 -2.246,-2.251 -1.247,0 -2.253,1.007 -2.253,2.251 0,1.24 1.006,2.246 2.253,2.246 1.24,0 2.246,-1.007 2.246,-2.246 z" />
			
				<path
   id="path4241"
   fill="#fcdd09"
   stroke="#000000"
   stroke-width="0.25"
   stroke-miterlimit="10"
   d="m 211.412,181.518 c 0,-1.241 -1.007,-2.246 -2.248,-2.246 -1.241,0 -2.248,1.005 -2.248,2.246 0,1.24 1.007,2.245 2.248,2.245 1.241,0 2.248,-1.005 2.248,-2.245 z" />
			
				<path
   id="path4245"
   fill="#fcdd09"
   stroke="#000000"
   stroke-width="0.25"
   stroke-miterlimit="10"
   d="m 191.742,161.572 c 0,0.626 0.504,1.127 1.129,1.127 0.62,0 1.123,-0.503 1.123,-1.127 0,-0.622 -0.503,-1.124 -1.123,-1.124 -0.625,0.001 -1.129,0.503 -1.129,1.124 z" />
			
				<path
   id="path4249"
   fill="#fcdd09"
   stroke="#000000"
   stroke-width="0.25"
   stroke-miterlimit="10"
   d="m 203.894,161.572 c 0,0.626 0.503,1.127 1.123,1.127 0.625,0 1.129,-0.503 1.129,-1.127 0,-0.622 -0.504,-1.124 -1.129,-1.124 -0.62,0.001 -1.123,0.503 -1.123,1.124 z" />
			
				<path
   id="path4253"
   fill="#fcdd09"
   stroke="#000000"
   stroke-width="0.25"
   stroke-miterlimit="10"
   d="m 206.918,167.821 c 0,1.245 1.007,2.25 2.248,2.25 1.241,0 2.248,-1.005 2.248,-2.25 0,-1.241 -1.007,-2.246 -2.248,-2.246 -1.241,0 -2.248,1.005 -2.248,2.246 z" />
			
				<path
   id="path4257"
   fill="#fcdd09"
   stroke="#000000"
   stroke-width="0.25"
   stroke-miterlimit="10"
   d="m 186.404,167.894 c 0,1.24 1.006,2.246 2.253,2.246 1.241,0 2.246,-1.007 2.246,-2.246 0,-1.24 -1.006,-2.246 -2.246,-2.246 -1.247,0 -2.253,1.006 -2.253,2.246 z" />
		</g>
		<g
   id="g382">
			<path
   id="path4261"
   fill="#fcdd09"
   stroke="#000000"
   stroke-width="0.25"
   d="m 196.661,390.733 c 0,1.245 1.007,2.251 2.248,2.251 1.241,0 2.253,-1.007 2.253,-2.251 0,-1.24 -1.012,-2.246 -2.253,-2.246 -1.241,0 -2.248,1.006 -2.248,2.246 z" />
			<path
   id="path4265"
   fill="#fcdd09"
   stroke="#000000"
   stroke-width="0.25"
   d="m 196.661,355.484 c 0,1.24 1.007,2.246 2.248,2.246 1.241,0 2.253,-1.007 2.253,-2.246 0,-1.245 -1.012,-2.246 -2.253,-2.246 -1.241,0 -2.248,1.002 -2.248,2.246 z" />
			<path
   id="path4269"
   fill="#fcdd09"
   stroke="#000000"
   stroke-width="0.25"
   d="m 207.236,373.156 c 0,8.184 -3.741,14.818 -8.357,14.818 -4.615,0 -8.361,-6.635 -8.361,-14.818 0,-8.183 3.746,-14.815 8.361,-14.815 4.615,0 8.357,6.631 8.357,14.815 z" />
			<path
   id="path4273"
   fill="#078930"
   stroke="#000000"
   stroke-width="0.25"
   d="m 205.926,373.013 c 0,-6.987 -2.754,-12.734 -6.286,-13.422 -0.235,-0.049 -0.733,0.879 -0.733,0.879 0,0 -0.469,-0.922 -0.709,-0.879 -3.526,0.703 -6.276,6.445 -6.276,13.422 0,0.025 0,0.05 0,0.074 0,0.025 0,0.049 0,0.074 0,6.988 2.754,12.734 6.286,13.427 0.235,0.044 0.738,-0.879 0.738,-0.879 0,0 0.469,0.923 0.708,0.874 3.522,-0.698 6.272,-6.445 6.272,-13.422 0,-0.025 0,-0.049 0,-0.074 0,-0.024 0,-0.049 0,-0.074 z" />
			<path
   id="path4277"
   fill="#fcdd09"
   stroke="#000000"
   stroke-width="0.25"
   d="m 209.867,373.161 c 0,-0.62 -0.503,-1.128 -1.123,-1.128 -0.62,0 -1.124,0.509 -1.124,1.128 0,0.619 0.504,1.123 1.124,1.123 0.621,-10e-4 1.123,-0.503 1.123,-1.123 z" />
			<path
   id="path4281"
   fill="#fcdd09"
   stroke="#000000"
   stroke-width="0.25"
   d="m 190.13,373.161 c 0,-0.62 -0.503,-1.128 -1.128,-1.128 -0.62,0 -1.124,0.509 -1.124,1.128 0,0.619 0.504,1.123 1.124,1.123 0.625,-10e-4 1.128,-0.503 1.128,-1.123 z" />
			<path
   id="path4285"
   fill="#fcdd09"
   stroke="#000000"
   stroke-width="0.25"
   d="m 206.073,386.242 c 0,-0.622 -0.503,-1.123 -1.123,-1.123 -0.62,0 -1.124,0.503 -1.124,1.123 0,0.62 0.504,1.123 1.124,1.123 0.62,-0.001 1.123,-0.503 1.123,-1.123 z" />
			<path
   id="path4289"
   fill="#fcdd09"
   stroke="#000000"
   stroke-width="0.25"
   d="m 193.92,386.242 c 0,-0.622 -0.503,-1.123 -1.123,-1.123 -0.62,0 -1.123,0.503 -1.123,1.123 0,0.62 0.503,1.123 1.123,1.123 0.621,-0.001 1.123,-0.503 1.123,-1.123 z" />
			<path
   id="path4293"
   fill="#fcdd09"
   stroke="#000000"
   stroke-width="0.25"
   d="m 190.902,379.992 c 0,-1.241 -1.006,-2.246 -2.246,-2.246 -1.247,0 -2.253,1.005 -2.253,2.246 0,1.245 1.006,2.245 2.253,2.245 1.24,0 2.246,-1 2.246,-2.245 z" />
			<path
   id="path4297"
   fill="#fcdd09"
   stroke="#000000"
   stroke-width="0.25"
   d="m 211.412,379.923 c 0,-1.24 -1.007,-2.246 -2.248,-2.246 -1.241,0 -2.248,1.007 -2.248,2.246 0,1.239 1.007,2.246 2.248,2.246 1.241,0 2.248,-1.006 2.248,-2.246 z" />
			<path
   id="path4301"
   fill="#fcdd09"
   stroke="#000000"
   stroke-width="0.25"
   d="m 191.742,359.977 c 0,0.62 0.504,1.123 1.129,1.123 0.62,0 1.123,-0.503 1.123,-1.123 0,-0.62 -0.503,-1.124 -1.123,-1.124 -0.625,-0.001 -1.129,0.503 -1.129,1.124 z" />
			<path
   id="path4305"
   fill="#fcdd09"
   stroke="#000000"
   stroke-width="0.25"
   d="m 203.894,359.977 c 0,0.62 0.503,1.123 1.123,1.123 0.625,0 1.129,-0.503 1.129,-1.123 0,-0.62 -0.504,-1.124 -1.129,-1.124 -0.62,-0.001 -1.123,0.503 -1.123,1.124 z" />
			<path
   id="path4309"
   fill="#fcdd09"
   stroke="#000000"
   stroke-width="0.25"
   d="m 206.918,366.227 c 0,1.24 1.007,2.246 2.248,2.246 1.241,0 2.248,-1.007 2.248,-2.246 0,-1.24 -1.007,-2.246 -2.248,-2.246 -1.241,0 -2.248,1.006 -2.248,2.246 z" />
			<path
   id="path4313"
   fill="#fcdd09"
   stroke="#000000"
   stroke-width="0.25"
   d="m 186.404,366.299 c 0,1.241 1.006,2.246 2.253,2.246 1.241,0 2.246,-1.005 2.246,-2.246 0,-1.245 -1.006,-2.245 -2.246,-2.245 -1.247,0 -2.253,1.001 -2.253,2.245 z" />
		</g>
		<g
   id="g394">
			<polygon
   id="rect4125"
   fill="#fcdd09"
   stroke="#000000"
   stroke-width="0.25"
   points="211.316,275.314 198.895,287.73 186.477,275.316 198.896,262.899 " />
			<polygon
   id="polygon4129"
   fill="#da121a"
   stroke="#000000"
   stroke-width="0.25"
   stroke-miterlimit="10"
   points="198.795,286.923 198.971,286.923 202.717,283.178 202.717,279.257 206.639,279.257 210.385,275.512 210.385,275.331 206.639,271.591 202.717,271.591 202.717,267.67 198.971,263.919 198.795,263.919 195.049,267.67 195.049,271.591 191.122,271.591 187.376,275.336 187.376,275.512 191.122,279.257 195.049,279.257 195.049,283.178 " />
			<path
   id="path4133"
   fill="#fcdd09"
   stroke="#000000"
   stroke-width="0.25"
   d="m 193.662,265.532 c 0.563,0.562 -0.029,2.056 -1.318,3.344 -1.286,1.29 -2.784,1.88 -3.346,1.319 -0.562,-0.557 0.029,-2.057 1.32,-3.345 1.288,-1.29 2.787,-1.88 3.344,-1.318 z" />
			<path
   id="path4137"
   fill="#fcdd09"
   stroke="#000000"
   stroke-width="0.25"
   d="m 204.099,265.526 c 0.562,-0.563 2.057,0.029 3.346,1.317 1.289,1.29 1.881,2.789 1.323,3.345 -0.562,0.562 -2.06,-0.029 -3.349,-1.319 -1.29,-1.287 -1.882,-2.781 -1.32,-3.343 z" />
			<path
   id="path4141"
   fill="#fcdd09"
   stroke="#000000"
   stroke-width="0.25"
   d="m 204.089,285.296 c -0.556,-0.562 0.035,-2.059 1.324,-3.35 1.284,-1.289 2.783,-1.88 3.346,-1.317 0.556,0.556 -0.035,2.056 -1.324,3.344 -1.288,1.29 -2.784,1.88 -3.346,1.323 z" />
			<path
   id="path4145"
   fill="#fcdd09"
   stroke="#000000"
   stroke-width="0.25"
   d="m 193.687,285.302 c -0.562,0.556 -2.06,-0.034 -3.351,-1.324 -1.284,-1.289 -1.876,-2.788 -1.318,-3.344 0.562,-0.563 2.061,0.029 3.349,1.317 1.286,1.291 1.875,2.79 1.32,3.351 z" />
			<path
   id="path4149"
   fill="#fcdd09"
   stroke="#000000"
   stroke-width="0.25"
   d="m 194.956,261.268 c 0,-0.644 1.446,-1.235 3.111,-1.401 0.336,-0.029 0.815,-0.444 0.815,-0.444 0,0 0.484,0.425 0.743,0.444 1.797,0.133 3.233,0.722 3.233,1.401 0,0.772 -1.768,1.401 -3.951,1.401 -2.177,0.001 -3.951,-0.628 -3.951,-1.401 z" />
			<path
   id="path4153"
   fill="#fcdd09"
   stroke="#000000"
   stroke-width="0.25"
   d="m 202.86,289.579 c 0,0.639 -1.441,1.235 -3.111,1.396 -0.338,0.034 -0.817,0.444 -0.817,0.444 0,0 -0.483,-0.424 -0.738,-0.444 -1.802,-0.132 -3.237,-0.722 -3.237,-1.396 0,-0.776 1.773,-1.401 3.956,-1.401 2.178,0 3.947,0.625 3.947,1.401 z" />
			<path
   id="path4157"
   fill="#fcdd09"
   stroke="#000000"
   stroke-width="0.25"
   d="m 184.749,279.375 c -0.645,0 -1.237,-1.445 -1.398,-3.111 -0.034,-0.336 -0.444,-0.815 -0.444,-0.815 0,0 0.425,-0.484 0.444,-0.737 0.128,-1.801 0.719,-3.238 1.398,-3.238 0.777,0 1.402,1.772 1.402,3.951 -0.001,2.182 -0.626,3.95 -1.402,3.95 z" />
			<path
   id="path4161"
   fill="#fcdd09"
   stroke="#000000"
   stroke-width="0.25"
   d="m 213.067,271.473 c 0.645,0 1.236,1.442 1.402,3.111 0.034,0.336 0.445,0.815 0.445,0.815 0,0 -0.425,0.479 -0.445,0.737 -0.131,1.801 -0.723,3.238 -1.402,3.238 -0.772,0 -1.397,-1.772 -1.397,-3.95 0.001,-2.182 0.625,-3.951 1.397,-3.951 z" />
		</g>
	</g>
</g>
</svg>
