<?xml version="1.0" encoding="UTF-8" standalone="no"?>
<!-- Created with Sodipodi ("http://www.sodipodi.com/") -->

<svg
   id="svg583"
   sodipodi:version="0.32"
   version="1.0"
   y="0"
   x="0"
   inkscape:version="1.2.2 (b0a8486541, 2022-12-01)"
   width="512"
   height="512"
   sodipodi:docname="es_ba.svg"
   xmlns:inkscape="http://www.inkscape.org/namespaces/inkscape"
   xmlns:sodipodi="http://sodipodi.sourceforge.net/DTD/sodipodi-0.dtd"
   xmlns="http://www.w3.org/2000/svg"
   xmlns:svg="http://www.w3.org/2000/svg"
   xmlns:rdf="http://www.w3.org/1999/02/22-rdf-syntax-ns#"
   xmlns:cc="http://creativecommons.org/ns#"
   xmlns:dc="http://purl.org/dc/elements/1.1/">
  <defs
     id="defs22" />
  <sodipodi:namedview
     id="base"
     bordercolor="#666666"
     inkscape:pageshadow="2"
     pagecolor="#ffffff"
     inkscape:zoom="0.5"
     inkscape:window-x="0"
     borderopacity="1.0"
     inkscape:current-layer="g2196"
     inkscape:pageopacity="0.0"
     inkscape:showpageshadow="2"
     inkscape:pagecheckerboard="0"
     inkscape:deskcolor="#d1d1d1"
     showgrid="false"
     inkscape:cx="257"
     inkscape:cy="256"
     inkscape:window-width="1920"
     inkscape:window-height="991"
     inkscape:window-y="0"
     inkscape:window-maximized="1" />
  <g
     id="g2196">
    <rect
       id="rect586"
       style="fill:#d90700;fill-rule:evenodd;stroke-width:0.632099"
       height="56.888897"
       width="512"
       y="56.888897"
       x="0" />
    <rect
       id="rect587"
       style="fill:#d90700;fill-rule:evenodd;stroke-width:0.632099"
       height="56.888897"
       width="512"
       y="170,666691"
       x="0" />
    <rect
       id="rect588"
       style="fill:#d90700;fill-rule:evenodd;stroke-width:0.632099"
       height="56.888897"
       width="512"
       y="284,444485"
       x="0" />
    <rect
       id="rect589"
       style="fill:#d90700;fill-rule:evenodd;stroke-width:0.632099"
       height="56.888897"
       width="512"
       y="398,222279"
       x="0" />
    <rect
       id="rect590"
       style="fill:#f5ff33;fill-rule:evenodd;stroke-width:0.632099"
       height="56.888897"
       width="512"
       y="455,111176"
       x="0" />
    <rect
       id="rect591"
       style="fill:#f5ff33;fill-rule:evenodd;stroke-width:0.632099"
       height="56.888897"
       width="512"
       y="227,555588"
       x="0" />
    <rect
       id="rect592"
       style="fill:#f5ff33;fill-rule:evenodd;stroke-width:0.632099"
       height="56.888897"
       width="512"
       y="341,333382"
       x="0" />
    <rect
       id="rect593"
       style="fill:#f5ff33;fill-rule:evenodd;stroke-width:0.632099"
       height="56.888897"
       width="512"
       y="0"
       x="0" />
    <rect
       id="rect594"
       style="fill:#f5ff33;fill-rule:evenodd;stroke-width:0.632099"
       height="56.888897"
       width="512"
       y="113,777794"
       x="0" />
    <rect
       id="rect1312"
       style="fill:#993399;stroke:#21428e;stroke-width:0.109113;stroke-linejoin:bevel"
       height="259.15421"
       width="406.19937"
       y="0"
       x="0" />
    <g
       id="g2125"
       transform="matrix(0.83626679,0,0,0.83626679,-67.1995,-30.28954)">
      <g
         id="g2114"
         style="fill:#ffffff"
         transform="matrix(0.1,0,0,-0.1,106.19,298.11)">
        <path
           id="path2116"
           style="fill:#ffffff"
           d="m 1930,1950 v -80 h 30 30 v -320 c 0,-313 0,-320 -20,-320 -17,0 -20,7 -20,40 0,38 -2,40 -30,40 -28,0 -30,-2 -30,-40 0,-33 -3,-40 -20,-40 -17,0 -20,7 -20,40 0,38 -2,40 -30,40 -28,0 -30,-2 -30,-40 0,-33 -3,-40 -20,-40 -17,0 -20,7 -20,40 0,38 -2,40 -30,40 -28,0 -30,-2 -30,-40 0,-33 -3,-40 -20,-40 -19,0 -20,7 -20,220 v 220 h 30 30 v 80 80 h -40 c -38,0 -40,-2 -40,-30 0,-16 5,-30 10,-30 6,0 10,-9 10,-20 0,-16 -7,-20 -30,-20 -28,0 -30,2 -30,40 0,38 -2,40 -30,40 -28,0 -30,-2 -30,-40 0,-33 -3,-40 -20,-40 -17,0 -20,7 -20,40 0,38 -2,40 -30,40 -28,0 -30,-2 -30,-40 0,-33 -3,-40 -20,-40 -17,0 -20,7 -20,40 0,38 -2,40 -30,40 -28,0 -30,-2 -30,-40 0,-38 -2,-40 -30,-40 -23,0 -30,4 -30,20 0,11 5,20 10,20 6,0 10,14 10,30 0,28 -2,30 -40,30 h -40 v -80 -80 h 30 30 v -220 c 0,-213 -1,-220 -20,-220 -17,0 -20,7 -20,40 0,38 -2,40 -30,40 -28,0 -30,-2 -30,-40 0,-33 -3,-40 -20,-40 -17,0 -20,7 -20,40 0,38 -2,40 -30,40 -28,0 -30,-2 -30,-40 0,-33 -3,-40 -20,-40 -17,0 -20,7 -20,40 0,38 -2,40 -30,40 -28,0 -30,-2 -30,-40 0,-33 -3,-40 -20,-40 -19,0 -20,7 -20,220 v 220 h 30 30 v 80 80 h -40 c -38,0 -40,-2 -40,-30 0,-16 5,-30 10,-30 6,0 10,-9 10,-20 0,-16 -7,-20 -30,-20 -28,0 -30,2 -30,40 0,38 -2,40 -30,40 -28,0 -30,-2 -30,-40 0,-33 -3,-40 -20,-40 -17,0 -20,7 -20,40 0,38 -2,40 -30,40 -28,0 -30,-2 -30,-40 0,-33 -3,-40 -20,-40 -17,0 -20,7 -20,40 0,38 -2,40 -30,40 -28,0 -30,-2 -30,-40 0,-38 -2,-40 -30,-40 -23,0 -30,4 -30,20 0,11 5,20 10,20 6,0 10,14 10,30 0,28 -2,30 -40,30 h -40 v -80 -80 h 30 30 v -220 c 0,-213 -1,-220 -20,-220 -17,0 -20,7 -20,40 0,38 -2,40 -30,40 -28,0 -30,-2 -30,-40 0,-33 -3,-40 -20,-40 -17,0 -20,7 -20,40 0,38 -2,40 -30,40 -28,0 -30,-2 -30,-40 0,-33 -3,-40 -20,-40 -17,0 -20,7 -20,40 0,38 -2,40 -30,40 -28,0 -30,-2 -30,-40 0,-38 -2,-40 -30,-40 -23,0 -30,4 -30,20 0,11 5,20 10,20 6,0 10,14 10,30 0,28 -2,30 -40,30 h -40 v -80 -80 h 30 30 V 670 170 h 410 410 v 200 c 0,193 1,200 20,200 13,0 20,7 20,20 0,11 5,20 10,20 6,0 10,7 10,16 0,8 7,22 15,30 13,14 17,14 30,0 8,-8 15,-22 15,-30 0,-9 5,-16 10,-16 6,0 10,-9 10,-20 0,-13 7,-20 20,-20 19,0 20,-7 20,-200 V 170 h 270 270 v 200 c 0,193 1,200 20,200 13,0 20,7 20,20 0,11 5,20 10,20 6,0 10,7 10,16 0,8 7,22 15,30 13,14 17,14 30,0 8,-8 15,-22 15,-30 0,-9 5,-16 10,-16 6,0 10,-9 10,-20 0,-13 7,-20 20,-20 19,0 20,-7 20,-200 V 170 h 90 90 v 250 c 0,243 1,250 20,250 13,0 20,7 20,20 0,11 5,20 10,20 6,0 10,7 10,16 0,8 7,22 15,30 13,14 17,14 30,0 8,-8 15,-22 15,-30 0,-9 5,-16 10,-16 6,0 10,-9 10,-20 0,-13 7,-20 20,-20 19,0 20,-7 20,-250 V 170 h 90 90 v 200 c 0,193 1,200 20,200 13,0 20,7 20,20 0,11 5,20 10,20 6,0 10,7 10,16 0,8 7,22 15,30 13,14 17,14 30,0 8,-8 15,-22 15,-30 0,-9 5,-16 10,-16 6,0 10,-9 10,-20 0,-13 7,-20 20,-20 19,0 20,-7 20,-200 V 170 h 270 270 v 200 c 0,193 1,200 20,200 13,0 20,7 20,20 0,11 5,20 10,20 6,0 10,7 10,16 0,8 7,22 15,30 13,14 17,14 30,0 8,-8 15,-22 15,-30 0,-9 5,-16 10,-16 6,0 10,-9 10,-20 0,-13 7,-20 20,-20 19,0 20,-7 20,-200 V 170 h 410 410 v 500 500 h 30 30 v 80 80 h -40 c -38,0 -40,-2 -40,-30 0,-16 5,-30 10,-30 6,0 10,-9 10,-20 0,-16 -7,-20 -30,-20 -28,0 -30,2 -30,40 0,38 -2,40 -30,40 -28,0 -30,-2 -30,-40 0,-33 -3,-40 -20,-40 -17,0 -20,7 -20,40 0,38 -2,40 -30,40 -28,0 -30,-2 -30,-40 0,-33 -3,-40 -20,-40 -17,0 -20,7 -20,40 0,38 -2,40 -30,40 -28,0 -30,-2 -30,-40 0,-33 -3,-40 -20,-40 -19,0 -20,7 -20,220 v 220 h 30 30 v 80 80 h -40 c -38,0 -40,-2 -40,-30 0,-16 5,-30 10,-30 6,0 10,-9 10,-20 0,-16 -7,-20 -30,-20 -28,0 -30,2 -30,40 0,38 -2,40 -30,40 -28,0 -30,-2 -30,-40 0,-33 -3,-40 -20,-40 -17,0 -20,7 -20,40 0,38 -2,40 -30,40 -28,0 -30,-2 -30,-40 0,-33 -3,-40 -20,-40 -17,0 -20,7 -20,40 0,38 -2,40 -30,40 -28,0 -30,-2 -30,-40 0,-38 -2,-40 -30,-40 -23,0 -30,4 -30,20 0,11 5,20 10,20 6,0 10,14 10,30 0,28 -2,30 -40,30 h -40 v -80 -80 h 30 30 v -220 c 0,-213 -1,-220 -20,-220 -17,0 -20,7 -20,40 0,38 -2,40 -30,40 -28,0 -30,-2 -30,-40 0,-33 -3,-40 -20,-40 -17,0 -20,7 -20,40 0,38 -2,40 -30,40 -28,0 -30,-2 -30,-40 0,-33 -3,-40 -20,-40 -17,0 -20,7 -20,40 0,38 -2,40 -30,40 -28,0 -30,-2 -30,-40 0,-33 -3,-40 -20,-40 -19,0 -20,7 -20,220 v 220 h 30 30 v 80 80 h -40 c -38,0 -40,-2 -40,-30 0,-16 5,-30 10,-30 6,0 10,-9 10,-20 0,-16 -7,-20 -30,-20 -28,0 -30,2 -30,40 0,38 -2,40 -30,40 -28,0 -30,-2 -30,-40 0,-33 -3,-40 -20,-40 -17,0 -20,7 -20,40 0,38 -2,40 -30,40 -28,0 -30,-2 -30,-40 0,-33 -3,-40 -20,-40 -17,0 -20,7 -20,40 0,38 -2,40 -30,40 -28,0 -30,-2 -30,-40 0,-38 -2,-40 -30,-40 -23,0 -30,4 -30,20 0,11 5,20 10,20 6,0 10,14 10,30 0,28 -2,30 -40,30 h -40 v -80 -80 h 30 30 v -220 c 0,-213 -1,-220 -20,-220 -17,0 -20,7 -20,40 0,38 -2,40 -30,40 -28,0 -30,-2 -30,-40 0,-33 -3,-40 -20,-40 -17,0 -20,7 -20,40 0,38 -2,40 -30,40 -28,0 -30,-2 -30,-40 0,-33 -3,-40 -20,-40 -17,0 -20,7 -20,40 0,38 -2,40 -30,40 -28,0 -30,-2 -30,-40 0,-33 -3,-40 -20,-40 -20,0 -20,7 -20,320 v 320 h 30 30 v 80 80 h -40 c -38,0 -40,-2 -40,-30 0,-16 5,-30 10,-30 6,0 10,-9 10,-20 0,-16 -7,-20 -30,-20 -28,0 -30,2 -30,40 0,38 -2,40 -30,40 -28,0 -30,-2 -30,-40 0,-33 -3,-40 -20,-40 -17,0 -20,7 -20,40 0,38 -2,40 -30,40 -28,0 -30,-2 -30,-40 0,-33 -3,-40 -20,-40 -17,0 -20,7 -20,40 0,38 -2,40 -30,40 -28,0 -30,-2 -30,-40 0,-38 -2,-40 -30,-40 -23,0 -30,4 -30,20 0,11 5,20 10,20 6,0 10,14 10,30 0,28 -2,30 -40,30 h -40 z m 186,-214 c 8,-8 14,-22 14,-30 0,-9 5,-16 10,-16 6,0 10,-40 10,-100 v -100 h -50 -50 v 100 c 0,60 4,100 10,100 6,0 10,7 10,15 0,14 19,44 28,45 2,0 10,-6 18,-14 z m 160,0 c 8,-8 14,-22 14,-30 0,-9 5,-16 10,-16 6,0 10,-40 10,-100 v -100 h -50 -50 v 100 c 0,60 4,100 10,100 6,0 10,7 10,15 0,14 19,44 28,45 2,0 10,-6 18,-14 z M 756,1216 c 8,-8 14,-22 14,-30 0,-9 5,-16 10,-16 6,0 10,-47 10,-120 V 930 h -50 -50 v 120 c 0,73 4,120 10,120 6,0 10,7 10,15 0,14 19,44 28,45 2,0 10,-6 18,-14 z m 720,0 c 8,-8 14,-22 14,-30 0,-9 5,-16 10,-16 6,0 10,-47 10,-120 V 930 h -50 -50 v 120 c 0,73 4,120 10,120 6,0 10,7 10,15 0,14 19,44 28,45 2,0 10,-6 18,-14 z m 1440,0 c 8,-8 14,-22 14,-30 0,-9 5,-16 10,-16 6,0 10,-47 10,-120 V 930 h -50 -50 v 120 c 0,73 4,120 10,120 6,0 10,7 10,15 0,14 19,44 28,45 2,0 10,-6 18,-14 z m 720,0 c 8,-8 14,-22 14,-30 0,-9 5,-16 10,-16 6,0 10,-47 10,-120 V 930 h -50 -50 v 120 c 0,73 4,120 10,120 6,0 10,7 10,15 0,14 19,44 28,45 2,0 10,-6 18,-14 z" />
      </g>
      <g
         id="g2072"
         style="fill:#000000"
         transform="matrix(0.1,0,0,-0.1,106.19,298.11)">
        <path
           id="path2074"
           d="m 1930,1950 v -80 h 30 30 v -320 c 0,-313 0,-320 -20,-320 -17,0 -20,7 -20,40 0,38 -2,40 -30,40 -28,0 -30,-2 -30,-40 0,-33 -3,-40 -20,-40 -17,0 -20,7 -20,40 0,38 -2,40 -30,40 -28,0 -30,-2 -30,-40 0,-33 -3,-40 -20,-40 -17,0 -20,7 -20,40 0,38 -2,40 -30,40 -28,0 -30,-2 -30,-40 0,-33 -3,-40 -20,-40 -19,0 -20,7 -20,220 v 220 h 30 30 v 80 80 h -40 c -38,0 -40,-2 -40,-30 0,-16 5,-30 10,-30 6,0 10,-9 10,-20 0,-16 -7,-20 -30,-20 -28,0 -30,2 -30,40 0,38 -2,40 -30,40 -28,0 -30,-2 -30,-40 0,-33 -3,-40 -20,-40 -17,0 -20,7 -20,40 0,38 -2,40 -30,40 -28,0 -30,-2 -30,-40 0,-33 -3,-40 -20,-40 -17,0 -20,7 -20,40 0,38 -2,40 -30,40 -28,0 -30,-2 -30,-40 0,-38 -2,-40 -30,-40 -23,0 -30,4 -30,20 0,11 5,20 10,20 6,0 10,14 10,30 0,28 -2,30 -40,30 h -40 v -80 -80 h 30 30 v -220 c 0,-213 -1,-220 -20,-220 -17,0 -20,7 -20,40 0,38 -2,40 -30,40 -28,0 -30,-2 -30,-40 0,-33 -3,-40 -20,-40 -17,0 -20,7 -20,40 0,38 -2,40 -30,40 -28,0 -30,-2 -30,-40 0,-33 -3,-40 -20,-40 -17,0 -20,7 -20,40 0,38 -2,40 -30,40 -28,0 -30,-2 -30,-40 0,-33 -3,-40 -20,-40 -19,0 -20,7 -20,220 v 220 h 30 30 v 80 80 h -40 c -38,0 -40,-2 -40,-30 0,-16 5,-30 10,-30 6,0 10,-9 10,-20 0,-16 -7,-20 -30,-20 -28,0 -30,2 -30,40 0,38 -2,40 -30,40 -28,0 -30,-2 -30,-40 0,-33 -3,-40 -20,-40 -17,0 -20,7 -20,40 0,38 -2,40 -30,40 -28,0 -30,-2 -30,-40 0,-33 -3,-40 -20,-40 -17,0 -20,7 -20,40 0,38 -2,40 -30,40 -28,0 -30,-2 -30,-40 0,-38 -2,-40 -30,-40 -23,0 -30,4 -30,20 0,11 5,20 10,20 6,0 10,14 10,30 0,28 -2,30 -40,30 h -40 v -80 -80 h 30 30 v -220 c 0,-213 -1,-220 -20,-220 -17,0 -20,7 -20,40 0,38 -2,40 -30,40 -28,0 -30,-2 -30,-40 0,-33 -3,-40 -20,-40 -17,0 -20,7 -20,40 0,38 -2,40 -30,40 -28,0 -30,-2 -30,-40 0,-33 -3,-40 -20,-40 -17,0 -20,7 -20,40 0,38 -2,40 -30,40 -28,0 -30,-2 -30,-40 0,-38 -2,-40 -30,-40 -23,0 -30,4 -30,20 0,11 5,20 10,20 6,0 10,14 10,30 0,28 -2,30 -40,30 h -40 v -80 -80 h 30 30 V 670 170 h 410 410 v 200 c 0,193 1,200 20,200 13,0 20,7 20,20 0,11 5,20 10,20 6,0 10,7 10,16 0,8 7,22 15,30 13,14 17,14 30,0 8,-8 15,-22 15,-30 0,-9 5,-16 10,-16 6,0 10,-9 10,-20 0,-13 7,-20 20,-20 19,0 20,-7 20,-200 V 170 h 270 270 v 200 c 0,193 1,200 20,200 13,0 20,7 20,20 0,11 5,20 10,20 6,0 10,7 10,16 0,8 7,22 15,30 13,14 17,14 30,0 8,-8 15,-22 15,-30 0,-9 5,-16 10,-16 6,0 10,-9 10,-20 0,-13 7,-20 20,-20 19,0 20,-7 20,-200 V 170 h 90 90 v 250 c 0,243 1,250 20,250 13,0 20,7 20,20 0,11 5,20 10,20 6,0 10,7 10,16 0,8 7,22 15,30 13,14 17,14 30,0 8,-8 15,-22 15,-30 0,-9 5,-16 10,-16 6,0 10,-9 10,-20 0,-13 7,-20 20,-20 19,0 20,-7 20,-250 V 170 h 90 90 v 200 c 0,193 1,200 20,200 13,0 20,7 20,20 0,11 5,20 10,20 6,0 10,7 10,16 0,8 7,22 15,30 13,14 17,14 30,0 8,-8 15,-22 15,-30 0,-9 5,-16 10,-16 6,0 10,-9 10,-20 0,-13 7,-20 20,-20 19,0 20,-7 20,-200 V 170 h 270 270 v 200 c 0,193 1,200 20,200 13,0 20,7 20,20 0,11 5,20 10,20 6,0 10,7 10,16 0,8 7,22 15,30 13,14 17,14 30,0 8,-8 15,-22 15,-30 0,-9 5,-16 10,-16 6,0 10,-9 10,-20 0,-13 7,-20 20,-20 19,0 20,-7 20,-200 V 170 h 410 410 v 500 500 h 30 30 v 80 80 h -40 c -38,0 -40,-2 -40,-30 0,-16 5,-30 10,-30 6,0 10,-9 10,-20 0,-16 -7,-20 -30,-20 -28,0 -30,2 -30,40 0,38 -2,40 -30,40 -28,0 -30,-2 -30,-40 0,-33 -3,-40 -20,-40 -17,0 -20,7 -20,40 0,38 -2,40 -30,40 -28,0 -30,-2 -30,-40 0,-33 -3,-40 -20,-40 -17,0 -20,7 -20,40 0,38 -2,40 -30,40 -28,0 -30,-2 -30,-40 0,-33 -3,-40 -20,-40 -19,0 -20,7 -20,220 v 220 h 30 30 v 80 80 h -40 c -38,0 -40,-2 -40,-30 0,-16 5,-30 10,-30 6,0 10,-9 10,-20 0,-16 -7,-20 -30,-20 -28,0 -30,2 -30,40 0,38 -2,40 -30,40 -28,0 -30,-2 -30,-40 0,-33 -3,-40 -20,-40 -17,0 -20,7 -20,40 0,38 -2,40 -30,40 -28,0 -30,-2 -30,-40 0,-33 -3,-40 -20,-40 -17,0 -20,7 -20,40 0,38 -2,40 -30,40 -28,0 -30,-2 -30,-40 0,-38 -2,-40 -30,-40 -23,0 -30,4 -30,20 0,11 5,20 10,20 6,0 10,14 10,30 0,28 -2,30 -40,30 h -40 v -80 -80 h 30 30 v -220 c 0,-213 -1,-220 -20,-220 -17,0 -20,7 -20,40 0,38 -2,40 -30,40 -28,0 -30,-2 -30,-40 0,-33 -3,-40 -20,-40 -17,0 -20,7 -20,40 0,38 -2,40 -30,40 -28,0 -30,-2 -30,-40 0,-33 -3,-40 -20,-40 -17,0 -20,7 -20,40 0,38 -2,40 -30,40 -28,0 -30,-2 -30,-40 0,-33 -3,-40 -20,-40 -19,0 -20,7 -20,220 v 220 h 30 30 v 80 80 h -40 c -38,0 -40,-2 -40,-30 0,-16 5,-30 10,-30 6,0 10,-9 10,-20 0,-16 -7,-20 -30,-20 -28,0 -30,2 -30,40 0,38 -2,40 -30,40 -28,0 -30,-2 -30,-40 0,-33 -3,-40 -20,-40 -17,0 -20,7 -20,40 0,38 -2,40 -30,40 -28,0 -30,-2 -30,-40 0,-33 -3,-40 -20,-40 -17,0 -20,7 -20,40 0,38 -2,40 -30,40 -28,0 -30,-2 -30,-40 0,-38 -2,-40 -30,-40 -23,0 -30,4 -30,20 0,11 5,20 10,20 6,0 10,14 10,30 0,28 -2,30 -40,30 h -40 v -80 -80 h 30 30 v -220 c 0,-213 -1,-220 -20,-220 -17,0 -20,7 -20,40 0,38 -2,40 -30,40 -28,0 -30,-2 -30,-40 0,-33 -3,-40 -20,-40 -17,0 -20,7 -20,40 0,38 -2,40 -30,40 -28,0 -30,-2 -30,-40 0,-33 -3,-40 -20,-40 -17,0 -20,7 -20,40 0,38 -2,40 -30,40 -28,0 -30,-2 -30,-40 0,-33 -3,-40 -20,-40 -20,0 -20,7 -20,320 v 320 h 30 30 v 80 80 h -40 c -38,0 -40,-2 -40,-30 0,-16 5,-30 10,-30 6,0 10,-9 10,-20 0,-16 -7,-20 -30,-20 -28,0 -30,2 -30,40 0,38 -2,40 -30,40 -28,0 -30,-2 -30,-40 0,-33 -3,-40 -20,-40 -17,0 -20,7 -20,40 0,38 -2,40 -30,40 -28,0 -30,-2 -30,-40 0,-33 -3,-40 -20,-40 -17,0 -20,7 -20,40 0,38 -2,40 -30,40 -28,0 -30,-2 -30,-40 0,-38 -2,-40 -30,-40 -23,0 -30,4 -30,20 0,11 5,20 10,20 6,0 10,14 10,30 0,28 -2,30 -40,30 h -40 z m 60,50 c 0,-5 -4,-10 -10,-10 -5,0 -10,-18 -10,-40 v -40 h 50 50 v 40 c 0,22 5,40 10,40 6,0 10,-18 10,-40 0,-40 0,-40 40,-40 40,0 40,0 40,40 0,22 5,40 10,40 6,0 10,-18 10,-40 0,-40 0,-40 40,-40 40,0 40,0 40,40 0,22 5,40 10,40 6,0 10,-18 10,-40 v -40 h 50 50 v 40 c 0,22 -4,40 -10,40 -5,0 -10,5 -10,10 0,6 9,10 20,10 18,0 20,-7 20,-60 v -60 h -230 -230 v 60 c 0,53 2,60 20,60 11,0 20,-4 20,-10 z m 180,-170 v -40 h -80 -80 v 40 40 h 80 80 z m 180,0 v -40 h -80 -80 v 40 40 h 80 80 z M 550,1800 c 0,-5 -4,-10 -10,-10 -5,0 -10,-18 -10,-40 v -40 h 50 50 v 40 c 0,22 5,40 10,40 6,0 10,-18 10,-40 0,-40 0,-40 40,-40 40,0 40,0 40,40 0,22 5,40 10,40 6,0 10,-18 10,-40 0,-40 0,-40 40,-40 40,0 40,0 40,40 0,22 5,40 10,40 6,0 10,-18 10,-40 v -40 h 50 50 v 40 c 0,22 -4,40 -10,40 -5,0 -10,5 -10,10 0,6 9,10 20,10 18,0 20,-7 20,-60 v -60 H 740 510 v 60 c 0,53 2,60 20,60 11,0 20,-4 20,-10 z m 720,0 c 0,-5 -4,-10 -10,-10 -5,0 -10,-18 -10,-40 v -40 h 50 50 v 40 c 0,22 5,40 10,40 6,0 10,-18 10,-40 0,-40 0,-40 40,-40 40,0 40,0 40,40 0,22 5,40 10,40 6,0 10,-18 10,-40 0,-40 0,-40 40,-40 40,0 40,0 40,40 0,22 5,40 10,40 6,0 10,-18 10,-40 v -40 h 50 50 v 40 c 0,22 -4,40 -10,40 -5,0 -10,5 -10,10 0,6 9,10 20,10 18,0 20,-7 20,-60 v -60 h -230 -230 v 60 c 0,53 2,60 20,60 11,0 20,-4 20,-10 z m 1440,0 c 0,-5 -4,-10 -10,-10 -5,0 -10,-18 -10,-40 v -40 h 50 50 v 40 c 0,22 5,40 10,40 6,0 10,-18 10,-40 0,-40 0,-40 40,-40 40,0 40,0 40,40 0,22 5,40 10,40 6,0 10,-18 10,-40 0,-40 0,-40 40,-40 40,0 40,0 40,40 0,22 5,40 10,40 6,0 10,-18 10,-40 v -40 h 50 50 v 40 c 0,22 -4,40 -10,40 -5,0 -10,5 -10,10 0,6 9,10 20,10 18,0 20,-7 20,-60 v -60 h -230 -230 v 60 c 0,53 2,60 20,60 11,0 20,-4 20,-10 z m 720,0 c 0,-5 -4,-10 -10,-10 -5,0 -10,-18 -10,-40 v -40 h 50 50 v 40 c 0,22 5,40 10,40 6,0 10,-18 10,-40 0,-40 0,-40 40,-40 40,0 40,0 40,40 0,22 5,40 10,40 6,0 10,-18 10,-40 0,-40 0,-40 40,-40 40,0 40,0 40,40 0,22 5,40 10,40 6,0 10,-18 10,-40 v -40 h 50 50 v 40 c 0,22 -4,40 -10,40 -5,0 -10,5 -10,10 0,6 9,10 20,10 18,0 20,-7 20,-60 v -60 h -230 -230 v 60 c 0,53 2,60 20,60 11,0 20,-4 20,-10 z m -1360,-40 c 0,-5 -4,-10 -10,-10 -5,0 -10,-7 -10,-16 0,-15 -23,-44 -34,-44 -3,0 -6,18 -6,40 0,38 2,40 30,40 17,0 30,-4 30,-10 z m 160,0 c 0,-5 -4,-10 -10,-10 -5,0 -10,-7 -10,-16 0,-8 -7,-22 -15,-30 -13,-14 -17,-14 -30,0 -8,8 -15,22 -15,30 0,9 -4,16 -10,16 -5,0 -10,5 -10,10 0,6 23,10 50,10 28,0 50,-4 50,-10 z m 120,-30 c 0,-22 -3,-40 -6,-40 -11,0 -34,29 -34,44 0,9 -4,16 -10,16 -5,0 -10,5 -10,10 0,6 14,10 30,10 28,0 30,-2 30,-40 z m -234,6 c 8,-8 14,-22 14,-30 0,-9 5,-16 10,-16 6,0 10,-40 10,-100 v -100 h -50 -50 v 100 c 0,60 4,100 10,100 6,0 10,7 10,15 0,14 19,44 28,45 2,0 10,-6 18,-14 z m 160,0 c 8,-8 14,-22 14,-30 0,-9 5,-16 10,-16 6,0 10,-40 10,-100 v -100 h -50 -50 v 100 c 0,60 4,100 10,100 6,0 10,7 10,15 0,14 19,44 28,45 2,0 10,-6 18,-14 z M 730,1630 v -40 h -80 -80 v 40 40 h 80 80 z m 180,0 v -40 h -80 -80 v 40 40 h 80 80 z m 540,0 v -40 h -80 -80 v 40 40 h 80 80 z m 180,0 v -40 h -80 -80 v 40 40 h 80 80 z m 400,0 c 0,-22 -4,-40 -10,-40 -5,0 -10,18 -10,40 0,22 5,40 10,40 6,0 10,-18 10,-40 z m 160,0 c 0,-22 -4,-40 -10,-40 -5,0 -10,18 -10,40 0,22 5,40 10,40 6,0 10,-18 10,-40 z m 160,0 c 0,-22 -4,-40 -10,-40 -5,0 -10,18 -10,40 0,22 5,40 10,40 6,0 10,-18 10,-40 z m 540,0 v -40 h -80 -80 v 40 40 h 80 80 z m 180,0 v -40 h -80 -80 v 40 40 h 80 80 z m 540,0 v -40 h -80 -80 v 40 40 h 80 80 z m 180,0 v -40 h -80 -80 v 40 40 h 80 80 z M 650,1530 c 0,-40 0,-40 -40,-40 -40,0 -40,0 -40,40 0,40 0,40 40,40 40,0 40,0 40,-40 z m 160,0 v -40 h -70 -70 v 40 40 h 70 70 z m 100,0 c 0,-40 0,-40 -40,-40 -40,0 -40,0 -40,40 0,40 0,40 40,40 40,0 40,0 40,-40 z m 460,0 c 0,-40 0,-40 -40,-40 -40,0 -40,0 -40,40 0,40 0,40 40,40 40,0 40,0 40,-40 z m 160,0 v -40 h -70 -70 v 40 40 h 70 70 z m 100,0 c 0,-40 0,-40 -40,-40 -40,0 -40,0 -40,40 0,40 0,40 40,40 40,0 40,0 40,-40 z m 400,0 c 0,-22 -4,-40 -10,-40 -5,0 -10,18 -10,40 0,22 5,40 10,40 6,0 10,-18 10,-40 z m 160,0 c 0,-22 -4,-40 -10,-40 -5,0 -10,18 -10,40 0,22 5,40 10,40 6,0 10,-18 10,-40 z m 160,0 c 0,-22 -4,-40 -10,-40 -5,0 -10,18 -10,40 0,22 5,40 10,40 6,0 10,-18 10,-40 z m 460,0 c 0,-40 0,-40 -40,-40 -40,0 -40,0 -40,40 0,40 0,40 40,40 40,0 40,0 40,-40 z m 160,0 v -40 h -70 -70 v 40 40 h 70 70 z m 100,0 c 0,-40 0,-40 -40,-40 -40,0 -40,0 -40,40 0,40 0,40 40,40 40,0 40,0 40,-40 z m 460,0 c 0,-40 0,-40 -40,-40 -40,0 -40,0 -40,40 0,40 0,40 40,40 40,0 40,0 40,-40 z m 160,0 v -40 h -70 -70 v 40 40 h 70 70 z m 100,0 c 0,-40 0,-40 -40,-40 -40,0 -40,0 -40,40 0,40 0,40 40,40 40,0 40,0 40,-40 z M 730,1430 v -40 h -80 -80 v 40 40 h 80 80 z m 180,0 v -40 h -80 -80 v 40 40 h 80 80 z m 540,0 v -40 h -80 -80 v 40 40 h 80 80 z m 180,0 v -40 h -80 -80 v 40 40 h 80 80 z m 540,0 v -40 h -80 -80 v 40 40 h 80 80 z m 180,0 v -40 h -80 -80 v 40 40 h 80 80 z m 540,0 v -40 h -80 -80 v 40 40 h 80 80 z m 180,0 v -40 h -80 -80 v 40 40 h 80 80 z m 540,0 v -40 h -80 -80 v 40 40 h 80 80 z m 180,0 v -40 h -80 -80 v 40 40 h 80 80 z M 650,1330 c 0,-40 0,-40 -40,-40 -40,0 -40,0 -40,40 0,40 0,40 40,40 40,0 40,0 40,-40 z m 160,0 v -40 h -70 -70 v 40 40 h 70 70 z m 100,0 c 0,-40 0,-40 -40,-40 -40,0 -40,0 -40,40 0,40 0,40 40,40 40,0 40,0 40,-40 z m 460,0 c 0,-40 0,-40 -40,-40 -40,0 -40,0 -40,40 0,40 0,40 40,40 40,0 40,0 40,-40 z m 160,0 v -40 h -70 -70 v 40 40 h 70 70 z m 100,0 c 0,-40 0,-40 -40,-40 -40,0 -40,0 -40,40 0,40 0,40 40,40 40,0 40,0 40,-40 z m 460,0 c 0,-40 0,-40 -40,-40 -40,0 -40,0 -40,40 0,40 0,40 40,40 40,0 40,0 40,-40 z m 160,0 v -40 h -70 -70 v 40 40 h 70 70 z m 100,0 c 0,-40 0,-40 -40,-40 -40,0 -40,0 -40,40 0,40 0,40 40,40 40,0 40,0 40,-40 z m 460,0 c 0,-40 0,-40 -40,-40 -40,0 -40,0 -40,40 0,40 0,40 40,40 40,0 40,0 40,-40 z m 160,0 v -40 h -70 -70 v 40 40 h 70 70 z m 100,0 c 0,-40 0,-40 -40,-40 -40,0 -40,0 -40,40 0,40 0,40 40,40 40,0 40,0 40,-40 z m 460,0 c 0,-40 0,-40 -40,-40 -40,0 -40,0 -40,40 0,40 0,40 40,40 40,0 40,0 40,-40 z m 160,0 v -40 h -70 -70 v 40 40 h 70 70 z m 100,0 c 0,-40 0,-40 -40,-40 -40,0 -40,0 -40,40 0,40 0,40 40,40 40,0 40,0 40,-40 z M 190,1300 c 0,-5 -4,-10 -10,-10 -5,0 -10,-18 -10,-40 v -40 h 50 50 v 40 c 0,22 5,40 10,40 6,0 10,-18 10,-40 0,-40 0,-40 40,-40 40,0 40,0 40,40 0,22 5,40 10,40 6,0 10,-18 10,-40 0,-40 0,-40 40,-40 40,0 40,0 40,40 0,22 5,40 10,40 6,0 10,-18 10,-40 0,-38 2,-40 30,-40 17,0 30,-4 30,-10 0,-6 -73,-10 -200,-10 H 150 v 60 c 0,53 2,60 20,60 11,0 20,-4 20,-10 z m 4020,-50 v -60 h -200 c -127,0 -200,4 -200,10 0,6 14,10 30,10 28,0 30,2 30,40 0,22 5,40 10,40 6,0 10,-18 10,-40 0,-40 0,-40 40,-40 40,0 40,0 40,40 0,22 5,40 10,40 6,0 10,-18 10,-40 0,-40 0,-40 40,-40 40,0 40,0 40,40 0,22 5,40 10,40 6,0 10,-18 10,-40 v -40 h 50 50 v 40 c 0,22 -4,40 -10,40 -5,0 -10,5 -10,10 0,6 9,10 20,10 18,0 20,-7 20,-60 z m -3200,0 c 0,-40 0,-40 40,-40 40,0 40,0 40,40 0,22 5,40 10,40 6,0 10,-18 10,-40 0,-40 0,-40 40,-40 40,0 40,0 40,40 0,22 5,40 10,40 6,0 10,-18 10,-40 0,-38 2,-40 30,-40 17,0 30,-4 30,-10 0,-6 -63,-10 -170,-10 -107,0 -170,4 -170,10 0,6 14,10 30,10 28,0 30,2 30,40 0,22 5,40 10,40 6,0 10,-18 10,-40 z m 720,0 c 0,-40 0,-40 40,-40 40,0 40,0 40,40 0,22 5,40 10,40 6,0 10,-18 10,-40 0,-40 0,-40 40,-40 40,0 40,0 40,40 0,22 5,40 10,40 6,0 10,-18 10,-40 0,-38 2,-40 30,-40 17,0 30,-4 30,-10 0,-6 -63,-10 -170,-10 -107,0 -170,4 -170,10 0,6 14,10 30,10 28,0 30,2 30,40 0,22 5,40 10,40 6,0 10,-18 10,-40 z m 720,0 c 0,-40 0,-40 40,-40 40,0 40,0 40,40 0,22 5,40 10,40 6,0 10,-18 10,-40 0,-40 0,-40 40,-40 40,0 40,0 40,40 0,22 5,40 10,40 6,0 10,-18 10,-40 0,-38 2,-40 30,-40 17,0 30,-4 30,-10 0,-6 -63,-10 -170,-10 -107,0 -170,4 -170,10 0,6 14,10 30,10 28,0 30,2 30,40 0,22 5,40 10,40 6,0 10,-18 10,-40 z m 720,0 c 0,-40 0,-40 40,-40 40,0 40,0 40,40 0,22 5,40 10,40 6,0 10,-18 10,-40 0,-40 0,-40 40,-40 40,0 40,0 40,40 0,22 5,40 10,40 6,0 10,-18 10,-40 0,-38 2,-40 30,-40 17,0 30,-4 30,-10 0,-6 -63,-10 -170,-10 -107,0 -170,4 -170,10 0,6 14,10 30,10 28,0 30,2 30,40 0,22 5,40 10,40 6,0 10,-18 10,-40 z m -2440,12 c 0,-4 -9,-14 -20,-22 -11,-8 -20,-22 -20,-32 0,-15 -9,-18 -60,-18 h -60 v 40 40 h 80 c 44,0 80,-4 80,-8 z m 180,-32 v -40 h -60 c -51,0 -60,3 -60,18 0,10 -9,24 -20,32 -11,8 -20,18 -20,22 0,4 36,8 80,8 h 80 z m 540,32 c 0,-4 -9,-14 -20,-22 -11,-8 -20,-22 -20,-32 0,-15 -9,-18 -60,-18 h -60 v 40 40 h 80 c 44,0 80,-4 80,-8 z m 180,-32 v -40 h -60 c -51,0 -60,3 -60,18 0,10 -9,24 -20,32 -11,8 -20,18 -20,22 0,4 36,8 80,8 h 80 z m 540,0 v -40 h -80 -80 v 40 40 h 80 80 z m 180,0 v -40 h -80 -80 v 40 40 h 80 80 z m 540,32 c 0,-4 -9,-14 -20,-22 -11,-8 -20,-22 -20,-32 0,-15 -9,-18 -60,-18 h -60 v 40 40 h 80 c 44,0 80,-4 80,-8 z m 180,-32 v -40 h -60 c -51,0 -60,3 -60,18 0,10 -9,24 -20,32 -11,8 -20,18 -20,22 0,4 36,8 80,8 h 80 z m 540,32 c 0,-4 -9,-14 -20,-22 -11,-8 -20,-22 -20,-32 0,-15 -9,-18 -60,-18 h -60 v 40 40 h 80 c 44,0 80,-4 80,-8 z m 180,-32 v -40 h -60 c -51,0 -60,3 -60,18 0,10 -9,24 -20,32 -11,8 -20,18 -20,22 0,4 36,8 80,8 h 80 z M 756,1216 c 8,-8 14,-22 14,-30 0,-9 5,-16 10,-16 6,0 10,-47 10,-120 V 930 h -50 -50 v 120 c 0,73 4,120 10,120 6,0 10,7 10,15 0,14 19,44 28,45 2,0 10,-6 18,-14 z m 720,0 c 8,-8 14,-22 14,-30 0,-9 5,-16 10,-16 6,0 10,-47 10,-120 V 930 h -50 -50 v 120 c 0,73 4,120 10,120 6,0 10,7 10,15 0,14 19,44 28,45 2,0 10,-6 18,-14 z m 1440,0 c 8,-8 14,-22 14,-30 0,-9 5,-16 10,-16 6,0 10,-47 10,-120 V 930 h -50 -50 v 120 c 0,73 4,120 10,120 6,0 10,7 10,15 0,14 19,44 28,45 2,0 10,-6 18,-14 z m 720,0 c 8,-8 14,-22 14,-30 0,-9 5,-16 10,-16 6,0 10,-47 10,-120 V 930 h -50 -50 v 120 c 0,73 4,120 10,120 6,0 10,7 10,15 0,14 19,44 28,45 2,0 10,-6 18,-14 z M 290,1130 c 0,-40 0,-40 -40,-40 -40,0 -40,0 -40,40 0,40 0,40 40,40 40,0 40,0 40,-40 z m 160,0 v -40 h -70 -70 v 40 40 h 70 70 z m 100,0 c 0,-40 0,-40 -40,-40 -40,0 -40,0 -40,40 0,40 0,40 40,40 40,0 40,0 40,-40 z m 120,0 v -40 h -50 -50 v 40 40 h 50 50 z m 240,0 v -40 h -50 -50 v 40 40 h 50 50 z m 100,0 c 0,-40 0,-40 -40,-40 -40,0 -40,0 -40,40 0,40 0,40 40,40 40,0 40,0 40,-40 z m 160,0 v -40 h -70 -70 v 40 40 h 70 70 z m 100,0 c 0,-40 0,-40 -40,-40 -40,0 -40,0 -40,40 0,40 0,40 40,40 40,0 40,0 40,-40 z m 120,0 v -40 h -50 -50 v 40 40 h 50 50 z m 240,0 v -40 h -50 -50 v 40 40 h 50 50 z m 100,0 c 0,-40 0,-40 -40,-40 -40,0 -40,0 -40,40 0,40 0,40 40,40 40,0 40,0 40,-40 z m 160,0 v -40 h -70 -70 v 40 40 h 70 70 z m 100,0 c 0,-40 0,-40 -40,-40 -40,0 -40,0 -40,40 0,40 0,40 40,40 40,0 40,0 40,-40 z m 100,0 c 0,-40 0,-40 -40,-40 -40,0 -40,0 -40,40 0,40 0,40 40,40 40,0 40,0 40,-40 z m 160,0 v -40 h -70 -70 v 40 40 h 70 70 z m 100,0 c 0,-40 0,-40 -40,-40 -40,0 -40,0 -40,40 0,40 0,40 40,40 40,0 40,0 40,-40 z m 100,0 c 0,-40 0,-40 -40,-40 -40,0 -40,0 -40,40 0,40 0,40 40,40 40,0 40,0 40,-40 z m 160,0 v -40 h -70 -70 v 40 40 h 70 70 z m 100,0 c 0,-40 0,-40 -40,-40 -40,0 -40,0 -40,40 0,40 0,40 40,40 40,0 40,0 40,-40 z m 120,0 v -40 h -50 -50 v 40 40 h 50 50 z m 240,0 v -40 h -50 -50 v 40 40 h 50 50 z m 100,0 c 0,-40 0,-40 -40,-40 -40,0 -40,0 -40,40 0,40 0,40 40,40 40,0 40,0 40,-40 z m 160,0 v -40 h -70 -70 v 40 40 h 70 70 z m 100,0 c 0,-40 0,-40 -40,-40 -40,0 -40,0 -40,40 0,40 0,40 40,40 40,0 40,0 40,-40 z m 120,0 v -40 h -50 -50 v 40 40 h 50 50 z m 240,0 v -40 h -50 -50 v 40 40 h 50 50 z m 100,0 c 0,-40 0,-40 -40,-40 -40,0 -40,0 -40,40 0,40 0,40 40,40 40,0 40,0 40,-40 z m 160,0 v -40 h -70 -70 v 40 40 h 70 70 z m 100,0 c 0,-40 0,-40 -40,-40 -40,0 -40,0 -40,40 0,40 0,40 40,40 40,0 40,0 40,-40 z M 370,1030 v -40 h -80 -80 v 40 40 h 80 80 z m 180,0 v -40 h -80 -80 v 40 40 h 80 80 z m 120,0 v -40 h -50 -50 v 40 40 h 50 50 z m 240,0 v -40 h -50 -50 v 40 40 h 50 50 z m 180,0 v -40 h -80 -80 v 40 40 h 80 80 z m 180,0 v -40 h -80 -80 v 40 40 h 80 80 z m 120,0 v -40 h -50 -50 v 40 40 h 50 50 z m 240,0 v -40 h -50 -50 v 40 40 h 50 50 z m 180,0 v -40 h -80 -80 v 40 40 h 80 80 z m 180,0 v -40 h -80 -80 v 40 40 h 80 80 z m 180,0 v -40 h -80 -80 v 40 40 h 80 80 z m 180,0 v -40 h -80 -80 v 40 40 h 80 80 z m 180,0 v -40 h -80 -80 v 40 40 h 80 80 z m 180,0 v -40 h -80 -80 v 40 40 h 80 80 z m 120,0 v -40 h -50 -50 v 40 40 h 50 50 z m 240,0 v -40 h -50 -50 v 40 40 h 50 50 z m 180,0 v -40 h -80 -80 v 40 40 h 80 80 z m 180,0 v -40 h -80 -80 v 40 40 h 80 80 z m 120,0 v -40 h -50 -50 v 40 40 h 50 50 z m 240,0 v -40 h -50 -50 v 40 40 h 50 50 z m 180,0 v -40 h -80 -80 v 40 40 h 80 80 z m 180,0 v -40 h -80 -80 v 40 40 h 80 80 z M 290,930 c 0,-40 0,-40 -40,-40 -40,0 -40,0 -40,40 0,40 0,40 40,40 40,0 40,0 40,-40 z m 160,0 v -40 h -70 -70 v 40 40 h 70 70 z m 100,0 c 0,-40 0,-40 -40,-40 -40,0 -40,0 -40,40 0,40 0,40 40,40 40,0 40,0 40,-40 z m 120,20 c 0,-11 -4,-20 -10,-20 -5,0 -10,-9 -10,-20 0,-17 -7,-20 -40,-20 -40,0 -40,0 -40,40 v 40 h 50 c 43,0 50,-3 50,-20 z m 240,-20 c 0,-40 0,-40 -40,-40 -33,0 -40,3 -40,20 0,11 -4,20 -10,20 -5,0 -10,9 -10,20 0,17 7,20 50,20 h 50 z m 100,0 c 0,-40 0,-40 -40,-40 -40,0 -40,0 -40,40 0,40 0,40 40,40 40,0 40,0 40,-40 z m 160,0 v -40 h -70 -70 v 40 40 h 70 70 z m 100,0 c 0,-40 0,-40 -40,-40 -40,0 -40,0 -40,40 0,40 0,40 40,40 40,0 40,0 40,-40 z m 120,20 c 0,-11 -4,-20 -10,-20 -5,0 -10,-9 -10,-20 0,-17 -7,-20 -40,-20 -40,0 -40,0 -40,40 v 40 h 50 c 43,0 50,-3 50,-20 z m 240,-20 c 0,-40 0,-40 -40,-40 -33,0 -40,3 -40,20 0,11 -4,20 -10,20 -5,0 -10,9 -10,20 0,17 7,20 50,20 h 50 z m 100,0 c 0,-40 0,-40 -40,-40 -40,0 -40,0 -40,40 0,40 0,40 40,40 40,0 40,0 40,-40 z m 160,0 v -40 h -70 -70 v 40 40 h 70 70 z m 100,0 c 0,-40 0,-40 -40,-40 -40,0 -40,0 -40,40 0,40 0,40 40,40 40,0 40,0 40,-40 z m 100,0 c 0,-40 0,-40 -40,-40 -40,0 -40,0 -40,40 0,40 0,40 40,40 40,0 40,0 40,-40 z m 160,0 v -40 h -70 -70 v 40 40 h 70 70 z m 100,0 c 0,-40 0,-40 -40,-40 -40,0 -40,0 -40,40 0,40 0,40 40,40 40,0 40,0 40,-40 z m 100,0 c 0,-40 0,-40 -40,-40 -40,0 -40,0 -40,40 0,40 0,40 40,40 40,0 40,0 40,-40 z m 160,0 v -40 h -70 -70 v 40 40 h 70 70 z m 100,0 c 0,-40 0,-40 -40,-40 -40,0 -40,0 -40,40 0,40 0,40 40,40 40,0 40,0 40,-40 z m 120,20 c 0,-11 -4,-20 -10,-20 -5,0 -10,-9 -10,-20 0,-17 -7,-20 -40,-20 -40,0 -40,0 -40,40 v 40 h 50 c 43,0 50,-3 50,-20 z m 240,-20 c 0,-40 0,-40 -40,-40 -33,0 -40,3 -40,20 0,11 -4,20 -10,20 -5,0 -10,9 -10,20 0,17 7,20 50,20 h 50 z m 100,0 c 0,-40 0,-40 -40,-40 -40,0 -40,0 -40,40 0,40 0,40 40,40 40,0 40,0 40,-40 z m 160,0 v -40 h -70 -70 v 40 40 h 70 70 z m 100,0 c 0,-40 0,-40 -40,-40 -40,0 -40,0 -40,40 0,40 0,40 40,40 40,0 40,0 40,-40 z m 120,20 c 0,-11 -4,-20 -10,-20 -5,0 -10,-9 -10,-20 0,-17 -7,-20 -40,-20 -40,0 -40,0 -40,40 v 40 h 50 c 43,0 50,-3 50,-20 z m 240,-20 c 0,-40 0,-40 -40,-40 -33,0 -40,3 -40,20 0,11 -4,20 -10,20 -5,0 -10,9 -10,20 0,17 7,20 50,20 h 50 z m 100,0 c 0,-40 0,-40 -40,-40 -40,0 -40,0 -40,40 0,40 0,40 40,40 40,0 40,0 40,-40 z m 160,0 v -40 h -70 -70 v 40 40 h 70 70 z m 100,0 c 0,-40 0,-40 -40,-40 -40,0 -40,0 -40,40 0,40 0,40 40,40 40,0 40,0 40,-40 z M 810,900 c 0,-6 -30,-10 -70,-10 -40,0 -70,4 -70,10 0,6 30,10 70,10 40,0 70,-4 70,-10 z m 720,0 c 0,-6 -30,-10 -70,-10 -40,0 -70,4 -70,10 0,6 30,10 70,10 40,0 70,-4 70,-10 z m 1440,0 c 0,-6 -30,-10 -70,-10 -40,0 -70,4 -70,10 0,6 30,10 70,10 40,0 70,-4 70,-10 z m 720,0 c 0,-6 -30,-10 -70,-10 -40,0 -70,4 -70,10 0,6 30,10 70,10 40,0 70,-4 70,-10 z M 370,830 v -40 h -80 -80 v 40 40 h 80 80 z m 180,0 v -40 h -80 -80 v 40 40 h 80 80 z m 180,0 v -40 h -80 -80 v 40 40 h 80 80 z m 180,0 v -40 h -80 -80 v 40 40 h 80 80 z m 180,0 v -40 h -80 -80 v 40 40 h 80 80 z m 180,0 v -40 h -80 -80 v 40 40 h 80 80 z m 180,0 v -40 h -80 -80 v 40 40 h 80 80 z m 180,0 v -40 h -80 -80 v 40 40 h 80 80 z m 180,0 v -40 h -80 -80 v 40 40 h 80 80 z m 180,0 v -40 h -80 -80 v 40 40 h 80 80 z m 180,0 v -40 h -80 -80 v 40 40 h 80 80 z m 180,0 v -40 h -80 -80 v 40 40 h 80 80 z m 180,0 v -40 h -80 -80 v 40 40 h 80 80 z m 180,0 v -40 h -80 -80 v 40 40 h 80 80 z m 180,0 v -40 h -80 -80 v 40 40 h 80 80 z m 180,0 v -40 h -80 -80 v 40 40 h 80 80 z m 180,0 v -40 h -80 -80 v 40 40 h 80 80 z m 180,0 v -40 h -80 -80 v 40 40 h 80 80 z m 180,0 v -40 h -80 -80 v 40 40 h 80 80 z m 180,0 v -40 h -80 -80 v 40 40 h 80 80 z m 180,0 v -40 h -80 -80 v 40 40 h 80 80 z m 180,0 v -40 h -80 -80 v 40 40 h 80 80 z M 290,730 c 0,-40 0,-40 -40,-40 -40,0 -40,0 -40,40 0,40 0,40 40,40 40,0 40,0 40,-40 z m 160,0 v -40 h -70 -70 v 40 40 h 70 70 z m 100,0 c 0,-40 0,-40 -40,-40 -40,0 -40,0 -40,40 0,40 0,40 40,40 40,0 40,0 40,-40 z m 100,0 c 0,-40 0,-40 -40,-40 -40,0 -40,0 -40,40 0,40 0,40 40,40 40,0 40,0 40,-40 z m 160,0 v -40 h -70 -70 v 40 40 h 70 70 z m 100,0 c 0,-40 0,-40 -40,-40 -40,0 -40,0 -40,40 0,40 0,40 40,40 40,0 40,0 40,-40 z m 100,0 c 0,-40 0,-40 -40,-40 -40,0 -40,0 -40,40 0,40 0,40 40,40 40,0 40,0 40,-40 z m 160,0 v -40 h -70 -70 v 40 40 h 70 70 z m 100,0 c 0,-40 0,-40 -40,-40 -40,0 -40,0 -40,40 0,40 0,40 40,40 40,0 40,0 40,-40 z m 100,0 c 0,-40 0,-40 -40,-40 -40,0 -40,0 -40,40 0,40 0,40 40,40 40,0 40,0 40,-40 z m 160,0 v -40 h -70 -70 v 40 40 h 70 70 z m 100,0 c 0,-40 0,-40 -40,-40 -40,0 -40,0 -40,40 0,40 0,40 40,40 40,0 40,0 40,-40 z m 100,0 c 0,-40 0,-40 -40,-40 -40,0 -40,0 -40,40 0,40 0,40 40,40 40,0 40,0 40,-40 z m 160,0 v -40 h -70 -70 v 40 40 h 70 70 z m 100,0 c 0,-40 0,-40 -40,-40 -40,0 -40,0 -40,40 0,40 0,40 40,40 40,0 40,0 40,-40 z m 140,20 c 0,-11 -4,-20 -10,-20 -5,0 -10,-9 -10,-20 0,-17 -7,-20 -50,-20 h -50 v 40 40 h 60 c 53,0 60,-2 60,-20 z m 220,-20 v -40 h -50 c -43,0 -50,3 -50,20 0,11 -4,20 -10,20 -5,0 -10,9 -10,20 0,18 7,20 60,20 h 60 z m 100,0 c 0,-40 0,-40 -40,-40 -40,0 -40,0 -40,40 0,40 0,40 40,40 40,0 40,0 40,-40 z m 160,0 v -40 h -70 -70 v 40 40 h 70 70 z m 100,0 c 0,-40 0,-40 -40,-40 -40,0 -40,0 -40,40 0,40 0,40 40,40 40,0 40,0 40,-40 z m 100,0 c 0,-40 0,-40 -40,-40 -40,0 -40,0 -40,40 0,40 0,40 40,40 40,0 40,0 40,-40 z m 160,0 v -40 h -70 -70 v 40 40 h 70 70 z m 100,0 c 0,-40 0,-40 -40,-40 -40,0 -40,0 -40,40 0,40 0,40 40,40 40,0 40,0 40,-40 z m 100,0 c 0,-40 0,-40 -40,-40 -40,0 -40,0 -40,40 0,40 0,40 40,40 40,0 40,0 40,-40 z m 160,0 v -40 h -70 -70 v 40 40 h 70 70 z m 100,0 c 0,-40 0,-40 -40,-40 -40,0 -40,0 -40,40 0,40 0,40 40,40 40,0 40,0 40,-40 z m 100,0 c 0,-40 0,-40 -40,-40 -40,0 -40,0 -40,40 0,40 0,40 40,40 40,0 40,0 40,-40 z m 160,0 v -40 h -70 -70 v 40 40 h 70 70 z m 100,0 c 0,-40 0,-40 -40,-40 -40,0 -40,0 -40,40 0,40 0,40 40,40 40,0 40,0 40,-40 z m 100,0 c 0,-40 0,-40 -40,-40 -40,0 -40,0 -40,40 0,40 0,40 40,40 40,0 40,0 40,-40 z m 160,0 v -40 h -70 -70 v 40 40 h 70 70 z m 100,0 c 0,-40 0,-40 -40,-40 -40,0 -40,0 -40,40 0,40 0,40 40,40 40,0 40,0 40,-40 z M 370,630 v -40 h -80 -80 v 40 40 h 80 80 z m 180,0 v -40 h -80 -80 v 40 40 h 80 80 z m 180,0 v -40 h -80 -80 v 40 40 h 80 80 z m 180,0 v -40 h -80 -80 v 40 40 h 80 80 z m 140,20 c 0,-11 -4,-20 -10,-20 -5,0 -10,-9 -10,-20 0,-17 -7,-20 -50,-20 h -50 v 40 40 h 60 c 53,0 60,-2 60,-20 z m 220,-20 v -40 h -50 c -43,0 -50,3 -50,20 0,11 -4,20 -10,20 -5,0 -10,9 -10,20 0,18 7,20 60,20 h 60 z m 180,0 v -40 h -80 -80 v 40 40 h 80 80 z m 180,0 v -40 h -80 -80 v 40 40 h 80 80 z m 140,20 c 0,-11 -4,-20 -10,-20 -5,0 -10,-9 -10,-20 0,-17 -7,-20 -50,-20 h -50 v 40 40 h 60 c 53,0 60,-2 60,-20 z m 220,-20 v -40 h -50 c -43,0 -50,3 -50,20 0,11 -4,20 -10,20 -5,0 -10,9 -10,20 0,18 7,20 60,20 h 60 z m 80,0 c 0,-38 -2,-40 -30,-40 -28,0 -30,2 -30,40 0,38 2,40 30,40 28,0 30,-2 30,-40 z m 280,0 c 0,-38 -2,-40 -30,-40 -28,0 -30,2 -30,40 0,38 2,40 30,40 28,0 30,-2 30,-40 z m 140,20 c 0,-11 -4,-20 -10,-20 -5,0 -10,-9 -10,-20 0,-17 -7,-20 -50,-20 h -50 v 40 40 h 60 c 53,0 60,-2 60,-20 z m 220,-20 v -40 h -50 c -43,0 -50,3 -50,20 0,11 -4,20 -10,20 -5,0 -10,9 -10,20 0,18 7,20 60,20 h 60 z m 180,0 v -40 h -80 -80 v 40 40 h 80 80 z m 180,0 v -40 h -80 -80 v 40 40 h 80 80 z m 140,20 c 0,-11 -4,-20 -10,-20 -5,0 -10,-9 -10,-20 0,-17 -7,-20 -50,-20 h -50 v 40 40 h 60 c 53,0 60,-2 60,-20 z m 220,-20 v -40 h -50 c -43,0 -50,3 -50,20 0,11 -4,20 -10,20 -5,0 -10,9 -10,20 0,18 7,20 60,20 h 60 z m 180,0 v -40 h -80 -80 v 40 40 h 80 80 z m 180,0 v -40 h -80 -80 v 40 40 h 80 80 z m 180,0 v -40 h -80 -80 v 40 40 h 80 80 z m 180,0 v -40 h -80 -80 v 40 40 h 80 80 z M 290,530 c 0,-40 0,-40 -40,-40 -40,0 -40,0 -40,40 0,40 0,40 40,40 40,0 40,0 40,-40 z m 160,0 v -40 h -70 -70 v 40 40 h 70 70 z m 100,0 c 0,-40 0,-40 -40,-40 -40,0 -40,0 -40,40 0,40 0,40 40,40 40,0 40,0 40,-40 z m 100,0 c 0,-40 0,-40 -40,-40 -40,0 -40,0 -40,40 0,40 0,40 40,40 40,0 40,0 40,-40 z m 160,0 v -40 h -70 -70 v 40 40 h 70 70 z m 100,0 c 0,-40 0,-40 -40,-40 -40,0 -40,0 -40,40 0,40 0,40 40,40 40,0 40,0 40,-40 z m 80,0 c 0,-38 -2,-40 -30,-40 -28,0 -30,2 -30,40 0,38 2,40 30,40 28,0 30,-2 30,-40 z m 280,0 c 0,-38 -2,-40 -30,-40 -28,0 -30,2 -30,40 0,38 2,40 30,40 28,0 30,-2 30,-40 z m 100,0 c 0,-40 0,-40 -40,-40 -40,0 -40,0 -40,40 0,40 0,40 40,40 40,0 40,0 40,-40 z m 160,0 v -40 h -70 -70 v 40 40 h 70 70 z m 100,0 c 0,-40 0,-40 -40,-40 -40,0 -40,0 -40,40 0,40 0,40 40,40 40,0 40,0 40,-40 z m 80,0 c 0,-38 -2,-40 -30,-40 -28,0 -30,2 -30,40 0,38 2,40 30,40 28,0 30,-2 30,-40 z m 280,0 c 0,-38 -2,-40 -30,-40 -28,0 -30,2 -30,40 0,38 2,40 30,40 28,0 30,-2 30,-40 z m 80,0 c 0,-38 -2,-40 -30,-40 -28,0 -30,2 -30,40 0,38 2,40 30,40 28,0 30,-2 30,-40 z m 280,0 c 0,-38 -2,-40 -30,-40 -28,0 -30,2 -30,40 0,38 2,40 30,40 28,0 30,-2 30,-40 z m 80,0 c 0,-38 -2,-40 -30,-40 -28,0 -30,2 -30,40 0,38 2,40 30,40 28,0 30,-2 30,-40 z m 280,0 c 0,-38 -2,-40 -30,-40 -28,0 -30,2 -30,40 0,38 2,40 30,40 28,0 30,-2 30,-40 z m 100,0 c 0,-40 0,-40 -40,-40 -40,0 -40,0 -40,40 0,40 0,40 40,40 40,0 40,0 40,-40 z m 160,0 v -40 h -70 -70 v 40 40 h 70 70 z m 100,0 c 0,-40 0,-40 -40,-40 -40,0 -40,0 -40,40 0,40 0,40 40,40 40,0 40,0 40,-40 z m 80,0 c 0,-38 -2,-40 -30,-40 -28,0 -30,2 -30,40 0,38 2,40 30,40 28,0 30,-2 30,-40 z m 280,0 c 0,-38 -2,-40 -30,-40 -28,0 -30,2 -30,40 0,38 2,40 30,40 28,0 30,-2 30,-40 z m 100,0 c 0,-40 0,-40 -40,-40 -40,0 -40,0 -40,40 0,40 0,40 40,40 40,0 40,0 40,-40 z m 160,0 v -40 h -70 -70 v 40 40 h 70 70 z m 100,0 c 0,-40 0,-40 -40,-40 -40,0 -40,0 -40,40 0,40 0,40 40,40 40,0 40,0 40,-40 z m 100,0 c 0,-40 0,-40 -40,-40 -40,0 -40,0 -40,40 0,40 0,40 40,40 40,0 40,0 40,-40 z m 160,0 v -40 h -70 -70 v 40 40 h 70 70 z m 100,0 c 0,-40 0,-40 -40,-40 -40,0 -40,0 -40,40 0,40 0,40 40,40 40,0 40,0 40,-40 z M 370,430 v -40 h -80 -80 v 40 40 h 80 80 z m 180,0 v -40 h -80 -80 v 40 40 h 80 80 z m 180,0 v -40 h -80 -80 v 40 40 h 80 80 z m 180,0 v -40 h -80 -80 v 40 40 h 80 80 z m 80,0 c 0,-38 -2,-40 -30,-40 -28,0 -30,2 -30,40 0,38 2,40 30,40 28,0 30,-2 30,-40 z m 280,0 c 0,-38 -2,-40 -30,-40 -28,0 -30,2 -30,40 0,38 2,40 30,40 28,0 30,-2 30,-40 z m 180,0 v -40 h -80 -80 v 40 40 h 80 80 z m 180,0 v -40 h -80 -80 v 40 40 h 80 80 z m 80,0 c 0,-38 -2,-40 -30,-40 -28,0 -30,2 -30,40 0,38 2,40 30,40 28,0 30,-2 30,-40 z m 280,0 c 0,-38 -2,-40 -30,-40 -28,0 -30,2 -30,40 0,38 2,40 30,40 28,0 30,-2 30,-40 z m 80,0 c 0,-38 -2,-40 -30,-40 -28,0 -30,2 -30,40 0,38 2,40 30,40 28,0 30,-2 30,-40 z m 280,0 c 0,-38 -2,-40 -30,-40 -28,0 -30,2 -30,40 0,38 2,40 30,40 28,0 30,-2 30,-40 z m 80,0 c 0,-38 -2,-40 -30,-40 -28,0 -30,2 -30,40 0,38 2,40 30,40 28,0 30,-2 30,-40 z m 280,0 c 0,-38 -2,-40 -30,-40 -28,0 -30,2 -30,40 0,38 2,40 30,40 28,0 30,-2 30,-40 z m 180,0 v -40 h -80 -80 v 40 40 h 80 80 z m 180,0 v -40 h -80 -80 v 40 40 h 80 80 z m 80,0 c 0,-38 -2,-40 -30,-40 -28,0 -30,2 -30,40 0,38 2,40 30,40 28,0 30,-2 30,-40 z m 280,0 c 0,-38 -2,-40 -30,-40 -28,0 -30,2 -30,40 0,38 2,40 30,40 28,0 30,-2 30,-40 z m 180,0 v -40 h -80 -80 v 40 40 h 80 80 z m 180,0 v -40 h -80 -80 v 40 40 h 80 80 z m 180,0 v -40 h -80 -80 v 40 40 h 80 80 z m 180,0 v -40 h -80 -80 v 40 40 h 80 80 z M 290,330 c 0,-40 0,-40 -40,-40 -40,0 -40,0 -40,40 0,40 0,40 40,40 40,0 40,0 40,-40 z m 160,0 v -40 h -70 -70 v 40 40 h 70 70 z m 100,0 c 0,-40 0,-40 -40,-40 -40,0 -40,0 -40,40 0,40 0,40 40,40 40,0 40,0 40,-40 z m 100,0 c 0,-40 0,-40 -40,-40 -40,0 -40,0 -40,40 0,40 0,40 40,40 40,0 40,0 40,-40 z m 160,0 v -40 h -70 -70 v 40 40 h 70 70 z m 100,0 c 0,-40 0,-40 -40,-40 -40,0 -40,0 -40,40 0,40 0,40 40,40 40,0 40,0 40,-40 z m 80,0 c 0,-38 -2,-40 -30,-40 -28,0 -30,2 -30,40 0,38 2,40 30,40 28,0 30,-2 30,-40 z m 280,0 c 0,-38 -2,-40 -30,-40 -28,0 -30,2 -30,40 0,38 2,40 30,40 28,0 30,-2 30,-40 z m 100,0 c 0,-40 0,-40 -40,-40 -40,0 -40,0 -40,40 0,40 0,40 40,40 40,0 40,0 40,-40 z m 160,0 v -40 h -70 -70 v 40 40 h 70 70 z m 100,0 c 0,-40 0,-40 -40,-40 -40,0 -40,0 -40,40 0,40 0,40 40,40 40,0 40,0 40,-40 z m 80,0 c 0,-38 -2,-40 -30,-40 -28,0 -30,2 -30,40 0,38 2,40 30,40 28,0 30,-2 30,-40 z m 280,0 c 0,-38 -2,-40 -30,-40 -28,0 -30,2 -30,40 0,38 2,40 30,40 28,0 30,-2 30,-40 z m 80,0 c 0,-38 -2,-40 -30,-40 -28,0 -30,2 -30,40 0,38 2,40 30,40 28,0 30,-2 30,-40 z m 280,0 c 0,-38 -2,-40 -30,-40 -28,0 -30,2 -30,40 0,38 2,40 30,40 28,0 30,-2 30,-40 z m 80,0 c 0,-38 -2,-40 -30,-40 -28,0 -30,2 -30,40 0,38 2,40 30,40 28,0 30,-2 30,-40 z m 280,0 c 0,-38 -2,-40 -30,-40 -28,0 -30,2 -30,40 0,38 2,40 30,40 28,0 30,-2 30,-40 z m 100,0 c 0,-40 0,-40 -40,-40 -40,0 -40,0 -40,40 0,40 0,40 40,40 40,0 40,0 40,-40 z m 160,0 v -40 h -70 -70 v 40 40 h 70 70 z m 100,0 c 0,-40 0,-40 -40,-40 -40,0 -40,0 -40,40 0,40 0,40 40,40 40,0 40,0 40,-40 z m 80,0 c 0,-38 -2,-40 -30,-40 -28,0 -30,2 -30,40 0,38 2,40 30,40 28,0 30,-2 30,-40 z m 280,0 c 0,-38 -2,-40 -30,-40 -28,0 -30,2 -30,40 0,38 2,40 30,40 28,0 30,-2 30,-40 z m 100,0 c 0,-40 0,-40 -40,-40 -40,0 -40,0 -40,40 0,40 0,40 40,40 40,0 40,0 40,-40 z m 160,0 v -40 h -70 -70 v 40 40 h 70 70 z m 100,0 c 0,-40 0,-40 -40,-40 -40,0 -40,0 -40,40 0,40 0,40 40,40 40,0 40,0 40,-40 z m 100,0 c 0,-40 0,-40 -40,-40 -40,0 -40,0 -40,40 0,40 0,40 40,40 40,0 40,0 40,-40 z m 160,0 v -40 h -70 -70 v 40 40 h 70 70 z m 100,0 c 0,-40 0,-40 -40,-40 -40,0 -40,0 -40,40 0,40 0,40 40,40 40,0 40,0 40,-40 z M 370,230 v -40 h -80 -80 v 40 40 h 80 80 z m 180,0 v -40 h -80 -80 v 40 40 h 80 80 z m 180,0 v -40 h -80 -80 v 40 40 h 80 80 z m 180,0 v -40 h -80 -80 v 40 40 h 80 80 z m 80,0 c 0,-38 -2,-40 -30,-40 -28,0 -30,2 -30,40 0,38 2,40 30,40 28,0 30,-2 30,-40 z m 280,0 c 0,-38 -2,-40 -30,-40 -28,0 -30,2 -30,40 0,38 2,40 30,40 28,0 30,-2 30,-40 z m 180,0 v -40 h -80 -80 v 40 40 h 80 80 z m 180,0 v -40 h -80 -80 v 40 40 h 80 80 z m 80,0 c 0,-38 -2,-40 -30,-40 -28,0 -30,2 -30,40 0,38 2,40 30,40 28,0 30,-2 30,-40 z m 280,0 c 0,-38 -2,-40 -30,-40 -28,0 -30,2 -30,40 0,38 2,40 30,40 28,0 30,-2 30,-40 z m 80,0 c 0,-38 -2,-40 -30,-40 -28,0 -30,2 -30,40 0,38 2,40 30,40 28,0 30,-2 30,-40 z m 280,0 c 0,-38 -2,-40 -30,-40 -28,0 -30,2 -30,40 0,38 2,40 30,40 28,0 30,-2 30,-40 z m 80,0 c 0,-38 -2,-40 -30,-40 -28,0 -30,2 -30,40 0,38 2,40 30,40 28,0 30,-2 30,-40 z m 280,0 c 0,-38 -2,-40 -30,-40 -28,0 -30,2 -30,40 0,38 2,40 30,40 28,0 30,-2 30,-40 z m 180,0 v -40 h -80 -80 v 40 40 h 80 80 z m 180,0 v -40 h -80 -80 v 40 40 h 80 80 z m 80,0 c 0,-38 -2,-40 -30,-40 -28,0 -30,2 -30,40 0,38 2,40 30,40 28,0 30,-2 30,-40 z m 280,0 c 0,-38 -2,-40 -30,-40 -28,0 -30,2 -30,40 0,38 2,40 30,40 28,0 30,-2 30,-40 z m 180,0 v -40 h -80 -80 v 40 40 h 80 80 z m 180,0 v -40 h -80 -80 v 40 40 h 80 80 z m 180,0 v -40 h -80 -80 v 40 40 h 80 80 z m 180,0 v -40 h -80 -80 v 40 40 h 80 80 z" />
      </g>
    </g>
  </g>
  <metadata
     id="metadata19">
    <rdf:RDF>
      <cc:Work>
        <dc:format>image/svg+xml</dc:format>
        <dc:type
           rdf:resource="http://purl.org/dc/dcmitype/StillImage" />
        <cc:license
           rdf:resource="http://creativecommons.org/licenses/publicdomain/" />
        <dc:publisher>
          <cc:Agent
             rdf:about="http://openclipart.org/">
            <dc:title>Openclipart</dc:title>
          </cc:Agent>
        </dc:publisher>
        <dc:date>2009-04-01T22:36:19</dc:date>
        <dc:description />
        <dc:source>https://openclipart.org/detail/23708/flag-of-baleares---spain-by-anonymous-23708</dc:source>
        <dc:creator>
          <cc:Agent>
            <dc:title>Anonymous</dc:title>
          </cc:Agent>
        </dc:creator>
        <dc:subject>
          <rdf:Bag>
            <rdf:li>europe</rdf:li>
            <rdf:li>flag</rdf:li>
            <rdf:li>sign</rdf:li>
            <rdf:li>spain</rdf:li>
          </rdf:Bag>
        </dc:subject>
      </cc:Work>
      <cc:License
         rdf:about="http://creativecommons.org/licenses/publicdomain/">
        <cc:permits
           rdf:resource="http://creativecommons.org/ns#Reproduction" />
        <cc:permits
           rdf:resource="http://creativecommons.org/ns#Distribution" />
        <cc:permits
           rdf:resource="http://creativecommons.org/ns#DerivativeWorks" />
      </cc:License>
    </rdf:RDF>
  </metadata>
</svg>
