<?xml version="1.0" encoding="UTF-8" standalone="no"?>
<svg
   viewBox="3.75 0 15 15"
   version="1.1"
   id="svg14"
   sodipodi:docname="EU.svg"
   inkscape:version="1.1.2 (b8e25be833, 2022-02-05)"
   xmlns:inkscape="http://www.inkscape.org/namespaces/inkscape"
   xmlns:sodipodi="http://sodipodi.sourceforge.net/DTD/sodipodi-0.dtd"
   xmlns="http://www.w3.org/2000/svg"
   xmlns:svg="http://www.w3.org/2000/svg">
  <defs
     id="defs18" />
  <sodipodi:namedview
     id="namedview16"
     pagecolor="#505050"
     bordercolor="#ffffff"
     borderopacity="1"
     inkscape:pageshadow="0"
     inkscape:pageopacity="0"
     inkscape:pagecheckerboard="1"
     showgrid="false"
     inkscape:zoom="16.000001"
     inkscape:cx="4.1562498"
     inkscape:cy="4.0937498"
     inkscape:window-width="1280"
     inkscape:window-height="961"
     inkscape:window-x="1912"
     inkscape:window-y="-8"
     inkscape:window-maximized="1"
     inkscape:current-layer="svg14" />
  <path
     fill="#FFF"
     d="M0 0h22.5v15H0V0z"
     id="path2"
     style="fill:#003399;fill-opacity:1" />
  <path
     fill="#ffcc00"
     d="m 11.248638,1.662917 0.187085,0.5755021 h 0.608166 L 11.554083,2.5943025 11.738471,3.1704164 11.248638,2.8145267 10.758806,3.1704164 10.945918,2.5946123 10.456111,2.2387226 h 0.605445 z M 8.74864,2.3295835 8.935722,2.9050856 H 9.543888 L 9.054083,3.2609753 9.238472,3.8370828 8.74864,3.4811916 8.258807,3.8370828 8.445914,3.2612772 7.956108,2.9053875 H 8.561556 Z M 6.915305,4.1629182 7.102391,4.7384141 H 7.710556 L 7.220751,5.0943038 7.405138,5.6704176 6.915305,5.314528 6.425472,5.6704176 6.612585,5.0946135 6.12278,4.7387223 H 6.728219 Z M 6.248639,6.6628928 6.435719,7.2384154 H 7.043891 L 6.554085,7.5943333 6.738472,8.1704456 6.248639,7.8145292 5.758806,8.1704456 5.94592,7.5945865 5.456114,7.2387236 H 6.061553 Z M 6.915305,9.1629206 7.102391,9.7384438 H 7.710556 L 7.220751,10.094307 7.405138,10.67042 6.915305,10.314557 6.425472,10.67042 6.612585,10.094616 6.12278,9.7387245 H 6.728219 Z M 8.74864,10.996249 8.935722,11.571778 H 9.543888 L 9.054083,11.927641 9.238472,12.503748 8.74864,12.147891 8.258807,12.503748 8.445914,11.927943 7.956108,11.572053 h 0.605448 z m 4.999999,-8.6666655 0.187083,0.5755021 h 0.608167 l -0.489806,0.3558897 0.18436,0.5761075 -0.489804,-0.3558912 -0.489862,0.3558912 0.187139,-0.5758056 -0.489805,-0.3558897 h 0.605415 z m 1.833333,1.8333347 0.187083,0.5754959 h 0.608167 L 15.887416,5.0943038 16.071777,5.6704176 15.581972,5.314528 15.092112,5.6704176 15.27925,5.0946135 14.789444,4.7387223 h 0.605417 z m 0.666666,2.5000013 0.187084,0.5754959 h 0.608167 L 16.554083,7.5943333 16.738472,8.1704456 16.248638,7.8145292 15.758805,8.1704456 15.945916,7.5945865 15.45611,7.2387236 h 0.605445 z m -0.666666,2.5000011 0.187083,0.5755232 h 0.608167 l -0.489806,0.3558632 0.184389,0.576113 -0.489833,-0.355863 -0.489833,0.355863 0.187111,-0.575804 -0.489806,-0.3558915 h 0.605444 z m -4.333334,2.4999934 0.187085,0.575531 h 0.608166 l -0.489806,0.355863 0.184388,0.576111 -0.489833,-0.35586 -0.489832,0.35586 0.187112,-0.57581 -0.489807,-0.355882 h 0.605445 z m 2.500001,-0.666693 0.187083,0.57553 h 0.608167 l -0.489806,0.35589 0.184417,0.576107 -0.489861,-0.355883 -0.489805,0.355883 0.187082,-0.575832 -0.489805,-0.355863 h 0.605472 z"
     id="path4-7"
     style="stroke-width:0.0277778" />
</svg>
