<svg xmlns="http://www.w3.org/2000/svg" xmlns:xlink="http://www.w3.org/1999/xlink" width="450" height="300" xmlns:v="https://vecta.io/nano"><path d="M0 0h450v300H0z"/><path fill="#ce1126" d="M0 0h450v150H0z"/><g fill="#f9d616"><path d="M231.115 91.82a58.5 58.5 0 1 1-43.199 103.424l-8.558 10.441a72 72 0 1 0 53.168-127.291z"/><g id="A"><path id="B" d="M302.624 142.355c.501 5.085.501 10.206 0 15.291l-14.928-1.47a63 63 0 0 0 0-12.35z"/><use xlink:href="#B" transform="rotate(22.5 225 150)"/><use xlink:href="#B" transform="rotate(45 225 150)"/></g><use xlink:href="#A" transform="rotate(292.5 225 150)"/><use xlink:href="#A" transform="rotate(67.5 225 150)"/><path d="M199.324 114.656h51.351l-41.543 30.184L225 96l15.867 48.84zm88.555 101.659c3.838 3.714 9.007 7.376 12.755 10.703s6.621 6.092 8.945 9.872c3.407 5.539-.419 11.812-5.724 8.13-2.869-1.991-4.672-7.367-9.067-11.815-3.255-2.771-5.82-5.677-14.002-7.078-.393-.067-.508-.897-.199-1.26z"/><path fill="#000" d="M231.361 197.845l20.247 11.972 4.402 17.078 23.24-1.761 10.212-11.972-37.854-26.234-20.247 10.916z"/><path d="M279.663 223.689c-26.035-17.314-42.591-26.663-67.542-40.85-9.802-5.573-25.023-19.582-13.016-43.02.756 15.387 61.569 57.623 87.265 75.988z"/><path fill="none" stroke="#000" stroke-width="1.5" stroke-linecap="round" d="M216.086 167.519c20.046 18.891 45.29 34.302 67.812 51.335"/><circle id="C" cx="290.4" cy="222.297" r="1.008" fill="#000"/><use xlink:href="#C" x="7.42" y="6.466"/><use xlink:href="#C" x="13.938" y="13.09"/></g></svg>