<svg xmlns="http://www.w3.org/2000/svg" width="1200" height="600"  xmlns:v="https://vecta.io/nano"><clipPath id="A"><path d="M0,0V150H700V300H600zM600,0H300V350H0V300z"/></clipPath><path fill="#00247d" d="M0 0h1200v600H0z"/><path d="M0,0 600,300M600,0 0,300" stroke="#fff" stroke-width="60"/><path d="M0,0 600,300M600,0 0,300" stroke="#cf142b" stroke-width="40" clip-path="url(#A)"/><path d="M300,0V350M0,150H700" stroke="#fff" stroke-width="100"/><path d="M300,0V350M0,150H700" stroke="#cf142b" stroke-width="60"/><path d="M0,300H600V0H800V400H0z" fill="#00247d"/><path fill="#cc3" d="M780.583 154.039c0 148.827 11.873 201.675 52.606 242.479s56.166 47.231 67.523 53.483c13.101-7.211 28.197-15.134 65.115-52.052 36.513-36.515 54.173-89.15 54.173-246.452-26.559 11.371-39.786 15.118-63.012 15.051-17.202 1.685-43.74-9.338-59.609-16.548-10.371 6.602-25.415 14.476-52.451 15.36-31.225 1.31-41.119-3.735-64.345-11.322z"/><path fill="#fff" d="M787.775 163.438c0 46.043-2.722 108.794 7.006 145.1 9.77 36.462 12.013 41.803 19.36 54.528l171.206-1.271c10.576-18.318 11.11-29.665 18.953-58.935 7.815-29.165 9.789-94.177 10.017-142.6-17.216 8.724-39.761 14.907-61.644 12.195-17.542-1.275-33.751-5.093-52.627-15.264-16.374 9.353-22.082 13.622-49.118 14.714-21.051.99-38.102 2.615-63.152-8.468z"/><path fill="#9cf" d="M814.51 362.056c12.185 24.448 69.632 71.303 86.433 81.003 19.168-11.067 69.848-57.368 83.973-81.003H814.51z"/><path d="M904.221 231.606c5.414 12.14 22.77 25.545 27.541 32.115-6.073 6.569-7.287 5.854-6.491 18.059 10.56-10.534 10.75-11.632 17.542-10.035 14.879 14.156 2.663 44.557-9.634 51.167-12.294 7.051-10.062-.244-28.489 8.593 8.448 6.887 18.237-1.01 26.236 1.1 4.347 4.917-2.066 13.878 1.312 22.317 7.07-.649 6.22-14.256 7.866-19.19 5.164-18.076 36.214-30.683 37.793-47.263 6.547-2.93 13.09-.916 21.051 3.345-3.965-15.534-17.079-15.366-20.595-20.218-8.368-12.191-15.784-26.098-33.657-29.706-13.567-2.739-12.553.824-21.247-4.83-5.414-4.019-21.861-11.618-19.23-5.454zm-43.382 51.5c8.729-10.234 13.053-31.127 16.917-38.218 8.93 2.05 8.833 3.408 19.78-2.965-14.703-3.981-15.81-3.628-17.501-10.099 6.177-19.155 40.079-23.06 51.953-15.782 12.282 7.069 4.474 8.596 21.278 20 2.44-10.339-9.456-14.901-11.236-22.63 2.529-5.961 13.836-4.741 20.084-11.532-3.904-5.656-16.127 1.416-21.471 2.334-19.176 4.091-45.373-16.193-61.487-9.778-5.776-4.15-6.965-10.606-6.732-19.307-12.554 10.599-6.272 21.575-9.129 26.805-7.397 12.749-16.83 25.497-11.827 42.248 3.798 12.716 6.628 10.197 5.446 20.167-1.198 6.441-.562 23.855 3.925 18.758zm70.924 7.196c-13.703-1.828-34.694 5.451-43.058 5.967-2.779-8.346-1.51-8.97-12.893-14.605 4.032 14.055 4.922 14.776-.013 19.504-20.39 4.869-41.432-20.772-41.041-34.226-.008-13.678 5.402-8.097 6.947-27.707-10.543 3.357-8.484 15.423-14.502 20.873-6.66 1.02-11.413-8.836-20.741-10.422-3.058 6.111 9.613 12.426 13.202 16.311 13.592 13.53 8.935 45.397 23.029 55.227-.737 6.859-5.918 11.169-13.849 15.48 16.008 4.761 22.612-6.043 28.784-6.417 15.27-.559 31.594.542 44.042-12.205 9.45-9.677 5.725-10.683 15.286-14.876 6.401-2.354 21.705-11.881 14.808-12.906z" fill="#f90"/><g fill="#fff"><circle cx="266.239" cy="122.104" r=".806" transform="matrix(3.508455 0 0 3.344878 6.330718 -163.01097)"/><circle cx="266.239" cy="122.104" r=".806" transform="matrix(-1.638999 -2.957437 3.102067 -1.562583 914.32327 1224.3275)"/><circle cx="266.239" cy="122.104" r=".806" transform="matrix(-1.80698 2.867116 -3.007328 -1.722732 1749.0027 -240.21318)"/></g></svg>