<svg xmlns="http://www.w3.org/2000/svg" xmlns:xlink="http://www.w3.org/1999/xlink" width="1280" height="640" viewBox="0 0 10080 5040" xmlns:v="https://vecta.io/nano"><defs><clipPath id="A"><path d="M0,0V1.5H7V3H6zM6,0H3V3.5H0V3z"/></clipPath><path id="B" d="M0-360l69.421 215.845 212.038-80.301L155.988-35.603 350.974 80.108 125.093 99.758l31.105 224.59L0 160-156.198 324.349l31.105-224.59-225.881-19.651 194.986-115.711-125.471-188.853 212.038 80.301z"/><path id="C" d="M0-210L54.86-75.508l144.862 10.615L88.765 28.842l34.67 141.052L0 93.333l-123.435 76.56 34.67-141.052-110.957-93.735L-54.86-75.508z"/><use id="D" xlink:href="#B" transform="scale(2.1)"/></defs><path fill="#00008b" d="M0 0h10080v5040H0z"/><path d="M0 0l5040 2520m0-2520L0 2520" stroke="#fff" stroke-width="504"/><path d="M0,0 6,3M6,0 0,3" stroke="red" stroke-width=".4" clip-path="url(#A)" transform="scale(840)"/><path d="M2520 0v2940M0 1260h5880" stroke="#fff" stroke-width="840"/><path d="M2520 0v2940M0 1260h5880" stroke="red" stroke-width="504"/><path d="M0 2520h5040V0h1680v3360H0z" fill="#00008b"/><g fill="#fff"><use xlink:href="#D" x="2520" y="3780"/><use xlink:href="#B" x="7560" y="4200"/><use xlink:href="#B" x="6300" y="2205"/><use xlink:href="#B" x="7560" y="840"/><use xlink:href="#B" x="8680" y="1869"/><use xlink:href="#C" x="8064" y="2730"/></g></svg>