<svg xmlns="http://www.w3.org/2000/svg" xmlns:xlink="http://www.w3.org/1999/xlink" width="900" height="450" viewBox="0 0 1098 549" xmlns:v="https://vecta.io/nano"><path fill="#c8313e" d="M0 0h1098v549H0z"/><path fill="#4aa657" d="M0 366h1098v183H0z"/><path fill="#fff" d="M0 0h122v549H0z"/><g id="A"><path d="M21.217 0H37.13v9h5.304v9h5.304v9h5.304v9h5.304v9h-5.304v9h-5.304v9h-5.304v9H37.13v9h-5.304v9h-5.304v-9h-5.304v-9h-5.304v-9H10.61v-9H5.304v-9H0v-9h5.304v-9h5.304v-9h5.304V9h5.304zm5.304 18h5.304v9h5.304v9h5.304v9H37.13v9h-5.304v9h-5.304v-9h-5.304v-9h-5.304v-9h5.304v-9h5.304zm0 18h5.304v9h-5.304zM0 9h5.304v9H0zm0 54h5.304v9H0zM58.348 0h3.183v18h-3.183zm0 63h3.183v18h-3.183zM10.609 81h5.304v9h5.304v9h5.304v9h-5.304v9h-5.304v9h-5.304v-9H5.304v-9H0v-9h5.304v-9h5.304zm0 18h5.304v9h-5.304zm31.826-18h5.304v9h5.304v9h5.304v9h-5.304v9h-5.304v9h-5.304v-9H37.13v-9h-5.304v-9h5.304v-9h5.304zm0 18h5.304v9h-5.304zM0 135h5.304v9H0zm58.348-9h3.183v18h-3.183zM0 162h5.304v-9h5.304v-9h5.304v-9h5.304v-9h5.304v-9h5.304v9h5.304v9h5.304v9h5.304v9h5.304v9h5.304v9h3.183v36h-3.183v9H53.04v9h-5.304v9h-5.304v9H37.13v9h-5.304v23.4H21.217V270h-5.304v-9h-5.304v-9H5.304v-9H0v-27h5.304v9h5.304v9h5.304v9h5.304v-9h5.304v-9h5.304v-9h5.304v-9h5.304v-9h5.304v-9h-5.304v-9H37.13v-9H21.217v9h10.609v9h-5.304v9h-5.304v9h-5.304v-9H10.61v-9H5.304v-9H0zm0 36h5.304v9H0zm58.348 27h3.183v9h-3.183zm-10.609 18h5.304v9h5.304v9h3.183v14.4h-3.183V270h-5.304v-9h-5.304zM37.13 270h5.304v5.4H37.13z" id="B" fill="#c8313e" fill-rule="evenodd"/><use xlink:href="#B" transform="matrix(-1 0 0 1 122 0)"/></g><use xlink:href="#A" transform="matrix(1 0 0 -1 0 549)"/></svg>