<svg xmlns="http://www.w3.org/2000/svg" xmlns:xlink="http://www.w3.org/1999/xlink" width="600" height="300" xmlns:v="https://vecta.io/nano"><clipPath id="A"><path d="M0 0v75h350v75h-50zm300 0H150v200H0v-50z"/></clipPath><path fill="#00247d" d="M0 0h600v300H0z"/><path d="M0,0L300,150M300,0L0,150" stroke="#fff" stroke-width="30"/><path d="M0,0L300,150M300,0L0,150" stroke="#cf142b" stroke-width="20" clip-path="url(#A)"/><path d="M150,0V200M0,75H350" stroke="#fff" stroke-width="50"/><path d="M150,0V200M0,75H350" stroke="#cf142b" stroke-width="30"/><path d="M300,0V150H0V300H600V0z" fill="#00247d"/><g transform="translate(450 150)"><g id="B" transform="translate(0 -102)" fill="#fff"><g id="C"><path id="D" d="M0-22.5L-6.953-1.101 4.46 2.607"/><use xlink:href="#D" transform="scale(-1 1)"/></g><use xlink:href="#C" transform="rotate(72)"/><use xlink:href="#C" transform="rotate(144)"/><use xlink:href="#C" transform="rotate(216)"/><use xlink:href="#C" transform="rotate(288)"/></g><g id="E"><use xlink:href="#B" transform="rotate(24)"/><use xlink:href="#B" transform="rotate(48)"/><use xlink:href="#B" transform="rotate(72)"/><use xlink:href="#B" transform="rotate(96)"/><use xlink:href="#B" transform="rotate(120)"/><use xlink:href="#B" transform="rotate(144)"/><use xlink:href="#B" transform="rotate(168)"/></g><use xlink:href="#E" transform="rotate(168)"/></g></svg>