<svg xmlns="http://www.w3.org/2000/svg" xmlns:xlink="http://www.w3.org/1999/xlink" width="1200" height="600" xmlns:v="https://vecta.io/nano"><style><![CDATA[.B{stroke-width:2.5}.C{fill:#fcd116}.D{stroke-width:.575}.E{fill:#d41c30}.F{stroke-width:1.546}.G{stroke-width:1.562}.H{stroke-width:1.464}.I{stroke-width:1.56}.J{stroke-width:2.097}]]></style><path fill="#006b3f" d="M0 0h1200v600H0z"/><g class="C"><path d="M525 0h75v600h-75z"/><path d="M0 225h1200v75H0z"/></g><g fill="#fff"><path d="M600 0h75v600h-75z"/><path d="M0 300h1200v75H0z"/></g><path d="M575 0h50v600h-50z"/><path d="M0 275h1200v50H0z"/><g fill="#006b3f" transform="translate(600 300)"><circle r="150" class="E"/><g id="A"><path id="B" stroke="#000" d="M-4.81-118.41L0-132.13l4.37 13.5 14.65.22-11.59 8.85 5.25 15.05L0-103.8l-12.46 8.85 4.81-14.61-11.37-8.63 14.21-.22z"/><use xlink:href="#B" transform="rotate(180)"/></g><use xlink:href="#A" transform="rotate(36)"/><use xlink:href="#A" transform="rotate(72)"/><use xlink:href="#A" transform="rotate(108)"/><use xlink:href="#A" transform="rotate(144)"/><g stroke="#000"><g class="B"><ellipse cx="680.21" cy="586.13" rx="30.805" ry="189.82" transform="matrix(.289553 -.030182 .016588 .232258 -186.11735 -75.926206)"/><ellipse cx="680.21" cy="586.13" rx="30.805" ry="189.82" transform="matrix(.306255 -.031845 .016685 .232248 -188.73313 -74.886801)"/><ellipse cx="680.21" cy="586.13" rx="30.805" ry="189.82" transform="matrix(.245004 -.025891 .017898 .25675 -151.94706 -90.935577)"/></g><path fill="#9c4a00" stroke-width=".657" d="M-44.213 62.565c7.657-.319 4.332-4.416 8.199-6.596s9.365-.737 11.016 1.986.327 5.397 2.45 5.433 59.928-2.388 62.01-.105 2.428 6.776.269 8.524c-2.159 1.77-75.235 2.588-77.751.738-2.517-1.823-6.202-9.53-6.194-9.98z"/><g stroke-width=".633" class="C"><use xlink:href="#D"/><use xlink:href="#D" x="5.041" y="0.066"/><use xlink:href="#D" x="10.448" y="-0.137"/><use xlink:href="#D" x="15.488" y="-0.071"/></g><ellipse fill="#9c4a00" stroke-width=".399" cx="478.38" cy="-41.086" rx="3.534" ry="3.403" transform="matrix(1.379917 .020781 -.030617 1.454441 -625.22695 117.20523)"/><g class="B"><ellipse cx="427.11" cy="905" rx="20.814" ry="24.144" transform="matrix(.207422 -.031292 .042261 .395137 -119.97806 -293.41566)"/><ellipse cx="427.11" cy="905" rx="20.814" ry="24.144" transform="matrix(.207422 -.031292 .042261 .395137 -127.33463 -293.99555)"/><ellipse cx="427.11" cy="905" rx="20.814" ry="24.144" transform="matrix(.207422 -.031292 .042261 .395135 -132.603 -303.41129)"/><ellipse cx="427.11" cy="905" rx="20.814" ry="24.144" transform="matrix(.19943 -.031535 .046322 .435929 -125.4075 -340.63478)"/><ellipse cx="427.11" cy="905" rx="20.814" ry="24.144" transform="matrix(.1995 -.030839 .043561 .408739 -112.65072 -316.23218)"/><ellipse cx="427.11" cy="905" rx="20.814" ry="24.144" transform="matrix(.1995 -.030839 .043561 .408739 -118.30405 -319.63879)"/><ellipse cx="427.11" cy="905" rx="20.814" ry="24.144" transform="matrix(.1995 -.030839 .043561 .408739 -125.43742 -324.55362)"/><ellipse cx="427.11" cy="905" rx="20.814" ry="24.144" transform="matrix(.1995 -.030839 .043561 .408739 -132.04249 -327.53171)"/></g><path fill="#9461c9" d="M-14.734-52.686S-29.389-39.967-27.745-5.542c1.845 34.62 32.393 50.894 32.393 50.894s7.786-9.827 6.882-37.643C9.347-32.96-5.078-50.929-5.078-50.929l-9.656-1.757z" class="D"/><g class="B"><ellipse cx="427.11" cy="905" rx="20.814" ry="24.144" transform="matrix(.209679 .006177 -.028839 .396342 -45.183498 -309.40147)"/><ellipse cx="427.11" cy="905" rx="20.814" ry="24.144" transform="matrix(.209679 .006177 -.028839 .396342 -52.318928 -311.28321)"/><ellipse cx="427.11" cy="905" rx="20.814" ry="24.144" transform="matrix(.209679 .006177 -.028839 .396341 -55.824816 -321.48715)"/><ellipse cx="427.11" cy="905" rx="20.814" ry="24.144" transform="matrix(.201857 .004513 -.032113 .437205 -42.110313 -356.83224)"/><ellipse cx="427.11" cy="905" rx="20.814" ry="24.144" transform="matrix(.201803 .005211 -.029984 .409958 -33.906971 -330.54675)"/><ellipse cx="427.11" cy="905" rx="20.814" ry="24.144" transform="matrix(.201803 .005211 -.029984 .409958 -38.862639 -334.90639)"/><ellipse cx="427.11" cy="905" rx="20.814" ry="24.144" transform="matrix(.201803 .005211 -.029984 .409958 -45.005838 -341.01389)"/><ellipse cx="427.11" cy="905" rx="20.814" ry="24.144" transform="matrix(.201803 .005211 -.029984 .409958 -50.974388 -345.12149)"/></g><ellipse stroke-width="1pt" cx="624.42" cy="606.11" rx="58.28" ry="186.49" transform="matrix(.197867 -.076435 .080235 .187097 -155.83813 -59.21337)" class="E"/><ellipse cx="218.13" cy="356.75" rx="10.823" ry="12.905" transform="matrix(.498278 .008872 -.006569 .368959 -99.510833 -162.76931)" class="H"/><g class="F"><ellipse cx="218.13" cy="356.75" rx="10.823" ry="12.905" transform="matrix(.446375 .007948 -.006569 .368959 -84.135444 -169.29958)"/><ellipse cx="218.13" cy="356.75" rx="10.823" ry="12.905" transform="matrix(.446375 .007948 -.006569 .368959 -90.652069 -169.41561)"/></g><g class="I"><ellipse cx="218.13" cy="356.75" rx="10.823" ry="12.905" transform="matrix(.467137 .008317 -.006167 .346369 -93.887858 -166.3691)"/><ellipse cx="218.13" cy="356.75" rx="10.823" ry="12.905" transform="matrix(.467137 .008317 -.006167 .346369 -94.461639 -172.01688)"/></g><ellipse cx="218.13" cy="356.75" rx="10.823" ry="12.905" transform="matrix(.446375 .007948 -.006569 .368959 -96.8782 -173.22007)" class="F"/><ellipse cx="218.13" cy="356.75" rx="10.823" ry="12.905" transform="matrix(.446375 .007948 -.006435 .361428 -95.468785 -176.63136)" class="G"/><ellipse cx="218.13" cy="356.75" rx="10.823" ry="12.905" transform="matrix(.498278 .008872 -.006569 .368959 -114.72518 -179.36983)" class="H"/><ellipse cx="218.13" cy="356.75" rx="10.823" ry="12.905" transform="matrix(.467137 .008317 -.006167 .346369 -98.157196 -179.08115)" class="I"/><ellipse cx="218.13" cy="356.75" rx="10.823" ry="12.905" transform="matrix(.446375 .007948 -.006435 .361428 -100.2913 -183.52126)" class="G"/><ellipse cx="218.13" cy="356.75" rx="10.823" ry="12.905" transform="matrix(.446375 .007948 -.006569 .368959 -110.48856 -178.90566)" class="F"/><g class="G"><ellipse cx="218.13" cy="356.75" rx="10.823" ry="12.905" transform="matrix(.446375 .007948 -.006435 .361428 -108.8569 -179.77161)"/><ellipse cx="218.13" cy="356.75" rx="10.823" ry="12.905" transform="matrix(.446375 .007948 -.006435 .361428 -106.80676 -183.69602)"/></g><ellipse stroke-width="2.545" cx="528.68" cy="564.48" rx="67.438" ry="205.64" transform="matrix(.219315 -.077428 .086829 .202024 -145.01539 -72.55561)"/><ellipse cx="528.68" cy="646.07" rx="13.321" ry="40.796" transform="matrix(.205744 -.097852 .094713 .21196 -137.12211 -77.403485)" class="B"/><g class="D"><path d="M31.463 7.799c12.811 15.598 11.193 25.503 9.857 33.884-4.025-9.663-6.222-15.746-19.035-31.347s-6.417-26.548-5.538-32.316c1.927 4.993 1.903 14.179 14.716 29.78z"/><path d="M32.616 20.398c12.811 15.598 11.193 25.503 9.857 33.884-4.025-9.663-6.222-15.746-19.035-31.347S17.021-3.613 17.9-9.382c1.927 4.993 1.903 14.179 14.716 29.78z"/><path d="M33.002 30.545c13.12 15.322 11.701 25.26 10.533 33.666-4.217-9.575-6.536-15.61-19.658-30.935S16.929 6.871 17.693 1.085c2.026 4.951 2.186 14.135 15.308 29.46z"/></g><ellipse stroke-width="1.389" cx="528.68" cy="646.07" rx="13.321" ry="40.796" transform="matrix(.407841 -.103795 .166938 .377671 -299.57061 -196.0302)"/><g stroke-width="1.64"><ellipse cx="528.68" cy="646.07" rx="13.321" ry="40.796" transform="matrix(.366892 -.063105 .129783 .31265 -259.00282 -166.87124)"/><ellipse cx="528.68" cy="646.07" rx="13.321" ry="40.796" transform="matrix(.368148 -.055316 .123259 .31531 -261.52366 -166.81962)"/></g><g class="J"><ellipse cx="528.68" cy="646.07" rx="13.321" ry="40.796" transform="matrix(.296579 -.054311 .111513 .233076 -211.06958 -135.53834)"/><ellipse cx="528.68" cy="646.07" rx="13.321" ry="40.796" transform="matrix(.299515 -.038001 .096808 .238729 -208.27027 -143.86531)"/></g><path d="M8.62-15.768c3.788 9.255 5.321 17.577 3.42 18.577s-6.513-5.7-10.301-14.955" class="D"/><g class="J"><ellipse cx="528.68" cy="646.07" rx="13.321" ry="40.796" transform="matrix(.299515 -.038001 .096808 .238729 -208.89375 -154.73721)"/><ellipse cx="528.68" cy="646.07" rx="13.321" ry="40.796" transform="matrix(.300322 -.032104 .09144 .240563 -212.194 -155.98718)"/></g><g class="D"><path d="M2.026-28.338c3.678 6.254 5.658 12.094 4.418 13.037s-5.228-3.368-8.905-9.622"/><path d="M4.573-32.485c3.678 6.254 5.658 12.094 4.418 13.037S3.764-22.816.086-29.07m15.927-2.537c5.125 8.543 7.883 16.521 6.153 17.811s-7.288-4.599-12.413-13.141"/><path d="M8.452-36.082c3.693 6.905 5.687 13.348 4.449 14.385s-5.236-3.727-8.928-10.632"/></g><g fill="#9461c9"><g stroke-width=".591"><use xlink:href="#E"/><use xlink:href="#E" x="-1.756" y="-7.4"/><use xlink:href="#E" x="-4.002" y="-14.49"/><use xlink:href="#E" x="-8.884" y="-22.601"/></g><path stroke-width=".628" d="M-18.272-76.448c5.08-3.779 14.412-4.884 21.681-1.183 6.055 2.967 16.147 15.073 23.734 17.935-5.34.953-8.589.148-12.001-1.492-6.739 4.88-9.14 5.611-16.008 6.57-9.552 1.378-17.48-1.109-20.266-6.089-2.839-4.7-1.615-12.239 2.86-15.741z"/></g><g class="B"><ellipse cx="287.23" cy="323.04" rx="14.154" ry="14.986" transform="matrix(.309092 .005503 -.003015 .169329 -95.304017 -125.19072)" class="E"/><ellipse cx="204.58" cy="348.26" rx="23.254" ry="15.895" transform="matrix(.245792 -.091437 .081322 .219246 -99.445497 -116.289)" class="C"/></g><circle fill="#000" stroke="none" cx="283.9" cy="333.86" transform="matrix(.269901 .004806 -.004156 .233423 -82.956029 -148.37388)" r="5.828"/><path stroke-width=".732" d="M-17.128-65.515c.402 1.949-1.044 4.582-4.18 5.515-3.195 1.323-5.618 4.322-7.016 9.226-4.856-11.184-1.77-15.916 3.388-17.066 4.437-1.415 7.11-1.236 7.808 2.324z" class="C"/><circle fill="#000" stroke="none" cx="198.98" cy="362.39" transform="matrix(.235971 -.012355 .013336 .241615 -73.600709 -149.7658)" r="4.71"/></g></g><defs ><path id="D" d="M-3.377 68.195c-.139 5.776 8.404 4.14 8.521 8.963-.257 5.114-14.324.313-14.46-9.042.585-9.345 14.354-13.962 14.524-8.625.127 4.435-8.447 2.928-8.585 8.703z"/><path id="E" d="M8.125-46.086c-2.465 2.482-.051 7.124 2.206 8.801 2.531 2.294 16.742 17.286 26.769 4.672-8.034-.146-23.027-19.005-28.974-13.473z"/></defs></svg>