<svg xmlns="http://www.w3.org/2000/svg" xmlns:xlink="http://www.w3.org/1999/xlink" width="900" height="600" xmlns:v="https://vecta.io/nano"><style><![CDATA[.B{fill:#c09300}.C{stroke-linejoin:round}.D{stroke:none}.E{stroke-width:1.27}.F{stroke-width:1.271}]]></style><path d="M0 0h900v600H0z"/><path fill="#fff" d="M0 0h900v400H0z"/><path fill="#ce1126" d="M0 0h900v200H0z"/><g fill="#fff" stroke="#c09300"><path d="M450.81 302.4l68.488 63.579-4.876-115.47c-.716-17.5-15.924-13.485-26.971-7.172-11.191 7.172-23.958 7.172-37.446 2.437-13.485 4.735-26.253 4.735-37.444-2.437-11.046-6.312-26.252-10.328-26.97 7.172l-4.879 115.47L450.81 302.4z" class="C E"/><path d="M393.47 246.49l-4.734 112.32-8.035 7.168 4.878-115.47c2.295-1.578 6.313-4.017 7.89-4.017zm9.62 8.04l-4.017 93.955-8.032 8.22 4.877-108.49c1.579 1.577 6.314 5.45 7.172 6.31zm8.75 7.17l-3.154 78.362-6.456 6.309 4.018-89.405c1.575 1.578 4.731 3.873 5.592 4.733zm9.47 4.02l-3.156 66.787-6.313 5.119 3.156-74.344c1.579.716 4.735 2.438 6.313 2.438zm8.75 0l-2.297 55.657-6.454 6.313 2.439-61.252c1.576-.001 5.594-.001 6.313-.718z" id="A" class="B D"/><use xlink:href="#A" transform="matrix(-1 0 0 1 900 0)"/><path stroke-width="1.074" d="M453.16 315.06l9.613 43.755-3.158 3.155-3.299-2.439-5.452-39.018 2.296 39.018-3.157 4.016-3.156-4.016 2.296-39.018-5.451 39.018-3.302 2.439-3.154-3.155 9.611-43.755h6.314z" class="B"/><g id="B" fill="none" class="C"><path fill="#fff" stroke-width="1.189" d="m428.48,295.84-19.08,67.705,26.255,4.0177,11.188-50.924-18.363-20.799z"/><g class="F"><path d="M422.17 318.94l2.296 5.593 12.405-11.848"/><path d="M430.76 304.92l2.596 24.346 7.89-10.328"/><path d="m438.09,322.95,4.31,14.875"/><path d="M444.09 332.36l-8.718 13.241m2.719 13.216l-2.79-13.198-2.436-13.423-5.841 7.909-2.561-9.119-8.175 8.385 4.158 15.251 5.738-9.435 3.156 9.612 5.89-9.162m-20.24 16.333l5.3-7.444 3.453 11.457 4.734-8.032 3.158 9.614"/></g></g><use xlink:href="#B" transform="matrix(-1 0 0 1 900 0)"/><g class="C"><path stroke-width="2.378" d="M450 393.81c19.943 0 39.024-1.578 50.213-4.734 4.735-.859 4.735-3.298 4.735-6.455 4.735-1.578 2.295-7.17 5.594-7.17-3.299.862-4.016-5.594-8.033-4.732 0-5.596-5.596-6.313-10.33-4.738-9.469 3.158-26.255 3.875-42.18 3.875-15.924-.718-32.567-.718-42.179-3.875-4.734-1.575-10.327-.859-10.327 4.738-4.018-.862-4.735 5.594-8.034 4.732 3.299 0 .86 5.593 5.594 7.17 0 3.158 0 5.596 4.878 6.455 11.045 3.156 30.128 4.734 50.068 4.734z"/><g class="F"><path d="M422.89 363.54c6.454.861 13.628 1.578 19.225.861 3.153 0 5.449 5.45-.863 6.313-5.593.715-14.345 0-19.08-.862-4.017-.718-12.768-2.295-18.364-3.875-5.595-2.436-1.576-7.168 1.577-6.452 4.879 1.577 11.192 3.156 17.505 4.016zm54.23 0c-6.457.861-13.628 1.578-19.081.861-3.301 0-5.596 5.45.717 6.313 5.596.715 14.347 0 19.078-.862 4.019-.718 12.769-2.295 18.364-3.875 5.597-2.436 1.58-7.168-1.577-6.452-4.878 1.577-11.19 3.156-17.501 4.016z"/><path d="M403.09 360.39c-4.877-.861-7.172 4.732-5.593 7.887.716-1.578 4.016-1.578 4.735-3.155.858-2.437-.718-2.437.858-4.732zm19.08 14.67c0-3.153 3.154-2.765 3.154-5.921 0-1.577-.859-4.017-2.437-4.017s-3.158 1.578-3.158 3.155c-.718 3.157 2.44 3.631 2.44 6.783zm22.71-9.08c4.731 0 4.262 6.314 1.966 9.47 0-2.295-4.016-3.156-4.016-4.732 0-2.442 3.626-2.442 2.051-4.738zm52.03-5.59c4.878-.861 7.174 4.732 5.595 7.887-.718-1.578-4.017-1.578-4.734-3.155-.861-2.437.718-2.437-.861-4.732zm-19.08 14.67c0-3.153-3.153-2.765-3.153-5.921 0-1.577.86-4.017 2.438-4.017s3.156 1.578 3.156 3.155c.718 3.157-2.441 3.631-2.441 6.783zm-22.71-9.08c-4.732 0-4.263 6.314-1.967 9.47 0-2.295 4.016-3.156 4.016-4.732.001-2.442-3.626-2.442-2.048-4.738z"/></g></g><path d="M404.67 361.97c1.58 0 4.018.718 4.735 1.577l-4.74-1.58zm7.88 2.44c.862 0 4.018.716 5.596 1.575l-5.6-1.58zm28.7 3.15c-1.578 0-4.734 0-5.593.715l5.59-.72zm-8.75 0c-.859-.862-4.017-.862-5.594 0h5.59zm62.84-5.59c-1.578 0-3.875.718-4.735 1.577l4.735-1.577zm-7.89 2.44c-.86 0-4.017.716-5.595 1.575l5.6-1.58zm-28.7 3.15c1.579 0 4.735 0 5.595.715l-5.6-.72zm8.75 0c.86-.862 4.018-.862 5.595 0h-5.6z" stroke-width=".892" class="C"/><path d="M403.34 374.58c-.534-.102-.815-.525-.68-1.025.164-.609.652-.957 1.113-.794.293.104.83.645.832.839.003.223-.281.753-.403.754-.053.001-.134.046-.181.102-.1.118-.413.175-.68.124zm54.93 3.92c-.199-.074-.515-.519-.515-.724.002-.387.574-1.018.929-1.021.175-.001.655.248.834.435.325.338.254.893-.154 1.208-.201.155-.8.211-1.094.103zm.36 2.48c-.42-.142-.574-.348-.608-.814-.036-.485.012-.561.525-.841l.366-.199.346.154c.48.214.693.445.71.767.018.348-.24.703-.64.883-.352.158-.373.159-.699.049zm-50.88-10.89c-.346-.011-.821.307-1.094.469-.649.152-1.405.551-2.031.125-.617-.191-1.438-.04-1.531.719.158.652 1.072 1.024 1.625.594.411-.538 1.531-.853 1.656.063-.457.692-.405 1.609-.781 2.344-.061.458-.252.892-.5 1.281-.462.046-.954-.008-1.344.281-.626.034-1.265.345-1.625.875-.403.578-.789 1.165-.906 1.875.107.725.938.933 1.563.969l2 .625 3.188.875c1.584.478 3.248.697 4.844 1.125.167.055.324.104.5.125.662.138 1.008-.583 1.063-1.125l.906-3.5c.225-.466.496-1.517-.406-1.281-.515.309-.952.773-1.594.813-.874.051-.375.945-.031 1.313a2.38 2.38 0 0 1-.5 1.75c-.52.33-1.172-.056-1.719-.187-.575.01-1.723-.283-1.187-1.062.19-.577.207-1.208.438-1.781.294-.615.336-1.285.469-1.937-.361-.777-.979.256-1.469.344-.338.235-1.605.334-.937.938.575.437.134 1.197.031 1.75-.037.77-.838.954-1.469.781-.628-.03-1.501-.497-.969-1.187l.438-1.719.688-2.062a5.78 5.78 0 0 1 .625-1.75c.017-.685.478-1.275.469-1.969-.047-.339-.199-.462-.406-.469zm-3.594 7.25c.082-.014.14-.002.219.031.25.106.257.309 0 .531-.112.097-.24.19-.281.188-.468-.04-.606-.11-.625-.281-.017-.151.031-.195.344-.344.156-.074.262-.111.344-.125zm-1.036 5.02c-.496-.466-.416-.806.317-1.353.314-.234.504-.207.863.12.552.504.574.823.087 1.255-.241.213-.346.257-.627.26-.293.003-.377-.033-.64-.282zm3.05.92a.86.86 0 0 1-.623-1.088c.129-.435.203-.477.84-.484.715-.007.854.112.86.742.004.354-.024.437-.2.6-.207.193-.605.296-.878.229zm89.11.08c-.227-.189-.273-.274-.275-.515-.003-.411.233-.712.746-.944.682-.309.96-.266 1.217.186.342.601.325.847-.084 1.252-.226.224-.268.237-.785.242-.508.003-.566-.01-.818-.221zm-85.06 1.15c-.364-.097-.553-.37-.557-.807-.004-.334.02-.387.254-.57a1.34 1.34 0 0 1 .579-.245.64.64 0 0 1 .579.138c.551.387.667.77.349 1.141-.34.396-.661.488-1.203.343zm21.92.98c-.081-.101-.259-.16-.277-.287.032-.555.058-1.117.235-1.648.096-.523.012-1.069.194-1.579.187-.927.187-1.883.402-2.804.01-.474.055-.949.192-1.405.158-.722.014-1.476.226-2.189-.023-.268.286-.983.557-.559.393.576.911 1.045 1.421 1.515.438.253.036.624-.267.75-.415.164-.516.621-.487 1.022-.058.415-.225.807-.242 1.23-.088.622-.071 1.255-.152 1.877-.182.609-.112 1.26-.173 1.887.008.399-.181.761-.155 1.16-.048.406-.067.894-.407 1.172-.329.166-.804.137-1.068-.142zm29.7-9.8c-.482.365-.914.795-1.344 1.219-.593.449.487.71.625 1.094.157.586.148 1.211.188 1.813a4.59 4.59 0 0 1 .219 1.719c-.052.622-.863.491-1.219.844-.492.207-.688.69-1.062 1.031-.246.483-.312 1.076-.344 1.625.035.448-.302.949 0 1.344l.125.188c.101.145.342.029.5.063.504-.028 1.029.047 1.5-.156 1.21-.209 2.431-.226 3.656-.281.749.024 1.47-.237 2.219-.219.587.13.851-.506.844-.969-.332-.654-.045-1.428-.312-2.094-.235-.672-.142-1.428-.25-2.125-.015-.548-.711-.752-1.062-.344-.341.345-.893.414-1.156.844-.297.602.627.603.781 1.063.176.464.118.981.156 1.469.114.592-.529.626-.937.688-.537.201-1.29.336-1.594-.312-.191-.479-.165-.993-.219-1.5-.013-.892-.228-1.768-.281-2.656l-.312-3.281c-.01-.455-.071-1.198-.719-1.062zm-.625 8.25l.313.031.062.75-.406.125a3.28 3.28 0 0 1-.406.094 2.55 2.55 0 0 1-.187-.125c-.22-.159-.163-.385.125-.687a.49.49 0 0 1 .5-.187zm-29.965-9.28c-.38.135-.862.693-1.25.688-.88.062-.757.919-.125 1.219.083.26.005.588.031.875.123.79-.375 1.425-.281 2.219-.044.87-.307 1.718-.344 2.594-.247.903-.25 1.832-.406 2.75-.104.823-.7.533-1.219.313l-.031-1.062c.216-.817-.441-1.056-1.094-1.156-.686.065-1.023-.523-.875-1.125.295-.351 1.036-.253 1.5-.312.981.203.942-1.112.438-1.562-.345-.636-1.198-.909-1.437-1.562.096-.866-.48-1.732-1.187-2.156-1.089-.076-1.91.863-2.312 1.781l-1.344.438c-.709.177-1.72 1.407-.75 1.875.544.15 2.2.528 1.469 1.281-.412.707-1.201.719-1.906.531-.724.001-1.529-.352-1.5-1.187-.148-.75-.123-1.558-.469-2.25-.148-.839-1.101-.643-1.156.125-.733.534-.636 1.398-.125 2.031.319.729.003 1.578-.312 2.25-.191.875-1.156.905-1.844 1.188-.338.131-1.628-.078-1.156.656.753.266 1.652.505 2.438.313.823-.102 1.538-.665 1.938-1.375.553-.56 1.502-.267 2.219-.281.773-.002 1.563.542 2.313.188.217-.564 1.222-1.496 1.531-.531-.053.863.709 1.326 1.5 1.219.864-.049.544.611.531 1.125.057.934.66 1.425 1.438 1.813.265.072.545.047.813 0 .748-.235 1.554-.569 1.781-1.406.304-.681.311-1.451.531-2.156.177-1.13.406-2.26.438-3.406.276-1.038.197-2.136.406-3.187l.313-2.344c-.092-.417-.272-.487-.5-.406zm-6.781 4.156c.151.019.236.204.25.531.016.364.206.661.438.719.182.046.167.239-.031.375-.115.079-.321.127-.687.125-.578-.003-.936-.153-1.25-.469l-.187-.187.281-.187a6.43 6.43 0 0 0 .563-.5c.285-.291.474-.425.625-.406zm66.031-7.876a8.37 8.37 0 0 0-1.656.25c-1.04-.065-1.562 1.027-.562 1.563.602 1.534 1.54-.317 2.5-.187 1.438.28 1.559 1.832 1.781 3 .081 1.157.414 2.282.75 3.375.962 1.07-.721 1.74-1.437.906-.611-.664-1.92-1.479-2.656-.562-.904.383-.941 1.59-1.687 1.938-1.209.368-1.361-1.119-2-1.75-.587-.824-1.71-.896-2.625-1.187-.429-.869-.205-2.346-1.094-2.937-.746.304-2.113 1.702-.969 2.344 1.118.961-.488 1.401-1 2.063-.732.815-.848 1.936-.969 2.969-1.259.696-1.504-.788-1.656-1.719-.098-1.111-1.036-.785-1.687-.375-.952.386-1.428 1.29-2.094 2-.08.648.037 1.357.031 2.031.216.811 1.202.43 1.813.375.979-.409 1.38.627.594 1.219-.532.676-2.22.323-2.062 1.406.544.064 1.111.043 1.656 0 1.091-.298 2.261-1.067 2.375-2.281.144-1.058 1.668-.865 2.5-1.094 1.041-.3 2.295-.377 2.531.938.709.745 2.249 1.584 3.031.563.795-.485 1.176-1.338 1.125-2.25-.162-.785 1.269-.813 1.625-.375.521.858 2.151.605 2.938.125.836-.617 1.018-1.705 2.219-1.719l5.375-1.5c1.41-.307-.21-1.198-.562-1.719-1.074-.531-2.008 1.642-3.219.563-.936-.716-.872-2.077-1.219-3.125-.237-1.357-.177-2.923-1.156-4-.672-.715-1.586-.887-2.531-.844zm-6.812 9.469c.126-.003.268.059.5.188.438.242.751.643.75.969 0 .213-.055.227-.375.375-.197.091-.421.188-.5.188-.181-.002-.624-.357-.625-.5-.001-.059-.058-.286-.125-.469-.118-.321-.099-.316.063-.531.103-.137.187-.215.313-.219zm6.531.344c.372-.024.594.092.75.375.182.329.058.581-.406.781-.203.088-.407.159-.437.156s-.198-.103-.375-.219c-.27-.178-.31-.264-.312-.469-.003-.315.349-.597.781-.625zm-8.937.094c.109-.017.208.04.344.156.18.155.237.279.281.594a2.23 2.23 0 0 1 0 .625c-.049.226-.053.216-.562.219-.64.006-.7-.064-.687-.656.008-.377.012-.478.219-.687.16-.162.297-.233.406-.25zm-5.5 1.438a.57.57 0 0 1 .438.438c.066.317.008.462-.25.594-.222.113-.734.151-.875.063a.61.61 0 0 1-.187-.187c-.068-.121-.055-.179.031-.25.06-.049.125-.12.125-.156s.067-.163.156-.281c.146-.194.363-.266.563-.219zm9.25 1.188a.65.65 0 0 1 .438.156c.185.162.179.4-.031.563-.135.104-.872.095-1.125 0a.2.2 0 0 1-.156-.219c-.002-.141.038-.228.281-.344.204-.098.416-.155.594-.156zm-17.172 4.817c-.096-.062-.238-.117-.095-.222.173-.302.518-.407.824-.52.548-.237 1.021-.64 1.374-1.118.05-.333.424-.514.422-.862.003-.475.031-.962-.085-1.426-.128-.426-.451-.752-.826-.974-.257-.201-.674-.257-.769-.614-.053-.343.253-.604.361-.909l.651-1.275c.259-.288.659-.016.793.262a3.23 3.23 0 0 1 .451.897c.302.332.57.721.679 1.162.148.311.383.602.369.966 0 .416.235.787.22 1.206.013.56.013 1.145-.192 1.674-.14.293-.421.47-.606.733-.319.296-.67.579-1.08.736-.289.092-.457.426-.819.345-.515.009-1.037.079-1.547-.004.032.054-.156-.091-.125-.057zm-6.85.45c-.243-.25-.295-.355-.298-.6s.045-.346.282-.586c.438-.443.652-.453 1.409-.07.723.366.967.399 1.032.14.063-.25.479-.479.874-.481a.82.82 0 0 1 .592.204c.251.196.263.226.27.679.004.463-.002.481-.29.736-.277.244-.322.259-.665.225-.437-.044-.7-.244-.771-.588-.052-.25-.139-.31-.205-.14-.021.055-.129.122-.239.15-.204.051-.549.269-.794.5-.093.087-.255.129-.519.131-.356.003-.405-.018-.678-.299zm-19.82-8.9c-.665.007-1.38.566-1.469 1.219.152.752.777 1.49.375 2.281.278 1.013-.761 1.397-1.469.813-.427-.971-.643-2.036-1.281-2.906-.804-.228-1.154 1.057-1.719 1.5.28.755 1.096 1.432 1.188 2.375.195.915-.361 1.931-1.156 2.406-.686.655-1.625.421-2.469.563-1.024.599.752.818 1.219.844 1.048.106 2.135-.032 2.906-.812.769-.367.71-1.697 1.625-1.844 1.588-.071 3.163.244 4.75.281.849.203 2.163-.101 2.75.531.002 1.108.941 1.791 1.844 2.219.499.139 1.024-.479 1.531-.594.965-.308.672-1.502 1.25-1.969l4.969-.094c.315.008.407-.44.625-.625l-.156-1.906c-.318-.807.051-1.845-.531-2.531-.83-.226-1.536.534-2.375.594-.926.412-1.707 1.268-1.75 2.313-.548.897-1.428-.16-1.125-.906-.035-.325.07-.704-.031-1-.507-.608-1.395-.409-2.094-.5-1.018.041-2.013-.18-3.031-.156-.893-.067-1.822.078-2.687-.156-1.032-.029-.89-1.038-1.062-1.75a1.01 1.01 0 0 0-.625-.187zm2 3.688c.343.007.667.052 1 .094.431.071.89-.148 1.313 0 .977.166 1.954.127 2.938.219.26-.004.446.185.625.344v2.063c-.03.258.076.598-.156.781a.7.7 0 0 1-.25.125c-.271-.07-.557-.248-.687-.5-.041-.357.018-.704.031-1.062-.007-.093.04-.237 0-.312-.213-.151-.454-.249-.719-.25l-2.531-.125c-.707-.045-1.433.06-2.125-.125-.268-.098-.618-.064-.781-.344-.234-.272.104-.597.344-.719a2.28 2.28 0 0 1 1-.187zm11.281.25c.159-.002.209.05.281.344l.125.5c.036.118-.022.156-.187.219-.494.186-.986.168-1.156-.062-.077-.105.013-.435.156-.562.289-.259.61-.437.781-.437z" class="B D"/><path stroke-width="1.15" d="M449.98 327.23c32.642-25.106 29.843-61.883 29.843-61.883a12.72 12.72 0 0 1-2.541.258c-6.847 0-23.178-3.917-26.988-8.893-4.081 4.503-20.77 8.893-27.574 8.893-.861 0-1.723-.086-2.541-.258 0 0-2.842 36.776 29.8 61.883z"/><path stroke-width=".916" d="M477.22 268.04l-.848.026c-6.205 0-20.619-3.184-26.175-7.957-5.82 4.409-20.471 7.957-26.576 7.957a4.7 4.7 0 0 1-.85-.087c-.014 1.391.058 2.832.144 4.144.323 4.901 1.183 9.819 2.488 14.552 4.108 14.895 12.516 27.553 24.572 37.155 12.066-9.61 20.484-22.28 24.601-37.186 1.307-4.732 2.169-9.65 2.495-14.55.085-1.284.157-2.692.147-4.055z"/><path d="M439.38 265.03c-5.872 1.845-12.229 3.031-15.75 3.031-.286 0-.563-.042-.844-.094-.014 1.391.07 2.845.156 4.156a72.85 72.85 0 0 0 2.469 14.531c2.765 10.025 7.506 19.032 13.969 26.781V265.03zm20.62-.09v49.25c6.794-7.921 11.733-17.206 14.594-27.562 1.307-4.732 2.143-9.631 2.469-14.531.085-1.284.166-2.7.156-4.062-.281.018-.559.031-.844.031-3.73 0-10.42-1.17-16.375-3.125z" class="B D"/><path stroke-width="1.218" d="M462.31 253.09c.667.039-.902-3.568-.902-3.568 1.764 1.804 8.43 2.235 8.43 2.235-3.999-1.766-7.998-15.096-7.528-25.721.432-10.664-1.528-14.859-3.097-16.428-2-2-8.43-3.764-12.664-3.999-2.392-.118-2 1.804-2 1.804-4.431-1.137-8.861-1.568-10.861-.235-1.882 1.255-2.274 7.528-.902 6.43 3.333-2.666 6.234-.235 8.233 2.666 1.764 2.548 1.647 9.763-.902 18.192-2.666 8.861-9.959 17.722-9.959 17.722 3.96 0 9.528-3.529 9.528-3.529l-1.333 5.528c4.195-2 7.528-5.097 7.528-5.097l3.999 4.195c1.333-1.764 3.999-4.195 3.999-4.195s3.333 3.529 8.43 3.999z"/><path d="M446.12 227.57s-2.235 16.428-6.43 21.094m9.96-21.524s-.863 16.623-3.764 21.956m6.894-21.286s0 18.192 1.098 21.289m2.862-20.389s.902 15.291 4.666 20.819" fill="none" class="E"/><path d="M442.08 219.61c-.196-1.451-.549-2.588-1.059-3.333-2-2.901-4.901-5.332-8.233-2.666 0 0 1.137-3.529 3.568-3.646 1.882-.118 6.156 1.411 9.92 7.841 0 0-2.784-.627-3.45-.039-1.255 1.098-.745 1.843-.745 1.843zm-9.64-10.35c.274-.902.706-1.725 1.255-2.078 2-1.333 6.43-.902 10.86.235 0 0-.392-1.921 2-1.804 4.234.235 10.665 2 12.664 3.999.47.51 1.019 1.255 1.49 2.392h-.078c-.98-1.372-3.764-1.294-4.431-1.215-1.059.118-1.725.078-3.137.431-.667.157-1.686.353-2.235.784-.431.353-.784 1.647-1.451 1.647-1.059 0-.98-.274-1.255-.588-.353-.431-.549-1.059-.902-1.019-1.098.196-2.862-.666-5.097-2.431s-3.097-2.196-5.998-2c-2.862.235-3.764 1.843-3.764 1.843l.078-.196z" stroke-width=".354" class="B"/><circle cx="448.824" cy="210.672" r="1.176" class="D"/></g></svg>