<svg xmlns="http://www.w3.org/2000/svg" xmlns:xlink="http://www.w3.org/1999/xlink" width="900" height="600" viewBox="0 0 300 200" xmlns:v="https://vecta.io/nano"><defs><g id="A"><clipPath id="B"><path d="M-109 104a104 104 0 0 0 0-208h218a104 104 0 0 0 0 208z"/></clipPath><path id="C" d="M-55 74a55 55 0 0 1 110 0V-74a55 55 0 0 1-110 0z" clip-path="url(#B)"/><use xlink:href="#C" transform="rotate(90)"/></g></defs><path d="M0 0h300v200H0z" fill="#fff"/><g fill="red"><path d="M130 0v80H0v40h130v80h40v-80h130V80H170V0h-40z"/><use xlink:href="#A" x="64.45" y="39.45"/><use xlink:href="#A" x="235.55" y="160.55"/><use xlink:href="#A" x="235.55" y="39.45"/><use xlink:href="#A" x="64.45" y="160.55"/></g></svg>