<svg xmlns="http://www.w3.org/2000/svg" xmlns:xlink="http://www.w3.org/1999/xlink" width="500" height="300" xmlns:v="https://vecta.io/nano"><style><![CDATA[.B{stroke-width:.183}.C{fill:#fff}.D{fill:#d20014}.E{fill:#0a328c}.F{fill:#016a16}.G{stroke:#0a328c}.H{stroke:#d20014}.I{fill-rule:evenodd}.J{stroke-width:.231}.K{stroke-width:.187}]]></style><path fill="#d21034" d="M0 0h500v300H0z"/><path fill="#00209f" d="M0 0h500v150H0z"/><g fill="#f1b517" stroke="#000"><path stroke="none" d="M202.679 112.284h94.642v75.341h-94.642z" class="C"/><path stroke="#016a16" d="M269.047 166.766l-19.314.561-19.227.219s-9.878 3.654-13.916 4.473c-4.026.817-3.503 2.14-6.618 2.837-2.495.558-2.783.734-4.247.83-.886.058-1.977.74-3.045 1.491v10.449h94.642v-9.939c-1.026-.559-2.003-.944-3.004-1.284-1.39-.473-2.327-.989-4.823-1.547-3.116-.696-2.592-2.019-6.618-2.837-4.038-.82-13.829-5.253-13.829-5.253z" class="B F"/><g id="A" class="B"><path d="M244.529 143.512l1.397-.033 2.555 10.749-.545 3.386-3.407-14.102z"/><path d="M243.064 136.346l.954 8.284 1.022-.066-1.976-8.218z" class="C"/><path d="M245.722 154.589l-4.293-11.538 1.601-.099 5.009 14.102-2.317-2.465z"/><path d="M239.419 136.477l1.772 8.021h1.431l-3.203-8.021z" class="C"/><path d="M241.906 150.546l-2.521-5.424 1.09-.23 4.6 9.007-3.169-3.353z"/><path d="M236.08 138.778l2.794 7.626h1.431l-4.225-7.626z" class="C"/><path d="M242.249 151.364l-11.436-12.484c-3.572 2.828-2.908 8.021-2.908 8.021l12.957 10.166 1.387-5.703z" class="E"/><path d="M248.861 158.235l-8.483-8.594c-3.587.124-.741 5.479-.56 6.151l9.043 7.734v-5.292z" class="D"/><path d="M248.139 156.757L230.6 137.976l-.685.484 18.561 20.622-.337-2.325zm-18.553-19.985l-.385-.446.038-.892-3.619-2.303 1.617 3.64 1.232.223.385.446.732-.669z"/><path d="M227.738 138.11a8.4 8.4 0 0 1 2.657-2.192l1.001 1.449-2.156 1.82-1.502-1.077z"/><path d="M225.811 141.278l.588 1.026c.364-.135 4.031-3.457 4.031-3.457l2.632-.081.756-.837c-1.932-2.08-3.751.297-3.751.297l-4.255 3.052z" class="E G"/><path d="M227.911 143.007c.14-.918 1.876-3.214 2.128-3.295 1.303.391 2.515 1.141 3.835-1.837-1.148 1.458-3.471-.027-3.471-.027l-1.008.837.028.405-3.051 2.836 1.54 1.08z" class="D H"/><path d="M237.252 154.672l-14.367-11.411c-2.46 2.503-.415 10.232-.415 10.232l14.042 7.607.739-6.428z" class="E"/><path d="M249.166 163.917l-11.818-9.467c-4.036.566-.863 6.506-.623 7.161l12.481 6.768-.04-4.462z" class="D"/><path d="M248.697 162.005l-25.554-19.182-.587.591 26.837 20.955-.696-2.364zm-26.769-20.198l-.459-.374-.123-.884-3.979-1.662 2.248 3.314 1.253.013.459.374.6-.781z"/><path d="M220.349 143.433a8.25 8.25 0 0 1 2.222-2.603l1.247 1.259-1.796 2.154-1.673-.809z"/><path d="M218.925 146.641l.159 1.06c.338-.188 3.561-3.726 3.561-3.726l2.586-.477.527-.833c-1.797-2.114-3.713.698-3.713.698l-3.12 3.278z" class="E G"/><path d="M220.971 148.545c-.123-.982 1.219-3.863 1.455-3.981 1.547.46 2.893 1.153 3.462-2.069-.897 1.614-3.461.362-3.461.362l-.86.979.121.531-2.61 3.37 1.892.808z" class="D H"/><path d="M236.224 161.651c-.191-.046-18.517-10.442-18.517-10.442-1.334 2.253-.128 5.521.457 6.029.034 1.5-.603 2.307.707 5.439.386 2.037 1.328 3.913 2.7 5.028 1.671 6.417 8.222 6.848 10.746 1.624l3.907-7.677z" class="E"/><path d="M248.352 168.512l-12.548-7.355c-4.036.566.085 8.055.326 8.71l12.116 4.304.106-5.659z" class="D"/><path d="M246.243 165.846l-28.35-15.089-.484.672 29.905 16.647-1.071-2.23zm-29.715-15.909l-.514-.301-.264-.855-4.199-1.041 2.757 2.934 1.24-.176.514.301.466-.862z"/><path d="M215.232 151.782a8.12 8.12 0 0 1 1.772-2.907l1.435 1.055-1.424 2.398-1.783-.547z"/><path d="M214.1 155.181l.593 1.167c.307-.232 3.003-4.578 3.003-4.578l2.492-.82.469-1.014c-2.002-1.849-3.497 1.342-3.497 1.342l-3.06 3.903z" class="E G"/><path d="M216.772 156.836c-.2-.999.484-4.197.7-4.345 1.561.466 2.863.598 3.223-2.622-.908 1.529-3.328.953-3.328.953l-.71 1.085.15.38-2.059 3.951 2.024.599z" class="D H"/></g><g class="B"><use xlink:href="#A" transform="matrix(-1 0 0 1 499.85852 0)"/><path stroke="#016a16" d="M248.757 125.603l-.465 9.07h2.899l-.424-8.992 3.022-.424-.335-3.582-7.511.29.042 3.253 2.771.385z" class="F"/></g><g id="B" class="B F"><path d="M249.817 121.898c-7.764-7.771-13.878-3.979-15.334-2.902.962.188 1.826-.411 2.273-.48-.28.354-.866 1.229-.866 1.229s2.401-1.133 2.669-1.03c-.346.276-.728.936-.728.936.179.069 1.529-1.057 1.795-1.077-.411.466-.539 1.528-.539 1.528l1.17-.545c.304.216-.084.63.18.609 1.944-.16 4.678 1.777 5.053 2.372"/><path d="M247.895 123.321c-.809-1.854-15.588-5.005-18.56.244 1.163.293 2.276-.976 2.276-.976l-.101 1.171 1.972-1.512-.708 1.561 1.568-1.269-.051 1.269 1.922-2.098-.253 1.22 1.719-.732-.202 1.025"/><path d="M247.238 123.614c-3.793-2.537-9.659-.829-9.659-.829-3.742 2.098-5.737 1.719-6.22 5.611.354-.146 1.365-1.366 1.365-1.366l.759 1.512.253-2.147.607 1.659.91-2.732.202 1.854 1.416-1.854.657.537.607-1.415.556.927s.961-.585 1.517-.244l1.062-1.22.253.878.91-1.073.354.781.91-.829-.051.585 3.135.049"/><path d="M246.38 124.053c-2.643-.049-10.226 2.812-12.188 5.806.781-.436 1.263-.635 1.263-.635l.387 1.203.473-1.203.101.927c.29-.724.617-.806 1.163-.049l.202-1.122.303 1.073.506-1.171s.318 1.269.506 1.22c0 0 .839-2.194 1.214-2.293l.101 1.366.506-1.366.455 1.025.101-1.464.506 1.122s.265-1.103.657-1.317l.759.683 3.377-2.427"/><path d="M246.888 124.678c-3.521 1.35-6.67 6.179-6.429 8.226 1.565-1.942 1.228-1.674 1.927.559 0 0 .265-1.954.53-2.187l.459 1.447.171-1.892.47.022-.121-1.187.699.535c-.163-.679-.338-.907.386-1.489 0 0-.916.116-.193-1.536l.675.651s-.121-.721.121-1l2.484-.861"/><path d="M247.229 125.04l-1.33 2.534.682.197-1.535 1.152 1.296-.132s-1.978.724-2.217 2.665l2.012-.888s-1.705 1.744-1.944 2.797l1.16-1.02s-1.126 1.217-.955 3.06l.853-.954c-.205 2.238-.136 2.435.887 4.146 0 0-.273-2.632.034-2.961l2.251 2.336-1.262-3.323s1.398 2.106 2.251 1.908l-1.774-2.698 1.739 1.415-1.978-2.961 1.842.559s-1.33-1.678-1.228-2.731l1.262 1.382s-.477-1.579-.341-2.04l.648.132-1.262-1.448.853-.165-.102-.954.614-.197-.034-1.053"/><path d="M248.559 125.797c-2.183 2.961-1.057 7.535-2.353 9.871"/></g><g class="B"><use xlink:href="#B" transform="matrix(-1 0 0 1 499.85867 0)"/><path d="M250.945 166.535s1.189-9.945 1.186-14.225c-.002-3.369-.814-10.835-.814-10.835H247.9s-.52 7.429-.442 10.789c.099 4.282 1.186 14.271 1.186 14.271h2.301z"/><path d="M247.674 141.953h3.96l-.465-2.666h-2.87l-.625 2.666z"/><path d="M247.927 139.816h3.539l-.667-2.666h-2.18l-.692 2.666z"/><path d="M248.155 137.655h2.949l-.499-2.666h-1.876l-.574 2.666z"/><path d="M250.709 134.673h-2.063l-.209.964h2.44l-.168-.964zm.423 29.694h-2.62m2.763-1.947h-2.94m3.329-1.976h-3.727m3.919-2.153h-3.901m3.928-2.152h-4.102m4.262-1.968h-4.449m4.459-1.791h-4.65m4.622-2.161h-4.65m4.495-2.135h-4.495m4.289-2.17h-4.065m3.868-1.959h-3.672"/><path d="M249.909 119.044c-.688-.324-2.245-1.313-1.783-1.903l.713-1.215c1.011-2.277-.018-1.395-.126-2.105-.103-.682 3.865-.15 3.924 1.397.016.426-.294.176-.252 2.611l-.755 1.457c-.565.053-1.234-.014-1.721-.243z" class="E G"/><path d="M250.392 124.934l-.986-.83.273-7.105.965.283-.252 7.652z"/><path d="M251.672 119.246c.619-.362 1.024-1.443.65-2.085-1.016-1.287-1.674-.756-3.378-1.336-.34.362-1.056 1.059-.902 1.579 2.242 1.056 1.372.157 2.113.288.4.071.658.545 1.516 1.554z" class="D H"/><use xlink:href="#C" transform="matrix(1 0 0 -1 -.002261 320.36968)"/></g><path stroke="#fff" stroke-width=".181" d="M238.358 161.75c0 1.299-.815 2.353-1.818 2.353s-1.818-1.054-1.818-2.353v-1.276h3.637v1.276z" class="F"/><ellipse stroke="none" cx="236.539" cy="160.063" rx="1.806" ry=".898" class="C"/><path stroke="#f1b517" d="M236.126 161.075l-.31-3.297h1.382l-.226 3.297h-.846z" class="B F"/><path id="C" stroke="#fff" stroke-width=".237" d="M238.538 160.118c-.265.493-1.061.852-1.999.852s-1.728-.359-1.993-.852c-.061.114-.099.233-.099.359 0 .669.937 1.211 2.092 1.211s2.092-.542 2.092-1.211a.75.75 0 0 0-.093-.359z" class="F"/><g id="D" class="B"><path d="M246.035 172.786l-7.06-2.189-3.076-5.254-10.893-.535.378 3.941 9.279 1.776.882 1.581 10.666 2.968-.177-2.287z"/><path fill="#503200" d="M238.662 174.254l-11.149-16.398-.547.412 11.06 16.467.635-.48z"/><path d="M228.551 158.5l-1.19-1.992c-.223-.368-.561-.49-1.058-.228-.484.255-.437.759-.24 1.123l1.1 1.852 1.388-.755z" class="C"/><path d="M239.986 164.127l-22.496-2.286-.547 3.271 22.387 2.251.656-3.236z"/><path d="M217.089 160.997l-.583 4.538h.948l.656-4.151-1.021-.387zm3.755.738l-.255 4.08.583.07.474-3.623-.802-.528zm15.241 1.759l-.547 3.834 1.094-.035.438-3.799h-.984zm3.351.105l-.779 4.434 1.238.179.354-2.332c.1.469.531.824 1.046.824.589 0 1.069-.464 1.069-1.031s-.481-1.026-1.069-1.026c-.409 0-.78.24-.941.687l.232-1.662-1.15-.073zm-8.119.72l-3.094 3.482.361.423 3.97-2.711-1.238-1.194zM224.124 173l3.094-3.482-.361-.423-3.97 2.711 1.238 1.194zm8.096-.871l-3.764-2.91-.387.274 2.965 3.756 1.186-1.119zm-9.282-6.716l3.816 2.811.464-.348-2.991-3.756-1.289 1.293zm4.152-2.319l.365 4.573.514-.022 1.207-4.452-2.085-.1zm1.251 11.095l-.365-4.573-.565-.053-.691 4.626h1.621zm5.06-6.163l-4.795.51-.073.457 4.849.633.018-1.601zm-11.408 1.583l4.681-.74.099-.364-4.842-.541.062 1.645z"/><ellipse cx="227.693" cy="168.548" rx="1.27" ry="1.225"/><path d="M234.438 168.548c0 3.592-3.022 6.507-6.745 6.507s-6.745-2.915-6.745-6.507 3.022-6.507 6.745-6.507 6.745 2.915 6.745 6.507zm-1.347 0c0 2.874-2.418 5.207-5.398 5.207s-5.398-2.333-5.398-5.207 2.418-5.207 5.398-5.207 5.398 2.333 5.398 5.207z" class="I"/><path d="M223.48 165.264l-1.057-.796m8.611.025l.902-.92m1.031 9.128l-1.109-.871m-8.378 1.866l.954-1.02m21.762-10.554l1.155 5.886-.942.496-1.013-6.298.801-.084z"/><g class="C"><path d="M245.592 161.364c-.535-.224-1.232.155-2.374-1.292-1.878 1.722-.107 1.98.178 3.685.531.218.858-1.323 2.303-1.481l2.298-.203-.532-.725-1.873.016z"/><path d="M246.359 162.518l-.214-1.756c-.232-.62-1-.086-1 .276l.196 1.619 1.017-.138z"/></g><path d="M240.765 167.372l.019 1.637c-.536.183-.454.585-.437 1.169l.019 4.771c-.19.317-.778.332-1.054.58s-.242.73 1.02 1.047l.976.035c1.486-.325 1.793-.817 1.048-1.095-.396-.148-.918-.324-1.117-.557l.033-1.137.965.035c.259 0 .752-.652.77-1.185l.005-2.47c-.035-1.4-1.086-1.558-1.379-1.541l.02-1.29-.886.003zm1.631 2.73c.017-.4-.556-.757-.786-.767s-.734.467-.752.867v1c.035.367.328 1.609.916 1.701.279.043.639-.4.639-.767l-.017-2.034z" class="I"/><g class="C"><path d="M234.275 172.328c-.636-.257-.63 1.172-.63 1.172l1.003.011c.439.199.791.843.512 1.159-.231.261-2.177-.441-2.308-.037.344 1.942 2.917 2.689 3.848 1.839.911-.831 1.141-3.048-1.817-3.629l-.607-.514z"/><path d="M234.87 172.856l-.292.639"/></g><path d="M214.943 173.055l-.963-4.049m2.132 3.816l-1.479-3.153m4.025 2.324l-3.337-1.792m4.782 1.427l-6.192-2.688"/><path d="M210.215 166.013s-2.254-.036-2.656.122c-.162.064.567.825.416 1.115-.563 1.082-4.394.934-4.697.697-.518-.405 3.568-.753 3.595-1.028.031-.316-.604-1.147-.506-1.656.128-.661 1.789-.906 1.789-.906l2.06 1.656z" class="D H"/><path fill="#503200" d="M213.233 168.05l-5.102-4.222s-.225-.238-.413-.033.069.431.069.431l5.263 4.348.183-.524z"/><path d="M218.146 172.217c-.09-.087-4.155-3.608-4.155-3.608l-.271-1.028-.858.645c-.23.22-.587.819-.587.819l1.138.052 3.595 3.294 1.138-.174z"/><ellipse cx="232.534" cy="177.056" rx=".74" ry=".715"/><ellipse cx="230.641" cy="175.716" rx=".74" ry=".715"/><ellipse cx="228.091" cy="176.593" rx=".74" ry=".715"/><ellipse cx="224.153" cy="177.445" rx=".74" ry=".715"/><ellipse cx="222.487" cy="177.64" rx=".74" ry=".715"/><ellipse cx="220.846" cy="177.64" rx=".74" ry=".715"/><ellipse cx="219.18" cy="177.591" rx=".74" ry=".715"/><ellipse cx="219.988" cy="176.325" rx=".74" ry=".715"/><ellipse cx="221.604" cy="176.398" rx=".74" ry=".715"/><ellipse cx="223.144" cy="176.203" rx=".74" ry=".715"/><ellipse cx="222.361" cy="174.961" rx=".74" ry=".715"/><ellipse cx="220.846" cy="174.937" rx=".74" ry=".715"/><path d="M236.47 177.991c0-.316-.769-.18-.769-.551 0-.412 1.172-.109 1.334.253.66-.596.944-.16 1.348.02.575-.855 1.287-.823 1.981-.197.401-.443 1.41-.296 1.757.197.665-.659 1.255-.497 1.716-.02.185-.347.457-.271.654-.02.354-.628 1.242-.44 1.616-.025.332-.365.673-.08 1.114.19.298-.279.778-.226.778.051 0 .289-.628.187-.628.474 0 .256.458.126.458.45 0 .255-.68.35-.785-.056-.23.44-1.062.271-1.144-.138-.277.334-.897.436-1.246-.059-.287.233-.63.267-.787.031-.517.556-1.389.442-1.689-.171l-.293.012c-.508.69-1.302.371-1.52-.01-.853.615-1.362.421-1.838.02-.547.667-1.381.62-1.573 0-.368.268-1.136.331-1.136.018 0-.301.653-.191.653-.469zm1.655.15c0 .143-.195.259-.435.259s-.435-.116-.435-.259.195-.259.435-.259.435.116.435.259zm1.82-.218c0 .172-.235.312-.524.312s-.524-.14-.524-.312.235-.312.524-.312.524.14.524.312zm3.575.197c0 .174-.212.316-.474.316s-.474-.142-.474-.316.212-.316.474-.316.474.142.474.316zm-1.903-.083c0 .221-.208.399-.464.399s-.464-.179-.464-.399.208-.399.464-.399.464.179.464.399zm4.06.01c0 .197-.186.357-.414.357s-.414-.16-.414-.357.186-.357.414-.357.414.16.414.357zm-1.244.083c0 .127-.12.231-.268.231s-.268-.103-.268-.231.12-.231.268-.231.268.103.268.231zm2.422.093c0 .183-.135.332-.302.332s-.302-.149-.302-.332.135-.332.302-.332.302.149.302.332z" class="I"/></g><use xlink:href="#D" transform="matrix(-1 0 0 1 499.85853 0)" class="B"/><path d="M249.837 165.718c-2.512 0-4.55.944-4.55 2.102 0 .199.056.39.168.572.543.629 2.307 1.088 4.399 1.088 1.957 0 3.624-.403 4.277-.97.164-.217.256-.447.256-.69 0-1.158-2.038-2.102-4.55-2.102z" class="E G J"/><path d="M254.427 167.981v7.058c0 .828-2.048 1.499-4.572 1.499s-4.572-.672-4.572-1.499v-7.058c0 .828 2.048 1.499 4.572 1.499s4.572-.672 4.572-1.499z" class="K"/><path d="M245.282 167.982v1.082l2.22 6.845 1.772-5.264 1.947 5.466 1.424-5.159 1.783 3.468V172.5l-1.656-3.363-.593.135-1.028 3.812-1.447-3.605-.715-.022-1.453 3.627-1.662-4.367c-.376-.218-.593-.467-.593-.734z" class="B D H"/><g class="K"><path d="M254.427 173.721v1.318c0 .828-2.048 1.499-4.572 1.499s-4.572-.672-4.572-1.499v-1.318c0 .828 2.048 1.499 4.572 1.499s4.572-.672 4.572-1.499z" class="E G"/><path d="M251.737 175.085l-1.185.118.012 1.317 1.185-.118-.012-1.317zm-4.869-.23l-.012 1.312c.353.101.75.185 1.185.247v-1.317c-.43-.061-.824-.142-1.174-.241zm-1.586-1.132v1.317c0 .246.185.474.506.678l.023-1.301c-.336-.209-.529-.443-.529-.695zm9.146.14l-.023.006c-.08.267-.379.516-.831.723l.006 1.312c.53-.245.848-.54.848-.863v-1.177z"/><path fill="none" d="M254.427 168.027v7.012c0 .828-2.048 1.499-4.572 1.499s-4.572-.672-4.572-1.499v-7.012"/></g><path stroke="#fff" stroke-width=".192" d="M253.392 167.52c0 .501-1.584.907-3.537.907s-3.537-.406-3.537-.907 1.584-.907 3.537-.907 3.537.406 3.537.907z" class="C"/><path d="M248.698 168.19l.157 1.25.953.039.232-1.289h-1.342zm4.103-.303l-.912.247.058 1.177.866-.191-.012-1.233zm-5.404-1.908c-.259.076-.501.165-.72.263l.128.944.581-.185.012-1.023zm2.44-.373l-.36.011.198 1.182.604-.011.238-1.154-.68-.028zm2.673.418l-.122 1.034.691.244.076-1.015a5.26 5.26 0 0 0-.645-.263z" class="J"/><g class="B"><path d="M245.993 168.8l.184-1.288-.935-.506.028 1.465.723.329zm8.403-.278l.042-1.288-.876.262.834 1.026z"/><path d="M263.686 160.029c.831-.115 2.062 1.024 2.136 2.433.059 1.118-1.691 1.059-1.691 1.059-.089.458-1.054.882-1.84.916-.762.033.208-1.431.208-1.431-.475-1.26.148-2.748.148-2.748l1.039-.229z"/><path d="M262.499 162.948l.801-.029s.061.413.208.429c.157.018.326-.401.326-.401l1.217-.029"/><path stroke="#f1b517" d="M264.131 160.859c.68-.491.084-1.48-.386-1.489l-1.098.029c-.517.011-1.392.573-1.276 1.059.101.424.386.618.831.544.202-.034.626-.563.831-.573.275-.012.878.588 1.098.429z" class="D"/><path d="M214.242 174.855c-.617.078-.731.788-.5 1.441l-7.455 2.405c-.095-.474 1.174-1.844 1.174-1.844.336.162.587.931.587.931.084-1.579 1.639-2.629 1.639-2.629-.923-.121-3.732.967-4.067 1.413 0 0 1.087-.121 1.255 0 0 0-2.141 2.312-2.237 2.999.333.751 4.027 1.312 4.027 1.312-.058.194-1.087.931-1.087.931 1.469.323 3.685-.718 4.346-1.351 0 0-1.728-.142-3.074-1.233 0 0 .278.679.11 1.003 0 0-2.099-.605-2.318-.953.006-.03 4.966-1.315 7.368-2.001.089.429.566 1.24 1.139 1.048.374-.125.255-.866.116-1.39a.77.77 0 0 0 .506.185c.422 0 .767-.327.767-.734s-.345-.74-.767-.74c-.338 0-.619.211-.72.505-.096-.453-.345-1.353-.808-1.295zm1.889 1.528c0 .191-.16.345-.358.345s-.358-.155-.358-.345.16-.345.358-.345.358.155.358.345z" class="I"/><path d="M293.068 177.884c.183-.367-.162-2.212-.162-2.212-.373.041-.882.681-.882.681.481-1.511-.865-4.038-.865-4.038.911.19 3.945 3.128 4.103 3.658 0 0-1.329-.474-1.53-.415.217 1.506 1.258 2.205 1.649 2.988 0 0-1.726.379-1.552 1.822l-1.127.021c-.39-.481.152-1.276.152-1.276l-7.739-3.241c-.499-.209-1.62-.718-1.452-1.317s2.016.251 2.471.397l6.934 2.932z"/><path d="M285.635 176.541l.91-1.673c.325-.439-.347-.92-.824-.356l-1.019 1.527c-.455.837.499 1.067.932.502z"/><g class="C"><path d="M231.367 180.366l-.063-1.825-2.207.122-.126 1.987 2.396-.284z"/><path d="M215.237 182.924l-2.951-1.655c12.169 1.115 14.654-3.129 17.594-3.356 1.808-.141 2.09 2.002-1.413.982l.906 2.241s-8.638 4.86-17.129 2.852l2.993-1.065zm53.012-2.558l.063-1.825 2.699.062.126 1.987-2.888-.224z"/><path d="M284.939 182.477l2.777-1.515c-13.939.415-10.765-2.289-17.739-3.048-1.802-.195-3.157 2.121 1.413.982l-.906 2.241 2.192.002c4.748 3.127 11.156 3.406 15.401 2.402l-3.138-1.065z"/><path d="M228.418 178.908v3.154s7.728 2.867 21.519 2.867c13.85 0 21.519-2.867 21.519-2.867v-3.154s-5.849 2.695-21.519 2.695c-15.61 0-21.519-2.695-21.519-2.695z"/></g></g><path fill="#000" stroke="none" d="M229.573 182.08l.682-2.309.317.087-.601 2.037 1.179.324-.081.273-1.496-.411zm2.236-1.015l.038-.454.102-.389.337.082-.102.389-.193.416-.183-.044zm3.325-.156l.323.063-.287 1.359c-.05.236-.117.419-.202.547s-.209.222-.372.28-.362.065-.597.019c-.228-.045-.407-.12-.537-.224a.66.66 0 0 1-.242-.391c-.032-.156-.021-.359.031-.608l.287-1.359.323.063-.287 1.358c-.043.204-.055.359-.036.463s.071.192.156.264a.73.73 0 0 0 .335.148c.237.047.417.028.54-.056s.215-.274.278-.569l.287-1.358zm.363 2.51l.402-2.37.333.053.975 2.064.315-1.861.312.049-.402 2.37-.333-.053-.974-2.066-.316 1.862-.312-.049zm2.541.384l.342-2.378.326.044-.342 2.378-.326-.044zm.937-1.049c.047-.396.194-.694.441-.894a1.16 1.16 0 0 1 .893-.242c.228.025.428.1.599.226a1.04 1.04 0 0 1 .367.486 1.39 1.39 0 0 1 .068.656c-.029.242-.105.453-.229.633s-.284.309-.481.386a1.28 1.28 0 0 1-.618.081 1.2 1.2 0 0 1-.605-.232c-.17-.129-.292-.292-.364-.49a1.31 1.31 0 0 1-.071-.611zm.337.042c-.034.287.019.523.16.706s.332.288.574.315.459-.034.638-.184.287-.378.323-.685a1.19 1.19 0 0 0-.042-.52.76.76 0 0 0-.259-.37.83.83 0 0 0-.427-.168c-.232-.025-.44.029-.625.164s-.299.382-.342.741zm2.308 1.416l.203-2.393.337.027 1.144 1.982.159-1.879.315.025-.203 2.393-.337-.027-1.144-1.983-.159 1.881-.315-.025zm3.489.243l.109-2.399 1.677.071-.013.283-1.348-.057-.034.743 1.167.049-.013.283-1.167-.049-.049 1.09-.329-.014zm1.834.078l1.004-2.383.355.007.97 2.42-.375-.007-.276-.733-1.041-.019-.288.722-.35-.007zm.738-.972l.844.016-.246-.67-.167-.501a2.98 2.98 0 0 1-.143.456l-.287.699zm1.914 1.011l.005-2.401h.329l-.005 2.401h-.329zm1.542-.007l-.031-2.118-.82.011-.004-.283 1.973-.027.004.283-.823.011.031 2.118-.329.005zm2.442-.058l-.116-2.399.329-.015.103 2.116 1.224-.055.014.283-1.553.07zm1.675-.073l.777-2.461.354-.024 1.193 2.325-.374.026-.343-.706-1.038.071-.219.744-.349.024zm.644-1.033l.842-.058-.308-.646-.213-.485a2.97 2.97 0 0 1-.1.467l-.221.721zm2.922.758l-.273-2.387 1.669-.178.032.282-1.342.143.084.739 1.161-.124.032.282-1.161.124.124 1.084-.327.035zm1.825-1.37c-.058-.395.006-.719.192-.972s.454-.404.801-.452c.227-.031.44-.007.638.073a1.07 1.07 0 0 1 .483.381c.124.174.203.38.238.618s.017.464-.056.668a1.01 1.01 0 0 1-.365.491 1.26 1.26 0 0 1-.577.229 1.22 1.22 0 0 1-.646-.077c-.199-.083-.359-.211-.481-.386s-.198-.365-.229-.574zm.337-.041c.042.286.156.501.34.644s.397.198.637.165a.8.8 0 0 0 .569-.333c.134-.188.178-.435.133-.741a1.2 1.2 0 0 0-.177-.493.78.78 0 0 0-.347-.295.84.84 0 0 0-.457-.059.85.85 0 0 0-.562.311c-.144.176-.189.443-.136.801zm2.614.806l-.445-2.363 1.086-.19c.218-.038.388-.046.51-.024s.226.082.315.177.144.208.169.338c.031.168.002.319-.089.453s-.251.238-.48.31a.87.87 0 0 1 .218.083c.11.067.22.156.328.267l.547.568-.408.071-.417-.435-.295-.285a.75.75 0 0 0-.194-.129.51.51 0 0 0-.16-.037c-.038-.001-.099.006-.183.02l-.376.066.197 1.049-.324.057zm.076-1.377l.697-.122c.148-.026.261-.061.339-.105s.133-.103.164-.175.04-.147.025-.223c-.021-.112-.08-.196-.178-.254s-.237-.07-.419-.038l-.775.136.147.782zm3.931-.262l.34.009c-.008.269-.084.49-.228.661s-.342.285-.595.34c-.262.057-.487.052-.674-.016s-.347-.189-.479-.365-.223-.376-.275-.6c-.057-.244-.058-.467-.004-.67s.16-.37.316-.503.342-.223.556-.269c.243-.053.461-.037.655.046s.348.226.464.428l-.3.141c-.096-.158-.207-.265-.332-.319s-.269-.064-.431-.029c-.187.041-.333.118-.438.231a.69.69 0 0 0-.183.405 1.39 1.39 0 0 0 .029.466c.046.199.117.367.212.502s.214.226.358.272.29.053.438.021c.18-.039.321-.122.422-.249s.151-.294.149-.501zm.915.653l-.669-2.313 1.733-.467.079.273-1.416.381.205.708 1.326-.357.079.271-1.326.357.228.787 1.472-.396.079.273-1.789.482z"/></g></svg>