<svg xmlns="http://www.w3.org/2000/svg" xmlns:xlink="http://www.w3.org/1999/xlink" width="630" height="360" xmlns:v="https://vecta.io/nano"><path fill="#da0000" d="M0 0h630v360H0z"/><path fill="#fff" d="M0 0h630v240H0z"/><path fill="#239f40" d="M0 0h630v120H0z"/><g transform="translate(8.4 100.4)"><g id="A"><g id="B" fill="none" stroke="#fff"><path id="C" d="M0 1.4h36.4M1.4 14V7h11.2v5.6h11.2V7h-7M5.6 12.6h2.8m28 0h-7V7h11.2m0-7v12.6h11.2V0m-5.6 0v12.6" stroke-width="2.8"/><path id="D" d="M0 19.6h25.2m2.8 0h25.2" stroke-width="5.6"/><g stroke-width="2"><use xlink:href="#D" y="120"/><use xlink:href="#C" y="145.2"/></g></g><g id="E"><use xlink:href="#B" x="56"/><use xlink:href="#B" x="112"/><use xlink:href="#B" x="168"/></g></g><use xlink:href="#E" x="168"/><use xlink:href="#A" x="392"/></g><g fill="#da0000" transform="matrix(45 0 0 45 315 180)"><g id="F"><path d="M-.548.836A.912.912 0 0 0 .329-.722 1 1 0 0 1-.548.836"/><path d="M.618.661A.764.764 0 0 0 .422-.741 1 1 0 0 1 .618.661M0 1l-.05-1L0-.787a.31.31 0 0 0 .118.099V-.1l-.04.993z"/><path d="M-.02-.85L0-.831a.144.144 0 0 0 .252-.136A.136.136 0 0 1 0-.925"/></g><use xlink:href="#F" transform="scale(-1 1)"/></g></svg>