<svg xmlns="http://www.w3.org/2000/svg" xmlns:xlink="http://www.w3.org/1999/xlink" width="750" height="450" viewBox="0 0 250 150" xmlns:v="https://vecta.io/nano"><clipPath id="A"><circle r="25"/></clipPath><path fill="#e8112d" d="M0 0h250v150H0z"/><g transform="translate(125 75)"><g id="B" transform="scale(.25)"><g id="C"><path id="D" d="M-8.4 108C0 130-18 164 0 180c-6-24 14-50 8.4-72s-25.2-22-16.8 0z" fill="#ffef00"/><use xlink:href="#D" transform="rotate(90)"/><use xlink:href="#D" transform="rotate(180)"/><use xlink:href="#D" transform="rotate(270)"/></g><use xlink:href="#C" transform="rotate(18)"/><use xlink:href="#C" transform="rotate(36)"/><use xlink:href="#C" transform="rotate(54)"/><use xlink:href="#C" transform="rotate(72)"/></g><use xlink:href="#B" transform="rotate(9)"/><circle r="27" fill="#e8112d"/><circle cy="-1.5" r="22.5" fill="#ffef00"/><g id="E" fill="#e8112d" clip-path="url(#A)"><path d="M-23.055 18a37.755 37.755 0 1 1 75.51 0h.305a36.26 36.26 0 1 0-72.521 0z"/><path d="M-17.601 18a35.301 35.301 0 1 1 70.602 0h.423a33.925 33.925 0 1 0-67.849 0zM20.7-15.052a33.053 33.053 0 1 0 0 66.105l1.8-1.233a31.82 31.82 0 1 1 0-63.64z"/></g><use xlink:href="#E" transform="scale(-1 1)"/></g></svg>