<svg xmlns="http://www.w3.org/2000/svg" xmlns:xlink="http://www.w3.org/1999/xlink" width="625" height="400" xmlns:v="https://vecta.io/nano"><style><![CDATA[.B{stroke-width:.96}.C{stroke-linejoin:bevel}.D{stroke-width:1.045}.E{stroke-width:1.043}]]></style><path fill="#032ea1" d="M0 0h625v400H0z"/><path fill="#e00025" d="M0 100h625v200H0z"/><g fill="#fff" stroke="#000" transform="translate(117.143 -434.934)"><g class="C"><g class="B"><path d="M139.02 623.46h113.8v43.788h-113.8z"/><use xlink:href="#C"/><path d="M139.02 639.49h113.8v5.09h-113.8zm0-6.9h113.8v4.489h-113.8z"/></g><path stroke-width=".945" d="M139.02 625.7h113.8v4.354h-113.8z"/><g class="B"><use xlink:href="#C" x="-77.97"/><use xlink:href="#C" x="-28.98"/><use xlink:href="#C" x="-107.03"/><use xlink:href="#C" x="-100"/><use xlink:href="#C" x="-92.5"/><use xlink:href="#C" x="-85"/><use xlink:href="#C" x="-22.18"/><use xlink:href="#C" x="-14.68"/><use xlink:href="#C" x="-7.18"/></g></g><path stroke-linejoin="miter" d="M94.509 669.55c1.76-.897 3.768-2.984 4.425-5.319h193.07c.657 2.335 2.665 4.422 4.425 5.319z" class="B"/><g class="B"><path d="M193 556.8s-.144-4.112 2.251-4.157c2.395.045 2.251 4.157 2.251 4.157zm-12.49 54.54v-5.536c-.079-2.768-2.759-2.968-2.838-4.986 0 0-.346-3.027.452-4.408 1.084 4.047 3.056 3.304 3.056 1.64 0-1.453-1.117-2.803-3.408-6.33-.732-1.127-.279-4.66.747-5.922.398 3.071.853 4.54 2.172 4.54.804 0 1.461-.524 1.461-2.062 0-1.957-1.325-2.944-1.976-4.725-.76-2.078-.237-4.196 1.026-5.38.541 3.029.38 4.237 1.726 4.237 2.713-.858.001-4.787-.579-5.777-.667-1.155.897-3.46.897-3.46.862 2.69 1.139 2.909 2.07 2.66 1.174-.315 1.022-2.056-.41-3.463-.904-.889-.809-2.212.162-3.274.975 1.906 2.223 1.79 2.343.658l-.784-4.393h17.255l-.857 4.249c-.245 1.216 1.396 1.48 2.416-.514.971 1.062 1.067 2.385.162 3.274-1.432 1.407-1.584 3.149-.41 3.463.93.249 1.208.03 2.07-2.66 0 0 1.403 1.571.897 3.46-.58.991-3.292 4.919-.579 5.777 1.345 0 1.184-1.208 1.726-4.237 1.263 1.184 1.786 3.302 1.026 5.38-.651 1.78-1.976 2.769-1.976 4.725 0 1.538.657 2.062 1.461 2.062 1.319 0 1.774-1.469 2.172-4.54 1.026 1.263 1.479 4.795.747 5.922-2.291 3.527-3.408 4.878-3.408 6.33 0 1.664 1.972 2.408 3.056-1.64.798 1.382.452 4.408.452 4.408-.079 2.018-2.759 2.218-2.838 4.986v5.536zm7.22-46.02l-.397-3.125h15.838l-.397 3.125zm1.06-3.19l-.341-2.569h13.604l-.341 2.569zm2.16-2.66l-.227-2.569h9.059l-.227 2.569zm33.02 110.08c-2.027-.781-4.977-2.919-4.977-5.069v-24.297l2.638-3.359h-52.776l2.529 3.359v24.297c0 2.151-2.026 4.288-4.053 5.069z"/><g class="C"><use xlink:href="#C" x="-68.71"/><use xlink:href="#C" x="-38.39"/></g><path d="M167.91 609.17v27.656h54.023v-5.957l.078-21.699c-2.21.868-2.598 2.871-2.598 2.871v11.777h-48.75v-11.777s-.544-2.003-2.754-2.871z"/><path d="M214.6 669.55c-1.766-.781-5.612-2.919-5.612-5.069v-27.192c.378-1.518 2.436-2.414 3.761-3.359h-35.823c1.705.903 3.605 1.652 4.285 3.359v27.192c0 2.151-3.041 4.288-4.806 5.069z"/><path d="M219.41 634.22v-19.587h-4.91v-1.909h-38.84v1.909h-4.911v19.587zm-12.55 35.33c-1.73-.781-4.249-2.919-4.249-5.069v-23.215l1.421-2.109h-17.691l1.421 2.109v23.215c0 2.151-2.519 4.288-4.249 5.069z"/></g><path stroke-width=".981" d="M190.71 639.16h8.965v30.377h-8.965z"/><g class="B"><path d="M204.38 632.48c.022-2.001 5.838-2.091 8.832-3.795H177.26c2.994 1.704 8.676 1.844 8.676 3.795l1.217 3.882 14.883.598z" class="C"/><path d="M211.41 611.34c0-4.899.205-6.786 1.71-6.786v15.58c-3.691 1.339-6.325 6.049-6.325 6.049h-23.211s-2.634-4.71-6.325-6.049v-15.58c1.856 0 1.868 1.972 1.868 6.786z"/><path d="M213.12 609.33c0-5.618 4.851-6.25 4.851-6.25v5c-1.846-.079-2.737 1.578-2.737 4.044s1.487 2.506 1.487 2.506v14.19h-3.601zm-35.84 0c0-5.618-4.851-6.25-4.851-6.25v5c1.846-.079 2.737 1.578 2.737 4.044s-1.487 2.506-1.487 2.506v14.19h3.601z"/></g><g fill="none"><path d="M186.84 570.62h17.128m-19.158 5.35h20.921m-22.951 6.49h24.904m-27.024 7.93h29.536m-30.216 9.04h30.426" stroke-width=".8"/><path d="M170.75 628.92h48.661m-33.221.01h18.036v6.629H186.19z" class="B"/></g><g class="B"><path d="M183.93 614.24c2.99 3.59 2.713 9.68 2.679 13.27h17.343c-.034-3.59-.312-9.68 2.679-13.27zm9.75-41.13l-2.376-1.224v-3.497c.971.292 2.062.411 2.169 1.96.338-2.21.948-2.102 1.906-2.963.958.861 1.568.753 1.906 2.963.107-1.548 1.197-1.667 2.169-1.96v3.497l-2.376 1.224z"/><path d="M193.52 578.85l-3.946-2.713v-3.223c1.384.32 2.937.451 3.089 2.149.482-2.423 1.35-3.675 2.715-4.62 1.365.944 2.233 2.197 2.715 4.62.152-1.698 1.705-1.828 3.089-2.149v3.223l-3.946 2.713z"/><path d="M193.24 587.8l-4.538-3.985v-4.735c1.591.471 3.377.663 3.551 3.157.554-3.56 1.553-5.399 3.122-6.787 1.569 1.388 2.568 3.227 3.122 6.787.175-2.494 1.96-2.686 3.551-3.157v4.735l-4.538 3.985zm8.37 5.29l-4.104 5.676h-4.646l-4.104-5.676zm-15.22 9.53c2.053 1.122 2.811 3.357 3.03 7.553h11.55c.219-4.196.977-6.431 3.03-7.553z"/><g class="C"><path d="M204.17 593.09v-5.702c-1.95.537-3.213 1.691-3.775 3.258 0-1.893-2.491-6.257-5.207-8.429-2.724 2.431-5.257 6.38-5.207 8.429-.463-1.492-1.826-2.721-3.775-3.258v5.702z"/><path d="M205.04 602.62v-5.702c-2.137.537-3.522 1.691-4.139 3.258 0-1.893-2.73-6.257-5.708-8.429-2.986 2.431-5.763 6.38-5.708 8.429-.508-1.492-2.001-2.721-4.139-3.258v5.702z"/><path d="M207.44 614.32v-6.577c-2.659.686-4.312 2.653-5.149 3.8 0-3.561-4.021-8.99-7.101-10.768-3.16 1.824-7.101 7.435-7.101 10.768-.859-1.139-2.49-3.113-5.149-3.8v6.577z"/><path d="M206 628.92v-6.762c-2.346.919-3.048 3.18-3.786 4.716.29-6.858-3.861-14.23-7.024-16.1-3.162 1.87-7.393 9.4-7.024 16.1-.758-1.527-1.44-3.797-3.786-4.716v6.762z"/></g><path d="M204.36 639.16v-6.762c-2.458.584-2.61 1.491-3.392 3.005.29-4.096-2.611-8.769-5.774-10.639-3.162 1.87-6.064 6.543-5.774 10.639-.782-1.514-.878-2.421-3.392-3.005v6.762z"/></g><g id="A"><g class="B"><path d="M98.935 664.23v-20.44c-.67-2.603-2.879-4.905-4.541-5.366v-17.993l3.742 2.023 4.271 18.811v22.965z"/><path d="M98.935 664.31v-20.519c-.67-2.603-2.879-4.905-4.541-5.366v-19.243c2.512 0 3.742 3.273 3.742 3.273l4.271 18.811v22.886z"/><path d="M96.275 669.55c1.73-.781 4.249-2.919 4.249-5.069v-25.547l-1.185-2.109h43.522l-1.698 2.109v25.547c0 2.151 1.73 4.288 3.46 5.069z"/><path d="M135.84 669.55c-1.73-.781-4.249-2.919-4.249-5.069v-24.297l3.619-3.359h-29.588l3.619 3.359v24.297c0 2.151-2.519 4.288-4.249 5.069z"/><path d="M131.69 669.55c-1.73-.781-4.249-2.919-4.249-5.069v-21.965l2.369-3.359h-18.798l2.369 3.359v21.965c0 2.151-2.519 4.288-4.249 5.069z"/><path d="M115.92 639.16h8.982v30.393h-8.982z"/><g class="C"><path d="M103.7 647.64h3.586v16.495H103.7z"/><use xlink:href="#C" x="-112.5"/><path d="M100.64 619.82h4.32v16.909h-4.32zm0-3.18h4.295v3.139h-4.295z"/></g></g><path stroke-width="1.034" d="M136.17 623.46h6.159v13.054h-6.159z" class="C"/><g class="B"><path d="M104.89 636.6v-28.941c1.232 0 1.422 4.242 4.249 4.242 1.472 0 1.315-1.757.489-3.188-.732-1.267-1.637-3.018-.407-6.278.843 2.495 3.112 3.287 2.693 1.722-.72-2.689-2.794-3.13-1.238-7.302.54 3.481 2.773 3.327 2.231 1.303-.611-2.28-1.873-3.214-.316-6.428.872 3.649 2.052 3.435 2.052 1.171 0-3.347-.129-6.957 4.203-8.296 0 0 .25-3.068 1.812-3.068s1.812 3.068 1.812 3.068c4.331 1.339 4.203 4.949 4.203 8.296 0 2.264 1.18 2.478 2.052-1.171 1.557 3.214.295 4.148-.316 6.428-.542 2.024 1.69 2.177 2.231-1.303 1.556 4.172-.518 4.613-1.238 7.302-.419 1.565 1.85.773 2.693-1.722 1.23 3.261.325 5.011-.407 6.278-.826 1.431-.983 3.188.489 3.188 2.827 0 3.017-4.242 4.249-4.242V636.6zm-6.766-21.86v22.079h2.511v-22.135c-.905-.457-1.755-.527-2.511.056z"/><path d="M98.203 629.03c3.112 1.591 6.195 3.433 6.975 7.793h-6.975zm43.167-6.61v14.407h2.035v-14.443c-.636-.298-1.504-.344-2.035.036z"/><path d="M143.41 628.92c-3.112 1.591-6.195 3.433-6.975 7.793h6.975zm-20.58-33.65l1.814-1.525v-1.953c-.664.064-1.026.293-1.516.935-.417-1.294-1.334-2.305-2.562-2.933-1.229.628-2.145 1.592-2.562 2.887-.49-.643-.852-.825-1.516-.889v1.953l1.814 1.525z"/><path d="M123.8 600.16l.843-1.825v-2.538c-.664.065-1.026.297-1.516.949-.417-1.313-1.334-2.338-2.562-2.974-1.229.636-2.145 1.615-2.562 2.928-.49-.652-.852-.837-1.516-.902v2.538l.843 1.825z"/><path d="M123.93 606.79l2.695-3.287v-3.243c-.986.111-1.524.503-2.252 1.606-.619-2.223-1.981-2.708-3.806-3.786-1.825 1.078-3.187 1.485-3.806 3.707-.728-1.103-1.266-1.417-2.252-1.527v3.243l2.695 3.287z"/><path d="M124.72 613.3s3.141-2.74 3.327-4.244v-3.467c-1.217.143-2.368.458-3.267 1.883-.765-2.87-1.959-3.67-4.212-5.062-2.253 1.392-3.447 2.192-4.212 5.062-.899-1.425-2.05-1.74-3.267-1.883v3.467c.397 1.504 3.327 4.244 3.327 4.244z"/><path d="M126.06 625.32s4.301-4.761 4.4-6.616v-5.406c-1.61.223-3.132 1.33-4.321 3.551-1.011-4.475-2.59-7.595-5.57-9.765-2.98 2.17-4.559 5.29-5.57 9.765-1.189-2.221-2.711-3.328-4.321-3.551v5.406c.309 1.855 4.4 6.616 4.4 6.616z"/><path d="M126.06 632.43s3.676-3.742 4.4-5.366v-5.406c-1.61.223-3.132 1.33-4.321 3.551-1.011-4.475-2.59-7.037-5.57-9.207-2.98 2.17-4.559 4.732-5.57 9.207-1.189-2.221-2.711-3.328-4.321-3.551v5.406c.934 1.625 4.4 5.366 4.4 5.366z"/><path d="M127.54 636.56c-1.073-4.668-1.996-8.13-7.163-11.641-5.167 3.51-6.089 6.973-7.163 11.641z"/><path d="M130.2 639.16v-6.762c-2.347.919-4.467 2.28-5.249 3.795-.874-3.754-2.557-5.408-4.654-7.679-2.097 2.271-3.501 3.924-4.375 7.679-.782-1.514-2.902-2.875-5.249-3.795v6.762z"/></g></g><g class="B"><use xlink:href="#A" transform="matrix(-1 0 0 1 390.73979 0)"/><path d="M72.694 694.25h245.33v12.531H72.694z"/><path d="M66.228 706.76h258.26v12.512H66.228zm19.348-31.25h219.56v8.109H85.576z"/><path d="M79.157 683.56h232.4v10.622h-232.4zm10.255-14.28h211.89v6.174H89.412z"/></g><path d="M112.41 669.31h16.005v49.935H112.41z" class="D"/><use xlink:href="#D" class="E"/><path d="m187.08,669.31h16.006v49.935h-16.005z" class="D"/><use xlink:href="#D" x="74.78" class="E"/><path d="M262.19 669.31h16.005v49.935H262.19z" class="D"/><use xlink:href="#D" x="149.78" class="E"/><g fill="none" class="B"><path d="m98.935,664.23h193.07"/><use xlink:href="#E"/><path d="M190.77 712.98h8.607m-8.607-6.253h8.607m-8.607-6.253h8.607m-8.607-6.253h8.607m-8.607-6.253h8.607m-8.607-6.253h8.607m-8.607-6.253h8.607"/><use xlink:href="#E" x="149.78"/></g></g><defs ><path id="C" d="M246.95 647.64h3.586v16.495h-3.586z"/><path id="D" d="M115.95 669.31h8.917v49.936h-8.917z"/><path id="E" d="M115.79 712.97h9.244m-9.244-6.25h9.244m-9.244-6.25h9.244m-9.244-6.25h9.244m-9.244-6.25h9.244m-9.244-6.25h9.244m-9.244-6.25h9.244"/></defs></svg>