<svg xmlns="http://www.w3.org/2000/svg" width="900" height="600" viewBox="0 0 450 300"  xmlns:v="https://vecta.io/nano"><path fill="#009543" d="M0 0h450v300H0z"/><path fill="#fff" d="M0 0h450v210H0z"/><path fill="#00209f" d="M0 0h450v90H0z"/><g fill="#fff"><g stroke="#000"><path fill="#000" d="M224.76 95.569c-1.71.037-3.378 1.931-3.378 1.931l.147 20.233-6.388 6.692h5.171l-.044 11.603-30.591 41.193-4.522-1.563-7.904 16.861s19.55 12.242 47.925 11.907c31.144-.37 48.064-12.471 48.064-12.471l-8.168-16.644-4 1.739-30.983-40.979-.044-11.949h5.171l-7.038-6.609.042-20.159s-1.751-1.82-3.461-1.784z"/><path fill="none" stroke-width="5" d="M235.43 144.01h-21.153s-7.678-16.176-6.433-27.485c1.267-11.515 7.848-16.963 16.598-17.059 10.345-.115 15.767 5.069 17.405 16.598 1.623 11.424-6.417 27.947-6.417 27.947z"/></g><path d="M187.79 182.57c-.346.461-2.882 5.533-2.882 5.533l4.38-.922-1.498-4.611zm2.53 6.57l-4.611 1.498 5.533 2.19-.922-3.688zm2.08-6.46l2.305 6.801 5.648-1.614-1.498-3.227-6.455-1.959zm3.57 9.23l.807 2.766 7.492 1.844-2.997-6.339-5.302 1.729zm8.3-5.77l2.651 6.339 5.648-2.19-1.844-2.766-6.455-1.383zm3.69 8.65l.922 2.421 8.76 1.268-3.688-5.763-5.994 2.075zm8.41-6.8l3.227 5.648 8.184-2.997-.922-2.19-10.489-.461zm4.73 7.72l1.729 2.997 10.143-.346-3.804-5.648-8.068 2.997zm10.72-7.49l2.766 4.726 6.455-3.112-1.729-2.536-7.492.922zm10.6 3.57l-6.455 3.227 1.729 2.766 8.645-1.383-3.919-4.611zm2.08-4.96l3.343 4.149 5.417-4.265-1.844-1.959-6.916 2.075zm9.91 2.19l-5.187 3.919 1.383 2.421 7.146-1.844-3.343-4.495zm7.15-8.18l1.268 1.844-3.573 5.302-3.688-4.726 5.994-2.421zm2.42 4.61l2.19 4.38-4.38 1.498-.346-2.075 2.536-3.804z"/></g></svg>