<svg xmlns="http://www.w3.org/2000/svg" xmlns:xlink="http://www.w3.org/1999/xlink" width="900" height="600" xmlns:v="https://vecta.io/nano"><path fill="#cf142b" d="M0 0h900v600H0z"/><path fill="#fff" d="M0 0h450v600H0z"/><path fill="#e60d2e" d="M22.222 82.828v45.457h45.455c0 7.574 7.576 15.151 15.152 15.151v45.454h45.452v-45.454c7.576 0 15.152-7.577 15.152-15.151h45.455V82.828h-45.455c0-7.574-7.576-15.151-15.152-15.151V22.223H82.829v45.454c-7.576 0-15.152 7.577-15.152 15.151H22.222z"/><path fill="#96877d" d="M25.254 85.857v39.397h45.452c0 7.574 7.576 15.15 15.152 15.15v45.454h39.392v-45.454c7.576 0 15.152-7.577 15.152-15.15h45.452V85.857h-45.452c0-7.574-7.576-15.151-15.152-15.151V25.252H85.858v45.454c-7.576 0-15.152 7.577-15.152 15.151H25.254z"/><path fill="#ccc" d="M26.77 87.373v36.364h45.452c0 7.574 7.576 15.153 15.152 15.153v45.454h36.362V138.89c7.576 0 15.152-7.579 15.152-15.153h45.452V87.373h-45.452c0-7.574-7.576-15.15-15.152-15.15V26.769H87.374v45.454c-7.576 0-15.152 7.577-15.152 15.15H26.77z"/><g id="A" fill="#d0d0d0"><path fill="#96877d" d="M84.536 71.681c2.663 2.663 1.943 7.699-1.607 11.25s-8.587 4.27-11.249 1.607-1.943-7.699 1.607-11.25 8.587-4.27 11.249-1.607z"/><path d="M71.143 79.715l1.071-1.072 4.286 2.142-2.143-4.285 1.071-1.072 4.285 8.571-8.571-4.286zm6.429-6.428l1.071-1.071 6.428 6.428L84 79.715z"/></g><use xlink:href="#A" transform="rotate(90 105.555 105.557)"/><use xlink:href="#A" transform="rotate(180 105.555 105.557)"/><use xlink:href="#A" transform="rotate(270 105.555 105.557)"/><g fill="none" stroke="#96877d" stroke-width=".514"><circle cx="105.555" cy="105.557" r="31.822"/><circle cx="105.555" cy="105.557" r="24.245"/></g><circle cx="93.434" cy="131.31" r="1.515"/><circle cx="117.675" cy="131.31" r="1.515"/><path d="M104.55 131.31v1.58h-2.02c-2.02 0-2.02 1.58 0 1.58h2.02v1.58c.007 1.637 1.763 1.836 1.892.137l.128-1.708h2.02c2.02 0 2.02-1.58 0-1.58h-2.02v-1.58c0-1.58-2.02-1.58-2.02 0zM75.954 113.4l2.084-.497-.23-.966c-.053-.222-.14-.372-.263-.452s-.332-.102-.629-.067l-.035-.145 1.794-.428.035.145c-.205.052-.35.114-.434.188a.52.52 0 0 0-.167.263c-.027.101-.019.241.023.418l.23.966 1.665-.397c.268-.064.442-.123.52-.178a.36.36 0 0 0 .129-.204.76.76 0 0 0 .008-.382l-.046-.192.145-.035.542 2.275-.145.035-.045-.188c-.052-.219-.154-.363-.305-.431-.098-.043-.306-.026-.624.05l-3.424.816c-.268.064-.442.123-.52.178-.059.042-.102.108-.13.2a.74.74 0 0 0-.008.382l.045.188-.145.035-.94-3.944 1.153-.329.033.137c-.231.127-.394.249-.489.367a.8.8 0 0 0-.173.392c-.021.144.002.354.068.63l.279 1.169zm-1.342-9.402c.04-.706.342-1.303.908-1.79s1.249-.708 2.052-.663c.827.047 1.498.346 2.014.898s.754 1.199.712 1.94a2.51 2.51 0 0 1-.905 1.843c-.561.48-1.264.696-2.109.648-.864-.049-1.552-.383-2.065-1.002-.445-.538-.647-1.162-.607-1.874zm.289.093c-.027.487.131.888.476 1.202.429.392 1.076.612 1.943.661.888.05 1.582-.101 2.082-.454a1.41 1.41 0 0 0 .611-1.125 1.58 1.58 0 0 0-.527-1.3c-.38-.355-.999-.557-1.858-.606-.931-.052-1.635.092-2.113.432-.38.274-.585.67-.614 1.189zm7.894-9.951l-.518 1.36-3.037.817-.111.315-.042.104-.05.114 1.48.563c.32.122.533.163.637.122.146-.053.256-.175.328-.365l.076-.199.139.053-.831 2.182-.139-.053.073-.192c.082-.215.07-.396-.034-.542-.058-.082-.232-.178-.522-.289l-3.29-1.252c-.32-.122-.533-.163-.637-.122-.147.056-.258.18-.331.373l-.073.192-.139-.053.706-1.855c.206-.541.397-.925.574-1.151s.405-.389.684-.488.566-.092.859.02a1.27 1.27 0 0 1 .698.616c.153.292.195.67.127 1.134l1.861-.495c.427-.113.729-.234.904-.365s.332-.329.468-.596l.139.053zM78.8 96.76l.049-.123.035-.086c.185-.486.219-.892.103-1.219a1.08 1.08 0 0 0-.663-.676c-.318-.121-.614-.12-.889.003s-.475.349-.6.677a3.59 3.59 0 0 0-.153.617l2.118.806zm11.596-18.053l1.053 1.367-.118.076c-.352-.283-.682-.454-.989-.514-.442-.087-.877.008-1.305.285-.582.377-.876.895-.881 1.552-.002.554.171 1.099.519 1.637a3.31 3.31 0 0 0 1.026 1.03c.402.251.793.371 1.175.362s.717-.107 1.004-.294a2.2 2.2 0 0 0 .448-.381 2.31 2.31 0 0 0 .333-.484l-.856-1.322c-.149-.229-.263-.368-.344-.416a.42.42 0 0 0-.267-.057c-.097.01-.238.075-.422.194l-.083-.128 1.771-1.147.083.128-.084.055c-.175.114-.258.25-.247.409.009.112.093.291.251.536l.907 1.4c-.168.307-.357.575-.567.803a4.01 4.01 0 0 1-.777.642c-.884.572-1.739.724-2.564.454-.619-.202-1.109-.581-1.469-1.136a2.93 2.93 0 0 1-.459-1.345 2.95 2.95 0 0 1 .289-1.624c.208-.413.541-.767.997-1.062a2.73 2.73 0 0 1 .48-.253c.154-.061.385-.126.694-.196.156-.034.256-.065.299-.093s.067-.071.071-.13-.026-.148-.094-.267l.125-.081zm8.874.614l-2.039.542-.136.926c-.034.228-.037.392-.01.493.021.08.078.141.171.181s.268.036.527-.013l.038.144-1.658.441-.038-.144c.21-.097.339-.186.387-.265.099-.159.178-.451.237-.874l.7-4.827.136-.036 2.998 3.894c.241.313.436.506.584.579s.332.087.55.043l.038.144-2.078.553-.038-.144c.207-.066.339-.139.397-.218a.28.28 0 0 0 .053-.247c-.03-.114-.13-.28-.299-.499l-.52-.673zm-.185-.258l-1.459-1.891-.351 2.372 1.81-.481zm9.621-.028l.131.033-.523 1.46-4.216-.164.006-.149.205.008c.23.009.398-.06.503-.206.06-.083.095-.28.107-.591l.137-3.514c.013-.34-.016-.554-.088-.643-.1-.122-.253-.187-.459-.195l-.205-.008.006-.149 2.466.096-.006.149c-.289-.014-.493.005-.612.057a.49.49 0 0 0-.247.204c-.046.084-.076.288-.088.612l-.133 3.421c-.009.222.007.376.046.46.03.057.078.101.144.13s.274.051.625.065l.398.015c.418.016.712-.003.883-.058s.329-.158.475-.309.294-.393.446-.725zm7.257 1.942l.117.068-.907 1.258-4.006-1.325.047-.141.195.064c.219.072.399.053.54-.058.08-.064.169-.243.267-.538l1.104-3.339c.107-.323.138-.537.094-.642-.062-.145-.191-.249-.387-.314l-.195-.064.047-.141 2.343.775-.047.141c-.274-.093-.475-.132-.603-.115s-.226.059-.294.127-.152.256-.254.564l-1.075 3.251c-.07.211-.097.363-.083.455.013.064.047.119.102.165s.249.125.583.235l.378.125c.397.131.685.194.865.189s.36-.061.542-.166.391-.296.63-.573zm5.849 3.097l-1.722-1.219-.799.488c-.197.12-.325.223-.385.308-.048.068-.058.15-.03.247s.144.229.347.396l-.086.121-1.401-.991.086-.121c.209.099.36.141.451.127.186-.026.46-.152.823-.377l4.156-2.553.115.081-1.071 4.796c-.086.386-.109.659-.07.819s.145.311.319.45l-.086.121-1.755-1.242.086-.121c.183.117.324.172.422.166a.28.28 0 0 0 .224-.118c.068-.096.132-.279.192-.549l.184-.83zm.08-.308l.518-2.332-2.046 1.25 1.529 1.082zm6.463 1.191l.881 1.188-1.3 5.11 2.525-1.871c.269-.199.415-.354.437-.464.031-.147-.017-.306-.144-.478l-.112-.152.119-.089 1.13 1.524-.119.089-.115-.155c-.137-.185-.29-.275-.46-.269-.104.004-.279.096-.524.278l-3.69 2.735-.086-.116 1.386-5.5-2.696 1.998c-.269.199-.415.353-.439.46-.03.149.018.308.144.478l.115.155-.119.089-1.129-1.524.119-.089.112.152c.139.187.293.278.462.273.104-.004.279-.096.524-.278l3.045-2.257c.054-.237.081-.406.08-.507s-.029-.23-.082-.387a1.28 1.28 0 0 0-.182-.306l.119-.089zm6.871 12.662l-1.185.483-.051-.144c.202-.103.34-.194.414-.275.119-.13.19-.273.213-.427s-.002-.338-.077-.55l-.256-.724-3.925 1.389c-.316.112-.501.216-.555.311-.072.134-.073.3-.002.5l.063.178-.14.05-.771-2.178.14-.05.064.182c.077.217.197.348.361.393.1.027.295-.01.583-.112l3.925-1.389-.218-.618c-.085-.24-.163-.404-.234-.493-.094-.114-.226-.194-.396-.239s-.374-.036-.612.029l-.051-.144 1.226-.366 1.484 4.194zm-4.314 9.666l-.076-1.453 2.449-1.974-.025-.333-.004-.112v-.125l-1.581.082c-.342.018-.553.066-.632.146-.112.108-.163.263-.153.467l.011.213-.148.008-.121-2.332.148-.008.011.205c.012.23.095.391.25.482.086.052.284.07.594.054l3.516-.183c.342-.018.553-.066.632-.146.112-.11.163-.269.152-.475l-.011-.205.148-.008.103 1.983c.03.578.01 1.006-.06 1.285a1.47 1.47 0 0 1-.429.723c-.216.204-.481.313-.794.329a1.27 1.27 0 0 1-.888-.282c-.257-.205-.449-.534-.574-.986l-1.503 1.205c-.345.275-.572.509-.68.699s-.171.435-.187.734l-.148.008zm2.596-4.01l.005.133.003.092c.027.519.16.905.398 1.156a1.08 1.08 0 0 0 .879.351c.34-.018.611-.138.812-.362s.293-.511.275-.861c-.008-.155-.044-.364-.109-.626l-2.263.118zm1.494 11.21l-.482 1.839-.144-.038.026-.101c.018-.067.014-.174-.012-.319a1.19 1.19 0 0 0-.164-.421c-.084-.135-.231-.314-.441-.535l-1.668-1.796-1.322-.347c-.324-.085-.536-.102-.635-.05-.135.07-.23.211-.286.424l-.045.171-.144-.038.587-2.239.144.038-.049.187c-.059.223-.033.399.078.527.068.079.25.157.545.234l1.248.327 2.587-.867.577-.22c.081-.044.192-.15.333-.318.04-.045.072-.117.098-.215l.144.038-.592 2.255-.144-.038.031-.117c.032-.122.033-.241.003-.359s-.102-.191-.216-.221c-.093-.025-.282.01-.568.105l-1.987.654 1.354 1.46c.203.219.364.345.483.376a.36.36 0 0 0 .209-.005.39.39 0 0 0 .176-.126.79.79 0 0 0 .131-.302l.144.038z"/><g fill="#96877d" stroke="#000" stroke-width=".203"><path d="M122.85 110.19c.532-.135 1.409-.026 1.409-.026s.077.365-.154.487c.256.147 1.179.102 1.179.102l-.538.384c.333.032.743.461.743.461s-.769.128-1.102-.051c.205.41.179.769.179.769s-1.243-.307-1.691-1.127m-2.105-1.699c-.301.743-2.511-.641-2.511-.641s.974 1.544 2.434 1.717M93.181 123.66h25.877l1.998-1.588-3.331-1.793-5.124-1.742-2.05-1.127-3.792.205-3.177 1.691-4.356.512-1.025 1.179-3.228.256-5.073-.102 8.455 1.332-6.969-.359 1.793 1.537z"/><path d="M107.12 116.23c-3.241-1.742-4.189 2.549-5.585 3.587 1.883.32 3.305-1.448 4.919-2.306 1.224 3.333 3.151 1.127 3.151 1.127s2.011 3.19 4.689 1.742c.73.551 1.537.051 1.537.051s.974.179 1.179-.256c.512.179 1.076-.461 1.076-.461s1.115.013 1.332-.564c1.653.295 3.843-3.382 3.843-3.382l.666-1.281.974-.205s.064-.641-.461-.615c-.013-.384-.346-.589-.82-.512.09-.231-.256-.41-.256-.41-.922.231-.974 2.562-.974 2.562l-2.203 1.537c-.026-1.332-2.255-3.139-1.793-3.997s1.909 1.32 3.177.922 1.891-2.047 1.947-3.331c-.359-.871-1.23-2.306-1.23-2.306l-.82-.051-.717-1.742s-1.512.986-1.486 1.845 1.588 1.588 1.588 1.588-.901.563-1.742.307c-.077.871 1.025.705 1.435.717.205.628.82.974.82.974s.384.961-.615.871-2.178-2.392-3.587-1.332c-1.499 1.127.666 3.177.666 3.177s-1.32.692-2.101 2.46c-3.19-2.69-5.06-1.435-8.609-.717z"/><path d="M102.46 111.67c1.332 1.255.403 3.342.922 3.741.551.423 1.332-.205 1.332-.205 1.396.372 3.894-.41 3.894-.41 1.099.615.665-.292 1.332-.256.589 1.512 2.562 1.23 2.562 1.23s-1.806-1.845-2.921-2.357c-.858.512-3.356.589-3.792.512-.485-.086-.179-.679-.41-1.025.918-.894.192-3.113-.307-3.946-2.036-1.356-4.468.968-2.613 2.716zm-8.861-3.75c-1.676.453-4.584-2.165-5.942-1.159s-.725 3.478.181 4.71c.885 1.204-1.295 1.64-1.884 2.355-.554.673.181 1.449.181 1.449l.616.399-.109.906.326 1.087s.299.263.399-.073c.281.281.03 1.093.725 1.196-.249-.52.181-1.957.181-1.957s1.214.091 1.522-.435-.29-1.667-.29-1.667h.362c-.408-.281-.543-1.123-.543-1.123s1.685-.534 1.667-1.812-2.736-2.636-1.739-3.297c1.105-.734 3.025 1.902 4.674.688 1.632-1.201.58-.036.58-.036s.746-1.678-.906-1.232zm8.651-17.949c-2.242-.935-6.822-.993-9.377-2.255-1.121.07-1.621.954-1.665 1.307-1.172-.058-1.966 1.787-1.793 2.152-2.133-.865-3.126 2.511-2.434 3.203-1.819.077-1.595 2.402-1.768 3.049-.583 1.416.13 1.892 1.281 1.383.173.615-.069.959-.589 1.076 3.157 3.613 4.942-2.224 7.712-2.203 3.458-1.012 4.817-2.716 4.817-2.716l1.358.179 2.46-5.175z"/><circle cx="105.145" cy="87.384" r="3.305"/><path d="M99.33 113.41c-2.05-.372-5.444-2.498-5.79-5.278 1.909-7.494 11.755-3.581 12.604-9.217-.216-3.719.45-7.4 2.512-10.511.961-1.217 2.203-1.537 2.203-1.537s.223.794-.102 1.332c1.627-.179 3.856.73 5.38.82.448.91.41 1.243.307 1.793s-.717.41-.717.41c-.398.377-.876.761-1.947.564-.807.615-2.511.769-2.511.769s3.561 3.754 2.972 4.919c.743.346 1.845 1.998 1.845 1.998s2.434-1.281 3.228-2.46c1.409 0 3.715 1.473 4.868 1.64l2.818 2.306s-1.678 1.102-2.408-.359c-.884.077-2.793-2.037-5.432-1.383-.077 2.344-2.665 3.997-2.665 3.997s2.415-.338 3.741.461c1.371 1.153 3.382 2.716 3.382 2.716l1.793 3.075s-1.64.282-2.255-1.845c-.615 1.717-.641-1.063-3.075-2.357-.743.09-1.115.141-1.742-.359-1.755.474-3.83 1.499-6.303 1.23-1.755.551-3.036 2.011-4.817 2.818s-2.306.41-2.306.41l-1.435.051c-.207.864-.09 2.178-.871 2.408.5.538-.359 2.831-1.23 3.228.41 1.473 1.611 1.924 2.87 2.665 0 0 1.115-.512 1.845.154s1.486 2.562 1.486 2.562-1.52.103-1.998-.102-.525-.705-1.076-.564c-3.472-3.087-5.302-1.859-5.637-2.562-.343-.72.82-2.6.461-3.792z"/><path d="M90.99 99.655c.181-.226 1.449.254 1.449.254l2.319 1.449 4.71 3.044 1.667 2.428-3.007-.978-4.167-3.587-2.246-1.449s-.906-.933-.725-1.159zm27.86 7.715c-1.627-.41-5.637 4.458-5.637 4.458l3.023 3.279s.09-5.585 2.613-7.737z"/><path d="M99.023 93.789c-.887 1.137-.967 3.429.188 4.353.109 1.391 1.291 4.197 2.221 4.46 1.015.288 5.073 1.23 6.661.974-.304 2.575 1.716 4.641 3.587 5.995-.014.231-.017.513.199.799.209.277 1.192.327 1.236.175.436.613 2.547.882 2.7.609.149-.266-3.106-2.531-3.828-3.222-.613-1.144-1.775-3.694-2.05-5.739-1.597-1.9-4.34-1.862-4.34-1.862l.086-3.723.154-4.202-1.486-.769s.3-.137.461-.307c.361.155 1.039-.57 1.127-.775.342.121.651.12.711-.063.053-.161.114-.879.239-1.251 1.121-.987-.164-3.08-1.878-3.114-1.696-.034-2.076 2.023-2.044 2.18.159.646.125.971 0 1.127s-.717.512-.717.512-.948-.448-2.101 0-2.447 1.05-2.511 1.793c-.525.077-1.383.756-1.537 1.332-.461-.09-1.063.295-2.05 1.896-1.768.781-1.87 4.561-1.87 4.561s-.477.695-.5 1.063.167.705.397.641c.026.243.346.461.487.384.051.243.403.38.615.346.019.167.701.125.756-.026.06-.166-.067-.997.013-1.063.074-.061.641.372.794.256s-.029-.484-.115-.628c-.077-.128-.564-.269-.679-.871s.307-1.435.307-1.435 1.922-1.512 2.139-2.805c1.448.141 2.213-1.124 2.626-1.601z"/><path d="M95.679 88.37c.439-1.073 2.024-.974 2.024-.974s.567-1.492 2.703-.602c.804-.621 2.921.269 2.921.269s.793-1.056 1.832-.935c1.925.224 2.245 1.989 2.126 2.293-1.054.266-2.879-.856-4.266-.538-.81.458-2.123.942-2.613 1.601-1.284.135-2.655-1.182-4.727-1.115zm4.01 1.781c.48-.295 1.659-.813 2.46-.179.839.903 2.126 1.742 2.126 1.742l1.46.615.666.41-.436 6.687c-1.352-1.383-2.619-1.625-3.587-3.254-.519-.698-.122-2.376-1.025-3.484s-1.864-1.858-1.665-2.537z"/><path d="M103.2 92.082s.765-.145.978.036c.267.091.525.168.598.399.29.086.489.236.489.453.272.072.38.562.38.562l-.254.38s-.29-.272-.326-.562c-.183-.09-.589-.186-.688-.453-.317-.032-.521-.195-.58-.471-.294.068-.598-.344-.598-.344z"/><path d="M109.68 87.717c-.436-.487-1.204-.128-1.204-.128l-2.05 3.536-.897.743-.077 2.767.743 2.588-.256 1.998s1.032-.968 1.153-1.512c.115-.519-.384-2.203-.384-2.203s-.615-1.05.128-2.998 2.434-3.561 2.844-4.791z"/><path d="M114.74 90.868s-3.2 4.573-8.44 6.2c-1.448.346-.922-3.382-.922-3.382l-.359.102s-.807 3.651 1.127 3.689c5.265-1.038 9.216-6.581 9.216-6.581l-.63-.028zm2.17 26.292s-.487.359-1.127 0c-.333-.769-1.23-.82-1.23-.82s-.578-1.659-1.486-1.179c-.141-.858-1.127-.41-1.127-.41s-.026-1.243-1.179-1.076c.384-1.422-1.588-1.332-1.588-1.332s-.064-1.601-2.972-1.281c6.264-2.805 11.222 4.407 11.222 4.407m2.457 2.301s1.448 1.627 2.203 1.64.82-1.588.82-1.588.243.692.615.512c-.038.487.461.615.461.615s-1.307 3.036-5.022.154m-10.407-.713l-.512 2.101s-.653.589-.461.717 1.23-.205 1.23-.205 1.614-.192 2.101-.666c.333.756 1.076.82 1.076.82s.051-.32-.051-.512c.359.064.666-.051.666-.051s.205-.589-.256-.82c.051-.436.269-.82-.512-.769-.576.615-1.998 1.32-2.357 1.076s1.409-1.025.922-2.05"/></g></svg>