<svg xmlns="http://www.w3.org/2000/svg" xmlns:xlink="http://www.w3.org/1999/xlink" width="640" height="320" xmlns:v="https://vecta.io/nano"><style><![CDATA[.B{fill:#d4af3a}.C{fill:#b96b29}.D{fill:#1d5e91}]]></style><path fill="#d3ae3b" d="M0 0h640v320H0z"/><path fill="#c40308" d="M16 16h608v288H16z"/><path d="M389.64 157.4c1.874-.529 8.39-2.433 12.981-6.158s5.487-6.711 5.858-8.323.527-2.88-.66-1.955-4.749 3.725-7.176 5.073-4.672 1.982-5.991 2.353-2.375.606-1.107.104 5.409-1.956 8.602-5.152 5.714-7.988 5.768-10.93-.157-2.732-1.103-1.996-4.308 4.886-6.198 6.461-4.938 3.678-6.461 4.57-3.677 1.892-.683-.157 8.666-6.881 10.979-13.132 1.89-9.927 1.838-10.558-.578-1.891-1.103-.734-4.309 8.719-7.354 11.975-2.312 2.627-2.995 3.152-1.839 1.471-.366-.369 4.517-6.093 6.094-10.294 1.995-8.406 2.047-10.822-.997-5.777-1.471-6.774-.945-1.734-1.104-.58-2.573 8.615-3.887 12.239-3.938 7.723-4.465 8.511-1.89 2.416-.42-.315 4.307-10.769 4.676-18.385-.683-11.819-1.734-13.92-1.96-2.847-1.96-2.847.18 5.2-1.372 12.67-3.819 11.415-3.819 11.415-.954 1.076-.3-.717c.443-1.206 1.354-3.86 1.771-8.358.439-4.719.491-10.088-.887-14.659-1.5-4.978-4.104-7.523-4.104-7.523-.726 7.142-.582 16.344-3.199 23.803-.49-.438-1.138-1.248-1.396.401-.478 2.451-1.433 7.053-4.654 12.91s-4.535 6.634-4.535 6.634-.597-1.435-1.016-2.211-.656-1.196-1.194-.12-2.326 5.2-6.266 9.742-6.146 6.753-6.026 10.159 1.909 5.141 4.296 6.694 2.807 2.39 2.447 4.243-2.507 2.51-4.355 2.57-4.179-.12-5.014.358-.895 1.673-1.731 2.509-1.192 1.314-1.969 1.436c-.273.042-.495.067-.667.086-.172-8.985 3.31-12.991 3.31-12.991l-9.731-11.433a34.41 34.41 0 0 1-1.509.696c-.068-.132-.162-.276-.285-.432-1.295-1.654-1.719-3.056-1.719-5.176.484.048 1.455.398 2.337.221s.22-1.061-.044-1.901-.53-3.76-.354-4.866l.264-1.549s1.413 1.549 2.294 1.549.794-.884.927-1.858c.199-1.467.889-3.319 2.028-4.335 0 0 1.543 1.063 3.309 1.063s4.144-.487 6.04-2.3 1.853-2.256 1.853-2.256 3.527 1.238 6.218 1.372 5.557-.311 6.924-3.141-.398-5.44-.705-5.883-1.191-.797-1.191 0 .045 2.919-1.588 3.981-2.91 1.016-4.454.53-3.704-1.106-6.174-.752c-2.215.317-2.515.492-2.553.525.115-.118 2.126-2.18 4.096-2.781 2.029-.619 3.221.221 3.882 1.017s1.234 2.08 1.764.221.221-3.98-.661-5.352-2.778-2.256-4.763-2.034-2.689.53-2.689.53-1.016-2.874-3.573-3.405c-3.12-.648-6.562.525-9.261 2.034 0 0-2.117.488-4.277-.132-1.415-.406-2.83-1.267-3.639-1.811l.73-2.354s.618-.188 1.264-.431.512-.458.593-.996-1.214-1.475-1.214-1.475-.187-1.617 1.94-2.726 1.895-.924 1.895-.924 1.247.231 1.756-.139.508-.601.508-.601.942-.309 1.288-.877.409-1.387.156-2.049-.567-.789-.219-1.105.66-1.072.691-1.608l.032-.662s.723-.254.69-1.357-.629-1.547-.976-1.642-.564-.094-.564-.094-.063-.663-.629-1.545-.944-1.262-.944-1.262.408-.313.188-1.039-.724-1.167-1.227-1.327-1.037 0-1.037 0-1.667-1.009-2.453-1.419l-.976-.504s-.031-.694-.314-1.073-.944-.537-1.29-.537-.723.19-.723.19-2.832-.727-3.995-.916-1.228-.284-1.228-.284-2.515-1.199-3.489-1.388-1.258-.283-1.258-.283 1.018-1.232 1.08-2.651-.879-2.759-1.885-3.358c-.568-.337-.873-.393-1.058-.509l-.021-.977 1.89.19.156-3.042-1.84.233.282-1.831-3.856-.044.282 1.83-1.855-.127.157 2.998 1.951-.252-.189 1.134s-.714.121-1.319.567c-1.006.6-1.857 1.768-1.794 3.188s.911 2.682.911 2.682-.251.063-1.226.251-3.492 1.388-3.492 1.388-.063.094-1.227.284-3.994.916-3.994.916-.377-.19-.724-.19-1.006.158-1.289.537-.314 1.073-.314 1.073l-.976.504c-.787.41-2.453 1.419-2.453 1.419s-.536-.157-1.039 0-1.006.601-1.226 1.327.188 1.039.188 1.039-.378.378-.944 1.262-.628 1.545-.628 1.545-.221 0-.566.094-.944.537-.975 1.642.692 1.357.692 1.357 0 .125.031.662.347 1.293.692 1.608.032.442-.22 1.105-.189 1.482.157 2.049 1.287.877 1.287.877 0 .231.508.601 1.756.139 1.756.139-.23-.185 1.895.924 1.94 2.726 1.94 2.726-1.294.938-1.213 1.475-.054.754.592.996 1.265.431 1.265.431l.729 2.354c-.809.544-2.223 1.405-3.637 1.811-2.161.62-4.279.132-4.279.132-2.697-1.509-6.139-2.682-9.26-2.034-2.558.531-3.573 3.405-3.573 3.405s-.705-.309-2.689-.53-3.881.663-4.764 2.034-1.19 3.495-.661 5.352 1.103.575 1.764-.221 1.853-1.636 3.881-1.017c1.97.601 3.981 2.663 4.096 2.781-.039-.033-.337-.208-2.553-.525-2.469-.354-4.63.266-6.173.752s-2.822.531-4.454-.53-1.588-3.185-1.588-3.981-.882-.443-1.19 0-2.073 3.053-.706 5.883 4.233 3.273 6.923 3.141 6.218-1.372 6.218-1.372-.043.443 1.853 2.256 4.277 2.3 6.042 2.3 3.307-1.063 3.307-1.063c1.139 1.017 1.831 2.869 2.029 4.335.132.974.045 1.858.927 1.858s2.293-1.549 2.293-1.549a47.72 47.72 0 0 0 .264 1.549c.176 1.106-.088 4.024-.353 4.866s-.926 1.725-.043 1.901 1.852-.173 2.337-.221c0 2.12-.425 3.522-1.72 5.176-.114.146-.204.281-.272.407a35.92 35.92 0 0 1-1.446-.671l-9.731 11.433s3.498 4.025 3.309 13.059v-.063c-.177-.017-.413-.045-.708-.09-.777-.121-1.134-.598-1.97-1.436s-.895-2.03-1.73-2.509-3.163-.299-5.013-.358-3.998-.717-4.357-2.57.061-2.688 2.447-4.243 4.177-3.287 4.297-6.694-2.088-5.618-6.027-10.159-5.729-8.666-6.266-9.742-.776-.657-1.194.12-1.014 2.211-1.014 2.211-1.313-.777-4.535-6.634-4.178-10.458-4.655-12.91c-.259-1.649-.908-.838-1.396-.401-2.62-7.459-2.475-16.662-3.2-23.803 0 0-2.604 2.545-4.104 7.523-1.377 4.57-1.325 9.94-.886 14.659.417 4.498 1.327 7.153 1.769 8.358.656 1.793-.298.717-.298.717s-2.268-3.944-3.819-11.415-1.373-12.67-1.373-12.67-.909.745-1.96 2.847-2.1 6.303-1.733 13.92 3.205 15.653 4.676 18.385.105 1.103-.421.315-3.151-4.885-4.465-8.511-3.729-11.083-3.887-12.239-.63-.42-1.104.58-1.523 4.359-1.471 6.774.473 6.619 2.049 10.822 4.622 8.457 6.093 10.294.315.894-.368.369.053.104-2.994-3.152-6.829-10.821-7.354-11.975-1.051.104-1.104.734-.473 4.307 1.839 10.558 7.984 11.085 10.979 13.132.84 1.051-.683.157-4.57-2.993-6.461-4.57-5.253-5.726-6.198-6.461-1.155-.946-1.103 1.996 2.575 7.732 5.768 10.93 7.334 4.651 8.602 5.152.211.264-1.109-.104-3.561-1.006-5.989-2.353-5.989-4.15-7.177-5.073-1.029.343-.66 1.955 1.267 4.598 5.857 8.323 11.108 5.629 12.981 6.158.554.527.554.527-.739-.104-4.538-.952-9.552-3.856-11.109-4.834-1.793-1.348-1.583.713 2.402 6.474 5.911 8.535 9.842 3.119 11.478 3.197 1.214.317.475.369-2.56.053-5.541-.289c-2.444-.282-6.074-1.469-7.305-1.889a22.23 22.23 0 0 1-.323-1.35c-.145-.785-.551-.669-.813-.493s-.407.318-1.276.755-.901-.086-.93-.348-.203-1.399-.232-1.979-.349-.613-.754-.438l-3.077 1.312c-.726.319-.058.901.319 1.599l.958 1.719-2.41.641c-.58.146-.406.554-.261.962s1.045 2.445 1.277 3.027.755.233.755.233l1.828-1.077.638 2.444c-.031.039-.845.194-1.77.843s-.693 1.483.416 1.808 2.403.881 3.835 3.476 1.802 7.276 2.68 14.647 5.591 11.122 6.238 11.586.277.834.277.834-.647.929-.369 2.365 1.524 2.271 2.171 2.502.462.88.462.88-.324 1.575 0 4.45 2.68 6.117 3.327 6.674.693.834.601 1.066-.509.047-1.294.648-1.664 1.437-2.217 2.456-.37 1.623-.186 3.014 2.218 2.642 2.218 2.642-.37.093-.461 1.112.646 2.178 1.571 2.919 2.68 1.113 2.68 1.113l.231 1.482c.092.604 1.248 1.204 1.987 1.622s2.171.186 2.772-.093 1.016.047 1.385.648.232 2.92.232 3.848-.555 1.9-.232 2.364 1.202.138 2.08-.371 1.109-.139 1.895.371 2.033.974 2.357.927.185-.881.185-1.576.125-2.268.448-2.5c.153-.11 1.513-.211 2.555-.652.485-.204 1.109-.416 1.155-.88s-.647-.463-2.171-1.251-1.802-1.253-2.772-1.901-.508-.88-.508-1.158.461-.602.646-.973.092-1.204.092-1.204.786-.788 1.155-1.206.832-1.067 1.34-1.483 1.293-2.409 1.802-3.059 1.664-1.344 2.356-2.225 2.542-2.317 3.605-3.013 3.927-2.04 3.927-2.04-.046 1.715.693 2.549 1.709-.647 4.99-2.966 5.776-3.151 5.776-3.151.693 1.065 1.57 2.178 1.664-.047 5.684-5.607c3.171-4.388 7.348-8.399 8.97-9.898l.89.402-.244.721c-.369 1.152-.967 1.89-1.75 3.5s-1.979 1.979-3.361 4.145-1.565 3.636-1.704 5.847 1.105 2.671 1.105 2.671-2.026 1.979-2.625 3.453-.921 4.467-.921 4.467-.323.137-1.059 1.657-2.073 1.749-4.006 3.684-4.098 2.763-5.111 3.359-.737 1.198-.46 1.981 1.657 1.565 3.269 2.164 2.164.368 3.27.322.23.829-.23 1.288-1.059 2.072-.967 3.868 1.428 1.381 3.086 1.105 3.591-1.105 3.591-1.105l-.184.508c-.184.506-.276.873-.276 2.303s.23 2.117.645 2.484 1.244-.413 1.842-.597 1.612-.783 3.085-1.105 2.025-.967 2.025-.967-.368.459-.46 1.473-.046 2.532.185 3.408.874 1.933 1.887 2.854 1.243.507 1.979-.644 2.256-2.626 2.256-2.626.092.369 1.105 3.638 4.328 5.986 4.328 5.986 3.315-2.717 4.328-5.986l1.104-3.638s1.521 1.474 2.257 2.626.968 1.565 1.98.644 1.657-1.98 1.888-2.854.276-2.395.186-3.408-.462-1.473-.462-1.473.553.644 2.026.967 2.486.919 3.084 1.105 1.429.966 1.843.597.645-1.058.645-2.484-.092-1.797-.276-2.303l-.185-.508s1.935.83 3.592 1.105 2.992.691 3.086-1.105-.508-3.406-.968-3.868-1.335-1.333-.23-1.288 1.657.275 3.269-.322 2.993-1.382 3.27-2.164.553-1.381-.46-1.981-3.178-1.426-5.111-3.359-3.27-2.163-4.007-3.684-1.057-1.657-1.057-1.657-.324-2.994-.922-4.467-2.625-3.453-2.625-3.453 1.244-.461 1.105-2.671-.321-3.683-1.703-5.847-2.58-2.533-3.363-4.145-1.381-2.348-1.749-3.5c-.073-.232-.153-.464-.235-.696l1.188-.521c1.611 1.485 5.806 5.51 8.987 9.911 4.021 5.563 4.807 6.722 5.685 5.608s1.57-2.177 1.57-2.177 2.495.833 5.776 3.15 4.251 3.801 4.989 2.967c.391-.439.478-1.168.525-1.727a90.99 90.99 0 0 0 4.044 1.307 69.7 69.7 0 0 1 3.801 1.477c2.842 1.203 3.15 1.822 5.411 3.608s5.48 1.614 8.529.686 11.167-3.605 14.42-5.014 5.584-2.646 5.927-3.3.718-2.474.718-3.125-.718-1.614-.959-1.787-.135-.688-.068-1.099-.136-1.649-.649-2.2-.445-.754-.377-2.337c.145-3.351-2.247-7.576-5.636-8.921 0 0-.091-.39-.366-.62s-.73-.435-.73-.435.067-1.927.045-2.341.16-.365.391-.252.593.574 1.142.712.892-.254 1.007-.872.571-1.858.777-2.478-.047-.711-.298-.779-1.074-.16-1.464-.254-.388-.114-.297-.32.229-.526.731-1.308.047-.803-.435-.962-2.651-.826-3.246-.919-.733.413-.733.665a54.99 54.99 0 0 0 .046 1.767c.023.413-.365.298-.594.184s-.755-.437-1.166-.758-.709-.022-.87.437-.662 2.341-.822 2.891-.115.986.114 1.077 1.303 0 1.944 0 .273.368.273.368-.686 1.124-.915 1.559-.617.506-1.143.506-1.408-.007-1.408-.007-3.514.132-6.101 2.056-3.315 3.514-3.713 4.441-.861.729-1.261 1.062-1.524 1.526-1.524 2.256.265 1.126-.861 1.855-2.057 3.913-.531 5.571 2.122 3.313 2.587 4.11 0 1.127-.399 1.127-1.228-.676-1.922-1.194l-5.702-4.375c-1.507-1.124-.398-.995-.398-.995s.383.035 1.262-.335 1.017-.833.137-1.112-2.587-1.251-3.048-1.715-.693-.973.185-1.437 2.818-1.715 1.294-2.132-3.328-.741-4.807-1.159-1.618-.834-1.618-.834l.972-1.391s.785-1.111-.139-1.251-3.142-.417-5.175-1.299c-4.061-1.759-6.605-4.742-7.548-8.383l.067-.088c.759 1.501 2.525 4.306 5.188 4.393 3.64.12 4.057-1.017 3.222-2.212s-1.79-2.271-2.028-2.629-.3-.838.655.06 2.773 3.944 8.264 3.586 5.462-1.435 5.462-1.733c0-1.054-1.118-1.221-1.777-1.882-.344-.345-.553-.846.555-.423s3.824.924 7.52.131c1.458-.311 5.324-1.999 5.698-3.962 0 0-2.454-.134-4.168-.873s-2.745-1.347-.924-.977 5.357 1.108 8.47.053c1.819-.618 4.17-2.09 4.169-4.783 0 0-3.377-.713-4.617-1.163s-1.636-.792-1.636-.792 4.826 1.531 9.208-.688 4.564-5.257 4.564-5.971-.105-.926-.105-.926-3.984.979-6.965.952-3.906-.291-3.906-.291 8.339-.238 12.533-2.801 4.434-7.611 4.434-7.611-4.751 1.691-7.731 2.036-4.803.342-5.541.289-1.16-.289.475-.369 7.968-1.137 11.478-3.197 5.699-6.476 5.911-8.535-.026-1.691-1.584-.713-7.308 3.989-11.107 4.834l-4.538.952s-1.46-.07.42-.59zm-150.1 9.58l-1.683.96-.842-1.775c-.174-.408-.087-.583.144-.583s.93-.203 1.481-.261c.079-.009.151-.021.215-.036.184.525.426 1.094.744 1.665-.02.02-.04.03-.06.04zm51.18 29.97c-1.017 1.902-3.789 3.895-5.822 4.775s-4.251 1.159-5.175 1.297-.139 1.252-.139 1.252l.97 1.392s-.138.416-1.617.834-3.28.74-4.805 1.158.416 1.668 1.293 2.133.647.973.185 1.436-2.171 1.437-3.049 1.715-.74.743.138 1.113 3.281.833 3.281.833-.046.093-1.524 1.206-4.067 1.854-5.776 1.946a76.73 76.73 0 0 1-7.841.046c-3.427-.156-3.821-.235-3.821-.235s-.118-1.144-.355-2.838-1.26-4.097-2.048-5.199-2.442-3.31-2.442-3.31.039-.473.157-1.024.039-1.143-.361-2.184-2.403-2.563-2.403-2.563-.081-1.121-.081-2.163-.72-5.126-1.362-7.048-3.764-6.968-5.206-9.371-2.298-5.964-2.734-8.729-.261-3.668-.116-4.396c.064-.319.2-.609.328-.867a8.59 8.59 0 0 0 2.318 2.082c4.195 2.563 12.533 2.801 12.533 2.801s-.924.265-3.905.291-6.965-.952-6.965-.952-.106.212-.106.926.186 3.752 4.565 5.971 9.208.688 9.208.688-.396.343-1.636.792-4.617 1.163-4.617 1.163c0 2.693 2.351 4.165 4.168 4.783 3.114 1.056 6.649.316 8.471-.053s.792.235-.924.977-4.168.873-4.168.873c.376 1.963 4.242 3.651 5.699 3.962 3.694.793 6.411.292 7.52-.131s.897.078.554.423c-.659.661-1.777.828-1.777 1.882 0 .299-.028 1.375 5.462 1.733s7.308-2.688 8.263-3.586.895-.419.656-.06-1.193 1.434-2.028 2.629-.418 2.332 3.222 2.212c2.681-.088 4.455-2.932 5.204-4.424l.05.069.147.196c-.34.88-.93 2.32-1.58 3.54zM335 78.19c-.496-.945-.759-1.39-.759-1.39s2.068.97 3.299 2.361 1.203 2.127 1.387 2.811 0 1.942-.183 3.124-.184 1.891.053 2.311.445.63.445.63-.918.236-1.781.578-1.989.656-2.617.131-.785-.893-.392-1.234 1.857-.762 2.041-3.282-.99-5.094-1.49-6.04zm-11.28 6.857c.472-1.197.666-2.34.305-4.792-.303-2.061-.703-3.826-.805-6.047 0 0 1.528.335 3.723 2.341s2.695 4.068 2.695 5.072-.529 2.229-.612 3.205.277 1.839.277 1.839-.806.333-1.527.834-1.222.809-2.333.753-1.779-.557-2.418-.892-1.054-.39-1.054-.39 1.27-.724 1.74-1.923zm-10.7-8.498c2.195-2.005 3.722-2.341 3.722-2.341-.101 2.221-.501 3.986-.806 6.047-.36 2.452-.166 3.595.306 4.792s1.75 1.923 1.75 1.923-.416.056-1.056.39-1.305.836-2.417.892-1.611-.251-2.333-.753-1.528-.834-1.528-.834.361-.864.277-1.839-.61-2.202-.61-3.205c.01-1.004.51-3.066 2.7-5.072zm-7.91 12.197c-.629.525-1.754.211-2.619-.131s-1.78-.578-1.78-.578.209-.209.445-.63.236-1.129.052-2.311-.367-2.441-.183-3.124.157-1.418 1.387-2.811 3.299-2.361 3.299-2.361-.262.445-.759 1.39-1.676 3.519-1.492 6.041 1.65 2.939 2.042 3.282.23.708-.4 1.233zm29.24 21.078c-2.162 1.195-3.396.929-3.308 1.813s2.027 1.549 2.027 1.549-1.984 2.123-3.528 3.097-3.353 1.592-3.353 1.592-.616.089-.264 1.062.971 1.636 1.455 1.902.751.354.751.354-2.69 2.875-3.881 3.804-1.853 1.238-2.822 1.637-.484 1.99-.265 2.699 1.058 1.68 1.544 1.813.661.486.044 1.46c-.462.726-2.001 2.657-2.735 3.722l-.045.023c-.729-1.058-2.289-3.014-2.753-3.745-.617-.974-.441-1.327.044-1.46s1.324-1.106 1.544-1.813.705-2.301-.267-2.699-1.631-.708-2.821-1.637-3.881-3.804-3.881-3.804.265-.089.75-.354 1.103-.929 1.456-1.902-.265-1.062-.265-1.062-1.808-.619-3.352-1.592-3.528-3.097-3.528-3.097 1.94-.664 2.029-1.549-1.147-.619-3.308-1.813-2.867-2.698-2.867-2.698 2.514-.841 3.749-3.362c.437-.893.542-1.708.496-2.39l.095.032c4.014 1.307 8.706 1.83 12.9 1.83 4.187 0 8.877-.526 12.883-1.83l.095-.032c-.047.682.058 1.497.495 2.39 1.235 2.521 3.75 3.362 3.75 3.362s-.7 1.51-2.86 2.71z" class="C"/><path d="M347.47 158.5c0-6.785 3.122-11.076 3.122-11.076l-8.493-9.73c-8.089 3.127-15.5 3.317-22.098-.04-6.598 3.357-14.009 3.167-22.096.04l-8.496 9.73s3.123 4.291 3.123 11.076-1.312 11.82-2.079 15.103-1.422 9.411.329 13.79 3.611 8.207 11.162 11.381 11.491 4.814 14.117 7.004 3.94 3.938 3.94 3.938 1.313-1.752 3.94-3.938 6.565-3.83 14.117-7.004 9.411-7.005 11.162-11.381 1.094-10.507.328-13.79c-.76-3.28-2.07-8.31-2.07-15.1z" class="B"/><path d="M344.8 161.3c-1.065-6.481 2.671-12.189 2.671-12.189l-7.271-8.501c-5.602 3.147-13.398 2.724-20.174-.393-6.774 3.116-14.573 3.54-20.173.393l-7.271 8.501s3.736 5.708 2.669 12.189-3.363 16.736-2.789 20.919 3.528 9.024 6.563 11.567 7.547 4.677 10.745 5.825 6.318 3.363 7.795 4.512 2.46 2.134 2.46 2.134.985-.985 2.462-2.134 4.594-3.363 7.792-4.512 7.713-3.282 10.747-5.825 5.989-7.384 6.563-11.567c.57-4.2-1.73-14.45-2.8-20.93z" class="C"/><path d="M344.1 162.07c-1.053-6.998 2.104-12.635 2.104-12.635l-6.563-7.308c-5.547 2.849-12.289 2.113-19.634-.434-7.344 2.547-14.085 3.282-19.633.434l-6.564 7.308s3.159 5.637 2.106 12.635-2.663 14.924-2.354 19.57c.021.319.055.644.101.972h5.978s.346-.403 1.012-.687.854-.478.854-.478.127-1.207.855-1.461 1.045-.255 1.33-.255.507-.063.855-.413 1.297-1.206 1.709-2.413.666-1.684.666-2.478.285-2.063.285-2.063-.159-.381-.76-.158-.697-.381-.759-.985-.032-1.841.316-2.413l.475-.763-.254-.951s-3.799.761-4.463-2.192-.792-4.384-.887-4.699-.19-.479-.697-.445-1.583-.317-2.343-1.843-.823-2.159-.602-2.762.634-.381.76-.191 1.14 1.652 1.552 1.238.19-.413-.38-1.556-.38-1.523-.317-2.097-.189-1.334-.189-1.651.348-.571.696-.413.665.413.823.604.222.478.539.287.126-1.24.126-1.588.412-.604.919-.318.759.825.759 1.206.032.731.222.731.412-.572.443-.954.253-.952.602-.475.475 1.176.349 1.905.126.35-.127 1.62-.379 1.842-.348 2.795.063 1.492.538 2.668.854 2.539 1.741 2.571l1.14.031s.981-1.905 1.742-2.35 1.836-.509 2.596-.604 1.076-.318 1.076-.509-.253-.253-1.171-.381-1.677-.35-1.708-1.048.157-1.302-.444-1.333-2.089-.511-2.627-1.493-.412-1.208-.348-1.746.759-1.621 1.203-.604.729 1.143 1.108 1.365.886.287.634-.413-.412-1.142-.349-1.649.412-.73.824-.826 1.646-.478 2.279-.604.665-.189.665-.189.063-.445.886-.699 1.361-.285 1.963-.285 1.044.095 1.836-.287 1.424-.443 1.931-.412.887.223 1.267.476.253.604.253.953.063.54.601.54 1.015 0 1.521.19 1.204.476.76 1.016-.473 1.144-.76 1.112-.252.286-.38.477-.221.349.097.54.347.381.791.793 1.107.858.442 1.525-1.835 1.207-1.835 1.207-.666.316.094.763 1.109 1.365 1.394 1.523.57.413.76.508.158.73.158.73-.411.287-.981.509-1.172.477-1.709.477-.824 0-.602.508.602 1.049.696 1.333.222.795.222.795a9.42 9.42 0 0 0 1.678.189c.791 0 1.14.032 2.881-.158s2.249-.254 3.927-.064 1.93.128 2.374.286a9.03 9.03 0 0 1 .886.383s2.375-.033 3.673-.318 1.616-1.113 1.427-1.556-.16-1.111-2.439-1.43-3.197-.191-5.003-.541-4.623-1.27-5.128-3.524 1.329-3.207 2.248-3.651 2.912-1.144 3.831-1.524 2.597-.762 4.369-.509 2.785.73 3.482.318 1.267-.096 1.14.539-.823 1.938-2.818 2.541-4.399.667-5.698.318-2.279-.858-3.071-.573-1.678 1.271-.824 2.445 5.226 1.525 6.396 1.651 5.509-.19 6.744 1.969.252 4.573-1.203 5.114-2.691.89-3.799 1.048l-1.108.158s.506 1.144.506 1.621-.063 1.365.476 1.713 1.299.604 2.217.509 2.026.54 2.09 1.366.316 1.968.41 3.62 0 3.017 0 3.017-.063.636-.284 1.238-1.362 2.943-1.362 2.943h6.375c.046-.328.08-.652.102-.972.26-4.71-1.35-12.63-2.4-19.63z" class="D"/><path fill="#6d8c3e" d="M294.42 185.72c1.25 3.571 3.826 7.187 7.748 9.549 5.45 3.282 7.804 2.849 12.944 6.193s4.831 3.902 4.893 3.902-.248-.559 4.894-3.902 7.493-2.911 12.943-6.193c3.923-2.362 6.498-5.978 7.747-9.549h-51.158z"/><g class="B"><path d="M298.88 158.13c.585.615 1.017.802 1.91.71s1.109.555 1.263 1.263.154 2.372.801 3.912 2.803 1.633 2.803 1.633c.06-.743.319-1.742.647-2.557.058-.146.338-.833-.432-.833s-.739-.308-1.201-1.047-1.355-2.71-1.57-3.974.185-3.142.4-3.819.247-1.14 0-1.263-.739 0-.739 0 .185.585-.032.677-.4-.308-.553-.738-.339-.37-.647-.34-.308.309-.092.617.092.861.092.861-.678-.492-.955-.616-.924.124-.986.494.247 1.323.832 1.816.585 1.51.4 1.973-1.047.399-1.232.185-.554-.277-.801 0-.5.44.09 1.05zm-.34-1.63s-.339-.276-.462-.43l-.37-.495s-.062.154-.062.524.4.771.4.771l.49-.37zm1.29-4.28c.278-.123.493-.186.278-.493s-.401-.647-.617-.709-.4-.03-.4-.03.246.555.307.894.16.46.43.34zm1.61-1.3c-.031.277.031.401.277.277s.339-.462.215-.709-.4-.43-.4-.43l-.185-.125c-.02 0 .11.71.08.98zm2.3.37c.03-.308-.093-.646-.093-.646s0 .369-.154.586-.123.154.031.339.18.03.21-.28zm3.62 15.66c.453 1.05 1.604-.595 2.65-1.925s1.011-.313.871.77.279 2.24.698 2.975.767.313.94-.212.314-1.607.663-2.132.697-.07.732.384.592 1.47 1.115 2.063.767-.209.941-.943l.523-2.31c.139-.454.627-.069.627-.069l1.047 1.014c.695.666.766-.385.836-.907s-.105-1.68.104-1.856.801.246 1.709.702.872-.421.768-.911-.627-1.608-1.36-2.237-.836-1.364-.592-1.68 1.115-.035 1.672-.104l1.256-.208c.418-.071.418-.491.418-.491s-.313-.524-.906-1.048-.94-.944-1.673-1.12-1.743 0-1.743 0l-.105-.21c-.104-.209-.313-.209-.453 0s-.488.49-.768.734-.453.385-.627.279.139-.35.139-.35.384-.278.733-.979.453-1.365.174-1.679-1.046 0-1.464 0-.663.069-.697-.14.418-.104.941-.176.837-.699 1.011-1.224.314-.455.628-.14.594.245.662.034.349-.733.697-1.259.558-1.258.174-1.747-1.325-.422-1.708-.104-.627.628-.731 1.397-.314.349-.314.104-.314-.63-.175-.944 0-.665 0-.665-.069-.663-.802-.804-1.569.035-2.301.21-.593.806-.593.806l-1.151.104c-.592.069-1.29.313-1.848.453s-.767.21-.767.489.105.736.105.736.453 0 .697.139.104.385-.175.49-.383.14-.383.489.14.421.418.421.872 0 1.569.313.872.943.802 1.293-1.047.805-1.535.805-.627.106-.627.42.593.281.593.281l1.743.173c1.151.141 1.325.386 1.849.84s.139.56-.105.699-.628.455-1.011.596-.628.42-.977.488-1.221.036-2.824.666-2.162 2.729-2.162 2.729.209-.071.941-.457l2.476-1.328c.836-.523.836.246.418.979s.384.594.628.385.558-.42 1.359-.84.523.245.523.245-.244.489-.313 1.645 1.15.069 1.708-.665.802 0 .383.84-1.22 1.503-1.673 1.503-.802-.489-.837-.769.14-1.12-.139-1.329-1.082.035-1.674.384-.733.071-.872-.244.209-.42.07-.629-.453 0-.698.104-.802.42-1.882.979-1.011.873-1.011 1.678.2.99.65 2.04z"/><path d="M317.82 149.44c.227-.144.639-.309.639-.309l.988-.186c.473-.062.391-.33.287-.555s-.287-.31-.903-.31-1.011.31-1.36.452-.762.248-.762.248.083.103.309.433c.22.35.57.39.79.24zm2.52 2.5c.247 0 .515-.145.515-.145s.451-.227.865-.37.576-.207.822-.701-.268-.494-.987-.678-1.071.06-1.152.328-.063.576-.351 1.092c-.29.51.04.47.29.47zm-.23.63c-.699 0-1.481 1.05-1.77 1.235s-.124.37-.124.37.206.433.287.844.104 1.113.104 1.113.103.042.514.042.659-.207 1.051-.495.7-.392 1.256-.495.823-.205 1.44-.534-.329-.906-.987-1.441c-.66-.51-1.07-.62-1.77-.62zm-9.31 2.42c.554-.062.801-.338.801-.646s-.28-.647-.986-.585c-1.735.154-3.417-.468-3.727-2.187 0 0-.585 1.076.493 2.279 1.09 1.2 2.87 1.2 3.43 1.14zm-5.91 27.32c.088.153.196.248.306.305h2.658c.453-.127.456-.544.478-.832.026-.343.289-1.317.657-3.084s.999-3.028 1.261-3.74-.263-.948-.447-1.397-.473-1.237-.552-1.632-.709-.343-1.051-.317-.395.58-.447 1.107-.289 2.081-.551 3.425-1.787 3.136-2.207 3.53-.762.554-1.051.554-.919 0-1.235.185-.629.686-.656 1.079.605.607.605.607.499-.29.683-.527.604-.29 1.024-.368.473.078.315.288c-.16.2-.11.25.21.81zm-4.07-.14c-.201.071-.348.271-.439.437h1.737c-.021-.142-.068-.311-.168-.437-.21-.26-.77-.13-1.13 0z"/><path d="M303.18 182.12c-.212.115-.468.303-.598.489h1.87c.066-.174.087-.407-.142-.594-.42-.35-.84-.06-1.13.1zm16.22-.77c-.204 0-.385.182-.679.385s-.383.521-.428.771c-.008.044-.003.079.011.108h.794c.031-.028.053-.064.053-.108 0-.228.09-.432.43-.726.35-.3.03-.43-.17-.43zm1.56.86c0-.248-.091-.475-.271-.452s-.474.34-.722.521c-.138.101-.241.235-.317.336h1.174c.07-.14.14-.29.14-.41zm7.22-8.63c.563-.408.474-.521.495-.951s.022-.566-.203-.724-1.06-.521-1.85-.521-2.281.181-2.845.565-.836 1.767-.836 2.49.113.838.316.838.542-.521.542-.521l1.196 1.654c.452.679.248.95.047 1.47s-.948 1.902-1.535 2.197-1.04.021-1.739-.09-1.084.09-1.49.497-.021.726.226.726.587-.023.858.316c.188.235.061.772-.034 1.082h3.459c.59-.262.997-1.072 1.156-1.514.182-.497.926-1.153 1.288-1.492s.406-.567.406-1.314-.203-1.177-.476-1.697-.474-1.269-.384-1.698c.06-.46.81-.93 1.37-1.34zm-5.69-8.63c.346.562.174.669-.323.776s-1.033.194-1.811.13-.755.043-.775.432-.088 1.208-.54 1.811-1.014.367-1.359.13-.539-.174-.668.258-.367.734-.733 1.38-.604.669-.863.604-.496-.453-.755-.475-.669-.538-1.057-1.165-.582.064-.84.605-.517.928-1.014.861-1.056-.991-1.336-1.552-.453-1.1-.884-1.079-1.143.928-1.618 1.164-.604.152-.819-.149-.496.108-.776.819.022 1.314.41 1.509 1.164-.367 1.682-.712.754-.258 1.294-.258.496.885.733 2.177.992 1.467.992 1.467.259.216.841-.775.646-1.963 1.208-1.963.604.129 1.164.905 1.035 1.358 1.358.776.604-1.445.971-1.746.711-.389.323.172-.561 1.164.237.928l5.067-1.703s1.444-.237 3.105-.323l2.717-.195c.646 0 .668-.065.712-.496s-.302-.345-1.51-.345-2.049.151-2.89.281-1.228.107-1.079-.108.389-.367 1.36-.517 2.954-.26 3.989-.281.711.302.624.992.087 1.704.152 2.351.085.841.646 1.746 2.5 1.467 3.062 1.769.475 0 .453-.54.431-.517.927-.237 1.315.519 1.897.67.668.258.668.56.065.971.131 1.597.042.818-.217 1.207-1.358 1.508-1.358 1.508-.496 0-1.553.261-1.381.755-1.488 1.186.195.561.238.733c.023.095.014.328.001.518h.244a5.51 5.51 0 0 1 .379-.562c.368-.474 1.296-.582 1.898-.302.396.185.401.599.359.863h2.415l1.302-2.589c.258-.581.409-.948.431-1.746l-.043-4.054c-.151-.173.043-.69 0-1.553s0-1.51-1.596-1.66-2.092-.818-2.631-1.359-.41-1.789-.84-3.298-1.488-1.747-3.364-2.114-3.257-.409-4.658-.279l-4.118.236c-.95-.12-.8.16-.45.72zm9.06 17.32c-.164.106-.273.232-.346.342h1.63c.008-.14-.015-.297-.16-.472-.24-.3-.72-.13-1.12.13zm2.92-.11a1.48 1.48 0 0 0-.541.452h1.653c.006-.063.004-.129-.009-.191-.05-.26-.55-.54-1.1-.26zm-40.72 1.03a15.92 15.92 0 0 0 .361 1.553h51.785a15.29 15.29 0 0 0 .36-1.553H293.75zm34.9-24.74c1.636 1.089 6.83 1.147 9.269 1.636s2.269 2.353 1.521 3.328-4.177 1.094-4.792 1.176c.332.23.832.947.832.947l1.406-.115c1.032-.085 2.841-.343 4.075-1.377s1.147-2.696.058-3.815-2.899-1.234-4.736-1.435l-5.337-.689c-2.065-.344-3.07-1.176-3.07-2.382s1.12-1.836 1.923-2.066 2.094-.572 3.242-.144 2.497.487 4.764.202 2.784-1.866 2.784-1.866-.288.144-1.435.172-1.981-.487-4.074-.518-2.843.72-3.818 1.063-3.586.604-4.361 2.296c-.77 1.7.12 2.5 1.76 3.59z"/></g><g class="C"><ellipse rx=".977" ry=".962" cy="150.64" cx="315.04"/><path d="M336.02 152.28c-1.293-.114-2.986.229-2.986.229s.315.259.746.23 1.206-.058 2.468.171 2.181-.373 2.181-.373l-2.41-.26z"/></g><path d="M323.74 176.38c-.316-.498-.407-.452-.77-.135s-.725-.771-.77-1.449.271-2.759.271-2.759l-2.714.678c-.949.317-1.854.408-2.623.59s-1.176.36-1.583.271-1.267-.136-1.945-.136-.632.136-1.312.814-.859 1.039-1.402 2.307-.724 2.441-.904 3.979c-.119 1.007-.314 1.702-.436 2.064h8.108l.333-.829c.212-.468.658-.765.977-.914s.596-.149.743-.508.553-.66.978-.851 1.168-.085 1.849.106.913-.276 1.103-.531.277-.616.639-1.082.09-.894.09-.894-.33-.22-.65-.72zm13.01.22c-.105-.468-.063-.53-.34-.596s-.743-.148-1.146-.317-.361.913-.361.913-.957.104-2.039-.021-2.357-1.104-2.804-1.424-.935-1.04-.935-1.04-.34.318-.68.51-.531.871-.594 1.551.786 1.507.849 2.187-.743 2.04-1.147 2.592c-.275.379-.632 1.186-.829 1.657h3.914c.082-.201.216-.455.42-.658.402-.404 1.084-.489 1.084-.489s0-.17.148-.53.552-.786 1.528-1.169 2.146-.446 2.146-.446.466-.382.807-.913.09-1.33-.02-1.8z" class="D"/><path d="M304.15 219.77c.729.243 2.091-.291 2.772-1.118s.924-2.093 1.41-2.821l.839-1.271s-.104 1.202-.749 2.813c-.615 1.536-.722 3.637-.576 4.537.292 1.799 1.459 2.091 2.14 1.847.517-.184 1.3-.981 2.019-2.177.227-.379.386-.903.608-1.324.462-.875.875-2.309 1.079-2.269.45.088.162 1.101-.008 1.782-.341 1.361-1.021 3.356-1.07 4.572s.098 3.404 1.313 3.502 1.848-.974 2.528-3.454.828-3.259 1.119-3.259.292 1.702.292 2.432c0 .251.01.942.109 1.637.189 1.329.577 2.925.961 3.276.583.535 1.07.437 1.07.437s.485.099 1.07-.437 1.069-4.184 1.069-4.913 0-2.432.291-2.432.438.779 1.119 3.259 1.313 3.551 2.529 3.454 1.363-2.286 1.314-3.502-.729-3.211-1.071-4.572.146-1.265 1.071.486l.88 1.685c.648 1.031 1.278 1.649 1.746 1.816.68.244 1.848-.048 2.14-1.847s-1.07-6.956-1.07-6.956l.584.876c.486.729.729 1.994 1.411 2.821s2.043 1.361 2.772 1.118.827-1.606.291-4.038-2.724-3.793-4.28-5.739c-1.432-1.788-2.535-4.936-2.701-5.429-1.959.97-3.677 2.071-5.229 3.692l-3.918 4.197s-.7-.839-3.918-4.197c-1.563-1.631-3.291-2.734-5.265-3.709-.182.415-1.52 3.421-2.966 5.23-.719.899-1.71 1.578-2.414 2.441-.818 1.003-1.316 2.206-1.604 3.513-.52 2.42-.42 3.78.31 4.03zm-.09 8.24l1.427-1.286s.685-.57.514.515-.543 3.311-.314 4.28.342 1.798 1.541 1.084 1.484-1.142 2.055-1.74 1.17-.855 1.027.086-.571 2.368-.371 4.28 1.142 2.196 2.368.57a21.51 21.51 0 0 0 2.34-3.909c.371-.799 1.113-1.483 1.113 0 0 3.192.732 7.835 4.251 9.074 3.521-1.239 4.253-5.882 4.253-9.074 0-1.483.74-.799 1.11 0a21.59 21.59 0 0 0 2.341 3.909c1.227 1.626 2.169 1.341 2.368-.57s-.229-3.339-.371-4.28.457-.686 1.028-.086.854 1.027 2.054 1.74 1.313-.113 1.541-1.084-.143-3.196-.313-4.28.513-.515.513-.515.485.457 1.428 1.286 2.233.877 2.233.877.605-3.351-.791-5.352l-1.909-2.652s-.79-.046-1.395-.278-1.192-.67-1.192-.67v1.854s1.711 1.626 2.111 2.111 1.198 1.312.029.513-2.141-1.598-2.141-1.598-.229 1.684-.714 2.112-1.17.483-1.454.37l-.285-.115-.086.658s1.055 1.969 1.197 2.768-.086.712-.57-.315-1.426-2.339-1.854-3.052-1.056-1.199-.999-.285-.313 2.567-.628 3.166-.513.799-.513.799l.741 2.74c.087.428.028.913-.342.37s-1.428-2.824-1.428-2.824-1.398-.057-1.797-.457-1.027-1.938-1.027-1.938-.572 1.964-1.046 2.595-1.575 1.259-1.575 1.259-.079 3.416-.156 4.02-.105.866-.361.866-.282-.263-.361-.866-.156-4.02-.156-4.02-1.104-.629-1.577-1.259-1.045-2.595-1.045-2.595-.627 1.538-1.027 1.938-1.797.457-1.797.457-1.056 2.282-1.427 2.824-.428.058-.342-.37.742-2.74.742-2.74-.2-.199-.514-.799-.685-2.253-.627-3.166-.572-.428-1 .285-1.369 2.026-1.854 3.052-.713 1.114-.57.315 1.198-2.768 1.198-2.768l-.085-.658-.285.115c-.286.113-.97.057-1.456-.37s-.713-2.112-.713-2.112-.97.799-2.14 1.598-.371-.029.029-.513 2.11-2.111 2.11-2.111v-1.854s-.586.437-1.191.67-1.396.278-1.396.278-.512.651-1.908 2.652-.791 5.352-.791 5.352 1.3-.04 2.24-.86zm17.17 22.31c-.902-1.055-1.203-1.58-1.203-1.58s-.301.525-1.202 1.58-3.01 2.708-3.01 2.708.188 2.784 1.204 4.287c.856 1.27 1.675 2.43 3.008 3.311 1.333-.881 2.153-2.041 3.009-3.311 1.017-1.503 1.204-4.287 1.204-4.287s-2.11-1.66-3.01-2.71z" class="B"/><path d="M319.57 253.73c.083.646.028 2.279.421 2.279s.336-1.634.421-2.279.111-2.195.111-2.195h-1.067c.01-.01.04 1.54.12 2.19z" class="C"/><path d="M319.98 100.87c-3.766.064-8.184-.456-10.615-1.361l-2.592.571c4.007 1.509 7.355 2.094 13.207 2.153 5.853-.059 9.2-.644 13.206-2.153l-2.593-.571c-2.43.901-6.85 1.421-10.62 1.361zm13.7-3.143c-.299-.249-2.013-1.471-2.46-1.694s-.099-.822-.024-1.071 2.012-.798 3.081-1.072.894-.499.894-.499-.622-.723-4.498-1.146-10.68-.324-10.68-.324-6.807-.1-10.683.324-4.496 1.146-4.496 1.146-.174.225.895.499 3.005.822 3.08 1.072.423.847-.024 1.071-2.162 1.445-2.459 1.694-.323.648.149.673.48.017 1.813-.25c3.988-.793 7.742-1.015 11.727-1.07 3.983.055 7.736.277 11.726 1.07 1.332.266 1.34.274 1.813.25s.45-.423.15-.673zm-4.41 1.646c-2.659-.315-4.347-.659-9.27-.615s-6.609.3-9.27.615c1.675.672 4.384 1.01 9.27 1.01s7.6-.34 9.27-1.007zm-10.09-36.484l2.03-.164-.19-1.774 2.18.303.09-1.751-2.29.211.4-1.891-2.52-.023.44 1.914-2.22-.211v1.751l2.2-.256zm4.43 2.871h-2.726v-2.325a4.02 4.02 0 0 0-.805-.079 3.97 3.97 0 0 0-.712.063v2.342h-2.82a3.05 3.05 0 0 0-.146.935c0 .133.009.265.026.396h7.301c.018-.131.026-.263.026-.396-.01-.326-.07-.64-.16-.936z" class="B"/><path d="M320.08 70.032c1.621 0 2.997-.954 3.485-2.276h-6.972c.49 1.323 1.87 2.276 3.49 2.276zm1.5-6.384v1.598h1.808c-.37-.706-1.01-1.275-1.81-1.598zm-3.01 0c-.791.323-1.434.892-1.809 1.598h1.809v-1.598z" class="D"/><path d="M322.17 93.312l-2.188-.966-2.201 1.092c-.775.388-.675.275-.913.84s.024.765.362.915l2.79 1.406 3.013-1.406c.589-.275.478-.551.314-.979s-.49-.575-1.17-.902z" class="C"/><g class="B"><path d="M317.64 94.027l2.4 1.222 2.37-1.222-2.43-1.138zm2.34-9.379s-.202.847-.473 1.206-.476.681-.398 1.119.578.729.871.729.793-.292.87-.729-.126-.759-.397-1.119c-.26-.359-.47-1.206-.47-1.206z"/><circle cy="88.56" cx="320" r=".451"/><path d="M318.39 86.24s.78-.866 1.068-1.415l.524-1.039.523 1.039c.289.548 1.068 1.415 1.068 1.415s1.097-.578 1.731-2.684-.146-4.329-.434-6.724l-.52-6.521c-.831.476-1.616.678-2.37.691-.754-.014-1.54-.216-2.371-.691l-.519 6.521c-.289 2.396-1.068 4.617-.433 6.724s1.73 2.684 1.73 2.684z"/></g><g class="C"><ellipse rx="1.894" ry="1.828" cy="81.506" cx="319.98"/><ellipse rx="1.822" ry="1.759" cy="77.22" cx="319.98"/><ellipse rx="1.738" ry="1.677" cy="73.121" cx="319.98"/></g><g class="B"><ellipse rx="1.004" ry=".968" cy="81.178" cx="319.98"/><ellipse rx=".966" ry=".931" cy="76.905" cx="319.98"/><ellipse rx=".847" ry=".817" cy="72.82" cx="319.98"/></g><path d="M319.93 224.04c.117.024.14-.277.163-.835l.231-2.688c.139-.789-.209-.742-.418-.695s-.323.648-.323.997l.092 2.758c0 .417.139.44.255.463z" class="C"/><g id="A"><path d="M300.28 239.41l3.478-2.392c1.907-1.267 2.608-2.673 2.608-2.673h-.673c-.365 0-.673-.507-.701-1.013s0-1.547.14-2.757-.196-2.194-.196-2.194-.813.758-2.047 1.406-1.74.337-1.74.337l-.309-1.236-1.29 2.446c-.758 1.322-2.805 2.786-4.263 3.882s-3.058 2.252-4.264 2.674-.504.985-.504.985 1.206 1.208 4.319 1.771 4.601-.702 5.442-1.236zm10.89-1.21c-1.112-.117-1.777-.537-1.992-1.745-.141-.787.057-3.798.057-3.798s-.365.309-.786.817-1.375.618-1.375.618-.14.422-.561 1.096-.954 1.493-2.02 2.167l-3.113 2.139c-.814.676-1.767 1.464-2.833 2.054s-2.02 1.548-2.385 3.122-.083 2.082 1.15 1.998 1.375.028 3.366-.479 4.824-2.728 6.899-4.05 3.593-3.939 3.593-3.939zm5.52 1.82s-.842-1.067-1.15-2.279l-.897-3.6s-.281.76-.954 2.192-1.823 1.774-1.823 1.774-.057.618-1.01 1.828-2.355 2.334-3.787 3.18-3.282 1.998-4.292 3.432-1.094 2.925-.616 3.572 1.149-.085 2.103-.563 3.675-.9 7.433-2.926 4.993-6.61 4.993-6.61zm1.63 8.42c1.038-1.547 1.207-5.315 1.207-5.315s-.364-.253-.87-.677-1.486-1.912-1.486-1.912l-1.29 2.503c-.673 1.211-1.011 1.632-2.413 2.926s-3.31 2.561-4.124 3.939-.364 4.135.169 5.063 1.29.618 2.075-.14l2.412-2.138c1.374-1.182 3.283-2.702 4.32-4.249z" class="B"/><path d="M305.98 216.89l1.68-3.19c.503-.697.863-1.489.863-1.489s-1.344 1.224-1.872 2.088a9.37 9.37 0 0 0-1.104 2.64c-.241.937-.119 1.078.433-.049zm5.33.96l.337-1.24s.217-.72.097-.768-.673.447-1.057 1.67l-.84 3.071c.119.073 1.247-1.989 1.463-2.733zm4.2 3.38l.24-.551.432-1.68c0-.287-.144-.623-.503.096s-.384 1.415-.457 1.728-.479 1.392-.36 1.488.408-.551.648-1.081zm-13.04 12.8l-.562-.338s-.336.451-.813.957-1.011.703-1.375 1.182-.926 1.069-1.795 1.519-1.206.591-1.037.732.757-.197.757-.197.252-.029 1.29-.647 1.29-.956 1.963-1.547 1.572-1.661 1.572-1.661zm4.55 5.38c.393-.422.813-.704.589-.93s-.505-.196-.87.113l-1.879 1.716c-.477.422-.869.676-1.346 1.041s-1.515.928-2.019 1.209-.028.312-.028.312.393-.199.813-.34 1.626-.675 1.626-.675.477-.225 1.122-.675 1.599-1.35 1.992-1.771zm5.24 3.63c.336-.674-.028-.479-.589-.252s-1.823 1.604-2.552 2.109-1.347.703-1.963 1.014-.617.477-.588.618.279.141.532.028 1.122-.619 1.122-.619.365-.111.702-.141.813-.396 1.571-1.041 1.428-1.039 1.765-1.716zm2.44 4.81c-.926.563-2.524 1.828-2.945 2.673s-.702 1.435-.562 1.575.589-.141.786-.479.617-.844.617-.844 1.598-1.574 2.187-1.94 1.543-1.406 1.768-2.025.056-.956.056-.956-.982 1.433-1.907 1.996z" class="C"/><path fill="#c52126" d="M289.99 113.28c-.848-.498-3.128-1.473-5.556-1.679s-4.302.16-6.316.704c-1.443.39-2.612.45-3.768.14-1.737-.463-3.084-2.031-3.542-3.952 0 0-1.602 2.054.036 4.283.787 1.072 1.812 1.742 2.856 1.953 3.399.685 6.733-1.39 9.564-1.571 2.719-.177 4.854 1.547 4.854 1.547s.643.534 1.549.007 1.171-.934.323-1.432z"/><g class="B"><path d="M280.2 211.66l-.802-.101c-.468-.067-1.471-.402-1.772-.537s-.769-.167-1.07.168-2.742 1.777-2.742 1.777h4.046c1.404 0 2.34-1.307 2.34-1.307zm11.39-.69v-.404l-.539-1.161s-.629.395-1.242 1.029c-.789.819-1.638 1.97-2.017 2.456-.674.863-1.616 1.675-.808.296l1.723-2.891c.647-.918 1.132-1.323 1.052-1.378s-.594-.134-2.291-.35-2.747-.865-3.528-1.325l-2.182-1.215-3.96 1.485c-1.078.27-1.724.432-.674.946s1.939.675 2.451.998 2.101.838 3.071.838 2.612.026 1.966.702-1.374 1.974-2.074 3.944-.727 3.729-.727 4.594a16.09 16.09 0 0 0 .107 1.728s1.185-1.322 4.364-3.321l4.956-2.946c.592-.269.89-.269.781-1.025l-.429-3zm12.14-9.66l-.59-.268a.7.7 0 0 0-.146.052c-.373.187-2.312 1.492-3.095 2.761s-1.566 1.38-.709 0 1.492-2.164 2.163-2.761l.677-.569c-1.56-.752-3.254-1.663-4.893-2.804-.212.423-.619 1.173-1.08 1.659-.671.708-2.163 1.306-2.163 1.306s1.193-1.231 1.604-2.164c.261-.595.432-1.236.521-1.621-1.141-.889-2.234-1.902-3.21-3.065-.199.807-.844 2.771-2.755 4.91-2.498 2.798-7.496 4.214-7.496 4.214s-1.752.187-.335.56 2.424 1.007 5.184.521l3.318-.706c.373-.113 1.38-.038 0 .484s-4.587 1.005-5.817.895-2.909-.373-1.156.56 2.499 1.305 3.58 1.305 1.529.336 2.574.336 1.341-.187 2.088-.336 1.23.111 1.23.41-1.006 1.118-.969 3.17.186 3.394.372 3.988.635 1.567.933 2.128.411 1.117.708-.075l1.231-4.064c.261-1.156.41-1.193.522-1.79s.746-1.044.447.037l-.857 3.431c-.225.97-.746 2.759.148 1.342s4.251-5.183 4.81-5.854l1.417-1.864c.41-.56 1.566-1.306 2.126-2.126.506-.742 1.988-2.187 2.624-2.704l-3.006-1.298zm-46.36-86.08c.089 2.055 2.364 5.987 3.658 8.087s1.65 2.947 1.428 3.082-.759-.938-1.473-1.875-2.096-3.127-3.256-4.78-2.855-5.584-3.078-5.942-.313-.581-.892-.135-1.695 4.781-.356 7.73 3.345 5.091 4.192 6.119 1.963 2.636 1.784 2.771-.49-.269-1.516-1.341l-3.836-4.244c-.906-1.088-2.135-3.298-2.566-4.088-.162-.299-.371-.218-.527-.062-.367.369-.955 1.226-.699 3.569.357 3.262 2.052 5.138 3.568 6.791s3.034 3.037 2.811 3.261-1.784-1.162-2.855-2.189l-4.282-4.289c-.581-.714-1.427-.358-1.383 2.457s3.167 5.674 4.46 7.238 2.9 2.5 2.767 2.813-1.428-.49-2.275-1.072l-4.639-3.083c-.624-.446-.937.402-.134 3.083s3.123 4.824 4.505 5.806 3.613 2.188 3.479 2.503-1.07-.09-2.364-.716a26.26 26.26 0 0 0-3.97-1.518c-1.116-.313-1.115.49-1.115.49s-.224 2.278 1.427 4.11 3.524 2.547 5.308 2.858 2.052.403 2.007.672-.223.312-.624.312-2.052.179-3.569.179-2.319.356-2.319 1.027-.045 1.564 2.23 3.082 4.817 1.743 5.888 1.967 1.114.313.892.626-.713.268-2.409.446-2.721.849-2.944 1.295.134 1.788 1.518 2.725 3.166 1.252 5.843 1.073 3.346-.224 3.435.224-.802.581-2.141.805-2.365.222-3.123.848-.178 1.921 1.115 2.859 4.506.938 5.844.849 3.39-.581 3.524-.224-.981.895-2.363 1.385-1.786.804-2.052 1.386-.045 1.116 1.605 1.741 4.059.626 5.308.045 1.918-.805 2.142-.58 0 .447-.268.76-1.338 1.161-2.721 1.519-1.517.358-2.008 1.474.758 2.012 3.256 2.102 5.844-.894 6.915-1.521 1.472-.759 1.65-.535.134.357-.401.758-2.231 1.609-3.078 1.833-.937.848-.937 1.429-.223 1.742 2.007 2.279 4.862.135 7.271-1.564c.776-.546 1.227-.997 1.481-1.388-.195-2.281-.092-3.849.182-5.295-.473-.05-1.37-.186-2.288-.555-1.338-.535-1.873-1.786-2.186-2.457s-.758-.67-1.294-.492-1.071.403-1.829.359a5.26 5.26 0 0 1-3.524-1.833c-1.16-1.385-.938-2.724-.982-3.396s-1.115-.178-1.65-.178-2.097-.224-3.523-1.206-1.428-2.323-1.562-2.86-.714-.892-1.16-1.072-1.16-.356-2.142-1.161-1.337-2.367-1.382-2.903-.625-.581-2.632-1.608-1.829-3.172-1.739-4.02 1.025-1.563 1.025-1.878-.669-.401-1.338-.804-2.364-1.072-2.408-3.573 1.606-2.77 1.606-2.77-.313-.135-.982-.536-2.497-1.653-2.497-3.128.668-2.144 1.159-2.502 1.829-.714 1.829-.714-.848-.537-1.205-1.698-.491-2.59.356-3.618 2.275-1.028 3.034-1.028 1.427.402 1.695.18.312-.402.044-.983-.312-2.011-.089-2.501.268-1.474 2.187-2.1 3.924.67 4.549 1.028.357-.493.357-1.117-1.293-2.189-2.766-4.423-2.141-3.396-3.792-6.791-2.722-7.773-2.944-8.89-.669-.582-.669-.582-.446.18-1.472 2.77-1.202 4.96-1.113 7.013z"/><path d="M291.02 160.92c-1.15-.058-2.643-.689-3.792-2.358s-2.873-2.073-5.861-2.016-4.367-1.38-5.114-3.451.115-4.433 3.16-5.929 4.425-3.165 4.539-5.753-3.044-5.813-6.205-9.438-5.631-8.748-5.631-8.748-.919 1.209-.919 2.417.459 2.474 0 2.819-.632-.517-2.47-1.323-3.333-.92-4.482.403 0 3.625 1.034 4.719 1.896 1.9 1.609 2.303-1.839-.633-2.356-.979-1.724-1.668-3.505-1.496-2.414.69-2.586 2.187 1.609 2.818 2.758 3.395 1.609 1.093 1.321 1.322-.575 0-1.092-.171-1.953-.345-2.872 0-2.414 1.61-1.035 3.165 4.252 2.129 4.827 2.243.862-.058.919.402-1.207.462-2.758.52-2.011 1.553-1.781 2.704 2.815 2.416 4.251 2.647 1.954 0 2.069.402-.172.575-.977.806-2.356.403-2.644 1.669-.344 1.841.863 2.936 3.161.92 3.735.805 1.265-.749 1.839-.172-.518 1.035-1.495 1.726-.919 2.015.747 2.936 3.333.574 4.022.345 1.609-1.323 2.068-.633-1.436.921-2.241 1.899-.517 2.588 1.092 3.566 4.252.288 4.712-.114 1.033-.574 1.378-.229-.172 1.264-.517 2.07-.977 3.165 1.437 4.086 4.597-1.151 4.999-1.555.804-.46 1.149-.287.173.518-.115.921-.919 2.128.804 3.338c1.177.825 2.461.764 3.157.644l1.302-4.805h-.36c-.23 0-.276.345-.276.483s.069.253-.139.253-.23.115-.529.323-.575.459-.737.345.622-.53.829-.783.622-.645.645-.92.161-.438.575-.783c.129-.107.23-.235.31-.359l.795-4.815a38.08 38.08 0 0 0 .299-3.643l-.755-.039zm-49.11-35.87c2.567 5.193 6.192 8.117 6.192 8.117s-.476-1.29-.687-2.177-.046-1.892-.046-1.892-.91-1.167-2.591-3.758-2.568-6.419-2.568-6.419 1.564 3.828 2.778 5.86a31.17 31.17 0 0 0 2.616 3.688s.489-1.796.84-1.89.607.187.91.583.562.36.562.36-.415-.857-1.053-1.885c-.29-.467-.713-.971-1.012-1.443-.957-1.512-3.02-4.385-4.078-7.259s-3.373-10.083-3.776-12.202-.805-.958-1.208.606-.956 3.781-.604 7.108 1.157 7.41 3.725 12.603zm3.32 14.02l2.366 1.663s-.223-.521-.364-1.146-.201-1.912-.201-1.912l-1.91-1.672c-.784-.685-1.77-1.571-3.72-3.987s-.382-.966 1.206.766 4.625 4.248 4.625 4.248l.02-.563a2.08 2.08 0 0 1 .463-1.268c.282-.363.133-.414-1.579-1.724s-6.142-6.302-7.954-9.278-3.776-7.008-3.776-7.008-.956 5.95 2.669 12.504 7.199 8.671 8.155 9.377zm19.02 37.53c1.986-.77 1.442-2.729 1.442-2.761s-1.218.386-2.338.802-3.877 1.22-4.966 1.251-1.088-.127-1.121-.288.833 0 2.402-.288 4.325-1.733 4.805-2.053.416-.387-.288-.451-1.313-.385-1.57-.608-.992.097-2.786.515-5.511 1.058-8.362 1.058a33.2 33.2 0 0 1-5.958-.578c-.449-.096-.929.161.449 2.472s6.215 3.561 9.578 3.528 6.727-1.83 8.713-2.599zm-8.94-4.77c3.47.029 4.764-1.002 4.764-1.002s0-.177-.47-.883-.382-1.914-.382-1.914l-2.265.354c-1.441.206-3.117.412-4.97.088s-1.058-.53.412-.354 4.293-.354 5.205-.677.529-.618-.088-.826-2.293-1.266-2.293-1.266-4.205.53-8.116.09-6.382-1.444-7.176-1.562-.765.207-.765.207-.206.352 1.146 2.471 4 3.507 6.235 4.154 5.293 1.091 8.763 1.12zm-.89-8.13s-.147-.206-.353-.914.382-1.236.382-1.236-.794-.235-3.382-.56-2.734-.53-4.323-.884-2.646-.824-2.617-1.001.529.089 1.47.441 4.911.766 6.587 1.002 2.617.413 2.911.235 1.323-.442 1.323-.442-.706-.204-1.588-.353a5.61 5.61 0 0 1-2.146-.854c-.471-.324-.618-.414-2.735-.647s-3.823-.914-7.617-2.298-6.646-3.033-7.41-3.651-.706-.176-.5.618.176 1.796 2.088 4.034 2.852 3.21 7.674 4.979 10.236 1.531 10.236 1.531zm-14.26-11.75c4.264 3.004 9.261 4.107 10.321 4.24.238-.278-.258-1.276-.03-1.885.276-.729.736-.736 1.765-.795s.353-.266.118-.266-.294-.029-2-.471-3.44-.707-5.792-1.591-3.058-1.531-3-1.708 1.088.561 3.265 1.385 4.705 1.148 6.087 1.444.176-.296-.471-.679-1.559-1.797-1.559-1.797-1.529-.265-4.028-1.03-4.587-1.621-6.675-2.798c-.717-.406-1.411-.929-2.159-1.466l-3.428-2.48c-.854-.618-.588-.118-.5.265s.676 2.151 2.028 4.094 1.794 2.533 6.058 5.538zm-.7-8.45c4.205 3.329 7.821 4.357 8.439 4.623s.559-.088.441-.441-.207-1.501-.207-1.501l-3.176-1.827c-1.676-.973-3.528-2.297-4.763-3.15s-.5-.795-.118-.473 2.088 1.326 3.793 2.386l4.293 2.592s.059-.559.412-.913 1.234-.264 1.234-.264-.441-.442-.706-.854-1.647-.854-3.205-1.592-4.353-2.796-6.411-4.534-6.058-6.096-6.322-6.45-.441-.294-.471.147-.176.736.265 2.739 2.296 6.184 6.502 9.512zm14.88-31.47c.477.99.999 1.738 1.375 2.383l.888 1.605s.114-.343.024-.928-.18-1.396-.022-2.363c.083-.518.195-1.034.167-1.494-.033-.523-.208-.975-.279-1.273l-1.034-4.748c-.292-1.733-.606-4.208-.584-6.392s.337-1.081.337-.022.112 2.679.449 5.176 1.393 6.301 1.393 6.301.067-.585.382-1.418.832-1.777 1.236-2.813.262-1.208.262-1.208-1.476-7.066-1.864-10.406-1.01-12.116-1.01-12.116c-2.16 2.173-3.766 7.892-4.052 13.301-.214 4.075.444 7.847.635 9.376.378 3.028.904 5.392 1.697 7.039zm-4.79 11.15c.067-1.6.435-2.811 1.467-3.166 0 0-.913-1.601-1.711-3.883-.545-1.563-.996-3.567-1.225-5.105-.564-3.787-1.016-7.688.113-1.3s2.483 8.648 2.483 8.648l1.637 2.657c-.242-1.167-.28-1.987-.218-3.262s.225-3.002.613-4.369c0 0-1.976-3.956-3.217-8.706s-1.951-9.069-1.976-11.644l-.169-3.449s-2.031 1.526-2.708 9.27 1.355 15.151 2.37 17.978 2.541 6.331 2.541 6.331zm22.16 59.06l-1.281-.834c-.961-.608-.672-2.438-.672-2.438l-.962.674c-.705.481-1.505 1.025-2.466 1.411l-2.05.834c-.609.193-.448-.063.064-.353s.673-.449 1.955-.962 3.843-2.76 3.843-2.76l-1.666-.096c-1.057-.032-2.403-.577-2.403-.577s-1.056.962-5.317 2.79-7.881 2.31-7.881 2.31.449 2.183 2.499 2.921c1.698.738 4.037 1.187 8.618.097s7.719-3.017 7.719-3.017zm5.61 4.37c.353-1.799-.673-3.05-.673-3.05s-.224.128-.864.706-1.571 1.669-3.364 2.566-2.435.834-.705-.097 4.261-3.561 4.261-3.561l-.672-.257c-.674-.257-1.827.192-6.632 3.079s-7.625 2.985-7.625 2.985 2.146 2.599 7.977 2.406 7.945-2.982 8.297-4.777zm11.02-2.09s-.641.897-1.506 1.475-3.171.931-3.171.931-.096.257-.544.834-1.442 1.958-2.467 2.696-2.627 1.218-2.723 1.025.929-.577 1.922-1.187 1.89-1.733 2.563-2.502-.288-.642-.288-.642-1.217.031-2.339-.064-.897 0-1.217.546-.769 1.026-1.602 1.989l-2.947 3.399c-.64.771-.16.995-.16.995s.289.482 2.883.77a8.17 8.17 0 0 0 5.163-1.076c1.131-.656 2.298-1.695 3.488-2.998 3.105-3.399 2.945-6.191 2.945-6.191zm1.38 7.02l-.994 1.188s.449-1.38.833-2.022l.592-.894c-.429-.964-.781-2-1.041-3.117-.285.923-1.172 3.631-2.274 5.392-1.344 2.148-2.531 2.919-1.762 3.495s2.274.707 3.973-.128c1.64-.805 2.114-2.211 2.347-3.346l-.808-1.394c-.212.131-.52.376-.866.826z"/><ellipse rx="1.192" ry="1.092" cy="105.75" cx="289.34"/><path d="M286.83 103.69c1.088-.026 1.673-.541 2.874-.425 1.417.138 3.337.964 5.669 2.202 1.823.824 4.23 1.236 6.548.571.649-.187 1.291-.542 1.912-.892 2.835-1.606 2.149-4.771 2.149-4.771-2.092 1.509-4.678 2.32-7.087 2.156 0 0 .183.138.594.551s1.165.893.915 1.102-1.28-.781-2.149-1.423-2.149-1.514-4.344-2.154-4.664-.688-6.31.227-1.783 2.066-1.554 2.524c.126.257.429.341.783.332zm30.81 23.11c-.503-.138-1.371-.275-2.514-1.33s-3.887-4.082-4.208-4.632-.183-1.055.595-1.377 1.326-1.33 1.326-1.33-1.691-.643-2.834-1.469-3.796-3.21-4.162-3.806-.183-.688.366-.871.687-.551.687-.551-1.235-.779-2.377-1.696-2.698-2.431-2.698-2.431c-1.713.688-4.401.398-5.853.138-2.561-.458-4.435-1.514-4.435-1.514s-.092.413-.412 1.193-1.509 1.239-2.698.458-.915-2.476-.915-2.476-.96-.596-2.926-1.33-3.566-.826-5.167-.092-2.378 2.935-2.378 4.587.87.963 1.052.732.549-1.422 2.561-1.742 3.841.642 6.127 2.521 2.789 2.019 3.932 3.211.229 1.834-1.737 2.477-4.481-.642-4.573-.595c-.378.189.848 1.938 2.544 2.599s3.864.232 5.55-.444c1.143-.458 1.356.015 1.691.367 1.857 1.952 2.34 3.781 2.652 6.009.949-.292 1.606-1.24 1.738-2.018.063-.373.183-1.193.823-.597s1.143 3.898 1.143 5.412-.458 3.532-.458 3.532l.458-.046c.275-.046.823-.367 1.555-.779s.777.046.777.871.274 2.385 1.372 5.183 2.698 3.714 2.698 3.714.321-.55.641-1.65.549-3.256.549-5.137-.503-5.917-.503-5.917 2.287 2.798 4.664 3.487 4.756.275 5.762-.872.088-1.65-.415-1.789zM302 134.04s-.722 1.597-1.116 2.166-.569.658-.569.658.722.612 1.773.94l1.992.525s-1.183-1.621-1.598-2.758L302 134.04zm14.28-.94l-.569-1.401c-1.459.292-4.227-.393-5.429-1.116 0 0 1.095 2.231 2.189 2.998l1.248.81s-1.094.176-2.561-1.269-2.123-3.109-2.123-3.109.328 3.853-.263 6.216l-.722 2.67s3.107.547 6.566-.416 3.72-1.27 3.72-1.27.415-.109-.131-.831-1.575-2.385-1.925-3.282z"/></g><path d="M310 124.64c-1.064-1.223-1.17-1.516-1.17-1.516s-.372.372-.054.905 1.835 1.86 2.872 2.445a7.4 7.4 0 0 0 2.074.771l-.053-.213c0 .001-2.606-1.169-3.669-2.392zm-4.22 8.03l-.266-5.558c0-.718-.452-.532-.452-.532l-.531.239 1.04 7.077c.113.762.488.697.68.663-.38-.197-.455-1.668-.471-1.889zm-6.53-20.95c-.395-.394-1.283-.689-.427.264s1.975 2.14 2.303 3.128.527 2.204-.032 1.941-.955-.264-1.547-.757-1.711-1.318-2.172-1.448-1.283 0-.625.723 1.383 1.417 2.633 2.337l2.633 1.777 1.316.856s-.593-3.949-1.679-5.693-2.008-2.732-2.403-3.128zm-21.34 66.15c-.802.608-1.853.857-1.853.857s-.498-.026-.498.167.581 0 1.189-.11 1.438-.72 1.742-.941.747-.499.608-.887-.387.305-1.188.914zm6.89 3.69c-.166.192-1.493 1.19-1.493 1.19s-.415.276-.858.442-.552.417-.552.417.083.109.552-.027 1.854-1.109 2.295-1.497.637-.498.471-.664-.248-.055-.415.139zm-27.93-49.63c.248.302.55.715.688.577s-.028-.275-.358-.661l-.522-.578s-.467-.744-.743-1.02-.688-.413-.165.22l1.1 1.462zm-2.12 4.65l.907.881c.33.358.578.743.77.551s-.495-.605-.797-.992a4.94 4.94 0 0 0-.936-.936c-.386-.303-.853-.551-.853-.551l.909 1.047zm.79 7.51c.525.553 1.299.719 1.41.499s-.055-.4-.496-.62-1.155-.688-1.513-.936-.715-.524-.963-.771-.54-.471-.632-.387.729.968.977 1.107.692.554 1.217 1.108zm1.52 6.01c0-.221.054-.331-.388-.36l-1.051-.109s-.857-.333-.913-.167.719.5 1.051.555.746.166.939.275.362.026.362-.194zm.66 6.53c-.939 0-1.742-.223-1.797-.084s.442.361.913.526 1.356.222 1.964.249.719-.11.691-.414-.83-.277-1.771-.277zm7.36 7.15c-.138-.138-.47-.027-.996.083s-1.382.278-1.88.251l-1.576-.056-.608.138c0 .139.801.111 1.963.249s1.935-.11 2.488-.194.748-.331.609-.471zm3.04 5.09c-.581.222-.995.276-1.438.276s-1.493.194-1.493.194-.498.056-.415.25.249 0 .69-.056.775 0 1.549-.027 1.217-.223 1.687-.305.995-.333.747-.638-.746.084-1.327.306zm5.92 3.85c-.332.333-1.604 1.191-1.604 1.191s-.249.194-.747.443-.47.361-.387.499.387-.194.663-.305 1.189-.722 1.659-1.107 1.078-.694.967-.97-.219-.082-.551.249zm-9.85-49.85s.11.253 1.131 1.531.475.072.219-.254l-2.262-3.029c-.51-.584-.583-.292-.328.072l1.24 1.68zm-2.15 6.56c.146-.146-.183-.292-.766-1.021l-1.751-2.225s-.329-.693-.438-.621.401 1.167.875 1.643 1.094 1.386 1.423 1.787.511.583.657.437zm2.83 12.3c0-.357-1.155-.303-1.677-.413l-1.458-.303s-1.101-.193-1.128-.055.22.274.825.386l2.201.495c.688.11 1.237.249 1.237-.11zm-2.83-6.64c.766.62 1.276.912 1.678 1.131s.729.548.949.292-.183-.438-.839-.73-.985-.547-.985-.547l-.694-.365c-.329-.182-.876-.401-.109.219zm6.6-4.38c-.475-.401-.876-.622-.876-.622s-.583-.547-.693-.365.656.73 1.021 1.058 1.022 1.278 1.35 1.095-.329-.765-.802-1.166zm-4.31 17.14l-1.051.276c-.414.111-.442.306.305.306s1.051-.194 1.797-.334.997-.221.885-.47-.498-.166-.802-.083l-1.134.305zm1.16 6.21c-.055.14.525 0 .912-.138s1.189-.553 1.659-.692.471-.222.471-.499-.499-.056-1.106.139-1.383.804-1.383.804-.498.248-.553.386zm7.99 3.76c.554-.334.665-.582.47-.749s-.359-.138-.801.222l-1.3.969-.774.333c-.332.166-.747.443-.636.609s.802 0 1.161-.305 1.328-.748 1.88-1.079zm3.77 4.99c.221-.195.884-.414 1.189-.637s.498-.886.249-.969-.387.276-.912.663l-2.323 1.579-.471.194c-.498.193-.276.333.139.277s.691-.057 1.189-.442l.94-.665zm5.58 4.73c.471-.193 1.162-.803 1.494-1.106s.746-.693.498-.887-.525.056-.913.414l-1.411 1.441s-.138.027-.691.471.028.359.221.166.333-.305.802-.499z" class="C"/><path d="M305.58 96.588l2.25-1.598-2.65-.679-1.7 1.357z" class="B"/><ellipse rx="2.146" ry="2.069" cy="94.716" cx="312.78" class="C"/><g class="B"><ellipse cx="312.78" rx="1.295" cy="94.278" ry="1.237"/><path d="M308.3 87.608c.552.205 1.27.115 1.27.115s.217-.952-.308-1.416l-1.308-1.105-.384-.413-.04 1.338c-.037.516.219 1.274.77 1.481z"/><ellipse cx="309.44" rx=".394" cy="88.65" ry=".373"/><path d="M306.51 88.25c-.167.232-.525.604-.525.604a1.61 1.61 0 0 0 .795.27c.359.258.821.476 1.244.425s.603-.452.513-.734-.294-.577-.987-.836-.873.039-1.04.271zm1.5 2.506c-1.348.121-3.129-1.369-3.129-1.369-.166 1.197-.906 1.818-2.04 2.045l.104.053s1.054.539 2.299.728c.563.086 1.064-.011 1.669-.132.73-.148 1.551-.356 1.995-.63.813-.502.57-1.803.57-1.803s-.119.986-1.468 1.108zm-5.25-1.352c-.553-.208-1.383-.607-1.729-.625s-.848-.104-.761.538.743.954 1.382.971.969-.225 1.349-.417.312-.259-.241-.467zm-4.22-2.29c-.604-.433-1.142-.554-1.142-.554s-.397 1.041-.173 1.683.692.814 1.262.796 1.418-.312 1.176-.745-.518-.746-1.123-1.18z"/><ellipse cx="299.09" rx=".466" cy="90.041" ry=".336"/><path d="M300.38 84.865c-.374-1.774-.311-3.704 1.37-6.163s4.607-3.456 4.607-3.456.093-.187 1.027-1.182 2.833-2.241 2.833-2.241l-3.457.945.001.066c0 .851-.676 1.541-1.51 1.541a1.49 1.49 0 0 1-.859-.274c-.68.132-2.944 1.485-3.523 1.968.144.236.228.514.228.812 0 .849-.677 1.54-1.511 1.54-.25 0-.485-.061-.693-.172l-.193.328c-.475.873-.825 1.711-1.083 2.478.387.267.646.766.646 1.336 0 .846-.573 1.534-1.281 1.541-.049.498-.045.846-.026.995.062.499.249.81 1.12 1.059s2.055 1.774 2.055 1.774c.084 0 .706-1.12.249-2.895zm5.36-11.359c.318-.258.374-.653.121-.879s-.711-.2-1.029.06-.373.655-.121.881.712.2 1.029-.062zm-5.64 3.811c.357-.326.42-.819.136-1.104s-.803-.25-1.162.076-.419.818-.136 1.102.803.251 1.162-.074z"/><ellipse cx="296.74" rx=".871" cy="82.109" ry=".856"/><path d="M315.54 70.017c-.452.099-1.288.371-2.539 1.026h.023c.87 0 1.546.556 1.546 1.276s-.791 1.504-1.66 1.504-1.461-.755-1.461-1.476a1.12 1.12 0 0 1 .111-.482l-1.189.767c-2.771 1.868-3.424 2.771-4.793 5.324s-1.868 5.353-1.277 7.003 2.771 1.992 2.802 1.992-.249-.249-.281-.559.063-.468.156-1.091.031-1.368.031-1.368.498-.063.778.28l.965 1.088c.28.342 1.027.997 1.027.997s.437-.624.437-1.371-.498-1.555-.592-2.863.592-3.643 1.867-5.354 3.673-3.268 4.389-3.611.84-.872.872-1.183.093-.528.155-1.307-.652-.747-1.367-.592zm-2.75 2.956c.49 0 .936-.441.936-.845s-.381-.717-.872-.717-.888.329-.888.732a.84.84 0 0 0 .824.83zm4.12 16.276c.668.272 1.422.119 1.777-.118s.475-.843.054-1.189-1.044-.333-1.432-.118-1.261.831-1.261.831.194.324.862.594zm2.14.75c-.241.372-.419.598-1.161.63s-1.547-.016-2.031-.501-.822-1.164-.822-1.164l-.838-.016s-.273 1.165-.644 1.486-1.661.373-2.225-.048-1.08-.938-1.176-.873 0 .485.58.986.982.809 1.918.809h5.318s1.08.063 1.387-.583.32-1.051.177-1.212-.241.113-.483.486zm-8.09-.901c.798.443 1.239.173 1.529-.184s.345-.518.345-.518-.754-.271-1.12-.487-.614-.421-.98-.378-.42.098-.42.098-.151 1.025.646 1.469z"/></g><g class="C"><ellipse cx="307.11" rx="1.775" cy="81.24" ry="1.759"/><path d="M310.19 75.144c-.71-.478-1.753-.287-2.331.426s-.467 1.683.245 2.16 1.755.287 2.332-.426.466-1.68-.246-2.16z"/></g><g class="B"><ellipse cx="307.04" rx="1.031" cy="81.012" ry=".983"/><path d="M309.45 75.338c-.457-.125-1.022.1-1.26.502s.014.832.623.956c1.121.229 1.655-1.179.637-1.458z"/></g></g><path d="M282.34 212.67l-3.611 1.543-1.07.237s-1.873 1.709-3.244 2.513c-1.44.848-3.093 1.463-4.748 1.646-2.141.233-8.025.166-10.667.066s-4.279.536-5.417 1.811-1.404 3.119.034 4.528 3.042.705 3.578-.167.267-1.98.033-2.482.469-.672 1.204-.705 1.973.067 3.11.235 3.144.838 4.013 1.308.368.537-.234.436-1.27-.335-2.341-.736-1.973-.604-2.641-.639-.436.336-.301.57.501.805.601 1.074-.2 1.272-.2 1.272l.334.639s.401-.639.535-.972-.034-.973.1-1.275.702-.302 1.137.202.937 1.107 1.17 2.379-.201 2.181-.201 2.181.536.438.636.737-.134 1.511-.134 1.511.368.234.703-.471a15.82 15.82 0 0 0 .835-2.381c.1-.437.401-1.24.936-.637s.903 1.342 1.004 1.711a2.87 2.87 0 0 1 .099.671s1.204-1.175 1.605-1.846 1.237-1.677 2.375-2.615 3.109-2.817 4.079-3.455 3.444-1.979 4.213-2.448.903-.502 1.037-1.812.77-2.48 1.07-3.387c.29-.91.36-1.24.36-1.24zm-43.85-49.15c-.022-.223-.468-1.006-.579-1.408s-.513-.157-.513-.157-.87.492-1.516.671-.736-.066-.803-.401l-.334-2.125c-.112-.736-.268-.691-.535-.582l-1.627.65c-.557.245-.379.514-.201.826l1.114 2.102c.29.469.022.671-.313.828s-.824.223-1.493.446-.624.38-.558.604.513 1.141.758 1.564.468.135.468.135.714-.647 1.315-.939.646-.201.802.247l.981 3.242c.134.445.357.401.669.269s.735-.202 1.092-.314.491-.827.491-.827l-1.672-2.974c-.357-.604 0-.738.268-.782l1.716-.313c.66-.17.48-.55.46-.78zm14.86 64.38c-.1-.571 0-1.142-.435-1.577a5.41 5.41 0 0 1-1.17-2.012c-.2-.705.167-1.04.1-1.443s-.602-.402-1.136.035-1.238.838-1.238 2.112.469 2.784 2.241 3.319 1.74.14 1.64-.43zm1.8-.61s-.368-.234-.535.101-.134.504.334 1.241.77.906 1.304 1.24.167-.334.1-.536 0-.469-.133-.638-.202-.369-.202-.904-.87-.5-.87-.5zm2.17 6.04c.334-.505.636-.638 1.438-1.006s2.273-.57 2.774-.604 1.639-1.006 1.471-2.014-.903-1.408-1.538-1.542-1.204-.134-1.404.167-.569.705-1.271.939-.803.47-1.237.604-.101.403-.468.705-.869 0-1.438-.168-.602-.268-1.237-.303l-2.307-.133s-.067-.034-.434-.034-.402.067-.568.47.033 1.409.435 1.912 1.705.737 2.574 1.006a14.65 14.65 0 0 0 2.041.502c.76.13.86-.01 1.19-.51zm8.13.8c.702-.47.3-1.275.134-1.777s-1.137-.604-1.639-.604-.769 0-1.037.234-.635.57-1.371.806-1.304.502-2.307.905-1.305 1.072-1.739 1.343-1.27 0-1.27 0-.603-.169-.803 0 0 .501.401.937 1.17.403 2.039.672 1.037.066 1.372-.168.602-.737 1.204-1.107 1.906-.436 2.541-.502c.65-.07 1.79-.27 2.49-.74zm0-3.05c.3.27.635.639.903.201s.702-1.341.401-1.877-.668-1.007-.668-1.007l-.736 1.946c-.22.41-.19.47.11.74zm-2.71-4.63c0-.873-.602-1.946-.602-1.946s-.201.805-.568 1.51-.736 1.073-.736 1.073.87.234 1.204.234.71.01.71-.86zm-5.01 1.85c.936-.201 1.438-.57 1.839-.905s.636-1.242.368-1.71-.936-.973-1.203-.973h-.502s-.268.872-.635 1.308-.802.737-.769 1.308c.03.56-.04 1.16.9.96zm1.9-4.26c.034-.436-.135-.905-.435-1.207l-.502-.502-.133 1.039-.1.436a2.04 2.04 0 0 0 .502.37c.23.09.63.3.66-.14zm-11.56-23.79l.632-3.952c-.475-3.951-2.53-7.691-4.162-10.274s-3.32-6.638-4.058-8.799-1.232-5.119-1.232-6.667.661-2.347.661-2.347.287-.42.022-.686-.683-.021-1.103.398-.86 1.194-1.037 1.747-.177.753-.177.753-.838-.198-2.184-.087-1.985.221-2.03.508.177.51 1.147.93 1.589.597 2.074 1.173 1.727 3.465 2.106 4.86a66.59 66.59 0 0 1 1.519 8.15c.329 2.97 1.331 6.568 2.732 9.573.46.99 2.97 5.67 5.09 4.73zm2.45 6.96c-.915.511-.881 4.25-.475 6.188s2.305 4.353 2.881 4.999.712.646 1.018.476.44-.169.44-.169.814-.272 1.425-.748.372-1.667.27-2.721-.915-3.164-2.406-5.61c-1.48-2.45-2.23-2.93-3.14-2.42zm1.01-3.03c0-1.22-1.058-2.142-2.274-2.142-.575 0-1.082.145-1.396.428-1.234 1.113-.49 3.891 1.293 3.891.646 0 1.401-.108 1.868-.555.42-.39.51-1.04.51-1.62zm17.68 35.14c-.487-.086-.774-.285-1.492-.773s-1.865-1.492-2.066-1.98-.202-.517-.89-.286-1.665.2-2.41.229.085.86.602 1.637.344 3.385.344 3.385 0 .23-.115.604-.028.631.172.717.315-.086.832-.69 1.464-2.179 1.464-2.179.144.027.947.229 2.095.086 2.755-.115c.68-.2.36-.69-.13-.78zm-3.07 2.02c-.344-.058-.487-.087-.66.141s-.315.663-.401.891a.49.49 0 0 0 .144.604c.201.173.488.373.488.373s.287.316.575.458.343-.285.343-.602.172-.89.172-1.263-.3-.55-.65-.6z" class="B"/><path d="M396.62 216.11c-.839-.199-1.195-.518-1.195-.518s-.359-.04-.641.479c-.276.517-1.354 1.195-1.354 1.195s-1.515.4-1.715 1.438.519 1.395 1.236 1.275 2.474-.479 3.229-1.395.878-1.437 1.037-1.797c.14-.35.23-.47-.61-.67zm2.35-8.26c-.545-2.306-2.034-5.155-4.905-6.582l-1.396 4.987c-.32 1.195-.32 1.156.598 1.396l4.466 1.036c.599.16 1.6.67 1.24-.85zm-13.68-2.15c.677.12.598-.16.837-1.077l1.435-5.463s-3.029-.12-5.662 1.155-3.789 3.629-3.789 3.629.679.279 2.474.679l4.71 1.07zm-7.02 6.26l-1.475-.319s.678 2.591 1.795 4.028 2.353 2.155 4.666 2.194 4.067-1.236 4.347-2.233.758-1.754.758-1.754l-5.903-.959-4.21-.96z" class="D"/><g class="B"><path d="M377.55 210.32c1.038.239 9.572 1.874 10.29 2.034s1.316.318 1.516.118.319-.318 1.077-.599.719-1.036.719-1.036.199-.719.277-1.436.48-.957 1.317-.079.997 2.152 1.156 3.39 2.115 1.555 2.871 1.675 1.116-.12 1.556-.837.679-2.154.798-3.072.041-.837-.917-1.076l-6.183-1.437c-.796-.199-.637-.717-.518-1.275s1.874-6.183 1.874-6.183c-1.249-.772-3.004-1.232-5.104-1.475l-1.517 6.621c-.238.876-.798.876-1.714.716s-7.539-1.712-7.539-1.712l-.517 1.234c-.519 1.236-.758 2.713-.758 3.47s.27.74 1.3.97zm22.65 5.19c-.88-.575-1.527-.727-1.985.344s-.496 2.64-1.642 3.748-2.75 2.256-4.354 2.142-2.52-.498-2.139-2.333 2.827-2.409 3.399-3.365.42-2.065-.421-2.791-2.062-.88-2.405-.65-1.337 1.071-1.832 2.446-.802 2.486-1.872 3.366-3.817 1.759-5.955 1.261-2.901-1.147-3.704-3.25l-2.177-5.965c-.419-.382-.954-.688-1.87-.039s-.993 1.606-1.107 2.372 0 1.646.915 2.754 1.872 2.217 2.216 3.363 1.374 2.907-.077 2.983-2.099.114-3.207-.955-5.423-4.016-6.605-4.973l-1.68-1.261c-1.997-.035-3.997-.856-5.994-2.217l1.374 4.052c.229 1.109.191 1.72.191 1.72l6.071 3.06c1.718.841 5.192 2.83 6.871 3.861s3.094 2.64 6.072 2.028 9.01-2.447 10.957-3.021 7.332-1.912 9.317-3.288 2.177-1.3 2.519-2.677c.34-1.35 0-2.11-.88-2.69z"/><path d="M388.71 194.92l1.479-.221c1.017-.134.64.84.463 1.216s-.485 1.127-.903 1.834.131.82.418.93.706.155 1.523.377.662-.377.685-.686l.155-2.499c.088-.574.617-.42.816-.31l1.127.617c.418.224.617-.021.706-.264s.286-.685.464-1.327-.221-.509-.62-.509-.971 0-1.633-.021-.243-.664-.243-.664l.861-1.393c.376-.597.244-.685-.133-.797l-1.876-.464c-.331-.087-.485-.044-.485.178l-.045 1.813c0 .441-.043.707-.618.729s-.928-.312-1.391-.819-.662-.309-.707-.109l-.508 2.056c-.11.39.11.37.44.32zm3.2 14.49s-.041 1.157-.16 1.555-.398.998.08 1.157.917.358 1.194.279.16-.638 0-1.116-.397-1.078-.757-1.476l-.35-.39zm7.02 4.62c.16.358.479.438.719.519s.559.079.559-.359.079-.997-.278-1.476-.55-.828-.758-.12c-.21.72-.4 1.09-.24 1.44zm-24.45-4.66c.199.04.957.279.957.279s0-1.117.159-1.875.479-1.275.2-1.275-.438.239-.64.558-.758.399-.956 1.316c-.2.91.08.95.28.99z"/></g><g class="C"><circle cy="207.45" cx="379.27" r="1.556"/><circle cy="208.53" cx="383.65" r="1.595"/><circle cy="211.24" cx="396.42" r="1.596"/><circle cy="209.57" cx="388.04" r="1.596"/><circle cy="205.74" cx="389.2" r="1.596"/><circle cy="201.91" cx="390.32" r="1.596"/></g><g class="B"><circle cy="207.3" cx="379.38" r=".777"/><circle cy="208.37" cx="383.77" r=".798"/><circle cy="211.08" cx="396.54" r=".797"/><circle cy="209.41" cx="388.16" r=".797"/><circle cy="205.58" cx="389.32" r=".797"/><circle cy="201.75" cx="390.44" r=".798"/></g><use xlink:href="#A" transform="matrix(-1 0 0 1 639.96566 0)" height="320" width="640"/></svg>