<svg xmlns="http://www.w3.org/2000/svg" width="1200" height="600"  xmlns:v="https://vecta.io/nano"><clipPath id="A"><path d="M0,0V150H700V300H600zM600,0H300V350H0V300z"/></clipPath><path fill="#00247d" d="M0 0h1200v600H0z"/><path d="M0,0 600,300M600,0 0,300" stroke="#fff" stroke-width="60"/><path d="M0,0 600,300M600,0 0,300" stroke="#cf142b" stroke-width="40" clip-path="url(#A)"/><path d="M300,0V350M0,150H700" stroke="#fff" stroke-width="100"/><path d="M300,0V350M0,150H700" stroke="#cf142b" stroke-width="60"/><path d="M0 300h600V0h600v600H0z" fill="#00247d"/><path fill="#fff" d="M769.466 147.526h256.879l-.306 182.787c2.137 73.48-43.662 119.076-127.931 139.634-59.834-14.86-128.837-45.596-128.939-137.549l.305-184.872z"/><path fill="#00a2bd" stroke="#000" stroke-width="1.813" d="M775.152 153.036h245.493l-.291 175.155c2.042 70.41-41.727 114.102-122.261 133.802-57.188-14.237-123.132-43.692-123.229-131.805l.292-177.152z"/><path fill="#a53d08" d="M1018.74 348.938c-8.931 67.21-60.692 96.576-120.655 112.162-53.073-14.238-110.174-36.968-121.243-111.824l241.901-.338z"/><path d="M888.365 185.664l-.342-22.075 17.455.171.171 21.904h47.743l.171 17.113-47.914.171-.383 201.815-17.026.107-.217-202.093-47.582.171.01-17.455z"/><g stroke="#000"><g fill="#ff9a08"><g stroke-width=".968"><path d="M849.714 357.267l43.703 45.338c15.112-16.61 4.63-78.695-15.247-90.13-2.382 7.352-6.434 16.166-10.74 19.008-9.474 6.457-32.692 14.006-24.932 18.84 1.77-2.451 6.399-4.765 8.577.682 2.587 8.577-9.667 9.122-9.667 9.122s-7.76-.954-9.122-8.851 11.559-15.105 12.662-15.656c1.089-.409 17.971-4.901 20.831-19.878 3.54-14.705 7.215-12.525 7.897-12.798 22.055 2.178 36.487 41.662 37.305 69.436s-11.3 46.154-13.479 47.379-52.553-59.768-52.553-59.768l4.765-2.723z" fill-rule="evenodd"/><path d="M881.573 315.061l.271 81.825m-5.172-80.328l.271 74.338m-5.581-63.582l.271 59.088m-4.628-54.868l.273 48.879m-4.902-46.7v41.253m-5.038-37.985v32.675m-4.356-30.088v25.051"/></g><g fill="none" stroke="#ffdf00" stroke-linecap="round"><path stroke-width=".968" d="M849.033 362.441l45.065 51.6"/><path d="M896.276 329.901s20.424 44.658 1.498 81.417m-54.051-58.272s1.498-3.948 3.404-2.314m-6.943-9.122s-8.169 7.215-3.676 11.845" stroke-width="1.813"/></g></g><path fill="#008021" d="M905.779 228.044c3.025-2.595 4.595-4.181 6.468-3.892s4.424.144 6.298-.433c1.88-.577 11.177-1.73 15-.433 1.298.144 3.025.866 5.69 3.101 2.671 2.234 6.563 6.128 5.266 16.941s-.873 15.439-1.443 21.483c-1.006 10.67-3.373 19.455-7.639 18.744 5.766 10.093 6.342 18.744 10.089 25.665 3.753 6.921 6.057 21.051 4.614 36.335-1.437 15.284-5.475 49.599 6.633 72.669-2.019 1.442-6.918 0-11.247-4.614-4.323-4.614-6.222-4.463-9.804-1.73-10.956 8.363-21.216 18.442-36.33 8.363-3.462-2.307-4.557-5.074-2.019-12.112 6.342-17.59 9.424-41.725 8.424-53.06V228.044z" stroke-width=".399"/><path d="M916.171 217.23c.791 2.451 1.222 5.623-.076 8.506s-1.582 6.344.576 10.525c3.462-4.902 8.367-3.892 11.247-6.776 2.886-2.884 3.462-5.624 5.627-6.201-2.165-1.874-5.481-3.892-4.76-9.372s8.361-9.948 1.443-18.312c-4.468-5.398-10.962-3.892-13.772-1.802-1.323.982-2.449 2.379-2.88 3.316-.437.937.108 3.07-.943 4.326-.715.865-1.589 1.725-2.595 2.451-.646.469-1.051 1.152-.361 1.947.278.318.785.385 1.342.578-.323.649-.69 1.296-1.051 1.765-.342.44-.196.86.215 1.218-.544 1.73.506 1.918-.215 3.216-.627 1.122-1.475 2.45.867 3.749.646.36 3.715 1.072 5.336.865zm-28.045 28.693c-4.038 1.01-10.525-.72-15.431-.144-2.165.256-3.892-.865-3.601-3.027.285-2.163.576-5.479.139-8.507-.671-4.718 1.589-11.246 4.76-18.456s4.76-11.246 4.76-14.635c0-2.235.215-4.758 2.234-6.056 1.494-.959 1.779-1.89 2.31-2.667 1.222-1.803 2.373-2.235 2.519-1.153.089.643-.146 1.225-.722 2.091 1.298-1.082 3.5-2.344 4-2.704.506-.36 3.07-2.163 3.209-.468 1.013-.504 1.696-.469 1.949.071.272.585.108.83-.399 1.262.722-.144 1.551 1.118.108 2.235.76-.253 1.513 1.01.184 2.163-1.38 1.191-2.956 2.019-3.462 2.956s-3.93 3.569-5.298 4.146-1.443 1.368-1.443 3.388c0 22.204-2.665 20.4-2.665 25.737 0 1.442-.291 2.739 1.152 2.306s3.532-1.081 5.696-1.081v12.544zm.861 47.869c6.519-3.258 13.988-4.47 17.88-5.479s10.095-4.037 13.12-5.623c3.032-1.587 5.481-3.749 7.209-4.326 1.734-.577 3.671-1.77 4.76-3.892 5.62-10.958 8.652-19.752 8.652-27.395 0-5.046-1.297-10.67-6.203-6.632-4.608 3.795-9.627 11.11-10.956 16.437-2.019 8.074-3.747 9.805-4.184 11.39-.43 1.587-2.063 1.585-4.038 2.019-8.506 1.875-10.525 3.172-16.867 7.93s-13.266 8.94-17.88 11.535-5.475 2.884-6.487 4.974c-1.006 2.091-1.943 3.677-2.81 4.615s-1.114 2.032-.937 3.172c.146.937-.291 5.263-.361 6.705-.076 1.442.285 1.803.867 1.874.576.073 1.367-.216 1.658-1.946-.291 1.73 2.089 1.153 2.234-.144-.076 1.874 2.449.793 2.595-.937 0 1.225 1.911.378 2.089-.216.43-1.442.791-3.028 1.367-4.181.842-1.674 1.741-3.842 3.392-5.047 1.873-1.37 1.006-2.884 4.899-4.83zm46.716 118.088c.437 1.586 1.228 3.389 1.513 4.47.291 1.081-.215 1.418-.5 2.018-1.513 3.172-3.139 8.229-3.392 10.958-.139 1.586-1.222 3.1-1.728 4.037-.557 1.034-.342 1.831.937 2.811.614.468 2.595-.144 2.81-1.153.722.72 2.019.432 2.595-.649.652.649 1.734.216 2.456-.865.646.432 1.582-.433 1.943-1.01 1.013.505 2.095-.108 2.127-2.09.006-.398.253-1.082.544-1.55.285-.469.392-1.37.361-2.163-.038-.793.468-2.379 1.152-3.496s1.873-3.1 1.367-4.974c-.468-1.746-1.222-1.586-1.873-4.109-1.582-1.659-3.747-3.966-5.981-4.11s-3.532 1.37-4.329 1.875zm-41.02 12.4c2.019 2.018 6.563 2.091 9.734-1.298-1.152-.504-3.677-1.658-4.829-2.595-1.589 1.586-3.392 3.388-4.905 3.893z" fill="#ffe1cf" stroke-width=".399"/><path fill="#870f00" d="M915.089 195.026c.791-5.118 4.418-4.998 6.703-4.47.937.216 3.247.432 5.405-.144 4.279-1.14 7.5.361 7.07 4.47 1.152.865 2.373 2.883 2.158 4.614s.146 2.451 1.734 2.667c1.582.217 4.975 2.163 2.734 4.903 2.165 1.298 3.823 4.614 2.671 6.849s-4.614 2.596-6.057.577c-1.582.721-4.184.865-5.766-.792-1.082 1.297-3.823 1.153-4.329 0-.5-1.154-1.354-1.771-2.373-2.091-1.158-.36-1.228-3.532.5-3.893-.215-.937-.139-2.018.291-2.523s.07-1.442-.937-2.235c-1.013-.793-1.873-3.821-.867-5.479-1.728.577-5.551-1.082-6.342-2.235-.797-1.154-1.873-1.225-2.595-.216z" stroke-width=".399"/><g fill="none" stroke-width=".399"><path d="M916.171 217.23c2.81-.361 3.747-2.091 5.836-1.947m-11.823-5.882c.184.162.418.294.684.441.57.308 1.19.343 1.766.415m-1.615-3.839c.392.135.81.333 1.184.719m5.335-12.111c-1.658-1.586 2.81-4.83 7.5-.216.873.861 3.095.866 3.747.649m-4.759 2.018c2.165-.505 5.405-.505 6.342 1.946.943 2.451 2.817.865 4.329 3.749s3.892 6.127 6.196 3.892m-9.152 6.634c-.652-.865-.937-2.74-.506-4.038-.867-1.009-.506-3.099 0-4.109m-5.696 2.163c.076.865 1.228 2.451 3.032 2.739m8.936 4.038c-1.006-1.298-.867-2.451-.646-4.037"/><path d="M926.982 200.145c-.07 1.297.722 3.028 2.089 3.605.291.72 1.734 2.739 4.614 2.451m.582-11.319c-1.582-1.228-3.728-2.741-6.563-3.115m-11.033 44.495c-2.449 3.317-4.038 7.93-2.88 14.419 1.152 6.489 3.025 16.005-1.734 20.33m23.361 12.544c-3.317-.72-8.076-.72-10.671 1.154s-6.924 2.018-9.804.577"/><path d="M928.425 283.339c-2.886.504-4.253 2.523-4.253 7.858s-1.152 13.12-.146 20.762m-.867-26.385c-1.873.504-3.817.576-3.456 5.623m-6.272.144c.07-3.1 1.152-5.984 3.171-5.479m17.589 6.056c.146-6.849-1.367-8.795-3.386-8.723 2.741.072 4.608.407 5.766 11.607.867 8.363 2.614 11.323 4.614 17.88 5.19 17.014 2.595 43.255 5.19 52.483m-16.147-71.229c5.475 15.861 8.361 33.451-.576 61.711 6.051 16.726 12.108 28.837 13.26 35.758m-29.988-59.981c1.006-3.604-2.595-4.037.576-16.725 1.373-5.496 1.589-8.795.722-10.526m0 7.499c-1.298 5.624 4.184 16.149 1.443 23.79m-6.779 1.442c0 4.902 1.152 11.246.867 16.149-.291 4.902 1.709 7.174 4.038 11.823 8.361 16.726 14.051 28.659 13.26 44.409-.139 2.884.867 8.939-2.158 10.669m-15.792 4.254c.867.072 1.804-.36 2.886-2.956s4.544-18.167 3.101-28.837m1.729 12.112c.43 3.316.43 10.093-1.728 15.428m7.209-25.377c1.297 7.065 1.152 13.41.146 17.879m-3.032-.001c.146 2.884 1.443 10.093-.722 10.671m11.538-44.121c5.329 8.363 9.513 28.982 13.981 33.306m-9.367-3.316c-.146-2.307-.291-5.479-1.589-6.921m-56.013-94.008c.07-1.587-.215-3.101 1.513-5.551m-4.108 6.488c.215-5.551.139-6.056 1.728-7.57m-3.962 7.714c.07-3.965-.437-5.335 1.152-7.858m18.741-111.094c-.614.396-4.215 3.136-5.728 4.289m7.278-2.956c-.684.108-2.665 1.73-6.196 4.47m6.304-2.235c-1.114.504-3.241 2.56-5.19 3.929m-3.677-4.325c-.538.396-1.582 1.55-2.089 1.946m52.337 239.708c-.323-.361-.323-1.623.253-3.028m2.341 2.379c-.392-.396 0-2.127.399-3.244m2.057 2.379c-.468-.216-.614-1.226.07-2.596m1.873 1.586c-.323-.108-.468-.649.108-2.234"/></g><path d="M913.969 199.567c1.044 1.37 2.127 1.225 2.317 2.108s.329.947.532 1.209-.494.209-.835.068c-.335-.141-1.184-.127-1.703-.119-.513.008-1.127-.599-.741-.67.38-.071.329-.191.272-.459s.215-.693.373-.771c.165-.078.051-.063-.095-.423-.152-.361-.342-1.236-.12-.941zm.633-1.254c1.171.137 3.19.77 4.285 1.982.861.953.158.701-.278.736s-1.291-.273-1.722-.815c-.424-.541-1.696-1.227-2.373-1.406-.411-.106-.797-.602.089-.497z" stroke="none"/></g></svg>