<svg xmlns="http://www.w3.org/2000/svg" xmlns:xlink="http://www.w3.org/1999/xlink" width="2800" height="1400" xmlns:v="https://vecta.io/nano"><path d="M0 0h2800v1400H0z" fill="#cc0001"/><path id="A" d="M0 1300h2800v100H0z" fill="#fff"/><use xlink:href="#A" y="-200"/><use xlink:href="#A" y="-400"/><use xlink:href="#A" y="-600"/><use xlink:href="#A" y="-800"/><use xlink:href="#A" y="-1000"/><use xlink:href="#A" y="-1200"/><path d="M0 0h1400v800H0z" fill="#010066"/><path d="M576 100c-166.146 0-301 134.406-301 300s134.854 300 301 300c60.027 0 115.955-17.564 162.927-47.783-27.353 9.439-56.709 14.602-87.271 14.602-147.327 0-266.897-119.172-266.897-266.01s119.57-266.01 266.897-266.01c32.558 0 63.746 5.815 92.602 16.467C696.217 118.91 638.305 100 576 100zm499.167 456.174l-126.79-66.153 37.488 135.388-84.804-113.253L874.605 650l-26.021-137.923-85.161 112.998L801.338 489.8 674.34 555.571l94.343-105.834L625 455.254l132.084-55.432-131.908-55.829 143.664 5.95-94.008-106.117 126.79 66.153-37.488-135.388 84.804 113.253L875.395 150l26.021 137.923 85.161-112.998L948.662 310.2l126.999-65.771-94.343 105.834L1125 344.746l-132.084 55.432 131.908 55.829-143.664-5.95z" fill="#fc0"/></svg>