<svg xmlns="http://www.w3.org/2000/svg" xmlns:xlink="http://www.w3.org/1999/xlink" width="1000" height="600" xmlns:v="https://vecta.io/nano"><defs><linearGradient id="A" gradientUnits="userSpaceOnUse" x1="498.738" y1="289.055" x2="500.626" y2="283.42"><stop stop-color="#510000" offset="0"/><stop stop-color="#8a0000" offset=".3"/><stop stop-color="#a00" offset="1"/></linearGradient><linearGradient id="B" gradientUnits="userSpaceOnUse" x1="501.444" y1="291.373" x2="502.927" y2="287.449"><stop stop-color="#ff2a2a" offset="0"/><stop stop-color="red" offset="1"/></linearGradient><linearGradient id="C" gradientUnits="userSpaceOnUse" x1="484.764" y1="311.709" x2="484.764" y2="317.647"><stop stop-color="#f5f549" offset="0"/><stop stop-color="#97c924" offset="1"/></linearGradient><linearGradient id="D" gradientUnits="userSpaceOnUse"><stop stop-color="#025" offset="0"/><stop stop-color="#04a" offset=".5"/><stop stop-color="#025" offset="1"/></linearGradient><linearGradient id="E" xlink:href="#D" x1="444.509" y1="317.486" x2="634.411" y2="317.486"/><clipPath id="F"><path fill="#000" d="M500 226.375l-63.702 110.332H563.7z"/></clipPath><path id="G" d="M529.938 298.902c-.412 6.034-2.277 13.192-6.644 17.811-1.607 1.337-3.66 2.55-5.646 2.255 6.77-5.51 10.885-13.947 12.29-20.065z"/></defs><path fill="#0067c6" d="M0 0h1000v600H0z"/><path fill="#fff" d="M0 200h1000v200H0z"/><path d="M410 299.329l9.979.667.098-1.458-3.925-.262.304-4.809 4.161-3.017.123-1.848-4.388 3.186c-.148-1.038-.722-2.107-1.765-2.468-.913-.331-2.032-.388-2.823.264-1.003.738-1.184 2.059-1.314 3.208l-.451 6.538zm1.519-1.362l.351-4.914c.123-.808.271-1.742.979-2.257.64-.425 1.585-.109 1.846.614.522 1.247.29 2.622.223 3.93l-.19 2.841-3.21-.214zm-.22-13.961l9.738 2.274 2.213-9.478-1.384-.323-1.883 8.063-2.964-.692 1.697-7.266-1.377-.321-1.696 7.266-2.623-.612 1.812-7.76-1.391-.325-2.142 9.176zm3.508-13.077l9.445 3.285.48-1.379-3.715-1.292 1.462-4.284c.32-1.177.567-2.553-.126-3.647-.562-.809-1.562-1.328-2.549-1.296-1.089.047-1.975.848-2.458 1.775-.714 1.342-1.114 2.818-1.635 4.24l-.904 2.599zm1.825-.912l1.509-4.255c.34-.749.755-1.637 1.617-1.875.709-.162 1.452.382 1.513 1.109.173 1.336-.411 2.597-.821 3.837l-.78 2.242-3.039-1.057zm3.392-11.184l5.338 3.107c1.01.543 2.291.854 3.347.245 1.441-.798 2.343-2.271 3.051-3.707.558-1.21.962-2.714.252-3.951-.765-1.235-2.156-1.803-3.344-2.54l-3.457-2.022-.734 1.255 5.086 2.986c.806.491 1.474 1.381 1.336 2.369-.159 1.178-.832 2.212-1.503 3.164-.553.771-1.483 1.394-2.469 1.185-1.029-.197-1.865-.871-2.769-1.357l-3.399-1.988-.734 1.255zm7.203-11.771l7.942 6.077 3.701-4.824c.712-1.022 1.368-2.351.885-3.604-.439-.997-1.466-1.77-2.567-1.821-.497-.068-1.146.308-1.415.474.283-1.066-.589-2.068-1.572-2.35-1.182-.42-2.381.338-3.162 1.178-.92 1.001-1.689 2.129-2.531 3.195l-1.282 1.675zm2.014-.298l2.783-3.576c.453-.504 1.179-1.075 1.882-.705.64.278.798 1.085.492 1.666-.485 1.04-1.286 1.883-1.954 2.805l-1.091 1.426-2.112-1.616zm3.236 2.476l2.89-3.703c.52-.544 1.172-1.229 1.997-1.072.704.162 1.217.927.973 1.636-.396 1.309-1.376 2.311-2.164 3.396l-1.241 1.622-2.455-1.879zm3.754-12.785l6.868 7.269 5.883-5.558-.976-1.033-4.826 4.56-5.892-6.236zm8.804-7.703l6.095 7.928 1.189-.914-6.095-7.928zm8.956-6.082c-.988.615-1.784 1.335-2.398 2.176s-.941 1.71-.989 2.622.195 1.795.733 2.657a5.15 5.15 0 0 0 1.976 1.844 4.46 4.46 0 0 0 2.676.492c.965-.108 2.055-.535 3.269-1.291 1.165-.726 1.991-1.562 2.5-2.525.488-.923.626-1.904.416-2.947l-1.383.542c.362 1.999-.927 2.959-2.37 3.875-2.259 1.374-4.46 1.275-5.808-.79-1.398-2.328.13-4.251 2.052-5.5 1.364-.851 2.708-1.433 3.987-.619l1.083-.964c-.746-.515-1.592-.753-2.556-.699-1.012.056-2.068.428-3.189 1.126zm11.817-5.897l-1.047 11.206 1.557-.628.315-3.474.006-.003 5.058-2.039 2.636 2.284 1.557-.628-8.526-7.346-1.557.628zm1.368 1.149l3.325 2.878-3.723 1.501.399-4.379zm20.55-7.331l.624 9.981 5.414-.356c1.418-.162 2.939-.531 3.908-1.659 1.251-1.388 1.429-3.462.881-5.189-.46-1.521-1.827-2.671-3.376-2.963-1.524-.293-3.078-.062-4.614.008l-2.838.177zm1.539 1.327l4.31-.224c.816-.024 1.629.215 2.288.701 1.001.684 1.588 1.916 1.457 3.125-.071 1.39-1.093 2.669-2.444 3.02-.773.2-1.576.256-2.367.344l-2.796.175-.447-7.141zM501.664 210l-.571 9.984 9.717.555.081-1.419-8.266-.472.173-3.039 7.449.425.081-1.411-7.449-.425.153-2.689 7.956.454.082-1.426-9.407-.538zm26.11 4.166l-3.616 9.323 1.286.499 3.016-7.776.16.427 3.448 9.919 1.684.653 3.616-9.323-1.289-.5-3.012 7.766-.158-.422-3.454-9.913zm13.434 5.771l-4.546 8.907-1.336-.682 4.546-8.907zm7.543 4.419c-.971-.641-1.958-1.065-2.978-1.271s-1.947-.142-2.796.195-1.549.926-2.109 1.775c-.513.777-.795 1.633-.852 2.565a4.47 4.47 0 0 0 .669 2.637c.501.832 1.344 1.644 2.537 2.432 1.146.756 2.251 1.158 3.338 1.219a4.31 4.31 0 0 0 2.852-.851l-1.07-1.031c-1.665 1.163-3.076.392-4.51-.537-2.191-1.479-3.019-3.521-1.706-5.608 1.532-2.242 3.917-1.656 5.854-.43 1.343.884 2.432 1.863 2.226 3.366l1.328.582a3.97 3.97 0 0 0-.431-2.614c-.473-.896-1.252-1.701-2.354-2.428zm9.521 7.182l-10.453 4.17 1.268 1.101 3.236-1.302.005.005 4.119 3.575-.833 3.387 1.268 1.101 2.658-10.936-1.268-1.101zm-.4 1.741l-1.049 4.27-3.032-2.632 4.08-1.639zm7.953 5.207l-7.716 6.363.929 1.127 3.035-2.503 3.08 3.707-.956 5.05 1.178 1.429 1.006-5.329c.864.708 2.128 1.063 3.16.502.888-.42 1.67-1.228 1.716-2.257.108-1.379-.875-2.496-1.662-3.519l-3.769-4.571zm-.17 2.034l3.246 3.999c.476.707 1.069 1.701.523 2.528-.45.707-1.435.645-2.039.186-1.225-.824-2.033-2.087-2.989-3.184l-1.223-1.483 2.482-2.047zm11.868 13.881l-11.243.515.838 1.455 3.484-.169.003.006 2.72 4.727-1.897 2.927.838 1.455 6.094-9.462-.838-1.455zm-.948 1.514l-2.39 3.691-2.002-3.48 4.392-.212zm7.364 11.723c-.625-1.697-1.611-3.434-3.28-4.282-1.857-.933-4.328-.479-5.645 1.156-1.147 1.359-1.206 3.281-.899 4.952.362 1.918 1.241 3.744 2.563 5.185l-.747.268.478 1.331 4.684-1.684-1.822-5.058-1.082.389 1.34 3.728-1.587.57c-1.4-1.203-2.181-2.98-2.586-4.748-.301-1.327-.313-2.917.694-3.961 1.154-1.201 3.201-1.574 4.587-.55 1.367 1 2.138 2.622 2.528 4.233.267 1.06.223 2.32-.581 3.147-.225.169.132.404.193.605l.382.631a3.53 3.53 0 0 0 1.344-2.797c.028-1.064-.206-2.121-.564-3.118zm2.872 7.809l-5.593 1.088c-1.038.202-1.816.531-2.335.968s-.849 1.052-1.009 1.871c-.158.81-.135 1.803.097 3.011l.005.028c.237 1.207.589 2.136 1.039 2.828.455.699.993 1.146 1.637 1.356s1.489.224 2.527.022l5.593-1.088-.278-1.427-5.457 1.062c-2.45.477-3.275-.813-3.696-3.019l-.005-.028c-.437-2.203-.155-3.707 2.295-4.184l5.457-1.062-.278-1.427zm3.068 17.02l-10.348-4.425.121 1.675 3.211 1.363v.007l.394 5.44-2.981 1.811.121 1.675 9.602-5.87-.121-1.675zm-1.512.951l-3.757 2.285-.29-4.004 4.047 1.719zm-170.615 24.917l-1.451.382 1.604 6.092 1.451-.382zm164.531 0l1.451.382-1.604 6.092-1.451-.382zm-149.066 25.654l-11.181 1.286.936 1.394 3.464-.408.004.006 3.039 4.529-1.692 3.051.936 1.394 5.43-9.858-.936-1.394zm-.842 1.576l-2.13 3.847-2.237-3.334 4.367-.513zm5.122 4.533l-7.127 6.665.952 1.018 6.006-5.617-3.151 8.67 1.092 1.167 8.611-2.614-5.898 5.515.952 1.018 7.127-6.665-1.446-1.546-8.751 2.614 3.277-8.469zm10.381 10.591l-6.016 7.988 7.775 5.855.855-1.135-6.614-4.981 1.831-2.432 5.96 4.488.85-1.129-5.96-4.488 1.62-2.152 6.366 4.794.859-1.141-7.527-5.668zm9.784 7.161l-4.71 8.823 1.288.688 1.852-3.47 4.259 2.254 1.04 5.034 1.634.872-1.1-5.31c1.069.325 2.372.173 3.113-.74.629-.705 1.058-1.693.756-2.639-.351-1.303-1.634-1.986-2.717-2.617l-5.416-2.894zm.617 1.945l4.525 2.461c.685.462 1.553 1.095 1.467 2.027-.076.818-.958 1.254-1.703 1.081-1.459-.242-2.69-1.112-3.99-1.761l-1.814-.968 1.515-2.838zm10.678 3.961l-3.779 9.259 1.389.567 3.779-9.259zm9.018 3.115c-1.104-.367-2.167-.52-3.206-.455s-1.917.369-2.649.915-1.256 1.297-1.576 2.261c-.293.884-.344 1.784-.156 2.699a4.46 4.46 0 0 0 1.331 2.373c.704.677 1.725 1.239 3.082 1.69 1.303.433 2.474.534 3.54.311 1.022-.214 1.864-.735 2.533-1.563l-1.301-.718c-1.306 1.555-2.868 1.177-4.495.652-2.5-.86-3.83-2.617-3.103-4.973.898-2.563 3.353-2.616 5.542-1.935 1.526.505 2.833 1.168 3.023 2.672l1.433.217c-.08-.902-.438-1.706-1.095-2.413-.689-.743-1.651-1.318-2.904-1.734zm10.054 2.251l-6.54 9.159 1.662.24 2.019-2.845.007.001 5.398.781 1.13 3.3 1.662.24-3.676-10.637-1.662-.24zm.605 1.681l1.426 4.159-3.973-.575 2.547-3.585zm22.836-1.61c-1.143.221-2.144.607-3.018 1.172s-1.491 1.26-1.863 2.094-.46 1.745-.268 2.743a5.15 5.15 0 0 0 1.184 2.43c.611.706 1.377 1.172 2.322 1.418s2.11.237 3.514-.035c1.348-.26 2.419-.745 3.239-1.462.787-.687 1.266-1.553 1.445-2.603l-1.485.011c-.378 1.996-1.925 2.431-3.601 2.769-2.601.474-4.62-.408-5.14-2.818-.472-2.674 1.644-3.922 3.886-4.4 1.578-.306 3.042-.368 3.944.851l1.356-.512a3.98 3.98 0 0 0-2.135-1.568c-.964-.31-2.084-.341-3.381-.091zm6.678-1.183l2.844 9.587 9.331-2.768-.404-1.362-7.938 2.355-.866-2.918 7.153-2.122-.402-1.355-7.153 2.122-.766-2.582 7.64-2.267-.406-1.369-9.033 2.68zm10.818-3.4l4.198 9.076 1.252-.579-3.502-7.57 9.685 4.464c.215.187.431.062.646-.053l1.259-.582-4.198-9.076-1.255.581 3.497 7.56-9.946-4.577-1.636.757zm10.981-5.158l.783 1.19 3.707-2.44 4.714 7.163 1.214-.799-4.714-7.163 3.728-2.453-.783-1.19zm10.062-6.89l6.777 7.355 1.074-.989-2.666-2.893 3.532-3.279 5.095.678 1.362-1.255-5.376-.711c.659-.902.945-2.183.328-3.183-.468-.864-1.318-1.6-2.348-1.59-1.382-.032-2.444 1.011-3.422 1.853l-4.357 4.014zm2.04.058l3.815-3.461c.68-.514 1.64-1.16 2.495-.661.731.41.723 1.397.298 2.026-.756 1.269-1.975 2.147-3.018 3.163l-1.41 1.299-2.18-2.366zm9.594-11.702l4.473 10.327 1.063-1.3-1.396-3.197.004-.005 3.453-4.221 3.41.734 1.063-1.3-11.009-2.338-1.063 1.3zm1.752.349l4.299.923-2.542 3.107-1.757-4.031zm2.603-6.014l8.39 5.441 4.403-6.79-1.192-.773-3.612 5.571-.106-.069-7.092-4.599z" fill="#c8a400"/><g clip-path="url(#F)"><path fill="#fff" d="M500.001 226.408l-46.899 81.237H546.9l-46.899-81.237z"/><g id="H"><g id="I"><path fill="#17c0eb" stroke="#17c0eb" stroke-width=".129" opacity=".62" d="M500.001 226.408l-2.357 4.082 2.357 54.977 2.357-54.977z"/><path fill="#fff" d="M500.001 277.475l-.134.003.134 3.111.134-3.111-.134-.003z"/></g><use xlink:href="#I" transform="rotate(72 500.001 285.467)"/><use xlink:href="#I" transform="rotate(144 500.001 285.467)"/><use xlink:href="#I" transform="rotate(216 500.001 285.467)"/><use xlink:href="#I" transform="rotate(288 500.001 285.467)"/></g><use xlink:href="#H" transform="rotate(8 500.001 285.467)"/><use xlink:href="#H" transform="rotate(16 500.001 285.467)"/><use xlink:href="#H" transform="rotate(24 500.001 285.467)"/><use xlink:href="#H" transform="rotate(32 500.001 285.467)"/><use xlink:href="#H" transform="rotate(40 500.001 285.467)"/><use xlink:href="#H" transform="rotate(48 500.001 285.467)"/><use xlink:href="#H" transform="rotate(56 500.001 285.467)"/><use xlink:href="#H" transform="rotate(64 500.001 285.467)"/><path fill="red" d="M500 265.844c-11.067 0-21.195 4.051-28.969 10.75L456.375 302c-.501 2.67-.75 5.434-.75 8.25h5.031c0-21.726 17.617-39.344 39.344-39.344s39.344 17.617 39.344 39.344h5.031c0-2.813-.25-5.582-.75-8.25l-14.656-25.406c-7.773-6.697-17.904-10.75-28.969-10.75z"/><path fill="#f60" d="M500 266.656c-11.764 0-22.439 4.675-30.281 12.25l-12.031 20.844c-.834 3.366-1.281 6.876-1.281 10.5h4.25c0-21.726 17.617-39.344 39.344-39.344s39.344 17.617 39.344 39.344h4.25c0-3.625-.447-7.164-1.281-10.531l-12.031-20.812c-7.841-7.575-18.518-12.25-30.281-12.25z"/><path fill="#ff0" d="M500 267.469c-12.702 0-24.101 5.522-31.937 14.313l-8.719 15.094c-1.384 4.208-2.125 8.703-2.125 13.375h3.438c0-21.726 17.617-39.344 39.344-39.344s39.344 17.617 39.344 39.344h3.438c0-4.673-.74-9.165-2.125-13.375l-8.719-15.095c-7.836-8.788-19.237-14.312-31.938-14.312z"/><path fill="#0f0" d="M500 268.25c-14.55 0-27.372 7.414-34.906 18.656l-2.812 4.875c-2.735 5.574-4.282 11.842-4.282 18.469h2.656c0-21.726 17.617-39.344 39.344-39.344s39.344 17.617 39.344 39.344h2.656c0-6.616-1.556-12.871-4.281-18.437l-2.844-4.937c-7.536-11.227-20.337-18.625-34.875-18.625z"/><path fill="#0cf" d="M500 269.062c-22.747 0-41.187 18.44-41.187 41.188h1.844c0-21.726 17.617-39.344 39.344-39.344s39.344 17.617 39.344 39.344h1.844c0-22.747-18.44-41.187-41.187-41.187z"/><path fill="#00f" d="M500 269.844c-22.306 0-40.375 18.1-40.375 40.406h1.344c0-21.559 17.472-39.031 39.031-39.031s39.031 17.472 39.031 39.031h1.375c0-22.306-18.1-40.406-40.406-40.406z"/><path fill="purple" d="M500.001 270.657c-21.864 0-39.589 17.725-39.589 39.589l.007.734h.801l-.007-.734c0-21.422 17.366-38.788 38.788-38.788s38.788 17.366 38.788 38.788l-.007.734h.797l.007-.734c0-21.864-17.721-39.589-39.585-39.589z"/><path fill="#510000" d="M500.395 288.134c-.644-.124-1.226-.484-1.775-.609-.756.724-.835 1.456-.731 2.079.263.14.311.353.878.86s.496.773.462 1.965c-.014.502.07 1.581.579 1.682.549.109.932-.346 1.09-1.16.153-.791.418-1.216.698-1.702.307-1.852-.193-2.508-1.201-3.115z"/><path fill="red" d="M497.168 283.524c-.595.015-1.528 1.012-1.943.475-.238-.309-.279-.902-.037-1.4.559-1.151 1.124-1.716 2.167-2.33 2.378-1.401 3.889-.951 5.074 1.063 1.098 1.773 2.152 3.73 2.246 5.372.029.501.282 1.408-.156 1.86-1.348 1.389-4.596-1.435-6.497-.988-.639.15-1.377.617-1.98.218-.469-.31-.077-.997.273-1.294.612-.52 1.501-2.365 1.38-3.164-.068-.447-.08.178-.526.19z"/><path fill="url(#A)" d="M496.927 282.548c-1.083.445-.966 1.076-1.509 1.59.154.058.765.311 1.363-.301.258-.214.548-.293.677-.362-.305.222-.523.555-.684.685a5.19 5.19 0 0 0-1.341 1.846c-.306.764-.43 1.673-.375 1.782s.426.779 1.565 1.232c2.031.807 2.417 2.439 4.478 2.439 1.613 0 1.354-1.056 2.646-.832 1.119.194 1.714-.697.636-1.232-1.371-.469-4.092-.192-5.372.033-.413-4.084-.055-2.65-.152-4.405s-.623-1.861.072-3.281c-.578.872-1.277.734-2.004.807z"/><path fill="#ff2a2a" d="M500.938 279.795c-.04.223-.077.516-.055.6l.277.994c.115.336.162.579.24.928.081.36.401.5.694.722.37.28.084 1.038.314 1.069.184.025.488-1.071.49-1.247a3.8 3.8 0 0 0-.037-.647l-.425-.872-.203-.337c-.217-.318-.485-.612-.786-.863l-.055-.047-.259-.187-.194-.113z"/><path fill="url(#B)" d="M501.249 287.398c-.718-.188-1.426-.543-2.037-.725-1.2-.358-2.48-1.134-3.365-.813-.317.14-.289.456-.39.909-.042.534-.596 1.32-.136 1.062.685-.383 2.491.733 3.095 1.106.287.177.892.524 1.082 1.022s.092 1.756.041 2.296c-.053.566.119 1.835.686 1.987.611.164 1.078-.322 1.316-1.23.231-.881.405-1.387.757-1.915a1.85 1.85 0 0 1 1.32-.862c.564-.107 1.382.462 1.382-.203 0-.437-.384-.855-.221-1.454.128-.472-.401-.378-.842-.572-1.036-.319-1.969-.419-2.688-.607z"/><path fill="#910000" d="M498.363 288.902c-.327-.178-2.315-1.478-3.043-1.071-.23.129-.317-.016-.321-.257s.109-.594.184-.866.196-.792.516-1.062c.687-.579 2.269.575 3.108.887l-.445 2.37z"/><path fill="#ff3a3a" d="M501.763 291.361c.916-1.603 1.508-1.397 2.613-1.374.368.008.476-.329.392-.667-.278.624-1.662-.069-2.415.263-1.572.693-1.28 3.77-2.026 4.07.776.651 1.124-1.746 1.436-2.292z"/><g fill="url(#E)"><path fill="#fff" d="M453.103 307.645l-9.955 17.237h113.708l-9.955-17.237h-93.797z"/><g id="J"><path id="K" d="M449.705 321.364c-1.658 0-3.197.167-4.71.353l-.487.847 7.14-.709c3.293.08 6.284.829 9.786.829h4.526c3.499 0 6.489-.749 9.783-.829 3.296.08 6.304.829 9.804.829h4.53c3.499 0 6.474-.749 9.765-.829 3.293.08 6.269.829 9.768.829h4.544c3.499 0 6.49-.749 9.786-.829 3.296.079 6.281.829 9.783.829h4.53c3.499 0 6.475-.749 9.765-.829 2.551.062 4.921.518 7.486.723l-.515-.893-4.367-.321c-1.529-.021-3.036.031-4.547 0-3.499 0-6.474.748-9.765.829-3.296-.08-6.283-.829-9.786-.829-1.513-.021-3.03.031-4.526 0-3.499 0-6.493.749-9.786.829-3.294-.08-6.283-.829-9.783-.829-1.522-.021-3.042.031-4.547 0-3.499 0-6.475.749-9.765.829-3.294-.08-6.269-.829-9.768-.829-1.523-.021-3.026.031-4.526 0-3.503 0-6.49.749-9.786.829-3.294-.081-6.283-.829-9.783-.829-1.52-.021-3.043.031-4.547 0z"/><use xlink:href="#K" y="-1.113"/><use xlink:href="#K" y="-2.23"/></g><use xlink:href="#J" y="-3.344"/><use xlink:href="#J" y="-6.691"/><path d="M453.23 307.458l-.123.215h93.79l-.123-.215H453.23zm-.219.377l-.127.219h94.235l-.127-.219h-93.981zm-.201.346l-.205.356h94.792l-.205-.356H452.81zm-.317.55l-.25.434h95.519l-.25-.434h-95.018zm-.399.691l-.25.434h96.316l-.25-.434h-95.815zm-.399.691l-.247.43h97.106l-.247-.43h-96.612zm-.399.691l-.25.43h97.911l-.25-.43h-97.41zm-.43.744l-.303.529h98.877l-.303-.529h-98.27z"/><path d="M457.357 312.287c3.45.662 3.782 0 3.782 0zm81.503 0s.332.662 3.782 0z"/></g><g fill="#ccd11e"><g id="L"><path fill="url(#C)" d="M530.631 297.043c-1.709 0-2.232.862-2.232.862-2.737 10.576-11.808 21.333-22.601 21.333h-8.08v10.768h61.515l-6.187-10.954c-9.708-1.449-17.64-11.373-20.167-21.147 0 0-.54-.862-2.249-.862z"/><path fill="#97c924" d="M530.631 297.465c-.784 0-1.26.181-1.538.355-.264.165-.315.276-.321.288 0 .007-.015.01-.018.017-1.4 5.322-4.352 10.668-8.334 14.707-4.012 4.07-9.07 6.829-14.605 6.829h-7.675v9.923h60.856l-5.68-10.058c-4.688-.612-8.973-3.163-12.458-6.694-3.986-4.038-6.932-9.383-8.334-14.707l-.017-.017c-.007-.012-.07-.104-.338-.271-.283-.176-.754-.372-1.538-.372z"/><path fill="#ede71f" d="M530.63 297.465c.147 0 .28.021.406.034V308.3c-.029 2.34-.83 4.223-2.012 6.441-.547 1.554-.986.962-2.349 2.857-1.832.654-3.187.909-5.138 1.217-2.518.398-8.122.75-10.887.135 3.641-1.067 6.961-3.269 9.771-6.12a30.57 30.57 0 0 0 2.13-2.4c1.118-1.4 2.128-2.913 3.009-4.479.353-.626.686-1.249.997-1.893a33.86 33.86 0 0 0 1.251-2.941l.355-.997a31.32 31.32 0 0 0 .592-1.995c.002-.006.015-.01.017-.017.006-.012.058-.122.321-.287.136-.085.332-.17.575-.237a3.86 3.86 0 0 1 .963-.118z"/><use xlink:href="#G" fill="#c6cb24"/><path fill="#9ecb34" d="M524.494 309.281c-1.002 2.721-4.788 6.746-8.84 10.045-1.151.035-1.76.101-2.804.038 2.468-.225 8.222-5.083 11.644-10.083z"/></g><use xlink:href="#L" x="-15.341"/><g fill="#c6cb24"><path fill="url(#C)" d="M502.218 297.911c2.735 10.575 11.79 21.333 22.583 21.333h8.089v10.768h-65.812l-.017-10.768h8.072c10.793 0 19.863-10.757 22.6-21.333 0 0 .534-.866 2.243-.866s2.243.866 2.243.866z"/><path fill="#97c924" d="M499.975 297.465c.784 0 1.255.196 1.538.372.269.166.331.259.338.271l.017.017c1.402 5.323 4.348 10.668 8.334 14.707 4.016 4.07 9.087 6.829 14.623 6.829h7.64v9.922h-64.98v-9.922h7.674c5.536 0 10.593-2.76 14.605-6.829 3.982-4.038 6.934-9.384 8.334-14.707.003-.007.015-.01.017-.017.006-.012.058-.122.321-.288.279-.174.755-.355 1.538-.355z"/><path fill="#ede71f" d="M499.263 297.53l-.242.055c-.26.067-.453.151-.589.236-.264.165-.315.274-.321.286-.002.006-.016.011-.018.018l-.593 1.997-.356.995-1.249 2.942-.998 1.894c-.882 1.567-1.891 3.076-3.009 4.477a30.73 30.73 0 0 1-2.131 2.402c-2.81 2.85-6.128 5.05-9.768 6.117 2.765.615 4.032-.056 6.549-.454 1.952-.308 4.211-.563 6.043-1.217 1.364-1.894.899-1.3 1.446-2.854 1.181-2.218 2.905-4.222 3.334-6.682 1.619-3.021 1.903-8.614 1.903-10.213z"/><path d="M499.275 298.902c-.412 6.034-2.277 13.192-6.644 17.811-1.607 1.337-3.66 2.55-5.646 2.255 6.77-5.51 10.885-13.947 12.29-20.065z"/><path fill="#9ecb34" d="M493.832 309.281c-1.002 2.721-4.788 6.747-8.84 10.045-1.15.035-1.76.101-2.804.038 2.468-.225 8.222-5.083 11.644-10.083z"/><path fill="#ede71f" d="M500.951 297.584c.26.067.453.151.589.236.264.165.315.274.321.286.002.006.016.011.018.018l.593 1.997.356.995 1.249 2.942.998 1.894c.882 1.567 1.891 3.076 3.009 4.477a30.73 30.73 0 0 0 2.131 2.402c2.81 2.85 6.128 5.445 9.768 6.512-7.245.027-10.389-.63-13.022-4.017s-3.606-4.868-4.14-6.936-2.025-6.57-1.87-10.806z"/><path d="M501.476 298.902c.412 6.034 2.221 12.006 6.587 16.625 1.607 1.337 3.66 2.55 5.646 2.255-7.335-5.002-10.829-12.762-12.233-18.88z"/></g><g id="M"><path fill="url(#C)" d="M484.749 297.043c-1.709 0-2.248.862-2.248.862-2.522 9.746-11.825 22.318-21.496 23.811l-4.79 8.29h49.014v-11.349c-8.825-2.371-15.889-11.629-18.248-20.752 0 0-.523-.862-2.232-.862z"/><path fill="#97c924" d="M484.749 297.465c-.784 0-1.255.196-1.538.372-.269.166-.331.259-.338.271 0 0-.017.017-.017.017-1.402 5.323-4.677 10.704-8.08 14.989s-9.72 8.618-14.042 9.076l-4.283 7.394h48.06V318.89c-3.554-1.091-6.799-3.266-9.552-6.059-3.982-4.038-6.934-9.384-8.334-14.707-.002-.007-.015-.01-.017-.017-.006-.012-.058-.122-.321-.288-.279-.174-.755-.355-1.539-.355z"/><path fill="#93bc30" d="M483.445 298.903c-.617 9.043-5.653 20.454-11.34 22.419-1.854.642-5.098.864-6.227 1.009 9.949-4.732 15.828-15.854 17.567-23.428z"/><path fill="#ede71f" d="M484.746 297.465c-.147 0-.28.021-.406.034V308.3c.029 2.34.831 4.223 2.012 6.441a4.52 4.52 0 0 0 .203.49c.41 1.086.714 1.463 2.282 2.654 4.987 3.787 11.17 4.353 14.808 4.04-1.14-.898-2.358-1.715-3.432-2.468 1.712-.055 3.351-.249 4.514-.507-3.641-1.067-6.961-3.269-9.77-6.12-.49-.497-.945-1.022-1.403-1.555l-.592-.811c-1.118-1.4-2.263-2.947-3.144-4.514-.353-.626-.686-1.249-.997-1.893-.467-.966-.883-1.951-1.251-2.941l-.355-.997c-.222-.664-.417-1.33-.592-1.995-.002-.006-.015-.01-.017-.017-.006-.012-.057-.122-.321-.287-.136-.085-.332-.17-.575-.237a3.86 3.86 0 0 0-.963-.118z"/><path d="M485.446 298.902c.412 6.034 2.277 13.192 6.644 17.811 1.607 1.337 3.66 2.55 5.646 2.255-6.77-5.51-10.885-13.947-12.29-20.065z"/><path fill="#9ecb34" d="M489.613 307.247c2.369 5.837 8.37 11.289 14.543 14.954 1.15.035 1.491.003 2.536-.06-4.418-2.371-11.538-5.754-17.08-14.894z"/></g><use xlink:href="#M" x="-15.43" fill="#c6cb24"/></g><path fill="#fff" d="M556.5 324.692c-.574.203-4.421-.189-6.433-.044l-1.279.336c-1.124-.008-2.238.025-3.33 0-3.602 0-6.649.948-10.075.949-3.433 0-6.47-.949-10.075-.949-1.119-.008-2.234.025-3.33 0-3.601 0-6.646.949-10.075.949s-6.473-.949-10.075-.949c-1.131-.007-2.242.024-3.348 0-3.602 0-6.632.949-10.058.949s-6.456-.949-10.058-.949c-.267 0-.516.009-.776.018l-.557-.018c-.12 0-.222-.003-.339 0-.117-.003-.237 0-.356 0-.181 0-.344.014-.522.018l-.78-.018c-3.605 0-6.642.949-10.075.949s-6.474-.949-10.075-.949c-.262 0-.522.01-.776.018-.181-.004-.339-.018-.522-.018-.124 0-.252-.003-.374 0-.117-.003-.237 0-.356 0-.181 0-.362.014-.54.018l-.776-.018c-2.879 0-6.218.607-8.936.85l-6.272 10.858h127.346z"/><path fill="url(#D)" d="M547.993 323.111l-.596.007c-3.24.094-5.564 1.115-11.201 1.115s-6.218-1.019-12.584-.878c-5.947.131-8.442 1.261-11.67 1.217s-8.473-.698-12.51-.275-8.828 1.284-11.973 1.291c-3.908-.017-7.82-.731-11.906-.325s-5.997 1.5-11.063 1.485c-4.355-.013-9.083-.698-12.746-.695-3.435.003-7.267.957-10.086 1.443l-.843 1.464c2.247-.261 8.551-1.218 10.802-1.277 2.344-.061 10.717.483 15.335.325s5.159-1.171 10.619-1.171c3.801 0 6.666.399 10.566.399 2.434 0 4.643-1.242 8.343-1.242l2.794-.091c3.119-.515 8.383.045 12.047.233 3.315.173 5.457-.616 8.915-.73l4.473-.148c3.461-.115 6.422.641 9.68.624 3.25-.2 6.403-.923 9.86-1.037l4.491-.148c2.286-.076 5.836.078 8.273.501l-.84-1.45c-2.38-.076-5.312-.635-8.181-.635z"/><g id="N"><path id="O" fill="url(#D)" d="M450.312 334.748c-3.457 0-6.402.853-9.652.945-1.211-.034-2.366-.184-3.535-.346l-.49.85 1.489.063h4.473c3.457 0 6.382-.853 9.634-.945 3.254.092 6.205.945 9.666.945h4.473c3.457 0 6.412-.853 9.666-.945 3.256.092 6.23.945 9.687.945h4.47c3.457 0 6.401-.853 9.652-.945 3.253.092 6.191.945 9.649.945h4.491c3.457 0 6.411-.853 9.666-.945 3.258.092 6.21.945 9.67.945h4.47c3.457 0 6.401-.853 9.652-.945 3.253.092 6.209.945 9.666.945h4.473l1.778-.078-.462-.797-3.235.307c-3.254-.092-6.195-.945-9.652-.945-1.511-.02-2.998.029-4.491 0-3.457 0-6.397.853-9.649.945-3.257-.092-6.206-.945-9.666-.945-1.496-.02-2.993.03-4.473 0-3.457 0-6.412.853-9.666.945-3.254-.092-6.209-.945-9.666-.945-1.503-.02-3.004.029-4.491 0-3.457 0-6.399.853-9.649.945-3.254-.092-6.195-.945-9.652-.945-1.506-.02-2.99.03-4.473 0-3.46 0-6.409.854-9.666.945-3.254-.092-6.209-.945-9.666-.945-1.502-.02-3.006.03-4.491 0z"/><use xlink:href="#O" y="-1.289"/><use xlink:href="#O" y="-2.575"/></g><use xlink:href="#N" y="-3.867"/><use xlink:href="#N" y="-7.729"/><path fill="#97c924" d="M443.846 324.705l-2.427 4.191c2.839-.471 7.102-1.703 10.635-1.706 3.663-.003 8.082.903 12.437.915 5.066.015 6.976-1.079 11.063-1.485s7.998.528 11.906.545c3.145-.007 7.937-1.089 11.973-1.512s7.737.293 12.603.369 5.63-1.18 11.576-1.311c6.365-.14 6.947.878 12.584.878 4.241.228 7.883-.854 11.666-1.122s5.538.043 8.304.109l-1.838-3.253c-.031 0-.061.003-.092.004l-101.246 2.226z"/><path fill="#fff" d="M550.067 324.648l3.847.276 2.955.254-.369-.485c-.574.203-4.421-.189-6.433-.044z"/></g><path fill="#c8a400" d="M500 224.874l-65 112.585h130l-65-112.585zm0 3.002l62.4 108.08-63.102-.004-61.701.004 31.56-54.645z"/></svg>