<svg xmlns="http://www.w3.org/2000/svg" xmlns:xlink="http://www.w3.org/1999/xlink" width="600" height="300" viewBox="0 0 120 60" xmlns:v="https://vecta.io/nano"><clipPath id="A"><path d="M0,0V15H70V30H60zM0,30V40H30V0H60z"/></clipPath><path fill="#002868" d="M0 0h120v60H0z"/><g stroke="#cf142b"><path d="M0,0L60,30M60,0L0,30" stroke="#fff" stroke-width="6"/><path d="M0,0L60,30M60,0L0,30" clip-path="url(#A)" stroke-width="4"/><path d="M30,0V40M0,15H70" stroke="#fff" stroke-width="10"/><path d="M30,0V40M0,15H70" stroke-width="6"/></g><path d="M60,0h60V60H0V30H60z" fill="#fcd116"/><g transform="translate(30 15)"><g transform="scale(5.10390485)"><circle r="1" fill="#002868"/><path id="B" d="M0-1L.588.809-.951-.309H.951L-.588.809" fill="#fcd116"/></g><use xlink:href="#B" transform="matrix(3 0 0 3 -17.5 .29)"/><use xlink:href="#B" transform="matrix(3 0 0 3 17.5 .29)"/><use xlink:href="#B" transform="matrix(3 0 0 3 0 10.29)"/><use xlink:href="#B" transform="matrix(3 0 0 3 0 -9.71)"/></g></svg>