<svg xmlns="http://www.w3.org/2000/svg" xmlns:xlink="http://www.w3.org/1999/xlink" width="726" height="885" viewBox="-17.582 -4.664 71.571 87.246" xmlns:v="https://vecta.io/nano"><use xlink:href="#A" stroke="#003893" stroke-width="5.165"/><path id="A" d="M-15 37.574h60L-15 0v80h60l-60-60z" fill="#dc143c"/><g fill="#fff"><path d="M-11.95 23.483a12.84 12.84 0 0 0 23.901 0 11.95 11.95 0 0 1-23.901 0"/><g transform="matrix(5.561061 0 0 5.561061 0 29.044556)"><circle r="1"/><g id="B"><g id="C"><path id="D" d="M.383-.924l-.112-.438L0-1"/><use xlink:href="#D" transform="rotate(22.5)"/><use xlink:href="#D" transform="rotate(45)"/></g><use xlink:href="#C" transform="rotate(67.5)"/></g><use xlink:href="#B" transform="scale(-1 1)"/></g><g transform="matrix(8.143398 0 0 8.143398 0 58.786797)"><circle r="1"/><g id="E"><g id="F"><path id="G" d="M.259.966L0 1.577-.259.966"/><use xlink:href="#G" transform="rotate(180)"/></g><use xlink:href="#F" transform="rotate(90)"/></g><use xlink:href="#E" transform="rotate(30)"/><use xlink:href="#E" transform="rotate(60)"/></g></g></svg>