<svg xmlns="http://www.w3.org/2000/svg" width="600" height="300"  xmlns:v="https://vecta.io/nano"><path fill="#002b7f" d="M0 0h600v300H0z"/><path fill="#ffc61e" d="M0 137.5h600v25H0z"/><path fill="#fff" d="M150 262.5l-6.47-25.852L125 255.801l7.322-25.624-25.624 7.322 19.153-18.53L100 212.5l25.852-6.47-19.153-18.53 25.624 7.322L125 169.199l18.53 19.153L150 162.5l6.47 25.852L175 169.199l-7.322 25.624 25.624-7.322-19.153 18.53L200 212.5l-25.852 6.47 19.153 18.53-25.624-7.322L175 255.801l-18.53-19.153L150 262.5z"/></svg>