<svg xmlns="http://www.w3.org/2000/svg" xmlns:xlink="http://www.w3.org/1999/xlink" height="600" width="1200" xmlns:v="https://vecta.io/nano"><defs><clipPath id="A"><path d="M0 0h600v300H0z"/></clipPath><clipPath id="B"><path d="M0 0l300 150H0zm300 0h300L300 150zm0 150h300v150zm0 0v150H0z"/></clipPath><g id="C"><g id="D"><path d="M0 0v.5L1 0z" transform="translate(0 -.325)"/><path d="M0 0v-.5L1 0z" transform="matrix(.809017 -.587785 .587785 .809017 .190983 .262785)"/></g><use xlink:href="#D" transform="scale(-1 1)"/><use xlink:href="#D" transform="rotate(72)"/><use xlink:href="#D" transform="rotate(288)"/><use xlink:href="#D" transform="matrix(-.309017 .951057 .951057 .309017 0 0)"/></g></defs><path fill="#00247d" d="M0 0h1200v600H0z"/><path stroke="#fff" d="M0 0l600 300M0 300L600 0" stroke-width="60" clip-path="url(#A)"/><path stroke="#cc142b" d="M0 0l600 300M0 300L600 0" stroke-width="40" clip-path="url(#B)"/><path stroke="#fff" d="M300 0v300M0 150h600" stroke-width="100" clip-path="url(#A)"/><path stroke="#cc142b" d="M300 0v300M0 150h600" stroke-width="60" clip-path="url(#A)"/><use xlink:href="#C" fill="#fff" transform="matrix(45.4 0 0 45.4 900 120)"/><use xlink:href="#C" fill="#cc142b" transform="matrix(30 0 0 30 900 120)"/><g transform="rotate(82 900 240)"><use xlink:href="#C" fill="#fff" transform="matrix(5.622593 -40.00683 40.00683 5.622593 900 120)"/><use xlink:href="#C" fill="#cc142b" transform="matrix(3.479328 -24.756702 24.756702 3.479328 900 120)"/><use xlink:href="#C" fill="#fff" transform="matrix(6.318459 -44.95817 44.95817 6.318459 900 380)"/><use xlink:href="#C" fill="#cc142b" transform="matrix(4.175193 -29.708042 29.708042 4.175193 900 380)"/></g><use xlink:href="#C" fill="#fff" transform="matrix(50.4 0 0 50.4 900 480)"/><use xlink:href="#C" fill="#cc142b" transform="matrix(35 0 0 35 900 480)"/></svg>