<svg xmlns="http://www.w3.org/2000/svg" xmlns:xlink="http://www.w3.org/1999/xlink" width="600" height="450" viewBox="0 0 768 576" xmlns:v="https://vecta.io/nano"><path d="M0 0h768v576H0z"/><path d="M0,0H768V576z" fill="#ce1126"/><path d="M475.485 167.354c-5.672 7.326-19.095-7.37-35.175-7.705s-27.471 15.41-32.16 20.77-19.764 33.5-19.43 36.515 9.381-8.375 12.73-10.385c.335 4.02-3.685 8.71-2.68 10.05s11.724-8.04 15.41-8.375c1.005 2.68-2.01 5.36-1.005 9.38 1.341 1.34 7.371-6.7 11.391-8.375.669 3.015-3.685 8.71-1.341 12.395 1.675.335 11.724-11.39 15.075-12.73s-1.675 11.055 0 12.06c3.015-2.01 12.396-12.73 15.411-14.07s-.335 13.735 1.005 13.735c3.684-2.68 13.065-15.41 14.07-17.42s-1.005 19.43 9.38 30.82 26.131 24.455 27.805 24.455c2.01-3.685-.669-11.39 1.005-11.055 4.689 5.025 13.4 12.395 15.41 12.395s-1.341-8.04 1.34-8.04c5.361 5.025 20.77 24.79 50.92 33.835-2.01-5.695-6.366-10.72-6.7-13.4 2.01.335 9.046 3.685 10.386 3.35s-14.74-20.1-13.735-22.78c3.685-.335 5.361 2.01 6.7.335-1.675-2.679-15.745-18.425-15.745-22.11s4.356.67 5.695 0-5.36-14.74-4.02-16.415 16.079 9.045 19.764 9.045 1.005-13.065 2.68-13.735 14.071 7.035 16.75 7.035 2.345-5.695 3.35-5.025 30.15 29.815 20.1 63.985c-10.05 24.456-30.149 37.521-59.63 26.8 1.674 2.68 17.42 15.745 34.505 11.055s37.854-18.09 35.51-51.59-13.401-38.19-15.075-43.215 2.681 1.34 6.366 2.68-.67-7.036-1.675-10.721 11.055 7.705 14.07 8.71-7.035-27.47-10.05-29.48 3.015.669 5.025 1.34-18.426-31.155-22.78-31.155 3.684-1.675 6.03-1.675-23.449-20.77-27.804-20.77 9.379-5.361 10.719-5.695c2.346.335-29.814-17.085-58.625.335-1.675-1.339 13.569-11.891 14.07-16.414.168-1.173-5.024-3.685-5.36-5.025s8.04-5.36 8.375-8.375c-2.01-2.68-5.695-1.675-7.705-2.345-.501-2.513 7.036-8.71 6.366-11.39-.502-1.507-6.031-2.01-7.371-1.005s3.519-7.035 2.68-9.38c-.669-1.005-3.35-.335-6.03.335-1.675-.335 8.71-14.74 6.7-16.75s-30.151 14.739-40.536 33.5-2.344 33.835-3.684 40.2-3.016 12.73-7.371 12.73-14.404-6.7-17.754-10.05-4.02-5.695-8.71-7.035-15.41 2.68-19.43 3.015-19.765-3.015-20.77-2.01 15.41 7.035 19.095 9.045 4.021 4.69 6.7 6.365 27.804 9.045 19.764 19.43zm98.155 47.235c8.04 8.04 62.31 44.22 62.31 88.44s-39.531 42.881-50.92 41.541c12.73 10.719 60.97 8.709 60.97-41.541 0-44.22-62.31-88.44-70.35-92.46s-10.05-4.02-2.01 4.02z" fill="#fcd116"/><g fill="#fff"><path d="M220.254 418.599l11.455-36.851L243.164 419 213 396.168h37.418z"/><path id="A" d="M192.418 178.496l-22.909 73.702 60.327-44.862H155L215.327 253z"/><use xlink:href="#A" x="-88" y="112.504"/><use xlink:href="#A" x="87.582" y="104.504"/><use xlink:href="#A" y="264.504"/></g></svg>