<svg xmlns="http://www.w3.org/2000/svg" width="600" height="330"  xmlns:v="https://vecta.io/nano"><path fill="#0038a8" d="M0 0h600v330H0z"/><path fill="#fff" d="M0 0h600v220H0z"/><path fill="#d52b1e" d="M0 0h600v110H0z"/><g fill="none" stroke="#000"><circle stroke-width="1.076" cx="300" cy="165" r="42.2"/><circle stroke-width=".478" cx="300" cy="165" r="34.67"/><circle stroke-width=".438" cx="300" cy="165" r="26.56"/></g><path d="M277.53 181.28l-4.893 2.905-1.496-2.52c-.277-.467-.449-.848-.516-1.143s-.036-.582.091-.862.346-.513.658-.698c.271-.161.54-.242.806-.244a1.58 1.58 0 0 1 .762.193c.155.083.324.221.509.416-.047-.216-.065-.383-.054-.501.007-.079.045-.211.113-.395s.128-.314.178-.392l.984-1.573 1.015 1.709-1.016 1.696c-.133.217-.204.383-.215.498-.011.154.025.3.107.438l.079.133 1.986-1.179zm-3.812.21l-.379-.637c-.041-.069-.142-.189-.305-.361a.46.46 0 0 0-.299-.154.53.53 0 0 0-.34.073c-.158.094-.25.216-.275.366s.044.363.208.639l.394.664zm-4.608-3.78l-1.487-4.471 1.153-.383.931 2.799.858-.285-.864-2.597 1.101-.366.864 2.597 1.064-.354-.958-2.88 1.223-.407 1.514 4.552zm-1.95-6.65l-.332-2.904c-.072-.632.024-1.123.289-1.473s.675-.556 1.23-.619c.571-.065 1.036.055 1.397.362s.581.812.662 1.516l.109.956 2.098-.24.201 1.755zm2.209-2.03l-.049-.428c-.038-.337-.124-.567-.257-.689a.57.57 0 0 0-.473-.153.63.63 0 0 0-.431.229c-.11.132-.146.362-.109.688l.057.497zm-2.389-8.65l.188-1.744 3.373.364a2.86 2.86 0 0 1 .931.258 2.06 2.06 0 0 1 .727.574c.199.247.33.497.393.751.089.353.108.768.057 1.244-.03.275-.081.574-.155.895s-.18.585-.318.791-.322.389-.553.547-.461.259-.692.302c-.372.069-.697.089-.975.059l-3.373-.364.188-1.744 3.454.372c.309.033.559-.026.751-.179s.305-.38.337-.684-.028-.546-.18-.736-.386-.301-.7-.335zm.76-4.17l1.086-3.107c.181-.518.448-.871.802-1.058a1.32 1.32 0 0 1 1.098-.083 1.27 1.27 0 0 1 .713.582c.105.185.158.42.157.704.228-.353.486-.582.776-.685s.605-.095.947.025a1.55 1.55 0 0 1 .683.457c.177.207.291.446.342.716.032.167.017.398-.044.692l-.187.769-1.002 2.865zm2.692-.938l.252-.722c.091-.259.109-.455.055-.587s-.165-.228-.333-.287c-.156-.055-.296-.047-.42.024s-.229.232-.317.483l-.256.733zm2.111.738l.296-.846c.1-.286.12-.505.059-.658s-.176-.259-.347-.319a.5.5 0 0 0-.444.04c-.137.082-.256.269-.358.559l-.295.843zm-2.113-6.64l.908-1.505 3.672 2.216 1.418-2.35 1.2.724-2.326 3.855zm3.44-5.21l1.128-1.354 4.371 3.643-1.128 1.354zm7.65-2.94l1.472-.651c.203.395.315.775.335 1.14a2.12 2.12 0 0 1-.201 1.038c-.154.327-.424.656-.811.989-.469.403-.911.664-1.325.783s-.877.1-1.388-.058-.997-.505-1.457-1.041c-.614-.714-.896-1.427-.846-2.137s.422-1.363 1.117-1.96c.544-.467 1.065-.724 1.565-.772s1.021.091 1.563.417l-.952 1.274a1.33 1.33 0 0 0-.377-.177 1.01 1.01 0 0 0-.476 0 1.04 1.04 0 0 0-.433.229 1.03 1.03 0 0 0-.381.962c.034.285.216.621.549 1.008.411.479.766.745 1.064.798s.578-.034.841-.26c.255-.219.386-.457.394-.712s-.077-.545-.252-.868zm6.06-2.18l-1.767.942.199.959-1.586.845-.79-6.027 1.692-.902 4.564 4.015-1.623.866zm-.904-.912l-1.517-1.509.411 2.099zm5.374-5.828l2.574-.445c.507-.088.929-.09 1.265-.006a2.03 2.03 0 0 1 .877.459 2.49 2.49 0 0 1 .599.822 4.22 4.22 0 0 1 .325 1.063c.103.599.116 1.076.036 1.429s-.221.663-.425.928a1.88 1.88 0 0 1-.703.58 4.05 4.05 0 0 1-1.006.331l-2.574.445zm1.952.971l.529 3.064.425-.073c.362-.062.613-.147.752-.254s.235-.268.287-.483.039-.547-.038-.996c-.103-.594-.27-.984-.501-1.17s-.572-.24-1.021-.162zm5.358-1.951l4.708.201-.052 1.214-2.947-.126-.039.904 2.734.117-.05 1.16-2.734-.117-.048 1.121 3.033.13-.055 1.287-4.793-.205zm6.85.54l1.708.418-1.02 4.166 2.666.652-.333 1.361-4.373-1.07zm9.13 3.03l2.516 1.487c.548.324.881.697 1 1.119s.036.873-.248 1.355c-.292.495-.67.793-1.132.896s-.998-.026-1.608-.387l-.829-.49-1.075 1.818-1.52-.899zm.286 2.987l.371.219c.292.173.527.243.705.211a.57.57 0 0 0 .407-.285.63.63 0 0 0 .077-.482c-.039-.167-.2-.335-.483-.502l-.431-.255zm4.934 6.633l-1.467-1.364-.841.5-1.316-1.224 5.441-2.71 1.404 1.306-2.309 5.623-1.347-1.253zm.568-1.152l.933-1.926-1.851 1.072zm.682 3.782l4.692-3.219 1.658 2.416c.307.448.504.817.59 1.106s.074.578-.034.866-.312.534-.611.739c-.26.179-.523.277-.788.296a1.58 1.58 0 0 1-.773-.143c-.16-.072-.338-.2-.535-.382.061.212.09.378.086.496-.002.08-.031.213-.087.401s-.107.322-.152.403l-.879 1.634-1.124-1.639.902-1.758c.118-.226.179-.396.182-.511a.74.74 0 0 0-.135-.43l-.088-.128-1.904 1.307zm3.79-.459l.419.611c.045.066.155.18.328.34a.46.46 0 0 0 .309.134c.121.006.232-.025.335-.095.151-.104.235-.232.25-.383s-.068-.36-.25-.624l-.437-.637z"/><path d="M327.36 155.2l-.742-1.86-.975.092-.666-1.669 6.078-.123.711 1.781-4.492 4.095-.682-1.709zm1.006-.798l1.667-1.342-2.132.178zm1.484 6.218l1.171-.175.402 2.687-2.399.359c-.428-.462-.734-.881-.92-1.258s-.319-.836-.401-1.379c-.1-.668-.067-1.229.097-1.685s.455-.832.871-1.131.915-.492 1.499-.579c.614-.092 1.167-.045 1.66.14s.893.505 1.201.958c.239.354.406.854.503 1.499.093.622.106 1.095.04 1.421s-.203.607-.409.846-.483.437-.832.593l-.55-1.633a.92.92 0 0 0 .435-.424c.088-.182.113-.401.074-.657a1.15 1.15 0 0 0-.534-.852c-.299-.187-.735-.237-1.308-.152-.609.091-1.027.271-1.254.539s-.31.607-.248 1.016a1.84 1.84 0 0 0 .168.544 3.04 3.04 0 0 0 .379.563l.53-.079zm3.72 8.26l-.156 1.748-3.379-.301a2.86 2.86 0 0 1-.935-.241 2.06 2.06 0 0 1-.737-.561c-.203-.243-.339-.491-.407-.744-.096-.351-.123-.766-.08-1.243.025-.276.071-.575.138-.898a2.37 2.37 0 0 1 .303-.797 2.05 2.05 0 0 1 .543-.558 1.8 1.8 0 0 1 .687-.315c.37-.076.695-.102.973-.077l3.379.301-.156 1.748-3.46-.308c-.309-.028-.559.037-.748.192s-.297.386-.325.69.038.546.194.732.391.294.706.322zm-6.29 6.02l.626-1.903-.806-.555.561-1.707 4.738 3.809-.599 1.821-6.074.254.575-1.748zm1.284.034l2.14.042-1.748-1.233zm2.036 4.626l-1.004 1.675-2.239-.002 1.057 1.973-.998 1.665-1.699-3.598-2.044-1.225.906-1.512 2.044 1.225z"/><g stroke="#000"><g fill="#009b3a" stroke-width=".1"><path d="M305.58 145.3s16.052 6.916 13.249 21.207-11.74 14.195-15.244 15.775-5.922 3.84-7.305 3.524-3.21-1.383-3.21-1.383-.146 2.347 2.668 2.774 6.514-3.704 8.292-4.164 12.688-1.644 15.343-16.185c3.098-15.522-13.693-21.092-13.792-21.548z"/><path d="M313.68 148.34a2.204.522 75.104 0 1-1.057.081 2.204.522 75.104 1 1 1.057-.081z"/><path d="M313.13 148.49a2.271.506 63.335 1 1-.957.35 2.271.506 63.335 0 1 .957-.35z"/><path d="M311.52 149.55a2.15.535 17.053 0 1-.1 1.086 2.15.535 17.053 0 1 .1-1.086z"/><path d="M311.76 148.96a2.261.509 34.225 1 1-.462.916 2.261.509 34.225 1 1 .462-.916z"/><path d="M312.44 148.68a2.299.5 46.194 1 1-.699.716 2.299.5 46.194 0 1 .699-.716z"/><path d="M313.56 150.7c.009.01-.619.349-.762.4s-.335-.19-.744.02-.69.593-.779.818.116.319.611.079.625-.621.863-.771.639-.369.866-.45c.099-.215.419-.677.584-.941s.815-.702 1.051-1.211c.206-.421.129-.779-.147-.63s-.633.573-.8.877-.024.69-.208.975l-.535.834zm4.97 1.64a3.305.742 88.415 1 1-1.491-.357 3.305.742 88.415 1 1 1.491.357z"/><path d="M317.7 152.31a3.443.712 77.49 1 1-1.442.072 3.443.712 77.49 1 1 1.442-.072z"/><path d="M315.13 153.11a3.207.764 34.91 1 1-.499 1.511 3.207.764 34.91 1 1 .499-1.511z"/><path d="M315.65 152.38a3.43.715 50.904 0 1-.943 1.105 3.43.715 50.904 1 1 .943-1.105z"/><path d="M316.69 152.28a3.504.7 61.837 1 1-1.205.713 3.504.7 61.837 1 1 1.205-.713z"/><path d="M317.57 155.67c.01.018-.973.223-1.187.232s-.401-.421-1.038-.304-1.152.541-1.35.823.055.509.82.386 1.071-.61 1.451-.717 1.006-.243 1.349-.257c.208-.264.804-.782 1.121-1.087s1.361-.641 1.857-1.263c.425-.51.437-1.059.005-.968s-1.067.537-1.397.898-.261.978-.611 1.303l-1.017.955zm3.57 3.33a.738 3.321 8.74 1 1-1.393-.639.738 3.321 8.74 1 1 1.393.639z"/><path d="M320.35 158.8a3.465.707 87.95 1 1-1.422-.205 3.465.707 87.95 1 1 1.422.205z"/><path d="M317.69 159.1a3.223.76 46.026 1 1-.76 1.397 3.223.76 46.026 1 1 .76-1.397z"/><path d="M318.33 158.48a3.455.709 61.791 1 1-1.121.91 3.455.709 61.791 1 1 1.121-.91z"/><path d="M319.35 158.58a3.531.694 72.543 1 1-1.307.473 3.531.694 72.543 1 1 1.307-.473z"/><path d="M319.61 162.09a9.08 9.08 0 0 1-1.202.001c-.211-.032-.316-.493-.96-.499s-1.224.313-1.468.553-.038.513.731.538 1.157-.397 1.547-.43 1.027-.046 1.364.005c.251-.221.927-.618 1.292-.858s1.446-.371 2.043-.891c.508-.422.618-.962.179-.955s-1.139.326-1.528.618-.432.916-.832 1.17l-1.166.748m1.73 4.33a.738 3.32 31.311 0 1-1.013-1.168.738 3.32 31.311 0 1 1.013 1.168"/><path d="M320.69 165.91a.703 3.487 20.618 0 1-1.208-.778.703 3.487 20.618 0 1 1.208.778"/><path d="M318.17 165.09a3.276.748 69.934 0 1-1.23.981 3.276.748 69.934 0 1 1.23-.981"/><path d="M318.99 164.78a3.511.698 85.137 0 1-1.368.381 3.511.698 85.137 1 1 1.368-.381"/><path d="M319.88 165.3a.685 3.578 5.551 1 1-1.366-.102.685 3.578 5.551 1 1 1.366.102"/><path d="M318.75 168.66c-.002.021-.91-.379-1.089-.496s-.095-.588-.675-.86-1.229-.216-1.544-.094-.234.46.453.802 1.202.11 1.568.241.948.382 1.233.569c.313-.101 1.079-.19 1.502-.262s1.453.253 2.195.018c.624-.182.933-.636.533-.811s-1.158-.169-1.623-.059-.746.671-1.208.74l-1.346.211m.591 5.291a.864 3.784 48.457 1 1-.731-1.656.864 3.784 48.457 1 1 .731 1.656"/><path d="M318.79 173.16a.821 3.982 37.466 1 1-1.074-1.296.821 3.982 37.466 1 1 1.074 1.296"/><path d="M316.29 171.34a3.809.858 86.522 1 1-1.677.638 3.809.858 86.522 1 1 1.677-.638"/><path d="M317.29 171.29a.806 4.054 11.633 0 1-1.631-.075.806 4.054 11.633 1 1 1.631.075"/><path d="M318.1 172.18a.795 4.11 22.119 1 1-1.471-.607.795 4.11 22.119 1 1 1.471.607"/><path d="M315.75 175.49a10.77 10.77 0 0 1-1.035-.941c-.157-.193.089-.684-.46-1.193s-1.282-.683-1.669-.662-.408.423.235 1.049 1.286.556 1.646.833.918.765 1.17 1.074c.378.001 1.25.181 1.74.255s1.516.805 2.411.814c.746.025 1.236-.365.853-.703s-1.219-.606-1.767-.652-1.042.471-1.573.38l-1.551-.254m-1.58 5.05a.967 4.172 79.752 1 1 .199-1.998.967 4.172 79.752 1 1-.199 1.998"/><path d="M314.09 179.47a.923 4.369 68.504 0 1-.328-1.853.923 4.369 68.504 0 1 .328 1.853"/><path d="M312.66 176.29a.964 4.183 26.238 0 1-1.966-.363.964 4.183 26.238 1 1 1.966.363"/><path d="M313.66 176.83a.91 4.434 41.823 0 1-1.533-1.014.91 4.434 41.823 0 1 1.533 1.014"/><path d="M313.95 178.15a.897 4.495 52.671 1 1-1.088-1.427.897 4.495 52.671 0 1 1.088 1.427"/><path d="M309.87 179.93c-.021.016-.439-1.219-.485-1.494s.459-.599.208-1.401-.864-1.391-1.249-1.595-.625.166-.346 1.134.938 1.273 1.134 1.745.469 1.258.543 1.699c.364.22 1.107.895 1.54 1.248s1.023 1.643 1.882 2.168c.707.455 1.392.367 1.207-.175s-.846-1.281-1.35-1.642-1.263-.155-1.726-.548l-1.358-1.139m-2.47 4.31a1.212 4.219 89.068 0 1 .007-2.424 1.212 4.219 89.068 0 1-.007 2.424"/><path d="M306.84 180.45a1.171 4.366 37.587 0 1-1.799-1.504 1.171 4.366 37.587 1 1 1.799 1.504"/><path d="M307.43 182.38a1.198 4.273 66.472 0 1-.857-2.239 1.198 4.273 66.472 0 1 .857 2.239m1.15-36.72a2.621.533 41.126 0 1-.995.542 2.621.533 41.126 1 1 .995-.542"/><path d="M307.29 146.75a2.654.526 8.163 0 1 .202 1.09 2.654.526 8.163 1 1-.202-1.09"/><path d="M307.81 146.06a2.776.503 26.817 1 1-.526.861 2.776.503 26.817 0 1 .526-.861m-19.02 34.07s3.536.758 6.61 1.875 7.744 4.952 9 5.169c1.408.064 3.361-.417 4.102-2.45-2.168.578-3.469 1.457-5.539.32-.731-.277-3.127-2.458-5.752-3.625s-7.921-2.498-7.921-2.498l-.499 1.208"/><path d="M292.56 148.16c-.013-.03 4.07-2.147 4.07-2.147l-4.488 1.148-.521.79.94.21"/><path d="M296.42 149.15l-5.542-.94c1.067-1.181 2.536-3.179 3.442-4.405-.598 1.169-1.537 2.712-1.907 3.831 1.086.586 2.794 1.045 4.008 1.514"/><path d="M291.83 148.41c-.018-.028 3.617-2.8 3.617-2.8l-4.201 1.879-.374.868.958.053"/><path d="M295.69 149.11l-5.579-.991c1.048-1.217 2.484-3.276 3.37-4.539-.578 1.206-1.491 2.797-1.841 3.952 1.101.61 2.823 1.09 4.051 1.579"/><path d="M291.23 148.64c-.01-.031 4.259-1.784 4.259-1.784l-4.586.755-.592.74.919.289"/><path d="M295.21 149.15l-5.635-.4c.893-1.351 2.072-3.6 2.799-4.982-.43 1.289-1.145 3.005-1.356 4.218 1.161.5 2.921.801 4.192 1.163"/><path d="M290.79 148.66c-.023-.024 2.885-3.516 2.885-3.516l-3.656 2.734-.17.933.94-.15"/><path d="M295.19 149.38l-6.031-.038c.814-1.538 1.841-4.076 2.475-5.635-.327 1.437-.915 3.361-1.017 4.699 1.284.464 3.185.668 4.574.974"/><path d="M290.21 149.49c-.022-.031 3.504-3.362 3.504-3.362l-4.24 2.346-.29 1.005 1.026.011"/><path d="M294.42 149.49c-1.848.007-4.694-.093-6.497.109 1.196-1.714 2.83-4.536 3.837-6.269l-2.071 5.202c1.289.479 3.297.656 4.731.958"/><path d="M289.03 149.74c-.018-.033 4.476-3.791 4.476-3.791l-5.059 2.69-.521 1.114 1.105-.013"/><path d="M293.75 149.6l-6.422 1.01c.94-1.837 2.154-4.816 2.903-6.645l-1.307 5.359c1.346.287 3.361.181 4.825.276"/><path d="M288.43 150.49c-.026-.027 3.449-4.777 3.449-4.777l-4.304 3.892-.231 1.192 1.086-.307"/><path d="M292.74 150.17l-6.471.686c1.042-1.787 2.422-4.699 3.274-6.488l-1.607 5.285c1.328.354 3.347.349 4.804.518"/><path d="M287.81 150.99c-.018-.034 4.39-3.799 4.39-3.799l-4.981 2.684-.503 1.121 1.094-.007"/><path d="M292.2 150.36l-6.442 1.442c.858-1.876 1.937-4.896 2.604-6.751l-1.054 5.373c1.375.189 3.407-.056 4.892-.064"/><path d="M287.08 151.19c-.03-.021 2.805-5.207 2.805-5.207l-3.796 4.503-.063 1.19 1.054-.485"/><path d="M292.2 150.66l-6.901 1.891c.714-2.133 1.531-5.553 2.036-7.655l-.502 6.048c1.534.152 3.737-.211 5.367-.284"/><path d="M286.53 152.39c-.03-.03 3.533-5.219 3.533-5.219l-4.518 4.218-.191 1.316 1.175-.316"/><path d="M291.42 151.25l-6.779 2.24c.611-2.146 1.264-5.57 1.669-7.673l-.217 6.003c1.534.067 3.708-.409 5.327-.57"/><path d="M285.82 153.16c-.034-.024 2.685-5.761 2.685-5.761l-3.818 4.961.017 1.325 1.116-.525"/><path d="M290.68 152.04l-6.954 1.679c.803-2.09 1.764-5.449 2.358-7.513l-.761 5.966c1.521.193 3.73-.105 5.356-.132"/><path d="M285.18 153.71c-.024-.035 4.388-4.508 4.388-4.508l-5.173 3.338-.421 1.266 1.206-.096"/><path d="M289.8 152.82l-6.894 1.02c.913-2.047 2.058-5.371 2.765-7.412l-1.11 5.997c1.473.346 3.649.263 5.239.396"/><path d="M284.31 153.26c-.032-.027 2.986-5.641 2.986-5.641l-4.05 4.747-.063 1.344 1.127-.45"/><path d="M290.04 152.15l-7.481 3.175c.657-2.538 1.349-6.56 1.779-9.031l-.187 6.971c1.697-.053 4.099-.792 5.889-1.116"/><path d="M283.9 154.97c-.035-.03 3.574-6.473 3.574-6.473l-4.718 5.477-.13 1.53 1.274-.534"/><path d="M289.22 152.95l-7.326 3.555c.543-2.538 1.055-6.539 1.374-8.998l.123 6.878c1.692-.15 4.057-1.014 5.829-1.436"/><path d="M283.17 155.95c-.039-.023 2.608-6.966 2.608-6.966l-3.903 6.222.099 1.508 1.196-.764"/><path d="M288.3 153.53l-7.308 3.613c.527-2.541 1.014-6.543 1.317-9.003l.168 6.873c1.692-.163 4.053-1.047 5.823-1.483"/><path d="M282.58 156.78c-.032-.034 4.034-6.143 4.034-6.143l-5.087 5.028-.248 1.523 1.3-.408"/><path d="M288.11 153.21l-6.492 5.309c-.003-2.565-.346-6.518-.554-8.948l1.584 6.534c1.642-.585 3.798-2.029 5.462-2.894"/><path d="M282.78 157.07c-.045-.006.467-7.361.467-7.361l-1.944 7.157.542 1.348.934-1.144"/><path d="M287.58 153.89l-6.512 5.276c.008-2.566-.319-6.522-.516-8.955l1.557 6.545c1.644-.576 3.805-2.009 5.471-2.866"/><path d="M282.31 158.32c-.042-.018 1.88-7.193 1.88-7.193l-3.253 6.614.257 1.477 1.116-.899"/><path d="M287.37 154.06l-6.14 6.191c-.277-2.632-1.054-6.649-1.528-9.119l2.335 6.523c1.634-.788 3.707-2.517 5.333-3.595"/><path d="M282.32 159.24c-.046-.007.352-7.65.352-7.65l-1.879 7.433.583 1.403.943-1.186"/><path d="M286.81 155.33l-6.582 5.576c-.059-2.665-.501-6.769-.768-9.293l1.778 6.775c1.681-.623 3.874-2.142 5.572-3.057"/><path d="M281.76 160.11c-.04-.025 2.663-7.195 2.663-7.195l-3.994 6.375.104 1.579 1.226-.759"/><path d="M286.78 155.36l-5.815 6.296c-.264-2.668-1.004-6.739-1.455-9.243l2.218 6.608c1.548-.804 3.512-2.563 5.052-3.662"/><path d="M281.86 160.48c-.047-.001-.315-7.607-.315-7.607l-1.232 7.576.706 1.317.841-1.286"/><path d="M285.96 155.93l-5.622 6.351c-.342-2.668-1.201-6.738-1.725-9.24l2.409 6.597c1.522-.818 3.432-2.595 4.938-3.708"/><path d="M281.43 161.24c-.043-.013.849-7.728.849-7.728l-2.266 7.309.452 1.501.965-1.083"/><path d="M285.61 156.23l-5.129 6.865c-.544-2.621-1.71-6.584-2.423-9.023l2.905 6.326c1.457-.962 3.228-2.915 4.646-4.169"/><path d="M281.4 161.96c-.044-.002-.49-7.737-.49-7.737l-.974 7.676.702 1.352.763-1.291"/><path d="M285.46 156.67l-4.806 7.182c-.679-2.61-2.051-6.541-2.891-8.958l3.239 6.218c1.416-1.045 3.096-3.105 4.458-4.441"/><path d="M281.88 162.68c-.043-.014.787-7.772.787-7.772l-2.215 7.305.467 1.529.961-1.062"/><path d="M285.18 157.39l-4.127 7.808c-.91-2.501-2.626-6.218-3.678-8.505l3.777 5.732c1.312-1.236 2.795-3.517 4.028-5.036"/><path d="M281.61 163.32c-.043.012-2.172-7.37-2.172-7.37l.734 7.769.979 1.095.459-1.494"/><path d="M285.13 158.25l-4.301 7.785c-.915-2.493-2.65-6.199-3.712-8.479l3.836 5.714c1.358-1.232 2.9-3.506 4.178-5.02"/><path d="M281.71 164.71c-.046 0-.797-7.75-.797-7.75l-.718 7.75.776 1.328.74-1.329"/><path d="M285.26 158.93l-4.426 7.683c-.875-2.514-2.549-6.261-3.574-8.566l3.742 5.804c1.377-1.2 2.955-3.438 4.258-4.921"/><path d="M281.64 165.33c-.046.005-1.438-7.61-1.438-7.61l-.07 7.794.882 1.227.626-1.411"/><path d="M284.71 160.03l-4.784 7.366c-.753-2.572-2.245-6.429-3.159-8.801l3.459 6.055c1.432-1.103 3.114-3.228 4.484-4.62"/><path d="M280.97 166.18c-.045-.012.644-7.779.644-7.779l-2.12 7.376.512 1.503.964-1.101"/><path d="M284.79 160.22l-4.073 7.961c-.987-2.452-2.829-6.082-3.958-8.315l4.001 5.547c1.321-1.288 2.796-3.626 4.03-5.193"/><path d="M280.71 166.83c-.045.014-2.387-7.25-2.387-7.25l.919 7.71 1.028 1.049.44-1.509"/><path d="M284.47 160.8l-2.812 8.712c-1.341-2.194-3.699-5.357-5.146-7.305 1.452 1.423 3.327 3.545 4.772 4.576 1.107-1.555 2.207-4.174 3.186-5.983"/><path d="M282.83 167.42c-.044.016-2.585-7.15-2.585-7.15l1.13 7.668 1.057 1.007.399-1.525"/><path d="M284.45 161.56l-2.749 8.741c-1.357-2.179-3.738-5.318-5.199-7.25 1.463 1.407 3.352 3.509 4.805 4.526 1.095-1.566 2.177-4.197 3.142-6.016"/><path d="M282.85 168.64c-.042.022-3.326-6.687-3.326-6.687l1.937 7.425 1.156.835.233-1.573"/><path d="M284.2 162.18l-1.722 9.059c-1.597-1.966-4.32-4.736-5.992-6.442 1.613 1.186 3.729 2.999 5.288 3.798.907-1.71 1.677-4.473 2.425-6.415"/><path d="M283.07 169.69c-.045.009-1.793-7.498-1.793-7.498l.296 7.784.939 1.165.559-1.451"/><path d="M284.21 162.98l-.865 9.249c-1.767-1.742-4.726-4.132-6.543-5.606 1.711.963 3.979 2.482 5.599 3.068.74-1.824 1.248-4.678 1.81-6.712"/><path d="M283.16 170.24c-.035.035-4.741-5.413-4.741-5.413l3.572 6.556 1.305.446-.137-1.589"/><path d="M284.31 163.9l-.902 9.244c-1.76-1.752-4.71-4.159-6.522-5.643 1.707.973 3.969 2.505 5.587 3.1.748-1.82 1.266-4.671 1.836-6.701"/><path d="M283.69 171.49c-.041.024-3.641-6.525-3.641-6.525l2.287 7.324 1.195.782.159-1.581"/><path d="M284.52 164.98l-.513 9.293c-1.83-1.644-4.875-3.871-6.745-5.244 1.744.869 4.066 2.263 5.706 2.759.67-1.864 1.068-4.745 1.552-6.809"/><path d="M284.15 172.69c-.037.032-4.499-5.704-4.499-5.704l3.281 6.77 1.285.528-.067-1.594"/><path d="M284.57 166.2l-.457 9.299c-1.839-1.629-4.898-3.829-6.776-5.186 1.749.853 4.079 2.228 5.722 2.71.659-1.87 1.039-4.755 1.511-6.823"/><path d="M284.56 173.66c-.043.02-3.154-6.877-3.154-6.877l1.746 7.529 1.135.904.274-1.556"/><path d="M284.69 166.99l.412 9.317c-1.976-1.373-5.215-3.152-7.204-4.249 1.815.614 4.254 1.668 5.928 1.927.479-1.95.589-4.872.864-6.994"/><path d="M285.11 173.39c-.027.043-5.762-3.945-5.762-3.945l4.884 5.382 1.358.07-.48-1.508"/><path d="M284.87 167.27l.899 9.271c-2.051-1.294-5.387-2.944-7.436-3.963 1.849.543 4.347 1.502 6.037 1.696.378-1.962.335-4.879.499-7.004"/><path d="M285.73 174.86c-.035.034-4.801-5.518-4.801-5.518l3.636 6.626 1.314.479-.149-1.587"/><path d="M285.29 168.28l1.288 9.226c-2.098-1.172-5.492-2.623-7.577-3.519 1.865.432 4.395 1.241 6.087 1.334.294-1.986.127-4.904.202-7.042"/><path d="M286.69 175.79c-.027.043-5.717-4.04-5.717-4.04l4.823 5.462 1.357.093-.463-1.515"/><path d="M285.47 169.4l1.892 9.109c-2.162-.974-5.629-2.104-7.759-2.804 1.882.256 4.447.826 6.134.759.16-2.015-.199-4.918-.267-7.064"/><path d="M287.32 176.59c-.036.033-4.729-5.606-4.729-5.606l3.549 6.69 1.308.504-.128-1.588"/><path d="M285.78 170.12l2.724 8.845c-2.228-.684-5.762-1.349-7.933-1.762 1.884.004 4.474.23 6.135-.063-.031-2.034-.658-4.886-.927-7.02"/><path d="M287.57 176.6c-.01.052-6.606-1.415-6.606-1.415l6.283 3.123 1.269-.478-.945-1.231"/><path d="M286.21 170.91l2.69 8.859c-2.226-.696-5.758-1.381-7.928-1.807 1.884.015 4.474.255 6.137-.028-.023-2.034-.639-4.889-.899-7.024"/><path d="M288.65 177.3c-.02.047-6.321-3.053-6.321-3.053l5.669 4.596 1.358-.127-.707-1.416"/><path d="M285.88 171.35l4.488 8.05c-2.316-.177-5.901-.047-8.106.027 1.839-.412 4.413-.763 5.974-1.416-.451-1.983-1.652-4.634-2.356-6.662"/><path d="M289.65 177.99c-.012.051-6.568-1.814-6.568-1.814l6.164 3.49 1.296-.396-.892-1.28"/><path d="M286.56 172.33l4.534 8.018c-2.315-.157-5.897.002-8.099.096 1.835-.428 4.405-.8 5.96-1.467-.463-1.981-1.68-4.623-2.396-6.647"/><path d="M290.48 178.53c-.023.044-6.12-3.661-6.12-3.661l5.348 5.118 1.375.014-.602-1.47"/><path d="M287.07 172.91l5.232 7.469c-2.289.144-5.792.771-7.945 1.152 1.761-.669 4.249-1.379 5.712-2.251-.647-1.931-2.099-4.428-2.999-6.369"/><path d="M290.93 179.07c-.002.054-6.607-.156-6.607-.156l6.536 1.931 1.162-.722-1.092-1.054m3.831-32.009c.001-.021 4.753-.793 4.753-.793l-4.729.11-.825.424.801.259"/><path d="M297.37 148.07l-4.879-1.423 5.101-2.309-3.404 2.169c.789.536 2.222 1.083 3.182 1.562"/><path d="M294.55 147.22c-.005-.02 4.599-1.263 4.599-1.263l-4.764.607-.719.493.884.163"/><path d="M297.59 148.41l-5.673-.477c1.198-1.061 2.877-2.836 3.912-3.925-.711 1.024-1.805 2.383-2.276 3.351 1.08.434 2.815.724 4.037 1.05"/><path d="M292.84 147.55c.004-.021 4.779-.54 4.779-.54l-4.657-.149-.871.383.749.306"/><path d="M296.38 148.59l-5.174-.942 4.724-2.611-3.039 2.337c.892.442 2.435.841 3.489 1.216"/><path d="M292.43 147.5c-.012-.018 4.207-1.811 4.207-1.811l-4.608 1.216-.552.561.953.033"/><path d="M296.24 149.12l-4.294-1.712c.934-.869 2.25-2.392 3.061-3.326-.564.934-1.426 2.141-1.807 3.066.81.689 2.119 1.366 3.039 1.972"/><path d="M292.67 147.81c-.009-.028 3.273-1.418 3.273-1.418l-3.565.488-.438.635.73.295m-2.74 30.65c.003.052-6.783.051-6.783.051l6.869 1.679 1.127-.738-1.212-.992"/><path d="M291.15 178.9c-.008.05-6.889-1.602-6.889-1.602l6.616 3.243 1.296-.417-1.023-1.224"/><path d="M292.28 179.36c0 .052-6.84-.345-6.84-.345l6.839 2.062 1.173-.665-1.172-1.052"/><path d="M287.94 174.53l6.312 6.815c-2.298.347-5.757 1.276-7.886 1.842 1.692-.812 4.113-1.729 5.475-2.713-.917-1.825-2.727-4.131-3.902-5.944"/><path d="M293.22 179.71c-.012.048-6.837-2.237-6.837-2.237l6.425 3.82 1.346-.284-.933-1.299"/><path d="M288.57 174.98l6.865 6.131c-2.202.634-5.474 2-7.488 2.836 1.562-1.031 3.825-2.258 5.048-3.422-1.086-1.737-3.091-3.851-4.425-5.544"/><path d="M293.78 180.13c.011.053-6.488 1.276-6.488 1.276l6.836.466.965-.953-1.314-.789"/><path d="M292.43 179.72c.007.052-6.767.519-6.767.519l6.982 1.2 1.069-.814-1.284-.905"/><path d="M293.68 180.08c-.005.05-6.997-1.122-6.997-1.122l6.847 2.776 1.263-.505-1.113-1.149z"/><path d="M294.84 180.46c.004.052-6.853.128-6.853.128l6.981 1.583 1.12-.744-1.249-.968z"/><path d="M290.14 175.94l6.812 6.357c-2.267.505-5.651 1.669-7.733 2.38 1.627-.926 3.976-2.008 5.261-3.082-1.053-1.756-3.032-3.929-4.341-5.655z"/><path d="M295.81 180.74c-.009.049-6.992-1.758-6.992-1.758l6.699 3.364 1.322-.376-1.029-1.23z"/><path d="M290.81 176.34l7.312 5.637c-2.15.784-5.313 2.371-7.26 3.343 1.482-1.135 3.648-2.514 4.781-3.76-1.214-1.656-3.374-3.626-4.833-5.221z"/><path d="M296.4 181.12c.014.052-6.379 1.719-6.379 1.719l6.858-.007.892-1.017-1.37-.695z"/></g><path d="M305.21 171.52l-5.211-3.601-5.211 3.601 1.954-5.762-4.56-3.602h5.863l1.954-5.762 1.954 5.762h5.863l-4.56 3.602 1.954 5.762z" fill="#fedf00" stroke-width=".299"/></g></svg>