<svg xmlns="http://www.w3.org/2000/svg" width="750" height="500"  xmlns:v="https://vecta.io/nano"><path fill="#006c35" d="M0 0h750v500H0z"/><path fill-rule="evenodd" d="M323.28 118.09c-.388-.011-.968.205-1.781.688-1.828 1.226-5.452 5.001-5.562 9.344-.111 2.45-.573 2.441 1.031 4 1.159 1.671 2.317 1.507 4.656.281 1.344-.99 1.797-1.621 2.25-3.281.557-2.784-2.93 1.317-3.375-1.781-.779-2.877 1.447-4.06 3.563-6.844.048-1.311.072-2.381-.781-2.406zm34.062.188c-.653.088-1.453.925-2.562 2.938-.795 2.108-4.226 5.297-1.75 11.875 2.025 4.171 2.857 10.949 1.938 18.5-1.403 2.146-1.723 2.885-3.562 5.031-2.584 2.779-5.383 2.068-7.531 1.031-2.007-1.353-3.584-2.047-4.5-6.344.165-6.849.564-18.059-.687-20.438-1.846-3.684-4.887-2.363-6.187-1.25-6.247 5.712-9.333 15.357-11.219 23.031-1.733 5.593-3.579 3.976-4.875 1.719-3.156-2.957-3.377-26.083-7.187-22.281-6.102 17.44 3.502 36.545 10.156 34.688 4.801 1.988 7.847-7.15 9.813-17.156 1.345-2.808 2.372-3.131 3.063-1.687-.177 13.306.954 16.274 4.375 20.312 7.631 5.887 13.943.746 14.438.25l5.938-5.937c1.322-1.391 3.07-1.476 4.938-.25 1.815 1.65 1.582 4.492 5.469 6.469 3.271 1.308 10.255.318 11.875-2.5 2.18-3.736 2.709-5.02 3.719-6.437 1.556-2.071 4.219-1.154 4.219-.5-.248 1.155-1.812 2.295-.75 4.375 1.851 1.388 2.28.496 3.375.188 3.872-1.851 6.781-10.25 6.781-10.25.171-3.133-1.611-2.895-2.75-2.25-1.486.908-1.577 1.217-3.062 2.125-1.893.281-5.56 1.53-7.375-1.281-1.854-3.38-1.864-8.091-3.281-11.5 0-.248-2.476-5.36-.187-5.687 1.155.215 3.639.857 4.031-1.219 1.212-2.023-2.614-7.761-5.219-10.656-2.261-2.481-5.382-2.784-8.406-.25-2.118 1.948-1.803 4.124-2.219 6.188-.539 2.37-.436 5.305 1.969 8.438 2.114 4.168 5.954 9.515 4.688 17.062 0 0-2.231 3.592-6.156 3.125-1.636-.357-4.302-1.065-5.719-11.531-1.072-7.922.269-19.022-3.094-24.219-.759-1.961-1.411-3.865-2.5-3.719zm-10.78.84c-1.017.089-2.144 1.273-3.062 3.563-.788 1.741-1.751 10.844-1.594 10.844-.629 2.709 2.831 3.857 4.406.375 2.362-6.384 2.373-9.104 2.531-11.812-.368-2.063-1.264-3.058-2.281-2.969zm39.812.719c-1.045.095-1.877.706-2.187 2.25-.416 3.63-.204 5.603.406 8.625.468 2.015 3.4 5.388 4.844 7.344 6.896 9.269 13.531 18.583 19.938 28.219 1.007 7.155 1.745 14.154 2.219 21.125 1.038 15.284 1.354 34.31.406 50.406 2.864.113 7.452-4.624 9.063-11.562 1.047-9.598-.373-29.18-.469-34.844-.067-2.351-.212-5.157-.375-8.094 7.453 12.179 14.683 25.082 21.781 39.25 2.587-1.23 2.014-15.798.5-17.844-5.681-12.227-13.529-24.296-16.031-28.938-.903-1.676-3.979-6.355-7.625-11.75-.671-7.698-1.401-14.219-1.875-16.188-1.172-8.138 3.345.918 2.719-3.812-1.466-8.127-5.951-13.65-11.25-21.094-1.709-2.421-1.675-2.915-4.312.594-1.577 3.577-1.555 6.553-1.094 9.344a49.55 49.55 0 0 0-2.781-3.687l-8.656-7.344c-1.198-.85-3.478-2.158-5.219-2zm118 1.219c-.509-.079-1.063.171-1.687 1.094-1.193 1.046-2.477 2.941-2.437 5.375.29 4.289 1.053 8.68 1.344 12.969l.313 1.719c-.461-.588-.863-1.047-1.094-1.281-8.36-8.782 3.841-1.435-1.594-8.219-4.596-5.047-5.941-6.653-9.875-9.687-1.973-1.275-3.164-3.711-3.812.438-.258 3.645-.526 7.865-.281 10.938-.014 1.707 1.754 4.922 3.281 6.813 5.577 6.852 11.273 14.142 17 21.75 1.205 15.516 1.527 29.739 2.75 45.281-.173 6.647-2.218 15.476-4.156 16.312 0 0-2.96 1.7-4.937-.187-1.438-.578-7.187-9.594-7.187-9.594-2.943-2.698-4.906-1.927-7 0-5.776 5.577-8.388 16.023-12.312 23.219-1.012 1.606-3.862 2.972-7.031-.125-8.048-10.996-3.342-26.648-4.344-22.625-7.168 8.079-3.994 21.465-2.375 24.344 2.364 4.728 4.276 7.755 8.875 10.094 4.189 3.083 7.451 1.159 9.25-1 4.215-4.368 4.271-15.54 6.25-17.75 1.388-4.06 4.866-3.362 6.563-1.562 1.644 2.364 3.585 3.901 6 5.188 3.932 3.468 8.625 4.098 13.25.938 3.161-1.773 5.212-4.077 7.063-8.625 1.986-5.311 1.004-33.142.563-48.625l8.813 12.781c1.278 13.591 1.858 26.976 1.438 39.812-.301 2.552 8.906-7.62 8.844-12.438v-11.594c4.466 7.131 8.789 14.38 12.875 21.719 2.532-1.342 1.664-15.678.063-17.656-4.278-7.179-9.757-14.936-14-20.938-.839-7.575-1.981-16.512-2.5-19.25-.809-4.27-1.62-10.683-2.844-15.75-.336-1.979-1.349-8.298-1.031-8.906.499-1.414 2.384.045 3.313-1.594 1.39-1.515-4.818-17.598-7.969-22.188-1.133-2.057-3.182-1.345-5.719 2-2.353 2.201-1.492 7.223-.594 12 2.333 12.174 4.415 24.572 6.063 36.938l-10.438-15.312-.469-2.406c0-.219-.505-9.959-.937-12.281-.076-.942-.3-1.214.688-1.094 1.047.881 1.19.928 1.844 1.219 1.057.194 1.982-1.594 1.344-3.25l-9.812-18.125c-.394-.388-.835-.796-1.344-.875zm-304.53.313c-1.812-.052-3.812 1.072-3.031 3.25-.455 1.187 3.548 5.201 4.25 7.406.63 1.57-.625 6.627.688 7.094 1.207.523 2.868-3.5 3.5-7.219.35-2.037.085-9.008-4.656-10.438-.243-.055-.491-.086-.75-.094zm346.91.04c-.413.041-.916.709-1.687 2.344-1.855 3.038-2.493 8.477-1.75 13.281 4.465 30.203 7.783 59.449 8.469 86.219-.384 2.541-.496 3.893-1.687 7.094-2.636 3.379-5.543 7.614-8.281 9.656s-8.564 3.987-10.469 5.5c-6.044 3.494-6.074 7.511-1.187 7.656 8.421-.978 18.386-1.669 25.25-12.031 1.837-2.904 3.999-10.776 4.094-15.594.642-28.247-.361-55.866-4.594-76.281-.271-1.989-1.149-6.56-.812-7.156.545-1.398 3.301.14 4.281-1.469 1.439-1.47-7.125-12.436-10.125-17.125-.599-1.178-.969-2.147-1.5-2.094zm-88.312.469c-.348.06-.861.589-1.812 1.844-2.353 7.692-3.179 13.973-2.281 18.75 6.043 31.534 12.234 60.263 11.25 90.281 2.866.019 6.179-6.555 7.594-13.062.775-8.964-.517-14.419-.75-19.688s-5.964-48.014-7.125-52c-1.401-7.537 5.574-.991 4.813-5.375-2.411-5.526-8.429-13.574-10.312-18.375-.708-1.286-.795-2.475-1.375-2.375zm-215.03.594c-.743.129-1.459.741-1.719 1.75-.163.661.286 1.761-.312 2.094-.344.347-1.648.114-1.594-1.719 0-.584-.428-1.193-.687-1.562-.26-.17-.436-.219-.906-.219-.574.023-.561.174-.875.656-.14.49-.32.97-.32 1.53-.072.652-.333.873-.812.969-.536 0-.409.058-.844-.219-.258-.282-.562-.393-.562-.875 0-.499-.131-1.295-.281-1.625-.228-.3-.588-.457-1-.562-2.247.008-2.41 2.59-2.281 3.563-.168.183-.252 4.759 2.813 6.031 4.113 1.961 11.827 1.132 11.5-5.5 0-.587-.129-2.556-.187-3.094-.42-.978-1.195-1.347-1.937-1.219zm55.188.063c-1.422.073-2.677.48-3.75 1.031-2.726 2.611-3.366 6.796-1.219 9.406 2.089.987 4.174 3.09 2.781 4.25-5.909 6.311-21.287 16.857-22.062 18.781-.006.016-.028.048-.031.063s0 .05 0 .063c0 .006-.001.026 0 .031a.29.29 0 0 0 .031.063c.004.004.027.028.031.031s.026-.003.031 0 .024.029.031.031.023-.002.031 0l.031.031c.781.524 10.404.512 11.469.031.008-.004.025-.027.031-.031s.029.002.031 0-.002-.029 0-.031c3.307-1.219 19-19.156 19-19.156-.813-.696-1.563-1.21-2.375-1.906-.871-.754-.783-1.495 0-2.25 3.887-2.262 2.655-7.238.625-9.5-1.683-.754-3.266-1.01-4.687-.937zm144.25.063c-.413.041-.916.677-1.687 2.313-1.855 3.038-3.115 8.328-2.969 13.281 4.018 27.814 5.249 52.154 7.875 79.969.214 2.69-.181 6.598-1.969 8.156-6.614 6.906-16.151 15.424-26.531 19.344-1.117 1.254 2.777 6.599 7.813 6.594 8.421-.978 15.823-5.704 22.688-18.156 1.836-2.904 5.062-9.12 5.156-13.938.642-28.247-1.424-50.209-5.656-70.625-.271-1.989-.087-4.341.25-4.937.545-.651 2.394.015 3.375-1.594 1.439-1.47-3.844-13.655-6.844-18.344-.599-1.178-.969-2.115-1.5-2.062zm-223.47.85c-1.162.136-2.256 1.082-2.781 2.344-.195 4.461-.221 8.92.281 13.031 2.029 7.211 2.672 13.553 3.656 20.938.273 9.891-5.712 4.279-5.437-.625 1.382-6.369 1.009-16.396-.219-18.938-.974-2.541-2.101-3.168-4.469-2.75-1.88-.115-6.736 5.177-8.094 13.938 0 0-1.131 4.496-1.625 8.5-.664 4.525-3.662 7.729-5.75-.625-1.805-6.072-2.915-21.032-5.937-17.531-.866 11.681-1.894 32.235 8.031 34.344 12.005 1.154 5.374-20.294 9.719-24.188.821-1.924 2.344-1.958 2.469.469v18.219c-.11 5.923 3.788 7.683 6.813 8.906 3.148-.243 5.235-.157 6.469 2.906l1.5 31.531s7.277 2.091 7.625-17.719c.349-11.632-2.316-21.393-.75-23.656.055-2.224 2.905-2.333 4.875-1.25 3.138 2.213 4.53 4.937 9.406 3.844 7.42-2.044 11.89-5.646 12-11.344-.433-5.415-1.06-10.835-3.406-16.25.328-.985-1.42-3.547-1.094-4.531 1.333 2.088 3.351 1.915 3.813 0-1.263-4.162-3.229-8.149-6.406-9.875-2.626-2.313-6.468-1.824-7.875 3-.652 5.559 2.015 12.147 6.063 17.531.86 2.104 2.062 5.602 1.531 8.75-2.154 1.229-4.29.718-6.094-1.187 0 0-5.906-4.422-5.906-5.406 1.567-10.035.338-11.184-.531-13.969-.607-3.844-2.429-5.062-3.906-7.687-1.478-1.566-3.482-1.566-4.437 0-2.611 4.526-1.386 14.242.5 18.594 1.363 4.002 3.452 6.5 2.469 6.5-.81 2.262-2.5 1.736-3.719-.875-1.74-5.395-2.094-13.437-2.094-17.062-.522-4.494-1.104-14.095-4.062-16.531-.789-1.075-1.721-1.449-2.625-1.344zm42.156.063c-.596.075-1.254.414-2.031.594-2.552.812-4.941 3.019-4.187 7.313l8 50.656c.464 2.147-1.336 4.977-3.656 4.688-3.945-2.669-4.924-8.075-11.656-7.844-4.873.059-10.431 5.362-11.125 10.469-.812 4.059-1.102 8.46 0 12 3.425 4.118 7.528 3.679 11.125 2.75 2.958-1.218 5.392-4.133 6.438-3.437.003.003.029-.004.031 0s-.003.027 0 .031c.645 1.128-.061 10.663-13.938 18.031-8.528 3.829-15.316 4.744-18.969-2.219-2.263-4.351.165-20.924-5.406-17.094-16.475 42.467 38.598 48.395 44.75 1.75.398-1.316 1.612-2.636 2.469-2.312.376.16.72.671.844 1.625-1.277 42.235-42.606 45.13-49.625 31.844-1.74-3.132-2.263-10.103-2.437-14.281-.318-2.528-.952-3.985-1.687-4.562-1.674-1.258-3.925 2.023-4.406 7.719-.696 4.583-.5 5.841-.5 10.25 2.204 33.359 55.388 19.026 64.031-8.531 4.279-14.246-.087-24.993 1.344-26.312.012-.01.049-.022.063-.031s.048-.024.063-.031.047-.026.063-.031c.049-.013.13-.03.188-.031 5.28 5.687 12.688.723 14.312-1.25.696-.987 2.439-1.62 3.656-.344 4.118 2.96 11.337 1.565 12.844-3.656.871-5.105 1.607-10.361 1.781-15.812-2.683.833-4.848 1.457-5.719 2.375-.207.227-.361.478-.406.75l-.687 4.531a1.12 1.12 0 0 1-.125.344c-.114.185-.303.356-.5.469-.948.518-2.602.222-2.687-1.156-1.276-5.802-6.528-6.556-9.719 2.438-2.147 1.74-6.062 2.079-6.469-.531.522-6.034-1.909-6.843-6.781-4l-4.687-35.312c2.031-.059 3.893 1.414 5.75-.906-2.009-6.249-6.261-18.963-8.656-20.156-.019-.009-.044-.024-.062-.031a3.18 3.18 0 0 0-.344-.344 3.05 3.05 0 0 0-.156-.125c-.044-.031-.113-.069-.156-.094a1.73 1.73 0 0 0-.312-.125c-.218-.062-.431-.091-.656-.062zm164.34.094c-2.108-.062-4.44 1.266-3.531 3.906-.529 1.44 4.528 6.326 5.344 9 1.468 4.108-1.121 8.027.406 8.594 1.405.634 3.36-4.242 4.094-8.75.848-3.645-1.752-11.114-5.437-12.656-.282-.067-.574-.085-.875-.094zm-128.03 4.5c.96-.098 2.12.784 2.688 2.031.606 1.33.302 2.601-.687 2.844s-2.269-.638-2.875-1.969-.302-2.633.688-2.875a1.35 1.35 0 0 1 .188-.031zm237.5 6.156c-1.922-.067-4.016 1.392-3.187 4.25-.482 1.559 4.101 6.855 4.844 9.75.668 2.06-1.017 8.7.375 9.313 1.281.686 3.082-4.587 3.75-9.469.371-2.672-1.609-12.049-4.969-13.719-.258-.072-.538-.115-.812-.125zm-131.31 3.25c.176.784.351 1.572.469 2.375.394 1.732.733 3.452 1.094 5.156-1.517-2.089-2.772-3.776-3.312-4.375-3.432-4.079.077-2.679 1.75-3.156zm30.25 14.875c-.743.129-1.459.772-1.719 1.781-.163.661.317 1.73-.281 2.063-.344.347-1.679.145-1.625-1.687 0-.584-.428-1.224-.687-1.594-.26-.17-.436-.219-.906-.219-.574.023-.561.174-.875.656-.133.491-.312.975-.312 1.531-.072.652-.301.873-.781.969-.536 0-.441.058-.875-.219-.258-.282-.562-.393-.562-.875 0-.499-.131-1.295-.281-1.625-.228-.3-.588-.425-1-.531-2.247.008-2.379 2.559-2.25 3.531-.168.183-.283 4.791 2.781 6.063 4.113 1.961 11.858 1.101 11.531-5.531 0-.587-.16-2.556-.219-3.094-.42-.978-1.195-1.347-1.937-1.219zm-138.12 1.375c-.507-.052-1.172.135-1.937.594-3.638 1.968-5.046 7.804-2.781 11.219 2.116 3.008 5.461 1.906 5.906 1.906 3.564.446 5.688-6.687 5.688-6.687s.107-2.006-4.125 1.781c-1.781.334-2.023-.31-2.469-1.312-.371-1.856-.291-3.737.563-5.594.394-1.113.002-1.82-.844-1.906zm195.25.906c-2.019-.098-4.169 1.209-4.719 3.969.008 1.628.735 2.522.594 4-.211.845-1.081 1.4-3.156.406.325-.298-1.344-2.656-1.344-2.656-1.619-.986-3.78.054-5.187.969-.774 1.407-1.347 3.819-.469 6.281 2.323 4.293 10.293 11.618 14.094 11.688.071-3.87.447-9.018.656-12.219.09-1.208.373-2.54 1.531-2.844s3.165 1.164 3.188-.094c-.211-2.462-.703-6.096-2.094-7.812-.712-1.056-1.882-1.629-3.094-1.687zm-161.62 13.469c-.054.02-.107.066-.156.094-.024.015-.069.045-.094.063-.402.302-.877.999-1.937 1.75-1.789 2.035-2.11 3.452-2 7.531.102.431 3.397 9.592 6.188 16.031 1.882 6.693 3.623 14.356 2.344 21.594-4.406 9.568-13.263 18.15-21.812 22.812-4.356 1.395-8.117.92-9.125-.031l-.031-.031c-2.501-1.682-2.559-4.676-2.406-5.187 0-.003 0-.028 0-.031l.031-.031c7.214-5.025 15.454-9.091 21.906-22.656 1.905-5.184 2.487-8.296.594-16.312-.738-2.987-1.649-5.445-3.687-7.562.005-.006.026-.026.031-.031 1.228-.588 4.414 1.76 4.906.281-.754-3.827-3.346-8.965-6.281-11.594-2.57-2.334-5.366-2.605-7.719-.469-2.65 1.475-3.214 6.771-1.937 11.406 1.417 3.489 5.243 4.102 7.969 11.125v.031c.057.44.935 5.242-.437 7.188-1.114 3.474-15.424 14.759-16.438 15.438-.011.011-.083.052-.094.063l-.031.031c-.003.002-.025.024-.031.031l-.031.031h-.031c-.002 0-.024 0-.031 0-.006-.005-.026-.025-.031-.031 0-.003 0-.028 0-.031-.006-.011-.026-.051-.031-.062-.043-.282.033-.999 0-2.156-.094-2.114.781-6.898.719-7.719v-.031l-.031-.031v-.031a1.38 1.38 0 0 1-.031 0c-4.73 3.054-6.292 12.416-7.156 15.188-11.975 8.274-25.574 14.43-33.406 22.812-4.079 6.37 28.104-7.315 31.844-8.969.032.024.064.063.094.094.711.782.772 3.51 2.906 5.969 3.345 4.532 10.456 7.322 17.375 5.594 11.603-4.194 18.288-12.102 25.094-20.875.973-1.415 2.497-2.53 3.906-1.437 4.677 10.47 18.161 17.92 35.594 18.688 4.034-4.906 2.105-7.318.469-8.344-.504-.335-8.67-3.518-9.937-6.687-.798-2.949 1.143-5.565 5.031-7.531 11.193-1.354 22.196-2.857 32.844-6.281.108-3.577 2.215-8.927 3.625-11.25.979-1.612 1.609-1.772 1.844-2 .008-.008.025-.023.031-.031s.028-.027.031-.031.026-.026.031-.031v-.062a1.03 1.03 0 0 0-.031-.312l-1.812-1.062-35.719-.156c-.441-.17-.769-.34-.969-.5-.015-.013-.049-.05-.062-.062l-.031-.031c-.006-.006-.026-.025-.031-.031s-.026-.052-.031-.062l-.031-.031c0-.003 0-.028 0-.031l-.031-.031v-.094c0-.005 0-.026 0-.031s0-.025 0-.031 0-.028 0-.031 0-.028 0-.031 0-.028 0-.031l.031-.031c.008-.017.02-.046.031-.062.174-.235.597-.457 1.125-.656 8.529-1.162 23.682-3.646 24.688-18.219-.157-7.591-3.248-12.561-12.562-13.938-6.844.529-11.725 7.149-10.938 14.438-.328 1.962.664 5.814-1.344 6.25-13.128 1.199-27.457 9.425-27.938 15.312-.003-.001-.029 0-.031 0-.005.006-.026.026-.031.031l-.062.031c-.011 0-.051 0-.062 0-.021.007-.072.026-.094.031-.006.001-.023 0-.031 0-.018 0-.051 0-.062 0a.83.83 0 0 0-.031 0c-.013 0-.052.001-.062 0-.034-.007-.096-.024-.125-.031-.854-.237-1.954-1.646-1.781-3.625-.5-10.177-3.812-21.693-9-30.562-1.851-1.851-2.658-2.601-3.187-2.687-.017-.002-.046.001-.062 0-.022 0-.066 0-.094 0-.005 0-.026 0-.031 0s-.028 0-.031 0-.027-.001-.031 0zm34.188 5.375c-.743.129-1.459.741-1.719 1.75-.163.661.317 1.761-.281 2.094-.344.347-1.679.145-1.625-1.687 0-.584-.428-1.224-.687-1.594-.26-.17-.404-.219-.875-.219-.574.023-.592.174-.906.656-.133.491-.312.975-.312 1.531-.072.652-.301.873-.781.969-.536 0-.409.058-.844-.219-.258-.282-.594-.393-.594-.875 0-.499-.1-1.295-.25-1.625-.228-.3-.619-.425-1.031-.531-2.247.008-2.379 2.559-2.25 3.531-.168.183-.283 4.791 2.781 6.063 4.113 1.961 13.916.807 11.531-5.531 0-.587-.16-2.556-.219-3.094-.42-.978-1.195-1.347-1.937-1.219zm137.97 5.656a.68.68 0 0 0-.344.031l-19.531 14.031c-1.89 1.68-.944 7.589 0 6.906 1.366.525 20.554-12.478 20.188-14 .836.049 1.238-6.689-.312-6.969zm-119.96 2.01c.778-.083 1.798.181 2.781.75 1.423.823 2.3 2.066 2.188 2.969-.004.024.005.07 0 .094s-.055.071-.062.094-.022.071-.031.094c-.006.015-.024.048-.031.063s-.023.048-.031.063a1.25 1.25 0 0 1-.187.219c-.684.639-2.263.548-3.75-.312-1.41-.815-2.281-2.068-2.187-2.969.003-.025.027-.07.031-.094.024-.112.068-.214.125-.312.02-.035.038-.093.063-.125.005-.006.026-.025.031-.031a1.43 1.43 0 0 1 .156-.156c.227-.178.548-.306.906-.344zm-166.91 3.438c-9.876.18-24.338 12.945-24.719 20.031l31.25-15c-1.709-2.552-.104-4.852-6.531-5.031zm32 4.438c.968.011 1.989.489 2.531 1.844.488 1.243.023 2.542-.562 3.188-.003.005.003.026 0 .031-.009.014-.022.049-.031.063-.415.534-1.87.313-2.906.313-1.254-.055-1.872-.261-2.625-1.281-.36-1.134.736-2.248 1.219-3.094.005-.008.026-.023.031-.031.052-.079.138-.173.219-.25.375-.343 1.024-.665 1.719-.75.135-.017.268-.033.406-.031zm251.16 3.93c-1.756.217-3.425 1.877-2.656 4.531-.482 1.559 2.382 7.012 3.125 9.906.668 2.06-.861 7.887.531 8.5 1.281.686 4.65-3.459 4.531-8.656.371-2.672-.953-12.517-4.312-14.188-.386-.108-.814-.144-1.219-.094zm-213.31 9.625c-1.552.108-2.937.938-2.312 3.125-.094 1.587 4.385 3.516 4.656 7.188.64 1.514-.957 6.362.375 6.813 1.224.504 2.921-3.351 3.563-6.937.355-1.964-1.537-8.836-4.75-10.062a5.5 5.5 0 0 0-1.531-.125zm63.844 8.719c.118-.008.222.001.344 0h.063c3.979 1.082 9.845 1.194 14.938 1.719 4.148.263 6.197 3.51 2.313 4.875-3.832 1.312-7.514 2.337-7.531 7.875.504 2.743.397 4.183-.031 4.844-.034.05-.088.116-.125.156-.005.006-.026.026-.031.031s-.026.026-.031.031-.026.026-.031.031l-.031.031c-.011.005-.051.026-.062.031a1.1 1.1 0 0 1-.187.094c-.054.018-.13.022-.187.031-.911.134-2.234-.735-3.219-1.25-2.363-1.696-8.993-5.806-9.937-14.625-.134-1.99 1.355-3.706 3.75-3.875zm-155.94 6.781c-.249.008-.746.751-1.406 1.594-5.875 9.36-6.398 23.331-3.156 27.5 1.723 1.97 4.563 2.836 6.656 2.219 3.691-1.601 5.313-9.077 4.438-11.812-1.232-1.928-2.208-2.234-3.437-.594-2.597 5.274-3.678 1.666-3.906-1.281-.398-5.589.143-10.736.75-14.812.323-2.089.311-2.82.063-2.812zm200.16 12.29c-.437-.023-.903.045-1.375.281-.093 0-4.206 2.781-5.531 4.719-.808.615-.717 1.149-.469 2.219.63 1.448 1.74.994 3 .313 1.672-.228 2.481.867 2.344 2.875-.772 2.504.344 3.436.344 3.594s1.61 1.539 3.5.438c3.989-1.523 6.476-3.004 12.062-4.219 1.467-.029 1.382-3.954-.937-4.094-3.026.152-5.818.307-8.844 2.688-1.862.43-2.18-.703-2.594-1.719-.473-2.521 1.065-4.298.75-6.187.084.083-.939-.836-2.25-.906zm128.16 4.781c-.742.023-1.524.126-2.656.219-1.225.26-1.652.797-1.875 2.281.088 2.252 1.465 2.14 2.875 3.031.816 1.039 1.348 1.98-.062 3.688-1.337 1.225-2.288 1.9-3.625 3.125-.631 1.077-1.024 2.73.906 3.25 3.564 1.002 11.812-4.357 11.812-4.469 1.337-1.002.893-2.906.781-2.906-.779-.891-2.537-.356-3.719-.5-.562 0-2.409-.273-1.531-1.906.733-1.016 1.003-1.623 1.5-2.875.556-1.225.067-2.05-1.937-2.719-1.021-.185-1.726-.242-2.469-.219zm-53.54 108.4c-.008.004-.023.026-.031.031-5.928 1.521-5.743 7.675-1.937 10.375-62.594 0-158.65-1.062-179.25-1.062-11.525 0-47.987-1.375-48.688-1.375 7.82 11.437 19.147 13.766 33.969 14l193.28-.344c-2.606 4.627.236 12.074 2.281 13.438.043.028.114.072.156.094.076.038.177.075.25.094.024.006.07-.003.094 0 2.427.572 3.495-1.185 4.313-2.469 3.937.347 26.097.668 28.125-.031.007-.003.024-.028.031-.031 1.372 2.019 2.733 3.926 5.344 3.594 4.569-.98 8.167-1.477 8.281-10.75 0 0-.467-15.802-10.844-14.812-2.455.371-9.344 1.063-9.344 1.063-7.972-.948-13.819-1.045-22.781-1.375.827-1.05 2.288-5.303.5-6.844-.466-.388-1.162-.604-2.125-.531-.007 0-.024 0-.031 0-.014-.001-.049.002-.062 0-.007-.002-.025-.029-.031-.031-.026-.009-.069-.016-.094-.031-.049-.033-.112-.103-.156-.156-.011-.014-.052-.048-.062-.062-.453-.66-.701-2.278-1-2.687l-.031-.031c-.004-.003-.028-.028-.031-.031-.011-.007-.051-.028-.062-.031-.004 0-.027 0-.031 0s-.027-.001-.031 0zm4.25 22.594c.011-.005.02.005.031 0 9.132.446 17.712.086 26.844.531 1.447 1.23.723 4.048-.219 4.563-.042.021-.113.051-.156.063-.034.008-.091-.001-.125 0s-.091.008-.125 0l-7.656-.219c-.005-.148-.022-.307-.062-.437-.704-2.086-5.801-1.946-7-.312a2.54 2.54 0 0 0-.062.094c-.019.033-.046.091-.062.125-.019.042-.048.112-.062.156-.019.062-.023.154-.031.219-.008.075-.038.171-.031.25-4.009.482-7.616-.133-11.625-.281-1.176-1.464-1.039-4.113.344-4.75z" fill="#fff"/></svg>