<svg xmlns="http://www.w3.org/2000/svg" xmlns:xlink="http://www.w3.org/1999/xlink" width="800" height="600" xmlns:v="https://vecta.io/nano"><style><![CDATA[.B{stroke-width:.933}.C{stroke-linejoin:round}.D{stroke:none}.E{fill:#f1bf31}.F{fill:none}.G{fill:#d99f31}.H{stroke-linecap:round}.I{fill:#658d5c}.J{fill:#a48253}.K{stroke-width:.45}.L{stroke-width:.777}.M{fill:#000}.N{stroke-width:1.09}.O{stroke:#000}.P{fill:#fff}.Q{stroke-width:1.244}.R{fill:#466343}.S{stroke-width:.904}.T{fill:#bdbfc1}.U{stroke-width:.633}.V{stroke-width:.604}.W{stroke-width:.915}.X{stroke-width:1.029}.Y{stroke-width:.719}.Z{stroke-width:.623}.a{stroke-width:.948}.b{stroke-width:.846}]]></style><path fill="#5eb6e4" d="M0 0h800v600H0z"/><path d="M0 0h800v300H0z" class="P"/><g class="F O"><g class="B P"><circle cx="459.439" cy="171.232" r="4.044"/><circle cx="461.689" cy="157.024" r="5.081"/><circle cx="376.388" cy="141.721" r="3.909"/><circle cx="338.47" cy="157.024" r="5.081"/><circle cx="361.666" cy="143.366" r="4.218"/><circle cx="340.72" cy="171.232" r="4.044"/><circle cx="346.87" cy="147.119" r="4.885"/><circle cx="423.77" cy="141.721" r="3.909"/><circle cx="438.492" cy="143.366" r="4.218"/><circle cx="453.288" cy="147.119" r="4.886"/></g><g class="N"><circle cx="459.439" cy="171.231" r="4.458"/><circle cx="461.69" cy="157.025" r="5.602"/><circle cx="376.389" cy="141.721" r="4.31"/><circle cx="338.47" cy="157.025" r="5.602"/><circle cx="361.666" cy="143.367" r="4.65"/><circle cx="340.718" cy="171.231" r="4.458"/><circle cx="346.871" cy="147.119" r="5.386"/><circle cx="423.769" cy="141.721" r="4.309"/><circle cx="438.492" cy="143.365" r="4.65"/><circle cx="453.287" cy="147.119" r="5.387"/></g><g class="M"><g class="C"><g class="B"><path d="M392.488 132.016c-13.483 15.539-37.154 7.948-47.953 13.998-18.784 10.523 1.649 35.486 5.496 40.258l20.47-5.343c-7.515-6.013-22.587-16.227-18.048-24.525 4.652-8.509 29.371.124 40.181-18.04 2.274-3.82.531-7.127-.145-6.349z"/><path d="M392.488 132.481c-13.483 15.542-36.39 8.094-47.186 14.145-18.785 10.524 2.431 34.876 6.279 39.649l17.682-5.345c-7.518-6.013-21.8-16.536-17.261-24.835 4.651-8.509 29.822-.031 40.632-18.195 2.274-3.82.531-6.197-.145-5.419z" class="E"/></g><path d="M393.711 133.678c-14.603 19.717-36.523 9.764-45.943 17.455-10.642 8.691 4.863 25.795 12.343 32.562l1.169-.429c-6.069-5.754-24.058-22.84-12.628-32.065 8.219-6.636 31.331 2.021 45.108-17.055z" class="U"/></g><g class="D"><path d="M357.83 171.306a14.72 14.72 0 0 0-1.256 3.332c-6.242-7.435-10.917-15.14-5.998-21.504 4.478-5.796 15.453-3.173 26.878-7.187 5.233-1.552 10.369-4.316 14.743-9.494-.42 1.134-.855 2.506-1.338 3.88-11.596 14.764-34.753 7.689-39.167 15.761-2.604 4.763 1.095 10.258 6.138 15.213z" class="G"/><path d="M352.11 169.98c1.303-.376 1.968-1.098 2.693-1.942l.918 1.067c-.499.661-1.069 1.31-1.925 1.759-1.035.543-2.168.681-3.229.681l-1.037-1.446c.861.086 1.827.098 2.58-.12zm-2.812-5.772c1.135-.178 1.594-.293 2.493-.8l.518 1.031c-.758.441-1.378.705-2.428.919-1.056.218-2.151.154-3.123-.008l-.575-1.335c.948.183 2.174.341 3.115.194zm1.538-4.812c-2.073-.198-4.085-1.283-5.495-2.828a8.66 8.66 0 0 1 .393-1.221c.811 1.015 2.57 2.769 5.186 2.997-.055.348-.082.699-.084 1.051zm1.806-4.554c-1.482-.864-2.705-2.228-3.457-3.772a8.95 8.95 0 0 1 .867-.546c.55 1.167 1.583 2.741 3.389 3.643a6.53 6.53 0 0 0-.799.674zm3.983-6.15a5.37 5.37 0 0 0 2.145 3.451l-1.116.257a6.26 6.26 0 0 1-1.931-3.581l.902-.128zm7.098-.619c.369 1.046 1.112 1.968 2.092 2.707.109.082.165.184.182.286l-1.107.139c-.999-.848-1.746-1.891-2.103-3.064l.936-.069zm6.923-.688c.671 1.032 1.59 1.903 2.685 2.552l-1.278.243c-.979-.726-1.794-1.629-2.396-2.664l.99-.131zm6.187-1.259c.895.866 2.03 1.508 3.242 1.92l-1.299.464c-1.117-.511-2.14-1.217-2.95-2.117l1.007-.268zm6.229-2.395c.83.6 1.921.996 2.898 1.238l-1.005.664c-.997-.316-2.018-.786-2.797-1.458l.905-.444zm4.592-2.906c.66.331 1.429.565 2.181.726l-.727.765c-.79-.206-1.579-.494-2.253-.895l.798-.596z"/></g><g class="C"><path d="M393.76 134.456c.044.954-.226 1.776-1.125 3.289-10.812 18.164-36.292 9.84-40.943 18.351-4.472 8.179 9.642 18.517 17.238 24.572a40.26 40.26 0 0 1-4.217 1.26l-1.327.718-1.967.621c-6.069-5.756-24.041-22.685-12.613-31.909 8.222-6.636 31.178 2.174 44.954-16.902z" class="F V"/><g class="B"><path d="M407.522 132.016c13.485 15.539 37.156 7.948 47.952 13.998 18.785 10.523-1.648 35.486-5.493 40.258l-20.473-5.343c7.518-6.013 22.588-16.227 18.051-24.525-4.653-8.509-29.373.124-40.183-18.04-2.273-3.82-.529-7.127.146-6.349z"/><path d="M407.671 132.481c13.483 15.542 36.39 8.094 47.186 14.145 18.784 10.524-2.431 34.876-6.279 39.649l-17.682-5.345c7.519-6.013 21.8-16.536 17.262-24.835-4.652-8.509-29.824-.031-40.633-18.195-2.274-3.82-.531-6.197.145-5.419z" class="E"/></g><path d="M438.879 183.266c6.07-5.754 24.058-22.84 12.628-32.065-8.221-6.636-31.332 2.021-45.108-17.055l.05-.468c14.602 19.717 36.523 9.764 45.943 17.455 10.626 8.675-4.95 25.737-12.46 32.528z" class="U"/></g><g class="D"><path d="M442.329 171.306c.358.679.894 1.849 1.256 3.332 6.242-7.435 10.918-15.14 5.999-21.504-4.478-5.796-15.455-3.172-26.88-7.188-5.233-1.552-10.368-4.316-14.742-9.494.42 1.133.853 2.504 1.336 3.876 11.593 14.768 34.757 7.692 39.17 15.765 2.603 4.763-1.095 10.258-6.139 15.213z" class="G"/><path d="M448.048 170.6c-1.502-.373-2.248-1.031-3.233-1.925l-.915 1.02c.689.664 1.397 1.316 2.462 1.79.92.408 1.889.565 2.814.611l1.013-1.368c-.736.045-1.51.03-2.141-.127zm2.813-6.393c-1.136-.178-1.593-.293-2.492-.8l-.518 1.031c.758.44 1.376.705 2.427.919 1.057.218 2.152.154 3.123-.008l.576-1.335c-.949.183-2.175.341-3.115.194zm-1.538-4.812c2.074-.199 4.084-1.284 5.494-2.828a8.6 8.6 0 0 0-.393-1.22c-.81 1.015-2.569 2.768-5.184 2.996.054.348.082.699.083 1.052zm-1.805-4.554c1.481-.863 2.702-2.228 3.455-3.771-.275-.197-.563-.379-.867-.546-.55 1.167-1.583 2.741-3.388 3.643.29.208.556.433.8.675zm-3.986-6.15c-.246 1.407-.991 2.596-2.145 3.451l1.116.257a6.26 6.26 0 0 0 1.931-3.58l-.901-.128zm-7.098-.619c-.369 1.046-1.111 1.968-2.092 2.707-.109.082-.165.183-.181.286l1.108.14c.999-.848 1.745-1.891 2.102-3.064l-.937-.069zm-6.923-.688c-.671 1.032-1.59 1.902-2.686 2.552l1.279.243c.977-.726 1.794-1.629 2.395-2.664l-.988-.131zm-6.188-1.259c-.895.866-2.029 1.508-3.24 1.92l1.297.464c1.119-.511 2.14-1.217 2.95-2.117l-1.007-.268zm-6.228-2.394c-.83.599-1.92.996-2.898 1.237l1.006.663c.996-.316 2.016-.785 2.796-1.457l-.904-.444zm-4.594-2.906c-.659.331-1.429.565-2.18.726l.726.764c.79-.206 1.577-.494 2.252-.894l-.798-.596z"/></g><path d="M406.399 134.456c-.044.954.227 1.776 1.128 3.289 10.809 18.164 36.289 9.84 40.942 18.351 4.47 8.179-9.644 18.517-17.239 24.572 1.333.481 2.738.903 4.217 1.26l1.326.718 1.967.621c6.069-5.756 24.041-22.685 12.614-31.909-8.222-6.636-31.178 2.174-44.955-16.902z" class="C F V"/><path d="M400.079 166.698h-6.842s.81-6.522-.106-10.941c-.741-3.573-3.592-7.674-3.592-10.681s3.256-11.453 3.256-11.453h14.568s3.1 8.447 3.1 11.453-2.696 7.108-3.437 10.681c-.915 4.419-.106 10.941-.106 10.941h-6.842z" class="B"/></g><g class="D"><use xlink:href="#C" class="E"/><path d="M389.977 144.402c.431-.146.886-.249 1.318-.249 1.501 0 2.095.98 2.095.98s3.932-.91 6.689-.91 6.69.91 6.69.91.594-.98 2.095-.98c.381 0 .78.079 1.163.199a9.49 9.49 0 0 1-.016 1.348c-.322 3.658-2.604 6.453-3.293 10.057-.42 2.189-.377 4.886-.224 7.055l-6.415 3.05-6.415-3.051c.153-2.169.198-4.866-.222-7.055-.692-3.604-3.125-6.399-3.448-10.057-.037-.423-.041-.857-.017-1.299z" class="G"/><path d="M407.092 146.815l-1.194 3.975c-.415 1.522-.768 3.054-.816 4.045-.191 3.869.472 8.07 1.242 11.863h-.279c-1.087-3.318-2.345-8.428-2.297-11.869.027-2.095 1.352-6.152 2.031-8.094.978-2.803.777-4.697.087-6.573-.691-1.886-1.87-3.754-2.838-6.495-.006-.018-.004-.032.002-.042h1.297c.99 2.696 2.104 4.582 2.766 6.491.673 1.938.885 3.895-.002 6.7zm-13.25 19.883c.773-3.826 1.417-7.972 1.243-11.863-.044-.989-.397-2.52-.816-4.045s-.896-3.034-1.194-3.974c-.889-2.806-.181-6.133.746-8.751a28.76 28.76 0 0 1 2.016-4.441h1.347c-.413.677-4.643 7.827-2.796 13.111.677 1.941 2.001 5.998 2.03 8.091.047 3.437-1.216 8.557-2.299 11.871h-.276z" class="M"/></g><use xlink:href="#C" class="B"/><ellipse cx="400" cy="140.644" rx="3.409" ry="2.507" class="P W"/><ellipse cx="400" cy="140.492" rx="3.835" ry="2.735" class="X"/><circle cx="400" cy="148.23" r="3.683" class="P W"/><circle cx="400" cy="148.23" r="4.143" class="X"/><path d="M360.414 204.281s-1.057-1.065-1.378-1.935c-.255-.685-.278-1.854-.278-1.854l-3.788-6.069 8.507-8.089 16.176-4.641 20.427-1.457 20.398 1.457 16.174 4.641 8.506 8.089-3.787 6.069s-.023 1.169-.278 1.854c-.322.87-1.379 1.935-1.379 1.935l-18.971-6.412-20.663-.925-20.692.925-18.974 6.412z" class="S"/><g class="B"><path d="M360.873 203.597s-.758-.947-1.046-1.655c-.418-1.023-.363-2.813-.363-2.813l-4.494-4.705 8.507-8.089 16.175-4.641 20.429-1.457 20.427 1.457 16.177 4.641 8.504 8.089-4.491 4.705s.052 1.79-.366 2.813c-.286.708-1.046 1.655-1.046 1.655l-18.514-5.727-20.691-.928-20.692.928-18.515 5.727z" class="E"/><path d="M358.832 207.288a41.168 12.777 0 1 1 82.336 0 41.168 10.824 0 1 1-82.336 0z" class="M"/><path d="M360.208 207.288a39.792 12.312 0 1 1 79.584 0 39.792 10.523 0 1 1-79.584 0z" class="E"/><ellipse cx="400" cy="208.415" rx="36.785" ry="9.395" class="G"/></g><path d="M436.52 209.676c-6.886 2.946-20.432 4.527-36.471 4.527s-29.584-1.581-36.47-4.527" class="N"/><path stroke-width="1.01" d="M435.909 206.262c-7.057 2.688-20.282 4.033-35.859 4.031s-28.802-1.344-35.858-4.032"/><g class="B"><path d="M432.459 203.885c-7.495 2.174-19.092 3.403-32.409 3.402s-24.912-1.228-32.407-3.402m59.835-1.815c-7.231 1.427-16.78 2.213-27.428 2.213s-20.196-.786-27.428-2.213m46.47-1.752c-5.659.624-12.118.956-19.042.956s-13.382-.332-19.042-.956"/><ellipse cx="400" cy="208.415" rx="36.475" ry="9.093"/><g class="C"><path d="M354.757 192.762c-3.611-4.803-6.831-8.073-14.649-10.834 1.073-.864 2.971-1.649 4.794-2.097 2.975-.733 6.015-.335 7.971.689-1.553-5.555 1.429-11.094 1.429-11.094s4.818-.276 9.699 3.646c.159-6.727 2.132-9.921 2.132-9.921s5.07.243 10.257 5.396c.988-6.958 4.742-10.734 4.742-10.734s6.229 1.951 9.79 8.523c2.373-9.523 9.156-13.253 9.156-13.253s6.785 3.731 9.157 13.253c3.562-6.572 9.792-8.523 9.792-8.523s3.731 3.64 4.742 10.734c5.187-5.153 10.257-5.396 10.257-5.396s1.973 3.194 2.133 9.921c4.881-3.922 10.178-2.463 10.178-2.463s2.502 4.356.948 9.911c1.954-1.024 4.996-1.422 7.971-.689 1.822.448 3.72 1.233 4.794 2.097-7.002 2.541-11.192 6.031-14.804 10.834-3.379-6.902-21.455-14.493-45.169-14.493s-41.943 7.591-45.321 14.493z" class="M"/><path d="M354.757 191.986c-3.088-4.84-7.546-8.382-12.17-10.172 1.074-.863 2.959-1.194 4.956-1.333 2.342-.162 4.292.166 5.945.951-1.553-5.552.969-11.231.969-11.231s4.967.019 9.848 3.941c.16-6.727 2.293-10.064 2.293-10.064s4.755.529 9.941 5.685c1.113-6.946 4.749-10.866 4.749-10.866s6.229 1.933 9.79 8.503c2.373-9.52 9.001-12.923 9.001-12.923s6.63 3.403 9.004 12.923c3.56-6.57 9.79-8.503 9.79-8.503s3.752 3.511 4.749 10.866c5.187-5.155 9.941-5.685 9.941-5.685s2.132 3.337 2.293 10.064c4.882-3.922 10.466-2.857 10.466-2.857s1.904 4.595.351 10.147c1.652-.785 3.602-1.113 5.942-.951 1.997.139 3.885.469 4.958 1.333-4.623 1.79-9.082 5.332-12.169 10.172-3.379-6.902-21.61-13.86-45.324-13.86s-41.943 6.958-45.321 13.86z" class="E"/></g><path d="M352.995 194.157c0-8.754 20.9-16.185 47.053-16.185s46.281 7.73 46.281 15.41c0 1.84-1.626 3.423-3.771 4.769a5.19 5.19 0 0 0 .311-1.763c0-7.68-16.667-13.905-42.822-13.905s-42.82 6.225-42.82 13.905c0 .596.106 1.186.312 1.763-2.145-1.346-4.545-2.156-4.545-3.994z" class="M"/></g><path d="M354.222 193.382c0-6.642 19.675-14.945 45.828-14.945s45.829 8.303 45.829 14.945c0 1.84-2.047 2.024-2.232 1.458-2.198-6.734-17.442-12.668-43.596-12.668s-41.398 5.934-43.596 12.668c-.185.566-2.232.382-2.232-1.458z" class="E S"/><path d="M399.577 172.094l.463-7.568.079-.774.434 8.339.289 6.015c0 .021-.017.04-.04.04l-1.503.008c-.021 0-.039-.019-.039-.04l.317-6.019zm38.456 13.549l1.287-2.655 2.109-4.305c.019-.05-.044-.078-.071-.034l-2.653 3.893-1.721 2.567zm-12.812-4.644l2.124-4.416c.987-1.814 2.77-4.512 2.77-4.512.029-.045.09-.01.067.038l-2.014 4.512-1.714 4.512-.66.009zm-11.599-2.087l1.316-4.951 1.79-5.64c.017-.051.086-.032.075.019l-1.036 5.791-.801 4.949zm-39.31 2.244l-.571.004c-.038-.027-1.032-2.799-1.75-4.539l-2.014-4.511c-.022-.048.038-.084.067-.038l2.77 4.512 2.124 4.415zm10.882-2.075l-.803-4.949-1.036-5.791c-.009-.053.058-.07.075-.021l1.789 5.642 1.318 4.951zm-23.186 6.623l-1.317-2.716-2.109-4.305c-.021-.05.043-.078.068-.034l2.654 3.894 1.76 2.621z" class="C K M"/><path d="M361.605 197.422c-.337-1.906-1.985-3.441-3.256-3.217s-3.073 2.122-2.736 4.026 2.717 3.291 3.988 3.069 2.34-1.975 2.004-3.879z" class="C G Y"/><path d="M359.49 195.078a2.39 2.39 0 0 1 .567 1.548c0 1.323-1.071 2.395-2.394 2.395-.438 0-.848-.118-1.201-.322a2.87 2.87 0 0 1-.147-.529c-.291-1.651.971-3.143 2.07-3.337a1.38 1.38 0 0 1 .24-.021c.296 0 .59.095.864.266z" class="D E"/><g class="C L"><path d="M360.903 197.466c-.291-1.649-1.418-2.828-2.516-2.635s-2.361 1.688-2.072 3.337 2.056 2.848 3.154 2.655 1.726-1.708 1.434-3.357z"/><path d="M375.4 192.846l-.598-3.583-2.413-1.217-4.209 1.279-4.211 1.731-.602 1.053.754 4.053 1.351 1.202 9.02-2.705.907-1.813z" class="G"/></g><path d="M365.464 195.441l7.226-2.286.45-.749-.625-3.752-.26-.257-8.024 2.944.611 3.403z" class="D E"/><path d="M365.464 195.441l7.226-2.286.45-.749-.475-3.001m2.555 3.441l-2.08-.442" class="C H N"/><g class="D"><use xlink:href="#D" class="E"/><path d="M385.814 189.398c.197-.526.681-.92 1.277-.971.69-.06 1.31.353 1.541.972a1.5 1.5 0 0 1-1.277.97c-.69.061-1.31-.354-1.541-.971zm-4.005-2.668a1.5 1.5 0 0 0 1.538.971c.596-.053 1.081-.446 1.277-.972-.23-.617-.851-1.031-1.539-.97-.595.052-1.08.446-1.277.971zm-3.032 3.321c.23.619.851 1.032 1.541.974.584-.051.987-.432 1.146-.944-.188-.633-.711-1.062-1.41-1-.596.052-1.08.445-1.277.97zm3.556 2.667a1.5 1.5 0 0 0 2.816 0c-.231-.617-.851-1.03-1.54-.97-.595.053-1.079.446-1.276.97z" class="G"/></g><use xlink:href="#D" class="B C"/><g class="D"><use xlink:href="#E" class="G"/><path d="M405.238 184.846l-.798.814v3.717l-.633.625-7.51-.054-.623-.624v-3.569l-.673-.91z" class="E"/></g><g class="C"><use xlink:href="#E" class="L"/><path d="M393.463 190.23l2.211-.851m10.993.911l-2.226-.914m-9.05 2.728l.901-2.104m8.42 2.104l-.901-2.104m.631-4.341v3.716l-.631.625-7.512-.054-.624-.623v-3.716" class="H N"/></g><g class="D"><use xlink:href="#F" class="E"/><path d="M414.285 189.398a1.5 1.5 0 0 0-1.277-.971c-.689-.06-1.309.353-1.54.971.198.526.682.919 1.278.971a1.5 1.5 0 0 0 1.54-.971zm1.189-2.668c.197.526.681.919 1.279.971a1.5 1.5 0 0 0 1.538-.971c-.197-.525-.681-.919-1.279-.971-.688-.06-1.308.354-1.538.971zm3.161 3.35a1.29 1.29 0 0 0 1.149.945c.689.059 1.309-.355 1.538-.974-.197-.525-.681-.918-1.277-.97-.698-.062-1.219.366-1.409.999zm-3.686 2.639c.197.526.681.92 1.278.972.689.06 1.309-.354 1.54-.97-.197-.526-.682-.92-1.278-.973-.687-.06-1.309.353-1.54.97z" class="G"/></g><g class="C"><use xlink:href="#F" class="B"/><path d="M424.7 192.846l.598-3.583 2.412-1.217 4.209 1.279 4.211 1.731.602 1.053-.754 4.053-1.352 1.202-9.02-2.705-.907-1.813z" class="G L"/></g><path d="M434.635 195.441l-7.224-2.286-.453-.749.627-3.752.257-.257 8.027 2.944-.613 3.403z" class="D E"/><g class="C"><path d="M434.635 195.441l-7.224-2.286-.453-.749.476-3.001m-1.884 4.952l1.861-1.202" class="H N"/><path d="M438.405 197.422c.337-1.906 1.985-3.441 3.253-3.217s3.076 2.122 2.741 4.026-2.72 3.291-3.991 3.069-2.34-1.975-2.004-3.879z" class="G Y"/></g><path d="M439.953 196.626c0-.59.214-1.13.568-1.548.273-.172.568-.266.863-.266a1.41 1.41 0 0 1 .239.021c1.1.194 2.36 1.686 2.07 3.337a2.88 2.88 0 0 1-.147.53 2.39 2.39 0 0 1-1.199.321c-1.322 0-2.394-1.071-2.394-2.395z" class="D E"/><g class="C"><path d="M439.106 197.466c.291-1.649 1.418-2.828 2.517-2.635s2.363 1.688 2.072 3.337-2.054 2.848-3.154 2.655-1.726-1.708-1.435-3.357z" class="L"/><path stroke-width=".833" d="M424.278 192.878l.652-3.893 2.562-1.271 4.508 1.371 4.508 1.844.645 1.127-.806 4.352-1.449 1.289-9.661-2.898-.959-1.921zm-31.907-6.532l2.396-2.242h10.625l2.396 2.242.004 4.211-2.4 2.082h-10.625l-2.396-2.082v-4.211zm-16.55 6.532l-.652-3.893-2.562-1.271-4.508 1.371-4.508 1.844-.643 1.127.803 4.352 1.449 1.289 9.661-2.898.959-1.92z"/><path stroke-width=".952" d="M408.129 95.851c1.776 0 3.071 1.584 3.071 3.364s-1.296 3.524-3.071 3.524c-2.319 0-5.686-2.743-5.572-.56l.056 1.104 1.231 10.145c3.022.681-10.554.681-7.533 0l1.235-10.191.054-1.059c.11-2.181-3.34.56-5.571.56-1.778 0-3.071-1.744-3.071-3.524s1.293-3.364 3.071-3.364c1.75 0 3.683 1.631 4.923.864 1.95-1.202-.397-3.908-.397-5.731 0-1.775 1.744-3.224 3.524-3.224s3.524 1.449 3.524 3.224c0 1.823-2.363 4.449-.395 5.731 1.174.767 3.109-.864 4.921-.864z" class="G"/></g><path d="M397.49 91.509c-.208-.248-.362-.523-.462-.811.379-1.318 1.661-2.37 3.053-2.37.61 0 1.198.203 1.7.541-.106.36-.917.435-1.683 1.077-1.098.919-1.688 2.66-2.608 1.563zm.505 5.096c.142.198.219.41.219.631 0 1.099-1.9 1.99-4.244 1.99-1.964 0-3.615-.627-4.098-1.476a3.25 3.25 0 0 1 2.691-1.473c1.636 0 3.875 1.394 5.033.679a1.49 1.49 0 0 0 .4-.35zm3.267.168c0-.513.243-.993.666-1.403-.105.626.021 1.183.637 1.585 1.097.715 3.337-.679 5.031-.679 1.078 0 2.089.573 2.665 1.431-.651 1.041-2.357 1.782-4.358 1.782-2.562 0-4.641-1.217-4.641-2.717z" class="D E"/><g class="C"><path d="M407.596 96.277c1.659 0 3.158 1.355 3.158 3.016s-1.499 3.015-3.158 3.015-5.737-2.903-5.639-.69l.054 1.182.697 9.784c2.824.635-8.083.635-5.261 0l.702-9.827.05-1.139c.097-2.211-4.104.69-5.635.69-1.659 0-3.158-1.356-3.158-3.015s1.499-3.016 3.158-3.016c1.634 0 3.874 1.391 5.033.679 1.821-1.123-.683-3.771-.683-5.471 0-1.658 1.506-3.156 3.167-3.156s3.167 1.498 3.167 3.156c0 1.701-2.516 4.274-.679 5.471 1.095.712 3.337-.679 5.029-.679z" class="B"/><circle fill="#f1f1f2" stroke-width="1.703" cx="400" cy="116.288" r="7.901"/></g><path d="M401.46 121.283c.53-.663 1.115-1.504 1.358-2.288.179-.573.774-.304.645.185-.226.853-.745 1.746-1.254 2.45zm-8.695-4.654l.477-.409a4.87 4.87 0 0 1 .654-.451c.334-.224.102-.743-.305-.546-.428.208-.781.427-1.013.583zm-.05 1.172l.412.735 1.696-1.642c.357-.338-.106-.729-.411-.511l-1.219.967-.478.451zm.598 1.763l.513.598c1.213-.943 2.291-2.086 2.465-2.274.343-.371-.054-.876-.461-.507-.193.204-1.767 1.603-2.506 2.174l-.011.009zm10.783 1.333c.382-.432.797-1.036.934-1.736.05-.247.227-.366.403-.328.17.037.295.214.255.451-.139.843-.58 1.559-.993 2.04zm-6.057.772c1.107-1.266 1.915-2.348 2.643-3.565.11-.183.309-.229.456-.156.156.074.229.262.122.48-.457.935-1.073 1.904-1.619 2.593l-.951 1.165zm-2.241-1.375c.741-.685 1.589-1.552 2.058-2.128.278-.341.882-.077.537.434-.442.654-1.126 1.46-1.759 2.043z" class="D M"/><g class="G"><path d="M406.135 133.626h-6.057l-6.033-.002c-1.024 1.729-4.257 2.903-6.902 1.522-1.879-.982-2.263-3.212-2.263-3.212s5.062.185 5.089-4.294c0-4.539 2.607-7.504 6.356-7.055 1.636.195 2.743 1.02 3.754 1.939 1.013-.919 2.124-1.746 3.763-1.939 3.747-.445 6.349 2.516 6.349 7.02 0 4.517 5.089 4.333 5.089 4.333s-.384 2.226-2.263 3.208c-2.656 1.385-5.907.197-6.88-1.52z" class="B C"/><use xlink:href="#G" class="D"/></g><path stroke="#f1bf31" d="M391.164 125.035c-.265.64.156 2.864.156 2.864s.138 2.02-1.451 3.556c-1.109 1.074-3.646 1.541-3.646 1.541m22.779-7.961c.266.64-.155 2.864-.155 2.864s-.137 2.02 1.449 3.556c1.108 1.074 3.646 1.541 3.646 1.541" class="C H S"/><path d="M399.982 135.868c-6.296-1.43-7.112-5.33-6.937-5.286.413.102 1.867 2.946 7.034 4.383 5.168-1.437 6.62-4.281 7.035-4.383.174-.044-.642 3.856-6.937 5.286h-.195zm-7.736-11.121c0-1.524 2.526-2.802 5.934-3.152.703.296 1.345.736 1.899 1.238.552-.501 1.192-.941 1.893-1.237 3.399.353 5.918 1.628 5.918 3.15 0 3.611-4.126 5.357-7.824 5.355s-7.821-1.744-7.821-5.355z" class="D E"/><g class="B C"><use xlink:href="#G"/><path d="M407.625 130.618s-.752 5.052-7.546 6.555c-6.796-1.504-7.547-6.555-7.547-6.555s.752 4.208 7.547 5.712c6.794-1.504 7.546-5.712 7.546-5.712z" class="M"/></g></g><path fill="#a0cfeb" d="M398.792 227.491c13.541-.237 71.818-10.008 71.818 70.925 0 77.306-70.56 108.048-70.56 108.048s-70.563-29.781-70.563-113.912c0-75.068 69.306-65.06 69.306-65.06z"/><path fill="#94bb79" d="M421.681 348.386c4.13-2.305 8.889-3.619 13.953-3.619 8.237 0 15.661 3.474 20.89 9.036-20.587 37.015-56.473 52.66-56.473 52.66s-34.959-14.755-55.663-52.832c5.22-5.461 12.577-8.864 20.728-8.864 5.679 0 10.972 1.651 15.425 4.499 5.235-5.629 12.705-9.149 20.998-9.149a28.58 28.58 0 0 1 20.143 8.268z"/><path d="M433.967 345.161c3.555.411 9.773 3.758 12.78 8.269-2.336 3.86-6.823 9.994-9.3 13.374-5.496-8.067-16.882-18.868-16.093-18.087.114.11.592-.278.731-.355 1.096-.612 2.119-1.166 3.122-1.639a28.48 28.48 0 0 1 6.357-1.669 16.17 16.17 0 0 1 2.404.107zm-24.18 50.769a123.41 123.41 0 0 1-9.738 4.631c-1.746-.735-5.245-2.256-9.738-4.631-8.708-7.051-26.641-23.507-39.267-47.43 4.072-2.279 8.764-3.579 13.762-3.579.409 0 2.105.494 3.347 1.077 7.936 3.729 17.756 14.435 14.138 16.482-2.656 1.499-10.255-.961-10.654 1.978-.149 1.113 14.096 8.939 22.192 15.83 6.636 5.649 17.001 14.796 15.959 15.64zm17.297-7.031c-9.063-8.897-29.447-26.996-46.503-39.676 4.727-5.062 11.265-8.408 18.583-9.007l.384.051c9.842 1.41 18.758 11.963 15.139 14.011-2.656 1.499-10.255-.961-10.654 1.979-.131.98 10.192 7.221 16.237 12.418 5.934 5.102 9.815 8.767 14.216 13.576-2.489 2.406-4.974 4.62-7.403 6.648z" class="I"/><path d="M422.071 347.943c1.886 1.779 2.708 3.262 2.714 3.272.181.301-.021.992-.563.485l-2.953-2.861c-2.965-2.893-8.094-6.549-12.339-7.263-.407-.068-.584-.27-.534-.565a.6.6 0 0 1 .712-.511c.077.012 6.345 1.194 12.962 7.442zm-34.875 5.555c.195.175.247.416.139.594-.114.187-.355.228-.559.081-3.586-2.548-5.336-3.615-7.414-4.919-.164-.104-.272-.276-.149-.459.081-.122.249-.201.409-.247.326-.093.819-.11 1.134.087 2.106 1.322 3.52 2.463 6.441 4.863z"/><g class="F"><g class="C H"><path d="M421.681 348.386c4.13-2.305 8.889-4.084 13.953-4.084 8.277 0 15.733 3.635 20.966 9.366m-112.312-.225c5.227-5.682 12.624-9.295 20.828-9.295 5.679 0 10.972 2.269 15.425 5.118 5.235-5.629 12.705-9.767 20.998-9.767 7.851 0 14.964 3.775 20.143 8.887" class="O Q"/><path stroke="#4c819a" d="M367.911 230.52h66.967m-75.913 3.712h84.121m-90.252 3.713h95.794m-100.444 3.715h104.632m-108.329 3.712h111.648m-114.663 3.712h117.374m-119.856 3.713h122.102m-124.169 3.712h126.052m-127.756 3.713H464.55m-130.752 3.714h132.079m-133.248 3.71h134.356m-135.301 3.713h136.22m-50.245 3.713h51.005m-137.726 0h51.354m51.983 3.712h35.002m-138.918 0h35.444m74.937 3.715h29.017m-139.824 0h29.234m87.873 3.712h23.08m-140.456 0h22.994m100.604 3.713h17.117m-140.856 0h17.095m111.114 3.71h12.8m-141.032 0h13.029m119.299 3.713h8.772m-141.027 0h8.481" class="L"/></g><path d="M356.655 300.398l-.017-7.225 7.748-3.024 7.75 2.093.017 8.156z" class="M"/><path d="M373.237 333.224l3.394 13.948c-3.526-1.547-7.418-2.406-11.516-2.406l-.729-57.564 3.099.891v6.053l3.875.997v-5.995l5.271 1.387v9.842l-3.394 5.037v27.81z" class="P"/><path d="M364.387 332.147l-.001-44.944-3.099 1.356v5.965l-3.875 1.545v-5.99l-5.269 2.236v9.532l3.787 4.543.089 27.393-3.876 14.082c3.693-1.877 7.846-2.979 12.245-3.089v-12.629z" class="T"/><g class="C H O"><path d="M364.249 332.04l-8.231 1.744m-1.74 8.669l10.048-2.122 10.864 1.168m-11.225-5.225l-8.868 1.807m17.653-24.683l-8.364-1.736-8.483 2.589m16.847 3.098l-8.364-1.597-8.483 2.45m0-7.858l8.483-2.743 8.364 1.767m-16.847 12.726l8.483-2.263 8.364 1.488m-16.77 4.664l8.406-2.076 8.441 1.381m-16.847 4.602l8.406-1.892 8.52 1.271m-3.096-24.412v3.837m-3.1-.583v3.914m3.1.828v3.917m-7.904-4.281v3.914m0 4.11v3.913m-3.719 1.362v3.605m0-19.42v3.604m3.719-9.107v3.916m2.496-10.982l12.227 2.977m-12.227-2.977l-12.26 4.447" class="N"/><path d="M364.387 344.776v-57.572" class="Q"/></g><path d="M370.586 334.677l-3.723-.513.004-11.781c0-1.45.881-2.336 1.674-2.336 1.406 0 2.045 1.584 2.045 2.957z" class="M"/><path d="M373.237 333.225l3.394 13.948c-3.526-1.547-7.418-2.406-11.516-2.406-4.669 0-9.077 1.117-12.972 3.097l3.874-14.079-.089-27.393-3.785-4.543v-9.532l5.269-2.238v5.988l3.875-1.544v-5.965l3.1-1.355 3.099.891v6.053l3.875.997v-5.995l5.271 1.387v9.842l-3.394 5.037v27.81zm3.1 13.42c-3.409-1.41-7.302-2.186-11.221-2.186-4.472 0-8.864 1.012-12.647 2.822l3.847-13.413-.079-27.478c0-.022-.056-.179-.07-.197l-3.715-4.456v-9.214l4.649-1.975v5.521c0 .253.189.382.426.286l3.875-1.543a.43.43 0 0 0 .194-.287v-5.764l2.812-1.23 2.766.796v5.817a.38.38 0 0 0 .232.299l3.875.999a.29.29 0 0 0 .389-.299v-5.594l4.651 1.223v9.509l-3.341 4.957a1.03 1.03 0 0 0-.054.175v27.81l3.411 13.421zm1.215.455c.075.309-.756.02-1.046-.109-3.486-1.53-7.338-2.379-11.389-2.379-4.619 0-8.98 1.104-12.833 3.062-.299.152-1.149.43-1.059.106l4.482-14.038-.087-27.239-3.715-4.458a.93.93 0 0 1-.071-.198v-9.532a.44.44 0 0 1 .187-.284l5.27-2.239c.239-.102.432.027.432.285v5.531l3.254-1.295v-5.756c0-.08.112-.251.187-.282l3.1-1.355c.021-.011.187-.021.21-.015l3.098.891a.39.39 0 0 1 .224.297v5.812l3.253.839v-5.593c0-.227.172-.357.39-.301l5.269 1.387c.108.026.231.189.231.299v9.842a.95.95 0 0 1-.052.172l-3.341 4.96v27.677l4.005 13.914zm-13.149-43.577l8.364 1.891m-8.364-1.891l-8.475 2.869" class="B C H O"/><path d="M391.526 294.975l-.017-7.384 7.748-2.788 7.75 2.402.017 7.769z" class="M"/><path d="M408.108 328.109l3.395 13.789c-3.104-1.152-6.462-1.78-9.964-1.78a29.07 29.07 0 0 0-2.414.1l.134-58.44 3.097 1.046v6.051l3.875 1.075v-5.916l5.272 1.694v9.811l-3.395 4.835v27.733z" class="P"/><path d="M399.259 340.19v-58.412l-3.098 1.202v6.044l-3.876 1.385v-5.986l-5.27 2.08v9.641l3.787 4.636.09 27.58-3.877 15.702c3.643-2.145 7.802-3.506 12.245-3.855v-.018z" class="T"/><g class="C H O"><path d="M398.802 330.83l-8.575 1.646m19.482 3.87l-10.502-1.32-10.357 1.97m4.225-21.012v3.758m3.719 3.399v3.915m0-28.169v3.914m-3.719 1.433v3.758m3.719-1.009v3.914m7.905-3.315v3.913m-3.1-8.656v3.914m3.1-7.09v3.837m-13.828 20.885l8.405-1.814 8.519 1.582m-17.001-7.641l8.482-2.108 8.363 1.798m-16.846-3.581l8.482-2.295 8.363 1.908m-16.846-3.565l8.482-2.433 8.363 2.047m-16.846-3.582l8.482-2.541 8.363 2.153m.079 15.858l-8.442-1.691-8.405 2m8.389 6.167l-8.37 1.715m20.614-32.82l-12.244-3.559-12.245 4.163m20.624 4.217l-8.363-2.256-8.476 2.675" class="N"/><path d="m399.259 340.19v-58.412" class="Q"/></g><path d="M405.457 329.407l-3.722-.59.004-11.78c0-1.45.881-2.258 1.675-2.258 1.404 0 2.043 1.582 2.043 2.269z" class="M"/><path d="M411.218 341.411c-2.983-1.038-6.343-1.603-9.68-1.603-5.098 0-10.042 1.317-14.205 3.627l3.856-15.001-.079-27.654c0-.023-.056-.177-.071-.195l-3.714-4.55v-9.319l4.649-1.84v5.533c0 .247.182.376.415.292l3.875-1.389a.41.41 0 0 0 .206-.291v-5.83l2.797-1.086 2.78.939v5.83c0 .107.122.269.226.299l3.875 1.075a.29.29 0 0 0 .394-.299v-5.492l4.651 1.497v9.487l-3.339 4.755c-.008.015-.056.162-.056.178v27.733l3.42 13.301zm1.207.411c.072.297-.744.007-1.03-.1-3.069-1.137-6.389-1.759-9.856-1.759a28.23 28.23 0 0 0-14.366 3.902c-.295.174-1.16.457-1.078.122l4.485-15.666-.09-27.431-3.715-4.551c-.015-.017-.07-.172-.07-.195v-9.641a.43.43 0 0 1 .197-.288l5.268-2.083c.236-.093.423.035.423.289v5.548l3.256-1.165v-5.826a.42.42 0 0 1 .199-.288l3.099-1.202a1.02 1.02 0 0 1 .211-.004l3.099 1.046c.091.031.209.195.209.292v5.818l3.256.901v-5.509c0-.236.178-.367.405-.295l5.271 1.696a.4.4 0 0 1 .214.295v9.811a1.06 1.06 0 0 1-.056.178l-3.336 4.755v27.598l4.005 13.75zm-4.316-13.713l3.395 13.789c-3.104-1.152-6.462-1.78-9.964-1.78a28.53 28.53 0 0 0-14.524 3.945l3.875-15.703-.09-27.58-3.785-4.636v-9.641l5.27-2.081v5.988l3.875-1.389v-6.044l3.1-1.2 3.097 1.046v6.051l3.875 1.075v-5.916l5.272 1.694v9.811l-3.395 4.835v27.733z" class="B C O"/><path d="M426.396 300.554l-.014-8.156 7.748-2.17 7.748 2.555.017 7.77z" class="M"/><path d="M442.979 333.534l3.394 13.313c-3.318-1.341-6.941-2.081-10.74-2.081-.547 0-1.091.015-1.63.046l.127-57.61 3.098 1.044v6.053l3.875 1.307v-5.917l5.271 1.773v9.688l-3.394 4.805v27.578z" class="P"/><path d="M434.13 332.147v-44.944l-3.098.968v6.044l-3.876 1.154v-5.988l-5.27 1.696v9.763l3.785 4.852.091 27.549-3.877 15.03c3.67-2.008 7.825-3.238 12.245-3.466v-12.659z" class="T"/><g class="C H O"><path d="M423.572 342.002l10.507-1.63 10.695 1.408m-11.092-5.556l-8.851 1.358m6.821-33.425v3.914m-3.721 1.277v3.76m0 12.132V329m3.721-8.647v3.914m0-12.014v3.914m7.902-3.084v3.914m-3.1-8.733v3.914m3.1-7.014v3.838m-13.828 20.42l8.404-1.426 8.52 1.582m-17.001-11.998l8.481-1.829 8.366 1.985m0 3.968l-8.366-1.875-8.481 1.721m16.848-7.766l-8.366-2.124-8.481 1.968m16.848-3.812l-8.366-2.232-8.481 2.076m16.861-3.706l-8.363-2.433-8.475 2.171m-3.785-4.853l12.26-3.44 12.228 3.749m-12.228 30.89l-8.386 1.358m-.035-7.88l8.404-1.613 8.442 1.767" class="N"/><path d="m434.13 344.806v-57.603" class="Q"/></g><path d="M440.329 334.909l-3.723-.589.002-11.781c0-1.452.882-2.259 1.676-2.259 1.406 0 2.045 1.584 2.045 2.271z" class="M"/><path d="M446.079 346.338c-3.198-1.215-6.821-1.879-10.444-1.879-4.784 0-9.452 1.159-13.427 3.21l3.853-14.349-.079-27.625c0-.022-.052-.174-.067-.191l-3.718-4.767v-9.433l4.649-1.495v5.562c0 .233.174.363.399.297l3.875-1.157c.099-.028.221-.19.221-.296v-5.816l2.787-.87 2.79.943v5.828a.41.41 0 0 0 .21.295l3.877 1.308c.229.077.409-.051.409-.295v-5.485l4.651 1.565v9.366l-3.339 4.724c-.008.015-.055.162-.055.178v27.578l3.409 12.805zm-3.1-12.804l3.394 13.313c-3.318-1.341-6.941-2.081-10.74-2.081-4.981 0-9.666 1.271-13.747 3.505l3.874-15.031-.089-27.547-3.785-4.854v-9.762l5.269-1.696v5.988l3.875-1.155v-6.044l3.1-.968 3.098 1.044v6.053l3.875 1.307v-5.917l5.271 1.773v9.688l-3.394 4.805v27.578zm4.314 13.235c.077.304-.745.017-1.036-.102a28.31 28.31 0 0 0-10.622-2.055 28.24 28.24 0 0 0-13.6 3.467c-.298.162-.999-.177-.914-.504l4.329-14.373-.087-27.403-3.721-4.768a.89.89 0 0 1-.067-.191v-9.765c0-.099.121-.263.216-.295l5.268-1.694c.229-.074.407.056.407.295v5.572l3.253-.972v-5.811a.4.4 0 0 1 .218-.298l3.1-.967c.017-.006.172-.005.191.002l3.097 1.045c.094.031.21.197.21.294v5.829l3.256 1.098v-5.484c0-.241.181-.371.409-.295l5.272 1.773a.41.41 0 0 1 .21.295v9.686a1.07 1.07 0 0 1-.056.178l-3.337 4.724v27.443l4.003 13.274z" class="B C O"/></g><g id="A" class="M O"><g class="B C"><path d="M369.418 268.702c-.283-2.57-1.281-6.729-4.716-6.2.175 4.468 5.861 21.291-.638 22.453l-.217-.233c.085-7.638-7.55-15.974-6.063-22.627.98-4.377 4.292-6.745 8.704-6.745 8.046 0 9.159 9.998 3.279 13.503l-.349-.152z"/><path d="M369.854 267.53c-.654-2.869-2.232-6.611-5.845-5.971l-.237.311c.166 4.805 6.19 19.418.457 21.999-.154-8.368-7.695-13.798-5.76-21.641.537-2.174 2.705-4.876 4.815-5.668.99-.374 2.118-.684 3.189-.663 7.258.149 9.142 7.672 3.38 11.634z" class="P"/></g><path d="M359.574 264.713c.621-1.698 2.653-3.42 4.466-3.635.377-.046.68.292.829.712l-.173-.004c-.208 0-.411.027-.615.074l.074.966c-.85.053-2.326.395-3.83 2.238-.696.855-1.065.504-.752-.351z" class="D"/><path d="M359.997 265.232l4.249-1.736m-3.927 3.268l4.201-1.814m-3.863 3.433l4.199-1.979m-3.392 3.522l3.785-1.955m-2.516 3.386l2.949-1.676m-.823 2.699l1.291-.717" class="C H N"/><path d="M369.137 259.592c-2.228-3.283-7.832-1.437-9.277.644-.103.152-.473-.075-.681-.158-.028-.011-.053-.024-.077-.039a11.24 11.24 0 0 1 1.425-1.883c2.714-1.734 7.436-2.083 9.337.982a.41.41 0 0 1-.135.585c-.176.108-.436.1-.592-.131z" class="D"/></g><use xlink:href="#A" x="35.338" y="-5.423"/><use xlink:href="#A" x="70.673"/><g class="O"><g class="B C"><path d="M446.259 240.532c3.264 2.153 14.81 8.644 16.519 45.635 3.331 72.096-58.017 114.162-58.017 114.162s77.621-33.051 77.621-114.226h0c0-34.173-13.567-71.191-40.476-71.191l-14.791.047-21.484 10.051c-1.125-1.57-3.272-2.591-5.35-2.591s-4.225 1.022-5.35 2.591l-21.484-10.051-15.255-.047c-26.911 0-40.478 37.018-40.478 71.191h0c0 81.175 77.621 114.226 77.621 114.226s-61.347-42.066-58.017-114.162c1.709-36.992 13.255-43.482 16.519-45.635l18.131 6.048 22.914-13.411c1.495 1.599 3.04 2.735 5.401 2.732s3.681-.928 5.396-2.732l22.76 13.567z"/><path d="M431.453 214.144l-31.172 13.544-31.171-13.544-10.919.768c-26.911 0-40.478 37.018-40.478 71.191h0c0 81.175 77.621 114.226 77.621 114.226s-62.121-42.066-58.793-114.162c1.709-36.992 13.567-44.412 16.831-46.566l19.976 5.559 26.933-15.921 26.931 15.921 19.512-5.559c3.264 2.153 15.122 9.574 16.831 46.566 3.33 72.096-58.793 114.162-58.793 114.162s77.622-33.051 77.622-114.226h0c0-34.173-13.567-71.191-40.476-71.191z" class="G"/></g><path d="M437.336 228.911c-3.716.438-6.318 2.93-6.451 6.735-.071 2.039.901 5.066 2.303 6.347l-.837.916c-1.655-1.514-2.868-4.887-2.782-7.311.149-4.267 3.146-7.24 7.616-7.763zm-74.51-1.076c4.47.523 7.467 3.497 7.616 7.763.085 2.424-1.128 5.797-2.782 7.311l-.837-.916c1.401-1.281 2.373-4.308 2.302-6.347-.133-3.806-2.734-6.298-6.451-6.735zm-8.734 7.447c-5.398 3.486-10.292 10.097-13.035 16.926-.152.357-.384.464-.621.378-.212-.077-.301-.382-.204-.683 2.585-7.178 7.435-13.664 13.534-18.186l.325 1.566zm7.2-12.852c-13.214 0-23.02 9.304-29.639 26.469-.151.32-.455.565-.783.449-.261-.094-.291-.466-.172-.802 6.622-17.489 16.726-27.2 30.595-27.2 6.037 0 11.228 1.487 15.67 4.752l.243 1.61c-4.459-3.628-9.737-5.277-15.913-5.277zm0 3.564c-11.529 0-20.518 9.719-26.182 24.019-.162.343-.394.523-.71.394-.245-.1-.272-.467-.147-.77 5.378-14.461 14.815-24.727 27.04-24.727 6.132 0 11.387 1.942 15.811 6.198l-.207 1.38c-4.335-4.453-9.53-6.494-15.605-6.494zm13.219 12.591c-2.301-6.87-6.057-9.514-13.378-9.514-9.655 0-17.603 8.773-22.856 22.038-.129.303-.353.481-.641.384-.249-.085-.289-.428-.177-.737 5.114-13.479 13.317-23.08 23.674-23.08 7.686 0 11.79 3.161 14.015 9.849l-.637 1.061zm51.046.093l-.67-.957c2.201-6.8 6.291-10.022 14.003-10.045 12.427.058 21.967 14.059 26.928 32.333.1.359.033.748-.289.811-.315.06-.567-.178-.658-.519-4.973-18.035-14.437-31.17-25.905-31.23-7.381.021-11.117 2.691-13.409 9.607zm43.388 21.765c.105.412.067.758-.296.847-.295.075-.563-.148-.66-.585-4.769-20.384-14.975-34.364-29.18-34.364-6.111 0-11.324 1.522-15.64 5.964l-.198-1.43c4.428-4.272 9.693-5.695 15.837-5.695 15.123 0 25.642 14.935 30.137 35.262zm3.827.535c.075.386-.055.749-.387.804-.317.051-.573-.22-.648-.592-4.693-22.305-15.788-38.723-33.151-38.723-6.105 0-11.329 2.098-15.726 5.756l.167-1.607c4.422-3.405 9.576-5.311 15.559-5.311 18.292 0 29.687 17.306 34.184 39.673zm-31.651-28.224c9.512 1.163 18.058 12.304 21.673 26.986.086.374-.002.744-.319.829-.309.085-.583-.115-.716-.594-4.113-15.827-12.263-24.675-20.761-25.757l.125-1.463z" class="D"/><path d="M419.351 240.512c-.732-.866-2.929-3.989-2.929-10.27m-.294 8.365c-.684-.916-2.324-3.61-2.324-8.365m-.861 6.482c-.582-.892-1.759-3.114-1.759-6.482m-1.351 4.645c-.4-.798-1.116-2.524-1.116-4.645m-27.504 10.27c.732-.866 2.929-3.989 2.929-10.27m.294 8.365c.684-.916 2.324-3.61 2.324-8.365m.865 6.48c.581-.894 1.755-3.115 1.755-6.48m1.349 4.645a10.66 10.66 0 0 0 1.117-4.645" class="B C F H"/><circle cx="400.282" cy="229.24" r="6.199" class="D G"/><g class="B C"><g class="F H"><path d="M394.135 227.779c.66-2.803 3.141-4.89 6.146-4.89 2.627 0 4.879 1.594 5.847 3.868m.33 4.062a6.38 6.38 0 0 1-6.177 4.769c-2.703 0-5.012-1.691-5.928-4.072m7.562 1.628a4.2 4.2 0 0 1-1.634.328c-2.282 0-4.144-1.809-4.23-4.072m7.873 1.995a4.24 4.24 0 0 1-2.01 1.749m-1.192-1.899a2.05 2.05 0 0 1-.442.048 2.06 2.06 0 0 1-2.045-1.845m-2.112-1.241c.125-.555.368-.889.469-1.045"/><path d="M394.135 227.779c0-2.917 2.558-5.359 6.146-5.359 2.738 0 5.847 1.925 5.847 4.337m.33 4.062c0 2.695-3.214 5.079-6.177 5.079-2.703 0-5.928-1.965-5.928-4.381"/></g><path d="M423.345 242.22c3.266 4.331 8.31 7.071 13.965 7.071 7.398 0 13.029-4.597 13.029-11.945-.168-3.893-2.797-8.702-9.016-8.702-4.041 0-7.471 3.895-7.471 7.936 0 2.234.428 3.583 1.801 5.264-5.536-1.779-9.198-4.73-9.198-11.011 0-6.441 4.271-11.055 11.268-11.636 23.385-1.944 37.675 24.015 40.428 59.893 3.924 51.177-23.678 91.974-65.637 115.271-5.857 3.251-10.45 5.851-12.439 6.692l-.026 6.366c15.975-6.106 34.496-17.891 46.046-28.442 21.992-20.091 42.973-54.077 39.79-99.852-2.011-28.906-11.013-48.293-22.062-57.87-18.892-16.381-44.652-9.838-44.652 9.578 0 4.24 1.667 8.225 4.173 11.387zm-46.592 0c-3.266 4.331-8.31 7.071-13.967 7.071-7.396 0-13.028-4.597-13.028-11.945.168-3.893 2.797-8.702 9.016-8.702 4.04 0 7.471 3.895 7.471 7.936 0 2.234-.428 3.583-1.801 5.264 5.535-1.779 9.198-4.73 9.198-11.011 0-6.441-4.271-11.055-11.268-11.636-23.385-1.944-37.674 24.015-40.428 59.893-3.924 51.177 23.678 91.974 65.637 115.271 5.857 3.251 10.45 5.851 12.439 6.692l.026 6.366c-15.975-6.106-34.496-17.891-46.046-28.442-21.992-20.091-42.973-54.077-39.79-99.852 2.011-28.906 11.013-48.293 22.062-57.87 18.892-16.381 44.652-9.838 44.652 9.578 0 4.24-1.666 8.225-4.173 11.387z"/><path d="M400.048 406.956c-15.975-6.107-34.496-18.668-46.046-29.218-21.992-20.091-41.578-53.303-38.395-99.078 2.012-28.905 10.55-47.207 21.598-56.785 18.893-16.378 43.258-8.922 43.258 8.959 0 9.84-7.985 17.838-17.831 17.838-5.961 0-12.255-4.837-11.632-12.101a7.32 7.32 0 0 1 7.309-6.995c4.041 0 7.316 3.274 7.316 7.316 0 2.232-1.463 4.385-3.039 5.729 6.223-.222 11.677-5.506 11.677-11.787 0-6.441-4.892-11.829-11.889-12.41-23.385-1.944-38.497 24.631-41.047 60.668-3.625 51.204 24.297 92.596 66.255 115.89 5.884 3.266 10.493 5.255 12.466 6.083 1.974-.829 6.582-2.818 12.466-6.083 41.959-23.294 69.88-64.685 66.255-115.89-2.549-36.037-17.662-62.612-41.047-60.668-6.997.581-11.887 5.969-11.887 12.41 0 6.281 5.452 11.565 11.677 11.787-1.576-1.344-3.042-3.497-3.042-5.729a7.32 7.32 0 0 1 7.317-7.316 7.32 7.32 0 0 1 7.311 6.995c.622 7.264-5.673 12.101-11.634 12.101-9.846 0-17.829-7.998-17.829-17.838 0-17.881 24.364-25.337 43.256-8.959 11.05 9.578 19.588 27.881 21.598 56.785 3.183 45.775-16.403 78.988-38.395 99.078-11.551 10.55-30.071 23.111-46.046 29.218z" class="E"/></g><g class="C"><g class="B"><path d="M302.443 357.768l-4.739-2.053c-2.525-1.263-8.216-8.265-14.574-11.955-9.759-5.662-19.204-4.202-27.833-7.909 1.933 9.036 8.021 17.198 18.101 21.521 8.281 3.552 21.641.498 23.095.619s6.069 1.904 6.069 1.904l-.12-2.127zm-35.22 11.276l.087-.264c5.338-.726 10.338-1.936 15.531-3.253 11.505-2.915 16.894-.548 26.218 5.833.583.4 1.275.957 1.943 1.208 1.511.571 2.481.172 3.941.172l.133.027 2.186 1.709c.167.131.067.244-.091.278-1.904.392-4.504.386-6.497.206-3.007-.274-9.194 6.852-18.002 6.852-11.16 0-18.494-4.939-25.45-12.767z"/><path d="M316.303 374.316l-5.318.351c-5.132.864-10.214 6.455-18.018 6.68-10.385.299-16.943-4.593-24.041-11.574 10.328-1.553 18.311-7.516 28.967-4.163 5.463 1.719 11.885 8.6 17.014 7.614l1.397 1.092z" class="I"/></g><path d="M309.878 372.946s-9.11 1.497-14.785 1.512c-9.165.021-23.193-3.8-23.193-3.8s13.986 4.231 23.193 4.418c5.662.115 14.785-1.2 14.785-1.2v-.93z" class="K"/><g class="L"><path d="M284.538 262.675c.075-.287.019-.634-.16-1.063-.182-.445-.465-.918-.764-1.42l-.903-1.653c-.264-.585-.467-1.212-.509-1.867l1.416-.405c.102.794.579 1.813 1.119 2.614.268.399.54.727.771.934a1.11 1.11 0 0 0 .271.197c.033.017.427.447.427.447l-1.171 2.616c-.087.195-.604.012-.496-.4z" class="F"/><path d="M338.065 388.946c-.046-1.9.33-1.192 2.377-.357.436.177.115.604-.259.837-1.223.764-2.303 2.383-2.822 2.02-1.408-.984-.521-1.019.704-2.5z"/></g><g class="B"><path d="M289.158 254.936c-6.025 15.319-8.06 42.444-5.975 54.761 6.407 37.867 37.596 73.368 66.145 79.106 24.831 4.991 39.967 16.116 49.852 27.982 6.461 7.755 9.911 11.277 19.188 26.72 3.39 5.644-2.409 6.785-4.801 2.106-6.528-12.765-10.045-18.438-19.04-28.473-9.659-10.776-23.867-20.451-47.058-25.08-27.654-5.521-60.049-41.084-66.456-78.949-2.085-12.319-.262-41.73 6.063-57.275l2.082-.897" class="H"/><path d="M330.29 387.334c-4.302.472-7.211 6.717-11.528 10.648-7.948 7.234-20.685 7.957-28.805 3.125-.34-.204-.513-.657-.128-.745 10.097-2.29 11.414-16.069 32.461-14.713 2.467.159 3.509.664 5.986.664l2.014 1.021zm-15.983-64.065l.139.068c.106 6.155 4.773 14.549 5.917 21.318.987 5.83-.436 10.703-2.67 16.134-.559 1.354-1.869 4.074-1.92 5.407-.048 1.241.731 2.39 1.389 3.418.23.361 1.623 2.19 1.48 2.545-5.577-4.829-2.296-1.681-4.617-6.133-1.196-2.296-2.623-4.381-3.808-6.693-6.26-12.211-6.376-26.064 4.09-36.064zm40.249 66.701c-2.739-.885-5.528-1.976-7.031-4.779-2.525-4.706-1.985-8.509-4.574-13.378-4.912-9.237-14.37-10.232-19.143-18.795-.968 7.88-2.024 19.652 10.243 28.072 4.319 2.963 10.905 3.644 12.491 4.834s2.543 2.89 2.543 2.89l5.471 1.156z"/><path d="M349.244 388.53c-.901-.959-1.912-1.925-2.982-2.699-2.503-1.811-7.925-1.981-12.018-4.981-5.716-4.192-8.679-8.089-10.267-14.997-.964-4.19-.223-7.54-.025-11.023 5.149 7.479 14.094 8.183 18.88 17.13 2.909 5.436 2.523 13.704 8.484 17.009l-2.072-.438z" class="I"/></g><path d="M300.355 347.397s-.341.41-.82 1.778c-.214.614 1.133 2.464 1.023 1.822-.274-1.57.498-2.674.498-2.674l-.702-.926z" class="L"/><g class="B"><path d="M302.443 357.768s-3.285-.707-4.739-1.432c-2.525-1.264-8.114-8.596-14.574-12.265-9.26-5.259-17.327-4.16-26.438-6.824 2.585 9.723 7.527 15.539 16.706 19.66 8.22 3.69 21.641.499 23.095.619s6.069 2.06 6.069 2.06l-.12-1.817z" class="I"/><path d="M315.478 368.908c-.406-2.893-3.694-7.056-5.07-9.748-2.016-3.948-3.529-8.256-3.98-12.683-.971-9.536 1.217-14.682 7.493-21.749.046 2.072.324 2.799.95 4.725 2.626 8.092 6.304 14.78 5.112 23.577-.588 4.331-4.124 10.498-4.286 13.144-.083 1.371.691 2.98 1.374 4.134l-1.593-1.401z" class="R"/><path d="M291.921 343.116c-6.736-11.197-22.534-6.179-32.887-15.581-5.024-4.563-7.269-11.432-8.272-17.965-.299-1.945-1.13-9.657-.677-11.154.083-.278.363-.345.579-.133 3.432 3.356 6.873 5.523 10.847 8.214 9.439 6.389 13.313 12.385 18.178 22.348 6.371 13.045 12.145 5.61 12.232 14.27z"/></g><path d="M312.93 328.102s-2.138 11.202-1.815 18.407c.332 7.361 3.596 18.55 3.596 18.55h-.621s-3.384-11.183-3.594-18.55c-.208-7.238 2.433-18.407 2.433-18.407z" class="K"/><g class="B"><path d="M281.964 336.012c-3.629-1.151-7.786-1.85-12.202-2.914-4.14-.997-7.521-3.258-10.677-6.102-4.9-4.418-6.52-10.342-7.475-16.698a48.74 48.74 0 0 1-.442-10.622c.394.695.895 1.382 1.548 1.851 3.214 2.303 6.564 3.91 9.784 6.236 2.813 2.033 4.811 3.374 7.118 5.973 2.917 3.291 5.352 6.847 7.404 10.733 1.618 3.066 3.004 6.661 5.095 9.443z" class="I"/><path d="M282.118 333.911c1.084 1.445 5.457 3.322 7.047 3.526l1.547 3.858c-2.272-2.658-5.267-4.179-8.747-5.283z" class="J"/><circle cx="271.96" cy="304.79" r="4.417" class="G"/></g></g><path d="M272.469 300.875a4.54 4.54 0 0 0-.359 1.781c0 1.948 1.15 3.531 2.563 3.531a1.99 1.99 0 0 0 1.094-.344c.092-.334.141-.682.141-1.047a3.95 3.95 0 0 0-3.437-3.922z" class="D E"/><g class="C"><circle cx="271.96" cy="304.79" r="4.719" class="F Q"/><g class="B"><path d="M285.013 302.83s2.062-7.676 4.003-12.426c4.59-11.246 12.552-11.669 16.609-20.574 2.323 6.012 4.178 13.743.12 22.413-4.684 10.016-16.669 15.894-16.669 15.894l-4.062-5.307z"/><path d="M305.587 271.848c5.982 16.33-1.916 28.088-16.42 36.197l-3.82-5.28c2.493-10.488 4.283-15.651 12.296-23.104 3.168-2.946 5.945-3.903 7.944-7.813z" class="R"/><path d="M288.712 255.666c-5.971 15.695-7.736 41.94-5.68 54.084 6.424 37.957 37.527 73.589 66.234 79.357 24.756 4.975 39.556 16.124 49.75 27.646 4.761 5.384 8.603 10.641 11.764 15.591 2.72 4.258 5.05 8.906 7.338 12.582.37.594-2.719 1.871-3.046 1.344-2.419-3.91-4.642-8.841-7.429-13.356-3.171-5.137-8.617-10.392-13.353-15.984-10.078-11.9-23.5-20.842-46.76-25.485-27.503-5.49-59.512-40.619-65.903-78.39-2.076-12.271-.546-40.75 4.921-55.784l2.163-1.605z" class="J"/><path d="M285.719 329.932c-1.234-1.182-3.009-2.309-4.194-3.54-11.027-11.445-8.131-31.437 3.963-41.202.412-.33.723-.175.781.311.486 4.028 1.113 7.819 2.728 12.256 3.69 10.134 4.292 15.947.938 24.575-2.045 5.259.006 9.898.006 9.898l-4.222-2.298z"/></g><path d="M324.604 379.212c-7.055-2.412-14.343-1.765-20.21-7.855-6.771-7.024-8.237-17.89-6.468-24.164.087-.305.324-.555.514-.319 1.504 1.841 2.301 3.167 4.277 4.623 7.068 5.215 15.745 7.826 18.74 15.791.598 1.584.796 3.245 1.354 4.842 1.909 5.471 5.04 7.124 9.575 10.111l-7.782-3.029z" class="Z"/><g class="B"><path d="M330.117 382.116c-6.601-5.598-18.497-3.588-25.58-11.181-5.202-5.575-7.394-14.366-6.105-21.99 6.287 5.602 13.597 7.14 19.316 13.43 6.729 7.404.999 12.373 13.668 19.577l-1.299.164z" class="I"/><path d="M294.865 341.944l.019-.172c1.641-1.954.503-7.824-.035-10.176-.928-4.055-1.042-7.541-.367-11.671.779-4.769 3.39-9.076 6.067-13.024 1.194-1.759 5.07-7.257 5.473-9.249.033-.17.214-.158.289.006 1.478 3.223 2.251 7.147 2.847 10.632.833 4.879 1.094 9.314-.601 14.862-1.515 4.967-3.553 8.181-6.673 11.522-1.32 1.412-4.427 4.524-4.882 6.206-.083.307-.61 2.546-.494 4.183l-1.643-3.119z"/></g><path d="M283.939 277.75s.21.031 1.094-.562 1.955-1.611 2.411-2.884 3.642-11.862 7.899-18.417c4.972-7.659 10.136-11.094 16.398-16.714.984 6.069 1.127 15.961-4.003 23.898-4.698 7.267-16.612 12.444-17.993 12.983s-3.748.939-5.108 2.745c-.77 1.019-1.3 3.007-1.3 3.007l.602-4.055z" class="a"/><path d="M282.442 278.762s-.517-.025-1.186-.967-1.336-2.402-1.336-3.9c0-3.166 3.002-12.642 1.513-19.816-2.842-13.691-7.144-19.181-7.806-24.262-.264-2.027-11.445 13.83-8.046 28.545 1.685 7.293 10.162 15.444 11.351 16.515s2.813 2.46 3.59 4.601c.8 2.207.63 4.719.63 4.719l1.291-5.435zm6.562-23.55c.804-1.961 2.132-4.283 3.362-5.311 3.022-2.525 11.49-8.815 14.382-13.399 6.438-10.207 5.139-22.779 4.466-24.968-5.583 4.854-10.678 8.056-16.37 16.092-4.968 7.013-6.054 20.73-6.436 23.33-.419 2.838-1.68 5.905-1.68 5.905l2.275-1.649z" class="B"/><path d="M283.998 279.97l.224-1.972c1.532-.586 2.895-2.112 3.513-3.591 2.668-6.384 4.294-12.875 8.042-18.771 4.865-7.654 10.076-10.631 15.335-14.835.245 6.764 1.437 13.89-3.949 22.755-3.061 5.033-11.981 10.02-17.532 12.21-2.483.98-4.26 1.777-5.633 4.205z" class="I a"/><g class="B"><path d="M261.115 266.482c8.511 7.088 10.938 10.403 13.442 21.368.293 1.284 1.923 6.834 2.268 7.518.82 1.632 2.516 2.404 3.56 3.743.114.148.397 3.036.441 3.416.027.23-.15.224-.281.106-1.325-1.211-2.02-3.106-3.565-4.24-1.329-.976-5.818-1.933-7.755-2.732-4.946-2.041-8.981-5.859-11.845-10.332-3.781-5.903-4.209-13.94-3.299-20.705.21-1.553.419-3.423.97-4.896.077-.203.197-.156.301.006 2.017 3.142 3.312 4.705 5.764 6.748z"/><path d="M279.992 299.389l.235 2.006c-4.041-5.467-5.392-3.852-10.978-6.165-4.863-2.011-8.81-5.764-11.636-10.158-4.219-6.561-4.14-16.27-2.359-23.668 2.265 4.466 11.129 8.945 14.531 14.52 2.188 3.585 3.546 7.846 4.632 11.885.542 2.02 1.155 6.092 1.99 7.761.622 1.248 2.508 2.916 3.585 3.818zm15.374 42.663c1.508-2.302.187-8.137-.295-10.778-.743-4.087-.797-7.616-.131-11.74 1.088-6.741 5.355-11.257 9.123-16.72.743-1.078 1.484-2.168 2.068-3.343 4.331 12.192 5.546 24.646-3.893 34.886-1.424 1.545-4.85 4.525-5.376 6.402-.282 1.005-.38 2.072-.459 3.11l-1.038-1.817z" class="I"/><path d="M331.315 385.465s-.534.849-3.04.849l1.243 1.219.771-.2c2.396-.494 3.133-.421 4.693.183" class="H J"/><path d="M328.275 386.314c-2.506 0-10.344-1.302-16.615.337-9.455 2.471-13.359 11.316-20.466 14.459 10.797 4.649 18.699 3.505 27.684-3.681 3.62-2.894 5.922-8.418 10.64-9.896z" class="R"/><path d="M405.404 431.001s.099-1.378 1.69-1.931c1.372-.478 2.083.614 2.083.614" class="F H"/></g><path d="M340.475 388.878s-.849.495-1.1.719c-.579.519-1.342.901-1.578 1.325l-.922-.086c.573-.477 1.179-1.293 1.505-1.69.191-.23.004-1.107.004-1.107l2.091.839z" class="J L"/></g><g class="D"><use xlink:href="#H" class="I"/><path d="M287.961 254.318c.277-.405.543-.638.686-.57.115.054.13.289.061.618-.333.431-.705.839-1.15 1.21l.403-1.257z" class="J"/></g><use xlink:href="#H" class="B C F"/><g class="D"><path d="M288.224 256.116l.957-2.652c.575-1.486.428.399.428.399l-.338 1.62-1.046.633z"/><use xlink:href="#I" class="I"/></g><use xlink:href="#I" class="B C F"/><path d="M281.765 284.471s.246-2.464-.136-3.963c-.189-.746-.683-1.846-.683-1.846s1.225.623 1.505.569-.686 5.241-.686 5.241zm4.157-24.14c-.587.239-2.392-2.304-2.611-4.026-.207-1.636-.879-.953-.8.347.148 2.417 3.038 5.006 2.637 6.543.544-1.32.801-2.275.774-2.864z" class="D J"/><path d="M285.922 260.331c-.587.239-2.392-2.304-2.611-4.026-.207-1.636-.879-.953-.8.347.148 2.417 2.728 4.566 2.328 6.1" class="C F H L"/><g class="D"><circle cx="281.443" cy="253.512" r="4.416" class="G"/><path d="M281.706 253.088c-1.196-.839-1.721-2.155-1.171-2.942s1.966-.743 3.164.096 1.721 2.155 1.171 2.94-1.966.744-3.164-.093z" class="E"/></g><circle stroke-width="1.315" cx="281.402" cy="253.639" r="4.607" class="C F"/><g class="D"><circle cx="303.963" cy="344.419" r="4.572" class="G"/><path d="M303.43 343.97c-.976-1.343-1.009-2.982-.074-3.658s2.481-.141 3.457 1.202 1.009 2.979.074 3.659-2.481.141-3.457-1.203z" class="E"/></g><g class="C F"><circle stroke-width="1.4" cx="303.963" cy="344.419" r="4.805"/><path d="M406.8 432.551s.05-1.391 1.69-1.778c1.495-.351 2.082.925 2.082.925m7.228 15.614c-2.988.617-4.815-3.133-3.79-4.055.671-.602 2.323-.473 3.536.119 2.168 1.057 1.586 3.663.254 3.937z" class="B H"/></g><use xlink:href="#J" class="D J"/><g class="C"><use xlink:href="#J" class="B F"/><path d="M287.438 256.177c3.144-9.159 4.896-15.598 10.101-24.544 3.54-6.084 10.483-14.694 10.483-14.694s-6.539 8.835-9.931 14.96c-4.795 8.66-5.87 12.387-9.697 23.458l-.957.821zm-14.889-20.356s-1.148 14.387.66 23.294c1.626 8.002 7.273 19.632 7.273 19.632s.316.234-1.319-4.076c-1.68-4.427-3.82-9.323-5.18-15.581-1.931-8.884-1.434-23.269-1.434-23.269zm-13.45 37.38s1.904 4.98 3.536 7.955c4.481 8.172 8.326 12.448 15.973 17.773l.224-.687c-7.373-5.235-10.84-9.414-15.579-17.086-1.837-2.978-4.155-7.955-4.155-7.955zm27.382 3.342s9.156-8.454 13.838-15.066c4.138-5.846 9.103-16.21 9.103-16.21s-4.534 10.492-8.55 16.374c-4.51 6.604-13.152 14.902-13.152 14.902h-1.24zm8.973 66.251c1.742-4.196 4.362-9.975 6.318-16.632 2.454-8.353 3.911-12.423 4.192-21.928-.141 9.491-1.153 12.772-3.162 20.678-1.711 6.73-4.053 12.637-5.795 16.831l-1.553 1.051zm-5.214-42.126s6.897-6.031 9.979-11.43c4.061-7.116 4.744-12.828 4.744-12.828s-.066 5.743-4.126 12.858c-3.081 5.401-10.323 12.288-10.323 12.288l-.274-.889zm-7.86 34.217s-5.95-3.77-9.213-6.519c-12.657-10.662-20.587-25.032-20.587-25.032s7.247 15.174 20.121 25.653c3.422 2.784 9.678 6.673 9.678 6.673v-.775z" class="K"/><path d="M283.201 336.413s-1.14-.487-.546-1.572" class="B F H"/><path d="M328.64 379.995c-5.585-3.511-13.445-8.741-20.527-16.016-2.425-2.492-5.915-6.669-5.915-6.669s2.832 4.42 5.141 6.824c6.314 6.572 14.987 12.738 20.572 16.25l.729-.389zm19.328 6.709s-10.506-7.537-15.231-14.114c-2.571-3.576-3.819-5.785-5.559-9.832 2.089 4.055 3.505 6.254 6.335 9.832 4.732 5.985 14.456 13.184 14.456 13.184v.93zM295.95 400.21c15.448-2.147 21.457-11.173 34.614-13.222-1.387.073-1.133-.471-2.394-.206-11.603 2.448-18.697 11.225-32.221 13.428z" class="K"/></g><g class="D"><circle cx="314.799" cy="382.209" r="4.572" class="G"/><path d="M319.287 381.34a1.81 1.81 0 0 1-.178.428c-.671 1.161-2.506 1.354-4.099.434s-2.344-2.606-1.673-3.767c.191-.331.477-.583.825-.753a4.63 4.63 0 0 1 .637-.044c2.227 0 4.081 1.594 4.488 3.702z" class="E"/></g><circle stroke-width="1.399" cx="314.799" cy="382.209" r="4.805" class="C F"/><path d="M330.798 384.331a3.17 3.17 0 0 0 .693.542c.266.299.364.656.181.884 0 0 .106.262.448.511.459.334 1.063.308 1.73.412l2.047.43c.605.177 1.362.49 1.362.49l-3.426-1.707-3.035-1.562z" class="D J"/><g class="C"><path d="M297.758 357.549s-8.527-2.236-19.421-6.301-18.237-10.872-18.237-10.872 7.342 6.184 18.237 10.251 19.421 5.992 19.421 5.992v.93z" class="K"/><circle cx="334.687" cy="394.974" r="4.882" class="G Q"/></g><path d="M338.153 397.954c-1.461.554-3.392-.396-4.476-2.276-1.171-2.027-.914-4.367.573-5.227l.064-.035.371-.015c2.525 0 4.572 2.047 4.572 4.574 0 1.137-.416 2.178-1.104 2.979z" class="D E"/><circle cx="334.683" cy="394.974" r="4.572" class="B C F"/><g class="D"><path d="M289.595 332.55l.924 2.577.836 1.852s-1.119.239-1.119.115-.872-4.524-.872-4.524l.23-.019z" class="J"/><path d="M289.006 333.474c-1.651-2.529-5.162-5.342-7.147-7.404-3.413-3.544-5.532-7.606-6.31-12.491-1.838-11.546 1.52-19.312 9.945-27.117.532 8.1 5.164 14.815 6.144 22.904 1.406 11.603-5.978 13.789-.849 25.144l-1.783-1.036z" class="I"/><path d="M287.887 331.17l.237 1.121c.329.398.627.794.881 1.182l1.462.85-.781-2.667-1.799-.486z" class="J"/></g><g class="C"><path d="M289.006 333.474c-1.651-2.529-5.162-5.342-7.147-7.404-3.413-3.544-5.532-7.606-6.31-12.491-1.838-11.546 1.52-19.312 9.945-27.117.532 8.1 5.164 14.815 6.144 22.904 1.406 11.603-5.978 13.789-.849 25.144" class="B F H"/><path d="M288.996 331.076c-3.356-5.047-4.012-7.514-5.43-12.716-2.668-9.769-2.685-21.632-.174-25.966-2.51 4.333-3.027 16.137-.6 25.975 1.367 5.543 2.454 8.436 5.565 13.541l.64-.834z" class="K"/><path d="M288.588 332.886c-.82-.957.229-2.529 1.171-1.142" class="B F H"/></g><g class="C"><path d="M514.668 257.68c-.013-.044.014-.23.039-.268 0 0 .297-.434.6-1.146.307-.725.614-1.721.631-2.835l1.659.341c-1.383 4.939-1.439 6.689-1.439 6.689-.013.416-.484.48-.606.083l-.884-2.865z" class="L"/><g class="B"><path d="M519.124 275.312c1.323-.868 1.768-3.11 1.85-4.561.148-2.604-2.022-4.909-2.134-7.321-.071-1.547 1.266-1.707 1.519-2.913.224-1.078-3.961-4.856-2.832-7.834.808-2.128 2.504-1.082 3.152-3.308.683-2.357-1.435-5.725 1.287-7.309 1.322-.77 3.264.351 3.839-1.713.586-2.099.12-6.27 3.144-6.565 4.012-.393 4.632 7.82 5.369 8.396.766.6 1.792-.5 2.884-.067 2.946 1.173-.208 6.609-1.221 8.422 7.473.305.64 4.952-.508 7.018.318.754 2.23 1.034 2.543 2.182.206.756-.361 1.42-.885 1.883-1.674 1.478-4.171 2.033-5.988 3.229l-.249.179c-.062.683 1.831 2.682-.72 3.53-4.765 1.586-7.799 2.626-9.636 7.439-.494 1.292-.667 5.255-.758 4.848l-.656-5.536z"/><path d="M519.848 279.074l-.828-3.638c.224-.121.415-.302.598-.476.97-.932 1.433-3.509 1.508-4.802.162-2.809-1.877-4.42-1.979-6.757-.052-1.212 1.294-1.646 1.511-2.794.276-1.462-3.756-4.995-2.699-7.759.719-1.873 2.46-.905 3.164-3.345.612-2.126-1.225-5.917 1.073-7.191 1.388-.766 3.384.465 4.055-1.993.508-1.858.116-5.031 2.743-5.294 3.571-.357 4.107 6.814 5.035 7.527 1.03.789 1.848-.235 2.838.152 1.493.583 1.125 2.643.789 3.83-.389 1.381-1.061 2.519-1.632 3.802-.112.256-.114.496.187.611.938.355 1.74.205 2.066 1.436.442 1.672-2.126 3.498-2.695 4.824-.443 1.032 1.292 1.293 1.517 2.66.322 1.929-6.152 4.09-6.648 4.995-.058 1.264 1.622 2.572-.419 3.256-5.127 1.717-10.245 4.946-10.185 10.957z" class="I"/></g><path d="M519.398 275.86s6.528-11.623 8.415-19.874c1.304-5.712 1.879-14.958 1.879-14.958s-.283 9.213-1.414 14.94c-1.723 8.706-8.47 20.987-8.47 20.987l-.411-1.094z" class="K"/><g class="L"><path d="M519.608 286.898a.61.61 0 0 1 .081-.266l2.033-2.199c.295-.332.48-.735.59-1.063.106-.318.139-.55.139-.55.029-.206.208-.318.405-.251l2.17.716c.297.097.336.367.081.548-.014.008-1.668 1.179-2.265 1.894-1.321 1.574-1.667 2.169-2.199 3.793-.125.376-.536.347-.6-.046l-.434-2.577z"/><path d="M520.348 289.424c.546-1.67.915-2.299 2.255-3.896.631-.752 2.326-1.949 2.326-1.949l-2.17-.716s-.141 1.025-.803 1.778l-2.041 2.207.434 2.577z" class="J"/></g><path d="M511.694 247.35s2.726 5.434 5.072 13.789c4.838 17.251 5.465 39.649 3.38 51.969-6.408 37.867-40.662 73.275-68.315 78.796-23.193 4.628-36.873 14.513-46.594 25.236-7.558 8.735-10.479 13.942-17.333 27.905-2.109 4.298-9.015 5.141-6.046-.909 5.373-9.491 10.477-18.257 18.348-27.588 10.234-11.565 24.937-22.91 49.765-27.899 28.549-5.737 61.442-41.084 67.85-78.949 2.084-12.319 1.442-39.17-5.519-56.443l-.608-5.905" class="B H"/><path d="M497.255 240.334s-8.048-.305-4.178-6.401c-3.683-1.811-8.124-5.094-3.372-7.803-.213-.924-3.022-1.811-2.811-3.989.123-1.252 1.707-1.825 1.844-2.363-.523-.986-4.196-5.701-2.923-7.109 1.954-2.16 6.175.442 8.097 1.601.478-.293 1.186-.889 1.662-1.205 2.805-1.858 2.992 2.637 3.759 4.074.353.658 2.567-1.125 4.062-.334 2.585 1.367 1.443 4.703 2.093 6.956.647-.07 1.578-.598 2.226-.641 4.19-.281 1.921 7.095 1.742 9.414 6.661-.961 1.537 5.874 1.906 11.744.102 1.622-.4 5.203-1.651 3.827-3.942-4.342-14.9-3.154-12.456-7.77z" class="b"/><g stroke-width=".977"><path d="M496.324 264.527c-1.442-.116-4.569-.559-5.185-1.925-.974-2.168 1.559-2.913 1.434-3.077-.886-1.18-4.995-1.935-5.018-3.588-.017-1.16 1.923-1.991 1.58-3.048-.469-1.447-3.237-3.648-2.164-5.257 1.3-1.945 4.035.668 5.353.652.627-.008 1.514-1.397 2.716-1.419 1.769-.029 2.847 3.413 3.516 3.32.739-.102 1.192-1.117 1.919-1.335 2.217-.667 2.85 1.73 3.372 3.291 1.032 3.086 2.144-.577 3.812.149 4.215 1.84 2.479 10.093 3.702 11.084.736.595 2.117.521 2.659 1.362 1.154 1.794-.429 5.419.459 8.664.36 1.313 4.456 5.125 4.456 5.125s.636 3.818.532 3.619c-1.846-3.551-2.246-4.394-5.55-6.918-3.175-2.425-8-.502-9.113-1.773-1.238-1.416.193-2.708-.45-3.328-.246-.235-3.973.151-4.533.095-2.649-.266-5.08-2.676-3.496-5.693z"/><path d="M518.514 278.198l.428 2.377c-6.795-9.721-12.341-5.859-13.799-7.439-1.109-1.202.305-2.068-.6-3.011-.957-.999-6.669 1.115-8.366-3.32-.353-.922.907-2.446.27-2.571-1.445-.283-3.393-.243-4.385-1.551-.413-.546-.769-1.294-.229-1.884.281-.305.611-.564.844-.911.883-1.313-4.486-2.326-4.503-4.28-.011-1.12 1.462-1.524.922-2.903-.471-1.206-2.101-3.204-1.269-4.517 1.009-1.59 3.272.412 4.533.557.619.071 1.669-1.387 2.691-1.416 1.626-.048 2.319 2.973 3.562 2.851 1.212-.12 2.59-2.006 3.917-.367.924 1.142.903 4.477 3.068 3.511.517-.23 1.287-.862 1.867-.61 3.465 1.499 2.581 7.068 3.442 10.031.463 1.59 2.116 1.24 2.708 2.223.286.478.526 1.031.573 1.59.042.48-.033.954-.097 1.427-.268 1.92-.087 3.646.401 5.528.386 1.499 2.493 4.277 4.022 4.684z" class="I"/></g><g class="B"><path d="M520.088 307.84l.34-.28c1.198-.021 2.027-2.498 2.388-3.445 1.501-3.934-1.196-10.462 3.347-10.442.232-1.628.565-5.625 2.045-6.69 1.074-.774 2.126.2 3.152-.106.76-1.532 1.121-4.439 3.304-4.848.692-.129 2.143.994 2.384.872.595-.299 1.302-3.418 3.048-3.889 1.077-.291 2.093.822 2.485.571.64-.409 1.258-1.078 1.79-1.645 2.278-2.433 5.118-2.475 5.042.771-.027 1.156-.767 2.789-1.179 3.843-.142.357 1.432 1.106 1.671 1.566.806 1.534-2.026 3.356-2.66 4.564.043.204 1.499.494 1.717.799 1.886 2.637-3.571 5.528-4.952 7.149-.544.638 1.325 2.056 1.065 3.161-1.044 4.429-7.865 2.799-9.375 3.486-.525.241-.685 2.612-1.129 3.214-1.92 2.595-9.526-.575-11.254 1.051-1.574 1.482-2.097 4.009-3.098 5.812-.216.392-.634.272-.598-.138l.468-5.375z"/><path d="M520.538 308.03c1.408-.068 2.286-2.633 2.711-3.748.555-1.453.802-2.903.858-4.452.085-2.251-1.524-6.204 1.97-5.669 0 0 .737-5.275 2.248-6.492.985-.791 2.744-.343 3.169-.657 1.008-.743.617-3.96 2.79-4.371.842-.16 2.351.673 2.992.353.804-.4 1.092-2.814 2.63-3.224.962-.256 2.236.782 2.864.39 1.325-.827 2.333-3.443 4.207-2.917 2.114.592 1.368 3.801.831 5.116-.384.941.685 1.281 1.065 1.972.71 1.297-1.651 3.359-1.945 4.504-.112.425.928.944 1.189 1.223 1.572 1.68-2.477 4.649-3.565 5.577-.324.276-1.028.828-1.067 1.271-.083.942.932 1.629.67 2.778-.889 3.899-6.316 2.749-8.448 3.461-.86.286-.984 2.032-1.516 2.761-1.706 2.342-9.186.079-11.193 1.912-1.2 1.096-2.168 2.982-2.83 4.458l.37-4.248z" class="I"/></g><path d="M521.658 307.028c.236-.066 9.067-7.095 14.027-12.483 4.062-4.412 9.458-12.121 9.458-12.121s-5.332 7.861-9.302 12.43c-5.02 5.779-13.945 13.502-14.181 13.569s-.239-1.329 0-1.395z" class="K"/><g class="B"><path d="M523.694 284.444c-2.078-1.208-1.769-7.674 1.271-10.608 2.556-2.469 9.706 4.8 7.487 7.807-1.227 1.664-6.567 4.074-8.758 2.801z"/><path d="M532.498 280.529c-1.286 1.057-4.271-.324-5.787-1.839-1.389-1.391-2.233-3.52-1.401-4.502 1.638-1.944 6.201-4.734 8.394-2.894 2.182 1.83-.042 8.278-1.206 9.235z"/><path d="M532.078 281.366c-1.167 1.58-6.262 3.617-8.15 2.52-1.642-.955-1.623-6.837 1.358-9.717 1.881-1.815 8.893 4.352 6.791 7.196z" class="J"/></g><path d="M533.248 271.806c1.819 1.527.058 7.455-1.049 8.363-.94.775-3.612-.259-5.161-1.808-1.407-1.41-2.078-3.381-1.532-4.028 1.684-1.996 5.924-4.054 7.742-2.528z" class="G N"/></g><path d="M531.891 271.844c-.527.557-.875 1.51-.875 2.594 0 1.684.843 3.057 1.891 3.109.144-.458.277-.941.375-1.437.168-.857.254-1.73.188-2.437s-.29-1.211-.578-1.453l-.015-.016c-.246-.2-.574-.318-.969-.359z" class="D E"/><g class="C"><g stroke-width=".863"><path d="M493.752 286.796c-.581-1.792-3.343-3.027-3.633-5.184-.131-.98.943-2.647.853-2.938-.477-1.557-3.074-3.565-1.744-5.502 1.717-2.502 4.163.081 6.198.673.334-.127.446-1.246 1.241-1.457 3.116-.829 5.83 4.234 6.648 4.541 2.417.916 4.312-3.36 5.626 5.984 1.034-.247 2.44-.503 3.063.56 2.57 4.404 1.069 13.893 6.206 16.442l.167.337c-.07.373-.237 3.178-.99 2.264-1.298-1.574-2.32-3.813-4.58-4.209-2.386-.418-12.803 3.351-13.083-1.381-.033-.559.723-1.325.473-1.867-.595-1.303-6.853-.847-7.51-4.345-.257-1.372.708-2.623 1.065-3.916z"/><path d="M517.578 301.936c-3.831-5.945-5.544-3.702-11.362-3.264-1.327.099-5.802.286-5.722-1.954.023-.638.507-.806.11-1.574-.845-1.645-6.088-1.344-6.877-4.389-.409-1.576.457-3.7.237-4.294-.731-1.978-3.986-3.829-3.019-6.42.129-.344.319-.662.382-1.032.195-1.144-2.143-3.764-1.103-5.453 1.209-1.964 3.319-.413 4.927.315 1.15.522.859-.496 1.62-.747 1.328-.441 2.983.829 3.872 1.68.498.48 2.074 2.359 2.475 2.546.938.436 2.533-.06 3.621.322.977.345 1.64 4.449 1.788 5.496l.189.131c.891-.193 2.203-.185 2.737.683 2.429 3.961 1.235 13.419 6.446 16.29l-.321 1.664z" class="I"/></g><path d="M517.278 301.663s-6.918-11.443-12.89-17.428c-3.81-3.816-10.641-8.829-10.641-8.829s6.896 5.231 10.641 9.26c5.448 5.861 11.495 16.997 11.495 16.997h1.395z" class="K"/><g class="B"><path d="M509.884 319.282c.309.147.967.033 1.378.143 3.048.833-1.314 9.672-1.561 11.613-.064.517.267 2.189.235 2.301l-.665 3.762c-.118.39.073-3.744-.527-4.773-1.062-1.827-4.414-.841-6.135-1.107-2.846-.438-.625-2.871-1.861-3.366-2.041-.816-6.299.349-6.806-2.689-.189-1.134.559-2.347.482-3.316-1.463-1.694-5.222-2.072-4.788-5.047.149-1.032 1.654-2.127 1.613-2.795-.052-.81-3.15-3.082-2.411-4.736.453-1.011 1.327-1.015 1.41-1.605.087-.611-2.512-4.512-.326-5.567 2.623-1.265 4.789 1.694 6.678 1.831.957.07 1.802-1.495 3.249-1.173 1.527.341 1.697 2.386 2.392 3.521.674.025 1.337-.697 2.086-.774 3.197-.335 2.703 4.788 3.526 6.55.1.214 1.061-.367 1.457-.211.668.259.916 1.005 1.013 1.657.281 1.918-.743 3.97-.439 5.78zm20.26 7.674c.601 6.038-7.585.091-12.086 2.49-1.343.713-4.485 3.119-4.256 2.541l1.133-2.853c.374-.316 1.58-.32 2.004-.513.976-.444 2.31-1.988 3.206-3.664 1.24-2.323.394-4.949 1.148-6.657 1.154-2.61 2.961-.21 3.739-.774 1.441-1.045 1.684-6.322 5.204-6.377.927-.015.909.164 1.551.474.732-1.067.969-2.379 2.392-2.823 1.028-.322 1.729.594 2.679.585.681-.533 3.32-4.955 5.483-4.436 2.432.583.966 4.908.783 6.493.268.295.604.288 1.03.857 1.674 2.24-.949 4.632-1.85 6.395.237.529.914.498 1.061 1.17.6 2.735-4.595 3.071-5.13 3.803 0 .253.4.545.355 1.118-.264 3.349-8.025 2.454-8.445 2.172zm-52.557 19.914c.154-1.144-2.241-2.88-1.235-4.452.816-1.274 2.678-.616 3.428-1.272.646-2.027-.427-4.759 2.386-5.389 1.428-.317 2.213 1.13 2.676 2.231.174.409.808 2.936 1.053 3.023.527.189 1.925-.81 2.624-.71 1.906.275.403 3.841.982 4.848.407.708 1.422.149 2.07.372 1.922.66.429 3.859.429 5.226 0 .837 1.385 1.092 1.499 2.512.201 2.546-1.95 2.822-3.173 4.466-.17.23-.211.343-.018.577 2.107 2.569.914 3.821-1.418 5.517-2.747 1.995-6.976 3.266-5.423 7.531 0 0-1.389 2.851-1.538 1.902-.22-1.395.456-2.82.07-4.338-.413-1.619-5.363-3.748-5.561-5.494-.141-1.231 1.287-1.416 1.4-2.525.129-1.26-4.294-2.424-3.777-4.921.28-1.35 1.719-1.746 2.348-2.836-.102-1.061-5.035-4.829-.703-5.812.546-.125 1.413-.116 1.881-.457z"/><path d="M481.75 372.916c.168-1.23.318-2.891.004-4.097-.452-1.744-4.296-3.939-4.466-5.451-.11-.963.625-1.215.779-2.419.208-1.623-3.789-2.662-3.316-4.896.288-1.368 1.998-2.022 1.835-3.237-.089-.677-2.114-2.349-1.682-4.087.351-1.406 1.875-.845 2.759-1.553.97-.773-1.902-3.131-.986-4.55.726-1.127 2.714-.633 3.276-1.43.583-.824-.467-4.267 2.3-4.909 2.189-.507 2.635 4.192 3.563 4.875.878.648 1.277-.513 2.651-.326 1.354.185.31 3.493.846 4.489.579 1.081 1.499.222 2.435.556 1.511.54.021 3.746.021 4.861 0 1.165 1.231 1.163 1.341 2.541.179 2.241-1.952 2.807-3.079 4.188-.312.38-.339.733.007 1.105 2.029 2.186.598 3.498-1.375 4.923-3.064 2.215-6.665 3.44-5.122 7.902l-1.792 1.512z" class="I"/><path d="M531.058 337.065c1.524-.392 3.617-1.879 5.089-.703 2.79 2.229-2.07 6.133-2.967 8.222-.017.762 1.553 1.021 1.45 2.555-.178 2.698-3.772 2.122-5.462 3.086-.133.486.618.907.618 1.387 0 3.819-5.766 2.377-7.964 3.092-.7.226.48 2.248-2.021 3.194-1.08.406-2.624-.021-3.719-.214-1.326-.234-2.678-.508-4.034-.434-.559.031-1.132.178-1.693.129-.24-.021-.413-.138-.322-.409l6.3-18.585c.135-.399 2.872.638 3.482.638.679 0 1.345-1.424 1.819-1.857 1.644-1.501 2.438.631 3.81.64 1 .004 3.816-5.589 5.612-.739z"/></g><path d="M499.83 340.094c-.049-.785-1.629 1.605-1.629 1.605l1.887 1.763c.942.812 2.523 1.954 2.523 1.954l.152-1.177s-2.793-1.952-2.933-4.144z" class="L"/><g class="B"><path d="M498.153 332.518c.428.606.16 1.424-.133 2.032-.321.671-.51 1.072-.949 1.655-1.437 1.904-4.628 3.604-6.069 2.616-1.312-.899-3.995-8.781-1.896-10.139 1.997-1.292 7.178 1.188 9.046 3.835z"/><path d="M490.57 336.029c.623-.943 1.533-1.659 2.422-2.336 1.264-.967 4.48-2.678 5.9-1.307 1.863 1.799 2.76 7.24.596 9.129-2.851 2.492-7.464-.377-9.26-2.844-.618-.849-.17-1.865.343-2.641z"/><path d="M493.292 334.184c1.948-1.447 4.16-2.251 4.997-1.37 2.246 2.369 2.359 6.904.8 8.228-1.571 1.333-5.224 1.227-8.376-2.755-.665-.841.612-2.642 2.579-4.103z" class="J"/></g><path d="M497.646 332.256c1.052 1.935-4.688 7.333-6.603 6.055-1.329-.885-3.139-7.678-1.835-8.854 1.842-1.663 7.524 1.117 8.438 2.799z" class="G N"/></g><path d="M490.641 329.5c-.471.031-.837.156-1.062.359-.029.026-.067.119-.109.234.782.387 2.177.737 3.609 1.375 2.046.91 3.46 2.109 4.063 1.766.096-.332.101-.591.031-.719-.146-.268-.63-.743-1.281-1.187s-1.468-.885-2.312-1.219-1.714-.562-2.437-.609a3.77 3.77 0 0 0-.5 0z" class="D E"/><g class="C"><path d="M512.038 356.94c2.871-.139 5.617 1.136 7.352.509 2.585-.93 1.007-2.942 2.253-3.054s7.533.347 7.527-2.782c0-.602-.507-.837-.28-1.516s4.957-.451 5.127-2.978c.107-1.611-1.36-1.629-1.134-2.606s5.293-5.769 2.768-7.753c-1.739-1.367-4.587 1.019-4.855.322-.351-.909-.429-1.67-1.582-1.778-1.667-.154-2.674 2.5-3.762 2.5s-1.586-1.09-2.703-.99c-1.462.129-1.682 2.361-2.928 2.361s-3.189-.692-3.189-.692l-6.299 18.585 1.707-.129z" class="B R"/><path d="M515.124 349.614s5.916-2.241 9.391-4.267c3.322-1.937 7.998-5.717 7.998-5.717m-17.389 9.983s5.916-1.929 9.391-3.956c3.322-1.939 7.998-6.028 7.998-6.028" class="F H Z"/><path d="M477.297 379.028s2.342-.568 3.281-.568 1.492.455 1.492.455l1.065-1.958-4.13.293-1.709 1.778z" class="L"/><path d="M463.168 400.047c-1.86-2.269 4.311-8.154 6.607-6.489 1.645 1.194 3.712 6.314 2.075 7.842-1.828 1.7-7.203.452-8.682-1.354z" class="B F"/><path d="M460.324 392.568l-.686-.047c-1.204-1.502-1.642-1.561-3.407-2.043-.561-.154-.64-.745-.034-.907l2.135-.56c.338-.088 1.244.72 1.501.911.407.303 2.479.747 1.72 1.481l-1.229 1.166z" class="L"/><g class="B"><path d="M459.855 391.228c.872-1.312 6.285-1.624 9.441 1.158 1.941 1.714.38 4.13-1.462 5.689-1.823 1.545-4.583 2.82-5.717 1.829-3.216-2.813-3.312-7.098-2.263-8.676z" class="F"/><path d="M513.108 333.132s2.617-2.724 4.726-3.785c4.092-2.062 10.743 1.256 11.731-.611.504-.951-.257-1.646.378-1.9s7.89 1.186 8.179-2.095c.054-.591-.755-.89-.126-1.522s5.213-.938 4.755-3.104c-.145-.693-1.142-.889-.886-1.582s3.687-3.96 2.222-5.961c-.428-.584-1.507-.469-1.427-1.183.256-2.218 1.002-5.646-.83-5.825-1.968-.191-4.269 3.812-5.037 3.966-.954.191-1.522-.749-2.475-.444-1.583.506-1.835 2.851-2.471 2.851s-.585-.654-1.603-.634c-3.108.065-3.369 5.052-4.925 6.277-.886.697-1.41-.243-2.284-.062-2.154.442-1.518 5.828-2.66 7.541s-3.613 3.739-4.12 3.994-1.505.251-1.505.251l-1.641 3.827z" class="I"/></g><g class="J"><path d="M455.154 389.994s1.972.663 3.281.733c.88.048 2.257-.126 2.257-.126s-.541.114-1.125-.299c-.191-.135-1.543-1.333-1.543-1.333l-2.869 1.025z" class="L"/><path d="M460.398 391.64c1.453-1.647 5.66-1.47 8.745 1.25 1.532 1.351.519 3.382-1.302 4.989-1.834 1.618-4.163 2.519-4.952 1.831-3.082-2.695-3.559-6.862-2.492-8.07z" class="B"/></g><path d="M463.517 399.896c-.691-.789.413-3.208 1.883-4.532 1.302-1.175 3.422-1.978 3.881-1.486 1.799 1.931 3.64 5.367 2.212 7.07-1.433 1.709-6.419.729-7.976-1.051z" class="G N"/></g><path d="M469.062 394.484c-.046.006-.094.022-.141.031-1.492.318-2.339 2.279-1.891 4.391.201.944.63 1.762 1.172 2.344 1.311.1 2.453-.153 2.875-.656.524-.625.488-1.681.016-2.906-.437-1.132-1.24-2.306-2.031-3.203z" class="D E"/><g class="C"><path d="M515.848 260.454s.052-1.771 1.449-6.762c.243-.87.903-1.352.903-1.352l-2.606-.357s.664.631.653 1.455c-.033 2.33-1.285 4.151-1.285 4.151l.886 2.865z" class="J L"/><path d="M512.958 255.114s-1.694-4.952-3.142-6.759c-1.532-1.917-2.633-2.319-5.415-3.208-2.461-.787-6.304-1.42-6.466-3.349s.063-1.564-.639-1.749c-2.259-.594-5.083-1.341-4.543-3.578s1.372-2.587.405-3.056c-1.429-.689-5.185-2.876-4.736-4.79s2.118-1.942 1.414-3.117c-.506-.84-2.317-1.763-2.172-3.295.1-1.045 1.423-1.383 1.383-2.313s-3.59-5.064-1.501-6.79c1.904-1.571 5.266 1.238 6.125 1.593s1.852-1.468 3.112-1.169c1.62.386 1.705 2.811 2.182 3.671.874 1.567 2.662-.472 4.061.28 2.332 1.254 1.52 5.567 2.15 6.439s2.35-.521 3.573.151c1.902 1.051.275 7.346.399 8.38s1.508.146 2.297.761c2.101 1.636-.457 6.6-.052 10.788.139 1.447.486 3.696.486 3.696l1.079 7.413z" class="I b"/><g class="B"><path d="M496.894 399.126c.661 1.135 1.861 1.918 2.417 3.085.785 1.641.05 3.308-1.931 3.185-.857-.053-1.646-.715-2.469-.781-.665-.051-2.567 2.492-4.41 2.409-2.513-.11-3.71-3.177-5.243-4.744-1.221-.257-2.118 1.541-3.474 1.296-2.786-.503-2.652-4.925-3.613-6.872-.768-.571-1.929.637-3.474-.455-2.388-1.685-1.137-6.984-3.698-8.467-2.255-1.306-7.023-.441-6.609-.658l2.658-1.381c.166-.087.674.156.84.189 4.356.868 10.187.154 14.653.154 2.141 0 1.796 1.73 2.141 2.083l.172.026c2.223.154 4.877-.008 6.773 1.393 2.294 1.703.123 3.225.115 3.607l.103.05.485.164 1.498.44c1.16.372 2.46.886 3.239 1.875 1.134 1.441-.139 2.114-.174 3.403z"/><path d="M467.191 386.192c.961.608 13.786.204 15.508.204 1.862 0 1.254 1.472 1.889 2.026.772.351 9.58.058 7.574 3.387-.23.382-.532.727-.726 1.127l.045.37c.899.745 4.022.804 5.382 2.556.81 1.046-1.336 2.726-.417 3.389 1.765 1.269 5.712 6.914-1.452 5.219-1.723-.409-3.764 4.396-7.512.096-.455-.523-1.511-2.048-1.946-2.349-1.046-.723-2.379.957-3.663.748-2.36-.389-2.507-4.528-3.357-6.265-1.171-.818-2.151.156-3.548-.831-3.168-2.236.715-9.908-9.537-8.761l1.759-.916z" class="R"/></g><path d="M466.256 386.406s9.654 1.955 15.201 4.75c5.091 2.567 11.92 8.463 11.92 8.463s-6.657-6.266-11.764-8.928c-5.287-2.753-14.582-4.595-14.582-4.595l-.774.309z" class="K"/><g class="B"><path d="M491.113 376.212c2.504 2.319-1.283 10.045-4.126 9.561-4.53-.772-7.018-5.888-6.165-8.069.912-2.336 7.585-3.997 10.29-1.492z"/><path d="M486.598 384.988c-1.28-.918-.788-4.169.345-6.133 1.038-1.799 2.515-2.928 3.644-2.575 3.213 1.003 6.333 5.228 5.131 7.802-1.181 2.537-7.844 1.817-9.119.906z" class="F"/><path d="M490.902 376.44c2.3 2.13-1.352 9.146-3.862 8.718-4.318-.735-5.872-5.181-5.349-7.012.538-1.892 6.657-4.072 9.211-1.707z" class="J"/><path d="M505.924 381.749c-.411.544-1.275 1.555-2.176 1.547-3.843-.037-3.575-3.318-5.594-5.497-.677-.164-1.177.633-2.5.332-1.734-.397-1.84-4.815-4.437-5.718-1.313-.455-4.969-.474-6.999 1.432l3.633-2.828c3.511 1.378 6.676-6.096 10.697-5.104 1.142.282 1.179 1.028 2.5.911 2.936-.26 5.921-2.186 9.455-1.02 2.114.698-.633 3.53 2.04 3.206 1.719-.21 4.281-.201 4.792 1.935.281 1.173-.324 1.704-.195 2.554.347.27 6.798 2.515 3.384 4.242.54 1.517 3.133 2.532 1.761 4.39-1.287 1.746-4.03-.191-4.791.531-.313.301-.301 1.136-.576 1.481-1.138 1.413-4.133-1.458-5.411-1.729-1.269 4.311-3.569 2.28-5.583-.666z"/><path d="M491.454 372.425c2.666.751 2.739 4.864 4.276 5.249s1.496-.426 2.458-.204c.889.204 1.786 5.388 6.083 4.853 1.094-.137 1.643-1.3 1.643-1.3s1.571 2.577 3.224 2.809c2.378.334 1.697-1.806 2.301-1.877.966-.112 2.742 1.938 4.518 1.938 1 0 .857-1.707 1.914-1.707s3.144 1.007 4.003-.231c1.123-1.615-1.493-3.509-1.684-4.086s.744-.592.645-1.148c-.364-2.053-3.698-2.382-3.987-3.106s.465-1.468.183-2.593c-.477-1.915-3.194-1.981-4.423-1.709-2.846.634-.266-2.402-2.294-3.257-3.493-1.473-8.573 1.316-9.87.77-.872-.367-1.205-.476-1.95-.606-3.146-.546-6.046 4.043-8.033 5l.992 1.207z" class="I"/></g><path d="M490.467 370.994s9.648-.594 15.311 1.377c4.898 1.704 11.363 6.912 11.363 6.912s-6.966-5.124-12.148-6.63c-5.575-1.618-14.867-.731-14.867-.731l.341-.928zm-8.522.676s1.845-12.28 1.686-20.172c-.096-4.744-1.001-12.123-1.001-12.123s1.269 7.649 1.466 12.589c.292 7.338-1.377 18.775-1.377 18.775l-.774.931z" class="K"/><g class="B"><path d="M472.62 371.22c.177.525 1.962 1.042 1.8 3.031-.195 2.437-3.868 1.688-5.577 2.834-.646.436.765 2.529.025 3.521-1.327 1.771-5.835.715-6.162 1.154-.605.81 1.469 3.04-.716 4.27-3.038 1.708-9.452-.993-12.911 2.072-.204.183-1.549 1.694-1.601 1.709-1.977.521-7.222 1.603-6.609 1.345 3.077-1.3 8.025-2.567 8.992-4.682.827-1.802.201-5.206.54-7.153.503-2.911 2.641-1.74 3.345-2.664.569-.747-.49-4.804 1.811-6.716 1.616-1.341 3.35-.42 4.825-1.483 1.543-1.108-.789-4.815 2.259-5.87 1.832-.633 3.736 1.412 4.151 1.322 1.14-.244 2.474-3.677 4.786-3.216 2.303.458 1.275 3.494 1.177 4.9 3.86.48 1.771 3.35-.135 5.625z"/><path d="M441.417 390.864s8.207-3.43 8.878-5.151c1.032-2.639-.093-6.636 1.344-7.591.937-.625 1.875-.312 2.49-1.2s-.183-5.195 2.034-6.935c1.389-1.088 2.641-.113 4.333-1.302 1.823-1.286-.48-4.46 2.307-5.504 1.641-.615 3.289 1.393 4.107 1.179 1.571-.409 2.402-3.536 4.707-3.202 1.854.268.947 2.156.829 3.941-.068 1.026 1.54.55 2.019 1.987.351 1.046-1.08 3.295-2.037 4.132-.546.477 1.664 1.316 1.531 2.802-.193 2.137-4.315 2.286-5.272 2.629-1.235.441-.121 2.287-.96 3.362-1.341 1.719-4.779.652-5.392 1.472-.56.749.686 2.68-.892 3.864-1.64 1.23-8.015.451-9.049.833l-5.575 2.311-5.4 2.373z" class="I"/></g><path d="M450.209 386.042s8.972-6.453 13.561-12.223l5.874-8.019s-3.237 5.014-5.72 8.328c-4.528 6.044-13.566 12.95-13.566 12.95l-.148-1.036zm67.055-57.412c3.449-1.864 9.711-5.091 14.825-9.757 3.44-3.139 7.925-8.934 7.925-8.934s-4.454 6.094-7.925 9.399c-5.22 4.971-11.841 8.511-15.291 10.375l.465-1.084z" class="K"/><path d="M509.938 333.264l-.791 2.633c0-3.636-.144-5.368-4.449-5.139-.667.033-1.354.107-2.017.004-2.188-.343-.502-1.657-1.198-2.658-.852-1.221-6.611-.124-7.082-3.011-.181-1.117 1.064-2.446.151-3.322-1.382-1.324-4.826-2.472-4.458-4.9.154-.999 1.491-1.723 1.298-2.653-.258-1.24-2.733-3.395-2.128-4.757.481-1.086 1.364-.735 1.447-1.76.095-1.144-1.908-4.001-.123-4.869 2.355-1.144 3.949 1.09 5.969 1.254 1.172.095 1.967-1.3 3.19-1.028 1.582.351 1.592 2.898 2.61 3.419.374.189 1.495-.76 2.022-.82 2.834-.325 2.191 5.172 3.156 6.459.351.465 1.098.002 1.605.16 1.773.552-.126 6.563.605 7.367.249.274 1.15.12 1.544.23 1.481.416.446 4.238.202 5.177-.55 2.108-2.454 6.247-1.553 8.214z" class="B R"/><path d="M509.828 332.84s-2.747-10.935-6.646-16.812c-3.229-4.867-10.303-10.867-10.303-10.867s6.767 6.046 9.837 10.867c3.764 5.909 6.333 16.812 6.333 16.812h.778zm5.966-57.146s-6.493-10.546-12.074-16.031c-4.556-4.481-12.983-9.993-12.983-9.993s8.031 5.671 12.362 10.166c5.294 5.493 11.455 15.859 11.455 15.859h1.24z" class="K"/><path d="M512.964 250.457c1.082 2.708 2.633 6.896 3.664 10.806 4.84 18.336 5.287 39.524 3.214 51.767-6.381 37.706-40.664 72.786-68.103 78.263-23.297 4.651-37.067 14.745-46.846 25.535-4.636 5.114-8.339 10.215-11.204 15.077-2.842 4.819-4.707 8.952-7.23 13.104-.029.015-.074.034-.141.056-.17.061-.397.114-.658.164-.555.104-1.257.185-1.923.212-.679.029-1.281.002-1.645-.087l-.087-.023 1.055-1.655c2.406-3.966 4.497-7.831 7.248-12.425 2.743-4.576 5.986-9.406 10.401-14.395 10.176-11.503 24.638-22.629 49.354-27.596 28.772-5.783 61.628-41.463 68.062-79.483 2.095-12.381 2.049-33.761-5.818-56.926l.656-2.392z" class="B J"/><path d="M511.844 248.246c-2.386-6.082-4.065-9.424-7.52-14.968-4.463-7.162-13.528-16.881-13.528-16.881s8.577 9.759 12.797 16.851c4.464 7.504 6.509 12.122 9.071 20.469l-.82-5.471z" class="K"/></g><path d="M513.234 254.084l-.555-1.508c-.394-1.24-.712-3.262-.712-3.262l.98 2.349.895 2.452-.608-.031z" class="D J"/><g class="C"><g class="B"><path d="M514.378 317.002c-1.778-1.476-6.651-5.969-6.651-8.266 0-2.736 2.555-2.265 3.169-2.666-.11-1.108-3.858-3.846-2.355-6.312.99-1.628 3.243-1.171 4.078-1.835.638-1.744-1.837-6.271.147-8.725 1.176-1.454 2.085-.368 2.637-.5.11-.765.087-1.544.174-2.309.15-1.354.64-2.698 2.214-2.778 2.203-.115 3.7 2.713 4.749 4.266.234-.135 1.382-.296 1.625-.417 2.71-1.325 1.727 7.082 1.804 8.378.631-.021 1.913-.374 2.473-.046 2.903 1.713-2.865 10.718-3.48 12.836-.256.881 3.045.172.51 3.371-1.478 1.867-3.364 3.519-4.995 5.251l-6.1-.249z"/><path d="M515.298 323.974c1.103-2.905.71-5.737-1.481-7.323-2.346-1.699-5.475-5.733-5.471-8.069.007-2.761 2.751-1.08 2.878-2.385.096-.974-3.606-3.896-2.287-6.043.86-1.395 3.15-1.234 3.729-1.933.964-1.165-1.426-6.331.465-8.737 1.04-1.323 1.846.083 2.539-.405.671-.475-.405-4.424 2.141-4.539 2.453-.11 4.256 4.003 4.649 3.876.793-.255 1.736-1.084 2.629-.236.87.824.598 7.844.598 7.844s1.667-.162 2.201.166c2.217 1.364-1.765 9.333-2.887 11.518-.957 1.864 1.846 2.099.409 4.013-2.365 3.154-7.09 6.939-7.838 11.58" class="H I"/></g><path d="M518.028 321.924s1.775-11.42 2.267-17.446c.403-4.941-.696-13.074-.696-13.074s.634 7.824.231 12.765c-.492 6.024-3.138 20.356-3.138 20.356l1.335-2.601z" class="K"/><g class="B"><path d="M492.06 364.365c.994-2.554-1.933-10.043.276-11.355 1.263-.752 2.06.66 3.289-.55 1.571-1.553-.887-7.402 1.987-9.252 1.669-1.074 2.992.474 4.599-.984 1.067-.971 1.114-4.886 3.827-5.564 1.802-.451 2.63.777 4.227.997 1.353.184 5.949-6.219 8.805-4.689 2.992 1.605.343 5.003-.259 7.278-.315 1.19 2.232 1.022 1.993 3.014-.217 1.821-2.3 3.647-2.302 4.413 0 .814 2.105 1.368 2.19 2.893.168 2.963-4.607 3.38-6.212 4.641-.841.66 1.083 2.789-.105 4.749-1.258 2.082-6.617.621-7.508 1.067-.725.366-.017 3.895-.92 5.147-1.467 2.036-8.465.125-11.056.549-3.469.569-4.985 1.279-7.167 3.87l4.335-6.221z"/><path d="M487.657 368.456s2.734-1.416 3.719-2.996c.969-1.56 1.094-2.119 1.057-4.584-.023-1.497-1.327-6.648.141-7.469 1.207-.673 1.875.646 3.379-.774 1.833-1.731-.856-7.724 1.755-9.342 1.574-.976 2.995.75 4.815-.878 1.241-1.11 1.029-4.846 3.474-5.458 1.532-.384 2.751.81 4.2 1.005 1.772.239 5.81-5.652 8.34-4.273 1.109.605 1.437 1.453 1.234 2.67-.22 1.312-.963 2.471-1.247 3.752-.366 1.651 1.866 1.505 1.665 3.247-.189 1.654-2.151 3.241-2.151 4.315 0 1.175 1.769 1.939 1.884 3.384.216 2.74-5.515 2.794-5.978 4.297-.459 1.489.656 2.606-.428 4.362-1.171 1.894-5.203.219-6.779.862-1.315.534-.519 3.505-1.316 4.695-2.201 3.282-12.85-1.328-17.225 4.686l-.536-1.502z" class="I"/></g><path d="M487.976 368.836s11.323-9.636 17.535-16.775c4.784-5.493 11.246-14.916 11.246-14.916s-6.032 9.539-10.625 15.072c-5.611 6.759-15.992 15.865-15.992 15.865l-2.164.754z" class="K"/></g><path d="M486.963 369.091l1.856-.537-.955 1.046-.843.778-.058-1.287z" class="D J"/><path d="M486.87 384.764c-.918-.658-.681-3.671.477-5.679 1.051-1.819 2.679-2.701 3.354-2.386 2.481 1.165 5.587 5.062 4.596 7.186-.984 2.108-7.212 1.746-8.427.879z" class="C G N"/><path d="M491.359 377.719c-.278.117-.531.275-.734.5-1.021 1.134-.543 3.226 1.063 4.672.816.734 1.767 1.159 2.641 1.25.237-.152.39-.317.469-.484.349-.748-.027-2.096-.937-3.406a10.72 10.72 0 0 0-2.5-2.531z" class="D E"/><g class="C"><g class="B"><path d="M516.644 254.586c-2.355-.813-3.964-5.166-2.984-9.028.972-3.823 10.731-2.266 9.68 2.288-.83 3.594-4.698 7.429-6.696 6.74z"/><path d="M523.074 246.464c-.347 2.293-3.367 2.548-4.765 2.263-1.487-.299-4.292-1.879-3.964-3.777.696-4.028 3.947-7.134 5.864-6.831 2.095.332 3.424 4.653 2.865 8.345z"/><path d="M516.848 253.845c-1.983-.307-3.534-4.4-2.585-8.132.889-3.503 9.233-1.288 8.475 1.995-.828 3.59-3.953 6.436-5.89 6.138z" class="J"/></g><path d="M520.134 238.734c1.628.257 3.356 3.926 2.789 7.659-.272 1.804-3.085 1.704-4.522 1.414-1.548-.314-4.155-1.35-3.907-2.778.687-3.983 4.142-6.534 5.641-6.295z" class="G N"/></g><path d="M519.859 239.266a1.77 1.77 0 0 0-.25.047c.101.654.514 1.614.703 2.719.251 1.463.219 3.85 1.234 3.672.629-.111.899-.61.906-1.578-.084-.982-.306-1.895-.609-2.656-.528-1.324-1.348-2.132-1.797-2.203a.83.83 0 0 0-.187 0z" class="D E"/><g class="B C"><path d="M382.268 446.704c-.77-1.134.992-4.616 4.682-4.196 1.618.185.835 2.526-1.173 3.928-1.408.98-2.738 1.403-3.509.268z" class="F"/><path d="M382.268 446.704c-.77-1.134.351-3.572 4.064-3.729 1.333-.058 1.453 2.059-.555 3.461-1.408.98-2.738 1.403-3.509.268z" class="J"/><path d="M394.916 431s-.1-1.379-1.69-1.931c-1.371-.478-2.238.614-2.238.614m2.378 3.177s-.05-1.391-1.688-1.778c-1.495-.351-2.085.926-2.085.926" class="F H"/></g></g><path d="M401.704 427.164c7.69-.09 13.472-.821 20.047-2.119-1.551 5.273-4.653 15.304 7.745 15.304 9.021 0 18.598-5.425 27.897-.654 20.311 10.417 35.646 2.978 48.044-10.969 0 0-9.167 1.958-18.598 1.549 0 0 7.065-6.021 7.749-13.949-6.2 4.649-12.4 5.328-18.601 5.328-6.196 0-10.16-3.744-18.276-5.024l1.678-9.601c.797-4.3-.389-7.791-6.644-8.526-13.614-1.598-26.8 6.255-50.892 6.633-24.256-.378-40.882-8.231-54.498-6.633-6.256.735-7.441 4.225-6.644 8.526l1.675 9.601c-8.114 1.28-12.078 5.024-18.273 5.024-6.204 0-12.402-.679-18.602-5.328.683 7.928 7.749 13.949 7.749 13.949-9.43.409-18.598-1.549-18.598-1.549 12.4 13.947 27.734 21.386 48.045 10.969 9.299-4.772 18.876.654 27.897.654 12.397 0 9.296-10.031 7.745-15.304 7.036 1.389 14.824 2.154 23.353 2.154l.003-.034z" class="P"/><path d="M337.705 427.301c-.901.417-1.364-.162-.348-.682.72-.37 3.83-1.724 6.079-2.166.087-.017.17.044.182.133l.082.6a.16.16 0 0 1-.126.172c-2.116.376-5.112 1.59-5.868 1.942zm.519 2.946c-.901.417-1.366-.162-.348-.681.718-.368 3.986-1.975 6.237-2.417.063-.012.152.037.175.097l.226.598a.15.15 0 0 1-.118.207c-2.118.374-5.417 1.846-6.171 2.195zm32.315 5.392c-3.864-.4-8.427-1.571-13.272-2.246-6.133-.855-11.467-.537-17.852 2.356-.351.16-.538.177-.675.181-.118.004-.299-.027-.336-.206-.029-.137.064-.265.149-.349.097-.097.243-.186.419-.278 5.943-3.038 12.161-3.583 18.4-2.734 4.836.658 9.443 1.671 13.299 2.07 2.169.224 4.646-.141 5.462-1.447.214-.341.829.397.628.716-1.234 1.977-4.118 2.156-6.223 1.937zm-33.608-11.043c-.162.063-.318.102-.434.104-.097 0-.253-.025-.303-.171-.046-.135.042-.253.107-.322a1.24 1.24 0 0 1 .349-.228c2.338-1.075 2.944-1.264 6.368-2.176.288-.077.503.094.552.314a.44.44 0 0 1-.355.533c-2.672.636-3.974 1.051-6.285 1.946zm-.527-2.999c-.152.06-.295.096-.409.091-.107-.004-.239-.046-.288-.174s.01-.243.076-.322c.073-.086.179-.166.319-.229 2.359-1.04 3.302-1.377 6.589-2 .276-.054.5.098.577.295.085.217-.023.467-.322.523-3.21.608-4.346.942-6.542 1.814zm34.142 9.007c-2.637-.272-5.639-.862-8.82-1.381a.504.504 0 1 1 .162-.995c3.16.515 6.144 1.103 8.762 1.374a6.27 6.27 0 0 0 2.93-.377c.311-.123.565.058.652.285s.026.529-.285.651c-1.013.399-2.166.571-3.401.443zm-13.876 5.25c-5.264-.82-11.754.068-16.781 2.572a1.61 1.61 0 0 1-.569.162c-.122.01-.305.006-.384-.135-.044-.079-.033-.162-.008-.222a.51.51 0 0 1 .118-.168c.1-.103.262-.216.476-.328 7.408-3.591 13.064-3.351 17.47-2.851 4.723.534 8.868 1.559 13.388 1.9.393.029.5.382.602.687.093.282.265.8-1.149.648-4.474-.474-8.569-1.548-13.163-2.265zm13.833-2.981c-5.002-.519-11.64-2.226-18.004-2.508-.328-.015-.535-.235-.537-.486-.002-.262.211-.471.545-.457 6.387.284 13.102 1.806 18.123 2.325 1.854.193 3.881-.174 4.854-1.046.292-.263 1.046.725.767.974-1.292 1.158-3.742 1.406-5.748 1.198zm-31.733.108c-.901.418-1.364-.162-.349-.681.822-.422 5.342-2.558 7.753-2.718.332-.023.575.181.645.415.077.26-.068.531-.426.556-2.167.144-6.758 2.026-7.624 2.427zm123.622-5.68c.901.417 1.366-.162.349-.682-.721-.37-3.829-1.724-6.078-2.166-.089-.017-.172.044-.184.133l-.082.6c-.01.077.05.16.126.172 2.116.376 5.112 1.59 5.868 1.942zm-.519 2.946c.901.417 1.364-.162.349-.681-.719-.368-3.989-1.975-6.237-2.417a.18.18 0 0 0-.175.097l-.226.598c-.038.097.014.188.118.207 2.116.374 5.417 1.846 6.171 2.195zm-32.315 5.392c3.863-.4 8.427-1.571 13.272-2.246 6.131-.855 11.467-.537 17.852 2.356.351.16.537.177.675.181.118.004.299-.027.337-.206.029-.137-.065-.265-.149-.349a1.74 1.74 0 0 0-.422-.278c-5.94-3.038-12.161-3.583-18.398-2.734-4.838.658-9.444 1.671-13.299 2.07-2.169.224-4.646-.141-5.462-1.447-.214-.341-.829.397-.628.716 1.234 1.977 4.118 2.156 6.223 1.937zm33.608-11.043c.162.063.318.102.434.104.097 0 .253-.025.303-.171.046-.135-.041-.253-.107-.322a1.21 1.21 0 0 0-.349-.228c-2.338-1.075-2.944-1.264-6.368-2.176-.291-.077-.504.094-.552.314s.067.465.355.533c2.672.636 3.974 1.051 6.285 1.946zm.526-2.999c.152.06.295.096.409.091.108-.004.239-.046.288-.174s-.01-.243-.076-.322a.89.89 0 0 0-.319-.229c-2.359-1.04-3.302-1.377-6.589-2-.276-.054-.5.098-.577.295-.085.217.022.467.32.523 3.214.608 4.349.942 6.544 1.814zm-34.142 9.007c2.637-.272 5.639-.862 8.82-1.381a.504.504 0 1 0-.162-.995c-3.16.515-6.144 1.103-8.762 1.374-1.078.11-2.068-.041-2.93-.377-.311-.123-.565.058-.651.285s-.027.529.284.651c1.013.399 2.166.571 3.401.443zm13.876 5.25c5.264-.82 11.756.068 16.781 2.572a1.61 1.61 0 0 0 .569.162c.122.01.305.006.384-.135.043-.079.033-.162.008-.222a.53.53 0 0 0-.116-.168c-.102-.103-.264-.216-.478-.328-7.408-3.591-13.064-3.351-17.47-2.851-4.723.534-8.868 1.559-13.385 1.9-.394.029-.503.382-.605.687-.093.282-.265.8 1.149.648 4.474-.474 8.569-1.548 13.163-2.265zm-13.834-2.981c5.003-.519 11.64-2.226 18.004-2.508.328-.015.536-.235.537-.486.003-.262-.213-.471-.546-.457-6.384.284-13.102 1.806-18.122 2.325-1.854.193-3.881-.174-4.854-1.046-.292-.263-1.044.725-.766.974 1.292 1.158 3.742 1.406 5.747 1.198zm31.733.108c.901.418 1.366-.162.349-.681-.824-.422-5.343-2.558-7.755-2.718-.328-.023-.573.181-.644.415-.077.26.068.531.425.556 2.168.144 6.759 2.026 7.625 2.427z"/><g class="C O"><path d="M400.04 427.329c-10.344 0-17.105-1.582-26.346-3.253-21.515-3.893-26.193-.934-26.193 2.789 0 1.194 1.105 1.547 1.902 1.188.407-.185.744-.87.744-.87-.758-.008-1.254-.309-1.094-1.248.459-2.718 6.047-3.956 24.642-.928 9.271 1.507 16.01 2.788 26.355 2.788l-.008-.465zm.017 0c10.345 0 17.105-1.582 26.347-3.253 21.515-3.893 26.193-.934 26.193 2.789 0 1.194-1.105 1.547-1.902 1.188-.407-.185-.744-.87-.744-.87.758-.008 1.254-.309 1.094-1.248-.459-2.718-6.047-3.956-24.642-.928-9.271 1.507-16.01 2.788-26.355 2.788l.008-.465z" class="B"/><path d="M342.374 416.79c-3.409.546-6.536 1.711-9.731 2.965-8.708 3.419-18.699 2.896-26.438-2.608.54 3.911 2.255 7.317 4.763 10.305.613.727 2.492 2.587 2.492 2.587.313.325.257.533-.187.546-5.928.253-11.311.177-17.14-.911 13.762 15.134 27.586 18.901 46.43 9.744 9.902-4.809 18.15.621 28.039.621 10.489 0 9.501-6.866 7.192-14.624l1.258.136c1.688 4.766 4.339 16.523-8.451 15.572-9.859-.731-17.751-5.754-27.684-1.016-15.294 7.296-26.346 7.192-39.654-2.682-2.714-2.013-7.086-5.631-8.951-8.391-.452-.67.004-1.071.684-.862 5.052 1.568 12.7 1.572 16.594 1.47-3.152-3.171-6.699-9.055-6.545-13.276.021-.546.28-.65.744-.413 7.209 3.735 9.914 5.236 18.321 5.236 4.95 0 15.064-5.591 18.074-5.013l.188.613z"/><path d="M457.723 416.79c3.407.546 6.534 1.711 9.732 2.965 8.708 3.419 18.7 2.896 26.438-2.608-.54 3.911-2.257 7.317-4.765 10.305-.611.727-2.489 2.587-2.489 2.587-.314.325-.258.533.187.546 5.926.253 11.311.177 17.14-.911-13.764 15.134-27.586 18.901-46.433 9.744-9.9-4.809-18.148.621-28.036.621-10.49 0-9.502-6.866-7.193-14.624l-1.256.136c-1.69 4.766-4.342 16.523 8.449 15.572 9.858-.731 17.75-5.754 27.683-1.016 15.294 7.296 26.346 7.192 39.654-2.682 2.714-2.013 7.086-5.631 8.95-8.391.455-.67-.006-1.071-.683-.862-5.052 1.568-12.701 1.572-16.594 1.47 3.149-3.171 6.698-9.055 6.545-13.276-.021-.546-.281-.65-.743-.413-7.209 3.735-9.914 5.236-18.321 5.236-4.952 0-15.064-5.591-18.074-5.013l-.189.613z" class="B"/><path d="M399.473 405.15c-11.826.086-21.801-2.068-30.125-3.945-6.9-1.557-14.935-3.337-22.009-2.396-5.153.69-7.257 2.965-6.376 8.16l3.233 19.405c.677 3.715 2.656 4.213 6.146 3.596 5.026-.889 21.147-4.493 24.768.086 3.475 4.391.089 7.558-4.749 7.639-.677.01-.458-.461-.23-.461 4.628 0 7.886-2.678 4.896-6.785-3.149-4.328-18.231-1.155-24.373.28-3.906.912-6.503.409-7.222-4.385-.99-6.609-1.599-11.15-3.694-19.695-3.542-14.445 22.238-7.753 29.665-6.028 10.124 2.35 18.577 3.862 30.584 4.221 12.031-.36 20.483-1.871 30.607-4.221 7.425-1.726 33.207-8.418 29.667 6.028-2.097 8.546-2.706 13.087-3.696 19.695-.718 4.795-3.316 5.297-7.221 4.385-6.142-1.435-21.224-4.607-24.374-.28-2.99 4.107.268 6.785 4.896 6.785.228 0 .446.471-.231.461-4.835-.081-8.225-3.247-4.749-7.639 3.621-4.579 19.742-.974 24.768-.086 3.49.617 5.469.119 6.146-3.596l3.233-19.405c.881-5.195-1.223-7.471-6.379-8.16-7.074-.941-15.107.839-22.006 2.396-8.324 1.877-18.299 4.031-30.126 3.945h-1.049z"/></g><path d="M361.531 417.226l-4.225-.284-.945-12.882 3.131.373.65 10.052 2.66.214 2.784.386.197 2.587-4.252-.447zm6.759.721l-.705-12.423 3.154.484.705 12.422zm9.52-5.768l1.071.183c1.596.272 1.719-.278 1.708-.949-.017-.81-.393-1.308-2.006-1.584l-.82-.14.046 2.49zm.114 4.938l1.492.255c1.739.295 2.161-.026 2.145-.898-.019-.999-.621-1.599-2.497-1.919l-1.192-.204.053 2.766zm1.834 2.766l-4.998-.853-.226-12.271 4.495.767c3.086.525 4.751 1.879 4.794 4.209.017.976-.534 1.623-1.136 1.972.868.484 2.101 1.593 2.132 3.219.041 2.28-1.344 3.592-5.062 2.959zm11.772 1.683l-4.339-.53-.122-6.183-.121-6.207 7.123.739.047 2.46-3.983-.413.05 2.548 4.186.433.046 2.305-4.186-.433.049 2.62 2.712.355 2.856.135.048 2.463-4.367-.293zm10.388-6.338c1.663-.029 2.392-.737 2.371-1.869-.021-1.189-.536-1.688-2.043-1.661l-1.395.023.061 3.523 1.006-.017zm6.962 6.418c-2.457-.081-3.779-1.312-5.075-2.766l-1.371-1.536-.617.024-.812.015.073 4.329-3.08.051-.214-12.387 4.782-.083c2.745-.048 4.769 1.183 4.819 3.938.023 1.343-.594 2.535-1.85 3.309l1.189 1.244c.669.693 1.416 1.155 2.727 1.47l-.573 2.389zm.111-9.962l-.015-2.45 10.952-1.512.014 2.452-3.904.538.058 9.887-3.144.433-.058-9.886zm17.632-2.489l-1.179 4.023c.859-.087 1.76-.24 2.587-.488l-1.078-3.598-.33.062zm3.351 8.996l-1.217-3.324c-.645.237-1.341.376-2.041.482l-2.091.282-1.329 3.814-3.185.596 3.85-10.625-1.348.253-.025-2.448 8.364-1.57.112 2.432-1.359.255 3.548 9.237-3.279.615zm8.326-.791c-2.023.036-3.092-.314-4.013-.806l.862-2.296c1.147.384 1.816.544 3.158.521 1.476-.027 2.199-.49 2.209-1.16.008-.449-.334-.762-.918-1.046s-1.362-.519-2.141-.823c-1.561-.608-3.166-1.503-3.129-3.64.044-2.425 2.751-3.663 4.925-3.7 1.954-.035 3.05.366 4.001.767l-.791 2.226c-.961-.262-1.927-.486-3.162-.463-1.221.021-1.933.654-1.941 1.107-.007.351.336.631.938.915.592.279 1.385.538 2.176.87 1.587.663 3.217 1.628 3.181 3.634-.05 2.759-2.82 3.852-5.355 3.895z"/><defs ><path id="C" d="M400.079 166.698h-6.842s1.053-6.511.204-10.941c-.692-3.604-3.125-6.401-3.446-10.057-.457-5.158 4.042-12.076 4.042-12.076h12.084s4.344 6.918 3.888 12.076c-.321 3.656-2.601 6.453-3.293 10.057-.849 4.429.204 10.941.204 10.941h-6.842z"/><path id="D" d="M385.724 189.003c-.072-.826.54-1.557 1.367-1.628a1.5 1.5 0 0 1 1.629 1.367c.073.826-.54 1.555-1.366 1.628s-1.557-.54-1.631-1.367zm-3.482 3.322c-.072-.826.54-1.556 1.367-1.628s1.557.54 1.63 1.367-.54 1.557-1.366 1.63-1.557-.54-1.631-1.368zm-3.554-2.668a1.5 1.5 0 0 1 1.366-1.628c.826-.073 1.406.54 1.478 1.366s-.388 1.557-1.217 1.63-1.556-.54-1.628-1.368zm3.031-3.322c-.072-.826.54-1.555 1.367-1.628a1.5 1.5 0 1 1 .262 2.994c-.826.073-1.555-.54-1.628-1.367z"/><path id="E" d="M392.853 190.393V186.5l2.269-2.113h9.918l2.269 2.113.002 3.892-2.272 1.964h-9.918z"/><path id="F" d="M414.374 189.003a1.5 1.5 0 1 0-2.995-.261c-.071.826.54 1.555 1.368 1.628s1.555-.54 1.627-1.367zm3.483 3.322c.072-.826-.54-1.556-1.367-1.628s-1.557.54-1.629 1.367.54 1.557 1.368 1.63 1.555-.54 1.628-1.368zm3.554-2.668a1.5 1.5 0 0 0-1.366-1.628c-.826-.073-1.406.54-1.479 1.366s.39 1.557 1.217 1.63 1.556-.54 1.628-1.368zm-3.029-3.322c.07-.826-.54-1.555-1.369-1.628s-1.555.54-1.627 1.367a1.5 1.5 0 0 0 1.366 1.628c.826.073 1.555-.54 1.63-1.367z"/><path id="G" d="M406.139 133.624h-.418c-1.121 1.04-2.884 2.095-5.642 2.705-2.76-.611-4.52-1.665-5.641-2.705h-.394s-4.24 3.006-7.214.752c-1.098-.831-1.331-1.977-1.331-1.977s5.089-.278 5.089-4.794c0-4.504 2.444-6.401 5.733-6.401 1.437 0 2.744.71 3.758 1.63 1.011-.92 2.321-1.63 3.758-1.63 3.289 0 5.733 1.897 5.733 6.401 0 4.517 5.087 4.794 5.087 4.794s-.233 1.146-1.329 1.977c-2.976 2.255-7.19-.752-7.19-.752z"/><path id="H" d="M287.558 255.574c1.697-4.804 1.658-10.149 2.608-15.138 2.002-10.517 4.99-13.936 12.587-20.97 2.421-2.241 4.9-3.87 7.533-5.86.426 3.025.625 5.565.318 8.603-1.495 14.86-7.824 18.367-18.435 27.455-2.058 1.76-2.589 4.227-4.61 5.911z"/><path id="I" d="M282.056 278.96l-.777 2.493c-.436-3.244-1.802-4.69-4.14-6.806-10.18-9.21-14.531-20.05-10.26-32.725 1.495-4.43 2.934-6.874 6.084-10.33 1.989 3.408 2.953 5.447 4.331 9.145 3.493 9.384 4.886 14.69 3.501 25.439-.49 3.797-2.311 8.421.21 11.797.276.367.61.797 1.051.986z"/><path id="J" d="M417.799 447.313c-2.481.631-4.431-2.701-3.787-3.436.594-.677 1.85-.712 3.063-.123 2.168 1.059 2.043 3.225.725 3.559z"/></defs></svg>