<svg xmlns="http://www.w3.org/2000/svg" width="900" height="600" viewBox="0 0 9 6"  xmlns:v="https://vecta.io/nano"><path fill="#ee1c25" d="M0 0h9v6H0z"/><path fill="#0b4ea2" d="M0 0h9v4H0z"/><g fill="#fff"><path d="M0 0h9v2H0z"/><path d="M3.163 4.635c-.538-.259-1.307-.773-1.307-1.79l.049-1.48h2.517s.049.463.049 1.48-.769 1.531-1.307 1.79z"/></g><path fill="#ee1c25" d="M3.163 4.5c-.493-.238-1.199-.709-1.199-1.643L2.008 1.5h2.309s.045.424.045 1.357S3.656 4.262 3.163 4.5z"/><path fill="#fff" d="M3.268 2.613c.134.002.394.007.626-.07l-.006.18.006.18c-.213-.071-.476-.073-.626-.071v.515h-.211v-.515c-.151-.002-.413 0-.626.071l.006-.18-.006-.18c.232.078.493.072.626.07v-.324a1.48 1.48 0 0 0-.496.071l.006-.18-.006-.18a1.48 1.48 0 0 0 .495.071c-.006-.205-.066-.463-.066-.463l.172.01c.049 0 .172-.01.172-.01s-.06.258-.066.463a1.48 1.48 0 0 0 .495-.071l-.006.18.006.18a1.48 1.48 0 0 0-.496-.071v.324z"/><path fill="#0b4ea2" d="M3.163 3.291c-.248 0-.382.345-.382.345s-.074-.163-.277-.163c-.137 0-.238.122-.303.235.25.397.648.642.961.793.313-.151.711-.396.961-.793-.064-.113-.165-.235-.303-.235-.203 0-.277.163-.277.163s-.133-.345-.382-.345z"/></svg>