<svg xmlns="http://www.w3.org/2000/svg" xmlns:xlink="http://www.w3.org/1999/xlink" width="675" height="450" xmlns:v="https://vecta.io/nano"><style><![CDATA[.B{stroke:#000}.C{fill:none}.D{fill:#fff}.E{fill:#f9d90f}.F{stroke-width:.273}.G{stroke-width:1.173}]]></style><path d="M0 0l298.571 225.241H675V0z" fill="#dc171d"/><path d="M0 0 299.005 225.746 0 450z" stroke="#fff" class="D"/><path d="M0 450l298.571-224.759H675V450z" fill="#012a87"/><path d="M150.828 170.286l.092-3.483s-1.871-2.98.3-6.181c0 0-4.612-2.44-3.538-6.261 0 0-4.17-1.067-3.864-5.654 0 0-4.502-.312-4.968-4.144 0 0-4.502.741-6.482-2.993 0 0-4.392.858-5.63-2.22 0 0-4.269 1.479-6.802-2.14 0 0-4.508 1.821-6.397-1.595-1.865 3.404-6.373 1.595-6.373 1.595-2.503 3.605-6.802 2.109-6.802 2.109-1.196 3.091-5.575 2.214-5.575 2.214-1.975 3.735-6.47 2.993-6.47 2.993-.441 3.821-4.937 4.133-4.937 4.133.356 4.6-3.808 5.642-3.808 5.642 1.098 3.82-3.508 6.254-3.508 6.254 2.227 3.219.374 6.176.374 6.176l-.104 3.212 74.506.345" fill="#ff0"/><path d="M150.828 170.286l.092-3.483s-1.871-2.98.3-6.181c0 0-4.612-2.44-3.538-6.261 0 0-4.17-1.067-3.864-5.654 0 0-4.502-.312-4.968-4.144 0 0-4.502.741-6.482-2.993 0 0-4.392.858-5.63-2.22 0 0-4.269 1.479-6.802-2.14 0 0-4.508 1.821-6.397-1.595-1.865 3.404-6.373 1.595-6.373 1.595-2.503 3.605-6.802 2.109-6.802 2.109-1.196 3.091-5.575 2.214-5.575 2.214-1.975 3.735-6.47 2.993-6.47 2.993-.441 3.821-4.937 4.133-4.937 4.133.356 4.6-3.808 5.642-3.808 5.642 1.098 3.82-3.508 6.254-3.508 6.254 2.227 3.219.374 6.176.374 6.176l-.104 3.212 74.494.345z" class="B E F"/><path d="M149.086 165.937c-11.703-1.172-25.177-3.949-35.579 1.908-6.973-4.109-16.683-3.858-24.95-3.053-4.49.803-9.77.803-14.462 1.569l-.736.104c-8.513.565-16.234-1.95-23.632-5.255 2.349 13.331 4.956 26.994 6.238 40.951 2.791 20.671-9.782 38.026-4.625 58.446 3.079 9.799 13.855 15.495 23.717 16.624 9.549.563 19.43 2.128 28.268 4.047 1.681.35 3.673 1.129 4.833 1.631 2.435 1.018 4.22 2.514 5.783 4.115 5.336-5.557 13.155-7.102 20.871-7.917 13.904-1.625 31.046-.741 39.559-13.336v-.712c4.625-6.966 4.011-17.592 2.006-25.485-.135-2.753-.871-5.182-1.269-7.806-8.495-22.432-1.22-47.659 2.435-70.269-4.465 2.441-9.446 3.593-14.413 4.814-3.962.528-8.378.288-12.389.073l-1.662-.447m17.485 64.376h0" fill="#dc171d"/><path d="M166.566 230.313c-.055 1.477.743 2.637 1.031 4.003 1.625 9.806 3.196 22.793-6.9 28.877-11.169 7.101-25.815 4.06-38.738 7.818-2.582.717-6.139 3.092-7.954 4.771-1.166-.767-2.336-1.944-3.84-2.636-10.635-5.654-24.459-3.759-36.462-6.814-6.029-1.907-12.315-6.603-13.843-12.773-3.925-16.188 5.477-29.986 4.367-46.045-.717-12.265-2.779-24.037-5.612-35.535 9.384 4.372 20.245 5.101 30.795 3.005 7.813-1.092 16.909-1.116 24.232 2.189 4.035-1.736 8.759-2.514 13.107-2.993 8.268.804 17.154 2.3 25.668 2.238 5.686-.295 10.85-1.938 15.793-4.127-2.932 19.004-8.562 38.909-1.649 58.022" fill="#62afe1"/><path d="M149.687 234.101l-.092-17.869h2.201l-27.317-17.642-.049-9.168h2.638l-13.659-9.78-13.592 9.774h2.631l.049 9.161-27.17 17.619 2.171.012.092 17.857 72.09.049" class="D"/><path d="M149.687 234.101l-.092-17.869h2.201l-27.317-17.642-.049-9.168h2.638l-13.659-9.78-13.592 9.774h2.631l.049 9.161-27.17 17.619 2.171.012.092 17.857 72.096.036z" class="B C G"/><path d="M158.083 257.576l.006 5.592-88.005-.098-.036-5.568 88.043.075" class="D"/><path d="M158.083 257.576l.006 5.592-88.005-.098-.036-5.568 88.036.075z" class="B C G"/><path d="M75.929 257.238l-.074-18.924 3.564-.007-.196 19.145.215-18.991-5.133-.147v-4.06l78.652.087.037 4.022h-4.851l.092 19.163-.171-19.163h3.612l.08 18.947" class="D"/><path d="M75.929 257.238l-.074-18.924 3.564-.007-.196 19.145.215-18.991-5.133-.147v-4.06l78.652.087.037 4.022h-4.851l.092 19.163-.171-19.163h3.612l.08 18.947m-58.916-4.733l-.055-13.196H82.222l.061 13.183 10.555.013m0 0l-.055-13.196H82.222l.061 13.183 10.555.013m0 0l-.055-13.196H82.222l.061 13.183 10.555.013m0 0l-.055-13.196H82.222l.061 13.183 10.555.013m0 0l-.055-13.196H82.222l.061 13.183 10.555.013m-7.74-10.444l.03 7.665h4.833l-.024-7.665h-4.839m59.369 10.48l-.061-13.183-10.525-.012.049 13.195h10.537m-7.74-10.431l.055 7.641h4.827l-.043-7.641h-4.839m7.66-11.056l-.061-13.197H133.79l.037 13.197h10.562zm-7.74-10.419l.03 7.653h4.827l-.006-7.653h-4.851m-43.895 10.371l-.074-13.172-10.543-.013.049 13.178h10.568v.007zm-7.741-10.419l.024 7.641 4.839.012-.036-7.653h-4.827m26.852 10.442l-.049-13.172-10.549-.012.043 13.183h10.555m-7.734-10.429l.024 7.641 4.833.024-.03-7.665h-4.827m22.466 10.455l-.074-13.197-10.543-.012.049 13.183 10.568.025m-7.748-10.441l.037 7.665h4.833l-.024-7.665h-4.845" class="B C G"/><path d="M129.209 227.08l.117 30.421-30.562-.049-.111-30.396 30.549.024" class="D"/><g class="B C G"><path d="M129.209 227.08l.117 30.421-30.562-.049-.111-30.396 30.556.024zm-30.74 8.683l30.77.024m-30.77-.024l30.77.024m-30.77-.024l30.77.024m-30.77-.024l30.77.024m-30.77-.024l30.77.024m-26.93 21.701l-.104-21.499m23.403 21.511l-.104-21.486m14.861-21.892l-17.21-12.566-19.338-.024-17.075 12.541 53.623.049m-35.059-22.995l.03 7.665 16.266.012-.03-7.665-16.266-.012m0 0l.03 7.665 16.266.012-.03-7.665-16.266-.012"/><path d="M105.307 191.129l.03 7.665 16.266.012-.03-7.665-16.266-.012m4.41 1.901l.024 3.82h7.47l-.024-3.82h-7.47m3.693-10.622l9.047 6.395-18.026-.024 8.979-6.372m0 .001l9.047 6.395-18.026-.024 8.979-6.372m0 .001l9.047 6.395-18.026-.024 8.979-6.372m0 .001l9.047 6.395-18.026-.024 8.979-6.372m0 .001l9.047 6.395-18.026-.024 8.979-6.372"/></g><path d="M149.988 178.072c2.57-.061 3.232 10.584 3.238 15.858 2.208.62 7.102 3.698 9.267 6.481l-24.828-.036c2.134-2.747 6.992-5.838 9.182-6.456 0-5.281.54-15.919 3.14-15.858" class="D"/><path d="M149.988 178.072c2.57-.061 3.232 10.584 3.238 15.858 2.208.62 7.102 3.698 9.267 6.481l-24.828-.036c2.134-2.747 6.992-5.838 9.182-6.456 0-5.281.54-15.919 3.14-15.858m-49.906 49.872h2.227l-.65 1.195m-1.577-1.195h2.227l-.65 1.195m-1.577-1.195h2.227l-.65 1.195m-1.577-1.195h2.227l-.65 1.195m-1.577-1.195h2.227l-.65 1.195s1.073 1.38.018 2.962l.582 1.098h-2.147l.582-1.043s-1.098-1.833.049-3.017l-.662-1.195m4.539 0h2.227l-.644 1.195a2.55 2.55 0 0 0 .006 2.962l.576 1.098h-2.14l.576-1.043s-1.073-1.833.055-3.017l-.656-1.195m4.948 0h2.221l-.662 1.195s1.085 1.38.018 2.962l.582 1.122-2.128-.024.57-1.043s-1.085-1.821.043-3.017l-.65-1.195h.006zm5.588.011h2.239l-.656 1.208a2.53 2.53 0 0 0 .006 2.943l.601 1.116h-2.159l.576-1.043s-1.073-1.845.074-3.017l-.675-1.208h-.006zm4.967 0h2.221l-.656 1.208s1.079 1.356.012 2.937l.588 1.122h-2.14l.558-1.043s-1.079-1.833.086-3.017l-.669-1.208m4.938.013l2.221-.012-.656 1.208a2.51 2.51 0 0 0 .03 2.943l.558 1.116h-2.147l.576-1.043s-1.073-1.833.074-3.017l-.656-1.196" class="B C G"/><use xlink:href="#B" class="E"/><use xlink:href="#B" class="B C F"/><path d="M29.63 221.138l12.757 4.06-3.858 20.654-12.076 1.876s-2.036-10.86 3.177-26.601" class="E"/><path d="M29.63 221.138l12.757 4.06-3.858 20.654-12.076 1.876s-2.036-10.86 3.177-26.601v.012z" class="B C F"/><path d="M38.522 245.623l-12.07 2.103 7.636-10.86 4.434 8.757" fill="#7e7e7e"/><path d="M38.522 245.623l-12.07 2.103 7.636-10.86 4.434 8.757" fill="#f9b60f" class="B F"/><path d="M22 236.015l12.297.888c.276 10.419 1.54 50.179 49.023 52.338l-1.478 14.466c-57.799.6-62.191-48.769-59.842-67.692" class="E"/><path d="M22 236.015l12.297.888c.276 10.419 1.54 50.179 49.023 52.338l-1.478 14.466c-57.799.6-62.191-48.769-59.842-67.692zm45.135 70.654l14.492-3.164m-14.492 3.164l14.492-3.164m-14.492 3.164l14.492-3.164m-14.492 3.164l14.492-3.164m-14.492 3.164l14.492-3.164" class="B C F"/><path d="M197.52 221.285l-12.708 4.022 4.029 20.623 12.101 1.943s1.945-10.853-3.423-26.6" fill="#ff0"/><path d="M197.52 221.285l-12.708 4.022 4.029 20.623 12.101 1.943s1.945-10.853-3.423-26.6v.012z" class="B E F"/><path d="M188.842 245.715l12.101 2.171-7.74-10.865-4.361 8.694" fill="#7e7e7e"/><path d="M188.842 245.715l12.101 2.171-7.74-10.865-4.361 8.694" fill="#f9b60f" class="B F"/><path d="M205.291 236.18l-12.315.841c-.178 10.406-1.085 50.184-48.569 52.294l1.613 14.453c57.787.668 61.762-48.677 59.271-67.594" class="E"/><path d="M205.291 236.18l-12.315.841c-.178 10.406-1.085 50.184-48.569 52.294l1.613 14.453c57.787.668 61.762-48.677 59.271-67.594v.005zm-44.527 70.568l-14.53-3.182" class="B C F"/><path d="M106.393 305.203c-.325.209-.767.264-1.276.239l-2.294-.117.196-2.863 2.275.122c.447.03.803.117 1.025.252.46.239.662.681.62 1.293-.03.528-.215.871-.552 1.073m-3.852 4.508l.227-3.489 2.674.184c.864.067 1.508-.159 1.945-.601.453-.429.687-.993.717-1.631.055-.742-.135-1.35-.576-1.797-.423-.429-1.025-.656-1.778-.729l-3.821-.239-.528 8.216 1.134.075m8.322-6.862l2.797.03m-2.797-.03l2.797.03m-2.797-.03l2.797.03m-2.797-.03l2.797.03m-2.797-.03l2.797.03c.405.037.723.086.957.196.429.202.632.607.632 1.196 0 .552-.159.921-.473 1.141-.3.201-.736.294-1.257.294l-2.686-.03.024-2.827m-.043 7.279l.024-3.508 2.625.037c.466 0 .81.036 1.049.153.387.178.576.552.594 1.067l.068 1.38.043.669c.037.098.055.202.104.277h1.411l-.024-.178c-.159-.086-.288-.251-.344-.503-.049-.159-.074-.399-.086-.699l-.024-1.098c-.018-.497-.104-.839-.294-1.031-.165-.221-.393-.411-.743-.528.393-.208.687-.447.902-.742.203-.325.306-.735.306-1.238 0-.944-.386-1.589-1.172-1.938-.423-.19-.963-.289-1.601-.3l-3.943-.037-.03 8.241h1.134m8.753-1.749c-.503-.612-.773-1.379-.834-2.287-.055-1.141.165-2.012.687-2.601.528-.638 1.208-.944 2.098-.993.896-.049 1.631.239 2.177.803.558.552.877 1.319.932 2.276.03.92-.129 1.735-.552 2.452-.417.73-1.11 1.141-2.134 1.166-1.067.055-1.865-.195-2.374-.816m-1.349-5.188c-.528.816-.743 1.76-.687 2.901.08 1.232.46 2.25 1.178 3.017.797.767 1.852 1.152 3.153 1.079 1.392-.061 2.441-.588 3.153-1.557.576-.876.852-1.896.791-3.152-.08-1.122-.405-2.036-1.012-2.717-.767-.914-1.889-1.318-3.411-1.256-1.435.092-2.49.619-3.171 1.685m38.738-11.851c.791-.135 1.478-.098 2.104.117.92.288 1.54.969 1.925 2.012l-1.134.159c-.245-.563-.594-.95-1.067-1.166-.46-.201-1.037-.252-1.699-.153-.773.117-1.392.503-1.828 1.122-.429.662-.558 1.545-.368 2.673.159.933.503 1.724 1.067 2.25.521.54 1.288.729 2.288.588.749-.123 1.349-.422 1.772-.938.441-.49.57-1.233.423-2.189l-2.644.405-.135-.908 3.68-.565.717 4.36-.729.111-.453-1.005c-.306.454-.614.804-.884 1.005-.453.357-1.067.583-1.834.693-.993.153-1.901-.025-2.723-.552-.902-.669-1.484-1.662-1.705-3.041-.239-1.355-.024-2.514.601-3.428.594-.882 1.46-1.397 2.625-1.563m8.322-.626l2.638-.957c.362-.134.675-.178.944-.146.485.036.84.324 1.043.901.19.491.19.92-.024 1.221-.227.312-.582.54-1.098.729l-2.478.889-1.025-2.637m2.638 6.814l-1.288-3.305 2.453-.883c.46-.147.779-.227 1.019-.201.435.054.767.319.987.821l.558 1.258c.123.312.221.503.3.588.037.111.117.178.178.251l1.331-.49-.074-.178c-.196 0-.386-.111-.528-.325-.104-.153-.203-.374-.344-.631l-.435-1.031c-.196-.447-.399-.723-.632-.889-.233-.129-.528-.215-.877-.239.27-.313.466-.627.54-.994.08-.374.043-.791-.135-1.256-.338-.876-.957-1.355-1.828-1.416-.46-.036-.987.061-1.595.275l-3.705 1.319 2.993 7.751 1.085-.399m9.64-4.108l-4.704-6.862 5.165-3.293.57.828-4.232 2.704 1.448 2.097 3.907-2.514.534.803-3.907 2.514 1.595 2.312 4.305-2.754.57.81-5.256 3.354m4.121-12.129l1.349-1.484c.626-.662 1.288-.963 2.012-.876.723.061 1.46.441 2.245 1.128.215.165.405.38.601.62.344.447.546.841.675 1.233.111.492.086.939-.086 1.368-.104.214-.288.465-.564.767l-1.355 1.472-4.875-4.237m7.127 3.231c.957-1.054 1.166-2.189.608-3.47-.325-.693-.822-1.368-1.508-1.956-.864-.767-1.766-1.159-2.717-1.232-1.055-.081-1.951.3-2.729 1.152l-2.3 2.465 6.341 5.531 2.3-2.477m4.916-6.411l-7.299-4.286.594-.944 7.311 4.262-.601.98m2.859-4.99l-7.881-3.153 2.324-5.543.957.368-1.895 4.568 2.374.933 1.772-4.208.908.375-1.754 4.201 2.656 1.079 1.945-4.623.957.362-2.368 5.642m3.624-9.677l-8.292-1.833.276-1.281 7.66-2.588-6.728-1.484.246-1.005 8.292 1.784-.264 1.245-7.672 2.643 6.728 1.454-.239 1.067m-.664-10.53l.104-1.043c.479.013.884-.061 1.19-.227.601-.325.951-.944 1.043-1.859.037-.428.018-.803-.08-1.159-.178-.686-.564-1.067-1.184-1.128-.46-.049-.791.061-1.031.313-.215.288-.441.704-.614 1.293l-.38 1.085c-.245.711-.473 1.202-.717 1.477-.393.516-.944.693-1.649.645-.755-.08-1.367-.38-1.803-.957-.447-.528-.632-1.281-.521-2.214.074-.852.356-1.569.858-2.146.466-.528 1.19-.78 2.116-.681l-.086 1.043c-.453 0-.816.08-1.079.264-.479.264-.743.822-.822 1.637-.068.675.024 1.128.282 1.473.258.288.582.471.963.503.405.037.723-.092.944-.404.159-.216.35-.681.608-1.435l.374-1.14c.184-.528.405-.932.662-1.22.46-.478 1.061-.681 1.816-.625.92.098 1.576.478 1.913 1.178.331.705.46 1.484.38 2.367-.104.999-.429 1.784-1.031 2.312-.601.539-1.349.723-2.257.65m-171.895-.504l.19 1.03c-.46.092-.828.277-1.098.516-.485.453-.65 1.134-.485 2.06.074.392.215.778.393 1.085.368.626.846.876 1.454.778.447-.08.743-.251.884-.57.135-.313.233-.792.264-1.404l.055-1.159c.037-.717.117-1.281.276-1.595.252-.564.723-.914 1.429-1.03.755-.136 1.417.036 1.987.465.576.399.957 1.092 1.098 2.012.178.841.098 1.595-.233 2.275-.319.663-.932 1.067-1.871 1.239l-.184-1.042c.435-.159.761-.313.975-.528.368-.411.479-1.005.338-1.821-.111-.663-.338-1.092-.681-1.307-.338-.252-.675-.351-1.043-.288-.411.061-.681.288-.81.656-.08.245-.141.753-.196 1.533l-.055 1.202c-.03.564-.117 1.031-.306 1.35-.3.588-.81.95-1.552 1.067-.938.159-1.662-.055-2.177-.656-.528-.588-.852-1.293-1.018-2.171-.184-1.043-.049-1.852.368-2.501.423-.669 1.092-1.055 1.999-1.184m-.521 10.861l8.108-2.441 1.889 5.709-.987.312-1.546-4.691-2.465.742 1.429 4.335-.944.3-1.417-4.347-2.748.821 1.57 4.795-.969.277-1.919-5.813m3.594 9.897l7.458-3.955.797 1.391-5.127 5.421 7.489-1.281.773 1.38-7.44 3.931-.528-.915 4.392-2.311.761-.417 1.134-.577-7.458 1.269-.546-.969 5.091-5.402-.245.123-.81.441c-.368.228-.644.368-.822.441l-4.379 2.348-.54-.932m13.898 10.997c-.374-.086-.743-.3-1.104-.675l-1.576-1.625 2.122-1.944 1.589 1.62c.306.3.503.594.608.846.147.484 0 .926-.447 1.343-.405.374-.81.528-1.19.435m-5.992.755l2.6-2.385 1.846 1.871c.594.607 1.202.883 1.84.871.65-.037 1.208-.277 1.699-.742.552-.491.816-1.067.816-1.685-.006-.601-.282-1.166-.791-1.692l-2.65-2.705-6.17 5.666.797.803m7.451 6.621l4.471-7.009 5.287 3.213-.552.834-4.342-2.6-1.343 2.121 3.993 2.422-.515.804-3.999-2.41-1.521 2.372 4.398 2.643-.528.828-5.348-3.219m13.236-1.356l2.686.853c.38.116.656.263.84.429.344.325.435.791.233 1.355-.165.491-.417.81-.81.945-.35.06-.791.06-1.307-.099l-2.533-.809.89-2.675m-2.318 6.886l1.116-3.342 2.503.816c.447.117.773.277.932.441.306.276.399.687.246 1.197l-.374 1.33-.165.638c0 .105 0 .216.018.288l1.319.429.08-.19c-.141-.111-.221-.312-.215-.563l.159-.681.319-1.067c.129-.466.178-.816.061-1.067-.098-.264-.264-.504-.54-.729.417-.075.779-.202 1.085-.43.288-.252.534-.601.681-1.091.3-.889.135-1.632-.528-2.196-.331-.294-.803-.546-1.423-.779l-3.753-1.158-2.625 7.818 1.098.337m11.394-142.282h0" fill="#012a87"/><path d="M68.354 154.826c.969-2.337 9.948-8.709 39.412-5.918 0 0 4.98 3.041 7.906 2.649 1.668-.216-.981.104-3.159-1.705-2.221-1.808-2.692-5.518 2.38-5.421 5.048.129 23.944 1.196 24.3 2.894.331 1.717-9.991 2.435-13.83 2.336-3.858-.104-3.411 1.846.429 1.699 11.997-.429 25.091-4.655 38.921 5.126 1.649 1.189-4.17 1.379-8.673-.534 0 0-12.199.633-17.474-.233 0 0-4.054 3.298-9.335 2.974.687 1.71-1.951 8.094-18.553 3.292-2.742.841-12.732 2.514-11.641-.453-2.631 0-7.243.846-7.93-.651-.662-1.471 8.121-3.698 9.66-5.292 0 0-18.578.178-22.098-1.104 0 0-10.96 2.459-10.316.325" fill="#bc715f"/><path d="M74.31 180.838c.399-.539.558-1.508 1.405-1.484 1.84.49 3.091 3.856 5.354 1.673.803-.178 1.11.915 1.772 1.043.423 1.871 1.925-.38 3.048-.252 2.398-1.067 5.366-1.319 8.206-.791.086 1.833-1.349 3.857-3.153 4.9.037 1.846 1.711 3.03 1.681 4.888-.288.693-.049 1.784-1.098 2.012-1.331-.239-2.644-.38-3.747-1.122-.135-.135-.245-.399-.528-.312-.135.62.834 1.233 1.214 1.865-.669 1.14-1.778.098-2.711.111-.276.656-.012 1.484-.687 1.907-1.178-.036-1.417-1.318-2.14-1.956-.743.803.521 1.281.699 1.919-.453 2.416-.393 4.777-2.809 6.359l-1.619.804c-.441-1.214-.165-3.054-.46-4.324-.957 1.557-1.705 2.919-3.109 4.237-1.643-.54-2.6-2.477-2.962-4.084-.687-1.871-.294-4.109 1.184-5.464-.503-.981-2.227-.755-2.471-2.152-2.582-1.681-4.011 2.943-5.679.539-.54-2.243.104-5.035 1.73-6.709-.362-.919-1.564-.68-2.275-1.208-1.625-1.38-3.969-2.839-3.852-5.33 4.446-1.679 9.764-.447 12.996 2.931" fill="#008830"/><path d="M76.616 180.587c-.104 2.035 1.374.551 2.471 1.784-.858-.337-1.484 1.484-2.324.441l-.528.504c.306.698.902.791.282 1.557-.92.35-1.104-.803-1.533-1.257-.074-.201.141-.582-.196-.717-.521.441-1.067.601-1.784.528-.196-.393-.576-.908-.19-1.208.705-.951 1.797.342 2.33-.325.086-.588-.429-1.307.239-1.711.46.08 1.049-.171 1.239.405m5.496 1.668h0c.055.393-.203.944.312 1.221.669-.363 1.38-.087 1.766.576-.006.355.104.821-.362.993l-1.043-.195c.074-.202-.258-.331-.387-.528-.46-.141-.729.233-1.073.459.258.393.852.607.711 1.11-.614.612-.914-.528-1.589-.24-.46-.177.165-1.134-.558-1.422-.858 0-.288 1.409-1.386.858-.393-.442-.779-1.037-.356-1.533.46-.307 1.239-.228 1.631.171.669-.741.736-3.605 2.336-1.472m-6.854 2.957c.447.645-.098 1.521.473 2.238.896-1.673 1.76.362 2.827.202.325.399.111.951.171 1.404-1.319.35-2.907.767-4.072-.288l-.325.374c.693.645 1.349 1.374.797 2.453-.987.215-2.515.239-3.012-.779-.258-.839.601-1.447-.306-2.121-.656.816-.626 1.908-1.993 1.166a1.63 1.63 0 0 1-.675-2.238c.884-1.392 2.429.043 3.385-.638.135-1.196-.306-2.238.791-2.9.938-.166 1.374.539 1.945 1.127" class="E"/><path d="M79.008 185.94c-.441 2.036-1.975-.104-2.692-.19.957-1.698 1.558.552 2.692.19m4.778 2.214h0c-1.067.3-.902-1.031-1.429-1.552l.411-.374c.387.466.681 1.307 1.019 1.926" class="D"/><path d="M82.338 187.749c.306.705-.693 1.27.159 1.784l.743-.669c.729.216 1.576.345 2.086 1.067.546 1.497-.969 1.46-1.828 1.877l-.852-.036c.203-.417-.368-.594-.509-.882a.81.81 0 0 0-.938.355c.19.951 1.349 1.692.153 2.539-1.012-.066-2.582.325-2.49-1.073-.38-.791 1.031-2.012-.479-2.06-.497 1.067-1.043 2.096-2.336 1.085l.159-1.521c1.239.036 2.705.251 3.262-1.134.356-1.005-.62-1.932.252-2.729 1.263-.288 1.975.558 2.619 1.397" class="E"/><path d="M81.43 190.036c.319.755-.54.804-.944 1.178-.546.043-.926-.171-1.257-.54-.245-.914.435-1.005.957-1.367.608-.252.858.453 1.245.729"/><path d="M80.689 190.526c-.135.178-.325.123-.528.171l-.19-.913c.405.036.932.165.717.741" class="D"/><defs ><path id="B" d="M114.077 296.496c11.445.037 25.52-2.3 32.113-5.709l14.48-1.282.288 17.667c-12.267 6.763-40.59 8.216-46.821 8.168-6.238.049-34.91-1.428-47.232-8.216l.159-17.679 14.512 1.307c6.593 3.392 21.098 5.746 32.53 5.746h-.03"/></defs></svg>