<svg xmlns="http://www.w3.org/2000/svg" xmlns:xlink="http://www.w3.org/1999/xlink" width="1800" height="900" xmlns:v="https://vecta.io/nano"><defs><g id="A"><g id="B"><path d="M1 0H0v.5z" transform="translate(0 -.325)"/><path d="M1 0H0v-.5z" transform="matrix(.809017 -.587785 .587785 .809017 .190983 .262785)"/></g><use xlink:href="#B" transform="rotate(72)"/><use xlink:href="#B" transform="rotate(144)"/><use xlink:href="#B" transform="rotate(216)"/><use xlink:href="#B" transform="rotate(288)"/></g></defs><path fill="#00247d" d="M0 0h1800v900H0z"/><path d="M329.376 777.265c-17.934-.15 168.623-99.431 324.769-226.6 204.644-166.666 645.396-433.509 774.971-476.87 13.543-4.532-27.776 23.073-33.14 32.015-138.341 163.74-27.925 472.724 144.973 628.048 51.99 39.763 49.327 41.851 145.707 45.746v9l-1357.28-11.34zm-11.251 18.06s-13.163 9.403-13.125 16.406c.043 7.773 14.766 18.047 14.766 18.047l1338.745 14.766 24.609-16.406-34.453-21.328-1330.542-11.484z" fill="#fed100"/><g fill="#fff"><use xlink:href="#A" transform="matrix(45 0 0 45 342.9565 112.5812)"/><use xlink:href="#A" transform="matrix(37.5 0 0 37.5 521.20459 267.53)"/><use xlink:href="#A" transform="matrix(45 0 0 45 135 321.8075)"/><use xlink:href="#A" transform="matrix(52.5 0 0 52.5 342.9565 652.5812)"/></g></svg>