<svg xmlns="http://www.w3.org/2000/svg" xmlns:xlink="http://www.w3.org/1999/xlink" width="1200" height="600" xmlns:v="https://vecta.io/nano"><defs><clipPath id="A"><path d="M0,0V150H700V300H600zM0,300V400H300V0H600z"/></clipPath><path id="B" fill="#ffce00" d="M0-50.081l29.437 90.597-77.066-55.992H47.63l-77.066 55.993z"/><use id="C" xlink:href="#B" transform="rotate(36)"/></defs><path fill="#00247d" d="M0 0h1200v600H0z"/><path d="M0,0 600,300M0,300 600,0" stroke="#fff" stroke-width="60"/><path d="M0,0 600,300M0,300 600,0" stroke="#cf142b" stroke-width="40" clip-path="url(#A)"/><path d="M300,0V400M0,150H700" stroke="#fff" stroke-width="100"/><path d="M300,0V400M0,150H700" stroke="#cf142b" stroke-width="60"/><path d="M0 300h600V0h600v600H0z" fill="#5b97b1"/><use xlink:href="#B" x="645.34" y="540.994"/><use xlink:href="#C" x="788.026" y="504.516"/><use xlink:href="#C" x="788.026" y="382.532"/><use xlink:href="#C" x="914.03" y="473.684"/><use xlink:href="#C" x="914.03" y="208.271"/><use xlink:href="#B" x="996.442" y="390.046"/><use xlink:href="#C" x="1019.928" y="172.078"/><use xlink:href="#B" x="1102.836" y="321.554"/><use xlink:href="#B" x="1102.836" y="87.486"/></svg>