<svg xmlns="http://www.w3.org/2000/svg" xmlns:xlink="http://www.w3.org/1999/xlink" width="1200" height="600" xmlns:v="https://vecta.io/nano"><defs><linearGradient id="A" gradientUnits="userSpaceOnUse" x1="103.083" y1="111.276" x2="92.551" y2="107.764" gradientTransform="matrix(0.99614143,0,0,2.2525522,703.84172,-75.047171)"><stop stop-color="red" offset="0"/><stop stop-color="#ff0" offset="1"/></linearGradient><clipPath id="B"><path d="M0,0V150H700V300H600zM600,0H300V350H0V300z"/></clipPath></defs><path fill="#00247d" d="M0 0h1200v600H0z"/><path d="M0,0 600,300M600,0 0,300" stroke="#fff" stroke-width="60"/><path d="M0,0 600,300M600,0 0,300" stroke="#cf142b" stroke-width="40" clip-path="url(#B)"/><path d="M300,0V350M0,150H700" stroke="#fff" stroke-width="100"/><path d="M300,0V350M0,150H700" stroke="#cf142b" stroke-width="60"/><path d="M0 300h600V0h600v600H0z" fill="#00247d"/><path fill="#fff" d="M776.26 144.068l250.401-.929-.465 222.992s8.827 33.913-104.992 85.48c40.882-4.181 85.48-47.85 85.48-47.85s18.118-23.228 26.945-10.22 17.189 19.512 23.693 24.622 11.614 19.047 1.858 29.268-25.087 11.614-29.268-.929c-6.504 3.252-46.457 51.567-128.22 53.89-83.157-1.394-128.685-54.354-128.685-54.354s-11.15 17.654-26.945 3.717c-15.331-18.118-3.717-29.732-3.717-29.732s13.008-7.433 16.724-12.543c6.039-6.969 7.898-16.26 18.118-16.26 12.079.929 16.724 10.685 16.724 10.685s41.811 44.134 86.874 49.709c-101.736-48.783-105.453-78.98-104.988-86.413l.465-221.133z"/><path fill="#006129" stroke="#000" stroke-width="1.887" d="M782.299 150.107l238.787-1.394v214.63c.465 27.874-46.457 56.212-119.858 92.449-75.724-39.024-119.394-62.716-119.858-92.913l.929-212.771z"/><g id="C" fill="#f7c600" stroke="#000"><path fill="none" stroke="#f7c600" stroke-width="1.887" d="M814.794 181.829l14.095-20.701 14.164 20.745"/><g stroke-width=".944"><path d="M831.719 174.09a2.8 2.8 0 0 1-2.799 2.8 2.8 2.8 0 1 1 0-5.6 2.8 2.8 0 0 1 2.799 2.8z"/><path d="M817.444 197.119l21.852.062s.343-2.836-2.282-4.56c11.445-1.574 8.472-11.669 18.058-12.242 1.86.286-5.007 4.292-5.007 4.292s-5.779 4.078-3.147 6.152c2.089 1.646 3.004-1.001 3.291-3.004s9.299-3.291 8.012-9.013c-2.146-4.721-14.736 3.147-14.736 3.147l-8.982-.05c-.56-1.008-3.035-5.051-5.592-5.069-3.033.111-5.169 5.119-5.169 5.119h-20.316s-.697 5.213 9.604 6.214c2.319 3.029 4.117 3.875 6.133 4.659-1.344 1.12-1.722 2.475-1.717 4.292z"/><path d="M819.017 192.684l18.201-.062m-26.537-10.669s1.456 8.513 8.176 10.529"/><path fill="url(#A)" d="M809.561 181.841c.672-3.248 1.904-3.808 3.248-7.952.224-4.032-3.248-3.584-2.24-6.16 1.792-2.8.896-5.488-2.464-7.616.672 3.696-4.368 7.168-4.368 10.192s2.576 2.352 2.24 6.945c.224 2.688-.672 2.016-.896 4.592h4.48z"/><path d="M831.495 161.657c0 1.423-1.153 2.576-2.575 2.576s-2.576-1.153-2.575-2.576 1.153-2.576 2.575-2.576 2.576 1.153 2.575 2.576z"/></g></g><use xlink:href="#C" x="-.772" y="41.304"/><use xlink:href="#C" x="-1.089" y="82.013"/><use xlink:href="#C" x="25.627" y="126.099"/><use xlink:href="#C" x="-4.574" y="162.163"/><use xlink:href="#C" x="-3.782" y="204.773"/><use xlink:href="#C" x="146.28" y=".672"/><use xlink:href="#C" x="144.936" y="41.218"/><use xlink:href="#C" x="143.144" y="82.661"/><use xlink:href="#C" x="145.16" y="123.431"/><use xlink:href="#C" x="144.712" y="164.201"/><use xlink:href="#C" x="144.936" y="205.195"/><g stroke="#000"><g fill="#ffc6b5"><g stroke-width=".944"><path fill="#f7c600" d="M915.843 406.315s5.702 13.147 12.197 5.069 4.119-11.563 4.119-11.563l-14.573-7.92-4.277 9.029 2.534 5.386z"/><path d="M928.357 404.572s.95.159 1.742-1.267-1.742-2.059-2.851-3.643l-1.267 2.535 2.376 2.376zm-32.948-3.485l-12.831 6.97s-6.336 1.267-6.811 0 .158-2.376 3.485-2.534 12.355-8.395 12.355-8.395l3.802 3.96zm.159-227.938l.475 4.594c.158 1.584-2.534 4.91-2.693 4.752s-1.426.158-1.267 1.109 2.059 1.267 2.059 1.267-.792 3.326 0 3.485-2.059 4.277 0 5.386 5.544 2.534 7.128 2.218 0 6.178 0 6.178l-4.435 9.504 24.394-2.534-5.069-8.079s-2.376-1.584-1.742-6.178-.317-25.344-.317-25.344l-17.424-2.376-1.109 6.019zm-4.436 36.115s-7.92 3.643-7.603 13.464c-2.059 9.504-3.168 19.008-3.168 19.008s-9.346 10.613-12.197 14.414-7.128 11.563-8.712 13.622-7.762 8.871-7.603 11.405-1.426 13.781 4.752 15.048c1.584.634 6.653-12.989 6.653-12.989s.317-5.861-1.426-6.97 3.802-4.911 3.802-4.911l12.989-9.662c2.376-1.901 8.87-9.187 8.87-9.187l3.643-43.243z"/><path fill="#fff" d="M900.161 201.82s2.059 5.544 6.653 4.594 9.979-5.227 9.979-5.227 4.277-.158 4.91.475 11.563 11.246 11.246 14.573-5.069 2.376-6.811 4.594-4.594 7.762-3.802 11.88 3.168 9.504 2.851 11.563-2.059 2.693-2.059 3.802 1.426 3.01 1.426 5.069-1.901 5.069-1.584 7.128.475 8.078.475 8.078l-.475 27.878s1.584.95 1.742 2.534 10.771 47.678 10.771 47.678-.475 1.426-1.584 1.267 4.277 7.128 4.435 9.187 5.544 18.216 5.386 20.434-.95 7.128-1.426 7.286 3.485 10.138 2.851 11.722-7.128 1.426-7.128 1.426l-1.742-.317s.158 2.059-1.109 2.218-10.613-.475-10.613-.475-2.693 4.118-4.277 3.96-3.643-3.01-4.119-2.534 1.426 3.168.95 3.96-8.554 2.535-10.138-1.267.95-2.851.475-3.643-4.118-2.851-5.227-2.218 2.851 1.584 2.693 3.168-3.485 3.96-4.752 3.96-4.277-5.861-8.712-5.227-7.286 1.742-7.286 1.742-5.227 2.217-7.445 1.742-3.168-2.218-3.168-3.168 1.584-5.069 1.426-6.336-1.426-2.534-1.426-4.435 3.643-8.395 3.643-8.395l-.158-29.146s-3.326 0-3.485-2.059 5.069-46.094 5.861-48.946 2.851-12.989 2.851-12.989-2.376 1.109-2.534 0 7.128-26.294 7.128-26.294 1.267-12.514 1.267-15.84-.634-7.92-.634-7.92-6.503-2.753-6.653-6.97c-.595-6.709 6.178-10.455 6.97-12.672l3.168-8.87s3.485-6.019 9.187-6.97z"/><path fill="#f7c600" d="M897.785 402.988s-15.365 8.079-17.582 8.712-3.643-2.693-1.426-3.326 5.702-.95 5.702-.95-5.227-4.118-5.069-4.277 7.128-2.693 7.286-2.693 2.218 4.118 3.643 3.801 5.544-3.485 5.544-3.485l1.901 2.217z"/><path d="M919.432 407.423c1.453 1.874 2.021 5.123 5.347 3.222s-1.704-5.429-1.704-5.429l-3.643 2.206z"/><path d="M925.505 407.106s1.584 1.267 3.01-.158-2.851-4.435-2.851-4.435l-2.059 2.376 1.901 2.217zm6.812-190.146c.158 0 5.227 15.682 5.861 19.642s2.693 19.8 1.901 22.018-8.87 12.83-9.821 15.523-6.653 12.989-6.653 12.989-1.426 10.138-2.059 10.613 1.635 2.964 1.426 3.802c-.314.943-4.594 5.386-6.494 4.91s-4.91-2.693-5.069-4.752.158-8.87 1.584-10.613 8.87-19.325 9.346-20.434 6.811-14.89 6.97-17.266-1.971-7.87-4.211-9.886c-4.985-14.673-3.027-23.522 7.221-26.546z"/><path fill="#9c5100" d="M895.092 172.199s3.485.475 5.386-.634 4.119-1.584 5.703.634 2.693 2.059 2.693 2.059-2.376 5.861 0 6.494 3.485.634 3.643 1.426-2.059 2.534-1.426 3.326 1.742 1.743 1.901 2.376-1.426 3.326-.95 3.96 1.901 3.168 2.851 3.168.317 3.96 3.168 3.01 2.693-3.485 2.693-3.485 3.01-.475 3.802-3.168 2.693-3.326 2.693-3.326 3.802-2.059-1.267-5.227c0-22.176-14.573-19.8-14.573-19.8s-1.743-3.96-4.594-3.485-3.01 3.802-5.069 3.485-2.534-1.742-2.693-1.584-1.901 3.326-1.901 4.118-5.544-1.109-5.069 3.01 3.168 3.96 3.01 3.643z"/></g><g fill="none"><g stroke-width=".944"><path d="M920.753 207.997s-14.098 9.029-13.781 12.197m16.949-10.613l-3.326 3.485m7.603.317s-6.97 5.702-5.861 9.346m-27.086-15.524s-2.059 4.277-1.584 5.702 3.96 6.811 4.435 10.138 0 5.702 0 5.702m-6.494-13.622s.634 5.069 1.584 6.019 3.485 5.227 3.802 6.97m-6.653 8.078s4.118 2.059 7.92-5.861m6.177-5.543c-.158 0-3.01 7.762 2.059 10.613s8.87 2.534 11.088 1.742 4.594-2.218 4.594-2.218m-19.958-.633s.317 10.455 15.682 20.75m-15.049-10.93s-.158 9.187 5.861 13.306m-9.029-24.077s-4.594 13.622-8.237 15.048m6.812-5.069s-.158 9.821-1.426 13.306m-1.267 2.376s3.168 3.96 6.653 3.643 4.91-4.435 7.286-3.802 4.594 2.535 10.138 2.059m-7.92 4.119s0 8.078 1.426 8.87.792 8.237.792 8.237M892.4 261.22s-.158 7.603-1.109 10.296-2.851 7.286-2.534 11.246m-6.02 4.435c.792-.317 3.485-2.693 3.485-2.693m1.426 1.743s-6.811 29.146-4.91 46.57m6.494-45.144s-3.485 21.859-1.901 25.978m.158-26.612c.158 0 13.306.95 13.306.95m1.901-1.742s3.643 1.901 8.712 1.584m-10.296 9.029s-.634 37.383-1.584 45.619m21.067-37.066s4.118 32.789 6.494 35.798m-14.414-31.679s2.534 28.987 3.96 31.522m-39.917 10.137s4.91-1.584 9.345-6.336c5.069 6.811 12.831.317 12.831.317s12.038 8.237 17.424-.95c8.237 5.386 12.355-.792 12.355-.792s3.01 4.594 5.227 4.118m-13.147 3.168s6.178 28.987 15.365 37.224m-47.203-40.234s.792 24.235 2.218 41.342m-3.327-13.938s-.792 15.84-1.743 16.949m-7.603 1.583s1.742 6.811 10.454.475 8.87 2.376 9.187 3.326 1.742 7.762 5.069 2.059m6.971-9.344s-1.426 14.097 11.088 3.801 14.573-.158 14.89 3.01m-25.82-230.156s-1.109 6.97 6.336 6.336c-.95 3.802 1.901 5.069 1.901 5.069m5.544 4.277c.159 0 3.326 2.059-.158 4.594m-10.613.95s1.584 1.901 3.326 1.426 4.594 1.742 4.594 1.742 2.376.792 2.693.317m-20.276 2.534s5.386 2.059 8.87-6.494m-18.849-2.535l3.168.158m-38.312 99.737l.248 6.942m-6.758-7.457s4.451 7.443 4.079 11.41"/><path d="M894.142 188.197h2.851l-2.534 1.109m17.206 110.656s3.328-.35 3.223 5.206c2.125-6.902 6.446-7.066 6.446-7.066" stroke-linejoin="round"/></g><path stroke-width="1.699" stroke-linejoin="round" d="M898.102 179.327c.475 0 2.217-.634 2.534-.158s-1.901.792-2.534.158z"/></g></g><g fill="none" stroke-width="1.887"><path fill="#f7c600" d="M900.299 458.579c66.898-1.858 110.102-50.173 109.638-50.638s8.827-13.472 16.26-11.614 18.118 23.693 31.126 28.339c6.504 10.22-1.858 19.512-4.646 21.37s-15.331 6.969-17.189-.465-5.575-6.039-5.575-6.039-59.465 58.071-128.22 55.748c-71.079.465-129.614-55.748-129.614-55.748l-5.11 5.575s-5.575 6.039-8.362 5.575-14.866-8.362-15.795-16.26 7.433-13.008 7.433-13.008 20.441-15.795 22.764-24.157c4.646-4.646 13.472 3.252 13.472 3.252s53.89 61.787 113.819 58.071z"/><path d="M748.855 422.646s5.528-1.474 7.555.829 15.939 15.939 15.939 15.939"/><path d="M761.477 429.095l-5.528 4.146s13.912 2.764 10.779 11.885m285.612-22.941s-2.764-1.474-7.094 1.75-15.294 15.478-15.294 15.478"/><path d="M1039.9 428.727l5.988 4.607s-12.53.829-9.766 12.714"/></g></g><path d="M819.664 437.396c-.362 1.052-1.321-.029-2.117.183-2.095.079-3.834 1.445-5.628 2.378l-18.408 10.731c-.619-.204-.472-.704-.321-1.206l4.925-22.986c.264-1.342.689-3.01-.607-3.987-.551-.376.302-1.139.655-.446l9.41 6.711c-.302.884-.836.264-1.372-.095-1.302-1.254-2.873-.096-2.834 1.488l-3.319 15.165 12.507-7.412c1.473-.655 2.56-2.631 1.028-3.855-.582-.343-1.543-1.279-.584-1.422l6.665 4.753zm6.611 31.986c-.168.572-.466.698-.922.286l-11.074-6.056c.168-.572.466-.698.922-.286.999.681 2.634.938 3.363-.254l4.059-7.254 5.559-10.248c.856-1.222-.099-2.728-1.297-3.251-.405-.217-1.002-.378-.49-.863.246-.304.772.344 1.13.423l10.616 5.806c-.168.572-.466.698-.922.286-1.001-.679-2.642-.94-3.38.245l-4.059 7.254-5.559 10.248c-.855 1.231.097 2.747 1.314 3.26l.74.405zm42.609-9.994l-3.007 8.443c-1.232-.13-.413-1.708-.796-2.539-.44-3.8-3.243-7.348-7.061-8.161-2.919-.795-6 .708-7.714 3.082-2.591 3.536-4.166 7.853-4.387 12.235-.148 2.49.995 5.046 3.169 6.357 1.724 1.136 3.817 1.593 5.864 1.536.722-2.129 1.585-4.215 2.187-6.381.247-1.409-1.21-2.26-2.375-2.583-.182-.409.27-.912.744-.471l11.037 3.931c-.132 1.358-1.667-.109-2.517.433-1.36.522-1.476 2.157-1.992 3.339l-1.345 3.776c-4.946.35-10.043-.697-14.348-3.186-4.185-2.637-7.015-7.729-6.192-12.722.637-4.274 3.301-8.277 7.242-10.165 3.62-1.923 8.037-1.916 11.795-.391 2.056.693 3.83 1.963 5.42 3.41.964 1.3 2.829 1.303 3.62-.175l.654.233m17.954 28.812c-.022.449-.072.86-.61.609l-12.638-1.914c.022-.449.072-.86.61-.609 1.096.224 2.564.205 3.093-.977.535-1.688.642-3.476.95-5.215l2.186-14.567c.268-1.048-.09-2.233-1.175-2.64-.614-.291-1.299-.335-1.959-.445.022-.449.072-.86.61-.609l12.638 1.914c-.022.449-.072.86-.61.609-1.102-.227-2.563-.197-3.111.974-.535 1.688-.642 3.476-.95 5.215l-2.186 14.567c-.266 1.045.094 2.254 1.185 2.649.62.282 1.305.329 1.968.439zm34.118-8.287l-.5 8.962-22.546 1.15c-.138-.549.009-.841.606-.726 1.133.029 2.593-.452 2.737-1.752.1-2.227-.15-4.455-.225-6.681l-.709-13.325c.124-1.321-1.067-2.301-2.32-2.261-.398-.202-1.475.415-1.368-.311-.181-.588.635-.275.98-.387l12.541-.64c.138.549-.009.841-.606.726-1.159-.006-2.665.276-2.986 1.583-.183 1.927.086 3.864.138 5.795l.74 13.877c-.094 1.21.877 2.28 2.13 2.047 1.83-.091 3.7-.014 5.486-.473 2.507-.667 3.874-3.15 4.561-5.47.45-.627.077-2.192 1.071-2.102l.269-.014m17.578-21.693c-.598.011-.334.773-.486 1.173l-2.976 22.432c-.251 1.655-.664 3.588-2.297 4.426-.602.214-.072 1.162.48.635l7.529-2.259c-.095-1.269-1.54-.116-2.35-.339-1.727-.002-1.984-2.1-1.744-3.411l.313-2.656 8.625-2.594 3.31 4.153c.748 1.41-1.069 2.055-2.125 2.327-.493.052-.063 1.084.387.605l11.334-3.397c-.034-1.282-1.677-.081-2.369-.936-2.122-1.594-3.644-3.812-5.4-5.775l-12.232-14.382zm-.062 8.969l6.125 7.313-7.344 2.188 1.219-9.5zm38.631-25.809l3.259 6.061c-1.014.871-1.541-1.149-2.46-1.458-1.506-1.268-3.779-1.507-5.456-.432l-2.048 1.095 9.815 18.212c.512 1.552 2.418 1.843 3.648.968.476-.345.906-.541 1.059.188l-5.204 2.828-6.509 3.5c-.511-.53-.169-.803.406-1.006 1.543-.572 2.135-2.445 1.103-3.762l-9.686-18.042c-1.796.995-4.09 1.892-4.543 4.131-.51 1.409.24 3.135.241 4.334-.553.574-.699-.209-.955-.623l-2.785-5.179 20.115-10.815zm15.251-9.042l6.233 8.263c1.445-.918 2.652-2.56 2.219-4.353.167-1.401-1.836-2.988-1.148-3.97.453-.281.72.767 1.095 1.044l7.118 9.436c-.928 1.057-1.601-1.098-2.584-1.331-1.386-.986-3.333-1.477-4.82-.397-1.11.355-1.058.978-.303 1.662l5.003 6.475c1.091 1.059 2.448-.048 3.372-.783 2.388-1.626 4.485-4.165 4.362-7.211.157-1.329-.679-2.813-.67-3.935.536-.712.685.394.992.756l3.366 6.079-17.544 13.233c-.762-.539-.012-.857.468-1.229 1.638-1.012 1.117-3.078-.088-4.213l-11.226-14.823c-.972-1.318-2.764-.624-3.745.295-.406.577-1.043-.578-.272-.664l16.543-12.478 4.528 6.003c-1.049 1.064-1.978-1.307-3.175-1.431-2.173-1.131-4.758-.219-6.554 1.21l-3.169 2.364"/></svg>