<svg xmlns="http://www.w3.org/2000/svg" width="512" height="512" xmlns:v="https://vecta.io/nano"><style><![CDATA[.B{fill:#161413}.C{fill:#ffdb00}.D{fill:#feca00}.E{fill:#fff}.F{fill:#faf7f2}.G{fill:#ef7b00}]]></style><g fill-rule="evenodd"><path d="M0 0h512v170.7H0V0zm512 341.3V512H0V341.3h512z" fill="#063"/><path d="M0 170.701h512v170.598H0z" class="E"/><path d="M265.083 133.3c31.715.059 57.821 24.957 59.383 56.634h-5.682c-2.311-27.942-25.663-49.444-53.701-49.444s-51.39 21.501-53.701 49.444H205.7c1.466-31.524 27.492-56.634 59.383-56.634zm46.736 56.634h-6.415c0-22.269-18.053-40.322-40.322-40.322s-40.322 18.053-40.322 40.322h-6.598c2.146-24.212 22.429-42.777 46.736-42.777s44.59 18.564 46.736 42.777z" fill="#063" stroke="#000" stroke-width=".367"/><path d="M264.986 138.774c-28.614.049-52.235 22.385-53.884 50.952h7.331c2.142-24.114 22.344-42.601 46.553-42.601s44.411 18.487 46.553 42.601h7.331c-1.649-28.567-25.27-50.902-53.884-50.952z" class="E"/><path d="M270.362 186.166c0 1.466 2.566 2.199 1.833 3.666 0 .916.55 1.466.367 2.199-.367.733-.55 1.833-.183 2.749l-.367 1.833c-.55.733-1.1 1.283-1.1 2.199.367 1.1-.367 2.199-.367 3.482-.367.55-.55 1.283-1.1 1.833l-.367 1.466c.183.183.367.733.733.733.916.183 1.833 0 2.383.916.733.916 1.65 1.833 2.749 2.199a5.5 5.5 0 0 1 2.749 4.215v4.399l-.183 1.65c0 1.283-.183 2.932.55 3.849.183.733.916 1.1.916 1.833.55 1.833 1.283 3.299 1.466 4.949.55 1.466 2.199 1.833 3.116 2.749h.733c.55-.55.183-1.283.733-1.833.55-.733 1.283-1.1 2.199-1.466l2.566-2.566 2.199-1.1c1.1-.733 1.833-1.833 2.932-2.199.916-.367 2.199-.367 3.116 0 1.466.367 2.932-.733 4.399 0 .367 0 .55-.367.55-.55v-16.129c0-.55-.367-.55-.733-.733l-1.65-.55a7.33 7.33 0 0 1-3.666-4.949c0-1.1 0-2.199.367-3.299.367-.916.367-1.833 1.283-2.749l2.016-1.65c1.1-1.283-.916-1.833-.55-3.299h29.325v.55a5.5 5.5 0 0 1-.916 1.833c-.367 1.1 1.1 1.466 1.833 2.016.916.733 1.283 1.833 1.833 2.932 0 .367.367.55.733.367v4.032h-.733c-.183.733-.367 1.283-.733 1.65-1.1.916-1.833 2.199-3.116 2.566-.443.287-.944.474-1.466.55l-.55.55v99.521c.55.733 1.283.916 1.833 1.466 1.1.733 1.833 1.833 2.566 2.749 0 .733.733 1.283.733 2.199l.183 1.1v3.116c-.55 1.466-1.1 2.932-1.833 4.032l-.55 1.1v23.826l1.283 2.016c.183.916.916 1.65.916 2.566.55 1.1-.367 2.199 0 3.666-.55 1.833-1.833 3.299-3.116 4.765-1.1 1.1-2.566 1.466-3.666 2.016-1.283 0-2.016.55-3.116.367h-45.087c-.733 0-1.65 0-2.199.55-.55.916-1.833.55-2.566.916-1.1 0-2.199-.183-3.116-.55-.916-.55-1.283-1.65-1.833-2.383-.55-.55-1.283-.367-1.833-.367-.367 0-.733 0-.916.55a5 5 0 0 1-2.383 2.749c-.916.367-2.199.367-3.116.183-.55 0-1.1-.55-1.65-.733-.367 0-.733-.733-1.1-.916h-45.637c-1.1.183-1.833-.367-3.116-.367-.733-.55-1.833 0-2.566-.733-1.283-.55-2.199-1.833-3.299-2.749l-1.283-2.749a12.83 12.83 0 0 1-.367-3.299c0-1.283.55-2.383 1.1-3.666.55-.55.55-1.466 1.1-2.016V321.61l-2.199-4.032-.367-1.833.367-2.749.367-1.833c.55-.55.733-1.466 1.283-1.833.733-1.283 1.833-1.833 3.116-2.383l.367-1.1v-98.971c-.367-.916-1.466-.916-2.016-1.283-.916-.55-1.833-.916-2.566-1.833l-1.1-1.833-.183-.55v-4.399l.733-1.283 2.749-2.566c.367-.183.367-.55.367-.733-.367-.916-1.283-1.466-1.1-2.383h29.508s.183.183 0 .367l-1.1 1.65v.733l.916.55 2.199 2.383c.367.916.916 1.833.916 2.749s.183 1.833-.183 2.749c-.367 1.466-1.283 2.749-2.566 3.666-.916.367-1.833 1.1-2.749 1.283-.183 0-.55.367-.55.733v56.45c0 .183 0 .367.367.367.874-.175 1.732-.42 2.566-.733 1.1 0 1.65-1.1 2.383-1.833 1.466-.733 2.749-1.833 4.399-2.566.55-.733 1.833-.55 1.833-1.466.367-.55.367-1.1.367-1.833.367-1.1 1.1-2.016 1.1-3.482.367-.733 0-1.833.367-2.749.183-.916 0-1.833.55-2.932-.183-1.1.916-1.65.733-2.749.367-1.283.733-2.566 1.833-3.666l.367-2.932v-2.566a16.68 16.68 0 0 1 .183-3.666c.367-.55 0-1.283.367-1.833.284-1.15.715-2.259 1.283-3.299.55-1.283.183-2.749 0-4.032v-1.283c-.733-1.283-.55-2.749-.55-4.215l.916-2.566c.733-1.833 2.199-2.749 3.666-3.666.916-1.283 1.65-2.383 2.199-3.666.733-1.1 2.199-.916 2.749-2.199 0-.55.367-1.283 0-1.833-.916-.367-.916-1.1-1.283-1.833l.733-2.749 1.466-2.749c0-1.1.916-1.833 1.1-2.932.55-.733 1.283-.916 1.833-1.833.733-.55.916-1.466 1.833-1.833.733-.916 1.65-.916 2.566-1.1l2.749-1.65c1.283-.367 2.932-.55 3.666.916z"/><g class="D"><path d="M268.531 186.767c.183 0 0 .55 0 .733v.733c.183.367.916.183 1.283.55.733.367 1.283 1.1 1.1 1.833 0 .367-.367.55-.55.55-.733 0-1.833 0-2.199-.733l-.367-.55c-.55-.183-.916.733-1.466.55-.55 0-1.283 0-1.65.367-.55 0-.733-.367-1.1 0-.55 0-1.283.916-1.833.367s0-1.283-.55-1.466c0-.367.367-.55.55-.733.916-.367 1.833-.367 2.566-.916.55-.183 1.283-.916 1.833 0 .55.183.367.916.916 1.283.55 0 .55-.733.733-.916 0-.55-.733-.733-.55-1.466.367-.367.916-.367 1.283 0z"/><path d="M267.198 191.816c0 .55 0 1.1-.55 1.466l.183.55c.55 0 .916 0 1.283-.367.367-.55.55-1.283 1.1-1.65l1.1.183c.367.55.55 1.1.367 1.833-.733.55-1.65.55-2.383.55-.55.183-1.1.55-1.833.367-.183-.367-.733-.55-.916-1.1-.55-.55-1.283-.183-2.016-.183h-1.1c-.367-.367-.733-.733-.55-1.283l.55-.183c.367-.367.733-.55 1.283-.367.367 0 .55-.55 1.1-.55.733.183 1.833-.183 2.383.733z"/></g><path d="M227.626 191.2c.183 0 .367 0 .55.367 0 .55-.367.916-.55 1.466H204.35c-.55-.183-.55-.733-.55-1.283a.55.55 0 0 1 .55-.55h23.277zm98.884 0a.55.55 0 0 1 .367.367c0 .55-.55.916-.55 1.283l-.183.183h-22.91c-.183-.183-.733-.733-.733-1.283a.55.55 0 0 1 .367-.55h23.643z" class="C"/><path d="M260.399 191.583c.367.55 0 1.283.183 1.833.367.367.55 1.1 0 1.65 0 1.283-1.466 1.833-2.383 2.383-.733 0-1.1.916-1.833.733-.367 0-.367-.367-.183-.55.733-1.1 2.199-2.016 2.749-3.299 0-.733-.55-.916-.367-1.65 0-.55.55-.916 1.1-1.283l.733.183z" class="D"/><path d="M266.331 195.066c.183.367.55.733 1.1.55.367-.367 1.1-.367 1.466 0 .55.367.367 1.1.367 1.833 0 0 0 .367-.367.367-.733 0-1.833-.733-2.383.183a7.33 7.33 0 0 0-1.1 3.116s-.367 0-.55.367c0 0 0 .367.367.367.183 0 .55 0 .733-.367.367-.916 0-2.016.916-2.749.367.55 1.283 0 1.466.733.367.916-.55 1.65-.916 2.383 0 .55-.55 1.1-.733 1.466-.183.916-.733 1.833-1.65 2.199-1.1 0-2.749.367-3.666-.733-.55-.733-.55-2.016-1.1-2.566-.367-.55 0-1.1 0-1.833-.733-.183-1.283-.55-1.283-1.283 0-1.1 1.1-1.833 1.833-2.566.183 0 .55-.367.733-.183l.55.367.183.916c.55.367 1.283.367 1.833 0 .367 0 .733 0 .733-.367.183-.916-.916-.733-1.283-1.283-.55-.55-1.833 0-1.466-1.283 0-.367.55-.55.916-.733 1.466-.367 2.016 1.283 3.299 1.1z" class="F"/><path d="M227.825 194.2c1.1 0 1.833.733 2.566 1.1l1.283 1.833c.367 1.1 1.1 2.566.367 3.849-.55 1.833-2.383 3.482-4.215 3.666-1.65.367-2.932-.367-4.032-1.1-.55-.55-.733-1.1-1.1-1.833-.183-1.1 0-2.566.55-3.666.367-1.283 1.833-1.283 2.749-1.65h2.566c0-.367-.183-.55-.367-.55h-3.299c-.367.55-1.1.733-1.65 1.1H209.13c-.807-.965-2.052-1.45-3.299-1.283h-1.65s-.183.183 0 .367c1.65 0 3.666 0 4.582 1.283.367.733.367 1.466.55 2.383 0 1.283 0 2.749-1.1 3.666-.55.367-1.1.916-1.833.916s-1.283.367-2.016 0c-1.283-.183-2.749-.733-3.666-1.833l-.733-1.466c-.367-.733-.367-2.199 0-3.116.367-1.283 1.466-2.566 2.566-2.932l1.833-.733h23.46zm99.333 0c1.283.367 2.199 1.833 3.299 2.749.733 1.466.733 3.666-.183 5.132-1.283 1.65-2.749 2.383-4.582 2.566-1.65 0-2.932-.916-4.032-2.199-.367-.916-.55-1.833-.367-2.932l1.1-2.566a.37.37 0 0 0-.183-.367h-15.029c-.367.183 0 .55 0 .733l.916 1.833c.367 1.833 0 3.666-1.65 4.582-.916.55-1.833 1.1-2.932.916-1.1-.367-2.199-.367-2.932-1.283a4.95 4.95 0 0 1-2.383-4.582c0-1.283.916-2.199 1.833-3.299.733-.367 1.466-1.283 2.383-1.283h24.56z" class="C"/><path d="M306.048 196.067l-.183.183c-1.833 0-3.666-.367-4.765 1.283 0 .55-.367 1.65.367 2.016h.733c.183-.733.367-1.466.916-1.833.916-.183 2.016 0 2.749.733.733.55.55 1.65.55 2.383 0 .55-.55 1.1-.916 1.466-1.1.55-2.749.733-3.666 0l-1.65-1.1-.183-1.833c0-1.1.55-2.199 1.65-2.932s2.566-.733 3.849-.733l.55.183zm21.95.266c.733.916 1.466 1.833 1.283 3.116 0 .55 0 1.1-.367 1.65-.733 1.1-1.833 1.466-2.749 1.833-1.283 0-2.383-.367-3.116-1.466-.55-.733-.55-2.016 0-2.932.55-.183 1.1-.916 1.65-.733.733 0 1.466-.183 1.833.367.733.367.367 1.65 1.283 1.283.916 0 .367-.916.55-1.466-.367-.55-1.1-1.466-1.833-1.65h-2.749v-.367c0-.183.367 0 .733 0 1.1-.183 2.566-.367 3.482.183zM203.216 196c0 .916-.55 1.283-.733 1.65-.327.413-.461.948-.367 1.466a1.1 1.1 0 0 0 .55.55c.367 0 .733 0 .733-.367.183-.55.367-1.283 1.1-1.466.733 0 1.466 0 1.833.367.733.55 1.65 1.1 1.466 2.199v.916c-.916 1.283-2.199 1.833-3.666 1.65-1.02-.242-1.887-.909-2.383-1.833-.55-.55-.55-1.466-.55-2.383.367-1.1.916-2.016 1.833-2.749zm25.183 2.766c0 .183 0 .733.367.916l.733-.183c.367-.367.183-1.1.367-1.466 0 0 .183-.183.367 0 .183.916.55 1.833 0 2.932l-1.283 1.466c-1.1.55-2.749.733-3.666 0-1.1-.55-1.283-1.466-1.283-2.199s.183-1.65 1.1-1.833c.733-.916 2.566-1.1 3.299.183z" class="B"/><path d="M310.783 197.967v.183l-1.283 1.283h-.183c-.183-.55-.916-.916-.55-1.466.55-.183 1.466-.367 2.016 0zm5.832-.167s.367.183.183.367c-.733.733-1.283 1.833-2.016 2.383h-.183l-2.199-2.383.367-.367h3.666zm3.984.35c0 .55-.183.916-.55 1.1h-.367l-1.283-1.1.367-.55c.733.183 1.466 0 1.833.55zm-108.6-.15s.183.183 0 .367c-.367.183-.916 1.466-1.833 1.1l-.367-1.1s0-.367.367-.367h1.833zm6.283 0v.183c-.55.55-1.466 1.1-1.65 1.833-.183.367-.367.733-.733.55l-1.283-1.466c-.367-.367-.916-.55-.916-.916V198h4.582zm3.534 0c.367.183 0 .733 0 .916l-.55.55c-.55 0-1.1-.733-1.466-1.466h0 2.016zm83.983 2.033c-.183.367 0 1.283-.733 1.466-.55 0-.916.55-1.466.367-.367 0-.733-.367-.916-.733s.367-.733.55-1.1c0-.55-.183-1.283.367-1.466.916-.367 1.833.55 2.199 1.283zm-98.967-.633c.183.55.367 1.283 0 1.833-.367.733-1.1.733-2.016.733-.367 0-.916-.367-.916-.733 0-.733.916-1.1.733-1.833 0-.367 0-.733.367-.733.733-.367 1.283.367 1.833.733zm20.267-.633c.55.55.183 1.283.733 1.833l.183.733c-.367.367-.916.55-1.466.55s-1.466-.367-1.65-1.283c0-.733.367-1.466.916-1.833.367-.183.916-.367 1.283 0zm98.784-.184c.55.55 0 1.283.367 1.833.367 0 .367.367.367.733 0 .55-.733.55-1.283.733-.55 0-1.1-.183-1.466-.733-.367-.916-.367-1.833 0-2.383.55-.367 1.466-.367 1.833 0zM214.366 200.6c0 .367-.183.55-.367.55h-1.833l-.367-.183c0-.367 0-.733.367-.916s.916-.55 1.466-.367l.733.916zm5.7.2l-.183.55h-2.016l-.367-.367c0-.55.733-1.1 1.1-1.283.733 0 1.1.55 1.466 1.1zm93 .083l-.183.367c-.733.183-1.833.367-2.383-.367-.032-.392.189-.76.55-.916.367 0 .733-.367 1.1-.183s.733.55.916 1.1zm5.7-.1s0 .367-.367.367h-2.016a.55.55 0 0 1 0-.55c0-.367.55-1.1 1.1-.916l1.1 1.1z" class="C"/><path d="M258.483 201.283c0 .733.55 1.466.183 2.199 0 .916 0 2.016-.916 2.749-.55.183-.916 0-1.283-.183-.183-.55-.367-.55-.183-.916.916-1.1.55-2.932.733-4.582l.367-.55c.55 0 .916.733 1.1 1.283z" class="D"/><path d="M265.316 203.216c0 .183 0 .367-.367.55-.55 0-1.1 0-1.466-.55-.183-.183-.183-.55.367-.55l1.1-.367.367.916z" class="B"/><path d="M319.446 203.1c.916.183 1.466 1.283 2.383 1.833.733.183 1.283.733 2.016 1.1v48.936l-.367.367-1.283-.367c-1.1-.55-2.749-.55-4.215-.55-.733 0-1.283 1.1-2.016 1.466-1.466.916-.733 2.749-2.383 3.299-.733.55-1.283.916-2.016 1.1-1.1.55-2.199.916-3.116 1.65-.367 0-.733.367-1.1 0 .367-1.283 1.466-2.199 1.833-3.666v-4.215c-.183-.733 0-1.1.55-1.65l.367-1.466c.367-1.283 1.833-2.016 1.833-3.666 0-.55.367-1.1 0-1.833 0-.733-.55-1.833-.367-2.749 0-.733.916-1.1.733-1.833.367-1.466-.367-2.383-.733-3.482-.733-.916-1.283-2.016-.733-3.116l-.367-2.566c-.55-1.1-1.833-1.833-2.566-2.566-.916-.55-.55-1.833-1.65-2.566-.304-.292-.499-.681-.55-1.1v-18.695c0-.916 1.1-1.1 1.65-1.65 1.1-.183 1.833-1.833 2.932-2.016h9.164zm-98.8.4c1.1.367 1.833 1.833 2.749 2.016.55.367 1.466.367 1.833 1.283v57.733c-.367.55-.916.733-1.466.916-1.466.55-2.932 1.1-4.399 1.283-.916 0-1.283.733-1.833.916-1.833 1.283-3.482 3.116-4.949 4.582l-1.466 1.833c0 .916-.733 1.466-.916 2.199-.55.55-.55 1.466-1.1 1.833 0 .733-.367 1.283-.733 1.833l-.916 2.566s0 .183-.367 0a1.1 1.1 0 0 1-.183-.55v-75.145c.183-.55.916-.916 1.466-1.1 1.283-.55 1.833-2.199 3.299-2.016h9.164zm40.403 2.566c1.1.55 2.749.367 4.032.183.55.367.367.916.367 1.283-.367.55-.733 1.1-.55 1.833l.733.55.733-.367c.733.367 1.833-.367 2.199.733v2.199c-.367 1.1-1.283 1.283-2.199 1.466-.733-.183-1.466 0-2.199-.367-1.466.367-2.932-.183-4.399-.733-.55-.733-1.833-.733-2.016-1.833 0-.367.183-.367.367-.55.733 0 1.466-.55 2.199 0 .367 0 .916 0 1.283-.367l-.55-.55c-.733 0-1.65.367-2.383 0-.916 0-1.833 0-2.383-.916-.183-.733.733-1.283 1.283-1.65.733 0 1.466 1.466 2.016 0 0-.55-.367-1.283-.183-2.016 0 0 0-.367.367-.367.733 0 .55 1.1 1.283 1.466z" class="F"/><path d="M255.233 206.55c0 .733-.367 1.466 0 2.016l-.367.367c-.367 0-.733 0-1.1-.367-.367-.55 0-1.283.367-1.833 0-.367.916-.733 1.1 0zm12.65 1.4v.916c-.55.367-1.283 0-1.833.367l-.55-.55c0-.55.55-1.1 1.1-1.283.55 0 1.1 0 1.283.55zm3.366.666l.916.916c0 .55 0 1.283.367 1.833.367 1.833-1.65 1.833-2.566 2.566-.367 0-.916.55-1.283 0 0-.55.733-.916 1.1-1.283.55-1.466-.183-3.116-.183-4.949 0-.183.55 0 .733 0 .378.137.7.395.916.733zM253.1 210c.367.55.183.916.367 1.283.367.55.55.916.55 1.466 0 .367-.367.367-.55.183-.916-.367-1.466-1.1-1.466-2.016 0-.367.183-.916.55-.916h.55zm4.166 1.833l.367.55v.367c-1.466.183-2.383-.733-2.932-1.466v-.916c.115-.203.319-.339.55-.367 1.1 0 1.1 1.466 1.833 1.833z" class="G"/><path d="M265.233 211.167v.55c0 .367-.367.367-.733.55-.55 0-.916-.367-1.1-.733 0-.183 0-.367.367-.55.367 0 1.1-.183 1.466.183z" class="B"/><path d="M275.581 212.1c.367.916.733 1.833.733 2.749-.367.55-1.466.916-1.466 1.833-.55.55-1.1-.367-1.833-.367l-.55.367c0 .55.55.55.916.916v.55c-.55.55-1.466.55-2.199.733a3.57 3.57 0 0 1-2.749 0c-.367-.733-.733-1.466-.55-2.016.183-.367.367-.55.733-.55 1.1 0 1.833 1.833 2.932.55 0-.55-.916-.733-.55-1.466.733-.733 1.833-1.283 2.383-2.383.367-.55 0-1.833.733-2.016.55 0 1.1.733 1.466 1.1z" class="G"/><path d="M252.261 214.349c.733.183 1.1 1.283 1.833 1.283a1.65 1.65 0 0 1 1.833.733c.183 1.466-2.383 2.016-1.283 3.666v.55l-1.466 1.833c.55.55 0 1.466 0 2.199v1.833c-.183.916-.733 1.833-.733 2.749s-.733 1.65-.916 2.566l-.916 2.383c-.733 1.65-.733 3.482-.916 5.315 0 .916-.55 1.65-.55 2.566-.367 1.283.367 2.932-.55 3.849-.183 1.1-.733 1.833-1.1 2.932-.733 1.1-.733 2.383-1.466 3.299l-1.466 2.566c-.733.733-.733 1.833-1.466 2.566l-.916 3.299c-.367.367-.367 1.1-.916 1.283-1.283 0-2.199 1.283-3.116 2.199a12.83 12.83 0 0 1-1.833.55l-.367-.733c.55-.367 1.283-.55 1.283-1.466l-.916-.183c-.916 0-1.65.733-2.199 1.283-.55.367-1.1.55-1.833.55-.183 0 0-.183 0-.367 1.1-1.1 2.016-2.199 3.299-2.932.55-.55 1.466-.55 2.199-1.1.733 0 1.466-.916 1.833-1.65.367-.367 0-1.1.733-1.283l.183-.183c.733-1.65.733-3.482 1.466-4.949 0-1.283.367-2.566.733-3.666 0-1.1.733-1.833.55-3.116l1.65-4.949.916-.916c.55 0 1.283 0 1.833-.55.367-.733 1.1-1.283 1.1-2.383l-.367-.183c-.55 0-.55.733-.733 1.283-.367.183-.733.916-1.283.55s0-1.283-.367-1.833v-4.949c.55-1.283 1.1-2.383 1.283-3.666.55-1.283 1.283-2.566 1.466-4.032v-1.1c-1.466-.733-.367-2.383-1.1-3.482-.367-.733-.183-1.833-.183-2.749.55-1.466.55-3.482 2.199-4.215 1.466.183 1.466 1.833 2.566 2.749z" class="F"/><path d="M257.632 213.867c.733-.367 1.65.367 2.566.733.367 0 .916 0 1.1.367 0 .733-.916.367-1.283.55-.916.183-2.199.367-2.932-.367-.55-.367-2.383.367-2.199-1.1l.367-.55c.733 0 1.466.55 2.383.183zm6.784 2.783c0 .55.367 1.283-.367 1.833l-.733-.183c-.55-.55-.55-1.466-.916-2.199 0-.367 0-.55.367-.733 0-.367.367-.367.733-.367.55.367.733 1.1.916 1.65zm2.1-.783l-.183.733a.73.73 0 0 1-.733-.367c0-.367 0-.733.367-.733a.55.55 0 0 1 .55.367zm-5.634.9c0 .367-.367.733 0 .916.183.367.916.183 1.1.733 0 .733.55 1.466 0 2.016-.733.55-1.466.183-2.199.367-.55-.367-1.466-.367-1.466-1.283l-.183-.733c-.55-.55-1.283.367-1.833-.55 0 0 .55-.367.733-.55.367-.367 1.1-.183 1.466-.367.55-.367 1.466-.916 2.199-.733v.183zm5.734 1.1c0 .367-.183.55-.367.55l-.55-.183c0-.367 0-.55.367-.733.183 0 .367 0 .55.367z" class="G"/><path d="M267.929 219.733v1.833c.55.733 1.65 1.283 1.1 2.199-.55.733-1.283 1.1-1.1 1.833.55 1.283 0 2.932.367 4.215 0 .55-.367 1.1.183 1.283a.55.55 0 0 0 .367.367c.183 0 .367 0 .367-.367 0-.916-.55-1.65-.367-2.566.367-.733 0-1.65 0-2.199-.367-.367 0-.916 0-1.283.55-.916 1.833-1.1 2.749-1.1.733 0 1.466 0 2.016-.367.55 0 1.466-.183 1.65.55 0 .733-.367 1.283-.55 2.016-.367 1.466-.183 3.116.183 4.399l.183 2.749c0 1.1.183 1.833.916 2.749 0 .733 0 1.466.367 2.199.367 1.283-.367 2.199-.55 3.482-.733 1.1-1.833 2.566-3.116 2.932-.916.916-2.199.367-3.299.367-1.833-.733-3.666-1.1-5.498-2.383l-1.833-.367-2.383-1.283-1.466-.916c-.55-.55-1.466-1.1-1.283-2.016.367-1.1 1.283-1.833.733-3.116l-1.283-2.383-.55-1.283-1.1-1.833c-.733-.733-.733-2.199-.367-3.299 0-.367.183-.916.55-1.1h1.1c1.466-.367 3.116 0 4.582-.183 1.1 0 2.383.55 3.299 0l1.833-.733c.367-.367.916-.55.916-1.1l-.55-.367c-.733.367-.916 1.466-1.833 1.283h-.733c-.55.55-1.466.55-2.199.55v-.916c.55-.916 1.283-1.466 1.65-2.383.367-.367.183-.916.733-1.283l2.199-.916c.55 0 1.65-.183 1.833.55z" class="F"/><path d="M275.633 220.433l-.183.55-.55-.183c0-.367 0-.733.367-1.1.367 0 .367.55.367.733zm-18.383-.166a1.1 1.1 0 0 1 0 .733c.183.367.183.733-.367.733-.367 0-.916.183-1.1-.367s.183-1.1.733-1.466c.367 0 .55 0 .733.367zm12.9.516l-.183.367h-.367l.183-.55.367.183zm2.4.3l-.183.55s-.367 0-.367-.367l.183-.367.367.183zm-12.434 1.017c.183.183 0 .55 0 .733-.367.733-1.283.55-2.016.733-.55 0-.916 0-1.1-.55 0-.183.367-.733.733-1.1.55-.367 1.283-.916 1.833-.733l.55.916zm14.934.25c0 .183 0 .55-.367.733H273.4c0-.55 0-.916.367-1.1.183-.367 1.1-.367 1.283 0zm-3.8.533l-.183.367s-.367 0-.367-.55h.55zm-16 .484l-.183.55-.183-.183c-.183-.183-.183-.733-.183-.733l.367.367z" class="G"/><path d="M277.699 227.233c.916 1.1 1.1 2.749.916 4.399.367.733 1.1 1.1 1.833 1.283l2.016 2.016c.183.183.55.55.367.916-.55.55-.916 1.1-.916 1.833-.733.367-.733 1.833-1.833 1.466-.733-.183-1.283-1.1-1.833-1.283-.733-.733-.55-1.833-1.283-2.383l-.367-2.383c-.367-1.283 0-2.932-.733-4.032-.367-.916 0-1.833.183-2.566 0-.367 0-.916.55-1.1.916 0 .733 1.1 1.1 1.833z" class="F"/><path d="M297.565 225.5c-.321.42-.391.98-.183 1.466h.55c.183 0 0-.367.55-.55l-.367.733v.916s0 .183.183 0c.55-.367.733-1.1 1.466-1.466l1.466-.733c.367.733-.367 1.283-.55 1.833a5.5 5.5 0 0 0-1.283 2.566c-.367.367-.733.916-1.283 1.1l.367-1.466c-.367-.55 0-1.833-1.1-1.833-.55-.367-.916.183-1.466 0-.367 0-.367.55-.916.55a5.5 5.5 0 0 0-.733 1.833l-.55-.183v-.183c-.55-1.1-.183-2.016-.183-2.932-.367 0-.367.733-.733.916-.183-.183 0-.55 0-.733 0-.916.916-.55 1.466-1.1l.733-.183-.733 1.833c0 .183.183.183.367 0 .733-.916 1.283-2.199 2.566-2.383h.367z" class="D"/><path d="M266.232 225.85s.183.367 0 .367c0 .367-.55.367-.916.733-.733.55-1.833 1.283-2.016 2.383-.55.55 0 1.466-.55 2.016l-.367-.367c-.183-1.833 1.1-3.482 2.566-4.765.367 0 .733-.916 1.283-.367z" class="B"/><g class="D"><path d="M295.4 225.6zm6.983 2.683c-.183 1.1-1.283 1.833-1.833 2.932 0 0-.183.183-.367 0v-.55a5.13 5.13 0 0 1 1.833-2.566l.367.183zm-10.917.884c.183.733-.55 1.1-.55 1.833-.367 0 .183.733-.367.916-.183-.367 0-.916-.367-1.466-.183-.55.183-.916.367-1.466a.55.55 0 0 1 .367 0c.183-.183.367 0 .55.183zm13.412-.084c0 .367-.55.367-.733.733-.916.733-.733 1.833-.916 2.932l-1.466.733.183.183c.367 0 .916 0 1.283.367.367 0 1.283-.367 1.466.367.183.367.367.916.733.916.916 0 .733-1.1 1.466-1.283s1.65-.916 2.383-.367v.733c-.183.733-.367 1.466-1.1 1.833-.55.367-1.1.916-1.833 1.1-.55.367-1.65.916-1.283 1.833l-.183 4.949c0 .55-.55 1.283-1.283 1.466-.367.183-.916 0-1.283.55 0 .55.733.916.55 1.466 0 .733-.916 1.283-.367 2.016v1.283c-.183.367-.733.367-.916.55-.916 1.1-2.199 1.833-3.482 2.199-.733 0-1.466-.733-2.383-.367-.55.367-.916-.183-1.466 0-.55 0-1.1 0-1.65-.367-.183-.367-.916-.55-.733-1.283l-.367-.733c-.183-.55-.733-1.1-.55-1.833-.183-.55-.916-1.1-.55-1.833 0-.55.733-.916.55-1.466-.367-.367-1.283-.367-1.283-1.1s-.733-1.1-.733-1.833v-2.383c0-.733-.733-.733-.916-1.283 0-.733 1.1-1.466 0-1.833 0-.367-.55 0-.733-.183-.55-.55-1.283-.916-1.1-1.833 0-.367.916-.55.55-1.283.367-.55.55-1.1 1.1-1.466.733 0 1.65-.183 2.016.367.367 1.1 1.466 1.283 2.199 1.833l1.283.55.183-.183c0-.916-1.65-.916-1.1-1.833 0-.367 0-.916.367-1.283.55.183.733 1.1 1.283.916.55-.55.916-1.283 1.833-1.1.55.183-.183.733 0 1.1 0 .55 0 1.1.367 1.466l.55.367c.367-.367 0-.733 0-1.1.55-.733 1.466-1.1 2.016-1.466h.916l-.367.733c-.183.367-.367 1.1 0 1.466v.183c.367 0 .183-.367.367-.55.916-1.283 2.749-2.566 3.299-4.215.367-.55.733-.733 1.283-.916l.55.183z"/><path d="M289.899 229.667c0 .367-.733.55-.733.916v1.1h-.183c-.55 0 0-.916-.733-.55l-1.283 1.1h-.367l.367-1.466c.367-.183.55-.55 1.1-.733.183.55.55 0 .733 0 .367 0 .733-.733 1.1-.367zm15.401-.067v.183l-1.1.733c.367-.367.55-.916 1.1-.916zm1.366.9c0 .367-.55.55-.55.916l-.916 1.283v.183c.367-.367.733-.733 1.1-.733l1.65-1.1.367.367-.55.916-1.833.55c-.367.367-.916.916-1.466.916-.183-.183-.55-.55-.367-.916.733-1.1 1.466-2.016 2.383-2.383h.183z"/></g><path d="M254.463 232.5c.367.916.916 1.65 1.1 2.566.367.733.55 1.833.183 2.566l-1.833 1.833c-.183.367-.367.916-.183 1.466-.55 1.65-2.566 2.566-2.566 4.399 0 .367-.367.55-.55.733 0 1.283 0 2.566-.733 3.666v5.498l.55.55c.183 0 .733 0 .733.367l.55 1.1c.55 1.283.733 2.566 1.466 3.666v5.315c.733.916.55 2.199 1.1 3.299l.733 2.566v.55c-.733.367-1.1-.183-1.65-.55a6.78 6.78 0 0 1-.916-1.833c-.916-.733-1.833-1.833-2.932-2.383-.55-.367-1.1-1.1-1.833-.916-.916 0-1.466-.733-2.199-1.1-1.1-1.283-2.566-1.65-4.032-1.833-.155-.084-.282-.212-.367-.367-.183-.183 0-.55.183-.55.55-.183.916-.916 1.466-1.1.733-.55.733-1.466.916-2.016 0-1.283.367-2.566.916-3.482.367-.916 1.65-1.466 1.65-2.566.733-.916.916-1.833 1.833-2.749 0-.916.916-1.833.916-2.749.55-1.283 1.283-2.383 1.65-3.666 0-1.65.55-3.116.733-4.582v-4.032l1.466-4.399c.115-.203.319-.339.55-.367.733 0 .916.733 1.1 1.1z" class="E"/><path d="M272.897 234c.367 0 .367 0 .55.367l-.367.367h-6.781l-1.466.916-.183.55h-.55c0-.733 0-1.1.367-1.283.916 0 1.466-.733 2.199-.733l3.299-.183h2.932z" class="B"/><path d="M285.932 234.767l-1.1 1.466v.55c.733.733-.733 1.283-.183 2.199 0 .55.55.916 1.1 1.283 0 .367.367.733 0 1.1-.367.55-.367 1.466-1.1 1.466-.733.367-1.1.916-1.283 1.833h0v-.183c-.367-.916 0-1.466 0-2.199l.55-1.1c0-.367-.55-.367-.55-.733l.183-.916v-2.749l.916-1.283 1.283-1.1s.183 0 0 .367z" class="D"/><path d="M264.85 237.267c0 .367-.55.367-.733.733l-.183 2.566c0 .183 0 .55.367.733v.183a.55.55 0 0 1-.733-.367c-.367-.916 0-1.833 0-2.749-.183-.55-.183-.916.367-1.1.367 0 .733-.367.916 0z" class="B"/><path d="M286.966 237.75c0 .733 0 1.283-.55 1.833h-.916c0-.916.183-1.466.367-2.016.367.183.916-.367 1.1.183z" class="D"/><path d="M271.333 237.867a.92.92 0 0 1-.183.733c-.55 0-1.283.183-1.65-.367 0 0-.183-.367 0-.367h.916c.55-.183.916-.367.916-.183zm25.465.2c0 .55 0 1.283.55 1.833.916.55 1.833-.367 2.566-.55l2.383-1.1c.367 0 1.1-.367 1.466 0v.55c-.183.367-.55 0-1.1 0l-1.466 1.466c.183.367.367 1.283 0 1.65l-.916.183h-.55c-.367 0-.367.55-.733.55-.367-.367 0-.733 0-1.1-.55 0-.367.55-.55.916v.916c0 .733.367 1.283.183 1.833 0 0 0 .183-.183 0-.183 0 0-.55-.367-.733l-.55-1.283.367-2.566-1.466-.733c-.55.367-1.1.55-1.833.367l.367.733c.367.733 0 1.833 0 2.749 0 0 0 .183 0 0-.55-.367-.183-1.466-.916-1.833 0 0 0 .367-.367.367s0-.55-.367-.733c-.55 0-1.1.183-1.466-.183 0-.183-.367-.55-.183-.916l.367-.55c-.55-.733-1.65-.367-2.383-.55-.183 0-.367 0-.55-.367l.367-.367h2.383l2.932 1.283.916-.183c.367-.55.367-1.1.367-1.833 0-.183.55 0 .733 0z" class="B"/><path d="M309.883 238.9c1.1.733.916 1.833.916 2.749 0 .733-.733 1.283-.55 2.016.55.916.55 1.833.733 2.932 0 .916-.916 1.1-1.466 1.65l.367-1.833c-.367-.367 0-1.283-.367-1.833-.367-.367-.367-1.283-.183-1.833v-1.466l-1.283-1.65c-.55-.367-.55-.733-.55-1.283.367-.367 1.1 0 1.283-.55.733 0 .733.733 1.1 1.1zm-2.9.533c.367.733.916 1.1.916 1.833.367.183.55 0 .733.367.183.183.55.367.367.733 0 .183-.367.367-.55.183-.183 0-.367-.367-.55-.183-.367.367 0 .916-.55 1.1l-.367-.183c0-.55.367-1.1 0-1.65-.183-.916-1.1-1.466-1.283-2.199 0-.367 0-.733.55-.733.367 0 .55.55.733.733z" class="D"/><path d="M256.983 240.533c1.1.55 1.833 1.833 2.932 1.833.916.733 2.016.916 3.116 1.283l1.833 1.1c.916.183 1.833.183 2.932.733l1.833.55h1.65c.367 0 .916 0 1.283-.367l.183.183c0 .55 0 .916-.367 1.283-.733.367-1.466 0-2.199.55-.183.367-.733.183-1.1.183-.916-.55-1.833-.55-2.566-1.1-.733 0-1.283-.367-1.833-.733-1.283-.367-2.749-.55-3.482-1.833-.55-.367-1.283 0-1.833-.183-1.283-.55-2.383-.916-3.299-1.833-.733-.367-1.466-.916-1.466-1.833.093-.256.294-.457.55-.55.733 0 1.283.55 1.833.733z" class="G"/><path d="M280.099 241.266c0 .55-.55.733-.733 1.283 0 .183 0 .55-.367.733h-.55c-.55-.916-.183-2.016-.55-2.566l.183-.367c.733-.55 1.283.367 1.833.733v.183zm7.616.034c0 1.466-1.466 2.383-1.65 4.032 0 .733 0 1.283-.367 1.833h-1.1l-.55 1.466c-.55 0-.183-.733-.55-1.1-.102-.234-.102-.499 0-.733l.367-1.1c0-.367 0-.733.55-.916.367 0 .916.733 1.1 0l.183-1.466c.55-.733 1.1-1.283.916-2.199.183-.367.183-.733.55-.733s.55.733.55 1.1zm-5.083.383v.367c-.733 1.1-1.65 2.016-2.016 3.116l-.55.183c-.367 0-.183-.733 0-.916l1.1-2.016c.183-.367.733-.916 1.1-.916v.183z" class="D"/><path d="M277.293 242.667c0 .733.367 1.466 0 2.199-.55.55-.55 1.466-1.1 2.199-.183.733-1.1 1.283-.55 2.016 0 .367.367.183.733 0 .55-.367.55-1.466 1.466-1.466.55.733 0 1.466-.367 2.199 0 .55-.55.733-.733 1.283-.916 2.199-.55 4.949-2.749 6.598-.55.733-1.833.733-2.016 1.833l-.916.916c-.55.183-1.1.367-1.466.916s-.183 1.466-1.1 1.466v-.367l-.183-4.215-.55-.733h-.55l-.183.367-.183 8.064c-.183 1.466-.183 2.932-.733 4.215 0 .916-.367 1.833-.733 2.566a.55.55 0 0 1-.733.183c-.55-.367-.55-1.1-.733-1.833 0-.916-.55-1.833-.733-2.932a7.33 7.33 0 0 0-.733-1.466c-.733-1.833-1.833-3.849-1.466-6.232v-2.383c-.183-.183-.55-.367-.733-.183-.367.367-.183 1.1-.183 1.65 0 1.1-.55 1.833-.733 2.749l-.55.183c-.55-.55-.183-1.466-.367-2.199.183-.916.183-2.199-.55-2.932l-.55-2.749c.55-1.283.367-2.932.55-4.399l-.55-.55c-.916 0-.55.916-.916 1.466-.733 1.1-.916 2.749-.733 4.032 0 .733.367 1.65.183 2.383l-.733.183c-.55-.367-.183-1.283-.183-1.833s0-1.1-.367-1.283c-.183 0-.367 0-.55.367l-.183 1.466h-.183c-.916-.55-.55-1.833-1.466-2.383v-2.749a7.33 7.33 0 0 0 0-2.383c.367-1.833-.183-3.666.916-4.949h.183c-.183 1.466 0 3.116-.367 4.582 0 .733-.55 1.1-.367 1.833v2.016l.367.55.367-.367c.55-1.1.367-2.566.733-3.666 0-.916.183-1.833-.183-2.566-.367-.916 0-2.199 0-3.299h.367c1.466.55 2.749 1.466 4.032 1.833.55.55 1.283.55 1.833.733.55.55 1.833.367 1.65 1.466-.55.733-.367 1.65-.733 2.383-.367 1.1-.367 2.749 0 4.032-.183.733.733 1.466 0 2.199l.55.55.367-.183v-1.833l.367-1.466c.183-.916.733-1.833.55-2.749.367-.733.733-1.466.733-2.199.55-.55 1.466-.367 2.016-.183.733.733 1.833.367 2.749 1.1.55 0 1.1.367 1.65 0 .367 0 .367-.55.733-.733.916 0 1.833-.55 2.749-.733l.55-.916 2.199-2.383c0-.733 0-1.283.733-1.65l.367.367z" class="G"/><path d="M308.632 243.833a.73.73 0 0 1 .183.733c0 .367-.55.55-.55.733-.367 1.1 1.1 2.199 0 2.932-.367 0-.55-.55-1.1-.367-.55.55.183 1.283.367 1.833 0 .733.916.367 1.1.916.183 1.1-.55 1.833-.916 2.566l-.55.733c-.733-.367-1.833.367-1.833-.55.351-1.041.216-2.185-.367-3.116h-.183c-.55.367.183.916 0 1.65l-.55 1.1c-.367.183-.916.55-1.283 0-.55.183-.55-.183-.55-.733 0 0 0-.367.367-.55.367 0 .733 0 .733-.367.183-.733 0-1.466.733-1.833.55-.55-.183-1.283.367-1.833.367 0 .55.55.733.367.55-.55.367-1.1.55-1.833 0-.55-.367-1.466 0-2.199 0 0 .367-.367.367 0l.55.367c1.1.55 1.1-1.283 1.833-.55zm-20.317.734c-.367.733.55 1.283.367 2.199-.55.55-.733 1.283-1.1 1.833 0 .916-.916 1.283-.916 2.016-.367.55-.183 1.1-.367 1.833-.367 1.1.183 2.199 0 3.666 0 .367-.55.55-.733 1.1-.367.55-.55 1.283-1.283 1.466-.367 0-.733 0-.916-.367-.367-.733.55-1.1.916-1.833 0-.367.55-.367.733-.733 0-.733.55-1.1.367-1.833.367-.55.55-1.283.367-1.833-.916-.55-.367-1.466-.916-2.016 0-.733 0-1.65.55-1.833.733 0 .733-.916 1.1-1.283.183-1.1.367-2.016 1.283-2.749 0 0 .367 0 .367.367zm-6.082.816c0 .916-.55 1.833-.367 2.749l-.367.367h-.55v-.367c-.183-.916-.55-2.566.733-2.932l.367.183z" class="D"/><path d="M296.115 246.35c1.283-.183 2.199.367 3.116-.183l.55.183c0 .367.183.733-.183.916-.55 0-1.1-.55-1.833 0s-.55 1.466-.55 2.383c.367.367.55.916 1.1 1.1.733 0 1.65 0 2.199-.55.367 0 .916-.367 1.283 0 .079.07.124.17.124.275s-.045.205-.124.275c-.367 0-.733-.367-.916 0-.55 0-.916.55-1.283.733h-3.482c-.733 0-1.466 0-2.199-.367-.183.183-.916-.367-1.283.183h-.733c-.183 0 0-.367 0-.733l.183-.183 1.283.367c.733 0 1.283.367 1.833 0 .733-.55.916-1.466.55-2.383 0-.55-.55-.916-.916-1.283-.55-.367-.733.367-1.283.183l-.183-.733c.55-.733 1.466-.367 2.199-.367h.733z" class="B"/><g class="D"><path d="M289.349 248.367c.367.733-.916 1.283-.183 1.833.367 0 .733-.55.916-.183v1.283c.183.183.55.367.55.733.367.55-.367 1.1.183 1.466.367 0 .733 0 .916.55 0 .55-.55.916-.55 1.466-.338.217-.596.539-.733.916l.55.55.55-.183v-.916c0-.183.183 0 .367 0 0 .183.55.55.367.916 0 0-.367.183-.183.367l.183.183c.55-.367.367-1.1.733-1.466l.183-.916c.367 0 .367.183.55.367.367.733.367 1.833 1.283 1.833.733 0 1.65-.183 1.833.367v1.1c0 .55 0 .916.367 1.283 0 .367-.55.55-.733.916-.916.367-1.1 1.1-1.1 1.833 0 .367-.367.367-.733.367l-.367-.55c0-1.1 1.1-2.199.55-3.299-.183-.367-.55-.367-.733-.367-.55 0-1.1.733-1.466 1.1-.367.733 0 1.466.55 2.016 0 .733 0 1.466-.733 2.016 0 0-.55.183-.55.55.09 1.103.028 2.213-.183 3.299 0 .916-.367 1.833-.55 2.566-.55.55 0 1.466 0 2.016 0 .367 0 .733-.367.733-.733 0-.55-1.833-1.283-.55l-.367.55c-.367 0-.183-.183-.183-.367v-1.466c.367 0 .733-.183.916-.55a4.75 4.75 0 0 1 0-1.833c0-.55.367-1.1 0-1.466-.55 0-.183.733-.367 1.1l-1.283 2.199c-.55.55-.55 1.283-.916 1.833 0 .183-.183.367-.367.183-.367-.55-.367-1.283-1.283-1.466v-.55c0-.367.55-.733.733-1.1.55-.733.367-1.833.916-2.383.733-.55.55-1.65.916-2.383 0-.916 0-2.016-.733-2.749 0-.367 0-1.1.367-1.466.183 0 .55-.367.916-.183.733.183.733 1.283 1.283 1.833 0 .367 0 1.1.367 1.283.183 0 .367 0 .55-.367l-.367-.916-.183-1.466a9.53 9.53 0 0 0-2.016-2.016c-.183 0-.55.183-.733 0-.367.183-.367-.183-.367-.55 0-.916 1.833-.733 1.1-1.833 0-.367 0-.733-.367-.733-.367.367-.183 1.1-.733 1.466-.367 0-.733 0-.733-.367 0-.55.55-.733.55-1.1.55-.55.733-1.1.733-1.833h-.183s0 .367-.367.367a.37.37 0 0 1-.367-.183c-.183-1.1.733-1.833.916-2.566.367-1.283-.733-3.116.916-3.482.367 0 .55 0 .55.367zm-6.666.1c0 1.283-.916 2.383-1.466 3.299l-.367 1.466-.55.367v-.916l.367-1.833 1.1-1.1.55-1.466.367.367zm-2.583.2c0 .367.183 1.1-.183 1.283s-.916.183-.916-.367v-1.1h.916zm-.734 3.783l-.183 4.765c0 1.833 0 3.299.733 4.765.55 1.833-.55 3.482-.733 5.132a30.82 30.82 0 0 0-.183 3.299c-.55 1.1 0 2.566-1.1 3.482a.92.92 0 0 1-.55.367c-.367 0-.367 0-.55-.367 0-1.283.916-2.383.733-3.666.55-1.833.367-3.666.367-5.498-.183-.916.55-1.466.367-2.383l-.916-2.199c-.367-.733-.733.367-1.1 0-.55-.916-.55-2.016-.55-2.566.367-1.283.916-2.199 1.833-3.116 0-1.1.183-2.199.733-2.932 0-.367 0-.733.367-.916.733.367.733.916.733 1.65zm4.533-1.083c.367 1.283 0 2.383 0 3.666-.367.367-.55.733-1.1.916-.367.367 0 1.1-.55 1.65.183.55 0 1.283.367 1.833 0 .367.183 1.1 0 1.466l-.733.733s0 .183-.183 0c-.183 0 0-.367 0-.733 0-.733-.916-1.466-.183-2.383 0-.367 0-.733.367-1.1v-1.283h-.183c-.367.367-.367 1.1-.916 1.283v-2.383c.183-.916.733-1.466 1.283-2.016s.55-1.283.916-1.833c.073-.163.204-.293.367-.367.367 0 .55.183.55.367zm17.034 2.716c0 .733-.367 1.1-.733 1.65-.183.367-.55.55-1.1.55.183-1.283.55-2.199 1.466-2.383l.367.183z"/><path d="M305.431 254.35v2.383c0 .183.367.367.55.183.733-.55.367-1.466.916-1.833l.55.183c0 1.283.367 2.932-.55 3.849 0 1.283-.916 2.199-1.466 3.116-.367.367-.733.916-1.1.733-.55-.367 0-.916 0-1.466 0-.367.367-1.1 0-1.466-.453-.126-.929.111-1.1.55v1.833c-.733.55-2.016-.367-2.383.55-.183 1.1-1.466.733-2.199 1.1-.367 0-.55-.55-.55-.733.183-1.466 1.833-1.1 2.566-1.833l1.283-1.283-.367-.55c-.55 0-.733.55-1.1.733-.916 0-1.65 1.65-2.749.916-.367 0-.55-.183-.733-.55 0-.367.367-.55.55-.733.733 0 1.283-.55 1.833-.733.55-.55.55-1.283.733-1.833.367-.55 0-1.833 1.1-1.283.183.183.367.733.916.55.733-.183.916-1.1 1.1-1.833h.55c.367.367-.183 1.1.55 1.1.098-.298.098-.619 0-.916 0-.183-.733-.55 0-.916 0-.367.733-.183.916.183zm-6.565 1.8c-.55.733.183 1.65-.367 2.199-.183.367 0 .916-.55.916 0-1.466-.55-2.383 0-3.482 0-.183.55.183.733.367zm19.717.483c.183.183 0 .55-.183.55-.733.183-1.283 1.283-1.833.55-.367 0-.367-.55-.367-.733.246-.537.715-.939 1.283-1.1.474.022.897.304 1.1.733zm4.233.833v.733c-.55.55-1.466.55-2.016.367-.367-.367-1.1-.733-1.1-1.1-.056-.318.009-.645.183-.916.55-.367 1.1-.55 1.833-.55.55.183.733.916 1.1 1.466zm-4.15 1.301c.55.367.183.916.183 1.466l-1.283.916c-.733 0-1.466-.55-2.199-.55-.202 0-.367-.164-.367-.367l.55-.733 2.199-1.1c.367 0 .733 0 1.1.367zm-33.033.166c0 .55-.367.916-.183 1.466v2.566a.73.73 0 0 1-.733.183c-.55-.183-.55-1.1-.733-1.833-.183-.55-.183-1.283.183-2.016.367-.183 1.1-1.1 1.466-.183z"/></g><path d="M274.731 259.55c0 .733.55 1.466.55 2.383l.55.55c.55 0 .916 0 1.1.55.367.733-.367 1.65-.183 2.566l-.183 3.666c-.367 1.833-1.283 3.116-1.466 4.949-.183 1.1.367 2.199.367 3.299s-.55 2.199-.733 3.299c.367 1.1-.916 1.833-.916 2.749a6.25 6.25 0 0 1 0 3.666c0 1.283-.55 2.199-.733 3.666a5.5 5.5 0 0 0-.367 1.833c-.183 1.1-.733 1.833-.733 2.932-.183.916-.733 1.65-.55 2.566-.183 1.65-.733 2.932-.733 4.582-.183 1.283-.367 2.749 0 4.032.733.733 1.833.916 2.383 1.65 1.1.55 2.016 1.466 3.299 1.833l2.383.183 1.833 1.466c.183.733-.183 1.283-.55 1.833-.183.55-.733.367-1.283.367-.916 0-1.833 0-2.566-.55-1.283 0-2.199-.916-3.482-.916l-2.566-.367c-1.466-.367-3.666.367-4.765-.916a2.01 2.01 0 0 1 0-1.283c0-.916 1.833-1.283 1.283-2.383-.367-1.1 0-2.199.367-3.299v-5.865c.367-.733.367-1.466.916-2.199.367-.916-.367-1.466-.55-2.383-.733-1.466.733-2.566.183-4.032l-1.283-3.482c-.183-.916.367-1.466.55-2.016.367-1.283 1.466-2.016 1.833-3.299 0-.733 0-1.65-.367-2.199-.367 0-.733 0-.916-.55-.367-1.1-.367-2.566-.916-3.666v-1.283s.367-.367.733-.183c.733.733.367 1.833.733 2.749l.733.183c.55-.367.733-1.1.55-1.833l-.733-2.749c-.55-.733-.367-1.833-.55-2.749 0-1.1-.367-2.199.367-2.932l1.283-1.466c0-.367 0-.916.55-1.283l1.833-2.566c0-.916 1.283-1.1 1.833-1.65.367 0 .733 0 .916.55zm-17.682 0c0 .916-.367 1.833 0 2.566 0 1.283.55 2.199 1.283 3.116.367.55 1.283 0 1.65.55.916.916.733 2.199 1.283 3.299.55.916.733 1.833.733 2.932.733.916.916 2.199 1.283 3.116.55 1.1.183 2.566 0 3.666 0 .733-.55 1.833-1.466 2.199-.733.367-1.466 0-2.016-.55-1.1-.733-1.283-1.833-1.833-2.749l-1.1-2.749c-.367-.916 0-1.833-.367-2.932-.55-1.1 0-2.749-.916-3.666l-.733-3.849c.183-1.833-.55-4.215 1.283-5.498.183-.183.733 0 .916.367z" class="F"/><path d="M324.658 260.366c.55.55.183 1.466 0 2.016-.183.183-.367.55-.733.55l-.55-.183c0-.367.367-.733.183-1.1l-1.466-.916c-.519-.159-1.083-.018-1.466.367-.131.227-.131.506 0 .733l1.833 1.466s.183.183 0 .183c-.55.367-1.1-.367-1.833 0a1.83 1.83 0 0 0-.733 1.466c-.916.733-2.199.367-3.116.367s-1.466 1.283-2.199 1.466l-4.215 3.666c-.733.367-1.283 1.283-1.833 1.833-.916.55-1.833.916-2.383 1.833-.55.733-1.283 1.466-1.466 2.383a5.5 5.5 0 0 1-3.116 1.833c-1.1.55-1.65-.916-2.749-.367-.733 0-1.1 1.283-2.016 1.1-.916-.367-1.466 1.283-2.199.367-.367-.55-1.1-.916-.916-1.65 0-.55 0-1.1.55-1.283.55-.367.733.55 1.283.367s.916-.733 1.283-1.1c.733-.55 2.383-.367 2.016-1.65-.183-.55-.55-1.1-.367-1.833.55-.733 1.283 0 1.833 0s.916.367 1.1 0c.55-.183.367-.916.183-1.283-.183-.733-.916-1.1-1.833-.916a.93.93 0 0 1 0-.183l.367-2.016c0-1.1.367-2.199 1.466-2.932h1.833a.73.73 0 0 1 .733.367v.55c-.55.733-1.283.733-2.016.733l-.367.367.183.733 1.833 1.833.55-.183c.367-.733-.183-1.833.55-2.199.55 0 1.283 0 1.65-.55 0-.733-1.283-.55-1.1-1.466.367-.733 1.1-.916 1.833-1.1a16.49 16.49 0 0 0 2.566-1.833l2.566-1.283h.916c.55.367.183 1.1.733 1.283.916.183 1.466-1.1 2.199-.183.367.733-.367 1.833.55 2.199.367 0 .916.55 1.466 0 .55-.733-.733-1.283-.367-2.199.55-.55.733-1.466 1.65-1.283l.55-.55c1.283 0 2.566-1.283 4.032-.367l.55.55zm-37.092 2.184c-.367.916 0 2.016-.183 3.116l-1.1.55c-.367.55-.916.733-1.1 1.283-.55.55-.183 1.466-.733 1.833-.057.033-.127.033-.183 0 0-.916-.367-1.833 0-2.749l.367-.916c0-.367-.367-.916 0-1.283 0-.183.55-.183.733 0h.733c.367-.55.183-1.466 0-1.833.028-.231.164-.435.367-.55a1.1 1.1 0 0 1 1.1.55zm-4.567-.167v2.566c0 1.65-.916 2.566-1.466 3.849v1.283h-.55c-.183 0 0-.55-.367-.916v-2.016c0-.55 0-1.283.55-1.833 0-.55.55-.916.733-1.466s.733-.916.733-1.65c0-.183.367 0 .367 0zm-47.591 2.7c.55.916 1.283 0 1.833 0 .733 0 1.1-.55 1.833-.367.55.367 1.283 0 1.833.367 1.466.183 2.566.55 3.666 1.466l3.849 1.833 2.566 1.466c.733.916.55 2.199 1.65 3.116l1.833 1.466c1.1 1.283 2.199 2.566 2.566 4.215v.916a.55.55 0 0 1-.733.183c-.733-.183-.916-.916-1.466-1.466l-1.466-1.283-1.466-3.482-1.65-2.016-2.749-2.749-2.383-1.283c-.051-.101-.174-.142-.275-.092s-.142.174-.092.275c0 .367.55.367.733.55 1.466 1.65 3.116 2.932 4.399 4.582a7.88 7.88 0 0 1 2.383 4.215c-.367.916-1.283 1.466-2.016 2.016-.55.367-1.1 0-1.466-.183-.916 0-2.199-.367-2.932.367-.367.55-.916 1.283-1.65 1.466s-1.1-.733-1.833-.55c-1.1 0-1.833.733-2.383 1.283-.733 1.1-2.199.733-2.932 1.833-.733.916-.916 2.566-.367 3.666 0 .55-.733.367-1.283.55-.916 0-1.833.367-2.566-.183-.367-.55-1.283-.367-1.833-.183-.55-.183-.55-.733-.916-1.1-.55-.55-.916-1.466-.55-2.199.367-.367 1.1-.367 1.466-.55 1.1-.367 1.833.733 2.383 1.466 0 .367.183.733.733.916h.733c.55-.55 0-1.1-.183-1.466 0-.55 0-1.283-.55-1.65-1.1.367-1.466-1.466-2.383-.916-.55.367-.733.916-1.283 1.1-.55 0-1.1.733-1.65 0-.231-.173-.367-.445-.367-.733 0-.733 1.283-1.466.367-2.199-.55 0-.55.733-.733 1.1-.55.733-.55 1.833-.733 2.566 0 1.1.367 1.833.916 2.749 0 .55.55.916.733 1.466l.183 1.65c-.183.55 0 1.466-.55 1.833l-1.466.916c-.55.733-1.466 1.1-2.383 1.65-1.1.367-2.199 0-3.299-.367a.55.55 0 0 0-.55.367c-.183.733 1.283.733.733 1.466-.733.55-.55 1.466-1.466 1.833v.367h.367c.916-.733 1.833-1.466 1.833-2.383.55-.183.733-.916 1.1-.55 1.833 0 3.116-.733 4.399-1.833h.55v.55c-.367.916-1.1 1.466-1.283 2.383-1.1 1.466-2.932 1.466-4.215 2.566-1.1.733-2.566.55-3.299 1.833-.367.367-.733.733-.733 1.1 0 1.283 1.466 1.833 2.383 2.749.55.367 1.283.733 2.199.733.183.367.733.183 1.1.183a4.05 4.05 0 0 1 2.932 0c.55.733 1.283 1.1 1.65 1.833 0 .55-.367.916-.916 1.283-.916 0 0-1.283-.916-1.65-.733-.367-1.466-.55-2.383-.55h-1.283c.183.367.55.733 1.1.733.55.367 1.466 0 1.833.55 0 .367.367.916 0 1.283-.183.55-.733.733-1.466.55-.916-.183-.367-1.283-.916-1.833a5.5 5.5 0 0 0-2.932-.55l-.367.367c.183.367.733.55 1.1.733.55 0 1.1-.367 1.466 0 .367.55.367.916.367 1.466-.367.733-1.466.367-2.016.367-1.1-.367-1.833-1.283-2.932-1.1h-2.749a2.39 2.39 0 0 1-.733-.916c0-1.466 0-3.116-.367-4.582-.55-1.283-2.383-1.833-2.566-3.666 0-.55-.183-1.283.183-1.833 1.283-.733 2.566-1.466 3.666-2.566l2.199-1.833c.183-.367 0-.916-.367-1.1-1.283-.916-2.566-1.283-3.666-2.199-.733-.367-.916-1.283-1.466-1.833-1.1-1.833-.367-4.399-.55-6.598 0-.55 0-1.1.367-1.466v-.55c-.733 0-.55.733-.916.916-.733 1.466-1.833 2.749-1.833 4.215-.733.916-.55 2.199-.916 3.299-.367 1.283-.183 2.749-.367 4.215l.916 3.299c.367.733.55 1.466 1.283 2.199 0 .367 0 .55-.367.733-.496.039-.995-.023-1.466-.183-.733-.55-.916-1.466-1.466-2.383l-.367-2.566c-.367-1.466-.367-3.299-.367-5.132a5.07 5.07 0 0 1 .55-2.383c0-.733.183-1.466.55-2.016 0-1.283 1.1-2.383 1.466-3.666 1.283-1.833 1.65-3.849 2.749-5.498l.916-1.466c1.283-1.1 2.383-2.566 3.666-3.299.733-.55 1.466-1.1 2.199-1.283a10.45 10.45 0 0 1 2.199-.916c.916-.367 2.199.183 2.749-.733l3.666-.916a12.83 12.83 0 0 1 4.949-.55c.55-.367 1.283-.55 1.833-1.1.733 0 .55.916.733 1.283zm60.708.017c.55-.183 1.466-.55 1.833 0 .55.367.733.733.733 1.466v2.932l-1.466 1.466h-.55c.183-1.283 0-2.383.733-3.299.102-.234.102-.499 0-.733a.55.55 0 0 0-.55-.367c-.367 0-.367.367-.55.55-.183.733-.367 1.833-1.1 2.199l-.367.55-1.1-.183c-.733-.55-.55-1.65-.55-2.749 0-.733.55-1.1.55-1.833v-.916h.55c.55.367 1.1 1.466 1.833.916z" class="D"/><path d="M323.728 265.367v41.238c-.55.733-1.466.733-2.016 1.1-.916 0-1.833.55-2.566.55l-.733.183h-7.881l-1.283-.183-3.299-1.283-.367-.367v-7.331c.183-.733.916-1.283.916-1.833 0-1.283-.55-2.383-.916-3.299l-.183-1.1V277.28l.367-.733c.733-.916 1.833-1.65 2.383-2.749l4.032-3.666c.916-.733 1.65-1.833 2.566-2.383.55-.733 1.466-.916 2.199-.916.916 0 1.833-.367 2.749-.733.367 0 .733-.55 1.283-.183.916 0 1.466-.55 2.199-.916.202 0 .367.164.367.367z" class="E"/><path d="M283.648 270.2c.367.367.367 1.1.183 1.65 0 .183-.367.55-.183.916 0 .183.367.367.733.183.55 0 .916-.733 1.65-.55.733.733.55 1.833 1.65 2.383.55 0 1.1 0 1.466.367l.367-.367v-1.1h.367c.55.55 1.1 1.283.916 2.016-.183.367-.733.367-.733.733 0 .733.183 1.466.916 1.833.367 0 .916-.367 1.1 0 .916.916 1.1 2.199 1.833 3.299.367.733 0 1.833.55 2.383l1.1 1.833v.733a.56.56 0 0 1-.733 0c-.916-.183-1.466-1.283-2.383-.916-.367 0-.55 0-.733-.367-.183-.55-.733-1.1-1.466-1.283l-.367.183c0 .916.367 1.466.916 2.016.733.55 1.833 0 2.566.733.55.55 1.1 1.1 1.833.916h1.283c.916 1.1 1.283 2.383 2.016 3.299.733.733 1.466 1.833 2.383 2.016 1.1 0 1.65.733 2.383 1.1.733.55 1.466 1.283 1.466 2.199 0 .733 0 1.466-.733 1.833-.55.733-1.833.916-1.833 2.016a1.28 1.28 0 0 1-.367.916 1.83 1.83 0 0 1-1.833.183c-.367-.183-.367-.916-.367-1.65-.55-.916-.916-2.199-2.199-2.749l-.55.183c0 .55.55.916.733 1.466 0 .55.733 1.1.367 1.65a.56.56 0 0 1-.733 0c-1.466-.733-1.833-2.199-1.833-3.666-.367-1.283-.916-2.566-1.833-3.666-.183-1.283-1.833-2.199-2.199-3.482-.916-.916-1.466-1.833-2.566-2.566-.916-.183-1.833-.367-2.566-.916-.55-.367-.55-.916-.916-1.466-.367-.916-1.1-1.65-1.833-2.383-.183-.183-.367-.733-.183-1.1 0-.183.367-.367.55-.183s.55.916.916.55c.55-.367.367-.916.55-1.466l-.367-.55-.55-.183c-.183-.367 0-.733-.367-.916l-.55.367c0 .183 0 .367-.367.55-.183 0-.367-.55-.733-.367l-.55 2.199v.916c-.55 0-.55-.367-.55-.55-.55-.55-.183-1.466-.733-1.833-.55 0-.367.916-.916.733-.55-.367 0-1.65-1.1-1.283-.176.071-.374.071-.55 0-.367.183-.367-.367-.367-.733 0-.733 1.1-1.283 1.283-1.833.733-.733.55-1.833 1.283-2.566a.79.79 0 0 1 .733-.733c.55 0 1.1.916 1.466.183l-.367-1.833c.367-.733 0-1.833.916-2.383.55 0 .367.733.733 1.1zm10.868 1.2v1.1c.367.55.916.916.733 1.65-.367.367-1.1-.55-1.283.183 0 .367 0 .733-.367.733s-.733-.367-.916-.733a2.2 2.2 0 0 1 0-1.1l.367-1.1c.55-.55.916-1.833 1.283-.733z" class="D"/><path d="M260.833 279.632c-.234.102-.499.102-.733 0-.367 0-.367-.55-.55-1.1-.55-1.833 1.283 0 1.283 1.1z" class="B"/><path d="M265.533 277.95c.367.916.183 2.199 1.1 2.932 0 .916-.183 1.833-.733 2.383a1.28 1.28 0 0 1-.733.916h-.55c-.916-.916-.367-2.016-.916-2.749 0-1.283.733-2.383.916-3.666 0-.55.733-.367.733 0zm-12.184 2.883c.367.367.733.916.55 1.833-.55 0 0 .55 0 1.1-.367.916.183 1.466.367 2.199 0 .183.367 0 .733 0 .55.55.55 1.466.733 2.199 0 .916 0 1.833-.367 2.749 0 .55-.55 1.1-.55 1.833-.183.183-.55.55-.916.55l-.916-.916c0-1.466 0-2.749-.916-3.849-.101 0-.183-.082-.183-.183s.082-.183.183-.183c.55 0 .55.55.916.733.916 0 .916 1.283 1.65 1.65l-.367-1.283-.367-1.283c0-1.833-1.1-3.116-1.833-4.582 0-1.1-1.1-1.833-1.833-2.932.183-.183-.733-.183-.733-.733.367-.367.916.367 1.283 0 .55 0 1.1.367 1.466.916 0-.55-.55-1.283.183-1.65.916 0 .55 1.1.916 1.833z" class="D"/><path d="M303.364 279.667v12.83l-.367.183c-.916.183-1.65-.367-2.199-1.1-1.65-1.1-2.016-2.749-3.299-4.215-.367-.733-.367-1.65-1.1-2.383 0-.55-.183-1.283-.55-1.833 0-.55-.55-1.466 0-1.833.367 0 .55 0 .55.367.367.367 0 .916.55 1.1.916.183 1.1-.916 1.833-.733l.55.367c.733-.183 1.466-1.1 1.833-1.833.733-.367 1.1-1.283 1.833-1.283l.367.367z" class="E"/><path d="M272.199 283.915l-.367-.183-1.466-1.833c-.367-.367-.183-2.199 0-1.466 0 1.283 1.466 1.833 1.833 3.666z" class="B"/><path d="M276.85 280.367l-.183.367h-.367V280c.367 0 .55.183.55.367zm-20.667.916c.367.183.367.916.916.916.367.55.733 1.65.183 2.199 0 .55 0 1.1-.55 1.283-.183 0-.367 0-.55-.367 0-.55-.55-1.1-.55-1.833a12.83 12.83 0 0 0-1.833-3.299V280c1.1 0 1.65.733 2.383 1.283zm-6.467.45l.916 1.1c.183.916.916 1.466.733 2.566.367.733 0 1.466 0 2.383a.55.55 0 0 1-.367.183c-.55 0-.367-.733-.55-1.1-.367-.916-.183-2.199-.55-2.932 0-.367 0-.916-.367-1.283-.183-.367-.733-.733-.733-1.1.367-.55.733 0 .916.183z" class="D"/><path d="M277.899 281.967c.55.367 1.283.367 1.65 1.1 0 .733.55 1.466.733 2.199a1.1 1.1 0 0 0 .733.733c.55-.183 1.283-.55 1.466-1.283l.55-.367c.55 0 .733.733 1.1 1.283 0 .367.55.733.733 1.1.55.916 1.283 1.283 2.199 1.283.367.367 1.1.183 1.466.55.733.55 1.65 1.283 1.833 2.199.733.733.916 1.65 1.466 2.383s1.1 1.283 1.283 2.199l.916 1.466.367 2.749c.55 1.1 1.833 1.65 2.749 2.566v.55a1.1 1.1 0 0 1-.733.367h-18.145c-.733-.367-1.833-.55-2.016-1.466-.55-1.65-.55-3.482.916-4.399.367 0 .55.733 1.1.55.916 0 1.283-1.1 1.833-1.833l.367-2.383c-.183-.733.183-1.283.183-1.833v-3.116c-.55-.916-.55-2.199-1.466-2.932-.916-1.1-2.383-1.1-2.932-2.566v-.55c.733-.367 1.1-.916 1.833-.55z" class="E"/><path d="M249.033 283.283c0 .916.55 1.466.733 2.016v2.566h-.367c-.367-.183 0-.733-.183-1.1 0-1.1-.367-2.016-1.1-2.932-.118-.287-.307-.539-.55-.733 0-.367-.367-.733 0-1.1.733 0 1.1.916 1.65 1.283zm-6.401-1.183c.733.367 1.1 1.283 1.833 1.283.733.183 1.65.183 1.833.916.733.367 1.283.916 1.466 1.65l.367 1.833c.55.55 0 1.283.55 1.466v1.1c0 .733 0 1.466-.367 2.016 0 .183-.183.55 0 .733.55.367 1.283 0 1.833.183.183 0 .367 0 .55-.367.367-.733-.183-1.833.367-2.199.201-.017.4.049.55.183.367.55.733 1.283.55 1.833 0 .55-.55.916-.367 1.283.367.55 1.1.367 1.833 0 .367.183.733 0 1.283.367.733 0 1.1-.916 1.466-1.65a.55.55 0 0 1 .367 0c.367.367.367.916 0 1.283v.916l.183.183c1.283.183 2.932 0 4.032.367l.733-.183c.55-.367 0-1.1.55-1.283l1.283-.916c.55 0 1.283 0 1.833-.367l.367.183c0 .916-1.1.916-1.283 1.65.183.733-.183 1.283-.733 1.833-.55.367-1.833.183-1.833 1.1-.183 1.283 0 2.383-.367 3.482 0 1.1-.733 2.016-.916 3.299-.367.916-1.466 1.833-2.566 2.199v.55l.733.733c.367 1.283-1.283 1.466-1.1 2.566 0 .55-.55.916-.916 1.283a2.93 2.93 0 0 1-2.932-1.283c-.367-.733.183-1.283.733-1.833.55 0 1.283 0 1.466-.733 0-.367-.183-.55-.367-.55h-4.032c-.55-.183-1.283-.367-1.833 0a.55.55 0 0 0-.183.733h.183c.916.55 2.199.367 2.566 1.466 0 .916 0 1.833-.55 2.199-.916.367-1.833.367-2.566 0-1.283-.733-.916-2.383-1.833-3.299-.55-.367-.367-1.1 0-1.466 0-.916-1.1-.733-1.65-1.283-.733-.55-1.466-1.283-1.466-2.199 0-.55.55-1.283 0-1.833-1.283-.183-1.833 1.1-2.383 1.833l-.55.733-.367-.367c-.367-.733.367-1.283.367-1.833-.55-.916-1.65.916-1.65-.55.55-1.283 1.833-1.466 2.932-2.016.183-.367.916-.183.733-.733 0-.367-.367-.183-.733 0l-2.566 1.1v-.733c.367-.55.733-1.1 1.283-1.283l1.833-.55c.231-.028.435-.164.55-.367 0-.916-1.1-.55-1.65-.55l-1.1-.916c-.183-.916 1.1-.916.916-1.833-.367-.367-.916.183-1.283 0a.37.37 0 0 1-.367-.183c0-.916.55-1.65 1.283-2.016 1.1-.183 2.749-.55 3.666.733 0 .367.367.733.183 1.1-.733.733-1.1-.55-1.833-.733h-.55c-.55.55 0 1.1 0 1.466.367.367.367.916.733 1.1 1.1 0 1.833-.733 2.749-.733.733-.55.367-1.466.733-2.199.55-.55 1.466-1.1 1.1-1.833 0-.916-.733-1.65-.916-2.383s-.916-.916-1.466-1.283c-.367 0-.916.367-1.283-.183-.55-.916-1.833-.733-2.016-1.833-.55-.367-1.1-.367-1.65-.916 0-.183 0-.367.55-.367.367.367 1.1.733 1.833.55v-.183c-.733-.367-1.466-.733-1.283-1.466 0-.183 0 0 .367 0zm17.901.283l-.183.733c-.367.367-.916.367-1.1.916l-.55-.183c.183-.55.733-1.1 1.283-1.466h.55zm20.75 1.05v1.1h-.367c-.367-.367-.916-.916-.916-1.833h.55c.183 0 .55.183.55.55zm-19.985.534c0 .367-.733.733-.916 1.283 0 .55-.916.733-1.283 1.283-.367.733-1.466 1.283-1.65 2.199h.55c.367-.367.55-.733 1.1-.916.55-.367 0-1.283.916-1.466l.55-.367.367.367-1.1 1.466c-.55 1.283-1.1 2.566-.916 4.032 0 .367-.183.733-.55.916-.183 0-.367 0-.55-.367v-1.833s-.183-.183-.367 0c-.367 0 0 .916-.55.55-.733 0 0-1.283-.733-.55-.367-.183 0-.55 0-.916-.367-.55.367-.916.183-1.65.367-.733 1.1-1.1 1.833-1.833l2.383-2.566a.55.55 0 0 1 .55.367zm-20.365 1.433c1.283.183 1.1 1.833 2.199 1.833.733.55 1.833.367 2.566.733.259-.079.541-.009.733.183a.56.56 0 0 1 0 .733c0 .367-.55.55-.55 1.1l-.183.733c-.183-.183 0-.55-.367-.916h-.367l-3.116-1.833c-.733-.183-1.466-1.1-2.016-1.833-.183-.367-.733-.733-.733-1.283a.37.37 0 0 1 0-.367c0-.183.55 0 .733 0 .55.183.55.916 1.1.916zm23.599.2c.367.55-1.1 1.1 0 1.466.55 0 .733.733 1.1 1.283s-1.1 1.1 0 1.466v.55s-.183.183-.367 0c-.367 0-.367-.55-.733-.55-.55 0-1.1.367-1.466.733h-2.199c-.183.183-.367-.183-.183-.55.367-.916 1.466-1.1 2.016-2.016l-.183-.367c-.55 0-.916.733-1.466.367-.183-.733.55-1.1.916-1.833.733-.55 1.833-1.65 2.566-.55zm13.733 1.083c1.1 1.283.916 3.116.916 4.765-.55 1.1-.367 2.749-1.833 3.482l-.733-.367.367-.916c.55-.916 0-2.016 0-3.116 0 0-.367-.183-.367 0-.367.55.183 1.466-.367 2.016l-.367 1.466a2.85 2.85 0 0 1-1.466 1.1c-.183 0-.367 0-.55-.367-.367-1.1.183-2.016.55-3.299.733-.916.733-2.383.733-3.666.183-.55 0-1.833.733-2.383h.733l1.833 1.283z" class="D"/><path d="M211.166 287.716c.55.55.367 1.283.916 1.833.733.733 1.65 1.466 2.566 1.833.55.367 1.466.916 1.1 1.833-.367 1.1-1.833 1.833-2.566 2.383l-1.65-.183-1.1-1.833c0-.367 0-1.1-.55-1.65v-2.749l.916-2.383c.367 0 .367.55.55.916z" class="F"/><g class="D"><path d="M239.833 288c0 1.1 2.383 1.466 1.1 2.566h-.733a4.4 4.4 0 0 1-.55-1.466l-1.283-1.1c-.367-.183-.367-.55-.367-.733.367-.367.733 0 1.1 0 .31.169.564.423.733.733zm-6.984 1.25c.367.367.916.733.916 1.283-.733 1.1-.916 2.016-1.1 3.299s0 2.932-.367 4.215c0 1.466.733 2.383.916 3.666l.367.733c-.038.107-.122.191-.23.226a.37.37 0 0 1-.32-.043c-.55-.183-.916-.916-1.466-1.1-.55 0-1.1.183-1.283-.367-.55-1.1-1.283-1.833-.916-3.299 0-.733 1.466-1.283 1.1-2.199-.55-.367-.55-1.1-.733-1.65.183-.183.55 0 .733-.55 0-.55-.367-.916 0-1.65l.367-2.749c.115-.203.319-.339.55-.367.55 0 .916.367 1.466.55zm4.567 0c.183 0 .183.183 0 .367-.183.367-.55 0-1.1 0-.367 0-.733 0-.916-.367 0-.183 0-.367.367-.55a1.1 1.1 0 0 1 .55 0l1.1.367zm1.55 1.7c.183 0 .183.367 0 .367-.183.367-.55.55-1.1.733-.367 0-.916.367-1.466 0a1.1 1.1 0 0 1 .55-.916c.733 0 1.466-.733 2.016-.183zm-3.616.117c0 .367-.367.55-.55.733-.227.131-.506.131-.733 0 0 0-.367-.183-.183-.367.183-.733.733-.733 1.1-.733l.367.367zm28.132.683l-.367.733c-.733.367-1.833.367-2.383.916h-.55c-.183-.733 0-1.283 0-1.65.733-.55 1.833-.55 2.566-.55a1.46 1.46 0 0 1 .733.55zm-26.55 1.3c.55 0 1.466-.183 1.833.367 0 .916-1.1.733-1.833.916-.367 0-.367-.916-.916-.55l-1.466 1.833c0 .183 0 .55-.367.733l-.183-.367c0-1.283.916-2.199 1.65-3.116 0-.183.367-.367.55-.183l.733.367zm.351 2.2c0 .55-.733.733-.916.916H236l.183-1.1c.183-.183.916-.367 1.1.183z"/><path d="M239.132 295.467c0 .733-.916 1.1-1.1 1.65-.183.916-1.283 1.1-1.833 1.833-.733-.183-1.65.55-2.199-.183-.183-.367 0-.55 0-.733l1.1-.55 1.283-1.1c.916 0 1.283-1.283 2.566-1.1zm27.267.1c.183 1.1-1.1 1.65-1.1 2.749 0 .183 0 .55-.367.55-.55.367-1.1 0-1.833 0a.55.55 0 0 1 0-.55c0-.367.733-.367.733-.916l.733-.916c.367 0 .916 0 1.1-.55 0-.367 0-.55.367-.733 0 0 .367 0 .367.367z"/></g><path d="M253.698 296.933l.367 2.016c.55.733 1.466.55 2.199.733.55 0 .916.55 1.283.367.55-.367 1.283-.733 1.833-.367.13.073.203.218.183.367-.367.55-.916.367-1.283.916 0 .367.55.55.183.916-.183.55-.916.55-1.283.733-.367 0-.733-.367-1.1-.183a2.2 2.2 0 0 0-1.1 1.833l.367 1.833v.367c-.916 0-.916-1.1-1.1-1.65l.367-2.749c.183-.367.916-.733.733-1.283-.733-.733-1.833.183-2.749-.183h-.916a.55.55 0 0 0-.183.55c.367.55.733 1.283.367 2.016 0 0 0 .183-.183 0l-1.1-1.833-.367.367c.367.55.367 1.1.55 1.833h-.183l-.916-.916c-.183-.183-.55-.367-.733-.183h-1.1c-.367 0 0-.733-.183-1.1-.367-.733-1.1-.55-1.65-1.1 0-.367.183-.367.367-.55.916-.367 1.65.367 2.383.183.183 0 .367-.367.183-.55-.183-.367-.916-.55-.733-1.1.183-.367.55-.55.916-.367.55.183 1.283.367 1.65.916 0 .183.183.55.55.55.259.079.541.009.733-.183.303-.283.378-.734.183-1.1-.183-.367-.367-1.1 0-1.466s1.283-.183 1.466.367z" class="B"/><path d="M228.233 296.567c0 .733.55 1.466 0 2.016 0 .55.183.916.55 1.283 0 .733-.367 1.283-.916 1.65l-.183-.367v-3.116l.183-1.833.367.183z" class="E"/><path d="M275.382 296.767c-.183 1.1-.916 2.016-.916 3.299.367 1.1 0 2.566 1.283 3.116s2.383 1.1 3.849.916c.55 0 1.1 0 1.833.367 1.65-.183 3.116.367 4.765.733.55.183.733.733.733 1.283l-.183.733c-.733.367-1.283-.367-1.833-.733-.55-.916-2.016-.733-3.116-.916l-.183.183.183.367c1.283 0 2.383 0 2.932 1.1.102.234.102.499 0 .733l-.733.367c-1.283-.183-1.833-2.199-3.299-1.833-.733 0-1.65-.55-2.383 0 0 0-.183 0 0 .183.733.916 2.016 0 2.932.916.183 0 .55.183.55.55 0 .733-.55 1.466-1.283 1.833h-1.283c-.55-.733-1.283-1.283-2.199-1.1-1.466.367-2.016-1.466-3.299-1.65-.367-.367-1.1-.183-1.283-.916a23.81 23.81 0 0 1 .55-9.164c.367-.733 1.283-.733 2.199-.733l.183.367zm-34.483.3l-.183.367-1.833.183s-.183-.183.183-.367c0-.55.916-.55 1.466-.55l.183.367z" class="D"/><path d="M209.633 298.916c.916 0 1.466 1.1 2.016 1.833.183.916 1.1 1.283 1.466 1.833.55.916.55 2.016.733 3.116 0 .733.733 1.833 0 2.199h-2.383l-3.116-.183s-.367-.55-.367-.733l-.183-.367v-8.248s0-.367.367-.367c.55 0 .916.55 1.283.916zm15.033-.249v4.399c-.55.183-.916 0-1.283-.183a3.48 3.48 0 0 1-1.283-.916c-.367-.55-1.1-.916-.916-1.65.367-.55 1.1-.55 1.65-.916.55-.55.916-1.283 1.833-1.283v.367z" class="F"/><path d="M238.566 299.867v.916c-.183.55-.733.367-1.1.733-.55.55-1.1.733-1.466 1.466 0 .367-.367.55-.733.367-.26-.147-.405-.437-.367-.733 0-.733.367-1.283.55-1.833.367-.916.916-.183 1.283-.733.367-.367 1.1 0 1.466-.55.183-.183.367 0 .55.183zm26.267 1.716c.183.916.55 1.833.183 2.566h-.55c-.367.183-.183-.183-.367-.183-.367-1.1-.916-2.016-1.1-3.116l.367-.367c.916-.183 1.283.55 1.65 1.1zm-33.701 8.115c.55-.55-.55-1.1 0-1.833.367-.733 1.466 0 2.199 0 .916.733.733 2.383 2.016 2.749l.55-.55c0-.733-.733-.916-1.1-1.65 0-.55-.183-1.283-.916-1.466-1.1-.183-2.199 0-2.932-.916-.733-.55-1.283-1.283-2.016-1.466-.55-.367-1.283-.733-1.1-1.65.183-.733 1.283-.55 1.833-.916.733 0 1.1.367 1.65.55l1.1 1.833c.183.183.55.733 1.1.733.367 0 .733-.55 1.1-.733.733-.367 1.466-.367 1.833-1.1a.92.92 0 0 1 .55-.367l.916.183c.367.367 0 .733 0 .916-.183.55-.916.916-.916 1.466v1.283c-.367.367-.733.916-.55 1.466a1.11 1.11 0 0 0 .733.916c.733 0 1.466-.367 2.199 0 .55.55-.55 1.833.55 1.833.55-.367.183-.733.55-.916l-.367-1.283-.183-1.283c-.367-.367-1.1-.55-.916-1.283l.367-1.65c0-.367-.55-.367-.733-.733.367-.55-.367-1.65.733-1.833.55.55 0 1.833.916 1.833.367.733.367 1.466 1.1 1.833.55.183.916-.916 1.65-.55.343-.011.648.218.733.55l.367.916c-.367.916-1.1 1.833-.55 2.749h.367l.183-.916c.183-.55.367-1.1.733-1.283.367 0 .916 0 .916.367.183.733.183 1.65.733 2.199 0 .733 0 1.466-.55 1.833 0 .288-.136.56-.367.733-.733.367-1.1-.55-1.65-.367h-.916c-.55-.183-.55-.733-.916-.733-.733 0-1.1.733-1.65 1.1-.916.733-2.383.733-3.666.55-.55-.183-1.466-.916-2.199-.183-.55.367-1.1.916-1.833 1.1-.367.55-.916 1.1-1.1 1.833-.733.55-1.833.183-2.932.367l-2.383.733c-.203-.115-.339-.319-.367-.55 0-.733.733-.733 1.283-.916l2.016-2.199c.55-.733 1.283-3.116 1.833-3.299z" class="D"/><path d="M229.642 309.798c.183.733-.55 2.383-.55 2.383a3.3 3.3 0 0 1-1.1 0h-8.797c-1.283-.183-2.749-.55-4.032-.55l-.367-.183h-3.116l-1.283.733c-.916.367-1.466 1.1-1.833 1.833-.55 1.1-.55 2.566-.183 3.666.367.733 1.1 1.466 1.833 2.199.733.367 1.833.55 2.566.55.733-.183 1.466-.183 1.833-.733s1.283-1.1 1.1-1.833v-1.833c-.733-.733-1.283-1.833-2.383-1.466-.55 0-1.1 0-1.466.733 0 .367-.367.733-.183 1.1 0 .367.55.55.916.55.55 0 .916-.367 1.283-.55.367 0 .55.183.733.55v1.1c0 .367-.367.733-.733 1.1-1.041.351-2.185.216-3.116-.367-1.093-.876-1.591-2.299-1.283-3.666.183-1.1.916-2.199 1.833-2.383 1.1 0 1.65-.733 2.566-.367 1.1.367 2.383.367 3.116 1.833 0 .367.733.916.55 1.466.183 1.833 0 3.849-1.833 4.949l-2.383 1.1a5.13 5.13 0 0 0-1.1 2.566c-.183.367-.367.733-.733.733-.55 0-1.466 0-1.833.916-.183 1.1-.55 2.383-1.833 3.116-.55.367-1.1.733-1.833.733-.733.55-.367 1.833-.367 2.566l.367.916v12.83c-.55.916 0 2.199-.733 2.932-.55.916-1.283 1.833-.916 3.299 0 1.1.916 1.833 1.283 2.749.733 1.1 1.833 1.1 2.932 1.65 1.833.367 3.116-.733 4.399-1.833.367-.916.733-2.016.183-3.116-.183-.916-.733-1.833-1.833-2.016-.55 0-1.1-.367-1.833 0-.55 0-1.466.916-1.466 1.833 0 .55 0 1.283.55 1.65l.367-.367c-.183-.55 0-1.1.367-1.833.367-.367.733-.733 1.466-.55.55 0 1.1 0 1.466.55 0 .916.367 2.016-.183 2.749s-1.283 1.283-2.199 1.466c-1.65.183-3.116-.367-3.849-1.833-.367-.55-.183-1.466-.183-2.199 0-.916.55-1.466.916-2.199a5.5 5.5 0 0 1 3.666-1.833c1.1.183 2.199.183 2.932 1.1.55.367.916.916 1.283 1.65.55.55.367 1.466.916 1.833.183.733 0 1.283.55 1.65h3.666c.916.367.733 1.466 1.283 1.833 0 .55.183 1.1.733 1.283l.367.183h27.492c.733 0 1.283-1.1 2.016-1.466.916 0 1.283 1.283 2.016 1.1l2.749-2.749a5.5 5.5 0 0 1 5.132 0c.733.367 1.1.916 1.283 1.833.367.367 0 1.1.733 1.283h3.299c1.1-.367.55-1.833 1.65-2.566.55-.733 1.466-.733 2.016-1.283 2.383-.367 4.215.733 5.498 2.566l1.1.916c.916 0 1.466-1.65 2.566-.733.367.367.916.916 1.466 1.1h27.309c1.833-.55.916-3.666 3.299-3.299h2.749c.733-.183.367-1.1.55-1.833.55-1.466 1.466-3.299 3.116-3.849 1.833-.733 3.849-.367 5.132.916.916.367.916 1.466 1.466 2.016.367 1.283 0 2.932-.733 3.666-1.283 1.1-3.116 1.1-4.582.55-.733-.367-1.1-1.283-1.283-2.016s.183-1.1.367-1.65c.55-.55 1.1-.733 1.833-.55.367 0 .916 0 1.1.55.367.55 0 1.466.55 1.833.183.183.367 0 .367-.183.367-.733 0-1.65 0-2.383-.416-.581-1.131-.867-1.833-.733-.183-.183-.55-.367-.916-.183-.755.275-1.399.79-1.833 1.466-.367.733-.916 1.466-.733 2.383.367 1.65 2.016 2.932 3.666 3.299 1.833.367 3.482-.916 4.765-2.383.916-1.466.916-3.666 0-5.315-1.283-1.833-.367-4.399-.916-6.598l.183-6.232v-5.682c0-.733-.733-.733-1.283-1.1-.733-.367-1.833-1.283-2.016-2.199-.367-.733 0-1.833-.916-2.199-.733 0-1.833 0-2.016-.733 0-.916-.55-1.833-1.1-2.383-.733-.733-1.833-.733-2.566-1.466-1.1 0-1.1-1.283-1.833-1.833 0-1.466-.367-3.666.55-4.765.55-.367.916-1.1 1.466-1.283 1.1 0 2.016-.367 3.116-.183s2.199.733 2.749 1.833c0 .733.367 1.283.183 1.833-.367.916 0 2.016-1.1 2.383l-2.016.916-1.283-.367c-.733-.55-1.1-1.283-.733-2.199 0 0 0-.367.367-.55.916 0 2.199 1.283 2.749 0 .06-.404-.076-.812-.367-1.1-.367-.733-1.283-.916-1.833-.733-.916.367-1.833 1.1-1.833 2.016-.367 1.283 0 2.383 1.1 3.116.55.916 1.833.55 2.566.733l1.65-.55c.916-.55 1.466-1.833 1.833-2.749.733-1.466 0-2.932-.733-4.215-1.283-1.1-2.749-1.833-4.582-1.65-1.1 0-2.383.55-3.299 1.283h-31.891a1.1 1.1 0 0 1-.55-.733v-.916c.183-.367.733-.367 1.1-.55.55-.55 1.283-.55 1.833-.733 1.1-.367 1.833-1.1 3.116-.916.367 0 .916-.367.916-.733.183-.916.367-1.833-.367-2.566 0-.183-.367-.367-.183-.733.367-.367 1.1-.183 1.65-.183h13.746s.367 0 .367.367v2.566c.183.55.733.916 1.283 1.1a11.51 11.51 0 0 1 3.482.55l5.498.55c1.1.183 2.749.367 4.032 0l5.682-.733c1.283 0 2.199.733 3.299 1.1.55.733 1.466 1.283 1.833 2.199 0 .367.367.55.55.916.55 1.283.916 3.116.183 4.582-.183 1.283-.733 2.383-1.466 3.666v25.476l.733 1.833c.55.733.733 1.65 1.1 2.383a7.33 7.33 0 0 1-.733 4.765l-1.466 1.833c-.55.916-1.466 1.1-2.199 1.833-.55 0-.916.367-1.466.55l-2.199.367h-45.82c-.367 0-.367-.183-.55-.367.183-1.1 0-2.199-.367-3.116-.55-.733-1.283-.916-1.833-1.1-1.283-.367-2.199.367-3.116.916-.513.459-.725 1.167-.55 1.833 0 .367.183.916.55.916h.55c.183 0 0-.183 0-.367 0-.733 0-1.833.367-2.199.916 0 1.833-.183 2.566.367.916.55.55 1.833.55 2.566-.367 1.1-1.466 1.833-2.383 1.833-1.283 0-2.383-.183-3.116-1.283-.733-.55-.55-1.833-1.833-1.833h-2.566c-1.283.367-1.283 1.833-2.199 2.566-1.1.733-2.932.916-4.032 0-1.283-.55-.916-1.833-.916-3.116a1.1 1.1 0 0 1 .367-.733c.733-.367 1.833-.55 2.566-.183.367.367.733.916.55 1.466 0 .367-.367.733-.183.916.113.065.253.065.367 0 .55 0 .916-.55 1.1-1.1 0-1.1-.916-1.833-1.833-2.383-.916-.367-2.383-.367-3.299.367-.55.55-.733 1.283-1.1 1.833-.183.733.733 1.466 0 1.833l-.367.367h-45.82a10.63 10.63 0 0 0-2.016-.367c-1.1 0-2.016-1.1-3.116-1.65-.886-.712-1.632-1.582-2.199-2.566-.183-.916-.733-1.65-.733-2.566 0-2.199.55-3.666 1.65-5.498v-23.643c-.183-1.1.183-2.749-.55-3.666-.733-2.383-1.65-4.765-.733-6.781.55-1.833 2.749-3.666 4.215-4.215.733-.367 1.833-.55 2.383 0l5.315.367c1.1.367 2.383 0 3.666 0 .733-.367 1.833 0 2.932 0s1.833.733 2.932.55c.733.367 1.65.183 2.199-.183a3.52 3.52 0 0 0 2.199-.733c.916-.183 1.833-.183 2.383.55z" class="C"/><path d="M263.282 303.067c0 .916.55 1.65.367 2.566.183.733 1.1 0 1.466.733 0 .55-.55 1.283-1.283 1.466-.367.55 0 1.466-.183 2.016-.367 1.283-1.833 1.466-2.566 2.016-.916 0-1.833-.55-2.199-1.1-.183-.55.55-.916.733-1.283 0-.733.367-1.65 1.1-1.833.55-.733 0-2.016.916-2.383l.55.183v2.016c0 .55-.733.916-.183 1.283.733 0 .55-.916.733-1.283l-.183-3.666c0-.367 0-.733.367-1.1l.367.367z" class="D"/><path d="M232.399 311.95l-.367.183c-.516-.209-1.109-.061-1.466.367l-.367-.183c0-.367.367-.916.733-.916.55 0 1.1 0 1.466.55z" class="B"/><path d="M247.866 312.283c.55.367 1.65-.183 1.833.55l-.183.733c-.183.183-.55.367-.733.183-.367-.916-1.833 0-2.016-.916-.367-.367-.367-.733 0-1.1.367-.733.55.55 1.1.55zm11.65.45v.55l-.55.183h-2.199c-.367-.183 0-.55 0-.733l1.466-.733c.55 0 .916.183 1.283.733z" class="D"/><path d="M264.566 312.833l-.183.55a4.95 4.95 0 0 1-1.65.55c-.367 0-.55-.183-.733-.55-.045-.493.162-.976.55-1.283.733 0 1.65 0 2.016.733z" class="C"/><path d="M255.915 312.367c.183.183 0 .55 0 .733l-1.833 1.1c-.55 0-1.1.55-1.833.183-.367-.55-1.65-.55-1.65-1.466.183-.183.183-.55.55-.55h3.116c.55-.367 1.1 0 1.65 0z" class="D"/><path d="M271.831 313.967l3.299 1.283 2.199.55c.916 0 1.833.183 2.383-.367l.916-.367c.367-.367.916-.55 1.833-.55h28.592l.367.183c0 .916-.733 1.833-.55 2.749l.733 2.016c.916 1.1 1.833 2.566 3.299 2.749.55.367 1.1.55 1.466 1.1l.367.55.733 3.299h1.833c.183.55 0 1.1.367 1.466l2.383 1.833c.183 0 .733.183.733.733l.183.55v14.296c0 .367-.55.183-.733.183-.916-.55-2.199-.367-3.299-.367l-1.1.367c-2.016.733-3.666 2.932-4.399 4.765 0 .367 0 .733-.367.916h-2.932c-.733 0-.55.916-.916 1.283l-1.283 1.833-.367.183h-25.659c-.55 0-.916 0-1.1-.367l-1.833-1.65c-.916-.367-1.283 1.283-2.199.916-.916-.733-1.466-1.833-2.566-2.016l-1.65-.55c-1.833 0-4.032.367-5.315 1.833 0 .733-.367 1.466-.916 1.833h-2.016l-2.932-3.116c-.916-.55-1.833-.55-3.116-.733h-.916l-1.466.733c-1.1.733-1.466 1.833-2.383 2.383-.733 0-1.283-.733-1.833-1.1l-2.199 1.833h-26.759l-1.65-3.116c-.183-.367-.55-.367-.916-.367h-2.566c-.367 0-.367-.55-.55-.733-.733-1.283-1.1-2.932-2.566-4.032-.916-.367-1.833-.733-2.383-1.283h-3.116c-.367 0-.733.367-1.1.183 0-1.833-.367-3.299 0-4.765v-9.714c0-.733.733-.916 1.1-1.283.916-.367 1.833-1.1 1.833-1.833.183-.55.55-.55.916-.733l1.466-1.466c0-.55 0-1.466.55-2.016 0-.367 0-.55.367-.916.916-.183 1.833-.733 2.749-1.283a6.6 6.6 0 0 0 2.383-3.116v-4.582l.367-.367c.55 0 .733.367 1.1.55 1.466.183 3.116 0 4.399.367.183 0 .183.183 0 .367-.183.55-1.1 1.1-.55 1.833 0 .367.367.733.733.916 1.1 0 2.016-.55 3.116-.367h2.566c1.1-.733 1.833-1.833 2.749-2.749.367-.367.55-.733 1.1-.733.733 0 1.466-.183 1.833.367h2.749c.55 0 .916-.733 1.65-.367.55.367.916 1.466 1.833 1.1h7.331l.733.733c1.1 0 2.566.367 3.482-.55.733.183 1.1-.916 1.833-.55.916.183 1.833 0 2.749.367.367 0 .55-.55 1.1-.55.916-.367 1.283 1.1 2.199.733h1.283c.733-.55 1.65-.55 2.199-1.283h6.048z" fill="#063"/><path d="M321.25 329.7l.733.733c.367 0 .916.183.916.733v9.897H207.8v-1.1-8.431c0-.916.916-1.1 1.283-1.833h.55 111.801z" class="F"/><g class="B"><path d="M268.498 139.46v2.372h-2.383v-1.825h-.367c-.367 1.825-.183 3.649-.367 5.109h.55v-1.642h2.566v2.737l-1.833.912h-2.199L263 145.846l.183-6.568 1.65-1.277h2.383l1.466 1.46z"/><path d="M271.982 138.365l-.916 6.933h.367l1.1-6.933 2.383.365-1.1 7.663-1.65 1.277-2.383-.547-1.283-1.46 1.1-7.663 2.566.365zm-10.284.93v2.554l-.733.912.916.73.55 3.649-2.199.365-.367-3.649h-.367l.367 3.649-2.383.365-1.283-9.123 3.666-.547 1.833 1.095z"/></g><path d="M267.982 139.677v1.825h-1.466v-1.825a4.75 4.75 0 0 0-1.283 0c-.183 1.825 0 3.832-.367 5.839h1.283l.183-2.007h1.65l-.183 2.189-1.283 1.095h-1.833l-1.283-1.095.183-6.204 1.283-1.095h2.016l1.1 1.277zm3.584-.265l-.916 6.386h1.283l.916-6.751 1.65.182-1.1 7.298-1.283.912-2.016-.365-1.1-1.277 1.1-7.298 1.466.182v.73zm-10.384.1c0 1.095.733 2.554-.733 3.284l1.283.912.367 3.102h-1.466l-.367-3.102c-.55 0-1.833 0-1.1.73l.367 2.919-1.65.182-1.283-8.393 3.116-.547 1.466.912z" class="C"/><path d="M255.582 140.807l-1.65.365c0 .365 0 .912.367 1.277l1.283-.365c.183.73.183 1.46.55 1.825l-1.466.547.367 1.825 1.833-.547.367 2.007-3.849 1.095-.55-.912-1.833-8.028 4.032-1.095.55 2.007zm22.8-1.16l-1.833 6.933 1.833.547-.367 1.825-4.215-.73 2.199-9.123 2.383.547z" class="B"/><path d="M255.166 140.577l-1.833.365c0 .73.367 1.277.55 1.825h1.466l.183 1.095-1.283.365.55 2.372c.55 0 1.1 0 1.65-.365l.367 1.277-3.299.73-2.016-8.211 3.116-.73.367 1.277zm20.967 6.321l1.833.547-.367 1.095-3.299-.73 2.016-8.211 1.466.365-1.65 6.933z" class="C"/><path d="M259.966 142.272h-1.1l-.367-2.007 1.1-.365.367 2.372zm-6.902 6.303l-2.566.912-1.1-3.467-.55.182 1.283 3.467-2.383.73-2.749-8.575 2.199-1.095 1.466 3.467h0l-.916-3.467 2.199-.73v.182l3.116 8.393zm31.268-4.891l-1.65-.547-.367 1.095c.367.365.916.365 1.283.547l-.55 1.825-1.466-.365-.55 1.825 1.833.547-.916 1.825-3.849-1.277 2.932-8.758 4.032 1.277-.733 1.825z" class="B"/><path d="M259.55 141.86H259v-1.46h.367v1.46z" class="E"/><path d="M252.465 148.428l-1.466.365-1.1-3.284-1.283.365 1.1 3.284-1.466.547v-.182l-2.749-7.663 1.466-.547 1.283 3.284 1.1-.182v-.365l-1.1-3.102 1.466-.547 2.749 7.846zm32-6.433l-.367 1.095-1.65-.547-.733 1.825 1.466.73-.367.912-1.466-.182-.733 2.372 1.466.547-.367 1.095-3.116-1.095 2.749-7.846 3.116 1.095z" class="C"/><path d="M289.931 145.537l-.55 1.825-2.199-1.095.55-1.095h-.367l-.733 1.095 1.283.912.733 1.825-1.283 2.372-1.833.73-2.199-.912-.733-1.825.733-1.825 2.199 1.095-.367 1.095h.183c.367-.182.55-.73.733-1.095l-1.1-.912-.916-1.825 1.283-2.372 1.833-.73 2.199.912.733 1.825z" class="B"/><path d="M289.048 144.03c.183.912.916 1.825 0 2.737l-1.283-.547.367-1.095-1.1-.547-.916 1.825 1.466 1.095.55 1.46-1.1 2.372-1.65.365-1.833-.912-.55-1.46.55-1.095 1.466.73-.55.912 1.1.547 1.1-1.825-1.466-.912-.733-1.642 1.1-2.189 1.466-.547 1.833.73z" class="C"/><path d="M243.415 146.637l-.367 1.095 1.1.182 1.833 3.467-2.016 1.095-1.833-3.102h-.367l1.833 3.284-2.199 1.095-4.399-8.028c.916-.73 2.199-1.277 3.299-1.825l1.833.547 1.283 2.189z" class="B"/><path d="M241.899 144.665c.183.912 1.65 1.825.733 2.737 0 .182-.367.547 0 .547l1.1.365 1.65 2.737-1.283.73-1.833-3.102a5.5 5.5 0 0 0-1.1.73l1.833 3.102-1.466.73-4.032-7.298v-.365l2.749-1.277 1.833.365z" class="C"/><path d="M240.7 148.154l-1.1-1.825 1.1-.73 1.1 2.007-1.1.547z" class="B"/><path d="M240.933 147.56l-.733-1.277.183-.182.916 1.277-.367.182z" class="E"/><path d="M297.314 148.572l-.916 1.642c-.55 0-1.1-.73-1.65-.912l-.733.912 1.283.912-1.1 1.825-1.283-.912-2.383 3.102-1.833-1.277 4.949-7.663 3.666 2.372z" class="B"/><path d="M296.631 148.625l-.55 1.095-1.283-1.095-1.283 1.825 1.283.73-.55 1.095-1.283-.73c-1.1.73-1.65 2.007-2.383 3.102l-1.283-.73 4.582-7.116 2.749 1.825z" class="C"/><path d="M240.264 152.674l-.367 1.825-1.833 1.642-2.199-.365-3.666-5.291.367-1.825 1.833-1.46 2.016.365 3.849 5.109z" class="B"/><path d="M240.031 152.809l-.367 1.642-1.833 1.277-1.466-.182-3.666-5.109.367-1.642 1.466-1.095 1.833.182 3.666 4.926z" class="C"/><path d="M238.399 153.744l-.733.73L234 149.73l.916-.73 3.666 4.744z" class="B"/><path d="M237.899 153.514l-.367.365-2.932-4.379h.183l3.116 4.014z" class="E"/><path d="M295.499 156.433l.367.365 4.765-5.474 1.833 1.825-5.315 5.474h-1.833l-1.833-1.46-.183-1.825 5.315-5.839 1.833 1.642-4.949 5.291z" class="B"/><path d="M299.748 151.095l-4.765 5.291.916.912 4.765-5.474 1.283 1.095-4.949 5.474h-1.466l-1.65-1.095-.183-1.825 4.765-5.474 1.283 1.095z" class="C"/><path d="M231.032 152.572l4.765 4.926-1.833 1.825-4.765-5.474c-.32.225-.626.468-.916.73L227 153.302l3.482-3.102 1.283 1.46-.733.912z" class="B"/><path d="M231.266 151.712l-.733.73 4.765 5.474-1.283.912-4.582-5.291-.916.73-.733-.912 2.566-2.554c.367 0 .55.547.916.912z" class="C"/><path d="M304.664 155.26l-1.466 2.737 2.199-1.825 1.65 1.46-6.781 6.204-1.466-1.277 1.65-2.919-2.199 2.007-1.65-1.642 6.781-6.204 1.283 1.46z" class="B"/><path d="M304.065 155.212l-2.566 4.744 3.666-3.467 1.1 1.095-6.048 5.656c-.367-.365-1.466-.73-.733-1.277.916-1.46 1.833-2.919 2.383-4.379l-3.666 3.649-1.1-1.095c1.833-2.189 4.032-4.014 6.232-5.839l.733.912z" class="C"/><path d="M233.229 160.274l-1.65 1.46c-.367 0-.916-.547-1.283-.912-.281.152-.482.418-.55.73l.916 1.095c-.916.912-1.833 1.825-2.383 3.102l-3.116-.912 2.566 1.825-2.566 3.832-.55-.182-7.514-4.197 1.1-2.007 7.331 3.832-6.598-4.744 1.1-1.642 3.116.912-2.383-1.825 1.283-1.825 6.048 4.197-4.765-5.839 2.383-2.372 7.514 5.291z" class="B"/><path d="M232.597 160.044l-1.1 1.095c-.367 0-.733-.547-1.283-.912l-1.1 1.095 1.1 1.277-1.1 1.095-5.315-6.568 1.833-1.825 6.965 4.744z" class="C"/><path d="M229.166 159.472l-.916.912-2.749-2.919.367-.365 3.299 2.372z" class="B"/><path d="M228.45 159.577l-.183.365-1.466-1.642 1.65 1.277z" class="E"/><path d="M309.931 163.909l-4.765 3.284 6.781-2.554 1.65 2.919-7.331 5.474-1.283-1.825 1.283-1.095-.367-.73-1.466.73-1.283-2.189c.367 0 .733 0 1.1-.365l-1.65-.365-2.199-2.919 7.514-5.474 2.199 3.102-.183 1.825z" class="B"/><path d="M228.931 164.044l-.916 1.095-4.949-1.46 4.032 2.919-.733 1.095-6.965-4.744c0-.365.55-.73.733-1.095l5.132 1.642-4.032-2.919.733-1.277 6.965 4.744zm80.866-2.19c0 .547 0 1.277-.367 1.825l-4.765 3.467-1.833-.547-1.833-2.554 6.781-4.744 1.833 2.554z" class="C"/><path d="M308.498 162.312l-4.765 3.467-.733-.912 4.765-3.467.733.912z" class="B"/><path d="M307.715 162.365l-4.032 2.737-.183-.182 4.215-2.919s.367.182 0 .365z" class="E"/><path d="M225.664 168.514c0 .547-.55.912-.733 1.46l-7.331-4.014c0-.547.55-.912.733-1.46l7.331 4.014zm86.2-3.414c.367.73.916 1.46 1.1 2.372l-6.781 4.926a8.38 8.38 0 0 1-.733-1.46l1.283-.912-.733-1.277-1.466.547-.733-1.277 7.881-2.919z" class="C"/><path d="M311.149 167.347l-3.299 2.007-.55-.912 3.666-1.642.183.547zm-87.185 5.492l-2.932-1.46 2.749 1.825-.367 1.095-3.482-.912 3.116 1.46c0 .73-.367 1.46-.733 2.007l-8.614-3.649 1.1-2.554 3.666.912-3.116-2.007 1.1-2.554 8.248 3.649-.916 2.189z" class="B"/><path d="M224.28 171.067l-.55 1.095h-.183l-4.949-2.189-.183.547 4.765 2.919c0 .182 0 .547-.367.365l-5.315-1.46v.73l4.765 1.825-.55 1.277-7.514-3.102.733-1.825c1.466.182 2.932.73 4.215 1.095l.367-.547-3.666-2.372.733-1.825 7.698 3.467z" class="C"/><path d="M307.983 168.795l-.183-.365 1.833-.73-1.65 1.095z" class="E"/><path d="M316.397 174.179l-1.833.73c-.367-.365-.183-1.095-.733-.912l-6.415 2.372-.916-2.189 6.598-2.554c0-.365 0-.73-.367-1.095l1.833-.73 1.833 4.379z" class="B"/><path d="M315.797 173.949l-1.1.365c-.367-.182 0-1.277-.733-.912l-6.415 2.372-.55-1.46 6.598-2.554c0-.182 0-.547-.367-.912l1.1-.547 1.466 3.649z" class="C"/><path d="M221.531 178.384l-.367 2.372-1.833 1.095-6.232-1.825-.916-1.642c.183-.912-.183-2.189 1.1-2.737l1.1-.547 6.232 1.825.916 1.46z" class="B"/><path d="M221.014 178.702l-.55 1.825-1.283.912-6.048-1.46-.733-1.46.55-2.007 1.283-.912 5.865 1.642.733 1.46z" class="C"/><path d="M317.481 176.695l.55 2.189-.916 1.825-6.232 1.642c-.733-.547-1.833-.73-1.833-1.825l-.55-1.277.916-1.825 6.415-1.825c.55.365 1.283.547 1.833 1.095z" class="B"/><path d="M317.048 176.912l.55 1.825-.916 1.642-5.865 1.46-1.466-.912c0-.73-.55-1.46-.367-2.189l.733-1.095 6.048-1.642 1.283.912z" class="C"/><path d="M219.382 179.937l-5.682-1.642.183-1.095 5.682 1.46-.183 1.277zm96.5-2.337l.367 1.095-5.682 1.642-.367-1.277 5.682-1.46z" class="B"/><path d="M219.149 179.342l-4.949-1.277v-.365l4.949 1.277v.547zm96.5-1.06v.182l-4.765 1.277-.183-.365 4.949-1.277v.182z" class="E"/><path d="M220.014 183.937l-.55 3.649-9.164-1.46.55-3.649 1.833-1.277 6.232 1.095 1.1 1.642zm99.2 1.012l-1.1 1.825-2.383.365-.916-.73c-.367.365-.367.912-.733 1.095-1.283 0-2.383.365-3.666.547l-.367-2.372a29.63 29.63 0 0 0 3.482-.547v-.365l-3.666.547-.367-2.372 9.164-1.642.55 3.649z" class="B"/><path d="M218.864 182.695l.733 1.277-.55 3.284-8.248-1.46.55-3.284 1.283-.912 6.232 1.095zm99.933 2.207l-.916 1.46-2.199.365-.916-.912-.916 1.277-3.116.547-.183-1.46 3.116-.73v-1.095l-3.666.365v-1.46l8.248-1.46.55 3.102z" class="C"/><path d="M218.065 185.389l-5.865-.912.183-1.277 5.865 1.095-.183 1.095zm99.318-1.789v1.277c-.55 0-1.466 0-2.199.365l-.183-1.277 2.383-.365z" class="B"/><path d="M217.749 184.612v.365l-4.949-.912v-.365l4.949.912zm97.751-.065v-.365l1.466-.182v.365l-1.466.182z" class="E"/><path d="M269.166 316.583l-.55.55-2.566 1.1-.55-.916 2.016-1.833h.916c.183.183.55.55.55 1.1zm36.766-1.283c.183.55 1.1 1.1.367 1.833l-2.749 1.1-.55-.733 2.016-2.199h.916z" class="B"/><path d="M268.566 316.233l-.183.55-2.199.916-.183-.367 1.833-1.65c.367-.183.367.367.733.55zm37.4.183v.367l-2.566.916.183-.367 1.283-1.466c.55-.367.733.183.916.55z" class="C"/><path d="M230.349 318.4l1.283 7.881V318.4h2.199l1.1 3.666V318.4h2.383v10.08h-1.833l-1.1-3.482v3.482h-5.315v-1.833h-1.1l-.183 1.833H225.4l1.466-10.08h3.666zm13.333 1.466v6.048l1.1-7.331 3.666-.183 1.1 8.064V318.4h2.749v7.881h2.199v2.199h-7.148l-.183-1.833h-.916l-.183 1.833H243.5c0-.367.183-.916 0-1.466l-1.466 1.466H238V318.4h4.032l1.833 1.466zm12.684-1.466l.55 5.682.55-5.498 2.566-.183c0 .55-.183 1.1 0 1.466l1.466-1.466h2.383l1.833 1.466v2.566h-2.749V320.6h-.55v5.498c0 .367.367 0 .55.183v-2.383h2.566v2.932l-1.65 1.466h-2.383l-1.833-1.466v-6.232l-.733 7.881h-3.666L253.8 318.4h2.566zm12.2 8.431l1.283-8.431h3.666l1.466 9.897-2.566.183-.183-1.833h-1.1v1.833H266V318.4h2.566v8.431zm12.1-8.431l1.833 1.65 1.833-1.65h2.383l1.65 1.466v7.148l-1.65 1.466h-2.383l-1.466-1.466v-6.965l-.183 3.666-1.833 1.466h-1.1v3.299H277V318.4h3.666zm13.832 1.466v2.749l-.916.916 1.1.733v4.215h-2.566v-3.666l-.55-.183v3.666l-2.566.367V318.4h4.032l1.65 1.466zm8.384 0v2.199h-2.383v-1.283h-.733v1.65h1.65l1.283 1.466v3.116l-1.466 1.466h-2.383l-1.65-1.466v-1.833l2.566-.183v1.283h.55v-1.65h-1.283l-1.833-1.833v-2.566l1.65-1.833h2.383l1.833 1.466zm3.184 8.614H303.5V318.4h2.566v10.08z" class="B"/><path d="M231.398 327.964h-1.833v-1.833l-1.833.183v1.833H225.9l1.283-9.347h2.932l1.283 9.164zm18.1 0h-1.833v-1.833l-1.833.183v1.833H244l1.283-9.347h2.932l1.283 9.164zm25 0h-1.833v-1.833l-1.833.183v1.833H269l1.283-9.347h2.932l1.283 9.164zm-41.032-9.064l1.833 5.498V318.9h1.833v9.164h-1.65l-1.833-5.498v5.498H232V318.9h1.466zm9.883 1.283v6.598l-1.283 1.283H238.4V318.9h3.666l1.283 1.283zm8.684 6.598h1.833v1.283H250.2V318.9h1.833v7.881zm4.65-.55h.55l.55-7.331h1.833l-1.1 9.164h-2.932L254.3 318.9h1.833l.55 7.331zm7.283-7.331l1.283 1.283v1.833h-1.833v-1.833h-1.283v6.598h1.283v-2.383h1.833v2.383l-1.283 1.283h-2.199l-1.466-1.283v-6.598l1.283-1.283h2.383zm4.367 9.164H266.5V318.9h1.833v9.164zm13.832-7.881v3.482l-1.466 1.1h-1.466v3.299H277.4V318.9h3.299l1.466 1.283zm5.784 0v6.781l-1.283 1.1h-2.383L283 326.781v-6.598l1.283-1.283h2.383l1.283 1.283zm5.117-1.283l1.283 1.283v2.199l-1.283 1.1 1.283 1.1v3.666h-1.833v-4.215a2.56 2.56 0 0 0-1.283.367v3.666H289.4V318.9h3.666zm9.483 1.283v1.283h-1.833v-1.1h-1.283v2.199l1.833.183 1.283 1.283v2.749l-1.283 1.283h-2.383l-1.283-1.1v-1.466h1.833v1.283h1.283v-2.383l-1.833-.183-1.283-1.283v-2.749l1.283-1.283h2.383l1.466 1.283zm3.084 7.881H303.8V318.9h1.833v9.164z" class="C"/><path d="M241.583 326.715H240.3V320.3h1.283v6.415zm38.717-3.299h-1.1V320.3h1.1v3.116zm5.883 3.299H284.9V320.3h1.283v6.415zm6.3-3.849H291.2V320.3h1.283v2.566zm-63.567-2.366l.55 4.399H228l.367-4.399h.55zm18.367 4.399H246l.367-4.399h.55l.367 4.399zm24.633-4.399l.55 4.399H271l.367-4.399h.55z" class="B"/><path d="M241.067 326.198h-.367V320.7h.367v5.498zm38.9-3.299h-.367V320.7h.367v2.199zm5.883 3.299h-.55V320.7h.55v5.498zm6.217-3.665h-.367V320.7h.367v1.833zm-63.667 1.85l.183-2.383.183 2.383h-.367zm18.2 0l.183-2.383.183 2.383h-.367zm24.9 0l.183-2.383.367 2.383h-.55z" fill="#219f45"/><path d="M288.482 328.733l.733.367c-.733.367-1.833 1.833-2.749.733l-.733.367a2.93 2.93 0 0 1-.733-.55c.916-.183 1.833-1.65 2.566-.55l.916-.367z" class="B"/><path d="M287.533 329.55l.733-.367-.916.55c-.55-.367-.916-.733-1.65 0h0c.367-.183.916-.733 1.283-.733l.55.367z" class="C"/><path d="M248.097 338.631l.367-8.431h4.032l1.65 1.466v2.749l-.916.916.916.733v2.199l1.283-8.064h3.482l.367 1.833 1.1 8.248h-2.566v-1.833h-1.1l-.183 1.833h-5.132v-3.666l-.367-.183v3.666h-5.315l-.183-1.466h-.916l-.183 1.65h-2.383l.55-4.582-1.65 1.466h-1.283v3.299H237.1V330.2h3.849l1.833 1.65v3.116l.55-4.765h3.666l1.1 8.431zm18.402-8.431v1.466l1.833-1.466h2.383l1.65 1.466v2.199h-2.566v-1.1h-.367v1.1h1.65l1.466 1.65v3.116l-1.466 1.466h-2.932l-1.466-1.466v1.466H262.1V330.2h4.399zm16.398 0l1.1 7.881V330.2h2.383c.367 1.1.55 2.383 1.1 3.482V330.2h2.383v7.698l1.466-7.698h3.666l1.283 10.08h-2.566v-1.833h-1.1l-.183 1.833h-4.765c-.367-1.1-.55-2.383-1.1-3.482v3.666h-4.765l-.183-1.833h-.916l-.183 1.833h-2.566l.55-5.132-1.65 1.466h-1.283v3.299H273V330.2h4.032l1.466 1.833v3.116l.916-4.949h3.666z" class="B"/><path d="M247.998 339.764h-1.833v-1.833l-1.833.183v1.833H242.5l1.283-9.347h2.749l1.466 9.164zm11.8 0h-1.833v-1.65h-1.833v1.833H254.3l1.283-9.164v-.183h2.932l1.283 9.164zm6.368-7.698h-1.833v2.199h1.466v1.283l-1.466.183v2.749h1.833v1.466H262.5V330.6h3.666v1.466zm17.632 7.698h-1.833v-1.65c-.55 0-2.016-.55-1.833.55v1.1H278.3l1.283-9.164h2.749l1.466 9.164zm11.7 0h-1.833v-1.833l-1.833.183v1.833H290l1.283-9.347h2.932l1.283 9.164zm-53.233-7.781v3.482l-1.466 1.1h-1.466v3.299H237.5V330.7h3.299l1.466 1.283zm11.384 0v2.383l-1.283.916 1.283 1.1v3.666h-1.833v-3.849h-1.283v3.666H248.7V330.7h3.666l1.283 1.283zm18.3 0v1.466h-1.833v-1.283h-1.283v2.199l1.833.183 1.283 1.283v2.932l-1.283 1.1h-2.383l-1.283-1.1v-1.466h1.833v1.283h1.283v-2.383l-1.833-.183-1.283-1.283v-2.749l1.283-1.283h2.383l1.466 1.283zm6.116 0v3.482l-1.466 1.1h-1.466v3.299H273.3V330.7h3.299l1.466 1.283zm7.901-1.283l1.833 5.498V330.7h1.65v9.164h-1.466l-1.65-5.498v5.498H284.5V330.7h1.466z" class="C"/><path d="M240.4 335.116h-1.1V332h1.1v3.116zm11.483-.733H250.6V332h1.283v2.383zm24.317.733h-1.1V332h1.1v3.116zm-30.317 1.683H244.6l.367-4.399h.55l.367 4.399zm11.8 0H256.4c0-1.466 0-2.932.367-4.399h.55l.367 4.399zm24 0H280.4l.367-4.399h.55l.367 4.399zm11.8 0H292.2l.367-4.399h.55l.367 4.399z" class="B"/><path d="M268.466 336.349h1.283v1.833h-.367v-1.283h-2.749v1.1H264.8v-1.833h1.466v-2.199H264.8V332.5h1.833v2.383l1.833 1.283zm-28.399-1.65h-.367V332.5h.367v2.199zm11.3-.366H251V332.5h.367v1.833zm24.6.366h-.367V332.5h.367v2.199zM245 336.366l.183-2.566.367 2.566H245zm35.8 0l.183-2.566.367 2.566h-.55zm11.8 0l.183-2.566.183 2.566h-.367zm-35.8-.183l.183-2.383.183 2.383h-.367z" class="E"/><path d="M231.766 342l.733 2.749.733-2.749h2.566v.367l-1.833 5.682v4.032h-2.932v-4.582L229.2 342h2.566zm8.6 7.881h1.65l1.1-7.881h3.666l1.283 10.08h-2.566v-1.833h-1.1l-.183 1.833H237.8V342h2.566v7.881zm12.2-4.032h.55v-3.666h5.132l.55 5.498.55-5.498 5.315-.183.733 4.215.55-4.215h3.116v8.064l1.1-8.064h3.666l1.1 7.881V342h2.566c.55 1.1.733 2.383 1.1 3.482V342h2.566v10.08h-2.199l-1.1-3.482v3.482h-4.765l-.183-1.833h-.916l-.183 1.833h-5.315v-4.032l-.55 4.032h-1.283c0-1.283 0-2.749-.367-4.032v4.032h-2.566v-8.797L261 352.08h-3.666l-1.65-8.797v8.797h-2.749v-3.849h-.367v3.666H250V342h2.566v3.849zm31.6 6.231H281.6V342h2.566v10.08zm6.416-8.614v6.048l1.283-7.331 3.666-.183 1.1 8.431V342h4.215l1.65 1.466v7.148l-1.65 1.466h-6.598v-1.833h-1.1l-.183 1.833h-2.566v-1.283l-1.283 1.283H284.9V342h4.032l1.833 1.466z" class="B"/><g class="C"><path d="M231.633 342.5l.916 4.032.916-4.032h1.833l-1.833 5.498v3.666h-1.833v-3.666L229.8 342.5h1.833zm8.4 7.881h1.833v1.283H238.2V342.5h1.833v7.881z"/><path d="M247.615 351.664h-1.833v-1.833l-1.833.183v1.833h-1.65c0-3.482.733-6.415 1.1-9.347h2.749l1.65 9.164zm4.618-5.315h1.283V342.5h1.833v9.164h-1.833v-3.666l-1.283-.367v4.032H250.4V342.5h1.833v3.849zm5.8-3.849l.55 7.331h.55l.55-7.331h1.833l-1.1 9.164H257.3l-1.1-9.164h1.833zm7.199 4.582h.733l.55-4.582h2.199v9.164h-1.466v-6.048h-.55l-.733 6.048h-.55l-.916-6.048h-.367v6.048H262.3V342.5h2.199l.733 4.582zm9.666 4.582h-1.833v-1.833l-1.833.183v1.833H269.4l1.283-9.347h2.932l1.283 9.164zm2.168-9.164l1.833 5.498V342.5h1.65v9.164h-1.466l-1.65-5.498v5.498H275.6V342.5h1.466zm6.767 9.164H282V342.5h1.833v9.164zm6.416-7.881v6.781l-1.283 1.1H285.3V342.5h3.666l1.283 1.283zm6.049 7.881h-1.833v-1.833l-1.833.183v1.833H290.8l1.283-9.347h2.932l1.283 9.164zm4.468-9.164l1.283 1.283v6.781l-1.283 1.1H297.1V342.5h3.666z"/></g><path d="M288.283 350.415H287V344h1.283v6.415zm12 0H299V344h1.283v6.415zm-55.167-6.215l.55 4.399H244.2l.367-4.399h.55zm27.3 0l.55 4.399H271.5l.367-4.399h.55zm22.05 4.399H293l.367-4.399h.55l.55 4.399z" class="B"/><path d="M288.05 349.798h-.55V344.3h.55v5.498zm11.617 0h-.367V344.3h.367v5.498zM272 348.166l.183-2.566.183 2.566H272zm-27.3 0l.183-2.566.183 2.566h-.367zm48.7 0l.183-2.566.183 2.566h-.367z" fill="#219f45"/></g></svg>