<svg id="flag-icons-es-ct" viewBox="0 0 512 512" version="1.1" xml:space="preserve" xmlns="http://www.w3.org/2000/svg"><defs id="defs9"><clipPath id="clip-path" transform="translate(3.4)"><path class="cls-1" id="rect4" d="M0 0h83.6v114.8H0z"/></clipPath><clipPath id="clip-path-2" transform="translate(3.4)"><path class="cls-1" d="M9.4 33.7v47.5a32 32 0 1 0 66 0V33.7Z" id="path7"/></clipPath><clipPath id="clip-path-3" transform="translate(3.4)"><path class="cls-1" d="M43 68.7v45.8a33.2 33.2 0 0 0 33-33.3V68.7Z" id="path10" color="#000"/></clipPath><clipPath id="clip-path-5" transform="translate(3.4)"><path d="M9.4 68.7v12.5a33.1 33.1 0 0 0 33 33.3V68.7Z" id="path13" class="cls-1"/></clipPath><style id="style2">.cls-1,.cls-14,.cls-18{fill:none}.cls-2{clip-path:url(#clip-path)}.cls-3,.cls-8{fill:#d22333}.cls-13,.cls-15,.cls-21,.cls-3{fill-rule:evenodd}.cls-5{clip-path:url(#clip-path-2)}.cls-6{fill:#fce400}.cls-9{fill:#fff}.cls-14,.cls-18{stroke:#000}.cls-14{stroke-miterlimit:3.86}.cls-12{fill:#e2cc6c}.cls-13{fill:#487252}.cls-14{stroke-width:.49px}.cls-16{fill:#a6af86}.cls-17{fill:#e89e00}.cls-18{stroke-width:.01px}.cls-20{fill:#797130}.cls-21{fill:#67a275}</style></defs><path fill="#fcdd09" d="M0 0h512v512H0z" id="path2"/><path stroke="#da121a" stroke-width="60" d="M0 90h810m0 120H0m0 120h810m0 120H0" transform="scale(.6321 .94815)" id="path4"/><g id="layer1"><g id="Capa_1-2" data-name="Capa 1" transform="translate(151.3 113.5) scale(2.48163)"><g class="cls-2" clip-path="url(#clip-path)" id="g22"><path class="cls-3" d="M6.4 32.7s20.9-2 29.7-2 30.1.5 36.2 1.8v1.1H6.5Z" transform="translate(3.4)" id="path18"/><path d="M72.5 81.2a33 33 0 1 1-66 0V33.7h66z" transform="translate(3.4)" id="path20" style="fill:#243a95"/></g><g class="cls-5" clip-path="url(#clip-path-2)" id="g26"><path class="cls-6" id="rect24" d="M42.9 68.7h33v46h-33z"/></g><g clip-path="url(#clip-path-3)" id="g36" style="clip-path:url(#clip-path-3)"><path class="cls-8" id="rect28" d="M46.5 68.7h3.7v55.7h-3.7z"/><path class="cls-8" id="rect30" d="M53.9 68.7h3.6v55.7H54z"/><path class="cls-8" id="rect32" d="M61.2 68.7h3.7v55.7h-3.7z"/><path class="cls-8" id="rect34" d="M68.5 68.7h3.7v55.7h-3.7z"/></g><g class="cls-5" clip-path="url(#clip-path-2)" id="g42"><path d="M82.8 119H39V68.4h43.7zm-43-.6h42.4V69H39.7Z" transform="translate(3.4)" id="path38"/><path class="cls-9" id="rect40" d="M.3 68.7h42.5v50H.3z"/></g><g clip-path="url(#clip-path-5)" id="g46" style="clip-path:url(#clip-path-5)"><path class="cls-8" id="polygon44" d="M25.2 88.5H4.1v-3h21.1V64h3v21.5h31.1v3H28.2v31.2h-3z"/></g><g class="cls-5" clip-path="url(#clip-path-2)" id="g54"><path d="M39.8 119H-3.5V68.4h43.1Zm-42.6-.6h42V69h-42Z" transform="translate(3.4)" id="path48"/><path class="cls-6" id="rect50" d="M3.1 32h39.8v36.7H3z"/><path d="M39.8 69H-.6V31.7h40.4ZM0 68.4h39.1v-36H0Z" transform="translate(3.4)" id="path52"/></g><g class="cls-2" clip-path="url(#clip-path)" id="g628"><path d="M72.5 81.2a33 33 0 1 1-66 0V33.7h66z" transform="translate(3.4)" id="path56" style="stroke-width:.64px;stroke-miterlimit:3.86;stroke:#000;fill:none"/><path d="M41 1.7c0 1.2 1.4.7 2 1.5.3.5.8 1 .7 1.5-.7.6-1.1-.5-1.9 0a2 2 0 0 0-1 .5 7.2 7.2 0 0 0-.1 2.3c.2.3 0 .9.4 1a1.9 1.9 0 0 1 1.2.5 4.4 4.4 0 0 0 1.2 1.6c.7-.5.5-2 1.7-1.8a1.5 1.5 0 0 0 .5.4c0-.5-.3-.8-.4-1.2 0-.7.6-1 1-1.5s1.3-.6 1.6-1.2c.1-.1.3 0 .4 0 .2.8 1 .4 1.4 1 .6.2.6.8 1 1 .2.4-.2 1-.3 1.4.3 0 .7-.3 1-.1h.3a7.5 7.5 0 0 1 1.3 2.2c1-.2.8-1.3 1.6-1.7.4-.3 1.2 0 1.4-.6 0-1.2.5-2.4-.6-3.3-.5-.6-1.3-.3-2-.5 0-.7.6-1.3 1.2-1.7.6-.4 1.5-.2 1.4-1 .4-.7.8-1.5 1.6-1.6a3.4 3.4 0 0 1 1 2.2 4.6 4.6 0 0 1 1.8 1c.2.6 1 1 .6 1.6-.7.1-1.4-.5-2.1-.1-1 .8-.8 2.3-.5 3.5.4.3.9.2 1.2.7.6.5.5 1.4 1.2 1.8l.1.2c.3 0 .2-.5.4-.6.6-.4 1-1.5 1.9-1h.1a2.5 2.5 0 0 0-.2-.5c-.2-1.2 1-2 1.7-2.5.3 0 .8-.3.9-.7h.3c.3 1 1.4.7 1.8 1.5.5.4.9 1 .7 1.5-.1.2-.4.5-.2.7a1.1 1.1 0 0 1 1 0 9 9 0 0 1 1 1.6c0 .3 0 .6.3.8.2-.3.7-.5 1-1a1.4 1.4 0 0 1 2.3-1 3.8 3.8 0 0 1 .6 1 1.5 1.5 0 0 0 .9-1.1 4 4 0 0 0-2-4c-.2-.1-.2-.3 0-.5a2.4 2.4 0 0 1 1.8-.7c.7-1.1 1.7-2.4 3.2-2.4a1.8 1.8 0 0 1 1.2.1c-.3.8-1.2 1-1.6 1.7-1.2 1.8-.5 4.5-.7 6.7a6.3 6.3 0 0 1-2.2 3.8 4.5 4.5 0 0 1-.2 1.7 3 3 0 0 1-.5 3c0 .7-.7 1-1 1.6.6.7-.6 1.7.4 2.2a.8.8 0 0 1-.2 1c-.2.2-.6 0-.7.4v1a3.1 3.1 0 0 1 1 3.1c-.2 1.2-1.9 1.5-1.5 2.9.3.3.9.2 1 .8 0 .5-.2 1-.7 1a19.4 19.4 0 0 1-2.7-.1l-8.7-.8-14.7-.6H33.3c-9 .1-18 .6-27 1.6a1.3 1.3 0 0 1-.7-.7 1 1 0 0 1 .6-1.1c0-.7.3-1.6-.6-2a3 3 0 0 1-.5-2.8 6.9 6.9 0 0 1 .7-1.1c0-.5 0-1.3-.4-1.6a1 1 0 0 1-.6-.6c-.3-.5.6-.8.5-1.3V21a13.7 13.7 0 0 1-1.5-1.8c-.5-1.5.5-3 0-4.3-1.7-1.7-2.1-4.3-1.7-6.7A15 15 0 0 1 2 6.4C1.7 5.1 1.4 3.6.1 2.9 0 2.8 0 2.6 0 2.5a2.5 2.5 0 0 1 2 .4 5.8 5.8 0 0 1 1.8 1.7 3 3 0 0 1 1.8.7 1.3 1.3 0 0 1 .3 1 3.7 3.7 0 0 0-2 3.3c0 .6 0 1.2.5 1.5a2.1 2.1 0 0 1 .9-1.2 1.8 1.8 0 0 1 2 .6c.4.4.1 1.1.7 1.4.2.2.6.4.7 0 .3-.8.5-2 1.5-2h.4a3 3 0 0 1-.1-1.4c.2-.2.1-.5.2-.8.3-.8 1.4-.7 1.5-1.6.2 0 .4-.3.6-.1.2.4.7.5 1 .6.6.6 1.5.6 1.7 1.4.2.5-.2 1-.2 1.5a1.6 1.6 0 0 1 1-.3c.8.4 1.2 1.2 1.7 1.8 1-.2 1-1.3 1.8-1.6a2.7 2.7 0 0 0 1-.7 8.6 8.6 0 0 0-.2-2.6 2.3 2.3 0 0 0-.7-1 3 3 0 0 0-1.7 0 .3.3 0 0 1-.3-.2c0-1 1.1-1.7 2-2.1A5.2 5.2 0 0 1 21.3 0c.8.1 1 1 1.4 1.5.2.4 0 .9.6 1a3 3 0 0 1 2 1.8.5.5 0 0 1-.2.6c-.7-.1-1.7-.4-2.2.3a3.6 3.6 0 0 0-.2 2.4c.2.3.1.8.6 1 1.4 0 1.4 1.6 2.5 2.2.5-.5.5-1.4 1.3-1.7.3 0 .4.3.7.3 0-.5-.4-1-.2-1.5a3.5 3.5 0 0 1 2-2c.2-.2 0-.8.5-.6.6.7 1.7.8 2.4 1.5.5.5.3 1.2.3 2 .3 0 .7-.4 1-.2a3.8 3.8 0 0 1 1.5 2.2c.5-.3 1.1-.7 1-1.4.3-.6 1-.7 1.4-1 .2 0 .5 0 .5-.2v-2a2.1 2.1 0 0 0-1.5-1.6c-.5-.2-1.3.6-1.3-.2.3-1 1.5-1.6 2.4-2a11.7 11.7 0 0 1 .8-1.8c.2-.4.6-.4 1-.6.7.2.9 1 1.3 1.7m30 12.8-.4-.3c-.6.7-.9 1.6-1.8 1.9-.5.3-.7-.4-1-.5l.3 1.2a3.6 3.6 0 0 1-1.3 2c-.2.1-.7 0-.7.3a4.4 4.4 0 0 0 5.7.8c.3-.2.7-.5.8-.9a2 2 0 0 1-1-1.3c.4-1.4-1.3-1.8-.7-3.2M62.1 16a8.8 8.8 0 0 1-1.2-2.6c-1.1.5-.4 1.8-1.2 2.4-.9.4-.3 1.3-.7 1.8a2.8 2.8 0 0 1-1.3 1.1 3.2 3.2 0 0 0 1.5 1 4.4 4.4 0 0 0 4.6-1c.3-.3-.2-.5-.3-.7a2 2 0 0 1-.3-2H63c-.3.2-.8.4-1 0m-8.6-1.7-.6-.6c-.4.6-.7 1.5-1.5 1.6h-.6a2.1 2.1 0 0 1-.5 2c-.2.5-.9.5-1.1 1a4.2 4.2 0 0 0 2.2 1.3 4.6 4.6 0 0 0 3.8-.9c.1-.2-.2-.4-.4-.5-.6-.3-.6-1.1-.5-1.6a2.1 2.1 0 0 1-.8-2.3m-9.3.9c-.6-.4-.3-1.3-.8-1.7-1.4.4-.2 2.2-1.6 2.6-.1.7.2 1.2-.4 1.7-.1.2-.5.1-.5.5a4.1 4.1 0 0 0 4.1 1 3 3 0 0 0 1.9-1.3c-.4-.5-1-1-1.2-1.6-.1-.3.2-.6 0-.9-.1 0-.2 0-.3.2-.5.1-.8-.3-1.2-.6m-8-1-.6-.7A3.3 3.3 0 0 1 34 15h-.8c.8 1.3-.7 2-1.3 3a3.3 3.3 0 0 0 1 .7 4.4 4.4 0 0 0 4.1 0c.2-.2.6-.3.6-.6a1.8 1.8 0 0 1-.7-2 2.2 2.2 0 0 1-.7-2.1M26 13.2c-.2 0-.3.3-.4.4a2.5 2.5 0 0 1-.4 2c-1 .4-.1 1.2-.6 1.8a2.6 2.6 0 0 1-1.2 1 2.3 2.3 0 0 0 1 .8 4.5 4.5 0 0 0 4.7-.5c.2-.2.5-.4.6-.8-.6-.7-2-1.3-1.3-2.4-.3 0-.6.4-1 .2-.2-.1-.5-.3-.5-.6a7 7 0 0 1-.9-2m-7.5 1.2a.4.4 0 0 0-.4-.5c-.4.6-.7 1.3-1.3 1.7a1 1 0 0 1-1.3 0l.4.5c.5 1.2-.6 1.9-1.3 2.6 0 .5.6.6 1 .9a4.7 4.7 0 0 0 4.4-.3c.3-.2.7-.4.7-.8a1.7 1.7 0 0 1-.8-.6 3.2 3.2 0 0 1-.3-1.5 2.1 2.1 0 0 1-1-2m-9.6.6-.3-.5c-.8.1-.4 1-.7 1.5-1 .7-.3 2-1.2 2.6-.2.3-.6.4-.7.7a4.2 4.2 0 0 0 3.2 1.4 4 4 0 0 0 3.5-2 4.2 4.2 0 0 1-1.7-1.3 2.2 2.2 0 0 1 0-1.2 1 1 0 0 1-.7.2c-.7 0-1-.9-1.4-1.4" transform="translate(3.4)" id="path58"/><path class="cls-12" d="M22.4 2c.2.4 0 .8.4 1a1.9 1.9 0 0 1 1.8 1 .4.4 0 0 1 0 .2c-.6.1-1.2 0-1.8.3a2.9 2.9 0 0 0-.7 1.9c.2 2 1.2 3.6 1 5.6a1 1 0 0 1-.7.7 1.1 1.1 0 0 1-1-.2c-1.3-1.5.2-3 0-4.8-.2-.6 0-1.2-.3-1.8a2.7 2.7 0 0 0-1-1.3c-.4-.2-1-.1-1.4-.3.5-1 2.1-.9 1.9-2.2.2-.5.4-1.1 1-1.4a2.4 2.4 0 0 1 .9 1.4" transform="translate(3.4)" id="path60"/><path class="cls-12" d="M40.3 1.7a6.5 6.5 0 0 0 .3 1.2 3.2 3.2 0 0 1 2 1 3.1 3.1 0 0 0-2.1.6c-1.4 1.9-.1 4.1.2 6 .2.6 0 1-.2 1.6-.3.3-.7.8-1.1.6-.5-.2-.7-.7-.8-1-.3-2 1-3.5.2-5.4a2.6 2.6 0 0 0-1-2l-1.1-.2c.1-.5.7-.5 1-.8.5-.1 1-.2 1-.9a3.2 3.2 0 0 1 .5-1.1c.2-.1.3-.5.6-.4a2 2 0 0 1 .5.9" transform="translate(3.4)" id="path62"/><path class="cls-12" d="M58 1.6a4.2 4.2 0 0 1 .2 1.3c.5.5 1.2.4 1.7 1 .1.1.3.2.3.5-.7 0-1.7-.1-2 .6a2.9 2.9 0 0 1-.5 1c-.3 2 .5 3.7.6 5.6a1.8 1.8 0 0 1-.6 1.1c-.3.2-.7.4-1 .2-.3-.3-.6-.6-.7-1-.2-2 1-3.4.8-5.5a2.8 2.8 0 0 0-1.7-2.3h-.6c.3-1 1.4-.7 1.9-1.4 0-.6 1.1-3 1.6-1.1" transform="translate(3.4)" id="path64"/><path class="cls-12" d="M78.2 3A7.4 7.4 0 0 0 77 5c-.7 2.4 0 4.8-.7 7A6.8 6.8 0 0 1 74 15a.7.7 0 0 1-.7-.3 2.2 2.2 0 0 1 .5-2.3c.8-.6 2-1 2.2-2A4.2 4.2 0 0 0 74.4 6a2.4 2.4 0 0 1-.3-.5c.5-.7 1.3.3 1.7-.6a2.7 2.7 0 0 1 2.4-2" transform="translate(3.4)" id="path66"/><path class="cls-12" d="M3.3 5c.5.4 1.5.1 1.8 1a4.5 4.5 0 0 0-1.8 4.6 1.8 1.8 0 0 0 .8 1.3 1.6 1.6 0 0 0 .7.1A2.9 2.9 0 0 1 6 14.4a1.6 1.6 0 0 1-.3.6c-1.6-.3-2.7-2-3-3.6-.4-1.6.3-3.3 0-5a14.8 14.8 0 0 0-.8-2.9A2.6 2.6 0 0 1 3.2 5" transform="translate(3.4)" id="path68"/><path class="cls-12" d="M49.8 7a1.1 1.1 0 0 1 .3 1 7.2 7.2 0 0 1-1.3 2.4c-.4 0-.9-.3-1.3 0-.4-.2-.5-.6-.8-.9-.2-.7-1.2-1.5-.5-2.2A4.5 4.5 0 0 1 48 6a5.5 5.5 0 0 1 1.7 1" transform="translate(3.4)" id="path70"/><path class="cls-12" d="M32.4 7.4c.3 1.1-.6 1.8-1 2.8-.7-.1-1.6.9-2.2 0a2.8 2.8 0 0 1-1-2.2c0-.7 1-.9 1-1.5l1-.4a5 5 0 0 1 2.2 1.3" transform="translate(3.4)" id="path72"/><path class="cls-12" d="M67 7.3c.5.1.8.7 1.1 1 0 .8-.6 1.3-.9 2a6.3 6.3 0 0 1-.7 1 3.4 3.4 0 0 0-1.5 0c-.1-1.2-2-2.2-.7-3.4l1.6-1c.4 0 .6.4 1 .4" transform="translate(3.4)" id="path74"/><path class="cls-12" d="M14.8 7.9c.4.5-.2 1.1-.3 1.7a14 14 0 0 1-.7 1.6c-.7-.1-1.5.5-1.8-.5-.3-.8-1.7-1.4-.9-2.4.1-.9 1-1 1.5-1.6A4.8 4.8 0 0 1 14.8 8" transform="translate(3.4)" id="path76"/><path class="cls-12" d="M52 9.9a4.1 4.1 0 0 1-.1 4.4.6.6 0 0 1-.8.2c-.6-.3-1-1-1.7-1.3a3.2 3.2 0 0 0 .3-1.6c0-.4-.5-.6-.2-1L51 9c.4.1.6.6.9 1" transform="translate(3.4)" id="path78"/><path class="cls-12" d="M34.4 9.7c.3 1.1 1 2.5.4 3.8-.3.4-.6.8-1 .9-.8-.2-1-1-1.5-1.6a2.6 2.6 0 0 0-.4-1.8v-.2c.6-.5.9-1.3 1.6-1.7.5-.1.5.5.9.6" transform="translate(3.4)" id="path80"/><path class="cls-12" d="M42 9.5c.2.4.2 1 .6 1a2.2 2.2 0 0 1 .5 2.1c0 .6-.8.7-1 1.3 0 .5 0 1.1-.4 1.4-1.3.4.2 2.4-1.5 2-.2-.2-.3-.5-.6-.5-.8-.2-1.5 1.5-2 .3-.1-.6.5-1.4-.4-1.7-.4-.4-.3-1-.3-1.6-.2-.5-.7-.6-1-1.2a2.7 2.7 0 0 1 0-1.4c.4-.5 1-.8 1-1.4a1.4 1.4 0 0 1 1.2-.6c.1.4-.2.7-.2 1a3.3 3.3 0 0 0 1 3 1.9 1.9 0 0 0 1.4.2 2.9 2.9 0 0 0 1-1.4 6.2 6.2 0 0 0-.2-2.8c.2-.3.5 0 .7 0z" transform="translate(3.4)" id="path82"/><path class="cls-12" d="M25.2 11a2 2 0 0 1 .1 1.8c-1 .8.3 2.4-1.3 2.9-.1.7.3 1.7-.5 2-.8.1-1.5-.8-2.1 0a1 1 0 0 1-1-.2c-.4-.5.1-1.1-.4-1.6a2 2 0 0 1-.8-2c-.3-.5-.9-.8-.9-1.5-.1-1 1.2-1.3 1.4-2.3a1 1 0 0 1 .7-.3c-.1 1-.4 2.1.2 3a1.8 1.8 0 0 0 1.4.8 2 2 0 0 0 1.7-1 5.2 5.2 0 0 0-.2-3.2c0-.3.3 0 .5 0 .5.5.6 1.2 1.2 1.6" transform="translate(3.4)" id="path84"/><path class="cls-12" d="m46 10.2.7.6a2.6 2.6 0 0 0-.2 1.5l.5 1a14.7 14.7 0 0 1-1.6 1.7c-.5.2-.7-.5-1-.8-.1-.3 0-.7-.3-1 .3-.8-.3-1.4 0-2.2 0-.6.5-1 .5-1.5a.3.3 0 0 1 .4-.2 5 5 0 0 0 1 .9" transform="translate(3.4)" id="path86"/><path class="cls-12" d="M60.3 11.3a2.2 2.2 0 0 1-.1 2c-.2.3-.6.2-.7.5a1.8 1.8 0 0 1-.7 2c-.8.4 0 1.6-.8 2a.6.6 0 0 1-.7.1c-.3-.2-.6-.6-1-.4a1.2 1.2 0 0 1-.8.2 1.5 1.5 0 0 1-.6-1.5c-.4-.5-1-1-.8-1.7.4-1-1-1.3-.7-2.3-.1-1 1.2-1.4 1.4-2.3a1 1 0 0 1 .8-.4c-.3 1.2-.7 2.7.2 3.8.4.2.8.8 1.5.5a2.3 2.3 0 0 0 1.6-1.5 10.7 10.7 0 0 0-.2-2.8c.1-.2.3 0 .4 0 .7.5.4 1.4 1.2 1.8" transform="translate(3.4)" id="path88"/><path class="cls-12" d="M17.7 11.9c0 1 0 2.3-1 3a.6.6 0 0 1-.6.1 6 6 0 0 1-1.4-1.2 2.3 2.3 0 0 0 .1-1.5l-.4-.7a4.9 4.9 0 0 1 1.6-2 3 3 0 0 1 1.6 2.2" transform="translate(3.4)" id="path90"/><path class="cls-12" d="M29 11.1c0 .4-.2 1 0 1.4.2.4.6.9 0 1.3s-.8 1.2-1.4 1.2a4.8 4.8 0 0 1-1-2.4 3 3 0 0 1 .2-2.4.7.7 0 0 1 .3-.4c.2-.2.3 0 .5.1z" transform="translate(3.4)" id="path92"/><path class="cls-12" d="M64.2 11.8a2.4 2.4 0 0 0 .1 2v.3a8.4 8.4 0 0 1-1.7 1.5c-.6-.5-.8-1.4-1-2.1a3.2 3.2 0 0 1 .2-1.9 2.3 2.3 0 0 1 1-1.5h.1z" transform="translate(3.4)" id="path94"/><path class="cls-12" d="m69.3 10.5 1 2.3c.2 1.2-.7 2-1.6 2.7-.4 0-.6-.4-.7-.7-.3-.5-1-.6-1-1.2a1.6 1.6 0 0 0-.1-1.7v-.3a10.5 10.5 0 0 1 1.6-1.4 1.1 1.1 0 0 1 .7.3" transform="translate(3.4)" id="path96"/><path class="cls-12" d="M73.8 10.8c.5.8-.6 1-.8 1.7a2.8 2.8 0 0 0-.2 2.4 1.6 1.6 0 0 0 1.3.4c.2 0 .3-.3.5-.1a1.9 1.9 0 0 1-.2 1 4 4 0 0 1 .1 2.2.5.5 0 0 1-.6.2c-.4-.6-1 .1-1.3-.3-1.1-.6.4-2-1-2.4-.4-.5-.1-1.2 0-1.7a1.3 1.3 0 0 1-.5-1.4c.1-.4.3-1 .9-1 .4-.3 0-.8.4-1.1.3-.4 1.2-.5 1.4.1" transform="translate(3.4)" id="path98"/><path class="cls-12" d="M11.8 11.8a2.4 2.4 0 0 0 .3 2.3 4.6 4.6 0 0 1-1.7 1.6c-.5-.2-.7-.8-1-1.2 0-.8-.7-1.5-.3-2.4.5-.6.3-1.4 1-1.7a7.6 7.6 0 0 1 1.8 1.4" transform="translate(3.4)" id="path100"/><path class="cls-12" d="M7 11.2a1.6 1.6 0 0 0 1 1.5c.1.3.4.6.2.9l-.6 1c0 .6 0 1.4-.7 1.8a2.2 2.2 0 0 1-.6 2l-1 .1c-.2.1-.4.6-.7.6a2.9 2.9 0 0 1-.1-2.7c0-.3-.2-.7 0-1 .5 0 1 .7 1.5.2a2 2 0 0 0 .6-1.9A3.1 3.1 0 0 0 5 11.4c-.2-.1 0-.3 0-.5a1 1 0 0 1 .6-.5 1.4 1.4 0 0 1 1.3.8" transform="translate(3.4)" id="path102"/><path class="cls-9" d="M48.9 11a1 1 0 0 1 .3 1.2 1 1 0 0 1-.5.6 1.3 1.3 0 0 1-.9.1 1.2 1.2 0 0 1-.8-1 1.3 1.3 0 0 1 .3-.8A1.1 1.1 0 0 1 49 11" transform="translate(3.4)" id="path104"/><path class="cls-9" d="M31.4 11.2a1.3 1.3 0 0 1 .3 1.2c-.1.4-.5.6-.8.7a1.3 1.3 0 0 1-1-.2 1.2 1.2 0 0 1-.5-.8A1.2 1.2 0 0 1 30 11a1.2 1.2 0 0 1 1.3.1" transform="translate(3.4)" id="path106"/><path class="cls-9" d="M66.5 12a1.3 1.3 0 0 1 .3.9A1.3 1.3 0 0 1 66 14a1.3 1.3 0 0 1-1-.3 1.4 1.4 0 0 1-.4-1.3 1.4 1.4 0 0 1 1-.7 1.6 1.6 0 0 1 1 .4" transform="translate(3.4)" id="path108"/><path class="cls-9" d="M14 12a1.2 1.2 0 0 1 .3 1.2 1.5 1.5 0 0 1-.7.8 1.6 1.6 0 0 1-1-.1 1.4 1.4 0 0 1-.6-1 1.4 1.4 0 0 1 .5-1 1.4 1.4 0 0 1 1.5.1" transform="translate(3.4)" id="path110"/><path class="cls-12" d="M49.7 14.8c.3.4.8.7.5 1.3-.2.6-.7 1.4-1.5 1.4a1.9 1.9 0 0 1-1.5-.2c-.4-.5-1-1-.9-1.7l1.3-2c.5.1 1.2-.5 1.4.3z" transform="translate(3.4)" id="path112"/><path class="cls-12" d="M31.4 13.5a11.5 11.5 0 0 1 1.2 2.1c.3 1-.8 1.1-1.1 1.7-.6.4-1.2 0-1.7-.2-.3-.3-.7-.5-.9-1a8.1 8.1 0 0 1 1.4-2.4 7.1 7.1 0 0 0 1.1-.2" transform="translate(3.4)" id="path114"/><path class="cls-12" d="m66.5 14.3 1 2.4c0 .5-.5.8-.5 1.2a2.2 2.2 0 0 1-2.2.4 2 2 0 0 1-1-.8c0-.3-.3-.6-.2-1a19.3 19.3 0 0 1 1.3-1.9v-.1a4.8 4.8 0 0 0 1.6-.2" transform="translate(3.4)" id="path116"/><path class="cls-12" d="M14.2 14.3c.3 1.1 2.3 2 .8 3.2a1.4 1.4 0 0 1-1.4.6c-.7-.2-1.6-.2-2-1a4.5 4.5 0 0 1 .9-2.3c.3-.6 1.1 0 1.6-.5" transform="translate(3.4)" id="path118"/><path class="cls-12" d="M40.6 18.8a5.4 5.4 0 0 0 5.8.3c.6-.5 1.1-1.2 2-1a5.4 5.4 0 0 0 5.6 1.7 9.9 9.9 0 0 0 2.5-1.6 5.5 5.5 0 0 0 5.3 2.2 5.8 5.8 0 0 0 2.7-1.5c1.2-.3 1.3 1.2 2.4 1.4a4.8 4.8 0 0 0 5.2 0 5 5 0 0 0 1.3-1.2.6.6 0 0 1 .5.1c.1.6-.5 1-.9 1.4a5.8 5.8 0 0 1-6 .7 15.7 15.7 0 0 1-2-1.5c-.8 0-1.2.7-1.8.9a5.9 5.9 0 0 1-5.4-.3l-1.4-1.1a8.8 8.8 0 0 0-1.2.8 5.8 5.8 0 0 1-6-.3c-.5-.3-.8-1-1.3-.9a5.8 5.8 0 0 1-5.8 1.4 7.6 7.6 0 0 1-2.7-1.8c-.4 0-.6.5-1 .7a5.7 5.7 0 0 1-5.6.8A10.4 10.4 0 0 1 31 19c-.7 0-1 .7-1.4 1a6 6 0 0 1-5.4.4 13.7 13.7 0 0 1-2-1.2H22a5.8 5.8 0 0 1-6.3 1.7 10 10 0 0 1-1.8-1h-.1a6 6 0 0 1-6.2 1.7A5.8 5.8 0 0 1 5 19.8c0-.2.3-.3.4-.4a5.1 5.1 0 0 0 6 1.2 6.3 6.3 0 0 0 2.2-2 6.6 6.6 0 0 0 3.7 1.8 5.2 5.2 0 0 0 4.4-2.1.5.5 0 0 1 .5-.2 5.2 5.2 0 0 0 5.5 1.7 5.6 5.6 0 0 0 2.7-1.7c.8-.3 1.1.6 1.7.8a5 5 0 0 0 5.6 0l1.7-1.4 1.2 1.3" transform="translate(3.4)" id="path120"/><path class="cls-6" d="M39.4 19.3a11.3 11.3 0 0 0 2.2 1.4l-1 .2-3.9-.1v-.1a21.1 21.1 0 0 0 2.5-1.4z" transform="translate(3.4)" id="path122"/><path class="cls-6" d="M31.9 20.2a10 10 0 0 1 1.3.6 26 26 0 0 1-4.5 0c.7-.2 1.3-1 2-1.2.5 0 .8.4 1.2.6" transform="translate(3.4)" id="path124"/><path class="cls-6" d="M50 21a30.1 30.1 0 0 1-4.2-.2l2-1.2A19.1 19.1 0 0 1 50 21" transform="translate(3.4)" id="path126"/><path class="cls-6" d="m24.2 21-.1.1a33.5 33.5 0 0 1-4.3.2 4.4 4.4 0 0 1 1-.6 6.1 6.1 0 0 1 1.3-.9c.7.3 1.3.8 2 1.2" transform="translate(3.4)" id="path128"/><path class="cls-6" d="M57.9 21a.9.9 0 0 1 .4.2v.1c-1.4.1-2.8 0-4-.2.8-.3 1.3-1 2.2-1z" transform="translate(3.4)" id="path130"/><path class="cls-6" d="M66 21.4c.4 0 .6.3 1 .5a13.5 13.5 0 0 1-2.7-.1l-1.8-.2 2.1-1.2c.6.2 1 .7 1.5 1" transform="translate(3.4)" id="path132"/><path class="cls-6" d="M16 21.5a22.5 22.5 0 0 1-4 .3v-.2l1.9-1.1c.8.2 1.4.8 2.1 1" transform="translate(3.4)" id="path134"/><path class="cls-6" d="M47 21.3c9 .4 17.1.7 26 1.7a.5.5 0 0 1 .3.4c0 .3-.2.4-.4.5L62.2 23l-14.6-.7a344.4 344.4 0 0 0-42 1.5c-.1-.2-.4-.1-.4-.4a.8.8 0 0 1 .5-.6l10-.8 11.4-.6c3.2-.2 6 0 9.3-.2z" transform="translate(3.4)" id="path136"/><path class="cls-6" d="M73 21.4a1.5 1.5 0 0 1-.2 1 3.5 3.5 0 0 1-1.8-.1v-.1a13.7 13.7 0 0 0 1.8-.9z" transform="translate(3.4)" id="path138"/><path class="cls-6" d="M7.6 22v.2a3.6 3.6 0 0 1-1.8 0 1 1 0 0 1 0-.9l1.7.8" transform="translate(3.4)" id="path140"/><path class="cls-12" d="M54 23c6.3.3 12.2.5 18.2 1.4.3.4 0 .9.1 1.4-.1.9-.7 1.6-.6 2.5 0 1 .5 2 .2 3l-.2.2-2-.1-9.3-.7c-4.9-.3-9.2-.5-13.9-.6l-9.9-.1-10.3.2-8.2.4-11.1.9c-.4-.2-.2-.9-.4-1.3 0-.9.5-1.7.3-2.7-.1-1.1-1-2-.7-3.2l.2-.2 1.9-.2 9.4-.7c5.8-.3 12-.5 17.9-.6h9.6z" transform="translate(3.4)" id="path142"/><path class="cls-8" d="M73.4 27.7a2.5 2.5 0 0 1-1 2c-.2 0-.1-.5-.3-.8a4.3 4.3 0 0 1 .7-2.5 2 2 0 0 1 .6 1.3" transform="translate(3.4)" id="path144"/><path class="cls-8" d="M6 29.3a1.6 1.6 0 0 1-.6-1 1.8 1.8 0 0 1 .6-1.9 3 3 0 0 1 .1 2.9" transform="translate(3.4)" id="path146"/><path class="cls-6" d="M45.3 30.4c2 .1 4 0 6.2.2h1.8l11 .7 8.1.8a.5.5 0 0 1 .4.3c-.3.9-1.2.4-1.8.5-5.3-.5-10.7-1-16-1.1h-.2l-10.3-.4H35c-6.2.2-12.4.3-18.5.8l-8.2.6a7 7 0 0 1-2.3 0c-.1 0 0-.2 0-.4.1-.5.7-.3 1-.5 3.8-.3 7.7-.7 11.5-.8l10.1-.5 7.6-.2z" transform="translate(3.4)" id="path148"/><path class="cls-13" id="polygon150" d="m17.5 25.2 1.8 1.8-1.8 1.8-1.8-1.8z"/><path class="cls-14" id="polygon152" d="m17.5 25.2 1.8 1.8-1.8 1.8-1.8-1.8z"/><path class="cls-13" id="polygon154" d="m34.5 24.4 1.8 1.8-1.8 1.8-1.8-1.8z"/><path class="cls-14" id="polygon156" d="m34.5 24.4 1.8 1.8-1.8 1.8-1.8-1.8z"/><path class="cls-8" d="M22.7 24.6a2 2 0 1 1-2 2 2 2 0 0 1 2-2" transform="translate(3.4)" id="path158"/><path class="cls-14" d="M22.7 24.6a2 2 0 1 1-2 2 2 2 0 0 1 2-2z" transform="translate(3.4)" id="path160"/><path class="cls-8" d="M39.4 24.2a2 2 0 0 1 0 4 2 2 0 0 1 0-4" transform="translate(3.4)" id="path162"/><path class="cls-14" d="M39.4 24.2a2 2 0 0 1 0 4 2 2 0 0 1 0-4z" transform="translate(3.4)" id="path164"/><path class="cls-13" id="polygon166" d="m68.2 25.4-1.8 1.8L68 29l1.8-1.8z"/><path class="cls-14" id="polygon168" d="m68.2 25.4-1.8 1.8L68 29l1.8-1.8z"/><path class="cls-13" id="polygon170" d="m51.1 24.5-1.8 1.8 1.8 1.8 1.8-1.8z"/><path class="cls-14" id="polygon172" d="m51.1 24.5-1.8 1.8 1.8 1.8 1.8-1.8z"/><path class="cls-15" d="M23.4 40.5a7.4 7.4 0 0 1 2.4-.4c.1.1.1.5.4.3.3 0 .6-.4.9-.3.3.3-.1.8.1 1.2.8 0 1.2-1 2-.8.2.1.1.5.4.4a.4.4 0 0 1 .5-.1c0 .2 0 .5.2.5.3.1.5-.2.8 0 .2.1.1.3.2.5h.6c.2.1.3.5.6.3a.7.7 0 0 1 .7-.2 1.5 1.5 0 0 1-.4 1.5c0 .3.3.4.5.6.6.3-.2 1 .5 1.3 0 .2.2.4 0 .5-.3.2-.7 0-1 .4 0 .3.4.7.3 1.2-.4.2-.8-.8-1 0 0 .4.7 1 0 1.4-.3 0-.7-.5-1 0-.4.2-.6-.5-1-.2 0 .4.3.6.1 1-.4.3-1.4-.7-1.2.4 0 .2-.2.5-.4.5s-.4 0-.5-.2c-.2 0-.4.5-.7.2-.2-.4-.3-.8-.8-.7-.5.4-.3 1.5-1.1 1.3-.4-.5-.8.3-1.2-.2-.2.1-.5 0-.7.2a14 14 0 0 0-.3 4.3c.2.8 1 1.3.8 2.2.2.5-.5.6-.6 1a5.3 5.3 0 0 0 0 2 7.8 7.8 0 0 0 2.5 3.8c1.2.2 2.5-.6 3.6.4 0 .3.3 0 .3.4l.3.3c.1.5.6 1 .3 1.5-.4 0-.5-.6-.9-.8a3 3 0 0 0-2.9-.5c-.2.3.3.5.3.8.3.4 1.1.5 1 1-1.4-.3-2.3-1.8-3.7-1.8-.2.1 0 .5 0 .7s.5.7.5 1a1.7 1.7 0 0 1-1.3-.9.8.8 0 0 0-.3-.4 1.8 1.8 0 0 0-.5 1.7.2.2 0 0 1-.4 0 2.6 2.6 0 0 1-.4-1.7c-.5 0-.9.7-1.3.9a1.3 1.3 0 0 1-1 .4v-.2a5.2 5.2 0 0 0 1.5-2.2c-1.4-.1-2 1.8-3.5 1.8 0-.2.3-.3.3-.5a3 3 0 0 0 1.1-1.2c-.1-.2-.4 0-.6 0-1.4.7-3.2.5-4.5 1.7-.2 0-.1-.2 0-.3.8-1.1 2-1 3-2 1-.6 2.4-.3 3.3-1.4.7-1 .6-2.3.9-3.4 0-1.4.5-3.3-.5-4.4 0-1.1-.4-2.3.5-3.1a2 2 0 0 0 0-1 2.5 2.5 0 0 0-1.4.7c-.4-.2 0-.8-.4-1s-.7 0-1-.1a2 2 0 0 0-1.2 0v-.2l.1-.4c-.2-.2-.7-.2-1-.4-.5 0-1 .6-1.5.3a2.6 2.6 0 0 0-1.7-.5c-.2-.4.3-.5.4-.8.2-.2.3-.5.2-.7a3 3 0 0 1-1.4.2c.1-.9-1.2-.2-1-1a1.1 1.1 0 0 0 .3-.5c-.3-.3-.8-.3-.8-.7.5-.6-.5-.4-.7-.8-.2-.3-.4-.2-.4-.5l.4-.3c0-.3-.8-.7-.2-1 .3-.2 1.1.1.9-.6.6-.2 1-.8 1.7-.8.3-.3-.3-.8.2-1 .7-.2 1.2.4 1.8.6 0-.4-.2-.9 0-1.2.5 0 .9.3 1.4.2-.2-.5.4-.5.7-.4a2.4 2.4 0 0 0 1.4.2c.8-.3 1.4.4 2 .2.8-.1 1.2.6 1.7-.1V38.3h-2.4v-1.5h2.5V35h1.7v1.8h2.4v1.5h-2.4z" transform="translate(3.4)" id="path174"/><path class="cls-8" d="M56.1 24.7a2 2 0 1 0 2 2 2 2 0 0 0-2-2" transform="translate(3.4)" id="path176"/><path class="cls-14" d="M56.1 24.7a2 2 0 1 0 2 2 2 2 0 0 0-2-2z" transform="translate(3.4)" id="path178"/><path class="cls-15" d="m13.8 101 .5.6c.6.2 1 .9 1.6.8 1.7-.2 2.8-1.8 4-3a17.6 17.6 0 0 1 .9-1.6c.3-1-.6-1.7-.6-2.6.3-.4 1-.8.8-1.4-.5-.2 0-1.1-.8-1 0-.8-.3-1.4-.3-2.2-.6-.1-.7-1-1.5-1-.6 0-.8-.8-1.5-.5a1.8 1.8 0 0 0-1.7.3c-.5.3-1.5 0-1.7.9.4.7-.5 1-.6 1.6-.5.3-1 .5-1.2 1-.4.6.6 1 .2 1.7 0 .6-.6 1.2 0 1.7a1.9 1.9 0 0 0-.3 1.3l.9.6c.6.3 1-.4 1.5 0 0-.3.2-.3.5-.3.4.4.3 1 .7 1.4 1.2 0 2.3-.3 3.4-.3-.5.6-1.4.6-2 1.2-.7-.1-1.4-.6-2.2-.4-.3.1-.7 0-.8.4-.1.5.1.5.2.7" transform="translate(3.4)" id="path180"/><path class="cls-16" d="M16.5 89.7h-.3l.3-.1z" transform="translate(3.4)" id="path182"/><path class="cls-17" d="M18.1 95.3c.3.5 1.1.1 1.1.8v1.1H19L17.9 96c0-.2.3-.4 0-.6-.5 0-.5.9-1.2.9-.2 0-.6.2-.8-.1-.4 0-.4.6-.8.3 0-.1-.3-.1-.4 0-.3.2.3.9-.3.6-.2 0-.2-.3-.4-.2-.2 0 .1.5 0 .7a1.3 1.3 0 0 1-1-.6.6.6 0 0 0-.2-.6l-.2.1v.2h-.3v-.5c.2 0 .7.1.7-.3.2-.7-1.3-.8-.4-1.4.1 0 .4 0 .4-.2l-.3-.5c-.1-.1-.2.2-.3.3a.8.8 0 0 1-.3-.7c0-.6.7-.7 1-1L14 91c.6 0 1-.2 1.5 0a7.7 7.7 0 0 0 .8 1.1c-.4.5.3.7.3 1.2.3.5.8.6 1.3.7.2 0-.1.3 0 .4a3.5 3.5 0 0 1 .1.4" transform="translate(3.4)" id="path184"/><path class="cls-16" d="M18.2 90.2v.1c-.1.1-.4.1-.4-.1V90l.4.2" transform="translate(3.4)" id="path186"/><path class="cls-16" d="m17.4 90.5-.3-.3s.5 0 .3.2" transform="translate(3.4)" id="path188"/><path class="cls-16" d="M15.4 90.5v.1c-.5-.1-1 .2-1.4-.1.2-.5.8 0 1.2-.2 0 .2.2.1.2.2" transform="translate(3.4)" id="path190"/><path class="cls-16" d="M18.4 91v.2a.2.2 0 0 1-.2-.3l.2.1" transform="translate(3.4)" id="path192"/><path class="cls-16" d="M19.4 91.5h-.1v-.4c.1 0 0 .2 0 .4" transform="translate(3.4)" id="path194"/><path d="M14 92.1c.3.3 1.2.3 1 .9-.1.4-.7 0-1 0 0 0-.5 0-.3-.3l.2-.3s-.2-.4 0-.6c0 0 .2-.2.3-.1.1 0-.4.2-.1.4" transform="translate(3.4)" id="path196"/><path class="cls-16" d="M19.3 92.2h-.1" transform="translate(3.4)" id="path198"/><path d="M15.6 93c.2.2.5.3.5.5-.3.2-.6 0-.6-.3v-.8c.2 0 .1.5.1.7" transform="translate(3.4)" id="path200"/><path class="cls-17" d="M14.6 92.8h-.5v-.3c.2 0 .5.1.5.3" transform="translate(3.4)" id="path202"/><path class="cls-16" d="M20.6 94a.9.9 0 0 1-.5.7h-.2c0-.4-.2-.7-.1-1 .3 0 .6 0 .8.3" transform="translate(3.4)" id="path204"/><path d="M13.5 94.8c-.2 0-.2-.2-.3-.3v-.7c.4.2.2.7.3 1" transform="translate(3.4)" id="path206"/><path class="cls-16" d="M19.5 94.3c-.1.3.5.7-.1.8h-.1a.3.3 0 0 0-.3-.3l-.2-.1c0-.2 0-.7.3-.6a.3.3 0 0 1 .4.2" transform="translate(3.4)" id="path208"/><path d="M16.3 94.8c0 .2 0 .4-.2.4-.2-.4-.5-.1-.7-.2H15c0-.3-.5 0-.5-.3.5.2 1-.5 1.5-.2z" transform="translate(3.4)" id="path210"/><path d="M17.4 94.6a2.5 2.5 0 0 1-.3 1.1c-.2.2-.6.3-.8.1 0-.3.3 0 .5-.2a2 2 0 0 0 .6-1z" transform="translate(3.4)" id="path212"/><path d="M14.2 94.9v.2-.3" transform="translate(3.4)" id="path214"/><path class="cls-17" d="M12.7 95.7c0 .2-.2.2-.4.1s0-.2 0-.4.3.1.4.3" transform="translate(3.4)" id="path216"/><path class="cls-16" d="M20.4 97c0 .4 0 .9-.3 1v-1.2c-.3 0-.3.4-.3.6-.3-.5 0-1.3-.3-1.8l.2-.2c.4.5.4 1.2.7 1.7" transform="translate(3.4)" id="path218"/><path d="M14.5 96.2a2.6 2.6 0 0 1-.7 0h.7" transform="translate(3.4)" id="path220"/><path class="cls-17" d="M17.7 96.3a4.8 4.8 0 0 1 1 1.3 1.6 1.6 0 0 1-.9.2l-.1-.8c-.2 0-.2.5-.4.2h-.1c0 .3 0 1-.3 1s-.7.4-.9 0c-.4-1.2 1-1.3 1.6-1.9z" transform="translate(3.4)" id="path222"/><path class="cls-17" d="M15.5 97.5c0 .4.3 1.2-.2 1.4-.1-.4-.4-.7-.4-1.2l.6-.2" transform="translate(3.4)" id="path224"/><path class="cls-17" d="M18.8 98.2c0 .2-.3.2-.5.4l-1.8.3c0-.3.4-.3.6-.5.3.1.4 0 .7-.1a3.2 3.2 0 0 1 1-.1" transform="translate(3.4)" id="path226"/><path class="cls-16" d="M19.6 99c0 .4-.4.5-.7.8a12.8 12.8 0 0 0-1.9 1 2.6 2.6 0 0 1 1.3-.8l1-1z" transform="translate(3.4)" id="path228"/><path class="cls-16" d="M15.8 100.8a.9.9 0 0 1 .4.6 1 1 0 0 1-.8-.4c-.1-.3-.6-.5-.9-.5 0 .3.3.2.5.4a1.4 1.4 0 0 0 1.5.8 1 1 0 0 1-.9.3c-.5-.5-1.4-.7-1.6-1.6l.5-.1c.5 0 1.2-.2 1.3.5" transform="translate(3.4)" id="path230"/><path class="cls-16" d="M18.2 100.6c-.5.2-.7 1-1.4.8l-.1-.3c.5 0 1-.5 1.6-.6z" transform="translate(3.4)" id="path232"/><path class="cls-16" d="M18.7 93.5c0 .6-.5 1.1-.2 1.6-.1 0-.9-1-.3-.8a.3.3 0 0 0 .1-.4c-.2-.2-.4-.4-.4-.6l.1-.1c-.7-.6-.8-1.5-1.4-2.1h-.1a4.3 4.3 0 0 1 .5 1.2c-.2 0-.2-.2-.3-.3a3.4 3.4 0 0 1-1-1.3c.2 0 .4-.1.3-.3l-.7-.4c1.8.1 2.8 2.1 3.4 3.5" transform="translate(3.4)" id="path234"/><path d="M32.9 70a1.6 1.6 0 0 1 .7.4 1.1 1.1 0 0 1 1.3.4c0 .8 1.4 1 1 1.9l.4.5a1.8 1.8 0 0 1-.7 1.9h-.2c0 .3.2.3.3.5.4 0 .7-.4 1-.1l.9 2c0 .8-.9 1.1-1 1.8l-.2.8a2.3 2.3 0 0 0-.7 2.3s0 .1.1 0c.3-.3-.2-.6.1-1 .7-.3 1-1.3 1.8-1.4.2.2 0 .5 0 .8.1.5.7.8.5 1.4-.3.5-.4 1.2-1 1.5-.3.5-.9.4-1.3.5-1 .2-1.6-.2-2.4.2H33c-1.4-.4-3.1.4-4.4-.6a9 9 0 0 1-2.2-.4 11.6 11.6 0 0 0 .4-2.3l.4-.1c.6.2 1 1 1.5 1.4.6 0 1.1-.5 1.7-.4a4.2 4.2 0 0 0 1.7.7v-.1a3.2 3.2 0 0 1 .2-2.3.4.4 0 0 0 0-.4 2.7 2.7 0 0 0-1 .1 1 1 0 0 1-.8 0c-.6-.2-.7-.9-1.2-1.3-.3.7-1.1-.2-1.4.5-.1 0-.3 0-.3.2a1.1 1.1 0 0 1-1.2-.6 2 2 0 0 1 .4-2c0-.2-.3-.4-.3-.7 0-.3.7-.6.3-1 0-.3.3-.5.4-.8 0-.3-.3-1 .3-1.1.6-.2 1.1-1 1.6-1.5a1.3 1.3 0 0 1 .7-1.5c.8.1 1.1-1 1.9-.6.4 0 1 0 1.2.4" transform="translate(3.4)" id="path236"/><path class="cls-16" d="M32.5 70.3a.3.3 0 0 1-.3 0 .2.2 0 0 1 0-.2c.1 0 .2 0 .3.2" transform="translate(3.4)" id="path238"/><path class="cls-18" d="M32.5 70.3a.3.3 0 0 1-.3 0 .2.2 0 0 1 0-.2c.1 0 .2 0 .3.2z" transform="translate(3.4)" id="path240"/><path class="cls-16" d="M33.4 71c-.2 0-.4-.2-.5-.4v-.1c.2-.1.3.3.5.4" transform="translate(3.4)" id="path242"/><path class="cls-18" d="M33.4 71c-.2 0-.4-.2-.5-.4v-.1c.2-.1.3.3.5.4z" transform="translate(3.4)" id="path244"/><path class="cls-16" d="M32.5 71h.3c.7.5.8 1.3 1.5 1.8a10.2 10.2 0 0 1 .2 1.6.7.7 0 0 1 0 .5c-.6-.7-.4-1.9-1-2.7a4.5 4.5 0 0 0-1.3-1s-.1.1 0 .2a3 3 0 0 1 1.5 2.6v.3c-.5-.5-.4-1.4-1-1.9a7.3 7.3 0 0 1-1.3-.9c.2 0 .4.2.5 0a3.2 3.2 0 0 0-1.9-.7c0-.2.5-.3.7-.3a10.3 10.3 0 0 1 1.8.5" transform="translate(3.4)" id="path246"/><path class="cls-18" d="M32.5 71h.3c.7.5.8 1.3 1.5 1.8a10.2 10.2 0 0 1 .2 1.6.7.7 0 0 1 0 .5c-.6-.7-.4-1.9-1-2.7a4.5 4.5 0 0 0-1.3-1s-.1.1 0 .2a3 3 0 0 1 1.5 2.6v.3c-.5-.5-.4-1.4-1-1.9a7.3 7.3 0 0 1-1.3-.9c.2 0 .4.2.5 0a3.2 3.2 0 0 0-1.9-.7c0-.2.5-.3.7-.3a10.3 10.3 0 0 1 1.8.5Z" transform="translate(3.4)" id="path248"/><path class="cls-16" d="M34.4 71v.1a.5.5 0 0 0-.4-.1v-.2a.3.3 0 0 1 .5.2" transform="translate(3.4)" id="path250"/><path class="cls-16" d="M29.9 71.3h-.3v-.2c.1 0 .3 0 .3.2" transform="translate(3.4)" id="path252"/><path class="cls-16" d="M34.3 71.5c0 .2 0 .3-.2.4a.5.5 0 0 1-.2-.4c0-.2.4-.1.4 0" transform="translate(3.4)" id="path254"/><path class="cls-17" d="M31.8 72.4c.2.4.2 1 .8 1.2a1 1 0 0 0 .5.6l.5 1a2.3 2.3 0 0 1-.4 1.4c-.4.2-.8.6-1.3.3a2.4 2.4 0 0 0-.5.2c-.2.2-.6-.2-.5.3h-.3c-.1 0-.1.3-.3.3 0-.2-.2-.4-.4-.4l-.5.2c-.2 0-.2.6-.6.4-.2-.2.2-.5 0-.6-.3.3-.6-.1-.8 0v.6a.5.5 0 0 0-.4.2.4.4 0 0 1-.1.4c-.4 0-.2-.7-.7-.7a1.8 1.8 0 0 1 1.3-1.4c.2 0 .3.3.6.1 0-.2-.3-.3-.4-.6-.2.2-.5-.1-.7-.2v-.3h.2c.2-.4-.5-.6-.1-.9 1.2-.4.5 1.1 1.2 1.4.2-.4-.2-.7-.1-1.1a.8.8 0 0 0-.4-.7c-.3 0-.8.1-.9-.3.2-.5.8-.5 1-.9.5-.4.9-1.3 1.6-1.3.8-.2 1.1.6 1.7.7" transform="translate(3.4)" id="path256"/><path class="cls-16" d="m35.5 72.2-.1.2c-.2-.3-1-.2-.6-.7a2.7 2.7 0 0 1 .7.5" transform="translate(3.4)" id="path258"/><path d="M30.4 72.6v1.1a.8.8 0 0 1-1-.4.8.8 0 0 1-.2-.7c.3-.4 1-.5 1.2 0" transform="translate(3.4)" id="path260"/><path class="cls-17" d="M30.1 72.7v.6a.3.3 0 0 1-.4.1c-.1-.2-.4-.4-.2-.7.1-.2.6-.3.7 0" transform="translate(3.4)" id="path262"/><path class="cls-16" d="m35 73.4-.2-.7c.2.1.3.4.2.7" transform="translate(3.4)" id="path264"/><path class="cls-16" d="M32.6 73a.1.1 0 0 1-.2 0s-.2-.2 0-.3a.4.4 0 0 1 .2.4" transform="translate(3.4)" id="path266"/><path class="cls-16" d="M35.9 73.7h-.1a.4.4 0 0 1 0-.5l.1.5" transform="translate(3.4)" id="path268"/><path d="M31.4 74.1a.1.1 0 0 1-.1.2c-.3 0-.4-.4-.8-.2a.8.8 0 0 1 .2-.5c.3 0 .7.2.7.5" transform="translate(3.4)" id="path270"/><path class="cls-16" d="M35.5 74.2h-.1a.1.1 0 0 1 0-.2v.2" transform="translate(3.4)" id="path272"/><path d="M32 74.3v.1c-.1 0-.2 0-.1-.1 0-.2 0 0 .1 0" transform="translate(3.4)" id="path274"/><path d="M32.4 74.7h-.2c0-.4.3-.2.2 0" transform="translate(3.4)" id="path276"/><path class="cls-16" d="m35.2 74.8-.1.4-.2-.1v-.5c.1 0 .2 0 .2.2" transform="translate(3.4)" id="path278"/><path class="cls-16" d="M34 75.3Z" transform="translate(3.4)" id="path280"/><path d="M33.3 75.9c-.2.3-.4.9-.8.8a.3.3 0 0 1-.2-.3c.3 0 .5-.4.7-.7.2-.2 0-.3.2-.4.2 0 0 .4.1.6" transform="translate(3.4)" id="path282"/><path d="M31.7 75.4c0 .3-.4.3-.6.4-.2.1-.1 0-.2 0 0-.4.5-.2.7-.4z" transform="translate(3.4)" id="path284"/><path class="cls-16" id="rect286" d="M37.8 75.3h.1z"/><path d="M30.7 76c-.2.4-.8.2-1 .5h-.3a1 1 0 0 1 .1-.7c.4 0 .8-.2 1.2 0z" transform="translate(3.4)" id="path288"/><path class="cls-16" d="m35.2 76-.1.1a.6.6 0 0 1-.1-.4c.2-.2.3.2.2.3" transform="translate(3.4)" id="path290"/><path class="cls-17" d="M27.6 76.2c0 .2-.3.2-.4.3l-.3-.3.4-.3c.2 0 .2.1.3.3" transform="translate(3.4)" id="path292"/><path class="cls-16" d="M36.5 76.3c-.3.2 0 1-.6.6 0 0-.2-.3-.3-.1-.1.2.2.4.3.7 0 .2 0 1 .4 1 .4-.2 0-.6.2-.9l.2-.8c.2.2.5.6.4 1a3.7 3.7 0 0 0-.8 1c-.3 0-.6-.4-1-.4-.4-.5-.3-1.1-.3-1.7.6 0 .6-1 1.3-.8z" transform="translate(3.4)" id="path294"/><path class="cls-16" d="M34.5 76.2c0 .2-.2.1-.3 0 0-.3.5-.3.3 0" transform="translate(3.4)" id="path296"/><path class="cls-16" d="M34.6 77.2a2.4 2.4 0 0 1 0 .6l-.8-.9c-.1 0 0-.1 0-.2.3.3.8 0 .9.5" transform="translate(3.4)" id="path298"/><path class="cls-17" d="M33.4 77.3a4.5 4.5 0 0 0 .1 1.3c-.4.2-.9 0-1.3.2a7.3 7.3 0 0 0-1.6.6c-.4 0-.6-.4-.9-.7 0-.3.4-.2.6-.3.1-.2.3.5.6.2 0-.2-.2-.3-.1-.5.3 0 .5-.3.8-.2.4.1.4.7.7.4v-.8c.4 0 .7-.4 1.1-.3" transform="translate(3.4)" id="path300"/><path class="cls-16" d="M34.3 78.1c0 .2-.1.2-.2.3-.2 0-.2-.3-.3-.5v-.4a2.1 2.1 0 0 1 .5.6" transform="translate(3.4)" id="path302"/><path class="cls-16" d="M36 79.7a3.4 3.4 0 0 0-.8 2.5c0 .4.5 1 0 1.4v.2c-.3 0-.3-.5-.5-.8-.2-.2-.3-.8-.6-1-.2.2-.1.4 0 .6v.1l-.7-.4a2.5 2.5 0 0 0 .3-1.2h-.2c0 .6-.6 1.1-.4 1.9.2.2.4.6.7.7 0 0 .2-.2 0-.2a.5.5 0 0 1-.1-.4c.2.1.7.3.7.6a2.7 2.7 0 0 1-1 .3c-.3-.6-.8-1-.7-1.8a3.8 3.8 0 0 0 .6-1.4l-.1-.1c-.4.2-.3.7-.7 1a2.2 2.2 0 0 1 .9-2h.2c0 .2-.2.6 0 .8.4-.2.3-.7.5-1 .3-.3.6-.5.6-1l.1-.1c.3.6 1.3.6 1.3 1.4" transform="translate(3.4)" id="path304"/><path d="M34.7 80.3c.4-.2.3-.6.4-1 .2 0 0 .2.2.3 0 .5-.4.8-.6 1.2-.6 0-.3.6-.6 1-.3-.2 0-.7 0-1a8 8 0 0 0 .4-1.8.2.2 0 0 1 .3 0c.1.4-.3.8-.1 1.2" transform="translate(3.4)" id="path306"/><path class="cls-16" d="M32.5 79.3c-.2.3-.6.1-1 .2a3.4 3.4 0 0 1 .9-.3z" transform="translate(3.4)" id="path308"/><path class="cls-16" d="m37.2 81-.9 1c0-.5.6-.7.7-1h.2" transform="translate(3.4)" id="path310"/><path class="cls-16" d="M28.8 83.2c.3 0 .3-.3.5-.4.3-.2.7-.5 1.1-.3a3.5 3.5 0 0 0 2 .7c.1.2.4.5.3.7a5.5 5.5 0 0 1-3.1-1h-.2v.1a6.8 6.8 0 0 0 1.3.8l-.2.2c-1 0-1.8-1-2.9-.8-.6-.3 0-1-.5-1.5l.1-.3c.8.3 1 1.1 1.5 1.7" transform="translate(3.4)" id="path312"/><path class="cls-18" d="M28.8 83.2c.3 0 .3-.3.5-.4.3-.2.7-.5 1.1-.3a3.5 3.5 0 0 0 2 .7c.1.2.4.5.3.7a5.5 5.5 0 0 1-3.1-1h-.2v.1a6.8 6.8 0 0 0 1.3.8l-.2.2c-1 0-1.8-1-2.9-.8-.6-.3 0-1-.5-1.5l.1-.3c.8.3 1 1.2 1.5 1.7z" transform="translate(3.4)" id="path314"/><path class="cls-16" d="M37.9 82a1 1 0 0 1-.3.5c-.2 0-.4-.1-.5.1v.2l.4-.1a.4.4 0 0 1-.1.3c-.4-.1-1 .4-1.2-.2.2-.1.9.3.9-.2a.7.7 0 0 1-.5-.1c0-.5.6-.8.8-1 .3 0 .3.3.5.4" transform="translate(3.4)" id="path316"/><path class="cls-16" d="M27 82.9c0 .1.1.2 0 .4h-.2c0-.2 0-.4.2-.4" transform="translate(3.4)" id="path318"/><path class="cls-18" d="M27 82.9c0 .1.1.2 0 .4h-.2c0-.2 0-.4.2-.4z" transform="translate(3.4)" id="path320"/><path class="cls-16" d="M37 83.3c-.1.1.2.3 0 .4v-.2l-1.1.4h-.3c-.1-.3.1-.5.2-.7.4 0 .9.5 1.2 0" transform="translate(3.4)" id="path322"/><path d="M33 90c.7.5 1.7.8 1.9 1.7.8.5.7 1.5 1.3 2 .6.6-.3 1.7.6 2 .3.2.2.7.2 1s-.9.6-.3.9a1.5 1.5 0 0 1 1.2.8c.3 1 .2 2.1.6 3 .4 1.4-1.4 2-1.5 3.2a13 13 0 0 1-2.3 3.2c-.4.2-1 0-1.3.2-.4.5 0 1 0 1.5a2.8 2.8 0 0 0 2.5.3c.2 0 .4-.4.6-.3 0 .3.5.5.3.9.4 0 .2-.6.6-.5.3.4 1.1.3.7 1 0 .2-.3.3-.3.6a.4.4 0 0 1 .1.5c-.2.4-.7.4-1 .6-1 .4-1.9-.2-2.9-.3-1.6-.3-1.5-2.1-2.6-3a3.5 3.5 0 0 0-.6-1.2l-2.2.7a2.3 2.3 0 0 0-.5.3c0 .7.4 1.2.2 1.9-.5.3-.9-.5-1.2-.8-.4-.6-1-1-.9-1.8a23.4 23.4 0 0 1 2.6-2c.7-.5 1.8.4 2.3-.5.4-1 .8-2 1.4-2.9l.4-.3c.8-.3 1.7-.2 2.4-1-.5-1-1.2-2-1-3.3a2.3 2.3 0 0 1 0-1.4 1.6 1.6 0 0 1-1-1.2c0-.2 0-.4-.3-.5a.8.8 0 0 0 0 .6 1.3 1.3 0 0 1 .5.6 1.3 1.3 0 0 1-.3 1 3 3 0 0 0 .8 2.2.5.5 0 0 1-.4.6c-1 .4-1.8 1-3 .9-.8 0-.8-1.1-1.5-1.2a6 6 0 0 1-.8-.8c-.3.1-.7-.2-1 .2l-.7.4c-.3 0-.3-.3-.4-.5a1.7 1.7 0 0 1 0-1.9c0-.2.3-.4.2-.7a.7.7 0 0 1-.2-.9c.5-.3.2-1 1-1.1v-1c.4-.2 1.2 0 1.3-.6 0-.6.4-.9.8-1.2-.3-.5.4-.7.6-1.1.4-.7 1.2 0 1.5-.7.4 0 .7-.4 1-.2z" transform="translate(3.4)" id="path324"/><path class="cls-16" d="m33 90.5-.6.2v-.3c.2 0 .6-.1.6.1" transform="translate(3.4)" id="path326"/><path class="cls-16" d="M32 90.8c0 .2-.2.2-.3.2 0 0-.3-.2-.2-.4 0-.2.4 0 .5.2" transform="translate(3.4)" id="path328"/><path class="cls-16" d="M32.5 91.9c.6.5 1.6 1.2 1.4 2.3-.4-.4-.6-1-1-1.3-.4.5.3.6.4 1a9 9 0 0 0 1.1 1.8c.3 0 .3-.3.3-.4a.6.6 0 0 1 .3.3 1 1 0 0 1-.3.7l-.3.1c0 .2-.2.1-.2 0a6 6 0 0 1-.7-1.4c-1.1-.8-1-2.4-2.4-2.9a2.1 2.1 0 0 0-1.3-.4c0-.2.3-.3.4-.3.8-.1 1.2.7 1.8.8v-.1a3 3 0 0 0-1.6-1c.1-.3.5 0 .7 0l1.4.7" transform="translate(3.4)" id="path330"/><path class="cls-16" d="M34.1 91.3c-.3.1-.5 0-.7-.2 0-.3.4 0 .6 0 .2 0 .2.1.1.3" transform="translate(3.4)" id="path332"/><path class="cls-16" d="m33.2 91.5-.1.3-.5-.4.1-.2a.8.8 0 0 1 .5.3" transform="translate(3.4)" id="path334"/><path class="cls-16" d="M34.4 91.9h-.2.2" transform="translate(3.4)" id="path336"/><path class="cls-16" d="M34.3 92.5v.6c-.3-.4-.8-.6-.7-1 .2.1.6 0 .7.4" transform="translate(3.4)" id="path338"/><path class="cls-17" d="M32.1 93.7a1.6 1.6 0 0 0 .3.7c0 .8-.2 1.7.7 2.2.2.6-.5.9-1 1.3-.3 0-.7.2-1 0-.3 0-.6 0-.6.3.4.6 1.3-.3 1.3.6a.1.1 0 0 0 .2 0 1 1 0 0 1 .7-.7h.1c0 .4.3.8.4 1.3-1 .4-2 .2-2.8.9-.4 0-.6-.6-1-.5-.3-.2-.6-.5-.7-.8l.3-.2a1.9 1.9 0 0 0-.3-.5c-.5-.3-.5.4-.9 0l-.3.3v.2c-.2 0 0-.2-.1-.2a.3.3 0 0 0-.2-.4l-.3.2c-.3-.1 0-.5-.4-.6.3-.3.4-1 1-.8h.4a.6.6 0 0 0 .2-.5c0-.2-.2 0-.4-.1-.2-.4-.6-.6-.6-1a.8.8 0 0 1 1-.1h.3c.5.3 0 1.3.8 1.2.5.4 1.3.1 1.8 0a1.9 1.9 0 0 0-.5-.6c-.4-.1-.6.7-1 .2-.8.2-.3-.8-1-1v-.5c-.3 0-.1.5-.5.4-.4-.2-.3-.6-.3-.9a2 2 0 0 1 .8-.2c.8-.4.3-1.5 1.2-1.5 0 .2.5.4.3.7-.2 0-.3.3-.5.5-.2.8.8.5 1 1.1a1.1 1.1 0 0 1 .7-.5l.1-.1c-.1-.3-.3 0-.5 0l-.2-1h.4c0-.4-.7-.3-1-.6.1-.3.5-.1.7-.1.6.4 1.3.6 1.5 1.3" transform="translate(3.4)" id="path340"/><path class="cls-16" d="M35.4 93v.2a1.5 1.5 0 0 1-.7-.9c.5 0 .5.5.7.8" transform="translate(3.4)" id="path342"/><path class="cls-17" d="M30.3 93.7v.4a1 1 0 0 1-.6-.2c-.2-.2.1-.5.3-.6s.2.3.3.4" transform="translate(3.4)" id="path344"/><path class="cls-16" d="M34.8 93.7a.9.9 0 0 1 .1.8l-.3.2c-.1-.3-.6-1.4.2-1" transform="translate(3.4)" id="path346"/><path class="cls-16" d="m36 94.3-.2 1-.3.2c.1-.5-.2-1-.1-1.5.2 0 .5 0 .5.3" transform="translate(3.4)" id="path348"/><path d="M31.7 95v.2c-.2 0-.3-.1-.4-.3l.1-.4c.3 0 .2.4.3.6" transform="translate(3.4)" id="path350"/><path class="cls-16" d="M36.5 96.1a.5.5 0 0 1 0 .5c-.2-.1 0-.4-.3-.6-.2 0-.3.4-.6.5-.2.1-.3.3-.2.4.1.2.3-.2.5-.2-.1.1 0 .4-.2.5a.8.8 0 0 1-.6 0l-.2-.8c.6 0 1.1-.9 1.6-.3" transform="translate(3.4)" id="path352"/><path class="cls-17" d="M27.5 96.6v.2a1.1 1.1 0 0 1-.7-.2c-.2-.1-.3-.4 0-.6.3 0 .5.4.7.6" transform="translate(3.4)" id="path354"/><path d="M32.8 96.7c0 .4-.4.6-.7.8-.3.2-.4 0-.5 0 .1-.4.6-.2.8-.6v-.5c.3-.1.3.2.4.3" transform="translate(3.4)" id="path356"/><path class="cls-16" d="M34.5 96.8v.1-.2h.1" transform="translate(3.4)" id="path358"/><path class="cls-16" d="M37.1 98.1c.7.6.6 1.6.7 2.4-.3.1-.4-.4-.8-.5-.5-.2-.6-.8-.8-1.2.2 0 .5.4.8.6s.2.4.5.3c.3-.3-.1-.6-.1-.9H37l-.1.2c-.4-.2-.3-.8-.8-1-.2.2 0 .4-.1.5-.3-.1-.4-.5-.6-.7.6-.6 1 .4 1.6.3" transform="translate(3.4)" id="path360"/><path class="cls-16" d="M35.1 98a8.3 8.3 0 0 1 1 1.5 2.6 2.6 0 0 1-.8-.4c-.2 0 0 .2 0 .3.6.2.5 1 1 1a9.1 9.1 0 0 1 .3 2.3c-.1-.4-.1-.9-.4-1.2-.4-.3-.3-.6-.6-.7l-.1.3a3 3 0 0 1-.7-2.4.6.6 0 0 1 .3-.7" transform="translate(3.4)" id="path362"/><path d="M30.3 98.5a1.5 1.5 0 0 1-1 .3c-.1-.1-.3-.3-.2-.5.2.2.4-.3.6 0 .2-.2.6 0 .7.2" transform="translate(3.4)" id="path364"/><path d="M33.3 100z" transform="translate(3.4)" id="path366" style="fill:#f2e9db"/><path class="cls-17" d="M32.1 100.2a2.4 2.4 0 0 0-.3.5h-.1s.1-.2 0-.2-.4 0-.5.2l.1.1a.7.7 0 0 1-.6 0h-.1a2.4 2.4 0 0 1 1.5-.6" transform="translate(3.4)" id="path368"/><path class="cls-16" d="M37.5 101c0 .3-.3.4-.5.6a1.6 1.6 0 0 1-.3-1.2 1.3 1.3 0 0 1 .8.6" transform="translate(3.4)" id="path370"/><path class="cls-16" d="M36.1 102c0 .5.4 1 0 1.4-.3-.5 0-1-.2-1.4l-.3-.7c.3.1.4.5.5.7" transform="translate(3.4)" id="path372"/><path class="cls-16" d="m38 102.3-.1.4c-.1 0-.2-.2-.4-.1-.2 0-.1.5-.2.8a1.5 1.5 0 0 1 .4-1.8c.4 0 .2.5.4.7" transform="translate(3.4)" id="path374"/><path class="cls-16" d="m35.5 102.5-.5.3c-.5.8-1.5.2-1.9 1 .1.5.3-.2.6-.1a1.7 1.7 0 0 0 1-.2v.1c-.9.8-2 1-2.6 2.1l-.4 1.3a4.9 4.9 0 0 1-2.9 1.4l.2-.6c.5-.5 1.5-.1 2-.5v-.2a9.1 9.1 0 0 0-2 .2h-.3a.2.2 0 0 1-.2-.2c.8-1 2.5.5 3-1 .5-.9.7-2 1.3-2.8.8-.4 1.8-.5 2.5-1a.2.2 0 0 1 .2.2" transform="translate(3.4)" id="path376"/><path class="cls-16" d="M34.5 107.5h-.1c.4-1 1.3-1.8 1.7-2.7.6-.4.4-1.2.6-1.8.5 1.9-1.1 3.1-2.2 4.5" transform="translate(3.4)" id="path378"/><path class="cls-16" d="M35.7 103.8c.3 1.4-1 2.1-1.5 3.2-.5.3-1 0-1.4 0-.2-.2.2-1-.3-.7l-.1.1c0 .6.4 1.3-.2 1.8a1.3 1.3 0 0 0 .4.7c.6 0 .2.7.5 1 .1.9 1 1.4 1.5 2a1.6 1.6 0 0 1-1-.2l-1.8-2.6c-.1-.5-.6-.8-.6-1.3.4-.4 1.2-.6 1.1-1.4l.1-.6a1.6 1.6 0 0 1 1-.8 3.6 3.6 0 0 0-.4.9c.8-1 2-1.4 2.5-2.4.2 0 .1.2.2.3" transform="translate(3.4)" id="path380"/><path class="cls-16" d="M36.2 103.7v.2-.3.1" transform="translate(3.4)" id="path382"/><path d="M35.2 105c0 .2 0 .2-.2.3h-.1c0-.1.1-.3.3-.3" transform="translate(3.4)" id="path384"/><path class="cls-16" d="M28 107.7c-.3.3-.8.7-.7 1.2.1.2 0 .7.3.6l.4.7v.2c-.3 0-.5-.3-.7-.5-.2-.4-.6-.7-.7-1.2a4.2 4.2 0 0 1 1.4-1Z" transform="translate(3.4)" id="path386"/><path class="cls-16" d="M28.5 107.8c-.2.4-.2 1-.9 1.2-.2-.6.6-1 .9-1.3" transform="translate(3.4)" id="path388"/><path class="cls-16" d="M35.9 110.4c.2 0 0 .2 0 .3-.2.4-1 0-.7.5.3.2.9-.5.8.2-.3.3-.7 0-1.1 0-.4-.3-1-.7-1-1.2a5.1 5.1 0 0 0 2 .1" transform="translate(3.4)" id="path390"/><path class="cls-16" d="M37.7 110.7c0 .4-.5.6-.5 1-.2 0-.4.3-.6.2a8.6 8.6 0 0 1 .8-1.2z" transform="translate(3.4)" id="path392"/><path class="cls-16" d="M37.4 112a.8.8 0 0 1-.8.3l.8-.4z" transform="translate(3.4)" id="path394"/><path class="cls-16" d="M35.8 112a.3.3 0 0 1-.3 0h.2" transform="translate(3.4)" id="path396"/><path class="cls-16" id="polygon398" d="M18.8 70.3z"/><path class="cls-16" d="M13.3 70.7c-.2.1-.3 0-.4 0-.1 0 0 0 0-.1s.3-.2.3 0" transform="translate(3.4)" id="path400"/><path d="M17.6 76.6a3.3 3.3 0 0 1-.5-.7c0-.3.2-.8 0-1.1-.5-.7-.3-1.8-1.2-2.2-.8 0-1.2-1-1.9-1.3l-.3.1a5.1 5.1 0 0 0-1.3-.5c-.2.1-.5 0-.6.3.5.1.9 0 1.4.2a3 3 0 0 1 2 2.6c0 .7-.5 1.4 0 2 .5.2 0-.6.4-.8a6.2 6.2 0 0 0 0-1.8c0-.2-.3-.3 0-.5a.8.8 0 0 1 .3.5c0 .7.2 1.6-.1 2.2 0 .6.7 0 1.1.2.4.2.3.6.4.8.3.2.2.5.1.7.3 0 .9 0 1.2-.3-.1-.3-.7-.2-1-.2a.4.4 0 0 1 0-.3" transform="translate(3.4)" id="path402"/><path d="M17.5 75.8a.5.5 0 0 0 .1.2 2.5 2.5 0 0 1 1.4.6c0 .5.6.2.8.4a5 5 0 0 1-.7 5.3v.9c-.3.6-.9.5-1.4.7-.7.3-1.6-.3-2 .6-.3.2-.5-.2-.8-.2l-2 .4h-.6l-.4-.3c-.7 0-1.1-.6-1.5-1.2-.4-.5.4-.8.6-1.2.8-1.1 2.4-1 3.6-1 .6.3 1.2-.2 1.7-.5 0-1.1.5-2 .6-3l-1.1-.4v1c.1.3.3.3.3.6-.4.1-.2.7-.6.8a7.4 7.4 0 0 1-2.6.4c-.5-.3-1-.2-1.5-.6 0-.2-.3-.4-.2-.7 0-.3-.4-.3-.7-.3-.3.4-.8 0-1.3.1-.4.5-.6-.3-1-.4a2 2 0 0 1 .3-1.4 1 1 0 0 0 .3-1 2 2 0 0 1 .4-1.2c-.7-1.3 1.2-1.5 1.7-2.2.5-.5 0-1.2.7-1.6.7 0 1-1 1.8-.7a.8.8 0 0 1 .9-.3c.4.3.8 0 1.3.2.6 0 .6.9 1.3.6a2.8 2.8 0 0 1 1.2 2c.4.7-.4 1.3 0 1.9a.7.7 0 0 1-.2.7c-.4 0-.3.4-.5.7" transform="translate(3.4)" id="path404"/><path class="cls-16" d="M14.7 71.4c-.3-.2-.7-.4-.8-.8h.3c.3.2.4.5.6.8" transform="translate(3.4)" id="path406"/><path class="cls-16" d="M13.6 71c-.1 0-.3-.1-.2-.3s.2-.2.3 0z" transform="translate(3.4)" id="path408"/><path class="cls-16" d="m15.8 71.3-.2-.1a.3.3 0 0 1 .2-.4v.5" transform="translate(3.4)" id="path410"/><path class="cls-16" d="m16.9 71.3-.2.3a.7.7 0 0 1-.4-.5 4.3 4.3 0 0 1 .6.2" transform="translate(3.4)" id="path412"/><path class="cls-17" d="M13.7 72.1c0 .7.9 1.1.5 1.9l-.1 1c0 .2.2 0 .4 0 .4.7-.5 1-.3 1.5-.2.2-.5.2-.6.4 0 .2-.8-.2-.9.2h-.5c0 .1-.3.2-.3.4-.3-.3-.7 0-1 0-.1.3-.5-.2-.6.2l-.3-.2c-.3.3-.7.1-1 .2-.2-.1-.4-.5-.2-.7 0-.4 1-.7.5-1.1a.3.3 0 0 1 0-.3.3.3 0 0 1 .4.2c-.2.5.5.4.7.8a.2.2 0 0 0 .2 0c-.3-.5-.6-1.1-1.1-1.4V75c.4 0 .6-.1.8 0 .3.2.2.5.4.8l.2-.2a1.7 1.7 0 0 0-.4-1c.2 0 .7.6.7 0-.4-.3-1-.2-1.3-.6l-.2.1c0 .3.7.5.3.6-.3 0-.3-.2-.4-.4a2.3 2.3 0 0 1 0-.3c.3-.5 1-.7 1.4-1 0 .4.1.8.5.9a1.3 1.3 0 0 0 .8 0s0-.1.2 0a.5.5 0 0 0 .2.3h.1a4.5 4.5 0 0 0 .8.8c.5-.5-.4-.7-.5-1-.5 0-.3-.6-.7-.5-.1-.3.4 0 .3-.3a2.4 2.4 0 0 1-1-1c.2-.6 1-.2 1.4-.2z" transform="translate(3.4)" id="path414"/><path class="cls-16" d="m16.5 72.3-.4-.1V72c.2 0 .4 0 .4.2" transform="translate(3.4)" id="path416"/><path class="cls-16" d="M17.8 72.8a.2.2 0 0 1-.2 0c0-.3.2-.3.2 0" transform="translate(3.4)" id="path418"/><path class="cls-17" d="M12 73.2v.3h-.5a.4.4 0 0 1-.1-.5c.2-.2.6 0 .6.2" transform="translate(3.4)" id="path420"/><path class="cls-16" d="M14.8 74.3v.1l-.2-.1a.5.5 0 0 1 .1-.5.5.5 0 0 1 .1.5" transform="translate(3.4)" id="path422"/><path class="cls-16" d="M17.7 74.8h-.1s.2-.2.2 0" transform="translate(3.4)" id="path424"/><path d="M12.2 75.6h.7s.2 0 .2.2c-.1.4-.5 0-.7.2s-.6.4-1 .2c-.1-.2.2-.4.3-.6.1 0 .4-.2.5 0" transform="translate(3.4)" id="path426"/><path d="m13.5 75.9-.1.1V76z" transform="translate(3.4)" id="path428"/><path class="cls-16" d="M17 76.8c0 .2-.2.2-.4.2a1 1 0 0 1-.8-.6 1 1 0 0 1 .8-.2z" transform="translate(3.4)" id="path430"/><path class="cls-17" d="M15.3 76.8c.3.7 0 1.3.2 2a13.2 13.2 0 0 0-2.6.2 1.3 1.3 0 0 1-.4-1c.6-.5 1.4-.5 1.8-1 .3-.3.8-.5 1-.2" transform="translate(3.4)" id="path432"/><path class="cls-16" d="M19.4 77.3V80a13.1 13.1 0 0 1-.5 1.6 10.5 10.5 0 0 1-.1-1.4c0-.2.1-.2.2-.3.5-.6.2-1.4.3-2l-.2-.2c-.3.1 0 .4-.2.6-.1-.2 0-.6 0-.8 0-.1.3-.5.5-.2" transform="translate(3.4)" id="path434"/><path class="cls-16" d="m17.8 79.2.2-.2v-1.2h.3c.3.4.1 1 .1 1.4-.2 1 .2 2 0 3.1-1-.5-.6-1.8-1-2.6 0-.7-.6-1.5 0-2 .5.2.3 1 .4 1.5" transform="translate(3.4)" id="path436"/><path class="cls-17" d="M12.2 78c.2.2-.6.9.2.8a.3.3 0 0 1 0 .4c-.2.2-.5 0-.7-.2-.2-.1-.1-.5-.2-.7a1 1 0 0 1 .7-.3" transform="translate(3.4)" id="path438"/><path class="cls-16" d="M18.8 79.4v-1a1 1 0 0 1 0 1" transform="translate(3.4)" id="path440"/><path class="cls-16" id="polygon442" d="m23.3 79-.1.8v-.9z"/><path class="cls-17" d="M14.8 79.3c-.6.4-1.2.1-1.9.2l.1-.2a5.8 5.8 0 0 1 1.8 0" transform="translate(3.4)" id="path444"/><path class="cls-16" d="M17.5 81.9a2.2 2.2 0 0 1-.7-2.4h.1a6 6 0 0 1 .6 2.4" transform="translate(3.4)" id="path446"/><path class="cls-16" d="M14.7 81.7c0 .3.2.5.4.6-.1.1-.2 0-.4 0-.2-.4-.5-.5-.8-.8l.1-.2c.2 0 .5 0 .7.3" transform="translate(3.4)" id="path448"/><path class="cls-16" d="M15.8 81.4c0 .2-.1.4-.3.4l-.3-.1c.2 0 .3-.3.6-.3" transform="translate(3.4)" id="path450"/><path class="cls-16" d="m13.7 81.9.8.9c.9-.1 1.6.3 2.5 0a.7.7 0 0 1 .8 0 .5.5 0 0 1 .2.5c-.7.5-1.7.1-2.3.5-.7.1-1.2-.6-1.6-1-.8.2-1-.8-1.4-1 0-.3.2-.2.3-.2.1 0 .4.4.7.3" transform="translate(3.4)" id="path452"/><path class="cls-16" d="M16.7 81.7v.1h-.1v-.2l.1.1" transform="translate(3.4)" id="path454"/><path class="cls-16" d="M12.1 81.8a.7.7 0 0 1-.3.4h-.4c0-.2.3-.4.5-.5h.2" transform="translate(3.4)" id="path456"/><path class="cls-16" id="rect458" d="M19.5 81.8z"/><path class="cls-16" d="M12.9 82.6c.2 0 .4.2.4.5a1 1 0 0 1-.9.3 1 1 0 0 1-.3-1c0-.2.3-.5.5-.3s-.1.4 0 .6c.1.2.2 0 .3-.2" transform="translate(3.4)" id="path460"/><path class="cls-16" d="M11.8 83.1c-.1.3-.2.6-.5.6-.2-.3-.5-.5-.5-.9a.5.5 0 0 1 1 .3" transform="translate(3.4)" id="path462"/><path class="cls-16" d="M18.6 83c-.1 0-.1 0 0-.2v.2" transform="translate(3.4)" id="path464"/><path class="cls-16" d="M14.6 83.8c-.8.2-2 .7-2.7 0v-.2c.3-.1.6.4 1 0l1-.6c.3.1.5.6.8.8" transform="translate(3.4)" id="path466"/><path class="cls-16" d="M17.2 76c-.2-.3.1-.8-.1-1.2-.5-.7-.3-1.7-1.2-2.2-.8 0-1.2-1-1.9-1.3l-.3.1a5.1 5.1 0 0 0-1.3-.5c-.2.1-.5.1-.6.3.5.1.9 0 1.4.2a3 3 0 0 1 2 2.6c0 .7-.5 1.4 0 2 .5.2 0-.6.4-.8a6.2 6.2 0 0 0 0-1.8c0-.2-.3-.3 0-.5a.8.8 0 0 1 .3.5c0 .7.2 1.6-.1 2.2 0 .7.7 0 1.1.2.4.2.3.6.4.8.3.2.2.5.1.7.3 0 .9 0 1.2-.3-.1-.3-.5-.3-.8-.3-.3 0-.5-.5-.6-.7" transform="translate(3.4)" id="path468"/><path class="cls-20" d="M23.2 51.5c-.5 1.4-.2 2.7-.2 4.2a3.1 3.1 0 0 1 .6 2.1c-.8.8-.5 2-.5 2.9a10.1 10.1 0 0 0 2.1 3.7c1.5 1.3 3.6-.7 4.6 1.2v.2a3.6 3.6 0 0 0-3-.6 6.7 6.7 0 0 1-2.4.1 4.3 4.3 0 0 1-.9-.6c0-.6 0-1.2-.3-1.6l-.2.1c0 1 .3 2.3-.6 3a3.3 3.3 0 0 0-.3-2c-.1-.4 0-.8-.3-1-.4 0-.6.5-1 .7-1.1.6-2.5.6-3.6 1.2-.2 0-.5.2-.6 0 .8-.8 2-.5 3-1.1 1.9-.9 1.3-3 1.8-4.6.1-1.4.3-3.1-.6-4.4 0-1-.3-2 .5-2.6.3-.5-.1-1.2.2-1.7.3.1.5.1.6-.1a2.5 2.5 0 0 0 .7-1.6l.1.2z" transform="translate(3.4)" id="path470"/><path class="cls-3" d="M23.1 35.2V37h2.5v1h-2.4v7c-.4.3-1.3-.5-1.3-.5V38h-2.5V37h2.5v-1.8z" transform="translate(3.4)" id="path472"/><path class="cls-21" d="M26 50c.2.2-.1.5-.2.7a1.3 1.3 0 0 1-.5-.8z" transform="translate(3.4)" id="path474"/><path class="cls-21" d="M25 50.4a.3.3 0 0 1-.2.2c-.2 0-.3-.3-.4-.5s-.1-.2 0-.3c.3 0 .8.2.6.6" transform="translate(3.4)" id="path476"/><path class="cls-21" d="M24 49.8a1.2 1.2 0 0 1-.1.6c-.1-.2-.6-.4-.4-.8a.6.6 0 0 1 .5.2" transform="translate(3.4)" id="path478"/><path class="cls-21" d="M20.4 50.2c.4.1.2-.9.7-.4.3.2 0 .5 0 .7a3.3 3.3 0 0 1-1.3.7.7.7 0 0 1-.2-.9c.3-.1.5-.6.8-.7z" transform="translate(3.4)" id="path480"/><path class="cls-21" d="M17.3 49.5c-.2.2-.5.1-.7.1v-.2l.6.1" transform="translate(3.4)" id="path482"/><path class="cls-21" d="M28.7 49.2c0 .2.1.6-.1.8a.4.4 0 0 1-.3-.2c0-.3 0-.8.2-1z" transform="translate(3.4)" id="path484"/><path class="cls-21" d="M18.1 48.8c0 .4.4.4.5.7.5.1.8-.8 1.3-.5a2 2 0 0 1-1 1.3c-.3.2-.8 0-1.2 0 0-.5-.1-1.2.4-1.5" transform="translate(3.4)" id="path486"/><path class="cls-21" d="m29.7 49-.6-.3.6.3" transform="translate(3.4)" id="path488"/><path class="cls-21" d="M24.3 49v.2c-.3.2-.6-.1-.8-.4v-.1c.3 0 .5.3.8.4" transform="translate(3.4)" id="path490"/><path class="cls-21" d="M26.4 49.2c0 .3-.4.2-.6.3a5.7 5.7 0 0 1-.8 0c0-.2.2-.2.1-.4 0-.1-.5-.1-.6-.3.2-.2.7 0 1 0l1 .4" transform="translate(3.4)" id="path492"/><path class="cls-21" d="M16.3 48.2c.2.3 0 .6-.2 1 0 .2-.5.4-.8.4.2-.5.4-1.2 1-1.4" transform="translate(3.4)" id="path494"/><path class="cls-21" d="m15 48-.3.7c.4 0 .4-.4.7-.5a1.3 1.3 0 0 1-.8 1.1 1.7 1.7 0 0 1-.6.1.4.4 0 0 1-.2-.6A1.1 1.1 0 0 1 15 48" transform="translate(3.4)" id="path496"/><path class="cls-21" d="M31.6 47.9h.1Z" transform="translate(3.4)" id="path498"/><path class="cls-21" d="m31 48.3-.4-.1a.5.5 0 0 1 .2-.4c.2 0 .1.3.1.5" transform="translate(3.4)" id="path500"/><path class="cls-21" d="M18.3 48.1c-.7 0-.8 1.2-1.5.8a1.5 1.5 0 0 1 .7-1.2 1.3 1.3 0 0 1 .8.4" transform="translate(3.4)" id="path502"/><path class="cls-21" d="M27.8 48.4a1.4 1.4 0 0 1-.2 1.4c-.3 0-.2-.3-.3-.5a4.6 4.6 0 0 0-1.6-1 1 1 0 0 1 1 0s0 .2.3.1c.1 0 0-.1 0-.2-.3-.4-.8-.4-1.1-.4l.2-.2c.6.1 1.6-.2 1.7.8" transform="translate(3.4)" id="path504"/><path class="cls-21" d="M21.7 47.3a3 3 0 0 1 .4 2.7c-.4.3-.4-.3-.6-.4-.4-.3-1-.5-1.1-1a3.5 3.5 0 0 0 .8-.8h.2c0 .4.3.7.3 1.1 0 0 0 .2.1 0 .3-.3 0-.5-.1-.8s0-.6-.2-.8h.2" transform="translate(3.4)" id="path506"/><path class="cls-21" d="M16 47.5v.2c-.2 0-.4-.2-.5-.4v-.2a1 1 0 0 1 .6.4" transform="translate(3.4)" id="path508"/><path class="cls-21" d="M20.4 47.1v.2l-.6.7c.4.2.6-.5 1-.5 0 .6-.8.7-1.2 1H19a2.1 2.1 0 0 1 .1-1.1c.4-.3 1-.7 1.4-.3" transform="translate(3.4)" id="path510"/><path class="cls-21" d="M14.8 47c-.3.2-.9.2-.9.6a.2.2 0 0 1-.3-.3c.1-.5.8-.3 1.1-.4" transform="translate(3.4)" id="path512"/><path class="cls-21" d="M29.4 46.9c.2.1.7.3.8.7v.4c-.7.6-1.3 0-2-.2v-.3c.2-.2.8.2 1-.2-.2-.2-.5 0-.4-.3 0-.2.4 0 .6-.1" transform="translate(3.4)" id="path514"/><path class="cls-21" d="M25.6 47.3a2.2 2.2 0 0 1-.8.8 1.8 1.8 0 0 1-.7 0l.2-.2c-.4-.3-1 .1-1.4-.2 0 0-.2 0-.2.2v.1c-.2 0-.2-.3-.3-.4l.6-.1c.8-.5 1.9-1 2.6-.2" transform="translate(3.4)" id="path516"/><path class="cls-21" d="M13 46.6c0 .3-.6.3-.5.7-.2.2-.5.1-.8 0a1.4 1.4 0 0 1 1.1-.8z" transform="translate(3.4)" id="path518"/><path class="cls-21" d="M31.9 46.6c.1.3-.1.5-.4.7a1.7 1.7 0 0 1-1 0c-.2-.2-.4-.3-.4-.5.3-.3 1 .2 1-.4.3 0 .6 0 .8.2" transform="translate(3.4)" id="path520"/><path class="cls-21" d="M19.4 46.5c0 .3-.4.5-.7.6-.2.2-.3-.1-.4.1a.4.4 0 0 1 0 .3c-.3-.2-.8-.2-1-.6 0-.5.5-.5.8-.7.4 0 1-.2 1.3.3" transform="translate(3.4)" id="path522"/><path class="cls-21" d="M28.3 46.7a1.4 1.4 0 0 1-1 .5c-.1-.5-.7-.1-1.1-.3v-.2l.5-.7a1.5 1.5 0 0 1 1.6.8" transform="translate(3.4)" id="path524"/><path class="cls-21" d="M16.5 46v.5a1.1 1.1 0 0 1 .6 1h-.5c-.2-.6-.8-.6-1.2-1 0-.2.2-.3.3-.4a1 1 0 0 1 .8 0" transform="translate(3.4)" id="path526"/><path class="cls-21" d="M17.2 46v.1H17V46l.3.1" transform="translate(3.4)" id="path528"/><path class="cls-21" d="M12.1 46.1a.7.7 0 0 1-.7.2.1.1 0 0 1 0-.3c.3-.1.6-.3.7.1" transform="translate(3.4)" id="path530"/><path class="cls-21" d="M21.5 46a1 1 0 0 1 .4.6c-.4-.1-1-.4-1.2 0a1.4 1.4 0 0 1-1-.6c0-.3.4-.2.7-.4a1.8 1.8 0 0 1 1.2.3" transform="translate(3.4)" id="path532"/><path class="cls-21" d="M12.5 45.7h-.3s.3-.3.3 0" transform="translate(3.4)" id="path534"/><path class="cls-21" d="M30.6 45.6a.3.3 0 0 1 .1.4 3 3 0 0 1-2.4 0c0-.3.4-.3.6-.4.5.2 1-.7 1.5 0z" transform="translate(3.4)" id="path536"/><path class="cls-21" d="M14.8 45.5c.1.3-.1.3-.3.4h-.2l.1.2.3.1a1 1 0 0 1-1 .2 4.2 4.2 0 0 1-.6-.3 1.4 1.4 0 0 1 1-.9c.3 0 .6 0 .8.3" transform="translate(3.4)" id="path538"/><path class="cls-21" d="M33.3 45.5c-.6.3-1.3.8-2 .3l-.1-.2c.1-.2.5 0 .6-.2 0-.3-.5 0-.7-.3a4.3 4.3 0 0 1 1.6-.1c.2.1.6.2.6.5" transform="translate(3.4)" id="path540"/><path class="cls-21" d="M26.4 45c-.1.6-.1 1.2-.7 1.6-.2.1-.3-.1-.4-.2l.3-.2c-.3-.4-.7 0-1 .1 0-.4 0-1 .5-1.2a2 2 0 0 1 1.2-.1" transform="translate(3.4)" id="path542"/><path class="cls-21" d="M24.3 44.9c-.1.4 0 1-.3 1.4a.6.6 0 0 1-.5.3l-.1-.4c-.1 0-.4.5-.7.6a2.9 2.9 0 0 0 .2-1.2 2.2 2.2 0 0 1 1.4-.7" transform="translate(3.4)" id="path544"/><path class="cls-21" d="m11.4 44.9-.2.2a.2.2 0 0 1 .1.2.9.9 0 0 1-1-.2c0-.3.4-.3.6-.3h.5" transform="translate(3.4)" id="path546"/><path class="cls-21" d="M19.5 45.2c.1.2-.1.3-.2.3a2.6 2.6 0 0 1-.8-.1c-.2 0 0 .2 0 .3a.8.8 0 0 1-.9 0c-.1-.2-.5-.4-.4-.7.7 0 1.8-.7 2.3.3" transform="translate(3.4)" id="path548"/><path class="cls-21" d="M16.4 44.7c0 .3.3.5.3.8-.5.2-1-.2-1.5-.2-.2-.2-.4-.4-.3-.6.4-.3 1 0 1.4 0z" transform="translate(3.4)" id="path550"/><path class="cls-21" d="M28.8 44.7c0 .4-.3.5-.6.7-.3 0-.5.2-.8.1 0-.1.2-.1.2-.3-.2-.3-.6 0-.8.2a.8.8 0 0 1 .2-.6 2.3 2.3 0 0 1 1.6-.3z" transform="translate(3.4)" id="path552"/><path class="cls-21" d="M22.2 45.1c0 .4.3.7.2 1-.4 0-.3-.5-.7-.8a1 1 0 0 1-1-.1c0-.3-.4-.5-.2-.8a2.6 2.6 0 0 1 1.7.8" transform="translate(3.4)" id="path554"/><path class="cls-21" d="M13.6 44.7c-.2.2-.4-.2-.5 0-.2.2.3.4 0 .5a1.4 1.4 0 0 1-1-.6c0-.3.5-.5.8-.6.4 0 .5.5.7.7" transform="translate(3.4)" id="path556"/><path class="cls-21" d="M33 44.3a.7.7 0 0 1-.7.2l-.6-.3a.8.8 0 0 1 1.2 0" transform="translate(3.4)" id="path558"/><path class="cls-21" d="M19.7 43.9a2.4 2.4 0 0 1 .4 1.3c-.2 0-.3-.4-.6-.6a1.8 1.8 0 0 0-1.3-.4c-.2 0 0-.2 0-.3a1.3 1.3 0 0 1 1.5 0" transform="translate(3.4)" id="path560"/><path class="cls-21" d="m11 43.9-.2.4c-.2-.1-.5 0-.7-.3-.1-.2.3-.2.5-.3.1-.1.4 0 .4.1" transform="translate(3.4)" id="path562"/><path class="cls-21" d="M15.4 44c-.6-.3-.8.7-1.5.3a.5.5 0 0 1-.1-.4 1.4 1.4 0 0 1 1.6 0v.2" transform="translate(3.4)" id="path564"/><path class="cls-21" d="M17.5 43.9v.1c-.3 0-.4-.2-.7 0 0 .2-.4.1-.5 0a.8.8 0 0 1-.3 0c0-.4.4-.4.6-.5.4-.2.7.2.9.4" transform="translate(3.4)" id="path566"/><path class="cls-21" d="M30.9 43.6a1.7 1.7 0 0 1-1.1 1.1c-.2 0 .2-.3-.1-.4-.3 0-.3.3-.5.3a3 3 0 0 1-.1-.7 2.4 2.4 0 0 1 1.7-.4z" transform="translate(3.4)" id="path568"/><path class="cls-21" d="M26.3 43.9c0 .2 0 .6-.4.6-.3 0-.7.3-.7-.2a.4.4 0 0 1-.3-.6.8.8 0 0 1 .4-.6 1.4 1.4 0 0 1 1 .8" transform="translate(3.4)" id="path570"/><path class="cls-21" d="M13.6 43.2c.1.1-.1.2-.2.3-.3 0-.7.2-.8-.2a.8.8 0 0 1 .2-.6 1.1 1.1 0 0 1 .8.5" transform="translate(3.4)" id="path572"/><path class="cls-21" d="M28.6 42.6a1.7 1.7 0 0 1-.5 1.5c-.4.1-.2-.6-.5-.3l-.6.4a2 2 0 0 1 1.6-1.6" transform="translate(3.4)" id="path574"/><path class="cls-21" d="M31.2 42.9c-.1.3-.5 0-.8.1-.2 0 0-.3 0-.4a.7.7 0 0 1 .8.3" transform="translate(3.4)" id="path576"/><path class="cls-21" d="M12.2 42.6c.1.3-.2.5-.1.8h-.4l.2.5c-.3 0-.4-.4-.6-.6V43a1.1 1.1 0 0 1 1-.4" transform="translate(3.4)" id="path578"/><path class="cls-21" d="m32.7 42.5-.3.6c-.2.2-.4-.2-.6 0a1.5 1.5 0 0 1 .9-.6" transform="translate(3.4)" id="path580"/><path class="cls-21" d="M21.6 42.8v.8l-.4-.4c-.2.2.2.5 0 .8a.4.4 0 0 1-.6-.2 1.8 1.8 0 0 1 .2-1.5.8.8 0 0 1 .7.5" transform="translate(3.4)" id="path582"/><path class="cls-21" d="m16.6 42.7-.1.4a2 2 0 0 1-.9-.2v.3a1.3 1.3 0 0 1-1-.6v-.3c.8.1 1.5-.2 2 .4" transform="translate(3.4)" id="path584"/><path class="cls-21" d="M20.1 43v.7c-.3-.5-1-.2-1.2-.9l.1-.6c.5 0 .8.4 1.2.7" transform="translate(3.4)" id="path586"/><path class="cls-21" d="M18.3 42.2c.2.3 0 .7.2 1-.2.1-.3.3-.6.2-.3-.3-1-.2-.9-.8 0-.2 0-.6.3-.5h1" transform="translate(3.4)" id="path588"/><path class="cls-21" d="M30 42.1c-.1.4 0 .8-.4 1-.2 0 0-.3-.2-.3l-.3.1c0-.4 0-.8.5-.9 0 0 .4-.1.3.1" transform="translate(3.4)" id="path590"/><path class="cls-21" d="M27.4 42.4c0 .5-.5.7-.7 1-.2-.2.4-.4 0-.6-.2.2-.4.4-.6.2a.2.2 0 0 1 0-.4 2.5 2.5 0 0 1 1.2-.6z" transform="translate(3.4)" id="path592"/><path class="cls-21" d="M30.6 41.7a.3.3 0 0 1 0 .4c-.2-.1 0-.4 0-.4" transform="translate(3.4)" id="path594"/><path class="cls-21" d="M24.6 42.4c-.1.4-.1 1-.6 1-.2-.1 0-.6-.4-.6v.7a4.5 4.5 0 0 1 0-1.8c.4 0 1 .2 1 .7" transform="translate(3.4)" id="path596"/><path class="cls-21" d="M13.8 42c.1.4.6.7.5 1.2-.5 0-.4-.7-.9-.7-.3 0-.4-.3-.5-.6-.1-.2 0-.3 0-.4a1.1 1.1 0 0 1 .8.4" transform="translate(3.4)" id="path598"/><path class="cls-21" d="M29.6 41.5h-.2c-.1 0 0-.1 0-.2 0 0 .2 0 .2.2" transform="translate(3.4)" id="path600"/><path class="cls-21" d="M20.8 41.4c0 .2 0 .4-.3.4-.2 0-.2-.4-.4-.6.2 0 .6-.2.6.2" transform="translate(3.4)" id="path602"/><path class="cls-21" d="M21.5 41.1a2.7 2.7 0 0 1 0 .9c-.2 0-.2-.2-.3-.3 0-.2 0-.6.3-.6" transform="translate(3.4)" id="path604"/><path class="cls-21" d="M16 41.5v.2a1 1 0 0 0-.4 0c0 .3-.3.1-.4.1-.1-.2-.5-.5-.3-.8.3.2 1 0 1 .6" transform="translate(3.4)" id="path606"/><path class="cls-21" d="M28.8 41.9c-.2.1-.6.4-.7 0a.4.4 0 0 0-.2 0c-.3-.5.5-.6.7-.9h.2a1.5 1.5 0 0 1 0 .9" transform="translate(3.4)" id="path608"/><path class="cls-21" d="m20 41.7.2.5c-.4-.2-.7-1-1.2-.5-.2 0-.6-.1-.6-.3-.1-.2 0-.5.2-.6a2 2 0 0 1 1.4 1" transform="translate(3.4)" id="path610"/><path class="cls-21" d="M26.8 41c.2 1-.9.9-1.2 1.4v-.5c-.2 0-.3.3-.5.3 0-.2-.2-.3-.1-.6a4.5 4.5 0 0 1 1.7-.9z" transform="translate(3.4)" id="path612"/><path class="cls-21" d="M17.7 41a1 1 0 0 1 .1.6c-.3.4-.8-.9-.7 0-.2.1-.4 0-.6-.1a.7.7 0 0 1-.2-.8 7.3 7.3 0 0 1 1.4.2" transform="translate(3.4)" id="path614"/><path class="cls-21" d="M25.1 40.9c-.2.1-.4.4-.6.4a.3.3 0 0 0-.2-.3c-.3 0-.6.4-.8 0a1.9 1.9 0 0 1 1.6-.3z" transform="translate(3.4)" id="path616"/><path class="cls-20" d="M22 65.2a2.2 2.2 0 0 1-.8.7l.1-.5c.1-.2.6-.8.7-.2" transform="translate(3.4)" id="path618"/><path class="cls-20" d="M23.7 66c-.1-.1-.4-.4-.2-.6.2.1.2.4.2.6" transform="translate(3.4)" id="path620"/><path d="M39.4 114.8A33 33 0 0 1 16 105 33.5 33.5 0 0 1 6 81.2V33.3h66.7v47.9A33.5 33.5 0 0 1 63 105a33 33 0 0 1-23.6 9.8M6.7 34v47.2a32.7 32.7 0 1 0 65.5 0V34Z" transform="translate(3.4)" id="path622"/><path class="cls-9" d="M46.3 50.5v.2a22.2 22.2 0 0 0 .7 3v.2-.2a43.7 43.7 0 0 1 .7-3v-.2h.1l1.9.2a21 21 0 0 1-1.3-6.5v-.1h.1a15.6 15.6 0 0 1 4.2 1.1 22.4 22.4 0 0 1 0-4.9 16 16 0 0 1-4.2 1.1h-.1v-.2a18 18 0 0 1 .9-3.5h-.1a15.3 15.3 0 0 1-2.2.3 15.1 15.1 0 0 1-2.3-.3v.1a17.3 17.3 0 0 1 .8 3.5v.2h-.2a15.7 15.7 0 0 1-4.1-1.1 17.3 17.3 0 0 1 0 2.4 17.3 17.3 0 0 1 0 2.4v.1a15.6 15.6 0 0 1 4.2-1.1h.1v.1a21.7 21.7 0 0 1-1.4 6.4v.1l2-.2z" transform="translate(3.4)" id="path624"/><path d="m47 54.6-.2-.9c0-.6-.2-1-.3-1.6l-.3-1.4-2 .2-.2.1.1-.3a20.9 20.9 0 0 0 1.4-6.4 15.5 15.5 0 0 0-4 1.1l-.4.2v-.4a19.3 19.3 0 0 0 .1-2.4 19.8 19.8 0 0 0-.1-2.3V40l.3.1a15 15 0 0 0 4 1.2 17 17 0 0 0-.8-3.5l-.1-.3h.3a17.5 17.5 0 0 0 2.3.3 17 17 0 0 0 2.3-.3h.3v.3a17.4 17.4 0 0 0-1 3.5 15.1 15.1 0 0 0 4.1-1.2h.3v.3a18.3 18.3 0 0 0-.1 2.3 17.8 17.8 0 0 0 0 2.4v.3l-.3-.1a15.6 15.6 0 0 0-4.1-1.1 21.3 21.3 0 0 0 1.4 6.4l.1.3h-.3l-1.9-.3a22.2 22.2 0 0 1-.7 3zm-.5-4.3v.2l.3 1.5.2.7.2-.7.3-1.5v-.2h.2l1.8.2a20.6 20.6 0 0 1-1.3-6.4v-.2h.2a12.5 12.5 0 0 1 4.1 1v-4.2a12.3 12.3 0 0 1-4.1 1h-.2v-.2A17.4 17.4 0 0 1 49 38a14.1 14.1 0 0 1-2 .2 14.1 14.1 0 0 1-2-.2 16.9 16.9 0 0 1 .8 3.5v.2h-.2a12.2 12.2 0 0 1-4.2-1l.1 2.1v2.1a12.4 12.4 0 0 1 4-1h.3v.2a21 21 0 0 1-1.3 6.4l1.7-.2z" transform="translate(3.4)" id="path626"/></g></g></g></svg>