<svg id="flag-icons-es-ct" viewBox="0 0 512 512" version="1.1" xml:space="preserve" xmlns="http://www.w3.org/2000/svg"><defs id="defs9"><clipPath id="clip-path" transform="translate(3.4)"><path class="cls-1" id="rect4" d="M0 0h83.63v114.8H0z"/></clipPath><clipPath id="clip-path-2" transform="translate(3.4)"><path class="cls-1" d="M9.42 33.66V81.2a32 32 0 1 0 66.05 0V33.66Z" id="path7"/></clipPath><clipPath id="clip-path-3" transform="translate(3.4)"><path class="cls-1" d="M43 68.68v45.8A33.16 33.16 0 0 0 76 81.2V68.68Z" id="path10" color="#000"/></clipPath><clipPath id="clip-path-5" transform="translate(3.4)"><path d="M9.42 68.68V81.2a33.15 33.15 0 0 0 33 33.28v-45.8Z" id="path13" class="cls-1"/></clipPath><style id="style2">.cls-1,.cls-14,.cls-18{fill:none}.cls-2{clip-path:url(#clip-path)}.cls-3,.cls-8{fill:#d22333}.cls-13,.cls-15,.cls-21,.cls-3{fill-rule:evenodd}.cls-5{clip-path:url(#clip-path-2)}.cls-6{fill:#fce400}.cls-9{fill:#fff}.cls-14,.cls-18{stroke:#000}.cls-14{stroke-miterlimit:3.86}.cls-12{fill:#e2cc6c}.cls-13{fill:#487252}.cls-14{stroke-width:.49px}.cls-16{fill:#a6af86}.cls-17{fill:#e89e00}.cls-18{stroke-width:.01px}.cls-20{fill:#797130}.cls-21{fill:#67a275}</style></defs><path fill="#fcdd09" d="M0 0h512v512H0z" id="path2"/><path stroke="#da121a" stroke-width="60" d="M0 90h810m0 120H0m0 120h810m0 120H0" transform="scale(.6321 .94815)" id="path4"/><g id="layer1"><g id="Capa_1-2" data-name="Capa 1" transform="matrix(2.48163 0 0 2.48163 151.278 113.522)"><g class="cls-2" clip-path="url(#clip-path)" id="g22"><path class="cls-3" d="M6.41 32.73s20.87-2 29.67-2 30.17.49 36.2 1.81l.08 1.07H6.41Z" transform="translate(3.4)" id="path18"/><path d="M72.47 81.2a33 33 0 1 1-66 0V33.66h66z" transform="translate(3.4)" id="path20" style="fill:#243a95"/></g><g class="cls-5" clip-path="url(#clip-path-2)" id="g26"><path class="cls-6" id="rect24" d="M42.85 68.68h33.03v46H42.85z"/></g><g clip-path="url(#clip-path-3)" id="g36" style="clip-path:url(#clip-path-3)"><path class="cls-8" id="rect28" d="M46.52 68.68h3.67v55.7h-3.67z"/><path class="cls-8" id="rect30" d="M53.85 68.68h3.67v55.7h-3.67z"/><path class="cls-8" id="rect32" d="M61.19 68.68h3.67v55.7h-3.67z"/><path class="cls-8" id="rect34" d="M68.53 68.68h3.67v55.7h-3.67z"/></g><g class="cls-5" clip-path="url(#clip-path-2)" id="g42"><path d="M82.78 119H39.14V68.38h43.64zm-43-.6h42.4V69H39.75Z" transform="translate(3.4)" id="path38"/><path class="cls-9" id="rect40" d="M.3 68.68h42.55v50.04H.3z"/></g><g clip-path="url(#clip-path-5)" id="g46" style="clip-path:url(#clip-path-5)"><path class="cls-8" id="polygon44" d="M25.2 88.49H4.07v-3.02H25.2V64h3v21.47h31.14v3.02H28.2v31.21h-3z"/></g><g class="cls-5" clip-path="url(#clip-path-2)" id="g54"><path d="M39.75 119H-3.4V68.38h43.15Zm-42.55-.6h41.94V69H-2.8Z" transform="translate(3.4)" id="path48"/><path class="cls-6" id="rect50" d="M3.1 32.01h39.75v36.67H3.1z"/><path d="M39.75 69H-.6V31.71h40.35ZM0 68.38h39.14V32.31H0Z" transform="translate(3.4)" id="path52"/></g><g class="cls-2" clip-path="url(#clip-path)" id="g628"><path d="M72.47 81.2a33 33 0 1 1-66 0V33.66h66z" transform="translate(3.4)" id="path56" style="stroke-width:.64px;stroke-miterlimit:3.86;stroke:#000;fill:none"/><path d="M41 1.66c0 1.23 1.42.75 2 1.54.3.48.83 1 .68 1.51-.64.6-1.12-.48-1.86-.09a2 2 0 0 0-1 .6 7.21 7.21 0 0 0-.16 2.28c.21.32 0 .86.46 1.05a1.86 1.86 0 0 1 1.19.45 4.43 4.43 0 0 0 1.23 1.62c.62-.52.48-2.09 1.66-1.78a1.52 1.52 0 0 0 .47.34c.07-.44-.25-.81-.35-1.22.07-.66.59-1 1-1.5.41-.5 1.28-.58 1.57-1.17.11-.14.33-.07.45 0 .15.78 1 .44 1.4 1.1.54.07.58.68.89 1 .31.32-.13.86-.18 1.3.3-.05.67-.27 1-.12l.25.12a7.49 7.49 0 0 1 1.32 2.07c.92-.2.74-1.28 1.61-1.62.39-.33 1.14-.08 1.33-.68.07-1.14.51-2.38-.51-3.28-.5-.63-1.35-.31-2-.45-.1-.77.59-1.31 1.17-1.7.58-.39 1.51-.23 1.42-1.12.38-.61.77-1.43 1.58-1.55a3.41 3.41 0 0 1 1.06 2.23 4.58 4.58 0 0 1 1.69 1.07c.28.49 1 1 .59 1.57-.7.1-1.33-.57-2.09-.16-.91.86-.76 2.36-.48 3.53.37.27.87.24 1.2.65.65.52.48 1.4 1.2 1.86 0 .06 0 .15.12.2.3-.08.23-.49.43-.64.56-.4 1-1.43 1.82-1 .06 0 .1.12.16.12a2.48 2.48 0 0 0-.19-.61c-.27-1.14.89-1.9 1.65-2.45.35-.1.84-.29.89-.69.08-.07.21 0 .32 0 .29.89 1.38.61 1.8 1.45.47.36.87 1 .68 1.46-.07.27-.42.5-.2.77a1.14 1.14 0 0 1 1 0 9 9 0 0 1 1 1.59c.06.27 0 .57.28.76.29-.3.74-.5 1-.89a1.42 1.42 0 0 1 2.38-1 3.8 3.8 0 0 1 .57 1 1.46 1.46 0 0 0 .87-1.18 4 4 0 0 0-2-4c-.19-.15-.14-.35 0-.52a2.35 2.35 0 0 1 1.84-.65c.68-1.17 1.7-2.44 3.16-2.46a1.75 1.75 0 0 1 1.24.16c-.34.76-1.18.92-1.58 1.62-1.28 1.88-.57 4.53-.78 6.76a6.35 6.35 0 0 1-2.19 3.76 4.47 4.47 0 0 1-.16 1.75 3.07 3.07 0 0 1-.47 3.07c-.08.61-.74 1-1 1.5.53.71-.61 1.67.34 2.23a.84.84 0 0 1-.2.89c-.2.25-.62.12-.72.47v1a3.13 3.13 0 0 1 1 3.12c-.14 1.17-1.81 1.48-1.42 2.87.26.37.84.24.89.78.05.54-.15 1.06-.61 1.09a19.35 19.35 0 0 1-2.74-.14c-2.85-.27-5.91-.65-8.71-.8-5-.27-9.78-.54-14.67-.63H33.34c-9.08.17-18 .61-27.07 1.58a1.34 1.34 0 0 1-.67-.64 1.09 1.09 0 0 1 .64-1.13c-.06-.66.26-1.6-.62-1.94a3 3 0 0 1-.53-2.89 6.88 6.88 0 0 1 .66-1.09c0-.49.12-1.27-.36-1.57a.91.91 0 0 1-.6-.58c-.27-.56.63-.77.49-1.3s0-.81 0-1.28a13.74 13.74 0 0 1-1.46-1.88c-.5-1.42.46-2.88 0-4.25-1.76-1.75-2.12-4.31-1.74-6.71A15.09 15.09 0 0 1 2 6.4C1.72 5.1 1.41 3.65.12 2.88 0 2.77-.06 2.61 0 2.48a2.48 2.48 0 0 1 2.06.45 5.78 5.78 0 0 1 1.76 1.62 3.09 3.09 0 0 1 1.76.74 1.28 1.28 0 0 1 .33 1 3.68 3.68 0 0 0-2 3.35c.05.54 0 1.2.47 1.47a2.15 2.15 0 0 1 .89-1.18 1.83 1.83 0 0 1 2 .53c.47.39.17 1.17.75 1.42.2.17.57.41.65 0 .33-.77.55-1.9 1.57-2h.33a3 3 0 0 1-.12-1.38c.25-.18.15-.52.28-.76.22-.88 1.38-.75 1.5-1.61.17-.12.35-.29.57-.17.17.47.65.56 1.07.61.48.65 1.42.62 1.65 1.43.13.52-.24 1-.2 1.46a1.55 1.55 0 0 1 1-.25c.74.35 1.22 1.19 1.72 1.75 1-.15.89-1.28 1.73-1.61a2.67 2.67 0 0 0 1-.61 8.62 8.62 0 0 0-.16-2.63 2.27 2.27 0 0 0-.72-1 3 3 0 0 0-1.69 0 .29.29 0 0 1-.35-.21c.05-1.06 1.16-1.68 2-2.1A5.15 5.15 0 0 1 21.41.05c.75.05 1.08.91 1.43 1.45.12.36.05.88.52 1a3 3 0 0 1 2.05 1.78.5.5 0 0 1-.26.57c-.68-.07-1.64-.31-2.12.36a3.59 3.59 0 0 0-.18 2.38c.18.32.08.84.57 1 1.4 0 1.4 1.58 2.48 2.24.47-.52.49-1.42 1.25-1.73.32-.09.45.28.72.32.08-.51-.35-1-.2-1.5a3.46 3.46 0 0 1 2-2.11c.26-.15.1-.69.57-.55.61.73 1.62.85 2.32 1.58.52.47.33 1.2.31 1.87.34 0 .69-.3 1.09-.13a3.78 3.78 0 0 1 1.48 2.2c.46-.33 1.06-.72 1-1.38.27-.59.89-.69 1.37-1 .19.07.49.06.52-.2.09-.6-.18-1.31-.07-2a2.1 2.1 0 0 0-1.49-1.57c-.48-.27-1.27.55-1.24-.26.26-1.06 1.47-1.56 2.37-1.9a11.66 11.66 0 0 1 .85-1.83c.19-.42.59-.47.94-.64.71.22.89 1.08 1.27 1.66M70.91 14.5c0-.15-.17-.22-.29-.25-.57.65-.92 1.5-1.78 1.81-.49.34-.74-.32-1.12-.49l.36 1.27a3.64 3.64 0 0 1-1.26 1.9c-.18.2-.69.05-.69.4a4.38 4.38 0 0 0 5.63.78c.3-.25.75-.47.85-.89a2 2 0 0 1-1-1.34c.36-1.38-1.31-1.81-.7-3.19M62.06 16a8.78 8.78 0 0 1-1.16-2.63c-1.13.5-.38 1.78-1.22 2.42-.87.37-.26 1.28-.73 1.85a2.84 2.84 0 0 1-1.21 1.06 3.22 3.22 0 0 0 1.49 1 4.42 4.42 0 0 0 4.58-1c.26-.29-.17-.47-.32-.69a2 2 0 0 1-.31-2.01l-.12.08c-.3.13-.75.3-1 0m-8.52-1.82c-.22-.19-.4-.46-.65-.56-.36.64-.66 1.53-1.53 1.65-.19 0-.42-.15-.55 0a2.14 2.14 0 0 1-.55 1.89c-.13.61-.85.52-1.07 1a4.18 4.18 0 0 0 2.2 1.36 4.59 4.59 0 0 0 3.77-.88c.14-.25-.18-.37-.35-.49-.65-.36-.58-1.17-.53-1.66a2.15 2.15 0 0 1-.74-2.28m-9.3.86c-.63-.39-.3-1.23-.8-1.66-1.44.38-.29 2.18-1.61 2.63-.14.66.19 1.23-.45 1.68-.13.24-.48.15-.48.46a4.13 4.13 0 0 0 4.1 1 3 3 0 0 0 1.89-1.3c-.38-.5-1-.89-1.16-1.54-.14-.3.12-.62-.08-.89-.09.05-.2.05-.27.12-.47.16-.8-.24-1.14-.53m-8-1.08c-.25-.19-.4-.57-.68-.66A3.32 3.32 0 0 1 34 15c-.24.08-.6 0-.81.08.84 1.25-.72 1.94-1.33 2.83a3.25 3.25 0 0 0 1 .81 4.44 4.44 0 0 0 4.14-.06c.2-.19.55-.24.6-.58a1.78 1.78 0 0 1-.67-2 2.23 2.23 0 0 1-.72-2.1M26 13.18c-.23 0-.28.27-.43.4a2.5 2.5 0 0 1-.41 2c-1 .37-.11 1.21-.61 1.85a2.61 2.61 0 0 1-1.13 1 2.3 2.3 0 0 0 .92.73 4.51 4.51 0 0 0 4.71-.47c.2-.17.57-.44.6-.76-.56-.71-1.92-1.31-1.28-2.43-.31.06-.58.37-1 .2-.2-.12-.52-.34-.52-.61a7 7 0 0 1-.85-1.91m-7.5 1.07a.41.41 0 0 0-.45-.41c-.39.57-.65 1.31-1.3 1.67a1.06 1.06 0 0 1-1.21-.09c.14.2.24.42.4.61.45 1.13-.67 1.83-1.36 2.54.11.49.65.68 1 .9A4.69 4.69 0 0 0 20 19.2c.27-.22.72-.4.72-.81a1.73 1.73 0 0 1-.83-.58 3.17 3.17 0 0 1-.32-1.48 2.11 2.11 0 0 1-1-2.08M9 14.94l-.28-.53c-.84.1-.39 1-.68 1.5-1 .67-.34 1.91-1.22 2.63-.25.22-.65.37-.77.64a4.22 4.22 0 0 0 3.25 1.39 4.08 4.08 0 0 0 3.55-2 4.16 4.16 0 0 1-1.73-1.23 2.24 2.24 0 0 1-.07-1.28.93.93 0 0 1-.65.27c-.72-.07-1-.9-1.4-1.42" transform="translate(3.4)" id="path58"/><path class="cls-12" d="M22.44 2.08c.16.27 0 .74.36.89a1.89 1.89 0 0 1 1.81.94.43.43 0 0 1 .06.32c-.65.08-1.3-.07-1.84.31a2.86 2.86 0 0 0-.73 1.82c.18 2 1.24 3.62 1.07 5.68a1 1 0 0 1-.74.69 1.14 1.14 0 0 1-1.07-.18c-1.22-1.55.28-3.08 0-4.81-.2-.59.08-1.25-.23-1.79a2.71 2.71 0 0 0-1-1.37c-.47-.22-1-.09-1.41-.29.51-.93 2.1-.84 1.85-2.22.24-.49.48-1.11 1-1.33a2.42 2.42 0 0 1 .89 1.34" transform="translate(3.4)" id="path60"/><path class="cls-12" d="M40.27 1.66a6.45 6.45 0 0 0 .37 1.25 3.17 3.17 0 0 1 1.92.95v.07a3.14 3.14 0 0 0-2.1.6c-1.34 1.83-.06 4.11.23 6 .22.53-.07 1-.17 1.54-.3.29-.67.82-1.13.6-.46-.22-.65-.66-.83-1-.28-1.94 1.07-3.49.26-5.35a2.62 2.62 0 0 0-1.09-1.94c-.4 0-.66-.32-1.07-.33.16-.5.74-.5 1.08-.8.47-.07 1-.2 1-.81a3.22 3.22 0 0 1 .49-1.18c.15-.11.31-.42.56-.35a2 2 0 0 1 .51.85" transform="translate(3.4)" id="path62"/><path class="cls-12" d="M58 1.64a4.19 4.19 0 0 1 .2 1.3c.46.48 1.23.38 1.72.9.1.17.3.31.31.53-.7 0-1.7-.08-2.09.68a2.85 2.85 0 0 1-.44 1c-.31 1.89.49 3.65.55 5.56a1.75 1.75 0 0 1-.54 1.13c-.27.2-.69.41-1 .14-.31-.27-.6-.59-.72-1-.17-1.93 1-3.41.83-5.43a2.84 2.84 0 0 0-1.75-2.32l-.6-.07c.3-1 1.42-.65 1.93-1.34 0-.65 1.15-3 1.61-1.13" transform="translate(3.4)" id="path64"/><path class="cls-12" d="M78.22 3A7.43 7.43 0 0 0 77 5.07c-.7 2.33 0 4.71-.67 7a6.79 6.79 0 0 1-2.45 2.79.71.71 0 0 1-.65-.25 2.23 2.23 0 0 1 .52-2.26c.79-.61 1.95-1 2.16-2.1a4.2 4.2 0 0 0-1.53-4.14 2.35 2.35 0 0 1-.31-.56c.52-.66 1.32.32 1.69-.52a2.69 2.69 0 0 1 2.42-2" transform="translate(3.4)" id="path66"/><path class="cls-12" d="M3.25 4.92c.57.46 1.57.19 1.85 1a4.51 4.51 0 0 0-1.82 4.65 1.78 1.78 0 0 0 .83 1.29 1.55 1.55 0 0 0 .72.14 2.86 2.86 0 0 1 1.11 2.43 1.57 1.57 0 0 1-.32.61C4 14.73 2.93 13 2.67 11.43c-.44-1.65.2-3.37-.06-5.06a14.82 14.82 0 0 0-.8-2.84 2.58 2.58 0 0 1 1.44 1.39" transform="translate(3.4)" id="path68"/><path class="cls-12" d="M49.75 6.93a1.13 1.13 0 0 1 .35 1.16 7.16 7.16 0 0 1-1.29 2.27c-.45.05-.88-.3-1.28 0-.39-.14-.57-.54-.86-.81-.18-.75-1.21-1.53-.42-2.28A4.45 4.45 0 0 1 48 6a5.49 5.49 0 0 1 1.72.91" transform="translate(3.4)" id="path70"/><path class="cls-12" d="M32.35 7.38c.36 1.12-.6 1.85-.9 2.78-.77-.07-1.65.89-2.21 0a2.81 2.81 0 0 1-1-2.2c0-.66.88-.82 1-1.45l1-.43a5 5 0 0 1 2.13 1.34" transform="translate(3.4)" id="path72"/><path class="cls-12" d="M67 7.31c.5.12.78.68 1.12 1 0 .78-.6 1.3-.9 1.94a6.27 6.27 0 0 1-.76 1.06 3.36 3.36 0 0 0-1.46-.04c-.15-1.15-2-2.18-.74-3.33.5-.45 1.09-.7 1.61-1.12.42 0 .68.47 1.12.49" transform="translate(3.4)" id="path74"/><path class="cls-12" d="M14.81 7.87c.37.57-.17 1.18-.28 1.75a14 14 0 0 1-.74 1.57c-.67-.12-1.51.48-1.8-.5-.25-.81-1.72-1.44-.87-2.43.09-.84.9-1 1.45-1.53a4.84 4.84 0 0 1 2.24 1.14" transform="translate(3.4)" id="path76"/><path class="cls-12" d="M52 9.89a4.12 4.12 0 0 1-.13 4.45.57.57 0 0 1-.77.15c-.6-.3-1-1-1.67-1.34a3.22 3.22 0 0 0 .32-1.53c0-.39-.52-.65-.28-1 .59-.48 1-1.16 1.61-1.58.44.06.66.56.92.87" transform="translate(3.4)" id="path78"/><path class="cls-12" d="M34.35 9.7c.38 1.12 1.13 2.54.42 3.8-.25.37-.59.82-1 .89-.81-.15-1-1.05-1.52-1.59a2.65 2.65 0 0 0-.4-1.83v-.15c.63-.52.95-1.35 1.69-1.73.48-.1.45.52.85.61" transform="translate(3.4)" id="path80"/><path class="cls-12" d="M42.05 9.53c.17.35.12.93.6 1a2.2 2.2 0 0 1 .45 2.1c-.07.61-.79.72-1 1.26 0 .52.08 1.16-.41 1.42-1.26.35.21 2.43-1.47 2-.2-.18-.3-.55-.63-.52-.79-.16-1.51 1.53-2 .28-.09-.58.47-1.38-.4-1.62-.4-.46-.26-1-.25-1.62-.21-.56-.76-.65-1-1.22a2.74 2.74 0 0 1 0-1.42c.32-.52 1-.76 1-1.42a1.41 1.41 0 0 1 1.17-.6c.1.39-.17.73-.23 1.1a3.29 3.29 0 0 0 .94 3 1.89 1.89 0 0 0 1.44.12A2.9 2.9 0 0 0 41.37 12a6.21 6.21 0 0 0-.24-2.78c.19-.29.49 0 .72 0z" transform="translate(3.4)" id="path82"/><path class="cls-12" d="M25.18 11a2.06 2.06 0 0 1 .15 1.82c-1 .77.24 2.4-1.31 2.88-.12.68.32 1.72-.56 2-.73.12-1.43-.79-2.06 0a1 1 0 0 1-.95-.21c-.45-.51.07-1.11-.45-1.59a2.08 2.08 0 0 1-.79-2c-.32-.5-.9-.79-.87-1.45-.16-1.13 1.18-1.35 1.33-2.31a1 1 0 0 1 .76-.37c-.17.95-.41 2.16.19 3a1.84 1.84 0 0 0 1.4.81 1.92 1.92 0 0 0 1.67-1 5.21 5.21 0 0 0-.24-3.17c.11-.29.35 0 .53 0 .47.46.63 1.15 1.2 1.58" transform="translate(3.4)" id="path84"/><path class="cls-12" d="M46.07 10.19c.2.25.48.39.65.61a2.65 2.65 0 0 0-.21 1.53l.48.93A14.71 14.71 0 0 1 45.38 15c-.5.17-.72-.51-1-.78-.08-.32 0-.73-.25-1 .27-.78-.33-1.45.06-2.18-.15-.61.41-1 .44-1.58a.34.34 0 0 1 .37-.12 5.06 5.06 0 0 0 1.07.85" transform="translate(3.4)" id="path86"/><path class="cls-12" d="M60.27 11.29a2.22 2.22 0 0 1-.09 2c-.17.32-.56.25-.66.56a1.82 1.82 0 0 1-.73 1.94c-.79.4.05 1.65-.84 2a.57.57 0 0 1-.61.13c-.35-.17-.63-.58-1.05-.41a1.23 1.23 0 0 1-.84.24 1.5 1.5 0 0 1-.56-1.54c-.35-.53-1-.95-.8-1.68.44-1-1-1.33-.74-2.3-.1-1.06 1.22-1.42 1.45-2.35a1 1 0 0 1 .77-.35c-.24 1.16-.67 2.64.18 3.73.46.29.87.83 1.53.56a2.28 2.28 0 0 0 1.58-1.56 10.65 10.65 0 0 0-.19-2.72c.13-.19.33 0 .46 0 .64.45.4 1.39 1.14 1.75" transform="translate(3.4)" id="path88"/><path class="cls-12" d="M17.66 11.86c0 1.13.06 2.37-1 3.1a.55.55 0 0 1-.56.09 6 6 0 0 1-1.4-1.26 2.31 2.31 0 0 0 .12-1.47l-.4-.67a4.86 4.86 0 0 1 1.54-2 3 3 0 0 1 1.68 2.2" transform="translate(3.4)" id="path90"/><path class="cls-12" d="M29 11.1c.09.44-.23.92 0 1.37.23.45.63.91.08 1.3S28.21 15 27.58 15a4.84 4.84 0 0 1-1-2.43 2.93 2.93 0 0 1 .24-2.34.65.65 0 0 1 .25-.46c.19-.12.35.07.52.14z" transform="translate(3.4)" id="path92"/><path class="cls-12" d="M64.23 11.76a2.4 2.4 0 0 0 .11 2.11v.23a8.44 8.44 0 0 1-1.73 1.5c-.65-.53-.77-1.42-1.08-2.15a3.16 3.16 0 0 1 .24-1.82 2.29 2.29 0 0 1 1-1.55l.16.05z" transform="translate(3.4)" id="path94"/><path class="cls-12" d="M69.26 10.51c.42.76.63 1.57 1 2.32.2 1.18-.71 2-1.55 2.68-.4 0-.59-.45-.75-.7-.27-.46-1-.59-.89-1.22a1.62 1.62 0 0 0-.19-1.74v-.2a10.49 10.49 0 0 1 1.58-1.41 1.13 1.13 0 0 1 .75.27" transform="translate(3.4)" id="path96"/><path class="cls-12" d="M73.8 10.82c.53.83-.62 1-.84 1.66a2.8 2.8 0 0 0-.18 2.38 1.55 1.55 0 0 0 1.29.46c.2 0 .35-.35.52-.13a1.88 1.88 0 0 1-.21 1 4.09 4.09 0 0 1 .13 2.19.49.49 0 0 1-.61.2c-.4-.59-.92.12-1.33-.29-1.11-.59.39-2-.95-2.43-.38-.48-.13-1.15 0-1.67a1.29 1.29 0 0 1-.52-1.37c.14-.42.34-.93.86-1 .42-.27.12-.84.44-1.16.32-.32 1.19-.47 1.44.16" transform="translate(3.4)" id="path98"/><path class="cls-12" d="M11.83 11.84a2.38 2.38 0 0 0 .23 2.26 4.57 4.57 0 0 1-1.62 1.62c-.58-.17-.7-.82-1-1.22-.12-.8-.78-1.52-.36-2.4.49-.57.31-1.42 1.09-1.73a7.57 7.57 0 0 1 1.69 1.47" transform="translate(3.4)" id="path100"/><path class="cls-12" d="M7 11.16a1.6 1.6 0 0 0 1 1.51c.15.29.38.58.23.93-.15.35-.39.62-.64.93 0 .69.06 1.48-.66 1.9a2.19 2.19 0 0 1-.68 1.94c-.25.17-.62 0-.89.13s-.42.64-.8.64a2.88 2.88 0 0 1-.11-2.75c0-.34-.15-.66 0-.93.5 0 1 .59 1.52.16a2.06 2.06 0 0 0 .58-1.91 3.1 3.1 0 0 0-1.45-2.3c-.17-.15 0-.35 0-.54a1 1 0 0 1 .61-.44 1.42 1.42 0 0 1 1.29.73" transform="translate(3.4)" id="path102"/><path class="cls-9" d="M48.85 11a1.08 1.08 0 0 1 .31 1.18 1 1 0 0 1-.49.64 1.3 1.3 0 0 1-.87.08 1.18 1.18 0 0 1-.8-1 1.32 1.32 0 0 1 .32-.81 1.12 1.12 0 0 1 1.53-.09" transform="translate(3.4)" id="path104"/><path class="cls-9" d="M31.36 11.17a1.33 1.33 0 0 1 .31 1.27c-.08.32-.43.54-.72.69a1.31 1.31 0 0 1-1.09-.21 1.24 1.24 0 0 1-.43-.86A1.17 1.17 0 0 1 30 11a1.2 1.2 0 0 1 1.32.15" transform="translate(3.4)" id="path106"/><path class="cls-9" d="M66.49 12.05a1.28 1.28 0 0 1 .35.85 1.29 1.29 0 0 1-.92 1.1 1.33 1.33 0 0 1-1.09-.29 1.36 1.36 0 0 1-.31-1.3 1.4 1.4 0 0 1 .92-.72 1.59 1.59 0 0 1 1 .37" transform="translate(3.4)" id="path108"/><path class="cls-9" d="M14 12a1.21 1.21 0 0 1 .35 1.22 1.48 1.48 0 0 1-.73.77 1.56 1.56 0 0 1-1-.12 1.38 1.38 0 0 1-.57-1 1.45 1.45 0 0 1 .49-1A1.39 1.39 0 0 1 14 12" transform="translate(3.4)" id="path110"/><path class="cls-12" d="M49.67 14.77c.33.39.82.77.56 1.34-.26.57-.72 1.35-1.49 1.41a1.86 1.86 0 0 1-1.49-.21c-.47-.49-1.1-1-.92-1.69l1.22-2.07c.51.2 1.24-.45 1.49.33z" transform="translate(3.4)" id="path112"/><path class="cls-12" d="M31.44 13.54a11.46 11.46 0 0 1 1.19 2.1c.28.91-.82 1.09-1.18 1.66-.52.45-1.17 0-1.67-.17-.32-.31-.73-.5-.85-.94a8.1 8.1 0 0 1 1.38-2.5 7.14 7.14 0 0 0 1.13-.15" transform="translate(3.4)" id="path114"/><path class="cls-12" d="M66.52 14.35c.35.76.56 1.57.91 2.32.15.54-.39.79-.44 1.26a2.23 2.23 0 0 1-2.18.4 2 2 0 0 1-1-.78c0-.39-.35-.68-.17-1.1a19.28 19.28 0 0 1 1.3-1.85v-.12a4.84 4.84 0 0 0 1.61-.13" transform="translate(3.4)" id="path116"/><path class="cls-12" d="M14.15 14.35c.3 1.08 2.32 2 .87 3.12a1.43 1.43 0 0 1-1.46.66c-.7-.26-1.57-.25-2-1.11a4.49 4.49 0 0 1 .93-2.22c.34-.58 1.12-.07 1.61-.45" transform="translate(3.4)" id="path118"/><path class="cls-12" d="M40.58 18.75a5.42 5.42 0 0 0 5.86.31c.6-.43 1.06-1.19 1.94-.88A5.37 5.37 0 0 0 54 19.82a9.89 9.89 0 0 0 2.54-1.58 5.47 5.47 0 0 0 5.3 2.17 5.82 5.82 0 0 0 2.67-1.48c1.21-.33 1.33 1.15 2.35 1.38a4.85 4.85 0 0 0 5.23 0 5 5 0 0 0 1.33-1.25.61.61 0 0 1 .48.16c.13.62-.52 1-.89 1.34a5.81 5.81 0 0 1-6.07.71A15.69 15.69 0 0 1 65 19.78c-.75 0-1.17.7-1.81.92a5.87 5.87 0 0 1-5.42-.34l-1.32-1.11a8.77 8.77 0 0 0-1.26.86 5.75 5.75 0 0 1-6-.36c-.48-.26-.75-.91-1.32-.85a5.81 5.81 0 0 1-5.72 1.43 7.56 7.56 0 0 1-2.72-1.83c-.47 0-.6.52-1 .68a5.74 5.74 0 0 1-5.63.84 10.38 10.38 0 0 1-1.83-1.15c-.62.08-.88.77-1.41 1a5.93 5.93 0 0 1-5.4.46 13.71 13.71 0 0 1-1.89-1.25h-.26a5.81 5.81 0 0 1-6.29 1.68 10.08 10.08 0 0 1-1.84-1h-.12a6 6 0 0 1-6.17 1.74A5.85 5.85 0 0 1 5 19.78c0-.22.25-.25.37-.4h.12a5.11 5.11 0 0 0 5.82 1.24 6.27 6.27 0 0 0 2.25-1.94 6.57 6.57 0 0 0 3.7 1.69 5.23 5.23 0 0 0 4.43-2.09.53.53 0 0 1 .52-.2 5.16 5.16 0 0 0 5.47 1.76 5.64 5.64 0 0 0 2.73-1.78c.79-.24 1.12.64 1.73.81a5.07 5.07 0 0 0 5.59 0l1.65-1.41c.41.37.76.89 1.2 1.33" transform="translate(3.4)" id="path120"/><path class="cls-6" d="M39.42 19.31a11.26 11.26 0 0 0 2.15 1.39v.08l-.92.08c-1.39 0-2.68-.07-3.93-.1v-.08a21.12 21.12 0 0 0 2.5-1.37z" transform="translate(3.4)" id="path122"/><path class="cls-6" d="M31.9 20.17a10.07 10.07 0 0 1 1.28.61 26.06 26.06 0 0 1-4.5.11c.74-.31 1.31-1 2.05-1.33.45 0 .75.46 1.17.61" transform="translate(3.4)" id="path124"/><path class="cls-6" d="M50 20.93a30.12 30.12 0 0 1-4.15-.1v-.08c.69-.34 1.31-.75 2-1.12a19.15 19.15 0 0 1 2.15 1.3" transform="translate(3.4)" id="path126"/><path class="cls-6" d="m24.17 21-.12.12a33.55 33.55 0 0 1-4.22.14 4.39 4.39 0 0 1 .93-.52 6.12 6.12 0 0 1 1.29-.93c.73.33 1.4.8 2.12 1.19" transform="translate(3.4)" id="path128"/><path class="cls-6" d="M57.88 21.05a.88.88 0 0 1 .37.15v.14c-1.35.06-2.71-.13-4-.19v-.08c.8-.22 1.39-1 2.25-1z" transform="translate(3.4)" id="path130"/><path class="cls-6" d="M66.09 21.37c.33 0 .55.37.84.52a13.46 13.46 0 0 1-2.62-.09l-1.84-.18v-.06l2.18-1.14c.59.14.9.69 1.44.95" transform="translate(3.4)" id="path132"/><path class="cls-6" d="M16 21.49a22.47 22.47 0 0 1-4 .31v-.17c.67-.3 1.25-.81 1.9-1.16.75.26 1.4.79 2.12 1" transform="translate(3.4)" id="path134"/><path class="cls-6" d="M47 21.33c9 .34 17.13.66 26 1.72a.47.47 0 0 1 .32.32c.05.31-.22.44-.44.49-3.4-.22-7.13-.57-10.7-.85l-14.62-.67a344.38 344.38 0 0 0-41.92 1.43c-.15-.12-.4-.11-.4-.34a.79.79 0 0 1 .47-.61c3.3-.34 6.6-.56 10-.84l11.38-.53c3.26-.25 6-.09 9.28-.25z" transform="translate(3.4)" id="path136"/><path class="cls-6" d="M73 21.4a1.46 1.46 0 0 1-.17 1 3.45 3.45 0 0 1-1.83-.13v-.07a13.74 13.74 0 0 0 1.77-.86z" transform="translate(3.4)" id="path138"/><path class="cls-6" d="M7.57 22.07v.08a3.59 3.59 0 0 1-1.81.11.94.94 0 0 1 0-.92c.6.2 1.15.52 1.77.73" transform="translate(3.4)" id="path140"/><path class="cls-12" d="M53.94 22.94c6.33.4 12.24.59 18.28 1.44.27.42 0 .89.08 1.38-.12.9-.72 1.6-.64 2.58.08.98.54 1.88.25 2.89 0 .17-.08.2-.2.29l-2-.15-9.31-.71c-4.87-.22-9.16-.51-13.86-.59L36.6 30c-3.24.09-7 .1-10.29.24l-8.24.41c-3.7.29-7.44.51-11.1.85-.42-.22-.19-.86-.35-1.25-.1-.93.49-1.72.24-2.72-.06-1.14-.89-2-.7-3.24l.2-.17 1.89-.19 9.45-.69c5.76-.35 12-.56 17.89-.66l9.63.07z" transform="translate(3.4)" id="path142"/><path class="cls-8" d="M73.42 27.68a2.52 2.52 0 0 1-.93 2c-.3-.07-.23-.49-.37-.75a4.29 4.29 0 0 1 .67-2.58 2 2 0 0 1 .63 1.31" transform="translate(3.4)" id="path144"/><path class="cls-8" d="M6.09 29.3a1.6 1.6 0 0 1-.67-1.08A1.78 1.78 0 0 1 6 26.4a3.07 3.07 0 0 1 .11 2.9" transform="translate(3.4)" id="path146"/><path class="cls-6" d="M45.32 30.43c2 .08 4.07 0 6.2.16l1.76.08 11 .65c2.59.19 5.45.44 8.15.76a.45.45 0 0 1 .32.32c-.21.87-1.11.37-1.76.45-5.28-.48-10.68-1-16-1.08h-.18c-3.65-.2-6.72-.3-10.35-.33h-9.33c-6.23.11-12.38.23-18.56.73l-8.13.61a7 7 0 0 1-2.29.08c-.15-.12-.12-.31-.12-.49.22-.46.78-.3 1.16-.44 3.75-.29 7.64-.69 11.39-.85l10.12-.45 7.57-.2z" transform="translate(3.4)" id="path148"/><path class="cls-13" id="polygon150" d="M17.47 25.19 19.26 27l-1.8 1.8-1.79-1.81z"/><path class="cls-14" id="polygon152" d="M17.47 25.19 19.26 27l-1.8 1.8-1.79-1.81z"/><path class="cls-13" id="polygon154" d="m34.52 24.41 1.78 1.82-1.8 1.8-1.78-1.82z"/><path class="cls-14" id="polygon156" d="m34.52 24.41 1.78 1.82-1.8 1.8-1.78-1.82z"/><path class="cls-8" d="M22.72 24.57a2 2 0 1 1-2 2 2 2 0 0 1 2-2" transform="translate(3.4)" id="path158"/><path class="cls-14" d="M22.72 24.57a2 2 0 1 1-2 2 2 2 0 0 1 2-2z" transform="translate(3.4)" id="path160"/><path class="cls-8" d="M39.42 24.16a2 2 0 0 1 0 4 2 2 0 0 1 0-4" transform="translate(3.4)" id="path162"/><path class="cls-14" d="M39.42 24.16a2 2 0 0 1 0 4 2 2 0 0 1 0-4z" transform="translate(3.4)" id="path164"/><path class="cls-13" id="polygon166" d="m68.16 25.38-1.8 1.8L68.14 29l1.8-1.8z"/><path class="cls-14" id="polygon168" d="m68.16 25.38-1.8 1.8L68.14 29l1.8-1.8z"/><path class="cls-13" id="polygon170" d="m51.12 24.48-1.8 1.8 1.78 1.81 1.81-1.8z"/><path class="cls-14" id="polygon172" d="m51.12 24.48-1.8 1.8 1.78 1.81 1.81-1.8z"/><path class="cls-15" d="M23.39 40.48a7.44 7.44 0 0 1 2.36-.36c.17.13.17.47.44.33.27-.14.57-.42.88-.37.29.37-.08.86.15 1.25.76 0 1.19-1 2-.84.17.12.12.52.4.4a.38.38 0 0 1 .47-.12c.08.19 0 .49.25.56.25.07.46-.24.72-.07.26.17.15.34.2.53.22.12.42-.12.64 0 .22.12.27.54.57.28a.71.71 0 0 1 .72-.16 1.5 1.5 0 0 1-.43 1.45c-.05.3.37.44.52.61.67.3-.17 1.08.57 1.35 0 .17.13.34 0 .52-.3.17-.74 0-1 .32 0 .37.38.75.25 1.19-.39.2-.82-.76-1.06 0 0 .49.76 1 .14 1.41-.39 0-.76-.42-1.06.07-.4.12-.65-.54-1-.2-.08.37.32.57.12.95-.43.27-1.39-.66-1.2.43-.11.17-.21.44-.44.44s-.35 0-.49-.15c-.21.07-.43.47-.68.15-.25-.32-.36-.79-.84-.67-.51.39-.25 1.54-1.13 1.33-.31-.52-.8.34-1.12-.25-.22.15-.53 0-.74.25a14 14 0 0 0-.26 4.29c.21.76.93 1.3.72 2.23.21.46-.46.53-.52.9a5.28 5.28 0 0 0-.09 2A7.85 7.85 0 0 0 26 64.41c1.24.15 2.53-.56 3.62.4-.1.31.29 0 .27.37l.05-.05.29.32c.1.53.53 1 .31 1.56-.42 0-.52-.61-.92-.78a2.91 2.91 0 0 0-2.9-.52c-.2.27.24.49.32.76.27.39 1.09.51.89 1-1.36-.25-2.18-1.77-3.62-1.82-.22.18 0 .5 0 .74s.47.71.45 1.08a1.69 1.69 0 0 1-1.25-.93.78.78 0 0 0-.29-.49 1.84 1.84 0 0 0-.55 1.71.24.24 0 0 1-.37.12 2.56 2.56 0 0 1-.4-1.78c-.51 0-.86.68-1.33.9a1.28 1.28 0 0 1-.92.44v-.24a5.17 5.17 0 0 0 1.42-2.2c-1.41-.1-2 1.83-3.42 1.83-.11-.21.25-.31.25-.49a3 3 0 0 0 1.1-1.21c-.1-.2-.41-.11-.56-.08-1.45.76-3.28.59-4.59 1.71-.12-.05-.08-.21 0-.29.84-1.07 2.14-1 3-2 1.08-.56 2.49-.27 3.36-1.33.7-1 .58-2.3.87-3.45.07-1.37.5-3.29-.52-4.41 0-1.1-.35-2.33.57-3.12a2 2 0 0 0-.08-1 2.45 2.45 0 0 0-1.33.69c-.38-.14-.08-.74-.4-1s-.71 0-1.09-.09a2 2 0 0 0-1.09.12c-.1 0-.07-.15-.08-.24.18-.08.11-.27.16-.4-.26-.22-.68-.21-1-.49-.52.12-.94.61-1.56.37a2.65 2.65 0 0 0-1.66-.54c-.2-.34.29-.49.44-.75.15-.26.27-.52.12-.76a3.06 3.06 0 0 1-1.33.24c.1-.9-1.26-.22-1-1.05a1.13 1.13 0 0 0 .24-.49c-.25-.24-.77-.32-.76-.64.47-.63-.52-.47-.73-.81-.21-.34-.41-.24-.36-.54.1-.1.29-.1.36-.24 0-.39-.81-.74-.21-1 .29-.26 1.13.07.89-.64.59-.24 1-.85 1.73-.78.3-.36-.25-.83.17-1 .77-.2 1.2.41 1.81.61l.08-.09c0-.37-.22-.82 0-1.09.49-.07.84.28 1.3.17-.17-.54.4-.54.72-.46a2.4 2.4 0 0 0 1.45.2c.76-.22 1.36.41 2.05.26.69-.15 1.16.54 1.58-.14l.13-.1v-2.19h-2.5v-1.47h2.51V35h1.71v1.81h2.4v1.47h-2.43z" transform="translate(3.4)" id="path174"/><path class="cls-8" d="M56.11 24.7a2 2 0 1 0 2 2 2 2 0 0 0-2-2" transform="translate(3.4)" id="path176"/><path class="cls-14" d="M56.11 24.7a2 2 0 1 0 2 2 2 2 0 0 0-2-2z" transform="translate(3.4)" id="path178"/><path class="cls-15" d="m13.76 101 .5.61c.6.19 1 .88 1.69.82 1.69-.22 2.74-1.85 3.93-3a17.56 17.56 0 0 1 .88-1.66c.34-1-.54-1.62-.57-2.55.36-.39 1-.8.84-1.46-.54-.21-.06-1.06-.79-1 0-.75-.34-1.41-.31-2.12-.64-.16-.78-1.12-1.5-1-.59 0-.81-.86-1.49-.58a1.84 1.84 0 0 0-1.73.3c-.52.37-1.51.13-1.67.94.33.72-.56 1-.69 1.65-.41.26-.94.42-1.14.88-.4.71.57 1.14.14 1.74.1.63-.54 1.19 0 1.73a1.85 1.85 0 0 0-.27 1.27c.25.23.6.37.87.63.61.27 1-.39 1.58-.08 0-.23.21-.26.42-.24.44.42.36 1.06.79 1.43 1.12 0 2.25-.29 3.34-.34-.52.64-1.34.68-1.92 1.27-.75-.16-1.45-.64-2.25-.43-.28.14-.75 0-.84.43-.09.43.13.5.22.69" transform="translate(3.4)" id="path180"/><path class="cls-16" d="M16.52 89.68h-.27c0-.1.16-.13.27-.11z" transform="translate(3.4)" id="path182"/><path class="cls-17" d="M18.15 95.28c.27.48 1.06.13 1.08.81v1.15H19L17.89 96c0-.23.32-.41.08-.63-.59 0-.59.91-1.23.93-.25 0-.68.15-.87-.11-.34 0-.34.58-.77.3-.08-.12-.27-.09-.38 0-.29.24.3.86-.34.62-.14-.08-.19-.32-.38-.24-.19.08.11.5-.08.71a1.28 1.28 0 0 1-1-.58.62.62 0 0 0-.11-.63c-.1 0-.16.1-.2.16-.04.06 0 .13.05.2s-.22-.07-.35 0c0-.15-.14-.4 0-.53.24 0 .7.13.72-.28.17-.69-1.34-.81-.47-1.46.16 0 .39 0 .39-.19s-.13-.34-.26-.47c-.13-.13-.19.2-.27.31a.83.83 0 0 1-.35-.72c0-.57.77-.66 1.07-1l.86-1.31c.56 0 1-.21 1.53 0a7.69 7.69 0 0 0 .77 1.15c-.37.44.35.71.27 1.16.29.52.84.61 1.36.75.12 0-.13.21-.07.32a3.53 3.53 0 0 1 .18.4" transform="translate(3.4)" id="path184"/><path class="cls-16" d="M18.24 90.22v.12c-.14.06-.41.08-.41-.15V90c.19-.06.27.13.41.19" transform="translate(3.4)" id="path186"/><path class="cls-16" d="M17.45 90.45c-.18 0-.29-.11-.39-.23v-.11c.12.11.56 0 .36.34" transform="translate(3.4)" id="path188"/><path class="cls-16" d="m15.4 90.53-.06.08c-.45-.16-1 .19-1.34-.16.22-.47.78 0 1.18-.11.07.11.18.09.22.19" transform="translate(3.4)" id="path190"/><path class="cls-16" d="M18.35 91v.16a.23.23 0 0 1-.11-.27c.1 0 .1.08.14.11" transform="translate(3.4)" id="path192"/><path class="cls-16" d="m19.36 91.46-.08.08v-.43c.13 0 0 .24.08.35" transform="translate(3.4)" id="path194"/><path d="M14.07 92.12c.27.31 1.08.27.84.84-.06.43-.57 0-.88.08-.09-.13-.51-.1-.3-.39 0-.1.13-.14.19-.22.06-.08-.24-.39-.11-.63.11-.06.26-.19.38-.15.12.04-.35.29-.12.47" transform="translate(3.4)" id="path196"/><path class="cls-16" d="M19.28 92.15v.08l-.08-.11h.08" transform="translate(3.4)" id="path198"/><path d="M15.64 93.08c.15.12.47.2.42.45-.26.16-.53-.06-.61-.3v-.85c.23.09.18.5.19.7" transform="translate(3.4)" id="path200"/><path class="cls-17" d="M14.61 92.81c-.16 0-.43.11-.54-.08l.07-.19c.2 0 .42.09.47.27" transform="translate(3.4)" id="path202"/><path class="cls-16" d="M20.57 94.05a.87.87 0 0 1-.49.64h-.15c0-.35-.19-.66-.13-1 .31 0 .64 0 .77.36" transform="translate(3.4)" id="path204"/><path d="M13.49 94.82c-.21 0-.17-.24-.25-.35v-.66c.32.17.17.72.25 1" transform="translate(3.4)" id="path206"/><path class="cls-16" d="M19.47 94.27c-.08.29.51.71-.08.81h-.11a.33.33 0 0 0-.27-.26c-.1 0-.13-.08-.19-.13-.08-.22-.07-.67.3-.61a.31.31 0 0 1 .35.19" transform="translate(3.4)" id="path208"/><path d="M16.25 94.85c0 .11.1.37-.11.35-.19-.35-.51-.14-.77-.19 0 .11-.17.07-.27.07-.06-.36-.48-.08-.52-.39.51.19.94-.5 1.53-.14z" transform="translate(3.4)" id="path210"/><path d="M17.45 94.63a2.52 2.52 0 0 1-.32 1.1c-.24.13-.61.31-.83.12 0-.32.35-.1.49-.26a2.09 2.09 0 0 0 .58-1z" transform="translate(3.4)" id="path212"/><path d="M14.19 94.88c0 .1-.06.15-.08.2v-.26c.06 0 .07.05.12.06" transform="translate(3.4)" id="path214"/><path class="cls-17" d="M12.66 95.65c0 .2-.19.25-.32.16s-.12-.22-.11-.38c.16-.19.38.08.43.22" transform="translate(3.4)" id="path216"/><path class="cls-16" d="M20.38 97.08c0 .37 0 .79-.3.94-.07-.49.14-.82 0-1.21-.27 0-.27.34-.3.55-.27-.47.05-1.26-.27-1.74 0-.14.14-.16.22-.22.39.46.34 1.17.69 1.68" transform="translate(3.4)" id="path218"/><path d="M14.53 96.2v.08a2.61 2.61 0 0 1-.69 0c.13-.17.51-.13.69 0" transform="translate(3.4)" id="path220"/><path class="cls-17" d="M17.7 96.31a4.79 4.79 0 0 1 1 1.32 1.57 1.57 0 0 1-.88.15c-.11-.23 0-.52-.14-.78-.18 0-.18.5-.39.16-.06 0-.08 0-.12.09 0 .3.12.86-.31.88-.25.08-.7.48-.84.11-.43-1.27 1-1.38 1.58-1.93z" transform="translate(3.4)" id="path222"/><path class="cls-17" d="M15.53 97.47c-.06.48.32 1.25-.19 1.43-.17-.37-.48-.74-.43-1.16.22 0 .38-.25.62-.27" transform="translate(3.4)" id="path224"/><path class="cls-17" d="M18.82 98.16c-.05.26-.34.29-.5.43-.59.15-1.23.18-1.83.28.08-.26.4-.29.6-.44.26.07.44-.09.66-.14a3.24 3.24 0 0 1 1.07-.13" transform="translate(3.4)" id="path226"/><path class="cls-16" d="M19.61 99c0 .37-.43.51-.68.8a12.8 12.8 0 0 0-1.92 1 2.56 2.56 0 0 1 1.29-.82l1-.92z" transform="translate(3.4)" id="path228"/><path class="cls-16" d="M15.76 100.75a.86.86 0 0 1 .46.62 1 1 0 0 1-.85-.32c-.11-.4-.57-.53-.87-.58-.08.29.35.25.49.44a1.43 1.43 0 0 0 1.5.8.92.92 0 0 1-.85.27c-.57-.51-1.46-.73-1.64-1.57.13 0 .35-.08.53-.13.46 0 1.15-.14 1.23.47" transform="translate(3.4)" id="path230"/><path class="cls-16" d="M18.24 100.6c-.52.2-.78 1.05-1.42.77l-.14-.27c.54 0 1.07-.53 1.59-.63z" transform="translate(3.4)" id="path232"/><path class="cls-16" d="M18.66 93.53c.06.53-.45 1.1-.12 1.59-.15 0-.9-1.08-.3-.85a.26.26 0 0 0 .08-.42c-.17-.13-.44-.34-.38-.55l.08-.11c-.7-.61-.78-1.51-1.42-2.12l-.11.08a4.29 4.29 0 0 1 .51 1.16c-.2 0-.2-.21-.3-.32a3.39 3.39 0 0 1-.93-1.3c.1 0 .37-.11.23-.27l-.71-.42c1.8.11 2.82 2.1 3.37 3.53" transform="translate(3.4)" id="path234"/><path d="M32.88 70a1.61 1.61 0 0 1 .76.38 1.11 1.11 0 0 1 1.26.42c.08.81 1.41 1 1 1.9.1.17.32.3.42.5a1.78 1.78 0 0 1-.72 1.88c-.07 0-.11.08-.16.11 0 .19.17.25.27.38.4.1.65-.38 1-.11l.87 2.12c-.06.69-.86 1.06-.92 1.74-.21.21-.21.49-.31.74a2.29 2.29 0 0 0-.65 2.34s.07.1.13.08c.25-.34-.22-.69.11-1 .61-.42.93-1.37 1.72-1.51.24.24 0 .56 0 .85.15.46.72.8.55 1.35-.32.53-.42 1.25-1 1.57-.34.42-.88.32-1.31.5-.91.13-1.61-.27-2.37.19-.19.11-.4 0-.58-.11-1.4-.27-3.09.48-4.35-.5a8.91 8.91 0 0 1-2.22-.42 11.58 11.58 0 0 0 .39-2.28c.06-.16.27-.16.44-.16.63.26 1 1 1.5 1.43.56 0 1.1-.5 1.72-.42a4.22 4.22 0 0 0 1.65.73l.11-.12a3.17 3.17 0 0 1 .08-2.31.39.39 0 0 0 .11-.34 2.71 2.71 0 0 0-1.08.07 1 1 0 0 1-.76.08c-.63-.28-.75-.95-1.26-1.38-.29.69-1.1-.24-1.34.49-.15 0-.34.07-.39.23a1.1 1.1 0 0 1-1.1-.64 2.05 2.05 0 0 1 .34-1.9c0-.3-.32-.47-.3-.77.02-.3.71-.64.27-1-.05-.35.36-.49.46-.77-.06-.37-.27-1 .3-1.15.57-.15 1.13-.95 1.57-1.47a1.34 1.34 0 0 1 .73-1.47c.78.08 1.08-1.08 1.86-.65.45 0 1-.09 1.2.39" transform="translate(3.4)" id="path236"/><path class="cls-16" d="M32.5 70.31a.29.29 0 0 1-.35 0 .16.16 0 0 1 0-.24c.16 0 .23.12.31.24" transform="translate(3.4)" id="path238"/><path class="cls-18" d="M32.5 70.31a.29.29 0 0 1-.35 0 .16.16 0 0 1 0-.24c.2-.01.27.12.35.24z" transform="translate(3.4)" id="path240"/><path class="cls-16" d="M33.37 70.92c-.17 0-.38-.17-.49-.33l-.05-.13c.32-.1.4.3.54.46" transform="translate(3.4)" id="path242"/><path class="cls-18" d="M33.37 70.92c-.17 0-.38-.17-.49-.33l-.05-.13c.32-.1.4.3.54.46z" transform="translate(3.4)" id="path244"/><path class="cls-16" d="M32.5 71h.27c.73.5.81 1.29 1.48 1.77a10.2 10.2 0 0 1 .27 1.67.69.69 0 0 1-.11.5c-.56-.75-.35-1.91-.88-2.7a4.55 4.55 0 0 0-1.34-1s-.11.08-.08.16a2.92 2.92 0 0 1 1.57 2.6c0 .11.11.21.08.35h-.08c-.47-.59-.4-1.4-1-1.93a7.31 7.31 0 0 1-1.31-.88c.19-.1.38.18.5-.08a3.16 3.16 0 0 0-1.87-.62c.08-.27.48-.29.74-.38a10.35 10.35 0 0 1 1.8.54" transform="translate(3.4)" id="path246"/><path class="cls-18" d="M32.5 71h.27c.73.5.81 1.29 1.48 1.77a10.2 10.2 0 0 1 .27 1.67.69.69 0 0 1-.11.5c-.56-.75-.35-1.91-.88-2.7a4.55 4.55 0 0 0-1.34-1s-.11.08-.08.16a2.92 2.92 0 0 1 1.57 2.6c0 .11.11.21.08.35h-.08c-.47-.59-.4-1.4-1-1.93a7.31 7.31 0 0 1-1.31-.88c.19-.1.38.18.5-.08a3.16 3.16 0 0 0-1.87-.62c.08-.27.48-.29.74-.38a10.35 10.35 0 0 1 1.76.54Z" transform="translate(3.4)" id="path248"/><path class="cls-16" d="M34.44 71v.11A.51.51 0 0 0 34 71c-.08 0 0-.09 0-.16a.34.34 0 0 1 .52.13" transform="translate(3.4)" id="path250"/><path class="cls-16" d="M29.9 71.31h-.27v-.23c.11 0 .3.1.27.23" transform="translate(3.4)" id="path252"/><path class="cls-16" d="M34.3 71.55c-.07.11-.07.24-.16.34a.48.48 0 0 1-.22-.39c.06-.19.35-.14.38 0" transform="translate(3.4)" id="path254"/><path class="cls-17" d="M31.81 72.39c.16.45.21 1.09.77 1.23a.94.94 0 0 0 .49.58l.57 1.08a2.26 2.26 0 0 1-.43 1.35c-.39.14-.82.56-1.29.24a2.39 2.39 0 0 0-.57.19c-.13.21-.56-.14-.49.31-.08.17-.16 0-.28 0-.12 0-.08.32-.27.3 0-.17-.17-.4-.41-.33-.24.07-.26.2-.46.19-.2-.01-.29.59-.63.34-.17-.13.15-.42-.06-.61-.24.32-.53-.07-.76.11 0 .19.08.3 0 .5a.48.48 0 0 0-.39.27.37.37 0 0 1-.11.35c-.36-.06-.19-.72-.68-.66a1.84 1.84 0 0 1 1.29-1.43c.22 0 .35.34.6.15-.06-.26-.28-.37-.41-.61-.24.19-.45-.16-.66-.23 0-.11-.15-.18-.11-.32.07.08.18 0 .27 0 .21-.36-.47-.58-.12-.89 1.19-.35.51 1.15 1.19 1.39.24-.36-.14-.73-.11-1.13a.8.8 0 0 0-.38-.69c-.3-.05-.82.18-.85-.26.16-.49.74-.46 1-.9.48-.45.83-1.35 1.59-1.27.74-.19 1.09.52 1.66.7" transform="translate(3.4)" id="path256"/><path class="cls-16" d="M35.48 72.16c0 .11 0 .26-.11.27-.15-.37-1-.2-.58-.73a2.68 2.68 0 0 1 .69.46" transform="translate(3.4)" id="path258"/><path d="M30.39 72.63c0 .33.11.82-.08 1.07a.75.75 0 0 1-.95-.35.81.81 0 0 1-.16-.72c.28-.41 1-.58 1.19 0" transform="translate(3.4)" id="path260"/><path class="cls-17" d="M30.15 72.74c0 .26.07.4-.06.61a.31.31 0 0 1-.38.05c-.15-.19-.39-.4-.24-.66.15-.26.62-.35.68 0" transform="translate(3.4)" id="path262"/><path class="cls-16" d="m34.94 73.43-.15-.74c.25.11.27.45.19.69" transform="translate(3.4)" id="path264"/><path class="cls-16" d="M32.58 73.09a.12.12 0 0 1-.19 0c-.07-.09-.21-.25 0-.35a.42.42 0 0 1 .24.32" transform="translate(3.4)" id="path266"/><path class="cls-16" d="M35.86 73.7h-.11a.43.43 0 0 1 0-.45c.16 0 .18.28.16.41" transform="translate(3.4)" id="path268"/><path d="M31.38 74.12a.15.15 0 0 1-.08.19c-.29 0-.44-.41-.76-.25a.76.76 0 0 1 .16-.47c.25.1.67.16.68.53" transform="translate(3.4)" id="path270"/><path class="cls-16" d="M35.45 74.2h-.05a.13.13 0 0 1 0-.24c.08 0 0 .13.05.19" transform="translate(3.4)" id="path272"/><path d="M32 74.31v.13c-.1 0-.2 0-.15-.16.05-.16.11 0 .15 0" transform="translate(3.4)" id="path274"/><path d="M32.42 74.7s-.05 0 0 .08-.18-.08-.2-.14c0-.29.29-.09.23.06" transform="translate(3.4)" id="path276"/><path class="cls-16" d="M35.18 74.75c0 .13-.12.3-.08.42.04.12-.12 0-.16-.09v-.49c.1 0 .16.09.2.16" transform="translate(3.4)" id="path278"/><path class="cls-16" d="M34.06 75.25v.11l-.06-.11Z" transform="translate(3.4)" id="path280"/><path d="M33.34 75.9c-.22.31-.44.86-.89.84a.26.26 0 0 1-.14-.39c.33 0 .51-.37.68-.61.17-.24 0-.37.22-.41.22-.04 0 .35.13.57" transform="translate(3.4)" id="path282"/><path d="M31.68 75.44c-.06.24-.35.3-.57.38-.22.08-.13 0-.19-.08 0-.38.49-.17.7-.38z" transform="translate(3.4)" id="path284"/><path class="cls-16" id="rect286" d="M37.84 75.34h.06v.05h-.06z"/><path d="M30.73 75.94c-.27.43-.8.24-1.1.61-.1 0-.23 0-.27-.07a1 1 0 0 1 .16-.7c.43 0 .82-.23 1.21-.07z" transform="translate(3.4)" id="path288"/><path class="cls-16" d="M35.21 76.05s-.05.1-.11.08a.55.55 0 0 1-.12-.42c.2-.21.36.18.23.34" transform="translate(3.4)" id="path290"/><path class="cls-17" d="M27.63 76.16c0 .23-.28.21-.41.32-.13.11-.22-.14-.27-.24-.05-.1.21-.24.3-.38.21 0 .27.16.38.3" transform="translate(3.4)" id="path292"/><path class="cls-16" d="M36.47 76.32c-.29.16 0 1-.53.61-.06-.09-.24-.32-.35-.14-.11.18.21.46.3.69.09.23 0 1 .43 1 .34-.21 0-.56.15-.85l.24-.88c.22.29.52.66.41 1.07a3.73 3.73 0 0 0-.77 1c-.36 0-.6-.37-1-.45-.42-.48-.3-1.09-.38-1.67.6 0 .62-1 1.3-.8z" transform="translate(3.4)" id="path294"/><path class="cls-16" d="M34.55 76.24c0 .13-.22.08-.3.05-.14-.35.48-.42.3-.05" transform="translate(3.4)" id="path296"/><path class="cls-16" d="M34.63 77.17a2.4 2.4 0 0 1 0 .66c-.38-.19-.49-.67-.88-.9-.09-.06 0-.16.07-.22.24.25.81-.07.84.46" transform="translate(3.4)" id="path298"/><path class="cls-17" d="M33.37 77.25a4.54 4.54 0 0 0 .16 1.3c-.39.2-.89.1-1.3.25a7.32 7.32 0 0 0-1.65.57c-.41 0-.55-.41-.84-.62 0-.32.4-.24.54-.39.14-.15.35.52.61.24 0-.17-.19-.27-.11-.46.31 0 .55-.31.87-.2.32.11.35.66.69.39v-.82c.36 0 .71-.38 1.06-.26" transform="translate(3.4)" id="path300"/><path class="cls-16" d="M34.3 78.14c0 .13-.15.16-.16.27-.24 0-.26-.3-.35-.47v-.46a2.15 2.15 0 0 1 .51.66" transform="translate(3.4)" id="path302"/><path class="cls-16" d="M36.05 79.71a3.38 3.38 0 0 0-.87 2.51c.08.43.51 1 .08 1.35v.24c-.37 0-.39-.52-.58-.77-.19-.25-.25-.84-.57-1-.21.12-.11.39-.08.55.03.16.11.11 0 .15-.11.04-.4-.28-.61-.42a2.54 2.54 0 0 0 .27-1.24c0-.06-.11 0-.15 0-.13.63-.66 1.16-.47 1.88.27.26.39.63.74.77.08-.05.16-.18.08-.26a.52.52 0 0 1-.24-.38c.24.14.71.29.73.64a2.67 2.67 0 0 1-1 .32c-.26-.61-.83-1.14-.64-1.89a3.82 3.82 0 0 0 .57-1.35l-.16-.12c-.35.21-.3.71-.65.92a2.16 2.16 0 0 1 .88-2h.24c0 .32-.26.66 0 .91.35-.21.27-.7.51-1 .24-.3.57-.56.52-1l.16-.16c.24.66 1.31.68 1.26 1.43" transform="translate(3.4)" id="path304"/><path d="M34.68 80.26c.38-.13.35-.58.45-.89.19 0 .06.17.16.23 0 .48-.35.82-.58 1.19-.62-.07-.35.64-.57.93-.38-.11-.08-.61-.11-.93a8 8 0 0 0 .52-1.79.21.21 0 0 1 .24 0c.13.39-.25.8-.11 1.24" transform="translate(3.4)" id="path306"/><path class="cls-16" d="M32.53 79.25c-.19.33-.67.19-1 .27a3.39 3.39 0 0 1 .85-.27z" transform="translate(3.4)" id="path308"/><path class="cls-16" d="M37.2 81.06c-.32.32-.49.68-.88.89-.09-.44.55-.66.69-1 .06 0 .27 0 .19.14" transform="translate(3.4)" id="path310"/><path class="cls-16" d="M28.75 83.15c.32.14.34-.27.53-.39.36-.14.71-.45 1.14-.3a3.54 3.54 0 0 0 2 .72c.12.23.4.5.27.74a5.45 5.45 0 0 1-3.11-1h-.19V83a6.78 6.78 0 0 0 1.34.8c0 .11-.13.1-.19.16-1 0-1.85-.87-2.94-.71-.56-.37 0-1-.46-1.54 0-.11 0-.26.08-.34.8.29 1 1.18 1.53 1.74" transform="translate(3.4)" id="path312"/><path class="cls-18" d="M28.75 83.15c.32.14.34-.27.53-.39.36-.14.71-.45 1.14-.3a3.54 3.54 0 0 0 2 .72c.12.23.4.5.27.74a5.45 5.45 0 0 1-3.11-1h-.19V83a6.78 6.78 0 0 0 1.34.8c0 .11-.13.1-.19.16-1 0-1.85-.87-2.94-.71-.56-.37 0-1-.46-1.54 0-.11 0-.26.08-.34.78.33 1.04 1.22 1.53 1.78z" transform="translate(3.4)" id="path314"/><path class="cls-16" d="M37.85 81.91a1 1 0 0 1-.24.58c-.17 0-.41-.1-.52.11v.16c.13.12.24-.09.38-.08a.43.43 0 0 1-.11.36c-.4-.16-.89.32-1.15-.2.21-.14.86.31.88-.24a.69.69 0 0 1-.5-.11c0-.45.56-.75.83-1 .23.06.32.29.43.46" transform="translate(3.4)" id="path316"/><path class="cls-16" d="M27 82.88c-.08.16.14.27-.05.38h-.11c0-.16 0-.34.16-.35" transform="translate(3.4)" id="path318"/><path class="cls-18" d="M27 82.88c-.08.16.14.27-.05.38h-.11c0-.19.05-.37.16-.38z" transform="translate(3.4)" id="path320"/><path class="cls-16" d="M37 83.26c-.1.16.16.29 0 .47l-.08-.19-1.07.33h-.27c-.08-.29.13-.46.27-.66.37 0 .83.45 1.12.08" transform="translate(3.4)" id="path322"/><path d="M33 90c.68.51 1.66.78 1.85 1.73.86.48.73 1.43 1.34 2 .61.57-.31 1.64.57 1.93.37.22.19.72.19 1s-.83.66-.24.93a1.54 1.54 0 0 1 1.2.81c.32 1 .16 2.14.61 3 .38 1.4-1.38 2-1.57 3.23a13 13 0 0 1-2.26 3.13c-.37.26-.93.12-1.34.28-.33.41 0 1 0 1.41a2.84 2.84 0 0 0 2.57.35c.19-.09.35-.4.57-.3.08.29.51.5.35.85.32 0 .15-.6.58-.43.24.35 1.08.33.68 1-.09.18-.32.3-.3.55a.43.43 0 0 1 .11.57c-.21.36-.67.41-1 .61-1 .36-1.89-.28-2.87-.33-1.61-.32-1.53-2.16-2.61-3.09a3.45 3.45 0 0 0-.61-1.15c-.75.19-1.43.56-2.21.69a2.26 2.26 0 0 0-.55.38c0 .63.47 1.17.24 1.82-.49.3-.89-.5-1.22-.74-.34-.6-.93-1.11-.85-1.82a23.4 23.4 0 0 1 2.52-2c.72-.51 1.82.42 2.3-.5.48-.92.86-2 1.42-2.89l.43-.3c.76-.36 1.72-.26 2.36-.93-.42-1.08-1.18-2.11-1-3.36a2.33 2.33 0 0 1 0-1.43 1.62 1.62 0 0 1-.89-1.19c-.09-.16-.14-.37-.33-.47a.84.84 0 0 0-.11.58 1.26 1.26 0 0 1 .52.55 1.31 1.31 0 0 1-.3 1 3 3 0 0 0 .8 2.19.51.51 0 0 1-.34.62c-1 .42-1.85 1.08-3 .92-.77-.08-.77-1.12-1.5-1.19a6 6 0 0 1-.8-.8c-.3.14-.76-.18-.92.19-.27.13-.62.16-.8.42-.27 0-.3-.29-.38-.47a1.69 1.69 0 0 1-.08-1.93c.11-.22.38-.43.22-.72a.67.67 0 0 1-.11-.85c.5-.35.15-1.08.88-1.16.09-.43 0-.53.11-.93.41-.3 1.15 0 1.31-.69-.08-.55.36-.87.76-1.12-.27-.57.42-.74.58-1.16.4-.64 1.19 0 1.56-.69.35-.07.7-.36 1-.19z" transform="translate(3.4)" id="path324"/><path class="cls-16" d="M33 90.54c-.21-.12-.42.07-.55.17v-.31c.19 0 .54-.13.58.14" transform="translate(3.4)" id="path326"/><path class="cls-16" d="M32 90.85c0 .16-.19.19-.27.13-.08-.06-.37-.13-.27-.36.1-.23.48 0 .54.23" transform="translate(3.4)" id="path328"/><path class="cls-16" d="M32.45 91.86c.63.58 1.62 1.27 1.46 2.31-.38-.36-.62-1-1.08-1.23-.37.43.35.58.43 1a9 9 0 0 0 1.15 1.74c.27.08.24-.26.33-.36a.61.61 0 0 1 .27.28.93.93 0 0 1-.27.66c-.14 0-.33 0-.38.16-.05.16-.13.08-.19 0a5.94 5.94 0 0 1-.69-1.42c-1.13-.79-.95-2.41-2.37-2.86a2.13 2.13 0 0 0-1.3-.42c0-.18.26-.29.42-.35.76-.08 1.12.72 1.77.88 0 0 .09-.08.06-.15a3 3 0 0 0-1.67-1c.14-.27.48 0 .72 0 .41.34.92.44 1.34.74" transform="translate(3.4)" id="path330"/><path class="cls-16" d="M34.14 91.32c-.29.12-.55-.09-.77-.23.1-.24.4 0 .61 0 .21 0 .22.15.16.28" transform="translate(3.4)" id="path332"/><path class="cls-16" d="M33.18 91.48c0 .09.06.25-.08.3-.14.05-.35-.27-.49-.38l.11-.23a.75.75 0 0 1 .46.31" transform="translate(3.4)" id="path334"/><path class="cls-16" d="M34.36 91.86h-.15.15" transform="translate(3.4)" id="path336"/><path class="cls-16" d="M34.3 92.52c0 .19.15.4 0 .58h-.08c-.2-.42-.71-.55-.66-1 .26.11.64.06.74.43" transform="translate(3.4)" id="path338"/><path class="cls-17" d="M32.11 93.68a1.58 1.58 0 0 0 .3.72c0 .75-.19 1.73.69 2.17.17.63-.54.93-.91 1.3-.38 0-.81.21-1.15 0-.19.08-.52.06-.54.33.37.57 1.32-.33 1.26.63a.15.15 0 0 0 .24 0 1 1 0 0 1 .68-.72h.12c.08.43.3.82.38 1.27-.89.42-2 .21-2.79.92-.42 0-.61-.58-1-.53-.25-.17-.6-.42-.65-.74.09 0 .16-.13.24-.2a1.89 1.89 0 0 0-.32-.57c-.43-.25-.5.48-.83.11-.16-.05-.26.09-.32.19v.24c-.17 0-.06-.18-.14-.24a.34.34 0 0 0-.16-.39c-.16 0-.22.13-.3.2-.28-.08 0-.5-.39-.53.24-.39.39-1.13 1.07-.89.11 0 .24.13.35 0a.57.57 0 0 0 .15-.5c-.07-.15-.23 0-.34-.08-.27-.32-.7-.56-.69-1a.82.82 0 0 1 1-.08c.14 0 .27-.1.38 0 .47.32 0 1.32.77 1.21.46.37 1.29.11 1.83.08a1.88 1.88 0 0 0-.57-.66c-.4-.13-.61.72-1 .19-.81.2-.28-.77-.92-1 0-.18.09-.44-.11-.55-.27.07-.07.5-.42.47-.38-.19-.32-.61-.27-.93a2 2 0 0 1 .8-.23c.79-.32.21-1.44 1.15-1.46 0 .24.51.37.35.66-.29 0-.39.35-.58.53-.13.83.88.54 1.07 1.15a1.13 1.13 0 0 1 .69-.57l.08-.12c-.13-.24-.35 0-.53 0l-.16-.93h.35c0-.47-.68-.37-.92-.66.08-.29.49-.11.68-.08.53.37 1.28.63 1.5 1.32" transform="translate(3.4)" id="path340"/><path class="cls-16" d="M35.4 93.05v.19a1.5 1.5 0 0 1-.69-.91c.45-.07.49.46.69.72" transform="translate(3.4)" id="path342"/><path class="cls-17" d="m30.31 93.74-.08.39a1 1 0 0 1-.53-.2c-.16-.27.1-.48.31-.61s.16.31.3.42" transform="translate(3.4)" id="path344"/><path class="cls-16" d="M34.82 93.74a.88.88 0 0 1 .11.77l-.38.2c-.08-.29-.56-1.39.27-1" transform="translate(3.4)" id="path346"/><path class="cls-16" d="M35.94 94.29c.13.37-.08.69-.11 1l-.32.23c.14-.52-.24-1-.11-1.5.17.07.46 0 .54.23" transform="translate(3.4)" id="path348"/><path d="m31.73 95.09-.08.13c-.18 0-.21-.16-.35-.27-.14-.11.14-.29.13-.47.31 0 .14.43.3.61" transform="translate(3.4)" id="path350"/><path class="cls-16" d="M36.54 96.13a.45.45 0 0 1-.08.47c-.14-.14 0-.42-.22-.55-.27 0-.38.31-.61.44-.23.13-.38.3-.24.46.14.16.34-.22.55-.27-.16.15 0 .47-.27.53a.8.8 0 0 1-.61-.06c0-.28-.16-.52-.16-.74.61 0 1.12-.9 1.64-.28" transform="translate(3.4)" id="path352"/><path class="cls-17" d="M27.47 96.6v.16a1.12 1.12 0 0 1-.64-.13c-.19-.16-.31-.41-.08-.61.34 0 .56.36.72.58" transform="translate(3.4)" id="path354"/><path d="M32.76 96.68c.1.44-.33.63-.62.8-.29.17-.4.1-.52 0 .08-.38.63-.16.76-.62 0-.16-.09-.41.11-.5.2-.09.23.21.27.35" transform="translate(3.4)" id="path356"/><path class="cls-16" d="M34.55 96.76v.15l-.05-.23c.05 0 .13 0 .11.08" transform="translate(3.4)" id="path358"/><path class="cls-16" d="M37.12 98.14c.68.55.63 1.53.73 2.4-.37.08-.49-.44-.85-.5-.47-.27-.6-.8-.84-1.24.29 0 .53.42.81.61s.23.37.5.31c.38-.28-.07-.6-.11-.89-.1 0-.16-.09-.28-.08L37 99c-.39-.17-.33-.79-.79-1-.19.16 0 .37-.13.53-.3-.14-.38-.51-.61-.77.59-.53 1 .4 1.65.35" transform="translate(3.4)" id="path360"/><path class="cls-16" d="M35.12 98a8.35 8.35 0 0 1 .9 1.54 2.65 2.65 0 0 1-.74-.49c-.19.13 0 .27.08.38.55.15.4.89.91.93a9.11 9.11 0 0 1 .35 2.32c-.16-.39-.12-.85-.46-1.16-.34-.31-.3-.59-.57-.74l-.11.31a3 3 0 0 1-.69-2.38.59.59 0 0 1 .33-.71" transform="translate(3.4)" id="path362"/><path d="M30.34 98.45a1.48 1.48 0 0 1-1 .3c-.17-.08-.35-.29-.24-.49.23.25.38-.31.62 0 .21-.16.53.1.64.23" transform="translate(3.4)" id="path364"/><path d="M33.34 100c-.05 0-.07 0-.08.05v-.13h.08z" transform="translate(3.4)" id="path366" style="fill:#f2e9db"/><path class="cls-17" d="M32.11 100.15a2.39 2.39 0 0 0-.27.58h-.16c.08-.08.13-.26 0-.27-.13-.01-.4 0-.46.22l.11.13a.74.74 0 0 1-.64.06c-.05 0-.18 0-.13-.14a2.36 2.36 0 0 1 1.58-.58" transform="translate(3.4)" id="path368"/><path class="cls-16" d="M37.5 101c0 .25-.32.42-.49.58a1.62 1.62 0 0 1-.28-1.15 1.25 1.25 0 0 1 .77.57" transform="translate(3.4)" id="path370"/><path class="cls-16" d="M36.13 102c0 .45.37 1-.05 1.35-.29-.47.11-.93-.19-1.38l-.3-.66c.27.13.36.45.54.69" transform="translate(3.4)" id="path372"/><path class="cls-16" d="M38.07 102.27c0 .19-.12.32-.22.42-.1.1-.19-.19-.35-.11-.16.08-.11.53-.22.77a1.46 1.46 0 0 1 .41-1.74c.37 0 .18.47.38.66" transform="translate(3.4)" id="path374"/><path class="cls-16" d="M35.55 102.46c-.09.17-.36.26-.54.39-.48.77-1.46.18-1.86 1 .08.44.3-.22.52-.16a1.69 1.69 0 0 0 1-.14v.06c-.83.76-2 1.06-2.57 2.12l-.37 1.27a4.89 4.89 0 0 1-2.92 1.35c-.06-.19.13-.37.19-.55.54-.5 1.45-.11 2-.54 0-.07-.05-.1-.08-.15a9.14 9.14 0 0 0-2 .15c-.1 0-.16.12-.27.12a.24.24 0 0 1-.11-.27c.79-1.09 2.44.44 2.87-1 .59-.9.83-2 1.42-2.86.79-.37 1.72-.44 2.48-.89a.19.19 0 0 1 .19.16" transform="translate(3.4)" id="path376"/><path class="cls-16" d="M34.55 107.48h-.19c.48-1 1.34-1.74 1.72-2.73.61-.31.42-1.16.62-1.74.47 1.88-1.1 3.09-2.15 4.44" transform="translate(3.4)" id="path378"/><path class="cls-16" d="M35.67 103.81c.3 1.34-1 2.12-1.5 3.17-.42.32-.94 0-1.34.11-.22-.26.17-1-.34-.77l-.11.11c-.05.58.43 1.3-.13 1.74a1.29 1.29 0 0 0 .36.69c.62 0 .2.77.49 1.08.13.86 1 1.38 1.53 2a1.59 1.59 0 0 1-1.1-.27c-.62-.85-1.12-1.74-1.72-2.59-.11-.45-.56-.78-.58-1.27.39-.38 1.2-.66 1.07-1.39.15-.15 0-.41.11-.58a1.61 1.61 0 0 1 1-.84 3.62 3.62 0 0 0-.44.88l.11.09c.68-1 1.83-1.51 2.41-2.51.17 0 .12.21.19.3" transform="translate(3.4)" id="path380"/><path class="cls-16" d="M36.21 103.73s0 .13-.05.17c-.05.04-.09-.21 0-.28.09-.07.08.07.08.11" transform="translate(3.4)" id="path382"/><path d="M35.2 105c.07.16-.09.23-.22.31h-.11c.05-.16.14-.31.33-.31" transform="translate(3.4)" id="path384"/><path class="cls-16" d="M28 107.67c-.25.37-.84.72-.73 1.24.18.19-.05.74.35.64.21.11.27.43.35.66v.24c-.25 0-.52-.32-.65-.55-.24-.4-.62-.74-.69-1.19a4.2 4.2 0 0 1 1.37-1.09Z" transform="translate(3.4)" id="path386"/><path class="cls-16" d="M28.48 107.75c-.18.4-.21 1.13-.85 1.22-.25-.56.53-.9.85-1.22" transform="translate(3.4)" id="path388"/><path class="cls-16" d="M35.89 110.37c.17.11 0 .26-.06.38-.13.39-.86 0-.66.47.37.23.91-.51.88.19-.37.31-.77.08-1.18 0-.4-.26-1-.66-1-1.16a5.11 5.11 0 0 0 2.06.08" transform="translate(3.4)" id="path390"/><path class="cls-16" d="M37.69 110.71c.08.38-.51.56-.46 1-.21 0-.38.29-.61.16a8.58 8.58 0 0 1 .8-1.16z" transform="translate(3.4)" id="path392"/><path class="cls-16" d="M37.42 111.91a.85.85 0 0 1-.83.39l-.05-.08c.27-.15.62-.18.85-.31z" transform="translate(3.4)" id="path394"/><path class="cls-16" d="M35.75 112.06a.35.35 0 0 1-.28 0c0-.09.2-.09.28 0" transform="translate(3.4)" id="path396"/><path class="cls-16" id="polygon398" d="M18.79 70.27h-.08l.04-.03z"/><path class="cls-16" d="M13.25 70.71c-.11.14-.21 0-.35 0-.14 0-.05-.08-.08-.11.14-.1.43-.18.43.08" transform="translate(3.4)" id="path400"/><path d="M17.56 76.57a3.3 3.3 0 0 1-.42-.65c-.13-.3.14-.8-.07-1.13-.47-.69-.27-1.75-1.19-2.2-.78 0-1.13-1-1.84-1.27l-.3.08a5.12 5.12 0 0 0-1.37-.5c-.19.1-.51.08-.57.3.48.13.89.07 1.37.2a3.06 3.06 0 0 1 2.1 2.6c0 .69-.56 1.38-.16 2.08.64.15.05-.72.51-.89a6.16 6.16 0 0 0 .07-1.77c0-.19-.35-.31-.11-.5a.82.82 0 0 1 .35.47c0 .75.2 1.63-.16 2.26.09.6.76 0 1.14.19.38.19.29.52.39.78.3.14.2.46.11.69.33-.1.89.08 1.15-.31-.08-.27-.61-.19-.89-.24a.36.36 0 0 1-.11-.21" transform="translate(3.4)" id="path402"/><path d="M17.52 75.79a.45.45 0 0 0 .13.22 2.48 2.48 0 0 1 1.35.59c.08.48.6.16.84.42a5 5 0 0 1-.73 5.29v.88c-.26.59-.91.51-1.37.74-.72.29-1.6-.34-2 .53-.31.19-.52-.15-.81-.19-.65.14-1.34.2-2 .38h-.62l-.41-.24c-.74.05-1.13-.66-1.5-1.19-.37-.53.38-.82.57-1.24.82-1.12 2.41-1 3.64-1 .62.32 1.18-.19 1.69-.5 0-1.09.49-2 .57-3-.35-.08-.76-.32-1.11-.39.08.31 0 .69.08 1 .08.31.3.33.27.58-.45.16-.18.7-.66.85a7.39 7.39 0 0 1-2.52.35c-.51-.22-1.11-.18-1.53-.58-.08-.24-.33-.4-.24-.71.09-.31-.41-.24-.65-.25-.35.32-.84-.08-1.29.11-.45.43-.61-.37-1-.43a2.07 2.07 0 0 1 .23-1.39 1 1 0 0 0 .35-1.07 2.05 2.05 0 0 1 .41-1.13c-.72-1.28 1.18-1.57 1.72-2.23.5-.46 0-1.22.63-1.62.71 0 1-.89 1.83-.64a.85.85 0 0 1 .91-.33c.43.29.83-.06 1.27.16.64 0 .58.89 1.29.66a2.83 2.83 0 0 1 1.2 2c.41.65-.33 1.24 0 1.85a.67.67 0 0 1-.19.77c-.37 0-.31.39-.43.62" transform="translate(3.4)" id="path404"/><path class="cls-16" d="M14.73 71.4c-.3-.23-.75-.39-.85-.8.12 0 .24-.15.35 0 .29.21.35.53.53.81" transform="translate(3.4)" id="path406"/><path class="cls-16" d="M13.58 70.93c-.09 0-.33-.05-.19-.19s.19-.21.32-.11z" transform="translate(3.4)" id="path408"/><path class="cls-16" d="M15.81 71.32c-.09 0-.17-.08-.19-.15a.25.25 0 0 1 .15-.32c.12.11.08.34 0 .47" transform="translate(3.4)" id="path410"/><path class="cls-16" d="M16.88 71.32c0 .13-.13.17-.19.27a.7.7 0 0 1-.35-.47 4.3 4.3 0 0 1 .54.2" transform="translate(3.4)" id="path412"/><path class="cls-17" d="M13.71 72.14c-.05.7.86 1.06.53 1.84-.16.31 0 .74-.19 1 .14.21.28-.05.46 0 .38.67-.54 1-.35 1.54-.18.13-.42.2-.53.39-.11.19-.8-.19-.92.22-.1-.13-.34-.08-.47 0-.13.08-.36.16-.33.39-.3-.29-.67 0-1-.08-.11.38-.48-.12-.62.27-.14 0-.16-.26-.33-.19-.24.29-.67.09-1 .16-.19-.13-.37-.44-.19-.66.11-.44 1.08-.68.51-1.16a.27.27 0 0 1 .11-.3.28.28 0 0 1 .34.19c-.23.53.49.46.65.88a.2.2 0 0 0 .19-.08c-.29-.46-.57-1.07-1.1-1.32-.11-.11 0-.25.11-.33.27 0 .51-.1.72-.05.26.22.22.56.38.82.15 0 .16-.08.19-.16a1.68 1.68 0 0 0-.41-.92c.24-.17.69.52.73 0-.38-.4-1-.32-1.34-.66-.06 0-.11 0-.16.08 0 .28.74.44.28.61-.23 0-.31-.24-.39-.38a2.34 2.34 0 0 1 0-.39c.36-.48.94-.61 1.41-.91.07.32.15.75.55.83a1.33 1.33 0 0 0 .71.05c.07-.05.1-.16.2-.11a.49.49 0 0 0 .27.34h.11a4.46 4.46 0 0 0 .76.84c.55-.5-.41-.68-.52-1.08-.45.18-.27-.5-.69-.38-.08-.32.43 0 .34-.34a2.36 2.36 0 0 1-1-1c.18-.6.89-.15 1.34-.23z" transform="translate(3.4)" id="path414"/><path class="cls-16" d="M16.53 72.33c-.16 0-.36 0-.41-.16v-.08c.14 0 .35.09.38.24" transform="translate(3.4)" id="path416"/><path class="cls-16" d="M17.76 72.75v.08a.21.21 0 0 1-.19-.08c-.05-.28.2-.21.22 0" transform="translate(3.4)" id="path418"/><path class="cls-17" d="M11.94 73.21v.28c-.16.08-.34 0-.46-.08a.38.38 0 0 1-.08-.44c.19-.14.57 0 .57.24" transform="translate(3.4)" id="path420"/><path class="cls-16" d="M14.78 74.32s-.07.05 0 .08-.1-.06-.14-.11a.46.46 0 0 1 .08-.5.46.46 0 0 1 .11.53" transform="translate(3.4)" id="path422"/><path class="cls-16" d="M17.73 74.79c-.05 0-.07.09-.13.08-.06-.01 0-.1 0-.16s.21-.07.16.08" transform="translate(3.4)" id="path424"/><path d="M12.24 75.64c.19-.19.37-.1.63-.11.06.14.27.12.27.3-.18.34-.5 0-.74.15s-.63.38-1 .24c-.13-.24.2-.4.27-.63.17-.06.38-.18.52 0" transform="translate(3.4)" id="path426"/><path d="M13.47 75.86c0 .08 0 .12-.08.16v-.16z" transform="translate(3.4)" id="path428"/><path class="cls-16" d="M17 76.8c0 .22-.23.2-.39.22a1 1 0 0 1-.79-.58 1 1 0 0 1 .76-.19z" transform="translate(3.4)" id="path430"/><path class="cls-17" d="M15.35 76.8c.29.65-.11 1.3.19 2a13.19 13.19 0 0 0-2.64.16 1.34 1.34 0 0 1-.39-1c.58-.41 1.38-.41 1.84-1 .25-.28.73-.48 1-.11" transform="translate(3.4)" id="path432"/><path class="cls-16" d="M19.37 77.29c-.06.94.11 1.79 0 2.73a13.11 13.11 0 0 1-.43 1.55 10.48 10.48 0 0 1-.14-1.42c-.08-.17.12-.16.19-.24.46-.58.19-1.38.27-2.07-.07 0-.1-.16-.19-.13-.24.11-.05.39-.16.55-.15-.21-.05-.56-.08-.77.16-.12.33-.5.54-.2" transform="translate(3.4)" id="path434"/><path class="cls-16" d="M17.79 79.19c.14.06.21-.11.24-.19 0-.42-.08-.81-.05-1.16.13 0 .24-.14.35 0 .23.39.07.89.08 1.32-.25 1.08.15 2.12.08 3.16-1.08-.56-.68-1.81-1.14-2.66.06-.65-.5-1.43.06-2 .54.27.25 1.07.38 1.54" transform="translate(3.4)" id="path436"/><path class="cls-17" d="M12.21 78c.22.23-.65.87.16.77a.32.32 0 0 1 .06.39c-.22.29-.49 0-.71-.13-.22-.13-.13-.51-.19-.77a1 1 0 0 1 .68-.26" transform="translate(3.4)" id="path438"/><path class="cls-16" d="M18.83 79.38c-.16-.24 0-.62.05-.9a1 1 0 0 1-.05.9" transform="translate(3.4)" id="path440"/><path class="cls-16" id="polygon442" d="m23.27 79.03-.08.74v-.82z"/><path class="cls-17" d="M14.78 79.3c-.61.37-1.18.1-1.88.23l-.08-.08.18-.15a5.83 5.83 0 0 1 1.77 0" transform="translate(3.4)" id="path444"/><path class="cls-16" d="M17.54 81.89a2.17 2.17 0 0 1-.71-2.36l.08-.08a6 6 0 0 1 .63 2.44" transform="translate(3.4)" id="path446"/><path class="cls-16" d="M14.67 81.65c0 .3.25.51.41.69-.09.08-.22 0-.35 0-.19-.4-.56-.52-.8-.89l.08-.19c.21.11.54 0 .66.34" transform="translate(3.4)" id="path448"/><path class="cls-16" d="M15.77 81.42c0 .18-.08.39-.27.42-.19.03-.32 0-.31-.19.21 0 .35-.23.58-.23" transform="translate(3.4)" id="path450"/><path class="cls-16" d="M13.66 81.89c.27.29.5.59.82.88.89-.08 1.65.31 2.55.11a.74.74 0 0 1 .73-.16.45.45 0 0 1 .19.58c-.65.53-1.61.11-2.26.52-.74.12-1.21-.63-1.6-1.1-.78.23-.94-.72-1.42-1 0-.18.21-.17.34-.17.13 0 .37.41.65.36" transform="translate(3.4)" id="path452"/><path class="cls-16" d="M16.72 81.7c0 .06 0 .11-.08.14h-.06v-.22c.06 0 .1 0 .14.08" transform="translate(3.4)" id="path454"/><path class="cls-16" d="M12.1 81.76a.72.72 0 0 1-.35.47h-.3c0-.24.25-.41.46-.54h.19" transform="translate(3.4)" id="path456"/><path class="cls-16" id="rect458" d="M19.47 81.81h.05v.08h-.05z"/><path class="cls-16" d="M12.9 82.58c.19.1.4.21.38.47a.94.94 0 0 1-.85.33 1 1 0 0 1-.38-1c.13-.15.34-.5.54-.31s-.14.47 0 .66c.14.19.22-.11.27-.19" transform="translate(3.4)" id="path460"/><path class="cls-16" d="M11.8 83.11c-.1.24-.24.59-.51.63-.19-.29-.54-.5-.45-.89a.517.517 0 0 1 1 .26" transform="translate(3.4)" id="path462"/><path class="cls-16" d="m18.64 83-.08.08c-.07-.1-.07-.16 0-.23s0 .1 0 .15" transform="translate(3.4)" id="path464"/><path class="cls-16" d="M14.62 83.77v.11c-.86.13-2 .64-2.76 0l.05-.26c.33-.16.6.37.95.07l1-.64c.34.08.51.53.8.72" transform="translate(3.4)" id="path466"/><path class="cls-16" d="M17.22 76c-.19-.33.08-.82-.14-1.19-.48-.69-.28-1.75-1.2-2.2-.78 0-1.13-1-1.83-1.27l-.31.08a5.12 5.12 0 0 0-1.37-.5c-.19.1-.51.08-.57.3.48.13.89.07 1.37.2a3.06 3.06 0 0 1 2.1 2.58c0 .69-.55 1.38-.16 2.08.64.15.05-.72.51-.89a6.16 6.16 0 0 0 .07-1.77c0-.19-.35-.31-.11-.5a.82.82 0 0 1 .35.47c0 .75.2 1.63-.16 2.26.09.6.76 0 1.15.19.39.19.28.52.38.77.3.15.21.47.11.7.33-.1.89.08 1.15-.31-.08-.27-.48-.26-.77-.3-.29-.04-.45-.53-.57-.74" transform="translate(3.4)" id="path468"/><path class="cls-20" d="M23.17 51.55c-.52 1.32-.19 2.65-.17 4.11a3.12 3.12 0 0 1 .6 2.18c-.8.72-.46 1.87-.46 2.83a10.14 10.14 0 0 0 2.11 3.69c1.49 1.33 3.5-.68 4.52 1.26v.21a3.64 3.64 0 0 0-2.9-.61 6.71 6.71 0 0 1-2.49.08 4.26 4.26 0 0 1-.84-.6c-.07-.56 0-1.2-.37-1.59-.07 0-.1.08-.17.12.07 1 .34 2.24-.55 2.88a3.29 3.29 0 0 0-.37-2c-.08-.29 0-.68-.24-.86-.43 0-.68.5-1.05.69-1.11.61-2.52.52-3.62 1.18-.19 0-.42.14-.56 0 .79-.81 2.08-.57 3-1.13 1.85-.86 1.28-3 1.76-4.58.15-1.45.34-3.15-.55-4.37-.07-.95-.32-2 .52-2.69.23-.5-.14-1.13.17-1.62.25.07.45.09.6-.15A2.48 2.48 0 0 0 22.8 49l.13.16z" transform="translate(3.4)" id="path470"/><path class="cls-3" d="M23.15 35.23V37h2.45v1h-2.43v7c-.32.29-1.31-.53-1.31-.53v-6.39h-2.5V37h2.55v-1.77z" transform="translate(3.4)" id="path472"/><path class="cls-21" d="M26 49.93c.17.3-.1.54-.23.78a1.26 1.26 0 0 1-.45-.78z" transform="translate(3.4)" id="path474"/><path class="cls-21" d="M25 50.42a.29.29 0 0 1-.17.17c-.23 0-.33-.27-.4-.46s-.14-.28.05-.32c.19-.04.75.15.52.61" transform="translate(3.4)" id="path476"/><path class="cls-21" d="M24 49.78a1.19 1.19 0 0 1-.12.64c-.12-.25-.6-.47-.35-.84a.56.56 0 0 1 .47.2" transform="translate(3.4)" id="path478"/><path class="cls-21" d="M20.39 50.18c.36.12.25-.86.73-.33.27.18 0 .43-.08.6a3.3 3.3 0 0 1-1.21.7.73.73 0 0 1-.25-.81c.34-.19.52-.6.77-.76z" transform="translate(3.4)" id="path480"/><path class="cls-21" d="M17.25 49.52c-.12.21-.49.12-.69.09v-.2c.25.1.47 0 .69.11" transform="translate(3.4)" id="path482"/><path class="cls-21" d="M28.72 49.17c.06.27.08.68-.15.84a.41.41 0 0 1-.26-.2c-.06-.27-.06-.79.17-1z" transform="translate(3.4)" id="path484"/><path class="cls-21" d="M18.11 48.8c-.07.4.4.37.46.72.57.09.84-.81 1.38-.52a2 2 0 0 1-1 1.3c-.4.19-.85 0-1.29 0 .09-.52-.06-1.18.46-1.5" transform="translate(3.4)" id="path486"/><path class="cls-21" d="M29.72 49v.09c-.23 0-.43-.24-.63-.38.23-.08.45.14.63.29" transform="translate(3.4)" id="path488"/><path class="cls-21" d="M24.26 49.09s.11.08.11.15c-.35.12-.63-.14-.88-.41v-.15c.3 0 .48.35.77.41" transform="translate(3.4)" id="path490"/><path class="cls-21" d="M26.42 49.2c0 .27-.42.16-.6.29a5.7 5.7 0 0 1-.84-.08c0-.11.18-.16.12-.29-.06-.13-.46-.15-.64-.32.23-.24.77-.07 1.12 0 .24.23.61.17.84.4" transform="translate(3.4)" id="path492"/><path class="cls-21" d="M16.33 48.19c.15.36-.1.63-.2.93-.1.3-.57.49-.84.46.23-.51.42-1.19 1-1.39" transform="translate(3.4)" id="path494"/><path class="cls-21" d="M15 48c-.08.23-.31.47-.25.72.3 0 .35-.38.61-.49a1.25 1.25 0 0 1-.76 1.1 1.71 1.71 0 0 1-.6.09.42.42 0 0 1-.2-.58A1.14 1.14 0 0 1 15 48" transform="translate(3.4)" id="path496"/><path class="cls-21" d="M31.65 47.87h.05Z" transform="translate(3.4)" id="path498"/><path class="cls-21" d="M30.93 48.31c-.1.08-.2 0-.29-.12a.51.51 0 0 1 .14-.4c.17.08.15.32.15.52" transform="translate(3.4)" id="path500"/><path class="cls-21" d="M18.31 48.11c-.67.06-.79 1.21-1.55.81a1.48 1.48 0 0 1 .74-1.22 1.25 1.25 0 0 1 .81.41" transform="translate(3.4)" id="path502"/><path class="cls-21" d="M27.83 48.36a1.45 1.45 0 0 1-.24 1.45c-.33 0-.18-.35-.28-.52a4.64 4.64 0 0 0-1.64-.93 1 1 0 0 1 .95-.14c.12.07.17.27.34.21.17-.06 0-.15 0-.24-.23-.4-.75-.37-1.09-.37 0-.12.15-.22.25-.27.57.2 1.54-.14 1.68.81" transform="translate(3.4)" id="path504"/><path class="cls-21" d="M21.73 47.26a3 3 0 0 1 .35 2.74c-.34.32-.34-.28-.55-.38-.41-.3-1.06-.5-1.14-1a3.5 3.5 0 0 0 .85-.78h.12c.06.39.33.67.32 1.1.05 0 .11.13.16 0 .22-.29-.06-.56-.16-.81s.08-.59-.15-.78c-.05-.14.1-.12.2-.12" transform="translate(3.4)" id="path506"/><path class="cls-21" d="M16.09 47.55v.2c-.25 0-.5-.22-.6-.45v-.16a.92.92 0 0 1 .6.41" transform="translate(3.4)" id="path508"/><path class="cls-21" d="m20.44 47.14-.05.15-.61.7c.39.2.59-.53 1-.53 0 .61-.77.75-1.2 1-.2 0-.39.08-.61.08a2.13 2.13 0 0 1 .17-1.15c.34-.34.91-.72 1.33-.27" transform="translate(3.4)" id="path510"/><path class="cls-21" d="M14.75 46.94v.12c-.27.17-.8.1-.8.52a.24.24 0 0 1-.32-.32c.12-.47.77-.29 1.12-.32" transform="translate(3.4)" id="path512"/><path class="cls-21" d="M29.44 46.89c.17.15.65.32.74.69 0 .12.08.36-.06.44-.6.54-1.24-.1-1.84-.2-.07-.09-.23-.14-.17-.27.32-.25.87.15 1-.2-.08-.21-.4-.11-.35-.34.05-.23.47 0 .67-.12" transform="translate(3.4)" id="path514"/><path class="cls-21" d="M25.58 47.26a2.17 2.17 0 0 1-.8.85 1.84 1.84 0 0 1-.64.08l.15-.32c-.42-.24-.9.13-1.36-.17-.06 0-.2 0-.2.17V48c-.25 0-.22-.25-.33-.37.13-.12.38-.1.57-.17.79-.49 1.91-1 2.61-.15" transform="translate(3.4)" id="path516"/><path class="cls-21" d="M13 46.65c0 .29-.62.22-.49.64-.18.21-.55.12-.8.09a1.4 1.4 0 0 1 1.14-.85z" transform="translate(3.4)" id="path518"/><path class="cls-21" d="M31.9 46.57c.1.32-.15.54-.37.69a1.71 1.71 0 0 1-1.09 0c-.13-.15-.32-.29-.35-.47.34-.29.94.25 1.09-.37.24.06.52 0 .72.2" transform="translate(3.4)" id="path520"/><path class="cls-21" d="M19.43 46.48c-.07.29-.42.53-.69.66-.27.13-.3-.17-.4.07a.43.43 0 0 1 0 .25c-.33-.17-.87-.11-.95-.6-.08-.49.43-.46.69-.61.45 0 1-.27 1.32.23" transform="translate(3.4)" id="path522"/><path class="cls-21" d="M28.28 46.74a1.38 1.38 0 0 1-.92.47c-.2-.54-.79-.12-1.17-.35v-.12l.51-.74a1.52 1.52 0 0 1 1.58.75" transform="translate(3.4)" id="path524"/><path class="cls-21" d="M16.53 46.08c.07.12-.12.27 0 .4a1.14 1.14 0 0 1 .57.93c-.17 0-.34.16-.49.05-.23-.54-.8-.6-1.17-1-.07-.2.17-.3.28-.4a1 1 0 0 1 .81 0" transform="translate(3.4)" id="path526"/><path class="cls-21" d="M17.22 46v.12h-.32s.05-.15.07-.24c.02-.09.18 0 .25.12" transform="translate(3.4)" id="path528"/><path class="cls-21" d="M12.1 46.13a.73.73 0 0 1-.68.12.13.13 0 0 1 0-.21c.24-.16.57-.32.72.09" transform="translate(3.4)" id="path530"/><path class="cls-21" d="M21.53 45.93a1.07 1.07 0 0 1 .4.64c-.39-.07-1-.37-1.26.08a1.38 1.38 0 0 1-1-.61c.05-.3.47-.21.69-.4a1.8 1.8 0 0 1 1.21.29" transform="translate(3.4)" id="path532"/><path class="cls-21" d="M12.54 45.67c0 .14-.23.09-.32 0s.3-.27.32 0" transform="translate(3.4)" id="path534"/><path class="cls-21" d="M30.58 45.64a.34.34 0 0 1 .15.4 3 3 0 0 1-2.42 0c0-.3.37-.33.57-.47.57.2 1.06-.62 1.5.07z" transform="translate(3.4)" id="path536"/><path class="cls-21" d="M14.84 45.55c.1.23-.17.26-.29.33-.12.07-.15 0-.23.08-.08.08 0 .12.08.17.08.05.27-.07.32.07a1 1 0 0 1-1 .25 4.18 4.18 0 0 1-.65-.37 1.37 1.37 0 0 1 1.05-.85c.3 0 .62 0 .76.32" transform="translate(3.4)" id="path538"/><path class="cls-21" d="M33.31 45.47c-.6.29-1.34.83-2 .32l-.12-.15c.12-.19.5 0 .64-.2-.12-.29-.54-.1-.69-.32a4.29 4.29 0 0 1 1.52-.12c.23.13.6.18.65.52" transform="translate(3.4)" id="path540"/><path class="cls-21" d="M26.35 45c-.1.57-.06 1.23-.65 1.58-.17.14-.3-.08-.44-.13l.29-.27c-.25-.34-.65.07-1 .12.05-.39 0-1 .52-1.19a1.92 1.92 0 0 1 1.28-.11" transform="translate(3.4)" id="path542"/><path class="cls-21" d="M24.26 44.86c-.1.44 0 1.08-.29 1.47a.61.61 0 0 1-.48.24c0-.1.06-.27-.09-.32-.15-.05-.43.44-.72.52a2.88 2.88 0 0 0 .25-1.13 2.21 2.21 0 0 1 1.33-.78" transform="translate(3.4)" id="path544"/><path class="cls-21" d="m11.42 44.86-.2.26a.19.19 0 0 1 .08.2.89.89 0 0 1-.92-.25c0-.24.35-.24.55-.29.2-.05.35 0 .49.08" transform="translate(3.4)" id="path546"/><path class="cls-21" d="M19.51 45.23c.09.19-.13.24-.25.29a2.63 2.63 0 0 1-.8-.13c-.19.08 0 .22 0 .33a.82.82 0 0 1-.84 0c-.15-.18-.54-.4-.45-.69.77-.12 1.81-.71 2.34.25" transform="translate(3.4)" id="path548"/><path class="cls-21" d="M16.41 44.74c0 .29.32.43.29.73-.52.24-1-.15-1.49-.2-.19-.15-.36-.36-.29-.56.39-.34.91-.07 1.38-.08z" transform="translate(3.4)" id="path550"/><path class="cls-21" d="M28.8 44.71c.05.36-.35.54-.6.68-.3 0-.52.2-.84.13 0-.17.28-.17.27-.37-.24-.24-.59.07-.81.2a.84.84 0 0 1 .14-.52 2.26 2.26 0 0 1 1.67-.37z" transform="translate(3.4)" id="path552"/><path class="cls-21" d="M22.2 45.15c.08.32.31.62.16 1-.33-.12-.31-.59-.63-.81a.93.93 0 0 1-.94-.17c-.17-.22-.44-.46-.27-.78a2.61 2.61 0 0 1 1.68.78" transform="translate(3.4)" id="path554"/><path class="cls-21" d="M13.6 44.74c-.2.19-.37-.2-.52 0-.15.2.33.32 0 .45a1.42 1.42 0 0 1-1-.57c.09-.34.54-.49.84-.64.42 0 .44.49.66.72" transform="translate(3.4)" id="path556"/><path class="cls-21" d="M32.94 44.3a.72.72 0 0 1-.64.21c-.21 0-.36-.26-.6-.26a.76.76 0 0 1 1.24 0" transform="translate(3.4)" id="path558"/><path class="cls-21" d="M19.72 43.9a2.38 2.38 0 0 1 .43 1.25c-.23 0-.37-.37-.6-.52a1.83 1.83 0 0 0-1.38-.41c-.16 0 0-.19 0-.29a1.34 1.34 0 0 1 1.5 0" transform="translate(3.4)" id="path560"/><path class="cls-21" d="M11 43.85c.07.2-.16.27-.2.4-.23-.06-.52 0-.68-.23-.16-.23.3-.22.45-.32.15-.1.38 0 .43.15" transform="translate(3.4)" id="path562"/><path class="cls-21" d="M15.44 44.05c-.67-.34-.84.66-1.52.25a.45.45 0 0 1-.12-.4 1.41 1.41 0 0 1 1.56-.08c0 .08.11.13.08.23" transform="translate(3.4)" id="path564"/><path class="cls-21" d="M17.5 43.9v.1c-.25 0-.4-.24-.65-.09-.07.31-.42.21-.6.17a.78.78 0 0 1-.21-.17c0-.35.41-.32.61-.44.4-.13.63.19.85.41" transform="translate(3.4)" id="path566"/><path class="cls-21" d="M30.9 43.61a1.67 1.67 0 0 1-1.13 1.13c-.18-.11.22-.3-.08-.4-.3-.1-.25.27-.45.24a3.05 3.05 0 0 1-.15-.68 2.36 2.36 0 0 1 1.72-.41z" transform="translate(3.4)" id="path568"/><path class="cls-21" d="M26.3 43.9c0 .24-.08.59-.4.56-.32-.03-.67.3-.72-.15a.41.41 0 0 1-.24-.58.82.82 0 0 1 .32-.61 1.37 1.37 0 0 1 1 .78" transform="translate(3.4)" id="path570"/><path class="cls-21" d="M13.6 43.16c.15.18-.12.23-.2.33-.32-.08-.69.17-.81-.2a.82.82 0 0 1 .2-.54 1.13 1.13 0 0 1 .81.41" transform="translate(3.4)" id="path572"/><path class="cls-21" d="M28.6 42.63a1.74 1.74 0 0 1-.52 1.42c-.37.15-.15-.51-.52-.24l-.54.41a1.93 1.93 0 0 1 1.58-1.59" transform="translate(3.4)" id="path574"/><path class="cls-21" d="M31.18 42.89c-.12.33-.48 0-.77.11-.2-.06-.08-.28 0-.4a.74.74 0 0 1 .77.29" transform="translate(3.4)" id="path576"/><path class="cls-21" d="M12.19 42.6c.12.3-.22.51-.12.84l-.37.05.24.36c-.36.1-.47-.32-.64-.53 0-.1-.07-.16 0-.28a1.14 1.14 0 0 1 .92-.44" transform="translate(3.4)" id="path578"/><path class="cls-21" d="M32.66 42.48c.1.22-.09.47-.24.61s-.43-.2-.64.07a1.53 1.53 0 0 1 .88-.68" transform="translate(3.4)" id="path580"/><path class="cls-21" d="M21.56 42.75v.81l-.34-.35c-.17.23.15.49 0 .81a.43.43 0 0 1-.57-.26 1.76 1.76 0 0 1 .12-1.42.83.83 0 0 1 .77.41" transform="translate(3.4)" id="path582"/><path class="cls-21" d="M16.56 42.72c0 .12.07.28-.06.37a2 2 0 0 1-.86-.14v.29a1.3 1.3 0 0 1-1-.64v-.32c.75.13 1.45-.2 1.92.44" transform="translate(3.4)" id="path584"/><path class="cls-21" d="M20.15 42.92v.78c-.33-.53-1.14-.16-1.29-.9 0-.24 0-.45.17-.61.48 0 .8.43 1.12.73" transform="translate(3.4)" id="path586"/><path class="cls-21" d="M18.31 42.19c.23.32 0 .7.2 1.05-.19.09-.34.22-.57.17-.32-.27-1-.25-.92-.81 0-.2 0-.56.31-.52.31.04.72-.11 1 .11" transform="translate(3.4)" id="path588"/><path class="cls-21" d="M29.92 42.14c-.05.37 0 .76-.31 1-.19 0 0-.29-.17-.36l-.32.15c-.05-.39 0-.84.45-.93.1-.05.39-.1.35.12" transform="translate(3.4)" id="path590"/><path class="cls-21" d="M27.36 42.35c.07.52-.42.74-.65 1.09-.21-.23.4-.49 0-.64-.17.22-.43.37-.65.15a.24.24 0 0 1 0-.35 2.48 2.48 0 0 1 1.22-.6z" transform="translate(3.4)" id="path592"/><path class="cls-21" d="M30.64 41.74a.3.3 0 0 1 0 .37h-.12c-.1-.14 0-.37.15-.37" transform="translate(3.4)" id="path594"/><path class="cls-21" d="M24.61 42.4c-.13.38-.15.93-.6 1.09-.17-.2.06-.71-.36-.69-.08.2.09.49-.08.69a4.47 4.47 0 0 1 0-1.82c.4.1 1 .22 1.07.73" transform="translate(3.4)" id="path596"/><path class="cls-21" d="M13.75 41.94c.2.42.62.79.57 1.27-.47 0-.4-.68-.89-.73-.3 0-.47-.3-.55-.54-.08-.24-.07-.37.06-.47a1.1 1.1 0 0 1 .81.47" transform="translate(3.4)" id="path598"/><path class="cls-21" d="M29.61 41.47c-.05.1-.16.06-.24.06-.08 0 0-.15 0-.23 0-.08.21.05.21.17" transform="translate(3.4)" id="path600"/><path class="cls-21" d="M20.75 41.38c0 .17 0 .44-.23.41-.23-.03-.2-.41-.37-.58.17 0 .52-.17.6.17" transform="translate(3.4)" id="path602"/><path class="cls-21" d="M21.53 41.1a2.66 2.66 0 0 1 0 .89c-.19 0-.24-.2-.29-.32-.05-.12.05-.56.29-.57" transform="translate(3.4)" id="path604"/><path class="cls-21" d="M15.93 41.53v.17a1.09 1.09 0 0 0-.32 0c0 .27-.32.13-.45.12-.11-.26-.47-.49-.27-.78.35.15.95 0 1 .52" transform="translate(3.4)" id="path606"/><path class="cls-21" d="M28.77 41.87c-.2.15-.56.39-.66 0a.42.42 0 0 0-.23.07c-.27-.57.5-.62.75-.93.1.05.12-.08.2 0a1.46 1.46 0 0 1-.06.89" transform="translate(3.4)" id="path608"/><path class="cls-21" d="m20 41.74.17.45c-.37-.17-.71-1-1.18-.52-.23-.05-.55-.07-.63-.29-.08-.22 0-.52.23-.57a2 2 0 0 1 1.41.93" transform="translate(3.4)" id="path610"/><path class="cls-21" d="M26.76 41.06c.23.91-.83.81-1.21 1.29 0-.14.17-.33 0-.41-.17-.08-.27.25-.45.25-.07-.18-.21-.33-.15-.57a4.51 4.51 0 0 1 1.72-.9z" transform="translate(3.4)" id="path612"/><path class="cls-21" d="M17.74 40.93a.93.93 0 0 1 .08.66c-.32.37-.8-.87-.69 0-.23.13-.43-.07-.63-.12a.73.73 0 0 1-.17-.81 7.29 7.29 0 0 1 1.41.24" transform="translate(3.4)" id="path614"/><path class="cls-21" d="M25.1 40.86c-.2.18-.37.42-.64.44a.29.29 0 0 0-.12-.29c-.33 0-.63.37-.85 0a1.87 1.87 0 0 1 1.61-.35z" transform="translate(3.4)" id="path616"/><path class="cls-20" d="M22 65.18a2.17 2.17 0 0 1-.77.73c-.08-.07 0-.35.08-.49s.59-.86.69-.24" transform="translate(3.4)" id="path618"/><path class="cls-20" d="M23.69 66c-.12-.14-.35-.41-.15-.61.18.12.15.44.15.61" transform="translate(3.4)" id="path620"/><path d="M39.44 114.8a33 33 0 0 1-23.57-9.8A33.52 33.52 0 0 1 6.1 81.2V33.34h66.69V81.2A33.52 33.52 0 0 1 63 105a33 33 0 0 1-23.58 9.84M6.74 34v47.2a32.71 32.71 0 1 0 65.41 0V34Z" transform="translate(3.4)" id="path622"/><path class="cls-9" d="M46.3 50.53v.14c.1.52.21 1 .32 1.42.11.42.24 1 .36 1.58v.19-.19c.12-.58.24-1.09.36-1.58s.21-.9.32-1.42v-.14h.14c.87.07 1.85.2 1.9.21h.06v-.07a21.05 21.05 0 0 1-1.39-6.43v-.16h.15a15.64 15.64 0 0 1 4.17 1.15h.06v-.07a22.4 22.4 0 0 1 0-4.82v-.07h-.06a16 16 0 0 1-4.14 1.15h-.18v-.18a18 18 0 0 1 .89-3.51v-.07h-.07A15.34 15.34 0 0 1 47 38a15.13 15.13 0 0 1-2.3-.26h-.07v.07a17.25 17.25 0 0 1 .89 3.51v.18h-.18a15.72 15.72 0 0 1-4.14-1.15h-.07v.07a17.27 17.27 0 0 1 .13 2.41 17.27 17.27 0 0 1-.13 2.41v.07h.07a15.55 15.55 0 0 1 4.15-1.15h.16v.16a21.73 21.73 0 0 1-1.39 6.43v.07h.07s1-.14 1.9-.21z" transform="translate(3.4)" id="path624"/><path d="m47.05 54.65-.2-.95c-.11-.58-.24-1.09-.35-1.58-.11-.49-.22-.9-.33-1.42-.88.08-1.88.21-1.89.22L44 51l.12-.31a20.87 20.87 0 0 0 1.38-6.39 15.5 15.5 0 0 0-4.09 1.14l-.32.14v-.35a19.31 19.31 0 0 0 .12-2.38 19.8 19.8 0 0 0-.12-2.39v-.34l.32.13a15 15 0 0 0 4.08 1.14 17 17 0 0 0-.89-3.48l-.12-.33.34.07a17.5 17.5 0 0 0 2.28.25 17 17 0 0 0 2.29-.25l.35-.07-.13.33a17.39 17.39 0 0 0-.88 3.48 15.13 15.13 0 0 0 4.08-1.14l.32-.13v.34a18.3 18.3 0 0 0-.13 2.39 17.84 17.84 0 0 0 0 2.34v.35l-.32-.14a15.63 15.63 0 0 0-4.09-1.14A21.34 21.34 0 0 0 50 50.65l.13.31h-.34s-1-.14-1.89-.22c-.1.52-.21 1-.32 1.42-.11.42-.24 1-.36 1.58zm-.56-4.37v.17c.12.59.24 1.09.36 1.58 0 .23.11.47.17.71.05-.24.11-.48.17-.71.11-.49.23-1 .35-1.58v-.17h.17c.63 0 1.35.13 1.76.18a20.65 20.65 0 0 1-1.29-6.4v-.16h.18a12.52 12.52 0 0 1 4.16 1c0-.38-.09-1.1-.09-2.1s0-1.72.09-2.11a12.29 12.29 0 0 1-4.16 1h-.2v-.2a17.41 17.41 0 0 1 .82-3.47 14.12 14.12 0 0 1-2 .21 14.12 14.12 0 0 1-2-.21 16.86 16.86 0 0 1 .81 3.47v.2h-.2a12.17 12.17 0 0 1-4.16-1c0 .39.09 1.11.09 2.11 0 1-.06 1.72-.09 2.1a12.4 12.4 0 0 1 4.16-1h.17v.18a21 21 0 0 1-1.28 6.4c.41 0 1.13-.14 1.75-.18z" transform="translate(3.4)" id="path626"/></g></g></g></svg>