<svg width="512" height="512" xmlns="http://www.w3.org/2000/svg"><path d="M341.3 0H512v512H341.3Z" fill="#fc0" style="stroke-width:.853333"/><path d="M170.7 0h170.6v512H170.7Z" fill="#0077c8"/><path d="M0 0h170.7v512H0Z" fill="#fff"/><path d="m282.2 182.8.4-.4v.3h-.4zm-39.7-10.2c0 .2-.2.3-.3.4l.3-.4zm-10 10 .1-.3.5.5-.6-.1zm-72.3 140zm47.5-137.2v.1zm99.9 0v.1zm97.3 129a18.5 18.5 0 0 0 5.4-13.2c-.9-5.8-3-15-10.4-15.2-1.9 0-5 2.1-5 2.1-3 2-2.7 6.7 0 9.4 2 2 2 5.4 0 7.5a4.8 4.8 0 0 1-3.5 1.4c-.4 0-1.4-.4-1.7-1.6-1.7-7.1-6-13.2-12.1-17.2a42.9 42.9 0 0 1-18.7-35.5l.1-22.1c0-10.8-7.4-20.3-18-23 0 0-4.9-1.5-7.4-1.4-2 .1-3.9 1-5.7 1.7h-.1l-4.5-1.5-2.6-.6-1.6-.3c-2-.3-4 .4-5.4 2-1.2 1.8-1.7 4-1.7 7 0 1.2.3 2.7.5 4.2-1-.2-1.8-.7-2.8-.7a11 11 0 0 0-10.4 7.2h-5.7c3.3-6 6.3-11.5 7-12.4.1.1 3.5-.1 3.5-.1a4 4 0 0 0 3.3-2c.3-.6.4-1.2.4-1.7 0-.4-.2-.7-.3-1 1.8-1.4 3.2-3.3 3.2-5.6l-.3-.8c1.7-1.4 3-3.2 3-5.4 0-.8-.2-1.7-.5-2.5-.3-.6-.8-1-1.1-1.5a7.2 7.2 0 0 0-4.2-9.3 7.2 7.2 0 0 0-4-5.3 7.7 7.7 0 0 0-3.8-.6 7.4 7.4 0 0 0-5.5-3.1c-1 0-2 .3-3 .6l-1-1-5.9-.4c-.8.2-1.4.8-2 1.3l-2-1-.6.2c-1.4-2.1-3.4-3.8-6.2-3.8-1 0-1.9.5-2.7.8a7.7 7.7 0 0 0-4.5-1.5l-.5.2v-3.4c0-1.7-1.3-2.8-2.8-3.3-.5-1.5-1.8-2.7-3.6-2.7h-3.7c-1.8 0-3 1.2-3.6 2.7-1.5.5-2.8 1.6-2.8 3.3v3.4l-.5-.2c-1.7 0-3.2.6-4.4 1.5-1-.3-1.8-.8-2.8-.8-2.8 0-4.8 1.7-6.2 3.8a54.5 54.5 0 0 0-.6-.2s-1 .5-2 1c-.6-.5-1.2-1-2-1.3l-6 .3-1 1.1c-.9-.3-1.8-.7-2.9-.6a7.5 7.5 0 0 0-5.5 3.2c-1.3-.1-2.6 0-3.8.6-2.2 1-3.4 3-4 5.1-1 .4-1.9 1-2.7 1.8a7.2 7.2 0 0 0-2 5c0 .9.2 1.7.6 2.6-.4.5-1 .9-1.2 1.5a7 7 0 0 0-.4 2.5c0 2.2 1.2 4 3 5.4a76.8 76.8 0 0 1-.4.8c0 2.3 1.3 4.1 3.1 5.5 0 .4-.3.7-.3 1 0 .6.1 1.2.4 1.7a4 4 0 0 0 3.3 2.1l3.4.2c.7.8 3.8 6.3 7.2 12.3h-6a11 11 0 0 0-10.3-7.1c-1 0-1.9.4-2.8.6.2-1.6.5-3.4.5-4.6 0-4-1-5.4-1.4-6-1.7-2.2-3.6-3-5.7-2.6l-1.6.3-2.6.6-4.5 1.6-.1-.1c-1.8-.7-3.7-1.6-5.7-1.7-2.4-.1-7 1.3-7 1.3a24 24 0 0 0-18.4 23v15.3l.1 7a42.7 42.7 0 0 1-18.7 35.3 29 29 0 0 0-12.1 17.2c-.3 1.3-1.3 1.7-1.7 1.7a4.8 4.8 0 0 1-3.5-1.4c-1-1-1.5-2.4-1.5-3.8 0-1.3.5-2.7 1.5-3.7a6.5 6.5 0 0 0 0-9.4s-3.1-2-5-2c-1.8 0-5 2-5 2-7.8 6.7-7.2 19 0 26.2a19 19 0 0 0 19.2 4.6l.1 2c0 2.8-1.7 5.4-4.4 6.3-1.4.6-2.4 1.7-2.5 3.2l-.1 2.4c0 4.9 1.5 9.5 4.4 13.5 1.7 2.5 2.7 5 3.3 7.7a9.8 9.8 0 0 0 9.5 7.6H151c2.2 0 4-1.6 4-3.7 0-6.4-4.8-11.5-11-12.8a8 8 0 0 1-2-5 8 8 0 0 1 4.9-7.5 18 18 0 0 0 10.5-12c2.5.4 2.9.7 2.9 2-.5 2.6-1 2.3-1.4 3.5-.4 1.2.7 2.5 2.2 3.2 2.3 1 6.3 6.6 8 10.6a10 10 0 0 0 9.1 5.7h9.6c2.2 0 4-1.6 4-3.7 0-6.2-4.6-11.7-10.8-13-2-.4-3.4-2.2-3.4-4.3 0-1.2.5-2.3 1.3-3.2 2-2 3-4.5 1-10.6-2.1-6-5.9-9.1-10-11.5 3.5-3.4 7.4-6.4 11.8-8.5 7.4-3.2 13-9.4 15.6-17l4.4-4v44c0 31.6 53.6 32 55.9 32 2.3 0 55.8-.4 55.8-32v-44.2l4.5 4.2a28.8 28.8 0 0 0 15.7 17c4.4 2 8.3 5 11.8 8.4-4.1 2.4-8.8 5-10.9 11.2-2 6.1 0 9 1.9 11a4.5 4.5 0 0 1 1.2 3.2c0 2-1.4 3.9-3.3 4.3a13.4 13.4 0 0 0-10.8 13c0 2 1.8 3.7 4 3.7h9.6a10 10 0 0 0 9-5.7c1.8-4 5.7-9.5 8.1-10.6 1.4-.7 2.4-1.6 2.4-2.8 0-.4 0-.8-.2-1.2l-1-2.5-.3-.4c0-1 .6-1.4 2.8-1.9 1.4 5.3 5.1 9.9 10.4 12 3 1.3 5 4.3 5 7.6a8 8 0 0 1-2 5c-6.2 1.2-11 6.4-11 12.8 0 2 1.8 3.7 4 3.7h11.2c3.7 0 8.2-2.3 9.5-7.5.5-2.8 1.6-5.3 3.2-7.6 3-4.2 4.5-8.8 4.5-13.7l-.1-2.4c0-1.5-1-2.6-2.6-3.2a6.8 6.8 0 0 1-4.3-6.4v-2c6.7 2.1 14.2.6 19.3-4.5zm-233.7-153c1.8 3.8 5.2 6.6 9 8.6-1.1 1.2-2.6 2-5 3-1.5.6-2.5 2-2.5 3.5v.1c0 1.6 1.2 3 2.8 3.4 6.5 1.9 35 3 53.6-14.7.8-.8 1.3-2 1.3-3.1 0-.6-.1-1.2-.5-1.7l-.1-.3c9-1 18-1.8 27.1-1.8 9.6 0 18.8.7 27.8 1.8a7.4 7.4 0 0 1-.1.3c-.3.5-.5 1-.5 1.7 0 1.1.5 2.3 1.3 3.1C304 183 332.6 182 339 180a3.8 3.8 0 0 0 2.8-3.4v-.1c0-1.6-1-3-2.5-3.5-2.4-1-3.8-1.8-5-3 3.9-2 7.2-4.8 9-8.7a1667.6 1667.6 0 0 1 1.3-3.8c0-1-.4-1.9-1.3-2.6a4.2 4.2 0 0 0-4.3-.6 15 15 0 0 1-5.3 1c-4.5 0-16.5-2-19.7-7.5a14.8 14.8 0 0 0-12.3-13.8 260.6 260.6 0 0 0-44.1-3.8c-15.4 0-30.2 1.3-44.6 3.7a14.8 14.8 0 0 0-12.4 13.9c-3.3 5.5-15.3 7.6-19.7 7.5-2 0-3.8-.4-5.4-1a4.2 4.2 0 0 0-4.3.6c-.9.7-1.3 1.6-1.3 2.6 0 .4 0 .9.2 1.3l1 2.5z" fill="#fff"/><path d="M222.6 203.4c-3-1.5-6.7-6.6-6.7-9.3 0-4.6 5.9-8.4 13-8.4l3-1.2 1.3-4s-16.2-2-20.6 5.3c-4.5 7.3-2.2 12.1-.3 16a14 14 0 0 0 6 5.8l4.3-4.2z" fill="#fc0"/><path d="M237.6 350.5c-.6-.3-1.3-1.4-1.3-2 0-1 1.2-1.8 2.6-1.8l.6-.2.3-1s-3.3-.3-4.2 1.2c-.9 1.6-.4 2.6 0 3.5.3.8 1.2 1.2 1.2 1.2l.8-.9z" fill="none" stroke="#000" stroke-width=".4" transform="matrix(4.94855 0 0 4.64896 -953.3 -1426.1)"/><path d="M239.5 191.3c-1-1-1.5-2-1.5-3.3 0-3.3 4-6 9.1-6 1.9 0 5.5.3 6.9 1l.5-7s-13.7-1.5-19 4.1c-5.2 5.7-3.9 11.3-3.4 12.6.4 1.3 1.3 3.2 1.3 3.2l7.5-2.1-1.4-2.5z" fill="#fc0"/><path d="M241 348a1 1 0 0 1-.3-.8c0-.7.9-1.3 1.9-1.3.4 0 1 0 1.4.2v-1.5s-2.7-.3-3.8 1a2.8 2.8 0 0 0-.4 3.3l1.5-.5-.3-.5z" fill="none" stroke="#000" stroke-width=".4" transform="matrix(4.94855 0 0 4.64896 -953.3 -1426.1)"/><path d="M292.5 203.4c2.9-1.5 6.7-6.6 6.7-9.3 0-4.6-5.9-8.4-13-8.4l-3-1.2-1.3-4s16.2-2 20.6 5.3c4.4 7.3 2.2 12.1.3 16-1.8 3.8-6 5.8-6 5.8l-4.3-4.2z" fill="#fc0"/><path d="M251.8 350.5c.5-.3 1.3-1.4 1.3-2 0-1-1.2-1.8-2.6-1.8l-.6-.2-.3-1s3.3-.3 4.2 1.2c.9 1.6.4 2.6 0 3.5-.3.8-1.2 1.2-1.2 1.2l-.8-.9z" fill="none" stroke="#000" stroke-width=".4" transform="matrix(4.94855 0 0 4.64896 -953.3 -1426.1)"/><path d="M275.6 191.3c1-1 1.5-2 1.5-3.3 0-3.3-4.1-6-9.1-6a24 24 0 0 0-7 1l-.4-7s13.7-1.5 19 4.1c5.2 5.7 3.8 11.3 3.4 12.6-.4 1.3-1.3 3.2-1.3 3.2l-7.6-2.1 1.5-2.5z" fill="#fc0"/><path d="M248.3 348c.2-.3.3-.5.3-.8 0-.7-.8-1.3-1.8-1.3-.4 0-1.1 0-1.4.2v-1.5s2.7-.3 3.7 1c1 1.1.8 2.3.7 2.6l-.2.7-1.6-.5.3-.5z" fill="none" stroke="#000" stroke-width=".4" transform="matrix(4.94855 0 0 4.64896 -953.3 -1426.1)"/><path d="M221.2 203.5a52.5 52.5 0 0 1 36.4-13.6c14.9 0 28 5.3 36.5 13.6L284 229.7h-53l-9.7-26.2z" fill="#da291c"/><path d="M237.3 350.5c1.8-1.7 4.4-2.9 7.4-2.9s5.7 1.2 7.4 3l-2 5.6h-10.8l-2-5.7z" fill="none" stroke="#000" stroke-linecap="round" stroke-linejoin="round" stroke-width=".4" transform="matrix(4.94855 0 0 4.64896 -953.3 -1426.1)"/><path d="m264.4 199.5-6.8-4.2-6.7 4.2 2.6-21.6h8.2l2.7 21.6z" fill="#ecd21c"/><path d="m246 349.7-1.3-1-1.4 1 .6-4.7h1.6l.6 4.7z" fill="#fc0" stroke="#000" stroke-width=".4" transform="matrix(4.94855 0 0 4.64896 -953.3 -1426.1)"/><path d="M258.1 181.3a2.3 2.3 0 1 0-1 4.6c1.4.2 2.6-.6 2.9-1.9.3-1.3-.6-2.5-1.9-2.8z" fill="#fff"/><path d="M244.8 345.8a.5.5 0 0 0-.6.3.5.5 0 0 0 .4.6.5.5 0 0 0 .6-.4.5.5 0 0 0-.4-.6z" fill="none" stroke="#000" stroke-width=".2" transform="matrix(4.94855 0 0 4.64896 -953.3 -1426.1)"/><path d="M258.3 185.5a3 3 0 0 0-3.6 2.3 3 3 0 0 0 2.4 3.5 3 3 0 0 0 3.6-2.3 3 3 0 0 0-2.4-3.5z" fill="#fff"/><path d="M244.8 346.7a.6.6 0 0 0-.7.5.6.6 0 0 0 .5.7c.3 0 .7-.1.7-.5a.6.6 0 0 0-.5-.7z" fill="none" stroke="#000" stroke-width=".2" transform="matrix(4.94855 0 0 4.64896 -953.3 -1426.1)"/><path d="M258.4 191c-2-.4-4 1-4.5 3-.4 2 .9 4 3 4.4 2 .4 4-1 4.5-3s-.9-4-3-4.3z" fill="#fff"/><path d="M244.9 347.9a.8.8 0 0 0-1 .6.8.8 0 0 0 .7 1 .8.8 0 0 0 .9-.7.8.8 0 0 0-.6-1z" fill="none" stroke="#000" stroke-width=".2" transform="matrix(4.94855 0 0 4.64896 -953.3 -1426.1)"/><path d="M216 201.8c0-2-1.6-3.7-3.7-3.7-2 0-3.8 1.6-3.8 3.7 0 2 1.7 3.6 3.8 3.6 2.1 0 3.8-1.6 3.8-3.6z" fill="#fff"/><path d="M236.3 350.2a.8.8 0 0 0-.8-.8.8.8 0 0 0-.7.8c0 .4.3.7.8.7a.8.8 0 0 0 .7-.7z" fill="none" stroke="#000" stroke-width=".2" transform="matrix(4.94855 0 0 4.64896 -953.3 -1426.1)"/><path d="M235.5 186.2c0-2-1.7-3.7-3.7-3.7-2.1 0-3.8 1.7-3.8 3.7s1.7 3.6 3.8 3.6c2 0 3.7-1.6 3.7-3.6z" fill="#fff"/><path d="M240.2 346.8a.8.8 0 0 0-.7-.8.8.8 0 0 0-.8.8c0 .4.4.8.8.8s.7-.4.7-.8z" fill="none" stroke="#000" stroke-width=".2" transform="matrix(4.94855 0 0 4.64896 -953.3 -1426.1)"/><path d="M236.6 193c0-2-1.7-3.6-3.8-3.6-2 0-3.7 1.6-3.7 3.7 0 2 1.7 3.6 3.7 3.6 2.1 0 3.8-1.6 3.8-3.6z" fill="#fff"/><path d="M240.5 348.3a.8.8 0 0 0-.8-.8c-.4 0-.8.4-.8.8s.4.8.8.8.8-.4.8-.8z" fill="none" stroke="#000" stroke-width=".2" transform="matrix(4.94855 0 0 4.64896 -953.3 -1426.1)"/><path d="M213.2 197c.7-2-.2-4-2.2-4.7-2-.8-4 .2-4.8 2-.8 2 .2 4 2.1 4.8 2 .7 4.1-.3 4.9-2.1z" fill="#fff"/><path d="M235.7 349.1a.8.8 0 0 0-.4-1 .8.8 0 0 0-1 .5.8.8 0 0 0 .4 1 .8.8 0 0 0 1-.5z" fill="none" stroke="#000" stroke-width=".2" transform="matrix(4.94855 0 0 4.64896 -953.3 -1426.1)"/><path d="M213.4 191.5a3.6 3.6 0 0 0-.1-5.2 3.9 3.9 0 0 0-5.4.2 3.6 3.6 0 0 0 .2 5.2 3.8 3.8 0 0 0 5.3-.2z" fill="#fff"/><path d="M235.8 348a.8.8 0 0 0 0-1.2.7.7 0 0 0-1.1 0 .8.8 0 0 0 0 1.2.7.7 0 0 0 1 0z" fill="none" stroke="#000" stroke-width=".2" transform="matrix(4.94855 0 0 4.64896 -953.3 -1426.1)"/><path d="M216.6 187c1.9-.8 2.7-3 1.8-4.8a3.8 3.8 0 0 0-5-1.8c-1.8.9-2.7 3-1.8 4.9a3.8 3.8 0 0 0 5 1.7z" fill="#fff"/><path d="M236.4 347a.8.8 0 0 0 .4-1 .8.8 0 0 0-1-.4.8.8 0 0 0-.4 1 .7.7 0 0 0 1 .4z" fill="none" stroke="#000" stroke-width=".2" transform="matrix(4.94855 0 0 4.64896 -953.3 -1426.1)"/><path d="M221.7 184.3c2-.1 3.6-1.9 3.5-3.9-.1-2-1.9-3.5-4-3.4-2 0-3.6 1.8-3.5 3.8.1 2 1.9 3.6 4 3.5z" fill="#fff"/><path d="M237.4 346.4a.8.8 0 0 0 .8-.8.8.8 0 0 0-.8-.8.8.8 0 0 0-.8.9.8.8 0 0 0 .8.7z" fill="none" stroke="#000" stroke-width=".2" transform="matrix(4.94855 0 0 4.64896 -953.3 -1426.1)"/><path d="M227.2 183c2 .6 4.1-.5 4.8-2.4.6-1.9-.5-4-2.4-4.6-2-.6-4.1.4-4.8 2.3-.6 2 .4 4 2.4 4.6z" fill="#fff"/><path d="M238.6 346.1a.8.8 0 0 0 1-.5.8.8 0 0 0-.6-1 .8.8 0 0 0-1 .5.8.8 0 0 0 .6 1z" fill="none" stroke="#000" stroke-width=".2" transform="matrix(4.94855 0 0 4.64896 -953.3 -1426.1)"/><path d="M233.2 183c1.6 1.2 4 1 5.3-.5a3.6 3.6 0 0 0-.5-5.2c-1.6-1.3-4-1-5.3.5a3.6 3.6 0 0 0 .5 5.2z" fill="#fff"/><path d="M239.8 346.1a.7.7 0 0 0 1 0 .8.8 0 0 0 0-1.2.7.7 0 0 0-1.1.1.8.8 0 0 0 0 1.1z" fill="none" stroke="#000" stroke-width=".2" transform="matrix(4.94855 0 0 4.64896 -953.3 -1426.1)"/><path d="M245.5 176.6c0-2-1.7-3.7-3.8-3.7-2 0-3.8 1.6-3.8 3.7 0 2 1.7 3.6 3.8 3.6 2 0 3.8-1.6 3.8-3.6z" fill="#fff"/><path d="M242.3 344.7a.8.8 0 0 0-.8-.7.8.8 0 0 0-.8.7c0 .5.4.8.8.8s.7-.3.7-.8z" fill="none" stroke="#000" stroke-width=".2" transform="matrix(4.94855 0 0 4.64896 -953.3 -1426.1)"/><path d="M252.6 175.9c0-2-1.7-3.7-3.7-3.7-2.1 0-3.8 1.6-3.8 3.7 0 2 1.7 3.6 3.8 3.6 2 0 3.7-1.6 3.7-3.6z" fill="#fff"/><path d="M243.7 344.6a.8.8 0 0 0-.8-.8.8.8 0 0 0-.7.8.8.8 0 0 0 .7.8.8.8 0 0 0 .8-.8z" fill="none" stroke="#000" stroke-width=".2" transform="matrix(4.94855 0 0 4.64896 -953.3 -1426.1)"/><path d="M299.2 201.8c0-2 1.6-3.7 3.7-3.7s3.8 1.6 3.8 3.7c0 2-1.7 3.6-3.8 3.6s-3.7-1.6-3.7-3.6z" fill="#fff"/><path d="M253.1 350.2c0-.5.3-.8.8-.8s.7.3.7.8a.8.8 0 0 1-.7.7.8.8 0 0 1-.8-.7z" fill="none" stroke="#000" stroke-width=".2" transform="matrix(4.94855 0 0 4.64896 -953.3 -1426.1)"/><path d="M279.8 186.2c0-2 1.6-3.7 3.7-3.7s3.8 1.7 3.8 3.7-1.7 3.6-3.8 3.6c-2 0-3.7-1.6-3.7-3.6z" fill="#fff"/><path d="M249.2 346.8c0-.4.3-.8.7-.8.5 0 .8.4.8.8s-.3.8-.8.8a.8.8 0 0 1-.7-.8z" fill="none" stroke="#000" stroke-width=".2" transform="matrix(4.94855 0 0 4.64896 -953.3 -1426.1)"/><path d="M278.7 193c0-2 1.7-3.6 3.7-3.6 2.1 0 3.8 1.6 3.8 3.7 0 2-1.7 3.6-3.8 3.6-2 0-3.7-1.6-3.7-3.6z" fill="#fff"/><path d="M249 348.3c0-.4.3-.8.7-.8.4 0 .8.4.8.8a.8.8 0 0 1-.8.8.8.8 0 0 1-.7-.8z" fill="none" stroke="#000" stroke-width=".2" transform="matrix(4.94855 0 0 4.64896 -953.3 -1426.1)"/><path d="M302 197c-.7-2 .3-4 2.2-4.7 2-.8 4.2.2 5 2 .7 2-.3 4-2.3 4.8-2 .7-4-.3-4.8-2.1z" fill="#fff"/><path d="M253.7 349.1a.8.8 0 0 1 .4-1 .8.8 0 0 1 1 .5.8.8 0 0 1-.4 1 .7.7 0 0 1-1-.5z" fill="none" stroke="#000" stroke-width=".2" transform="matrix(4.94855 0 0 4.64896 -953.3 -1426.1)"/><path d="M301.8 191.5a3.6 3.6 0 0 1 .2-5.2 3.9 3.9 0 0 1 5.3.2 3.6 3.6 0 0 1-.2 5.2 3.8 3.8 0 0 1-5.3-.2z" fill="#fff"/><path d="M253.6 348a.8.8 0 0 1 0-1.2.7.7 0 0 1 1.2 0 .8.8 0 0 1 0 1.2.7.7 0 0 1-1.2 0z" fill="none" stroke="#000" stroke-width=".2" transform="matrix(4.94855 0 0 4.64896 -953.3 -1426.1)"/><path d="M298.7 187c-2-.8-2.7-3-1.9-4.8a3.8 3.8 0 0 1 5-1.8c2 .9 2.7 3 1.9 4.9a3.8 3.8 0 0 1-5 1.7z" fill="#fff"/><path d="M253 347a.8.8 0 0 1-.4-1 .8.8 0 0 1 1-.4c.4.2.6.6.4 1a.7.7 0 0 1-1 .4z" fill="none" stroke="#000" stroke-width=".2" transform="matrix(4.94855 0 0 4.64896 -953.3 -1426.1)"/><path d="M293.6 184.3c-2-.1-3.7-1.9-3.5-3.9 0-2 1.9-3.5 4-3.4 2 0 3.6 1.8 3.5 3.8-.1 2-2 3.6-4 3.5z" fill="#fff"/><path d="M252 346.4a.8.8 0 0 1-.7-.8.8.8 0 0 1 .8-.8.8.8 0 0 1 .7.9.8.8 0 0 1-.8.7z" fill="none" stroke="#000" stroke-width=".2" transform="matrix(4.94855 0 0 4.64896 -953.3 -1426.1)"/><path d="M288 183c-2 .6-4-.5-4.7-2.4-.6-1.9.4-4 2.4-4.6 2-.6 4.1.4 4.7 2.3.7 2-.4 4-2.3 4.6z" fill="#fff"/><path d="M250.9 346.1a.8.8 0 0 1-1-.5.8.8 0 0 1 .5-1 .8.8 0 0 1 1 .5.8.8 0 0 1-.5 1z" fill="none" stroke="#000" stroke-width=".2" transform="matrix(4.94855 0 0 4.64896 -953.3 -1426.1)"/><path d="M282 183c-1.6 1.2-4 1-5.3-.5a3.6 3.6 0 0 1 .6-5.2c1.6-1.3 4-1 5.3.5a3.6 3.6 0 0 1-.6 5.2z" fill="#fff"/><path d="M249.6 346.1a.7.7 0 0 1-1 0 .8.8 0 0 1 0-1.2.7.7 0 0 1 1.1.1.8.8 0 0 1 0 1.1z" fill="none" stroke="#000" stroke-width=".2" transform="matrix(4.94855 0 0 4.64896 -953.3 -1426.1)"/><path d="M269.8 176.6c0-2 1.7-3.7 3.8-3.7 2 0 3.7 1.6 3.7 3.7 0 2-1.7 3.6-3.7 3.6-2.1 0-3.8-1.6-3.8-3.6z" fill="#fff"/><path d="M247.2 344.7c0-.4.3-.7.7-.7s.8.3.8.7a.8.8 0 0 1-.8.8.8.8 0 0 1-.7-.8z" fill="none" stroke="#000" stroke-width=".2" transform="matrix(4.94855 0 0 4.64896 -953.3 -1426.1)"/><path d="M262.6 175.9c0-2 1.7-3.7 3.8-3.7 2 0 3.8 1.6 3.8 3.7 0 2-1.7 3.6-3.8 3.6-2 0-3.8-1.6-3.8-3.6z" fill="#fff"/><path d="M245.7 344.6c0-.4.4-.8.8-.8s.7.4.7.8a.8.8 0 0 1-.7.8.8.8 0 0 1-.8-.8z" fill="none" stroke="#000" stroke-width=".2" transform="matrix(4.94855 0 0 4.64896 -953.3 -1426.1)"/><path d="M302 205.7a5.9 5.9 0 0 0-4.3-2.6 5.4 5.4 0 0 0-2 .3v-.2l-1-.5-1 .6-.5.5-.1-.1-1-.5-.9.6c-1-.5-2-.7-2.9-.7l-1.3.1v.2a6 6 0 0 0-2.6-1.5l-.2-1-1.1-.4h-.1a4 4 0 0 0-.1-.7l-.3-1-1-.4c-.3-1-.8-1.9-1.5-2.5l-.9-1-1.2.6a6 6 0 0 0-2.3 1.8l-1.1-.2-.7.9-.4.6h-.1l-1.1-.1-.7.9c-1-.1-2 0-3 .4l-.5.2-.6-.5c-.9-.6-2-.9-3-1l-.5-1-1.2-.1h-.1a3.4 3.4 0 0 0-.3-.8l-.5-1h-1.1a6 6 0 0 0-2.1-2.4l-1-.8-1.1.7a6 6 0 0 0-2 2.5H253.3l-.5 1-.3.8h-1.2l-.5 1v.1c-1.2.1-2.2.4-3 1l-.8.5a82 82 0 0 0-.6-.2c-.9-.4-2-.5-3-.4l-.6-1-1.1.2h-.1a4 4 0 0 0-.4-.6l-.7-.9-1.1.2a6 6 0 0 0-2.4-1.8l-1.2-.5-.9.9a6 6 0 0 0-1.4 2.5l-1 .3-.3 1-.1.8h-.1l-1.1.3-.2 1a6 6 0 0 0-2.6 1.6v-.2h-1.4c-1 0-2 .1-2.8.6a55.5 55.5 0 0 0-1-.6l-1 .5c-.2 0-.3-.3-.5-.4l-1-.6-1 .5-.1.2a5.6 5.6 0 0 0-1.9-.3c-1.7.2-3.2 1-4.3 2.6l-1.9 2.7 3.4.2s1.8.1 3 1.4c1 .9 10.3 18.2 10.3 18.2l1.6-.6a75.8 75.8 0 0 1 56 0l1.6.6s9.3-17.3 10.2-18.2c1.3-1.3 3-1.4 3-1.4l3.4-.2-1.9-2.7zm-21.6-1a9.8 9.8 0 0 0 0 .4s1.3 0 1.8 0l-1.7.7.2.4-1-.3-.5-.1-.7-.2 2-1zm-3-2.6.7-1.6v1.7h.4l-1.2 1.9-.3-2.2.3.2zm-3.3 1.7v-.4l1.5 1.6-.7-.1h-.6l-1-.2.4-.2-1.3-1.2 1.7.5zm-13-2v.7l2.1-.4h.1l-1.8 1.2.3.4h-1.2l-.6-.1h-1.1c1-.9 1.8-1.4 2.2-1.7zm-4-1.9.5-2 .5 2 .5-.1-1 2.6-1-2.6.6.1zm-5 2.2 2 .4v-.6l2.3 1.6h-1l-.7.1-1.2.1.3-.4-1.8-1.1zm-11.1 1.3v.4l1.8-.5-1.3 1.2.3.2-1 .1-.5.1h-.5l-.3.1 1.5-1.6zm-4-1.2.1-1.7.7 1.6.4-.2-.3 2.2-1.2-2 .4.1zm-2.2 2.9v-.5l1.9 1-.7.2-.6.1-.9.3.2-.4-1.7-.6 1.8-.1zm-11.1 4.5-1 .4-.1-.1.5-1.4.2.3 1.2-1-.6 1.4h.3l-.5.4zm68.8.5-1-.5-.5-.3h.3l-.7-1.5a63.6 63.6 0 0 0 1.2 1s.2-.2.3-.3l.5 1.4-.1.2z"/><path d="M256.1 181.6a5.2 5.2 0 0 1-3.6-6.5 5.4 5.4 0 0 1 6.7-3.5c2.8.8 4.5 3.7 3.6 6.5a5.4 5.4 0 0 1-6.7 3.5z" fill="#4c86c7"/><path d="M244.4 345.8c-.6-.1-.9-.8-.7-1.4.1-.6.7-.9 1.3-.7.6.2 1 .8.8 1.4a1 1 0 0 1-1.4.7z" fill="none" stroke="#000" stroke-width=".2" transform="matrix(4.94855 0 0 4.64896 -953.3 -1426.1)"/><path d="M257.6 214c-11 0-21.6 2.1-31.8 6l3.1 5.8a77.5 77.5 0 0 1 57.5 0l3.1-5.7c-10.2-4-21-6-32-6z" fill="#fc0"/><path d="M300.4 206.7c-1.6-2.2-4-2-4.8-1.2a2.8 2.8 0 0 0-.9-.7c-.7.4-1 1.2-1.2 2.1-.3-.7-.6-1.3-1.3-1.6-.3.2-.6.5-.7.8-1-.8-2-1.2-3-1.1-.4.9-.3 2 .2 3l-1 .6c.3 1.2 1.7 2 3 2.6-.8.9-2 2.5-2.5 3.4-1.1-.4-2-1.4-2-2.6l.3-1v-.5c0-.5-.3-1-.8-1.2-.7-.3-1.6 0-1.9.7-.5 1.2-1.6 2-3 2a3.2 3.2 0 0 1-3.2-3.2l.3-1.5.8.2c1.6.4 3.5 1.1 4.8.3a3.3 3.3 0 0 0-.3-1c1.1-.5 2-1.3 2.4-2.2a4.5 4.5 0 0 0-3-1.2 2.5 2.5 0 0 0 0-1.1 3 3 0 0 0-2.2.3c.5-.8.9-1.6.7-2.4a2.7 2.7 0 0 0-1.2 0c0-1.3-.4-2.4-1.1-3-1 .3-1.8 1.1-2.3 2.2a3 3 0 0 0-1-.3c-.6.6-.6 1.5-.5 2.4a3 3 0 0 0-1.8-1 2.7 2.7 0 0 0-.5 1 4.6 4.6 0 0 0-3.3 0c0 1 .6 2 1.4 2.8l-.7.8c.8 1.3 2.9 1.4 4.5 1.6h.5l-.2 1.3a1.7 1.7 0 0 0-.2.4c-.5 1.2-1.7 2-3 2a3.2 3.2 0 0 1-3.3-3.1c0-.8-.7-1.4-1.4-1.4h-.2c-.6 0-1.2.4-1.4 1a3.2 3.2 0 0 1-3.1 2.3 3.2 3.2 0 0 1-3.3-3.1v-.8h.8c1.8.2 4 .6 5-.6a2.9 2.9 0 0 0-.5-1c1-.7 1.8-1.7 2-2.7a5 5 0 0 0-3.3-.7 2.7 2.7 0 0 0-.3-1.1c-.8 0-1.5.3-2.1.8.3-1 .5-1.9.1-2.7a3.2 3.2 0 0 0-1.2.2c-.3-1.2-1-2.3-1.9-2.9-.9.6-1.5 1.7-1.8 3a3.3 3.3 0 0 0-1.2-.3c-.4.8-.2 1.7.1 2.7-.6-.5-1.3-.9-2.1-.8-.2.3-.3.7-.3 1.1a5 5 0 0 0-3.4.7c.3 1 1 2 2.1 2.7a2.6 2.6 0 0 0-.6 1c1.2 1.2 3.3.8 5 .7h.8v.7c0 1.7-1.5 3.1-3.3 3.1-1.5 0-2.8-.9-3.1-2.3-.2-.6-.8-1-1.4-1h-.2c-.8 0-1.4.6-1.4 1.4 0 1.7-1.4 3.1-3.2 3.1-1.4 0-2.6-.8-3-2a1.4 1.4 0 0 0-.3-.4l-.2-1.2.4-.1c1.7-.2 3.8-.3 4.6-1.6a3 3 0 0 0-.8-.8c1-.8 1.4-1.9 1.5-2.9-1-.4-2.2-.4-3.3 0a2.8 2.8 0 0 0-.5-1c-.7 0-1.3.5-1.8 1.1.1-.9 0-1.8-.4-2.4a3.1 3.1 0 0 0-1.1.3c-.5-1-1.3-1.9-2.3-2.3-.7.7-1.1 1.8-1.2 3a2.7 2.7 0 0 0-1 0c-.3.9 0 1.7.5 2.5a3 3 0 0 0-2.1-.3v1c-1.2.1-2.4.6-3 1.3.4 1 1.3 1.7 2.4 2.2-.2.3-.3.6-.3 1 1.2.8 3.2.1 4.8-.3l.8-.2.3 1.5a3.2 3.2 0 0 1-6.3 1.2c-.3-.7-1-1-1.8-.7a1.4 1.4 0 0 0-.8 1.7l.2 1c0 1.2-.8 2.2-2 2.6l-2.3-3.4c1.2-.7 2.6-1.4 2.8-2.6a2.5 2.5 0 0 0-1-.5c.6-1 .7-2.2.3-3.1-1 0-2 .3-3 1a3.1 3.1 0 0 0-.7-.7c-.7.3-1 1-1.3 1.6-.2-.9-.6-1.7-1.2-2-.4.1-.6.3-.9.6-.8-.8-3.2-1-4.8 1.2 0 0 2.5.1 4.3 2a23 23 0 0 1 2.5 3.2l3.2 4.7c.2.6.7.9 1.3.9 2.4 0 4.5-1.5 5.3-3.6.8.5 1.9.8 3 .8a6 6 0 0 0 5.2-3 6 6 0 0 0 4 1.5 6.1 6.1 0 0 0 5.1-2.8 6.1 6.1 0 0 0 4.2 1.6c1.9 0 3.6-.9 4.7-2.2a6.2 6.2 0 0 0 4.7 2.2 6.1 6.1 0 0 0 4.1-1.6 6 6 0 0 0 5.2 2.8 6 6 0 0 0 4-1.5 6.1 6.1 0 0 0 5.2 3c1.1 0 2.1-.3 3-.8.8 2 2.9 3.6 5.3 3.6.6 0 1-.3 1.3-.9l3.1-4.7a1.1 1.1 0 0 0 .2-.3 21.3 21.3 0 0 1 2.4-3c1.8-1.8 4.3-1.9 4.3-1.9z" fill="#ecd21c"/><path d="M269 217.7c0-1-.8-1.8-1.9-1.8-1 0-1.9.8-1.9 1.8s.9 1.8 2 1.8c1 0 1.8-.8 1.8-1.8z" fill="#be0027"/><path d="M247 353.6a.4.4 0 0 0-.4-.4.4.4 0 0 0 0 .8c.2 0 .4-.2.4-.4z" fill="none" stroke="#000" stroke-width=".2" transform="matrix(4.94855 0 0 4.64896 -953.3 -1426.1)"/><path d="M284.3 220.8c0-1-.9-1.8-2-1.8-1 0-1.8.8-1.8 1.8s.8 1.8 1.9 1.8c1 0 1.9-.8 1.9-1.8z" fill="#be0027"/><path d="M250 354.3a.4.4 0 1 0-.7 0 .4.4 0 1 0 .8 0z" fill="none" stroke="#000" stroke-width=".2" transform="matrix(4.94855 0 0 4.64896 -953.3 -1426.1)"/><path d="M250.2 217.7c0-1-.8-1.8-1.9-1.8-1 0-1.8.8-1.8 1.8s.8 1.8 1.8 1.8 2-.8 2-1.8z" fill="#be0027"/><path d="M243.2 353.6c0-.2-.2-.4-.4-.4a.4.4 0 0 0 0 .8c.2 0 .4-.2.4-.4zm-3 .7a.4.4 0 1 0-.8 0c0 .2.1.3.4.3a.4.4 0 0 0 .3-.3z" fill="none" stroke="#000" stroke-width=".2" transform="matrix(4.94855 0 0 4.64896 -953.3 -1426.1)"/><path d="m257.7 215.5-5.4 1.8 5.4 1.7 5.5-1.7z" fill="#be0027"/><path d="m244.7 353.1-1 .4 1 .4 1.1-.4z" fill="none" stroke="#000" stroke-width=".2" transform="matrix(4.94855 0 0 4.64896 -953.3 -1426.1)"/><path d="m289 221.4-1.4 3.3-2.3-2.7z" fill="#be0027"/><path d="m251 354.4-.2.7-.5-.6z" fill="none" stroke="#000" stroke-width=".2" transform="matrix(4.94855 0 0 4.64896 -953.3 -1426.1)"/><path d="m226.3 221.4 1.3 3.3 2.3-2.7z" fill="#be0027"/><path d="m238.4 354.4.2.7.5-.6z" fill="none" stroke="#000" stroke-width=".2" transform="matrix(4.94855 0 0 4.64896 -953.3 -1426.1)"/><path d="M244.4 218.3c.2 1-.4 1.9-1.4 2.1l-3.7.7c-1 .2-2-.4-2.3-1.4-.2-1 .5-1.9 1.5-2l3.7-.8c1-.2 2 .4 2.2 1.4z" fill="#4c86c7"/><path d="M242 353.7a.4.4 0 0 1-.3.5l-.7.1a.4.4 0 0 1-.5-.3.4.4 0 0 1 .3-.4l.8-.2a.4.4 0 0 1 .4.3z" fill="none" stroke="#000" stroke-width=".2" transform="matrix(4.94855 0 0 4.64896 -953.3 -1426.1)"/><path d="M271 218.3c-.2 1 .5 1.9 1.5 2.1l3.7.7c1 .2 2-.4 2.2-1.4.3-1-.4-1.9-1.4-2l-3.7-.8c-1-.2-2 .4-2.3 1.4z" fill="#4c86c7"/><path d="M247.4 353.7c0 .2.1.4.3.5l.8.1a.4.4 0 0 0 .4-.3.4.4 0 0 0-.3-.4l-.7-.2a.4.4 0 0 0-.5.3z" fill="none" stroke="#000" stroke-width=".2" transform="matrix(4.94855 0 0 4.64896 -953.3 -1426.1)"/><path d="M259.5 202.3c0-1-.9-1.8-2-1.8-1 0-1.8.8-1.8 1.8s.8 1.8 1.9 1.8c1 0 1.9-.8 1.9-1.8z" fill="#fff"/><path d="M245 350.3a.4.4 0 1 0-.7 0 .4.4 0 1 0 .8 0z" fill="none" stroke="#000" stroke-width=".2" transform="matrix(4.94855 0 0 4.64896 -953.3 -1426.1)"/><path d="M279 204.3c0-1-.8-1.8-1.9-1.8-1 0-1.9.8-1.9 1.8s.9 1.7 2 1.7c1 0 1.8-.8 1.8-1.7z" fill="#fff"/><path d="M249 350.7a.4.4 0 0 0-.4-.4c-.2 0-.3.2-.3.4s.1.4.3.4a.4.4 0 0 0 .4-.4z" fill="none" stroke="#000" stroke-width=".2" transform="matrix(4.94855 0 0 4.64896 -953.3 -1426.1)"/><path d="M296.2 210.6c0-1-.8-1.7-1.9-1.7-1 0-1.9.8-1.9 1.7 0 1 .9 1.8 2 1.8 1 0 1.8-.8 1.8-1.8z" fill="#fff"/><path d="M252.5 352a.4.4 0 0 0-.4-.3.4.4 0 0 0 0 .8.4.4 0 0 0 .4-.4z" fill="none" stroke="#000" stroke-width=".2" transform="matrix(4.94855 0 0 4.64896 -953.3 -1426.1)"/><path d="M236.2 204.3c0-1 .8-1.8 1.8-1.8s2 .8 2 1.8-1 1.7-2 1.7-1.8-.8-1.8-1.7z" fill="#fff"/><path d="M240.4 350.7a.4.4 0 1 1 .7 0 .4.4 0 1 1-.7 0z" fill="none" stroke="#000" stroke-width=".2" transform="matrix(4.94855 0 0 4.64896 -953.3 -1426.1)"/><path d="M219 210.6c0-1 .8-1.7 1.9-1.7 1 0 1.9.8 1.9 1.7 0 1-.9 1.8-2 1.8-1 0-1.8-.8-1.8-1.8z" fill="#fff"/><path d="M236.9 352c0-.1.2-.3.4-.3s.4.2.4.4-.2.4-.4.4a.4.4 0 0 1-.4-.4z" fill="none" stroke="#000" stroke-width=".2" transform="matrix(4.94855 0 0 4.64896 -953.3 -1426.1)"/><path d="M259.5 175.5v-6.6h2.4v-3.6h-2.4V163h-3.8v2.3h-2.3v3.6h2.3v6.6h-3.3v2.4h10.4v-2.4Z" fill="#fc0"/><path d="M245 344.5v-1.4h.6v-.8h-.5v-.5h-.8v.5h-.4v.8h.4v1.4h-.6v.5h2v-.5Z" fill="none" stroke="#000" stroke-width=".2" transform="matrix(4.94855 0 0 4.64896 -953.3 -1426.1)"/><path d="M205.6 228.3h103.7v85.5c0 28.2-51.8 28.2-51.8 28.2s-52 0-52-28.2z" fill="#0077c8"/><path d="M234.2 355.9h21v18.4c0 6-10.5 6-10.5 6s-10.5 0-10.5-6z" fill="none" stroke="#000" stroke-linecap="round" stroke-linejoin="round" stroke-width=".7" transform="matrix(4.94855 0 0 4.64896 -953.3 -1426.1)"/><path d="M164 300.2c5.3 2 9.8 5.7 12.8 10.4v.1a6.7 6.7 0 0 1 1 3.5 6.7 6.7 0 0 1-1.9 4.6 8.1 8.1 0 0 0-2.3 5.7 8.1 8.1 0 0 0 6.4 8c4.4 1 7.7 4.8 7.7 9.4H178a6 6 0 0 1-5.4-3.5c-1.7-4-6.1-10.7-10-12.5.2-.7 1.5-2.5 1.5-3.2 0-5.5-3.8-5.3-9-6.5l-1.6-.3s1-3.7 3.5-8c2.4-4.1 6.8-7.7 6.8-7.7z" fill="#c88242"/><path d="M225.8 371.3c1 .5 2 1.3 2.6 2.3h0a1.5 1.5 0 0 1-.2 1.7h0a1.8 1.8 0 0 0-.5 1.3c0 .8.6 1.5 1.3 1.7h0a2 2 0 0 1 1.6 2h-2c-.4 0-.8-.2-1-.8-.4-.8-1.3-2.2-2-2.6l.2-.7c0-1.2-.7-1.2-1.8-1.4h-.3s.2-.9.7-1.8c.5-.9 1.4-1.7 1.4-1.7z" fill="none" stroke="#000" stroke-linecap="round" stroke-linejoin="round" stroke-width=".4" transform="matrix(4.94855 0 0 4.64896 -953.3 -1426.1)"/><path d="m186 244 13.5-19.8h.1a7 7 0 0 1 5.8-3 7 7 0 0 1 7 7h-7l-5.7 10-3.6 15-2 2.8-.2.4" fill="#c88242"/><path d="m230.2 359.2 2.8-4.2h0c.2-.4.7-.7 1.1-.7.8 0 1.5.7 1.5 1.6H234l-1 2.1-.8 3.2-.4.6v.1" fill="none" stroke="#000" stroke-linecap="round" stroke-linejoin="round" stroke-width=".4" transform="matrix(4.94855 0 0 4.64896 -953.3 -1426.1)"/><path d="M133.2 312.6a23.7 23.7 0 0 0-.1 3c0 1.2 0 2.4.2 3.6v.2l.1 1.4c0 4.5-2.8 8.4-6.9 9.9l-.1 2.1c0 4.3 1.4 8.2 3.7 11.4l.1.2a23.4 23.4 0 0 1 3.9 8.9 5.8 5.8 0 0 0 5.6 4.6h11.2a9.6 9.6 0 0 0-9.6-9.6 11.7 11.7 0 0 1-3.4-8.2 11.8 11.8 0 0 1 7.3-11c5.1-2.1 8.7-7.1 8.7-13v-.1a49.8 49.8 0 0 1 26-28.5 25.1 25.1 0 0 0 5.6-42.7l.1-11.4 5.2-4c4-3 6.7-5 7.6-9.4.5-2.7 2-12-1.8-11.5-4 .6-9.7 2.9-9.7 2.9-2.2-1-2.8-2-5.4-2-1.8 0-4.9.8-6.5 1.2a20 20 0 0 0-15 19.4l.2 22.1c0 16-8.1 30-20.4 38.4-5.2 3.5-9 8.8-10.6 15v.2a5.9 5.9 0 0 1-5.6 4.4 9 9 0 0 1-6.3-15.2 3 3 0 0 0 0-4.3 3 3 0 0 0-4.2 0 15 15 0 0 0 20.2 22" fill="#c88242"/><path d="M219.6 374a5.4 5.4 0 0 0 0 .6v.8h0v.4c0 1-.6 1.8-1.4 2v.1a4.3 4.3 0 0 0 .7 2.9h0c.4.6.7 1.3.8 2 .2.7.7 1 1.2 1h2.2c0-1.2-.8-2.1-1.9-2.1h0a2.6 2.6 0 0 1-.7-1.8c0-1 .6-2 1.5-2.3h0a3 3 0 0 0 1.7-2.8h0c1-2.8 2.9-5 5.3-6.2h0c1.8-.8 3-2.8 3-5 0-1.7-.7-3.2-1.9-4.2V357l1.1-.9c.8-.6 1.4-1 1.5-2 .1-.6.5-2.6-.3-2.5-.8.1-2 .6-2 .6-.4-.2-.6-.4-1-.4l-1.4.3c-1.7.4-3 2.1-3 4.1v4.8c0 3.4-1.6 6.5-4.1 8.3h0a5.4 5.4 0 0 0-2.1 3.2h0c-.2.6-.7 1-1.2 1a1.7 1.7 0 0 1-1.2-.6 2 2 0 0 1 0-2.7.7.7 0 0 0 0-1 .6.6 0 0 0-.9 0 3.4 3.4 0 0 0 0 4.6 2.9 2.9 0 0 0 4 .2 5.6 5.6 0 0 1 0 0" fill="none" stroke="#000" stroke-linecap="round" stroke-linejoin="round" stroke-width=".4" transform="matrix(4.94855 0 0 4.64896 -953.3 -1426.1)"/><path d="M166.3 223.3s-1.5 4.2.5 8.4a8.2 8.2 0 0 0 7.3 4.6 8.2 8.2 0 0 0 .9-8.6l-3.4-6.8" fill="#c88242"/><path d="M226.3 354.8s-.4.9 0 1.8c.3.6 1 1 1.5 1a1.9 1.9 0 0 0 .2-1.9 663.2 663.2 0 0 0-.7-1.4" fill="none" stroke="#000" stroke-linecap="round" stroke-linejoin="round" stroke-width=".4" transform="matrix(4.94855 0 0 4.64896 -953.3 -1426.1)"/><path d="M184 217.3c-1 .4-1.9.5-2.6.3.4-.7 1.1-1.3 2-1.6z"/><path d="M229.8 353.5a.9.9 0 0 1-.5 0 1 1 0 0 1 .4-.3z" fill="none" stroke="#000" stroke-width=".4" transform="matrix(4.94855 0 0 4.64896 -953.3 -1426.1)"/><path d="M183.9 260.8c5.8 3.2 12.4 0 15.6-5.2 1.1-1.8.5-4.8 1.2-6.6a5 5 0 0 1 4.7-3.4v14.8l-5 5c-3.8 3.8-7.8 9-12 7.8-4.3-1.2-18.3-4.5-18.3-4.5" fill="#c88242"/><path d="M229.8 362.9c1.2.6 2.5 0 3.2-1.2.2-.3 0-1 .2-1.4h0a1 1 0 0 1 1-.7v3.2l-1 1c-.8.9-1.6 2-2.5 1.7l-3.7-1" fill="none" stroke="#000" stroke-linecap="round" stroke-linejoin="round" stroke-width=".4" transform="matrix(4.94855 0 0 4.64896 -953.3 -1426.1)"/><path d="M192.8 209a6 6 0 0 0 6 5.8V211c0-1.6-.6-2.3-2.2-2h-1.9z"/><path d="M231.6 351.7c0 .7.5 1.3 1.2 1.3v-.8c0-.4-.1-.5-.4-.5h-.4z" fill="none" stroke="#000" stroke-width=".2" transform="matrix(4.94855 0 0 4.64896 -953.3 -1426.1)"/><path d="M198.5 219s-4 4-8.9 5.2"/><path d="M232.8 353.9s-.8.8-1.8 1" fill="none" stroke="#000" stroke-linecap="round" stroke-linejoin="round" stroke-width=".4" transform="matrix(4.94855 0 0 4.64896 -953.3 -1426.1)"/><path d="m273.4 331-12.2-12.6a5.2 5.2 0 0 0-7.7 0l-12 12.6z" fill="#fff"/><path d="m247.9 378-2.5-2.7a1 1 0 0 0-1.5 0l-2.5 2.7z" fill="none" stroke="#000" stroke-width=".4" transform="matrix(4.94855 0 0 4.64896 -953.3 -1426.1)"/><path d="M250.4 254.8 238.3 242a5.2 5.2 0 0 0-7.7 0l-12.1 12.7h32z" fill="#fff"/><path d="m243.3 361.6-2.5-2.8a1 1 0 0 0-1.6 0l-2.4 2.8h6.5z" fill="none" stroke="#000" stroke-width=".4" transform="matrix(4.94855 0 0 4.64896 -953.3 -1426.1)"/><path d="M296.5 254.8 284.3 242a5.2 5.2 0 0 0-7.6 0l-12.2 12.7h32z" fill="#fff"/><path d="m252.6 361.6-2.5-2.8a1 1 0 0 0-1.5 0l-2.5 2.8h6.5z" fill="none" stroke="#000" stroke-width=".4" transform="matrix(4.94855 0 0 4.64896 -953.3 -1426.1)"/><path d="m250.4 280-12.1-12.6a5.3 5.3 0 0 0-7.7 0L218.5 280h32z" fill="#fff"/><path d="m243.3 367-2.5-2.7a1 1 0 0 0-1.6 0l-2.4 2.7h6.5z" fill="none" stroke="#000" stroke-width=".4" transform="matrix(4.94855 0 0 4.64896 -953.3 -1426.1)"/><path d="m296.5 280-12.2-12.6a5.3 5.3 0 0 0-7.6 0L264.5 280h32z" fill="#fff"/><path d="m252.6 367-2.5-2.7a1 1 0 0 0-1.5 0L246 367h6.5z" fill="none" stroke="#000" stroke-width=".4" transform="matrix(4.94855 0 0 4.64896 -953.3 -1426.1)"/><path d="M250.4 305.6 238.3 293a5.2 5.2 0 0 0-7.7 0l-12.1 12.6z" fill="#fff"/><path d="m243.3 372.5-2.5-2.7a1 1 0 0 0-1.6 0l-2.4 2.7z" fill="none" stroke="#000" stroke-width=".4" transform="matrix(4.94855 0 0 4.64896 -953.3 -1426.1)"/><path d="M296.5 305.6 284.3 293a5.2 5.2 0 0 0-7.6 0l-12.2 12.6z" fill="#fff"/><path d="m252.6 372.5-2.5-2.7a1 1 0 0 0-1.5 0l-2.5 2.7z" fill="none" stroke="#000" stroke-width=".4" transform="matrix(4.94855 0 0 4.64896 -953.3 -1426.1)"/><path d="M310.1 149.2c4 7.7 18.7 10 23.6 9.8a19 19 0 0 0 6.8-1.3l-.8 2a17 17 0 0 1-11 9c1.7 4.7 5.3 6.3 9 7.8-4.2 1.2-32 3.4-49.8-14.1" fill="#768692"/><path d="M255.3 338.9c.8 1.6 3.8 2 4.8 2a3.6 3.6 0 0 0 1.4-.2 3.2 3.2 0 0 1-.2.4 3.5 3.5 0 0 1-2.2 2c.3 1 1 1.3 1.8 1.6-.9.3-6.5.8-10-3" fill="none" stroke="#000" stroke-linecap="round" stroke-linejoin="round" stroke-width=".4" transform="matrix(4.94855 0 0 4.64896 -953.3 -1426.1)"/><path d="M204.3 149.2c-4 7.7-18.6 10-23.5 9.8a19 19 0 0 1-6.9-1.3c.3.7.5 1.4.9 2 2 4.4 6 7.7 10.9 9-1.6 4.7-5.2 6.3-9 7.8 4.3 1.2 32 3.4 50-14.1" fill="#768692"/><path d="M234 338.9c-.9 1.6-3.8 2-4.8 2a3.6 3.6 0 0 1-1.4-.2 3.5 3.5 0 0 0 2.4 2.4c-.3 1-1 1.3-1.8 1.6.8.3 6.4.8 10-3" fill="none" stroke="#000" stroke-linecap="round" stroke-linejoin="round" stroke-width=".4" transform="matrix(4.94855 0 0 4.64896 -953.3 -1426.1)"/><path d="m290.7 158-2.9 4.6 6.8 1.6c3.5.8 5.2.1 7.6-2.4 2.8-3 6-7.6 6-7.6a10.3 10.3 0 0 0 1.9-6c0-5.2-4-9.6-9.2-10.6h-.1a256 256 0 0 0-43.2-3.7h-.7a256 256 0 0 0-43.2 3.7 11 11 0 0 0-9.3 10.6c0 2.2.7 4.2 2 6s3 4.5 6 7.6c2.3 2.5 4 3.2 7.5 2.4l6.8-1.6-2.9-4.6-.4-.8-5.5.7a233 233 0 0 1 39-3.2h.7a233.3 233.3 0 0 1 39 3.2l-5.4-.7-.5.8z" fill="#768692"/><path d="m251.4 340.7-.6 1 1.4.4c.7.2 1 0 1.5-.5l1.2-1.7h0c.3-.3.4-.8.4-1.3a2.3 2.3 0 0 0-1.9-2.2h0a48.7 48.7 0 0 0-8.7-.8h-.1c-3 0-6 .2-8.8.8h0a2.3 2.3 0 0 0-1.8 2.2c0 .5.1 1 .3 1.3h0l1.3 1.7c.4.5.8.6 1.5.5l1.4-.4-.6-1-.1-.1-1.1.1a44.3 44.3 0 0 1 7.9-.7h.1c2.7 0 5.3.3 7.9.7l-1.1-.1-.1.1z" fill="none" stroke="#000" stroke-linecap="round" stroke-linejoin="round" stroke-width=".4" transform="matrix(4.94855 0 0 4.64896 -953.3 -1426.1)"/><path d="M223.6 152.8c-2.2.4-4.6-.4-5.4-3.7-.7-3 1.2-5 3.3-5.4 2.2-.5 4.6.3 5.4 3.6.7 2.9-1.2 5-3.3 5.5zm-2-8c-1 .2-1.7 1-1 3.8.6 2.8 1.8 3.2 2.8 3 1-.2 1.8-1 1.1-3.9-.6-2.8-1.8-3.1-2.8-2.9zm18.7 5c-.4.2-1.3.6-2.3.7-3 .4-5.4-1.3-5.8-4-.4-2.8 1.6-4.8 4.7-5.2a8 8 0 0 1 1.8 0l.2.2.4 2c0 .2 0 .2-.2.3h-.6a.2.2 0 0 1-.2-.1l-.3-.7c-.1-.4-.5-.6-1.3-.5-2 .3-2.4 1.9-2.2 3.5.3 1.8 1.5 3.4 3.8 3.1a4.1 4.1 0 0 0 1.4-.4c.2-.1.3 0 .4 0l.2.8v.3zm13-.9-.1.3-7.2.4-.2-.2v-.4l.1-.3.7-.1c.2 0 .3-.2.3-.5l-.4-6c0-.3-.2-.4-.3-.5h-.7l-.2-.2v-.4c0-.2 0-.2.2-.2l7-.4.1.2.1 1.7c0 .1 0 .2-.2.2h-.5l-.2-.1-.1-.5c-.1-.2-.3-.3-.6-.3H249l-.1.3v2.1l.3.2 3-.2c.2 0 .3 0 .3.2v.7c0 .1 0 .2-.2.2l-3 .2-.2.1.1 2.4c0 .4.3.5.5.5l2.2-.2c.3 0 .5-.1.5-.3l.1-.5c0-.2.1-.2.2-.2h.5l.2.1v1.7zm15.7.4-4-.1c-.2 0-.3-.1-.3-.2v-.4l.2-.2.7-.1c.2 0 .3-.2.2-.5l-.3-1-.2-.1h-3.5l-.4 1c-.1.3 0 .4.1.5l.7.1c.2 0 .2.1.2.2v.4c0 .2 0 .2-.2.2h-3.3c-.2 0-.3-.1-.3-.3v-.4l.3-.2h.4l.4-.5 3.5-7.5v-.1h2l.2.1 2.8 7.7c.1.3.2.4.4.4l.4.2c.1 0 .2 0 .2.2v.4l-.2.2zm-4.8-6.4-.3-1.3-.5 1.2-1 2.6.1.1h2.5l-.8-2.6zm20.4-.3h-.7c-.1 0-.3.2-.3.5l-.9 7.3-.1.1h-1.2l-.3-.2-3.1-5.1-.6-1.1-.6 4.4c0 .3.1.4.2.5l.9.2.1.2v.4c0 .1-.1.2-.3.2l-3.7-.4s-.2 0-.1-.2v-.4c0-.1 0-.2.2-.2h.7c.2 0 .3-.2.3-.5l.8-6c0-.3 0-.4-.2-.5l-.7-.2-.2-.2v-.4l.3-.2 3 .3c.2 0 .2.2.3.3l2.4 4 .6 1.2.5-3.7c0-.3 0-.4-.2-.5l-.8-.2-.2-.2v-.4l.3-.2 3.7.4c.1 0 .2 0 .2.2v.4c0 .1-.1.2-.3.2zm8.5 9.7c-2.3-.4-4.1-2-3.4-5.3a4.7 4.7 0 0 1 5.3-3.8c2.3.4 4.2 2 3.4 5.3a4.8 4.8 0 0 1-5.3 3.8zm1.6-8c-1-.2-2 .3-2.7 3.1-.6 2.8.4 3.6 1.4 3.8 1 .2 2-.4 2.7-3.2.6-2.8-.4-3.5-1.4-3.7z"/><path d="M351.2 300.2a25.8 25.8 0 0 0-13 10.4v.1a6.6 6.6 0 0 0-1 3.5c0 1.8.8 3.4 2 4.6v.1a8.1 8.1 0 0 1 2.3 5.6 8.1 8.1 0 0 1-6.4 8 9.6 9.6 0 0 0-7.7 9.4h9.6c2 0 4.2-1.1 5.3-3.5 1.8-3.9 6.2-10.7 10-12.5 0-.6-1.4-2.5-1.4-3.2 0-5.5 3.8-5.3 8.9-6.5l1.7-.3s-1-3.7-3.5-8c-2.5-4-6.8-7.7-6.8-7.7z" fill="#c09b5a"/><path d="M263.6 371.3c-1 .5-2 1.3-2.6 2.3h0l-.2.7c0 .4.1.8.4 1h0c.3.4.5.8.5 1.3 0 .8-.6 1.5-1.3 1.7h0a2 2 0 0 0-1.6 2h2c.4 0 .8-.2 1-.7.4-.9 1.3-2.3 2-2.7l-.2-.7c0-1.2.7-1.2 1.8-1.4h.3s-.2-.9-.7-1.8c-.5-.9-1.4-1.7-1.4-1.7z" fill="none" stroke="#000" stroke-linecap="round" stroke-linejoin="round" stroke-width=".4" transform="matrix(4.94855 0 0 4.64896 -953.3 -1426.1)"/><path d="m329 244-13.5-19.8a7 7 0 0 0-5.8-3 7.1 7.1 0 0 0-7.1 7h7.1l5.6 10 3.7 15 2 2.8.2.4" fill="#c09b5a"/><path d="m259.1 359.2-2.7-4.2h0a1.4 1.4 0 0 0-1.2-.7c-.8 0-1.4.7-1.4 1.6h1.4l1.2 2.1.7 3.2.4.6v.1" fill="#c88242" stroke="#000" stroke-linecap="round" stroke-linejoin="round" stroke-width=".4" transform="matrix(4.94855 0 0 4.64896 -953.3 -1426.1)"/><path d="M381.8 312.6a25.2 25.2 0 0 1-.1 6.6v.2l-.1 1.4c0 4.5 2.9 8.4 6.9 9.9a20.3 20.3 0 0 1 .1 2.1c0 4.3-1.3 8.2-3.7 11.4v.2a23.1 23.1 0 0 0-4 8.9 5.8 5.8 0 0 1-5.6 4.6h-11.1c0-5.3 4.2-9.6 9.5-9.6h.1a11.8 11.8 0 0 0 3.4-8.2c0-5-3-9.2-7.3-11a14.1 14.1 0 0 1-8.8-13v-.1a49.9 49.9 0 0 0-25.9-28.5 25.1 25.1 0 0 1-5.7-42.6v-11.5l-5.3-4c-4-3-6.7-5-7.6-9.4-.5-2.7-2-12 1.9-11.5 3.9.6 9.6 2.9 9.6 2.9 2.3-1 2.9-2 5.5-2 1.7 0 4.8.8 6.4 1.2a20 20 0 0 1 15 19.4L355 252c0 16 8 30 20.3 38.4 5.2 3.5 9 8.8 10.6 15v.2a5.9 5.9 0 0 0 5.6 4.4 9 9 0 0 0 6.3-2.6 9 9 0 0 0 0-12.6 3 3 0 0 1 0-4.3 3 3 0 0 1 4.2 0 15 15 0 0 1-20.1 22" fill="#c88242"/><path d="M269.8 374a5.8 5.8 0 0 1 0 1.4h0v.4c0 1 .5 1.8 1.4 2v.5a4.3 4.3 0 0 1-.8 2.5h0a5.1 5.1 0 0 0-.8 2c-.1.7-.7 1-1.1 1h-2.3c0-1.2.9-2.1 2-2.1h0a2.6 2.6 0 0 0 .7-1.8c0-1-.6-2-1.5-2.3h0a3 3 0 0 1-1.8-2.8h0c-.9-2.8-2.8-5-5.2-6.2h0c-1.8-.8-3-2.8-3-5 0-1.7.7-3.2 1.8-4.2V357l-1-.9c-.8-.6-1.4-1-1.6-2 0-.6-.4-2.6.4-2.5.8.1 2 .6 2 .6.4-.2.5-.4 1-.4l1.4.3c1.7.4 3 2.1 3 4.1v4.8c0 3.4 1.6 6.5 4 8.3h0a5.4 5.4 0 0 1 2.2 3.2h0c.2.6.7 1 1.1 1a1.8 1.8 0 0 0 1.3-.6c.7-.7.7-2 0-2.7a.7.7 0 0 1 0-1 .6.6 0 0 1 .9 0 3.4 3.4 0 0 1 0 4.6 2.9 2.9 0 0 1-4.1.2 5.6 5.6 0 0 0 0 0" fill="none" stroke="#000" stroke-linecap="round" stroke-linejoin="round" stroke-width=".4" transform="matrix(4.94855 0 0 4.64896 -953.3 -1426.1)"/><path d="M348.8 223.3s1.5 4.2-.5 8.4a8.2 8.2 0 0 1-7.3 4.6 8.2 8.2 0 0 1-1-8.6l3.5-6.8" fill="#c88242"/><path d="M263.1 354.8s.3.9 0 1.8c-.4.6-1 1-1.6 1a1.9 1.9 0 0 1-.1-1.9l.7-1.4" fill="none" stroke="#000" stroke-linecap="round" stroke-linejoin="round" stroke-width=".4" transform="matrix(4.94855 0 0 4.64896 -953.3 -1426.1)"/><path d="M331.1 217.3c1 .4 1.8.4 2.6.3a4.4 4.4 0 0 0-2-1.6l-.6 1.3z" fill="#c0a151"/><path d="M259.6 353.5h.5a.9.9 0 0 0-.4-.3l-.1.3z" fill="none" stroke="#000" stroke-width=".4" transform="matrix(4.94855 0 0 4.64896 -953.3 -1426.1)"/><path d="M331.2 260.8c-5.9 3.2-12.4 0-15.7-5.2-1-1.8-.5-4.8-1.1-6.6a5 5 0 0 0-4.8-3.4v14.8l5 5.1c3.8 3.7 7.8 9 12 7.7 4.3-1.2 18.3-4.5 18.3-4.5" fill="#c88242"/><path d="M259.6 362.9c-1.2.6-2.5 0-3.2-1.1-.2-.4-.1-1-.2-1.5h0a1 1 0 0 0-1-.7v3.2l1 1c.8.9 1.6 2 2.5 1.7l3.6-1" fill="none" stroke="#000" stroke-linecap="round" stroke-linejoin="round" stroke-width=".4" transform="matrix(4.94855 0 0 4.64896 -953.3 -1426.1)"/><path d="M322.2 208.9a6 6 0 0 1-5.9 5.9V211c0-1.6.5-2.4 2.1-2.1h2z"/><g fill="none" stroke="#000"><path d="M257.8 351.7c0 .7-.6 1.3-1.2 1.3v-.8c0-.4 0-.5.4-.5h.4z" stroke-width=".2" transform="matrix(4.94855 0 0 4.64896 -953.3 -1426.1)"/><path d="M256.6 353.9s.8.8 1.8 1" stroke-linecap="round" stroke-linejoin="round" stroke-width=".4" transform="matrix(4.94855 0 0 4.64896 -953.3 -1426.1)"/></g><path d="M232.9 222.1a1.4 1.4 0 0 1-.8-.4 1.2 1.2 0 0 1-.4-.8c0-.5.4-1.1 1-1.3h.7c.6.2 1 .7 1 1.2 0 .8-.7 1.4-1.5 1.3zM248 219a1.4 1.4 0 0 1-.7-.5 1.2 1.2 0 0 1-.1-1.5c.6-.9 2-.7 2.4.3v.8c-.2.7-1 1-1.6.9zm34.1 3.1a1.4 1.4 0 0 1-1-.9 1.5 1.5 0 0 1 0-.7c0-.4.4-.8.9-.9h.7c.3 0 .7.4.8.7l.2.5c0 .2 0 .5-.2.7-.2.4-.8.7-1.4.6zm-15.2-3a1.6 1.6 0 0 1-.6-.3c-.8-.6-.7-1.8.2-2.2.4-.2 1-.2 1.4 0 .9.7.7 2-.3 2.3l-.7.1z" fill="#fff"/><path d="M329.5 338.8c1.3-2.9 1.9-3.4 5.8-5 4-1.8 6-3.6 7-6.5.9-2.7.3-5.5-1.7-8.6-2.3-3.5-2.5-4.5-1.2-7a26 26 0 0 1 9.1-9l2.3-1.2 2 2.2c2.2 2.5 6.3 10 6 11-.2.4-1.4.9-2.6 1-4.8 1-6.9 3.4-6.2 7.5.3 2 .1 2.5-1.2 3.7a45.7 45.7 0 0 0-7.2 10c-.9 1.5-2 3-2.7 3.3-.6.3-3.1.6-5.7.6h-4.6z" fill="#c88242"/><g fill="#fc0"><path d="M224 215.4c-.9-1.5-1.1-2.4-.8-3.8.3-1.5.1-2-1-2.6-.8-.5-1.7-.8-2-.8-.7.2-4.7-1.3-4.7-1.8 0-.8 2-1.3 3.8-1 1.2 0 1.9.5 1.9 1 0 .6.2.6.7.3.4-.3 1.5-.7 2.4-1a54.2 54.2 0 0 0 2-.4c.2 0 .4.9.4 2 0 1.6-.2 2.4-1 3-1.2.9-1.2 1-.2 2.6.6 1 1.4 1.7 1.8 1.7 1 0 2-2.3 1.6-3.7-.3-1.6 1.1-1.8 2.6-.3 1.8 1.7 4.2 1.7 5.4 0 1.6-2.2 1-3.3-1.8-3-1.8 0-2.7-.2-3.8-1-1.5-1.3-1.5-2.7 0-2.7.4 0 1-.4 1.1-.9.2-.4.7-.7 1.2-.5.4.1.7 0 .7-.5 0-1 1.8-4 2.4-4 1 0 3.3 2.2 3.3 3.1 0 .6.2.6.9.1.4-.4.9-.4 1-.1.3.2 1 .4 2 .3 1.3-.1 1.4 0 1 1.8-.4 2.2-1.6 3.3-3.6 3.3-1.8 0-1.5 2 .6 3.4l1.6 1.1 1.5-1c.9-.7 1.8-1.7 2-2.4.4-1.6 1.5-1.5 3 .3 1.8 2.3 6 1.3 6-1.4 0-.7-.3-1-1.2-1-2.2 0-3.9-.7-3.9-1.4 0-.3-.4-1-.8-1.3-1.4-1-1-2.2.5-2.2.8 0 1.6-.2 1.8-.6.2-.3.8-.4 1.5-.3.8.2 1 0 1-.6-.2-.5.5-1.6 1.3-2.4l1.6-1.6 1.4 1.5c.8.7 1.4 1.8 1.4 2.4 0 .7.3 1 1.2.7.6-.1 1.1 0 1.1.3 0 .4.7.6 1.4.6 1.7 0 2 1.1.6 2.4-.5.4-.8 1.1-.7 1.5.1.7-.2.8-3.3.9-1.5 0-2 .3-2 1 0 2.7 4.5 3.8 6 1.5 1.5-2 2.5-2 3.4 0 1.2 2.6 3 3.3 4.8 2 2-1.4 2.4-3.4.7-3.4-1.8 0-3.5-1-3.1-1.8.1-.4 0-.9-.3-1-.4-.3-.6-.9-.6-1.4 0-.7.3-1 1.4-.8.8 0 1.6-.1 1.7-.4.2-.2.7-.3 1.2-.1.5.2.8 0 .8-.6 0-.5.4-.8.9-.8s1-.4 1.2-.8c.5-1.2 2.5-1 2.5.2 0 .5.3 1.1.8 1.3.5.2.7.7.5 1.5-.2.7-.1 1 .2.8.4-.2 1 0 1.3.5.4.4 1 .8 1.5.8 1.4 0 1.5 1.1.2 2.4-1 1-1.9 1.3-3.7 1.3-2.8 0-3.6 1-2.2 3 1.1 1.7 3.3 1.7 5.5 0 2-1.6 2.7-1.2 2.7 1.4 0 1.8 1.6 3.1 2.4 2 1.7-2.4 1.8-2.8.6-3.7-.8-.6-1-1.3-.8-3 .2-2.2.3-2.3 1.4-1.8.6.3 1.4.5 1.9.3.4-.1.9.1 1.1.6.3.8.4.8 1-.1 1-1.5 5.6-1.4 5.6.1 0 .6-3.5 2-4.6 1.9-.4 0-1.3.2-1.9.5-.9.4-1 1-.8 2.4.3 1.4 0 2.4-1 4-1.8 2.6-3.6 2.7-5.9.5-1.4-1.4-1.9-1.5-3.9-1.3-1.9.3-2.6 0-4-1.1-1.5-1.2-2-1.3-3-.9-2 1-5 .7-6.6-.8-1.4-1.2-1.6-1.3-2.8-.5-1.6 1-3.7 1-5.9-.2-1.5-1-1.9-1-2.6-.3-1.3 1.3-4.8 1.6-6.3.6-1.3-.8-1.5-.7-3 .5a5.9 5.9 0 0 1-6.2.7c-1.2-.5-1.6-.4-2.6.5a6.1 6.1 0 0 1-5.5 1.5c-1.1-.3-1.7 0-2.7 1-.7.7-2 1.5-3 1.7-1.7.2-2 0-3.1-1.7zm16.2-10.3c.6-1.2.5-1.5-.7-2.4-1.2-.9-1.5-1-2.5-.3-2.4 1.5-1.6 4.1 1.1 4.1 1 0 1.6-.4 2-1.4zm38.6.8c1-.9.9-2.3-.2-3.4-1.2-1-1.7-1-3.1.3-1.6 1.5-.6 3.7 1.7 3.7.5 0 1.2-.3 1.6-.6zm-19.6-1.8c1-1 1.1-2.5.2-3.4-2.3-2-5.7 1-3.6 3.1 1.2 1.3 2.2 1.4 3.4.3z"/><path d="M223.8 215c-1-1.7-1.3-2.5-.8-3.2.6-1.1-.2-3-1.4-3.2a14 14 0 0 1-4-1c-1.2-.4-2.1-1-2.1-1.2 0-1.3 4.8-1.7 5.7-.5.3.5 1 .5 2.8 0 1.3-.5 2.4-.7 2.6-.5l.2 2.4c0 1.4-.3 2.1-1 2.5-1.5.7-1.5 1.1 0 2.9 1.5 1.8 2.8 1 2.8-1.6 0-2.4 1-2.8 2.8-1.1 2 1.8 4.3 1.8 5.6 0 1.3-1.9.7-2.9-2-2.9-1.6 0-2.8-.4-3.8-1.2-1.8-1.4-1.8-2 0-2.6.8-.2 1.4-.7 1.4-1 0-.3.4-.6.9-.6s.8-.4.8-1 .2-1.1.5-1.1.7-.6 1-1.4l.5-1.3 1.9 1.2c1 .7 1.8 1.5 1.8 1.8 0 .3 1.1.6 2.4.7 1.3 0 2.5.2 2.7.3.1.1 0 1.2-.3 2.3-.4 1.6-.9 2.1-2.3 2.6-2.4.7-2.7 1-2 2.3 1.7 2.9 4.7 2.5 6.2-.8.4-1 1-1.8 1-1.8.2 0 1.1.7 2 1.6 2 1.8 4 2 5.4.6 1.7-1.7 1.2-2.7-1.3-2.7-2 0-2.4-.3-2.9-1.3a4 4 0 0 0-1.1-1.7c-1.1-.6-.6-1.9.8-1.9.8 0 1.5-.2 1.7-.5.2-.3.9-.5 1.5-.5.7 0 1-.3.8-.6-.2-.3.4-1.3 1.4-2.2l1.7-1.7 1.5 1.4c.8.8 1.4 1.8 1.4 2.3 0 .4.5.8 1.2.8.6 0 1.1.2 1.1.5s.7.5 1.4.5c1.7 0 1.8.3.6 3-.8 1.7-1 1.9-3.4 1.9-2.1 0-2.6.1-2.6 1 0 1.3 1.8 2.7 3.4 2.7.7 0 2-.8 3-1.7 1.7-1.9 1.9-1.9 3.2.7 1.2 2.2 3.6 2.7 5.3 1.2 1.5-1.2 1.4-2.9 0-2.9-1.8 0-3.6-1-3.2-1.9.1-.4 0-.9-.3-1-.3-.2-.5-.8-.5-1.4 0-.8.4-1 1.8-1.1h2.6c.4 0 .7-.3.7-.7 0-.5.4-.8.9-.8s1-.4 1.2-.9c.4-1 2.5-1 2.5 0 0 .4.3 1 .8 1.3.4.4.6 1.1.5 1.7-.2.8-.1 1 .6.8.5-.2 1-.1 1 .2 0 .4.6.9 1.4 1.1 1.7.7 1.7 1 0 2.8-1 1.2-1.6 1.4-3.6 1.2-2.6-.3-3.3.5-2.2 2.5 1 2 3.5 2 5.5.2 2-1.7 2.8-1.3 2.8 1.1 0 2.1 1.5 3.6 2.4 2.4 1.7-2.5 1.8-2.8.6-3.7-1-.7-1.2-1.2-.9-2.8.4-2 .5-2 2.2-1.9 1 .1 2 .4 2.5.6.4.2.8 0 1-.3.5-1.2 5.4-.7 5.4.5 0 .5-3.5 2-4.6 1.9-.4 0-1.3.2-1.9.5-.9.4-1 .9-.7 2.5.2 1.6 0 2.4-1.1 4-1.8 2.5-3.8 2.6-6 .5-1.2-1.3-1.8-1.5-3.8-1.3-1.8.1-2.6 0-4-1.2-1.5-1.2-2-1.4-3-.9a7 7 0 0 1-6.4-.6c-1.5-1-2-1-3.2-.5-1.9.8-3.3.8-5.4-.2-1.6-.8-2-.8-3.6 0-2.3 1-3.8 1-5.7.2-1.2-.5-1.6-.4-3 .5a7 7 0 0 1-6.2.7c-.7-.3-1.7 0-3.1.9a5.6 5.6 0 0 1-4 1c-1.6-.1-2.4.1-4 1.3-2.6 2.3-4.2 2-6-.7zm16.3-9.5a2 2 0 0 0 0-2.2c-1.1-1.9-4.6-1-4.6 1 0 2.2 3.5 3 4.6 1.2zm38.7.4c1-1 .8-2.3-.4-3.4-.9-.7-1.4-.8-2.3-.3-2 1-1.2 4.3 1 4.3.6 0 1.3-.3 1.7-.6zM259 204c1.8-1.5 1-4-1.3-4-1 0-2.8 1.4-2.8 2.3 0 .5 2.1 2.6 2.7 2.6a4 4 0 0 0 1.4-.9z"/><path d="M224 215.3a6.5 6.5 0 0 1-1.2-4c.2-2-.2-2.5-2.3-2.8-1.6-.3-5-1.7-5-2 0-1.4 4.8-1.7 5.7-.4.2.2 1.4.1 2.7-.3s2.5-.7 2.7-.5c.2.2.3 1.3.3 2.4 0 1.4-.3 2.2-1.2 2.8l-1.2.8 1.3 1.7c1 1.3 1.4 1.5 2 1 .5-.3.8-1.4.8-2.4 0-2.4.9-2.7 3-1 2 1.6 3.5 1.7 5 .2 2-1.8 1.3-2.9-1.8-3-2-.2-3-.6-4-1.6-1.3-1.4-1.3-1.4-.2-2.1l1.9-1.3c.3-.3 1-.6 1.2-.6.4 0 .6-.3.6-.8 0-.6.9-2.2 2.1-4 .3-.3 3.6 2.4 3.6 3 0 .3 1.1.6 2.4.7 1.3 0 2.5.2 2.7.3.1.1 0 1.2-.3 2.3-.4 1.6-.9 2.1-2.3 2.6-2.5.8-2.7 1-1.6 2.7.7 1 1.3 1.3 2.8 1.2 1.4-.1 2-.6 2.8-2.2.6-1.1 1.3-2 1.5-2 .2 0 1.1.7 2 1.6 2 1.9 3.7 2 5.2.6 1.4-1.6.7-2.7-1.7-2.7-1.6 0-2.2-.3-2.6-1.3a4 4 0 0 0-1.1-1.7c-1-.5-.7-1.9.4-1.9 1.5 0 4.1-1.2 4.1-1.9 0-.3.8-1.3 1.8-2.1l1.7-1.6 1.4 1.5c.8.8 1.4 1.8 1.4 2.2 0 .5.5.9 1.1.9.6 0 1.3.2 1.5.5.2.3.8.5 1.5.5 1.3 0 1.3.4.2 3-.8 1.7-1 1.9-3.4 1.9-3 0-3.4.8-1.4 2.6 1.5 1.5 2.9 1.4 4.8-.5 1-.9 1.9-1.6 2.1-1.6.3 0 .9.8 1.3 1.8 1.3 2.8 4.2 3.4 5.8 1.1 1.1-1.5.9-1.8-1.6-2.6-1.5-.5-2-1-2.4-2.6-.2-1.1-.3-2.2-.2-2.3.1-.1 1.3-.3 2.6-.3 1.6 0 2.4-.4 2.4-.8s.4-.7.9-.7 1-.4 1.2-.9c.4-1 2.5-1 2.5 0 0 .4.3 1 .8 1.4.5.3.7 1 .5 1.4-.2.4 0 .7.4.7s1 .3 1.3.6l1.8 1.3c1 .7 1 .7-.3 2.3-1.2 1.4-1.7 1.7-3.7 1.6-1.9-.1-2.3 0-2.4 1-.2 1.4 1.2 2.9 2.7 2.9.6 0 1.9-.6 2.8-1.4 2.1-1.6 3-1.3 3 1.1 0 2.3 1.1 3.3 2.3 2 1.7-1.8 1.8-2.4.6-3.2-1-.8-1.2-1.3-.9-3 .4-1.8.5-2 2.2-1.8 1 .1 2 .4 2.5.6.4.2.8.1 1-.3.5-1.3 5.4-.8 5.4.6 0 .6-2.8 1.7-4.8 2-2.5.3-2.8.7-2.4 2.8.2 1.6 0 2.4-1.1 4-1.8 2.4-3.7 2.6-6 .5-1.2-1.2-2-1.5-3.8-1.3-1.6 0-2.7-.2-4.1-1.2-1.5-1-2.2-1.2-3-.8-1.8.8-4.9.5-6.5-.7-1.3-1-1.8-1-3-.5-2 .9-3.6.7-5.6-.4-1.7-1-1.8-1-3.1 0-1.5 1.1-3.9 1.3-6 .4-1.1-.5-1.6-.4-3.1.6s-2.2 1.2-4.6 1c-2.4-.3-3.3-.2-4.9.7-1.3.7-2.7 1-4 .9-1.8-.1-2.5.1-3.8 1.3-2.2 2.1-4.1 2-5.7-.5zm15.3-9.2c1-.6 1.2-1.9.7-3-.7-1.2-3.2-1.1-4 .2-1.1 2 1.2 4.1 3.3 2.8zm39.8-.8c.9-1.3-.2-2.7-2-3-1.3-.1-1.7.1-2 1.3-.7 2.6 2.5 4 4 1.7zm-19.3-2.2c.5-1.1-.8-3-2-3-1.7 0-3.1 1.9-2.4 3.1.4.6 1 1.2 1.4 1.3.9.3 2.7-.5 3-1.4z"/><path d="M224 215.3a6.5 6.5 0 0 1-1.2-4c.2-2-.2-2.5-2.3-2.8-1.6-.3-5-1.7-5-2 0-1.4 4.8-1.7 5.7-.4.2.2 1.4.1 2.7-.3s2.5-.7 2.7-.5c.2.2.3 1.3.3 2.4 0 1.4-.3 2.2-1.2 2.8l-1.2.8 1.3 1.7c1 1.3 1.4 1.5 2 1 .5-.3.8-1.4.8-2.4 0-2.4.9-2.7 3-1 2 1.6 3.5 1.7 5 .2 2-1.8 1.3-2.9-1.8-3-2-.2-3-.6-4-1.6-1.3-1.4-1.3-1.4-.2-2.1l1.9-1.3c.3-.3 1-.6 1.2-.6.4 0 .6-.3.6-.8 0-.6.9-2.2 2.1-4 .3-.3 3.6 2.4 3.6 3 0 .3 1.1.6 2.4.7 1.3 0 2.5.2 2.7.3.1.1 0 1.2-.3 2.3-.4 1.6-.9 2.1-2.3 2.6-2.5.8-2.7 1-1.6 2.7.7 1 1.3 1.3 2.8 1.2 1.4-.1 2-.6 2.8-2.2.6-1.1 1.3-2 1.5-2 .2 0 1.1.7 2 1.6 2 1.9 3.7 2 5.2.6 1.4-1.6.7-2.7-1.7-2.7-1.6 0-2.2-.3-2.6-1.3a4 4 0 0 0-1.1-1.7c-1-.5-.7-1.9.4-1.9 1.5 0 4.1-1.2 4.1-1.9 0-.3.8-1.3 1.8-2.1l1.7-1.6 1.4 1.5c.8.8 1.4 1.8 1.4 2.2 0 .5.5.9 1.1.9.6 0 1.3.2 1.5.5.2.3.8.5 1.5.5 1.3 0 1.3.4.2 3-.8 1.7-1 1.9-3.4 1.9-3 0-3.4.8-1.4 2.6 1.5 1.5 2.9 1.4 4.8-.5 1-.9 1.9-1.6 2.1-1.6.3 0 .9.8 1.3 1.8 1.3 2.8 4.2 3.4 5.8 1.1 1.1-1.5.9-1.8-1.6-2.6-1.5-.5-2-1-2.4-2.6-.2-1.1-.3-2.2-.2-2.3.1-.1 1.3-.3 2.6-.3 1.6 0 2.4-.4 2.4-.8s.4-.7.9-.7 1-.4 1.2-.9c.4-1 2.5-1 2.5 0 0 .4.3 1 .8 1.4.5.3.7 1 .5 1.4-.2.4 0 .7.4.7s1 .3 1.3.6l1.8 1.3c1 .7 1 .7-.3 2.3-1.2 1.4-1.7 1.7-3.7 1.6-1.9-.1-2.3 0-2.4 1-.2 1.4 1.2 2.9 2.7 2.9.6 0 1.9-.6 2.8-1.4 2.1-1.6 3-1.3 3 1.1 0 2.3 1.1 3.3 2.3 2 1.7-1.8 1.8-2.4.6-3.2-1-.8-1.2-1.3-.9-3 .4-1.8.5-2 2.2-1.8 1 .1 2 .4 2.5.6.4.2.8.1 1-.3.5-1.3 5.4-.8 5.4.6 0 .6-2.8 1.7-4.8 2-2.5.3-2.8.7-2.4 2.8.2 1.6 0 2.4-1.1 4-1.8 2.4-3.7 2.6-6 .5-1.2-1.2-2-1.5-3.8-1.3-1.6 0-2.7-.2-4.1-1.2-1.5-1-2.2-1.2-3-.8-1.8.8-4.9.5-6.5-.7-1.3-1-1.8-1-3-.5-2 .9-3.6.7-5.6-.4-1.7-1-1.8-1-3.1 0-1.5 1.1-3.9 1.3-6 .4-1.1-.5-1.6-.4-3.1.6s-2.2 1.2-4.6 1c-2.4-.3-3.3-.2-4.9.7-1.3.7-2.7 1-4 .9-1.8-.1-2.5.1-3.8 1.3-2.2 2.1-4.1 2-5.7-.5zm15.3-9.2c1-.6 1.2-1.9.7-3-.7-1.2-3.2-1.1-4 .2-1.1 2 1.2 4.1 3.3 2.8zm39.8-.8c.9-1.3-.2-2.7-2-3-1.3-.1-1.7.1-2 1.3-.7 2.6 2.5 4 4 1.7zm-19.3-2.2c.5-1.1-.8-3-2-3-1.7 0-3.1 1.9-2.4 3.1.4.6 1 1.2 1.4 1.3.9.3 2.7-.5 3-1.4z"/><path d="M224 215.3a6.5 6.5 0 0 1-1.2-4c.2-2-.2-2.5-2.3-2.8-1.6-.3-5-1.7-5-2 0-1.4 4.8-1.7 5.7-.4.2.2 1.4.1 2.7-.3s2.5-.7 2.7-.5c.2.2.3 1.3.3 2.4 0 1.4-.3 2.2-1.2 2.8l-1.2.8 1.3 1.7c1 1.3 1.4 1.5 2 1 .5-.3.8-1.4.8-2.4 0-2.4.9-2.7 3-1 2 1.6 3.5 1.7 5 .2 2-1.8 1.3-2.9-1.8-3-2-.2-3-.6-4-1.6-1.3-1.4-1.3-1.4-.2-2.1l1.9-1.3c.3-.3 1-.6 1.2-.6.4 0 .6-.3.6-.8 0-.6.9-2.2 2.1-4 .3-.3 3.6 2.4 3.6 3 0 .3 1.1.6 2.4.7 1.3 0 2.5.2 2.7.3.1.1 0 1.2-.3 2.3-.4 1.6-.9 2.1-2.3 2.6-2.5.8-2.7 1-1.6 2.7.7 1 1.3 1.3 2.8 1.2 1.4-.1 2-.6 2.8-2.2.6-1.1 1.3-2 1.5-2 .2 0 1.1.7 2 1.6 2 1.9 3.7 2 5.2.6 1.4-1.6.7-2.7-1.7-2.7-1.6 0-2.2-.3-2.6-1.3a4 4 0 0 0-1.1-1.7c-1-.5-.7-1.9.4-1.9 1.5 0 4.1-1.2 4.1-1.9 0-.3.8-1.3 1.8-2.1l1.7-1.6 1.4 1.5c.8.8 1.4 1.8 1.4 2.2 0 .5.5.9 1.1.9.6 0 1.3.2 1.5.5.2.3.8.5 1.5.5 1.3 0 1.3.4.2 3-.8 1.7-1 1.9-3.4 1.9-3 0-3.4.8-1.4 2.6 1.5 1.5 2.9 1.4 4.8-.5 1-.9 1.9-1.6 2.1-1.6.3 0 .9.8 1.3 1.8 1.3 2.8 4.2 3.4 5.8 1.1 1.1-1.5.9-1.8-1.6-2.6-1.5-.5-2-1-2.4-2.6-.2-1.1-.3-2.2-.2-2.3.1-.1 1.3-.3 2.6-.3 1.6 0 2.4-.4 2.4-.8s.4-.7.9-.7 1-.4 1.2-.9c.4-1 2.5-1 2.5 0 0 .4.3 1 .8 1.4.5.3.7 1 .5 1.4-.2.4 0 .7.4.7s1 .3 1.3.6l1.8 1.3c1 .7 1 .7-.3 2.3-1.2 1.4-1.7 1.7-3.7 1.6-1.9-.1-2.3 0-2.4 1-.2 1.4 1.2 2.9 2.7 2.9.6 0 1.9-.6 2.8-1.4 2.1-1.6 3-1.3 3 1.1 0 2.3 1.1 3.3 2.3 2 1.7-1.8 1.8-2.4.6-3.2-1-.8-1.2-1.3-.9-3 .4-1.8.5-2 2.2-1.8 1 .1 2 .4 2.5.6.4.2.8.1 1-.3.5-1.3 5.4-.8 5.4.6 0 .6-2.8 1.7-4.8 2-2.5.3-2.8.7-2.4 2.8.2 1.6 0 2.4-1.1 4-1.8 2.4-3.7 2.6-6 .5-1.2-1.2-2-1.5-3.8-1.3-1.6 0-2.7-.2-4.1-1.2-1.5-1-2.2-1.2-3-.8-1.8.8-4.9.5-6.5-.7-1.3-1-1.8-1-3-.5-2 .9-3.6.7-5.6-.4-1.7-1-1.8-1-3.1 0-1.5 1.1-3.9 1.3-6 .4-1.1-.5-1.6-.4-3.1.6s-2.2 1.2-4.6 1c-2.4-.3-3.3-.2-4.9.7-1.3.7-2.7 1-4 .9-1.8-.1-2.5.1-3.8 1.3-2.2 2.1-4.1 2-5.7-.5zm15.3-9.2c1-.6 1.2-1.9.7-3-.7-1.2-3.2-1.1-4 .2-1.1 2 1.2 4.1 3.3 2.8zm39.8-.8c.9-1.3-.2-2.7-2-3-1.3-.1-1.7.1-2 1.3-.7 2.6 2.5 4 4 1.7zm-19.3-2.2c.5-1.1-.8-3-2-3-1.7 0-3.1 1.9-2.4 3.1.4.6 1 1.2 1.4 1.3.9.3 2.7-.5 3-1.4z"/><path d="M225.5 217.1c-.4-.3-2.4-3-2.8-3.9-.2-.4-.2-.6.2-1.2.2-.4.4-1 .4-1.4 0-1.4-1.6-2.5-3.1-2.3-.5.1-1 0-2-.5l-1.4-.5c0-.2-.4-.3-.7-.4l-.8-.2c-.2 0 .6-.9 1.2-1.2.6-.2 2.5-.4 2.5-.2s.6.3 1 0c.4 0 .6 0 .9.3l.5.9c0 .6.2.7.4.3.4-.7 1-1.2 1.3-1 .5.2.9.2 2-.3.5-.2 1.1-.4 1.3-.3.2 0 .2.5.2 1.6 0 1 .1 1.6.2 1.8.4.3 0 .9-1.2 1.7l-1.2.9c-.2.2 2.4 3.4 2.8 3.4.2 0 .6-.3 1-.6.6-.6.6-.7.7-2.4 0-2 .2-2.1 1.1-2.1.5 0 .7.2 1.3 1 .4.5 1 1 1.4 1.2.8.4 2.6.4 3.4-.1 1-.6 1.4-1.3 1.4-2.9v-1.4l-.6.1-2.7.3c-2.1 0-2.1 0-2.3-.3v-.6c0-.1-1-.8-1.2-.8-.3 0-.7-.7-.7-1.1 0-.4.6-.9 1.5-1.1.8-.2 1-.4 1.2-1 .1-.3.2-.3 1-.2.8 0 1 0 1-.2s-.1-.4-.3-.5c0-.1-.2-.5-.1-.8 0-.4.2-.6.6-.7.4-.2.5-.3.5-.7 0-.6.6-1.9 1-2 .1-.2.5.1 1 .6.5.4 1.3 1 1.7 1.1.7.3.7.4.8 1 0 1.2.1 1.2.8.8.6-.4 1-.4 1.3 0 .2.1.6.2 1.7.2 1.8 0 1.9.1 1.4 1.4l-.4 1.1-.1.3v.6c0 .6 0 .7-.6 1-.3.2-.9.4-1.3.4l-.8.3s-.2.1-.4 0c-.1 0-.5 0-.8.2-.5.2-.6.3-.6 1 0 1.8 2.8 3.5 4.6 2.6 1-.5 2.2-1.8 2.2-2.6 0-.2 0-.6.2-.9.3-.4.5-.5 1-.5s.7.2 1.4 1c1.8 2 2.6 2.4 4 2 1.4-.3 2.7-1.7 2.4-2.6v-.1c.2 0 .5-.6.5-1.2l-2.2-.1-2.8-.2c-.6-.2-.6-.3-.5-.8 0-.5 0-.7-.8-1.5-1-1.1-1-1.7-.2-2a4 4 0 0 1 1.2-.3c.4 0 .7 0 .7-.2h.3c.1 0 .3-.1.4-.4.3-.5.3-.5 1.3-.2l.9.3v-1.1c-.2-1.2-.1-1.4.7-1.4.2 0 .6-.4 1-1 1.2-1.7 1.4-1.7 2.1-.4.6 1 1 1.4 1.7 1.5.4 0 .4 0 .4 1.2v1.2l.7-.3c.5-.3 1.3-.3 1.3 0s.7.8 1.2.8c.9 0 2 .4 2.1.7.1.3-.4 1.1-1.1 1.9-.5.5-.5.6-.4 1.2 0 .5 0 .6-.5.8l-2.8.2h-2.3v.6c0 1 .8 2.4 1.6 2.9.5.3.8.4 1.8.4 1.5 0 2.1-.3 3.2-1.8.6-1 .7-1 1.5-1 .7 0 .8 0 1 .6.2.3.4.7.3.8 0 .2.7 1.6 1.2 2 1 .8 2.9 1 3.8.3 1.2-.8 2.2-2.4 1.9-3.1 0-.2-.6-.4-1.2-.5-2.9-.5-3.5-.9-3.3-1.7 0-.4 0-.9-.4-1.6-.8-1.5-.6-1.7 1.3-1.8.7 0 1.4 0 1.4-.2l.3-.3c.3-.1.5 0 1 .3l.8.3v-1.2l.2-.3c0-.3.2-.5.8-.6.6 0 .9-.3 1.3-.8.9-1.3 1.6-1.1 2.3.7.3.8.5 1 .9 1.2.4 0 .4.1.4.5l-.3 1-.1.7.8-.2c.6 0 .8 0 .9.2.2.7.4.9 1 .9l.5.1.8.4c1 .5.9.7-.3 1.9-.7.7-1 1.1-1 1.5 0 .4 0 .4-.8.4l-2.6-.2c-2-.3-2.1-.3-2.3.7-.4 1.6 1 3.4 2.9 3.6 1.4 0 1.6 0 3-1.3 1.5-1.2 2.2-1.5 2.5-1l.3 1.9c0 1.2.2 1.7.4 1.8.1.1.3.3.2.4l.6.5c.4.3.5.3.8.2.4-.2 1.8-2 1.6-2.2l.3-.4c.6-.5.5-.7-.7-1.5-1.2-1-1.6-1.5-1-2 .2-.2.2-.6.2-1.6v-1.5c0-.2.5 0 1.8.4.5.2 1 .3 1.4.2.6-.1.7 0 1.2.5l.6.7.2-.7c.3-1 .7-1.3 1.3-1h1a4 4 0 0 1 3.5.8c.6.5.5.7-.1.7l-.6.1c0 .1 0 .2-.2.1s-1.6.6-2.3 1.1c-.3.3-.6.4-1 .3l-.9-.2c-.7-.1-1.5.3-2 1-.8 1-.8 1.6-.3 2.6l.4 1-.6.9-.4 1-.1.1-1 1c-.3.6-.8 1.1-1 1.3-1.3.7-4-.8-5.5-3-.2-.3-.3-.3-.9-.1l-.7.3-1.4.1a6 6 0 0 1-4.6-1.9l-.9-.9-1.2.6c-1 .6-1.3.6-2.7.6-2 0-2.9-.4-4.2-1.7l-1-.8-1.2.6c-1 .6-1.6.7-2.6.7-1.8.1-2.5-.1-5-1.8-.2 0-.4 0-1 .5-2 1.7-4.4 2-6.8.6l-1-.7-1.1 1-2 1.3c-1.5.6-3.1.5-4.8-.3l-1.2-.5-1.1 1a5.6 5.6 0 0 1-4.3 1.7c-1.1 0-1.7 0-2.2-.3-.7-.3-1-.3-1.3.3-.2.6-1.6 1.9-2.5 2.3-1.2.6-2.2.7-2.8.3zm13.8-10.9c2-1.2 1.1-4.3-1.3-4.3-.6 0-.9.2-1.7.9-1 .9-1 1.3-.7 2.2a3 3 0 0 0 1.4 1.5c.5.2 1.8 0 2.3-.3zm39.5-.2.5-.8.2-.7c.1-.2.1-.4 0-.4s-.2-.2-.1-.4c0-.3-.1-.6-.7-1-.6-.7-.8-.8-1.5-.8-2.7 0-3.5 3.1-1.3 4.4.9.5 2.1.4 2.9-.3zm-20.3-1.5c1-.4 1.4-1 1.4-2s-.4-1.7-1.5-2.2c-1.3-.7-3 .2-3.2 1.8-.1.5 0 .8 0 .8.2 0 .2.2.2.3-.2.3.6 1.2 1 1.4a3 3 0 0 0 2.1-.1z"/><path d="M225.5 217.1c-.4-.3-2.4-3-2.8-3.9-.2-.4-.2-.6.2-1.2.2-.4.4-1 .4-1.4 0-1.4-1.6-2.5-3.1-2.3-.5.1-1 0-1.8-.4-.6-.3-1.1-.5-1.2-.4h-.1c0-.2-.3-.4-.7-.5-.4 0-.8-.2-1-.3-.3 0 .4-.8 1.2-1.2.5-.3 2.4-.4 2.4-.2s.6.3 1 0c.4 0 .6 0 .9.3l.5.9c0 .6.2.7.4.3.5-.7 1.1-1.2 1.3-1 .3.3.8.2 2-.3.5-.2 1.1-.4 1.3-.3.2 0 .2.5.2 1.6 0 1 .1 1.6.2 1.8.4.3 0 .9-1.2 1.7l-1.2.9c-.2.2 2.4 3.4 2.8 3.4.2 0 .6-.3 1-.6.6-.6.6-.7.7-2.4 0-2 .2-2.1 1.1-2.1.5 0 .7.2 1.3 1 1 1.2 1.6 1.5 3 1.5 1 0 1.3-.1 1.9-.5 1-.6 1.2-1.1 1.3-2.8v-1.4l-.6.1-2.7.3c-2.1 0-2.1 0-2.3-.3v-.6l-.6-.5-.5-.2c0 .3-.6-.5-.7-1-.1-.6.3-1 1.4-1.3.8-.2 1-.4 1.2-1 .1-.3.2-.3 1-.2.8 0 1 0 1-.2s-.1-.4-.3-.5c0-.1-.2-.5-.1-.8 0-.4.2-.6.6-.7.4-.2.5-.3.5-.7 0-.6.6-1.9 1-2 .1-.2.5.1 1 .6.5.4 1.3 1 1.7 1.1.7.3.7.4.8 1 0 1.2.1 1.2.8.8.6-.4 1-.4 1.3 0 .2.1.6.2 1.7.2 1.8 0 1.9.1 1.4 1.4l-.4 1.1-.1.3v.6c0 .6 0 .7-.5 1a7 7 0 0 1-1.8.5c-2 .4-2.2.5-2.2 1.3 0 1.9 2.8 3.6 4.6 2.7 1-.5 2.2-1.8 2.2-2.6 0-.2 0-.6.2-.9.3-.4.5-.5 1-.5s.7.2 1.4 1c1.8 2 2.6 2.4 4 2 1.3-.3 2-1 2.5-2.4.6-1.7.7-1.6-1.8-1.6l-2.8-.2c-.6-.2-.6-.3-.5-.8 0-.5 0-.7-.8-1.5-1.3-1.5-1-2 1.3-2.4.7 0 1-.2 1.1-.5.3-.5.4-.5 1.4-.2l.7.3v-1.1c-.1-1.2 0-1.4.8-1.4.2 0 .6-.4 1-1 1.2-1.7 1.4-1.7 2.1-.4.6 1 1 1.4 1.7 1.5.4 0 .4 0 .4 1.2v1.2l.7-.3c.7-.4 1.2-.3 1.4.2.3.4.5.5 1.8.7 1.7.2 1.9.8.5 2.3-.7.7-.7.8-.6 1.4 0 .5 0 .6-.5.8l-2.8.2h-2.3v.6c0 1 .8 2.4 1.6 2.9.5.3.8.4 1.8.4 1.5 0 2.1-.3 3.2-1.8.6-1 .7-1 1.5-1 .7 0 .8 0 1 .6.2.3.4.7.3.8 0 .2.7 1.6 1.2 2 1 .8 2.9 1 3.8.3 1.2-.8 2.2-2.4 1.9-3.1 0-.2-.6-.4-1.2-.5-2.9-.5-3.5-.9-3.3-1.7 0-.4 0-.9-.4-1.6-.8-1.5-.6-1.7 1.3-1.8.7 0 1.4 0 1.4-.2l.3-.3c.3-.1.5 0 1 .3l.8.3v-1.2l.2-.4a.5.5 0 0 1 .4-.4c1-.1 1.2-.3 1.6-.9 1-1.3 1.7-1.1 2.4.7.3.8.5 1 .9 1.2.4 0 .4.1.4.5l-.3 1-.1.7.8-.2c.6 0 .8 0 .9.2.2.7.4.9 1 .9l.5.1.8.4c1 .5.9.7-.2 1.8-.9.8-1 1.1-1.1 1.8 0 .3-1.2.3-3.4 0-2-.3-2.1-.3-2.3.7-.4 1.6 1 3.4 2.9 3.6 1.4 0 1.6 0 3-1.3 1.5-1.2 2.2-1.5 2.5-1l.3 1.8c0 1.4.2 1.7.6 2.3.6.8 1.2 1 1.6.5.5-.4 2-2.7 2-3l-1-1c-1.2-.8-1.6-1.4-1-1.9.2-.2.2-.6.2-1.6v-1.5c0-.2.5 0 1.8.4.5.2 1 .3 1.4.2.6-.1.7 0 1.2.5l.6.7.2-.7c.3-1 .7-1.3 1.3-1h1a4 4 0 0 1 3.6 1c.5.4.4.4-.5.5-.8.2-2.3.8-2.8 1.3-.4.5-.7.5-1.5.2-1.2-.4-2.5.4-3 1.8-.1.6-.1.8.3 1.7l.4 1-.7 1c-1 1.8-2.3 3.3-2.8 3.4-1.2.3-3.5-1-4.6-2.4-.7-1-.7-1-2.3-.6a6 6 0 0 1-5.8-1.7l-.9-.9-1.2.6c-1 .6-1.3.6-2.7.6-2 0-2.9-.4-4.3-1.7l-.8-.8-1.3.6c-1 .6-1.6.7-2.6.7-1.8.1-2.5-.1-5-1.8-.2 0-.4 0-1 .5-2 1.7-4.4 2-6.8.6l-1-.7-1.1 1-2 1.3c-1.5.6-3.1.5-4.8-.3l-1.2-.5-1.1 1a5.6 5.6 0 0 1-4.3 1.7c-1.1 0-1.7 0-2.2-.3-.7-.3-1-.3-1.3.3-.2.6-1.6 1.9-2.5 2.3-1.2.6-2.2.7-2.8.3zm13.8-10.9c2-1.2 1.1-4.3-1.3-4.3-.6 0-.9.2-1.7.9-1 .9-1 1.3-.7 2.2a3 3 0 0 0 1.4 1.5c.5.2 1.8 0 2.3-.3zm39.5-.2.5-.8.2-.7c.1-.2.1-.4 0-.4s-.2-.2-.1-.4c0-.3-.1-.6-.7-1-.6-.7-.8-.8-1.5-.8-2.7 0-3.5 3.1-1.3 4.4.9.5 2.1.4 2.9-.3zm-20.3-1.5c1-.4 1.4-.9 1.4-2 0-.9 0-1-.6-1.5-1.2-1.2-2.4-1.3-3.4-.3-.6.6-1 2.1-.7 2.2.2 0 .2.2.2.3-.2.3.6 1.2 1 1.4a3 3 0 0 0 2.1-.1z"/></g><path d="M242.1 270zM225.3 230zm0-.2a39021.9 39021.9 0 0 1 36 0 2678.5 2678.5 0 0 1-36 0z" fill="#04a"/><path d="M307.5 252.8v-16.5 10.1a299.4 299.4 0 0 1 0 6.4z" fill="#00a"/></svg>