<svg width="512" height="512" xmlns="http://www.w3.org/2000/svg"><path d="M341.333 0H512v512H341.333Z" fill="#fc0" style="stroke-width:.853333"/><path d="M170.667 0h170.666v512H170.667Z" fill="#0077c8"/><path d="M0 0h170.667v512H0Z" fill="#fff"/><path d="M282.232 182.783c.13-.125.22-.27.332-.403l.106.312c-.148.037-.306.037-.438.09zm-39.709-10.172c-.079.145-.184.27-.275.4-.02-.004-.03-.009-.044-.009.112-.128.193-.275.32-.391zm-10.043 10.05.115-.329c.035 0 .06-.002.094-.004.118.156.23.312.386.457-.187-.071-.396-.08-.595-.123zm-72.288 139.99c-.01.042-.01.042-.001 0zm47.52-137.237v-.003c.01.032.01.077.02.119 0-.042-.02-.077-.02-.116zm99.886-.003.003.003c0 .042-.02.076-.025.116.01-.042.01-.085.02-.119zm97.264 128.92a18.5 18.5 0 0 0 5.433-13.115c-.86-5.773-3.013-14.944-10.444-15.178-1.84-.057-5.029 2.078-5.029 2.078-2.98 1.986-2.616 6.71.01 9.34 2.036 2.035 2.036 5.483 0 7.517a4.791 4.791 0 0 1-3.42 1.436c-.407 0-1.4-.406-1.703-1.595-1.745-7.13-6.053-13.217-12.144-17.26a42.85 42.85 0 0 1-18.708-35.44l.154-22.116c0-10.828-7.376-20.277-17.935-23.004-.166-.042-4.952-1.523-7.5-1.393-1.977.1-3.84.938-5.654 1.666-.052.018-.113.088-.148.076-1.87-.619-4.479-1.535-4.479-1.535l-2.64-.644-1.58-.306c-2.05-.301-4.004.46-5.34 2.09-1.19 1.712-1.745 3.973-1.745 6.867 0 1.24.278 2.815.483 4.29-.927-.243-1.803-.669-2.778-.669-4.8 0-8.856 3.022-10.375 7.213h-5.712c3.286-6.064 6.334-11.551 6.974-12.428.166.077 3.507-.12 3.507-.12 1.416-.081 2.673-.867 3.304-2.06.281-.524.42-1.092.42-1.66 0-.365-.227-.691-.333-1.04 1.84-1.351 3.208-3.204 3.208-5.585 0 0-.235-.545-.305-.729 1.719-1.399 2.97-3.235 2.97-5.394 0-.86-.158-1.734-.5-2.58-.226-.584-.727-.987-1.099-1.483.32-.835.544-1.706.544-2.577 0-1.79-.676-3.58-2.02-4.983-.777-.809-1.728-1.387-2.758-1.784-.501-2.165-1.725-4.169-3.966-5.182-1.193-.544-2.473-.678-3.736-.596-1.31-1.725-3.132-3.036-5.533-3.177-1.049-.057-1.994.323-2.954.655-.535-.596-.97-1.075-.97-1.075l-5.917-.386c-.821.264-1.395.868-2.054 1.362-1.048-.537-1.993-1.019-1.993-1.019s-.505.15-.628.19c-1.36-2.13-3.377-3.796-6.18-3.796-.997 0-1.846.485-2.736.831-1.275-.888-2.73-1.572-4.416-1.572-.217 0-.36.19-.568.21v-3.394c0-1.628-1.244-2.758-2.797-3.271-.501-1.518-1.749-2.744-3.534-2.744h-3.77c-1.781 0-3.035 1.226-3.539 2.744-1.546.513-2.794 1.643-2.794 3.271v3.38c-.205-.014-.353-.196-.562-.196-1.688 0-3.153.687-4.415 1.575-.9-.35-1.74-.834-2.752-.834-2.797 0-4.811 1.665-6.167 3.8a54.53 54.53 0 0 0-.644-.194s-1.054.542-1.98 1.016c-.66-.494-1.227-1.095-2.052-1.36l-5.89.372s-.616.676-.987 1.079c-.948-.33-1.894-.701-2.951-.644-2.401.139-4.22 1.458-5.542 3.186-1.275-.088-2.556.042-3.76.596-2.23 1.01-3.45 3.008-3.945 5.17-1.03.398-1.976.979-2.755 1.785a7.164 7.164 0 0 0-2.011 4.994c0 .877.208 1.742.531 2.57-.371.5-.873.903-1.108 1.484a7.017 7.017 0 0 0-.49 2.574c0 2.145 1.245 3.984 2.963 5.392a76.78 76.78 0 0 1-.308.734c0 2.344 1.323 4.194 3.114 5.545-.118.36-.347.703-.347 1.08 0 .566.136 1.127.41 1.652.634 1.2 1.89 1.987 3.31 2.072l3.36.195c.778.812 3.88 6.288 7.209 12.349h-5.908c-1.525-4.18-5.575-7.19-10.366-7.19-.984 0-1.857.426-2.781.661.217-1.649.52-3.465.52-4.636 0-3.939-.998-5.429-1.417-6.047-1.716-2.103-3.664-2.863-5.727-2.568 0 0-.996.198-1.607.314l-2.588.63s-2.61.92-4.485 1.541c-.03.01-.086-.05-.133-.068-1.818-.723-3.685-1.557-5.666-1.663-2.367-.126-6.98 1.255-6.98 1.255-11.085 2.846-18.458 12.295-18.458 23.117l.091 12.237v3.048c.02.032.07 6.878.07 6.878a42.734 42.734 0 0 1-18.709 35.37c-6.082 4.063-10.393 10.152-12.13 17.172-.323 1.313-1.313 1.71-1.727 1.71a4.8 4.8 0 0 1-3.422-1.432c-1.018-1.01-1.522-2.387-1.522-3.749 0-1.376.513-2.746 1.528-3.77 1.305-1.32 1.957-3 1.957-4.68 0-1.691-.645-3.38-1.972-4.679-.01-.01-3.18-2.048-5.011-2.046-1.835.002-5.017 2.063-5.017 2.063-7.81 6.708-7.228 18.997.003 26.227 5.107 5.102 12.577 6.589 19.164 4.54.02.293.145 1.938.145 1.938 0 2.874-1.767 5.46-4.4 6.427-1.453.53-2.453 1.68-2.529 3.144l-.13 2.429c0 4.86 1.517 9.523 4.395 13.486 1.7 2.477 2.791 5 3.335 7.684 1.262 5.292 5.83 7.65 9.55 7.65h11.151c2.196 0 3.972-1.666 3.972-3.723 0-6.438-4.775-11.563-10.964-12.774-1.172-1.442-2.03-3.124-2.03-5.037 0-3.317 1.93-6.26 4.93-7.488 5.351-2.256 9.076-6.782 10.453-12.105 2.53.528 2.932.76 2.932 2.176-.476 2.538-.983 2.233-1.382 3.45-.385 1.174.733 2.46 2.159 3.128 2.386 1.118 6.315 6.61 8.11 10.592 1.72 3.592 5.17 5.777 9.036 5.777h9.553c2.196 0 3.97-1.665 3.97-3.726 0-6.256-4.52-11.73-10.744-13.015-1.954-.423-3.35-2.245-3.35-4.342 0-1.177.438-2.298 1.254-3.152 1.933-1.958 2.99-4.512.944-10.59-2.047-6.08-5.819-9.153-9.97-11.562 3.553-3.363 7.431-6.354 11.85-8.42 7.414-3.22 13.005-9.428 15.63-17.05 1.25-1.154 4.247-3.935 4.395-4.069v44.143c0 31.584 53.573 31.948 55.854 31.948 2.28 0 55.84-.363 55.84-31.948V269.6a.58.58 0 0 1 .057.06s3.168 2.93 4.443 4.12c2.636 7.613 8.224 13.824 15.642 17.058 4.413 2.046 8.279 5.032 11.834 8.39-4.135 2.401-8.841 5.049-10.895 11.16-2.054 6.11-.044 9.072 1.87 11.002a4.54 4.54 0 0 1 1.26 3.16c0 2.095-1.405 3.917-3.344 4.328-6.234 1.28-10.756 6.753-10.756 13.016 0 2.057 1.78 3.728 3.975 3.728h9.556c3.875 0 7.322-2.182 9.004-5.695 1.824-4.052 5.742-9.542 8.143-10.674 1.428-.678 2.38-1.584 2.38-2.798 0-.343-.075-.715-.239-1.11l-1.054-2.528s-.112-.221-.226-.44c.04-1.035.592-1.404 2.848-1.872 1.368 5.328 5.089 9.846 10.393 12.042 3.008 1.271 4.995 4.282 4.995 7.548 0 1.892-.866 3.57-2.035 5.025-6.195 1.214-10.967 6.344-10.967 12.782 0 2.058 1.776 3.723 3.965 3.723h11.17c3.709 0 8.27-2.352 9.514-7.513.562-2.83 1.649-5.35 3.259-7.625 2.969-4.14 4.491-8.802 4.491-13.67l-.127-2.433c-.078-1.472-1.075-2.63-2.54-3.164-2.621-.95-4.38-3.53-4.38-6.415 0 0 .088-1.39.125-1.935 6.593 2.054 14.06.567 19.167-4.54zM171.172 161.34c1.85 3.85 5.189 6.622 9.006 8.694-1.117 1.135-2.585 2.06-4.968 2.965-1.51.567-2.489 1.938-2.489 3.453 0 .051.003.1.003.15.066 1.575 1.184 2.943 2.785 3.41 6.451 1.89 35.084 3.009 53.588-14.697.815-.78 1.314-1.984 1.314-3.133 0-.616-.148-1.211-.462-1.725l-.154-.247c9.021-1.078 18.1-1.81 27.15-1.81 9.522 0 18.71.732 27.777 1.819a7.43 7.43 0 0 1-.147.238c-.315.514-.457 1.115-.457 1.734 0 1.14.49 2.344 1.299 3.121 18.494 17.7 47.136 16.59 53.593 14.701 1.603-.468 2.718-1.833 2.778-3.405 0-.057.01-.105.01-.156 0-1.515-.978-2.886-2.486-3.453-2.398-.911-3.86-1.836-4.983-2.966 3.823-2.071 7.17-4.857 9.024-8.734 0-.004 1.021-2.536 1.021-2.536.164-.412.248-.835.248-1.246 0-.982-.46-1.918-1.275-2.65-1.15-1.03-2.896-1.192-4.355-.596-1.538.627-3.332.967-5.34 1.007-4.404.1-16.476-2.017-19.687-7.49-.224-6.718-5.291-12.492-12.314-13.805a260.567 260.567 0 0 0-44.076-3.757c-15.355 0-30.128 1.251-44.532 3.714-7.198 1.35-12.275 7.128-12.492 13.847-3.202 5.474-15.286 7.59-19.69 7.49-2.002-.041-3.793-.38-5.343-1.006-1.462-.593-3.207-.432-4.361.604-.81.723-1.263 1.663-1.263 2.644 0 .41.085.832.245 1.243l1.033 2.577z" fill="#fff"/><path d="M222.602 203.425c-2.924-1.544-6.67-6.634-6.67-9.285 0-4.662 5.824-8.427 13.006-8.427l2.903-1.167 1.326-4.083s-16.171-1.938-20.605 5.377c-4.428 7.307-2.144 12.076-.293 15.919 1.855 3.85 6.06 5.791 6.06 5.791l4.273-4.126z" fill="#fc0"/><path d="M237.63 350.52c-.59-.332-1.348-1.427-1.348-1.997 0-1.003 1.177-1.813 2.628-1.813l.587-.25.268-.879s-3.268-.417-4.164 1.157c-.895 1.571-.433 2.597-.059 3.424.375.828 1.224 1.245 1.224 1.245l.864-.887z" fill="none" stroke="#000" stroke-width=".443" transform="matrix(4.94855 0 0 4.64896 -953.321 -1426.128)"/><path d="M239.476 191.337c-.948-.947-1.498-2.1-1.498-3.334 0-3.342 4.09-6.066 9.137-6.066 1.848 0 5.46.366 6.889.99l.447-6.983s-13.643-1.478-18.896 4.202c-5.252 5.684-3.923 11.268-3.48 12.556.439 1.297 1.339 3.23 1.339 3.23l7.52-2.154-1.458-2.44z" fill="#fc0"/><path d="M241.04 347.92a1.045 1.045 0 0 1-.303-.717c0-.72.827-1.305 1.847-1.305.373 0 1.103.079 1.392.213l.09-1.502s-2.757-.318-3.818.904c-1.062 1.222-.793 2.423-.703 2.7.088.28.27.695.27.695l1.52-.463-.295-.525z" fill="none" stroke="#000" stroke-width=".443" transform="matrix(4.94855 0 0 4.64896 -953.321 -1426.128)"/><path d="M292.475 203.425c2.927-1.544 6.681-6.634 6.681-9.285 0-4.662-5.826-8.427-13.014-8.427l-2.9-1.167-1.329-4.083s16.168-1.938 20.602 5.377c4.412 7.307 2.144 12.076.302 15.919-1.858 3.85-6.068 5.791-6.068 5.791l-4.274-4.126z" fill="#fc0"/><path d="M251.75 350.52c.591-.332 1.35-1.427 1.35-1.997 0-1.003-1.177-1.813-2.63-1.813l-.586-.25-.268-.879s3.267-.417 4.163 1.157c.892 1.571.433 2.597.06 3.424-.375.828-1.225 1.245-1.225 1.245l-.864-.887z" fill="none" stroke="#000" stroke-width=".443" transform="matrix(4.94855 0 0 4.64896 -953.321 -1426.128)"/><path d="M275.6 191.337c.943-.947 1.505-2.1 1.505-3.334 0-3.342-4.102-6.066-9.137-6.066-1.854 0-5.455.366-6.89.99l-.437-6.983s13.63-1.478 18.886 4.202c5.244 5.684 3.92 11.268 3.47 12.556-.429 1.297-1.326 3.23-1.326 3.23l-7.523-2.154 1.453-2.44z" fill="#fc0"/><path d="M248.34 347.92c.19-.204.304-.452.304-.717 0-.72-.829-1.305-1.846-1.305-.375 0-1.103.079-1.393.213l-.088-1.502s2.754-.318 3.816.904c1.06 1.222.793 2.423.702 2.7-.087.28-.268.695-.268.695l-1.52-.463.293-.525z" fill="none" stroke="#000" stroke-width=".443" transform="matrix(4.94855 0 0 4.64896 -953.321 -1426.128)"/><path d="M221.167 203.471c8.48-8.254 21.67-13.569 36.48-13.569 14.811 0 27.989 5.315 36.47 13.57l-10.193 26.2h-53.108l-9.65-26.2z" fill="#da291c"/><path d="M237.34 350.53c1.714-1.776 4.38-2.919 7.372-2.919 2.993 0 5.656 1.143 7.37 2.919l-2.06 5.636H239.29l-1.95-5.636z" fill="none" stroke="#000" stroke-linecap="round" stroke-linejoin="round" stroke-width=".417" transform="matrix(4.94855 0 0 4.64896 -953.321 -1426.128)"/><path d="m264.367 199.52-6.792-4.203-6.706 4.203 2.61-21.594h8.255l2.633 21.594z" fill="#ecd21c"/><path d="m246.07 349.68-1.373-.904-1.355.904.528-4.645h1.668l.532 4.645z" fill="#fc0" stroke="#000" stroke-width=".417" transform="matrix(4.94855 0 0 4.64896 -953.321 -1426.128)"/><path d="M258.132 181.25c-1.298-.265-2.573.544-2.842 1.81-.269 1.257.553 2.488 1.864 2.755 1.301.264 2.573-.548 2.842-1.81.266-1.269-.568-2.503-1.864-2.756z" fill="#fff"/><path d="M244.81 345.75a.485.485 0 0 0-.574.39.5.5 0 0 0 .376.592.486.486 0 0 0 .575-.39.5.5 0 0 0-.377-.592z" fill="none" stroke="#000" stroke-width=".208" transform="matrix(4.94855 0 0 4.64896 -953.321 -1426.128)"/><path d="M258.28 185.526c-1.642-.343-3.25.69-3.587 2.301-.348 1.595.722 3.147 2.362 3.482 1.658.33 3.268-.692 3.609-2.296.332-1.597-.722-3.166-2.383-3.487z" fill="#fff"/><path d="M244.84 346.67a.61.61 0 0 0-.725.495.634.634 0 0 0 .477.749c.335.07.66-.149.73-.494a.635.635 0 0 0-.482-.75z" fill="none" stroke="#000" stroke-width=".208" transform="matrix(4.94855 0 0 4.64896 -953.321 -1426.128)"/><path d="M258.43 191.059c-2.082-.424-4.118.876-4.55 2.9-.429 2.02.913 3.98 2.994 4.409 2.087.414 4.113-.894 4.54-2.9.437-2.02-.892-3.992-2.985-4.41z" fill="#fff"/><path d="M244.87 347.86a.777.777 0 0 0-.92.624.804.804 0 0 0 .606.948.778.778 0 0 0 .917-.624.798.798 0 0 0-.603-.948z" fill="none" stroke="#000" stroke-width=".208" transform="matrix(4.94855 0 0 4.64896 -953.321 -1426.128)"/><path d="M216.07 201.751c0-2.009-1.674-3.652-3.758-3.652-2.072 0-3.763 1.643-3.763 3.652 0 2.015 1.691 3.646 3.763 3.646 2.084 0 3.758-1.631 3.758-3.646z" fill="#fff"/><path d="M236.31 350.16a.773.773 0 0 0-.76-.786.775.775 0 0 0-.76.786c0 .433.342.784.76.784a.77.77 0 0 0 .76-.784z" fill="none" stroke="#000" stroke-width=".208" transform="matrix(4.94855 0 0 4.64896 -953.321 -1426.128)"/><path d="M235.517 186.177c0-2.02-1.688-3.649-3.757-3.649-2.084 0-3.772 1.629-3.772 3.65 0 2.014 1.688 3.648 3.772 3.648 2.07 0 3.757-1.634 3.757-3.649z" fill="#fff"/><path d="M240.24 346.81a.773.773 0 0 0-.76-.785.773.773 0 0 0-.762.785c0 .433.342.785.763.785.418 0 .759-.352.759-.785z" fill="none" stroke="#000" stroke-width=".208" transform="matrix(4.94855 0 0 4.64896 -953.321 -1426.128)"/><path d="M236.606 193.058c0-2.012-1.697-3.652-3.778-3.652-2.075 0-3.76 1.64-3.76 3.652 0 2.026 1.685 3.646 3.76 3.646 2.08 0 3.778-1.62 3.778-3.646z" fill="#fff"/><path d="M240.46 348.29a.776.776 0 0 0-.764-.786c-.419 0-.76.353-.76.786 0 .436.341.784.76.784.421 0 .764-.348.764-.784z" fill="none" stroke="#000" stroke-width=".208" transform="matrix(4.94855 0 0 4.64896 -953.321 -1426.128)"/><path d="M213.2 196.963c.742-1.879-.227-3.981-2.17-4.705-1.947-.72-4.119.224-4.856 2.105-.749 1.89.236 3.979 2.166 4.702 1.948.732 4.11-.215 4.86-2.102z" fill="#fff"/><path d="M235.73 349.13a.791.791 0 0 0-.438-1.012.752.752 0 0 0-.982.453.79.79 0 0 0 .438 1.011.75.75 0 0 0 .982-.452z" fill="none" stroke="#000" stroke-width=".208" transform="matrix(4.94855 0 0 4.64896 -953.321 -1426.128)"/><path d="M213.447 191.477a3.585 3.585 0 0 0-.184-5.161c-1.516-1.368-3.893-1.3-5.316.173a3.581 3.581 0 0 0 .181 5.166c1.52 1.374 3.896 1.309 5.319-.179z" fill="#fff"/><path d="M235.78 347.95a.806.806 0 0 0-.037-1.11.745.745 0 0 0-1.074.037.805.805 0 0 0 .036 1.111.742.742 0 0 0 1.075-.038z" fill="none" stroke="#000" stroke-width=".208" transform="matrix(4.94855 0 0 4.64896 -953.321 -1426.128)"/><path d="M216.614 187.014c1.89-.846 2.694-3.016 1.821-4.841-.882-1.827-3.12-2.625-5.001-1.765-1.876.854-2.694 3.016-1.819 4.85.882 1.832 3.127 2.618 4.999 1.756z" fill="#fff"/><path d="M236.42 346.99a.793.793 0 0 0 .368-1.041.75.75 0 0 0-1.01-.38.797.797 0 0 0-.368 1.043.747.747 0 0 0 1.01.378z" fill="none" stroke="#000" stroke-width=".208" transform="matrix(4.94855 0 0 4.64896 -953.321 -1426.128)"/><path d="M221.661 184.271c2.078-.113 3.67-1.842 3.534-3.853-.112-2.012-1.887-3.556-3.956-3.442-2.078.119-3.664 1.847-3.543 3.864.117 2.012 1.896 3.55 3.965 3.431z" fill="#fff"/><path d="M237.44 346.4a.772.772 0 0 0 .714-.829.768.768 0 0 0-.8-.74.778.778 0 0 0-.715.831.768.768 0 0 0 .801.738z" fill="none" stroke="#000" stroke-width=".208" transform="matrix(4.94855 0 0 4.64896 -953.321 -1426.128)"/><path d="M227.204 182.923c1.963.641 4.098-.395 4.76-2.31.655-1.907-.414-3.98-2.383-4.617-1.97-.632-4.105.392-4.766 2.305-.647 1.923.413 3.983 2.389 4.622z" fill="#fff"/><path d="M238.56 346.11a.755.755 0 0 0 .962-.497.792.792 0 0 0-.482-.993.757.757 0 0 0-.963.496.794.794 0 0 0 .483.994z" fill="none" stroke="#000" stroke-width=".208" transform="matrix(4.94855 0 0 4.64896 -953.321 -1426.128)"/><path d="M233.241 182.97c1.604 1.276 3.975 1.052 5.295-.497a3.586 3.586 0 0 0-.517-5.142c-1.607-1.283-3.975-1.053-5.295.5a3.578 3.578 0 0 0 .517 5.138z" fill="#fff"/><path d="M239.78 346.12a.746.746 0 0 0 1.07-.107.805.805 0 0 0-.104-1.106.744.744 0 0 0-1.07.108.803.803 0 0 0 .104 1.105z" fill="none" stroke="#000" stroke-width=".208" transform="matrix(4.94855 0 0 4.64896 -953.321 -1426.128)"/><path d="M245.464 176.554c0-2.026-1.682-3.65-3.77-3.65-2.068 0-3.754 1.624-3.754 3.65 0 2.017 1.686 3.646 3.755 3.646 2.087 0 3.769-1.629 3.769-3.646z" fill="#fff"/><path d="M242.25 344.74a.771.771 0 0 0-.762-.785.771.771 0 0 0-.758.785c0 .434.34.784.758.784.422 0 .762-.35.762-.784z" fill="none" stroke="#000" stroke-width=".208" transform="matrix(4.94855 0 0 4.64896 -953.321 -1426.128)"/><path d="M252.64 175.856c0-2.017-1.698-3.654-3.77-3.654-2.084 0-3.757 1.637-3.757 3.654 0 2.015 1.673 3.647 3.757 3.647 2.072 0 3.77-1.632 3.77-3.647z" fill="#fff"/><path d="M243.7 344.59a.776.776 0 0 0-.762-.786.772.772 0 0 0-.759.786.77.77 0 0 0 .76.784.774.774 0 0 0 .761-.784z" fill="none" stroke="#000" stroke-width=".208" transform="matrix(4.94855 0 0 4.64896 -953.321 -1426.128)"/><path d="M299.156 201.751c0-2.009 1.688-3.652 3.766-3.652 2.078 0 3.751 1.643 3.751 3.652 0 2.015-1.673 3.646-3.751 3.646s-3.766-1.631-3.766-3.646z" fill="#fff"/><path d="M253.1 350.16c0-.432.341-.786.761-.786s.758.354.758.786a.77.77 0 0 1-.758.784.773.773 0 0 1-.761-.784z" fill="none" stroke="#000" stroke-width=".208" transform="matrix(4.94855 0 0 4.64896 -953.321 -1426.128)"/><path d="M279.757 186.177c0-2.02 1.689-3.649 3.76-3.649 2.085 0 3.764 1.629 3.764 3.65 0 2.014-1.68 3.648-3.763 3.648-2.072 0-3.76-1.634-3.76-3.649z" fill="#fff"/><path d="M249.18 346.81c0-.435.341-.785.76-.785.421 0 .76.35.76.785 0 .433-.339.785-.76.785a.773.773 0 0 1-.76-.785z" fill="none" stroke="#000" stroke-width=".208" transform="matrix(4.94855 0 0 4.64896 -953.321 -1426.128)"/><path d="M278.669 193.058c0-2.012 1.691-3.652 3.775-3.652 2.06 0 3.755 1.64 3.755 3.652 0 2.026-1.695 3.646-3.755 3.646-2.084 0-3.775-1.62-3.775-3.646z" fill="#fff"/><path d="M248.96 348.29c0-.433.342-.786.763-.786.416 0 .759.353.759.786a.772.772 0 0 1-.759.784.772.772 0 0 1-.763-.784z" fill="none" stroke="#000" stroke-width=".208" transform="matrix(4.94855 0 0 4.64896 -953.321 -1426.128)"/><path d="M302.075 196.963c-.737-1.879.224-3.981 2.172-4.705 1.93-.72 4.114.224 4.86 2.105.746 1.89-.23 3.979-2.184 4.702-1.936.732-4.11-.215-4.848-2.102z" fill="#fff"/><path d="M253.69 349.13a.792.792 0 0 1 .439-1.012.755.755 0 0 1 .982.453.789.789 0 0 1-.441 1.011.748.748 0 0 1-.98-.452z" fill="none" stroke="#000" stroke-width=".208" transform="matrix(4.94855 0 0 4.64896 -953.321 -1426.128)"/><path d="M301.828 191.477c-1.426-1.478-1.338-3.78.175-5.161 1.52-1.368 3.9-1.3 5.322.173a3.58 3.58 0 0 1-.187 5.166c-1.51 1.374-3.9 1.309-5.31-.179z" fill="#fff"/><path d="M253.64 347.95a.804.804 0 0 1 .035-1.11.746.746 0 0 1 1.076.037.805.805 0 0 1-.038 1.111.74.74 0 0 1-1.073-.038z" fill="none" stroke="#000" stroke-width=".208" transform="matrix(4.94855 0 0 4.64896 -953.321 -1426.128)"/><path d="M298.66 187.014c-1.884-.846-2.7-3.016-1.83-4.841.885-1.827 3.124-2.625 5.005-1.765 1.885.854 2.7 3.016 1.83 4.85-.89 1.832-3.12 2.618-5.004 1.756z" fill="#fff"/><path d="M253 346.99a.796.796 0 0 1-.37-1.041.75.75 0 0 1 1.012-.38c.38.184.545.649.37 1.043a.748.748 0 0 1-1.012.378z" fill="none" stroke="#000" stroke-width=".208" transform="matrix(4.94855 0 0 4.64896 -953.321 -1426.128)"/><path d="M293.613 184.271c-2.084-.113-3.672-1.842-3.552-3.853.124-2.012 1.912-3.556 3.978-3.442 2.072.119 3.667 1.847 3.54 3.864-.12 2.012-1.894 3.55-3.966 3.431z" fill="#fff"/><path d="M251.98 346.4a.777.777 0 0 1-.718-.829.774.774 0 0 1 .804-.74.778.778 0 0 1 .715.831.768.768 0 0 1-.801.738z" fill="none" stroke="#000" stroke-width=".208" transform="matrix(4.94855 0 0 4.64896 -953.321 -1426.128)"/><path d="M288.071 182.923c-1.984.641-4.102-.395-4.76-2.31-.656-1.907.408-3.98 2.383-4.617 1.966-.632 4.102.392 4.739 2.305.673 1.923-.39 3.983-2.362 4.622z" fill="#fff"/><path d="M250.86 346.11a.754.754 0 0 1-.962-.497.791.791 0 0 1 .482-.993.75.75 0 0 1 .957.496.787.787 0 0 1-.477.994z" fill="none" stroke="#000" stroke-width=".208" transform="matrix(4.94855 0 0 4.64896 -953.321 -1426.128)"/><path d="M282.034 182.97c-1.601 1.276-3.966 1.052-5.292-.497a3.596 3.596 0 0 1 .517-5.142c1.61-1.283 3.965-1.053 5.291.5a3.57 3.57 0 0 1-.516 5.138z" fill="#fff"/><path d="M249.64 346.12a.745.745 0 0 1-1.07-.107.807.807 0 0 1 .105-1.106.743.743 0 0 1 1.07.108.802.802 0 0 1-.105 1.105z" fill="none" stroke="#000" stroke-width=".208" transform="matrix(4.94855 0 0 4.64896 -953.321 -1426.128)"/><path d="M269.81 176.554c0-2.026 1.683-3.65 3.758-3.65 2.078 0 3.773 1.624 3.773 3.65 0 2.017-1.695 3.646-3.773 3.646-2.075 0-3.757-1.629-3.757-3.646z" fill="#fff"/><path d="M247.17 344.74c0-.436.34-.785.76-.785s.762.35.762.785a.774.774 0 0 1-.763.784c-.42 0-.759-.35-.759-.784z" fill="none" stroke="#000" stroke-width=".208" transform="matrix(4.94855 0 0 4.64896 -953.321 -1426.128)"/><path d="M262.635 175.856c0-2.017 1.686-3.654 3.764-3.654 2.072 0 3.766 1.637 3.766 3.654 0 2.015-1.694 3.647-3.766 3.647-2.078 0-3.764-1.632-3.764-3.647z" fill="#fff"/><path d="M245.72 344.59c0-.434.34-.786.76-.786s.762.352.762.786a.774.774 0 0 1-.762.784.773.773 0 0 1-.76-.784z" fill="none" stroke="#000" stroke-width=".208" transform="matrix(4.94855 0 0 4.64896 -953.321 -1426.128)"/><path d="M301.927 205.703c-1.07-1.515-2.589-2.415-4.277-2.568a5.42 5.42 0 0 0-1.866.216c-.064-.024-.106-.08-.157-.103l-.985-.527-.945.581c-.224.134-.357.307-.529.463-.035-.019-.054-.047-.088-.068l-.996-.494s-.807.522-.888.585c-.93-.446-1.915-.681-2.879-.642l-1.271.06s-.05.128-.058.173c-.68-.698-1.588-1.2-2.6-1.501l-.236-1.033-1.063-.31c-.04-.004-.082-.004-.118-.009a4.087 4.087 0 0 0-.09-.763l-.266-1.047-1.066-.272c-.275-.99-.758-1.899-1.447-2.588l-.888-.88-1.187.474c-.912.363-1.718 1.016-2.377 1.822-.04-.003-1.078-.148-1.078-.148l-.67.863c-.17.21-.303.431-.414.653-.035-.005-.055-.014-.088-.024l-1.102-.128s-.626.838-.65.866c-1.054-.094-2.099.023-2.999.403 0 0-.263.105-.522.216-.315-.213-.668-.446-.668-.446-.846-.584-1.915-.885-3.023-.99-.01-.01-.01-.033-.03-.06l-.45-.995-1.111-.091c-.07-.005-.13-.005-.194-.005a3.371 3.371 0 0 0-.278-.803l-.477-.982-1.105-.048h-.045c-.492-.996-1.187-1.83-2.06-2.403l-1.06-.701-1.045.7c-.87.574-1.559 1.408-2.054 2.404h-.044l-1.112.048-.474.982c-.139.273-.217.54-.281.803-.07 0-.127 0-.194.005l-1.102.09-.456.997c-.015.023-.02.048-.025.059-1.111.105-2.184.406-3.026.99 0 0-.405.262-.704.469a82.082 82.082 0 0 0-.601-.239c-.906-.38-1.951-.497-3.012-.403-.024-.028-.625-.865-.625-.865l-1.12.127c-.035.01-.06.019-.09.024-.118-.222-.236-.443-.406-.653l-.67-.863s-1.045.145-1.081.148c-.656-.806-1.468-1.459-2.39-1.822l-1.171-.474-.894.88c-.689.69-1.166 1.597-1.453 2.588-.025.009-1.045.272-1.045.272l-.275 1.047c-.07.275-.084.508-.093.763-.03.003-.08.003-.112.01l-1.075.309s-.233.99-.236 1.033c-1.003.3-1.909.803-2.588 1.5-.015-.046-.064-.172-.064-.172l-1.28-.06c-.952-.041-1.942.196-2.876.642a55.51 55.51 0 0 0-.879-.585l-.996.494c-.035.023-.058.051-.09.068-.167-.156-.318-.33-.533-.463l-.951-.581-.966.527c-.055.024-.115.08-.154.103a5.56 5.56 0 0 0-1.876-.216c-1.694.153-3.208 1.053-4.283 2.568l-1.903 2.673 3.356.193c.02 0 1.836.13 3.087 1.382.915.927 10.275 18.236 10.275 18.236l1.574-.63c9.317-3.632 18.466-5.402 27.962-5.402 9.541 0 18.71 1.776 28.059 5.45l1.577.616s9.278-17.343 10.197-18.27c1.244-1.252 3.06-1.382 3.074-1.382l3.335-.193-1.885-2.673zm-21.493-1.056a9.81 9.81 0 0 0-.082.448s1.335.069 1.806.097l-1.682.638s.12.245.194.335c-.324-.085-.644-.179-.9-.247l-.568-.164s-.72-.182-.734-.182c.984-.463 1.498-.707 1.966-.925zm-3.117-2.568s.546-1.203.737-1.6c0 .448.025 1.753.025 1.753l.413-.056c-.208.346-.607.959-1.202 1.9-.17-1.094-.274-1.812-.329-2.204.106.057.353.207.353.207zm-3.25 1.77s.07-.289.12-.447c.336.386.71.794 1.423 1.606-.04-.014-.752-.105-.752-.105l-.589-.071c-.257-.033-.57-.069-.915-.12.079-.065.299-.23.299-.23s-.954-.913-1.272-1.23c.423.153 1.686.598 1.686.598zm-12.966-1.977c.02.236.02.582.02.582l2.105-.312c.035-.01.057 0 .09-.01-.034.02-.034.047-.066.063l-1.776 1.132.323.383c-.423-.014-.857-.046-1.214-.071l-.616-.054-.846-.051s-.187-.005-.238-.005c1.1-.834 1.77-1.31 2.22-1.657zm-3.95-1.938.449-2.017c.003-.024.025-.049.025-.071.005.023.03.048.04.07l.443 2.018s.33-.113.523-.176c-.133.335-.493 1.345-1.006 2.673-.486-1.328-.867-2.338-.99-2.673.19.063.516.176.516.176zm-5.108 2.208 2.099.312s0-.347.01-.582c.465.346 1.12.823 2.232 1.657-.097 0-1.078.057-1.078.057l-.626.054c-.362.023-.785.056-1.22.07.124-.14.345-.382.345-.382l-1.782-1.132c-.025-.019-.052-.042-.082-.063.044.01.066 0 .102.01zm-11.067 1.26c.03.158.112.448.112.448s1.254-.446 1.692-.599c-.332.318-1.278 1.231-1.278 1.231s.205.165.299.23c-.335.051-.658.088-.921.12l-.595.07c.01 0-.523.065-.523.065s-.18.024-.226.042c.715-.811 1.096-1.22 1.44-1.606zm-3.902-1.17s.02-1.305.025-1.753c.184.397.734 1.6.734 1.6s.244-.15.362-.207c-.057.391-.172 1.11-.341 2.205-.59-.942-.988-1.555-1.193-1.901l.413.056zm-2.283 2.864s-.05-.296-.079-.449c.477.219.99.463 1.972.925-.01 0-.734.182-.734.182l-.57.165c-.245.068-.568.162-.882.247.05-.091.172-.335.172-.335l-1.676-.639c.468-.027 1.797-.096 1.797-.096zm-11.106 4.46s-.51.241-.997.485c-.052-.05-.085-.102-.136-.178.26-.659.408-1.033.534-1.393.082.105.242.337.242.337s.746-.61 1.202-.996c-.257.528-.664 1.393-.664 1.393s.226.065.301.09l-.483.262zm68.77.505c-.496-.264-.985-.505-.985-.505-.127-.065-.296-.159-.492-.261.081-.023.299-.09.299-.09s-.411-.866-.656-1.394a63.63 63.63 0 0 0 1.202.996s.166-.233.233-.338c.145.36.29.735.54 1.394-.05.076-.081.128-.142.198z"/><path d="M256.103 181.621c-2.836-.82-4.449-3.737-3.615-6.495.852-2.77 3.854-4.333 6.696-3.507 2.849.814 4.477 3.723 3.628 6.492-.849 2.75-3.854 4.333-6.708 3.51z" fill="#4c86c7"/><path d="M244.4 345.83c-.573-.176-.899-.804-.73-1.397.172-.596.778-.932 1.353-.755.575.176.904.801.733 1.397-.172.591-.78.932-1.356.755z" fill="none" stroke="#000" stroke-width=".208" transform="matrix(4.94855 0 0 4.64896 -953.321 -1426.128)"/><path d="M257.588 214.07c-10.949 0-21.635 2.047-31.81 5.994l3.144 5.777c9.221-3.6 18.581-5.544 28.666-5.544 10.133 0 19.53 1.96 28.772 5.581l3.156-5.768c-10.215-3.975-20.934-6.038-31.928-6.038z" fill="#fc0"/><path d="M300.393 206.726c-1.592-2.24-3.99-2.05-4.842-1.212a2.81 2.81 0 0 0-.83-.695c-.698.425-1.024 1.217-1.236 2.1-.257-.704-.634-1.297-1.265-1.624-.302.21-.574.463-.767.764-.922-.764-2.024-1.152-3.027-1.104-.326.928-.241 2.06.278 3.13-.368.1-.682.27-.96.513.247 1.19 1.61 1.913 2.863 2.554-.682.942-1.83 2.57-2.401 3.416-1.105-.357-1.915-1.342-1.915-2.542 0-.34.063-.673.19-.985.064-.17.106-.329.106-.493 0-.557-.35-1.07-.903-1.294-.725-.273-1.555.054-1.848.76-.504 1.186-1.685 1.955-3.002 1.955-1.788 0-3.241-1.39-3.25-3.124l.293-1.552c.26.057.537.119.818.204 1.586.434 3.528 1.15 4.806.298a3.292 3.292 0 0 0-.33-1.038c1.148-.446 2.027-1.226 2.471-2.131-.71-.741-1.812-1.204-3.05-1.266a2.52 2.52 0 0 0-.025-1.084c-.683-.196-1.41-.019-2.117.306.492-.788.821-1.6.619-2.389a2.684 2.684 0 0 0-1.12-.065c-.026-1.209-.45-2.29-1.176-3.01-.963.388-1.794 1.228-2.298 2.31a2.966 2.966 0 0 0-1.054-.355c-.523.65-.547 1.523-.405 2.437-.51-.567-1.108-1.016-1.827-1.095a2.743 2.743 0 0 0-.46.993c-1.166-.417-2.368-.406-3.313-.003.035 1.005.535 2.057 1.426 2.906-.296.235-.55.508-.728.831.815 1.263 2.887 1.35 4.527 1.558.166.003.314.032.468.057l-.235 1.228a1.7 1.7 0 0 0-.203.369c-.468 1.246-1.697 2.088-3.062 2.088-1.791 0-3.25-1.41-3.25-3.15 0-.768-.625-1.37-1.399-1.378h-.172c-.637 0-1.199.411-1.365 1.015-.399 1.371-1.667 2.313-3.132 2.313-1.803 0-3.256-1.413-3.256-3.155v-.744c.247.005.51.024.794.047 1.75.128 3.906.462 5.032-.673a2.866 2.866 0 0 0-.577-1.013c1.094-.68 1.855-1.68 2.105-2.712-.9-.61-2.138-.863-3.428-.678a2.724 2.724 0 0 0-.265-1.121c-.762-.065-1.453.275-2.133.763.35-.916.52-1.833.133-2.608a3.199 3.199 0 0 0-1.172.16c-.278-1.235-.964-2.282-1.885-2.875-.9.593-1.583 1.64-1.863 2.874a3.257 3.257 0 0 0-1.166-.159c-.387.775-.23 1.692.123 2.608-.673-.488-1.38-.829-2.132-.763-.166.349-.263.732-.266 1.12-1.295-.184-2.54.069-3.434.679.254 1.033 1 2.031 2.114 2.712a2.617 2.617 0 0 0-.576 1.013c1.12 1.135 3.283.8 5.02.673.24-.019.467-.023.697-.042v.738c0 1.742-1.468 3.155-3.256 3.155-1.465 0-2.76-.942-3.144-2.313-.163-.604-.725-1.015-1.368-1.015h-.164c-.779.009-1.4.61-1.4 1.379 0 1.74-1.46 3.15-3.254 3.15-1.371 0-2.6-.843-3.063-2.09a1.44 1.44 0 0 0-.199-.368l-.247-1.228c.15-.024.314-.054.47-.057 1.647-.207 3.719-.295 4.546-1.558a2.92 2.92 0 0 0-.737-.831c.885-.849 1.387-1.901 1.423-2.906-.942-.403-2.15-.414-3.31.003a2.798 2.798 0 0 0-.463-.993c-.715.08-1.301.528-1.827 1.095.145-.914.112-1.788-.399-2.437a3.139 3.139 0 0 0-1.063.354c-.501-1.08-1.335-1.92-2.295-2.31-.72.721-1.151 1.802-1.17 3.011a2.692 2.692 0 0 0-1.126.065c-.196.79.127 1.6.616 2.39-.7-.327-1.425-.503-2.123-.307-.079.35-.085.732-.02 1.084-1.232.062-2.334.525-3.05 1.266.435.905 1.332 1.685 2.482 2.13-.18.33-.296.673-.332 1.04 1.266.85 3.199.135 4.79-.299.303-.085.568-.147.816-.204l.311 1.552c-.02 1.734-1.473 3.124-3.25 3.124-1.331 0-2.515-.769-3.014-1.955-.287-.706-1.117-1.033-1.851-.76a1.392 1.392 0 0 0-.789 1.787c.127.312.187.644.187.985 0 1.2-.809 2.185-1.917 2.542-.56-.845-1.719-2.474-2.405-3.416 1.269-.641 2.625-1.365 2.879-2.554a2.494 2.494 0 0 0-.96-.513c.507-1.07.597-2.202.265-3.13-1.006-.048-2.105.34-3.02 1.104a3.146 3.146 0 0 0-.761-.764c-.629.327-1.012.92-1.287 1.623-.19-.882-.529-1.674-1.22-2.1-.33.18-.604.412-.834.696-.849-.837-3.265-1.027-4.842 1.212 0 0 2.52.099 4.338 1.937 1.048 1.053 1.872 2.177 2.383 2.895.034.119.078.227.142.334l3.144 4.748c.211.519.731.848 1.308.848 2.42 0 4.467-1.504 5.258-3.592.894.493 1.91.817 2.996.817a6.08 6.08 0 0 0 5.274-3.028c1.081.922 2.447 1.496 3.945 1.496a6.098 6.098 0 0 0 5.165-2.824 6.142 6.142 0 0 0 4.165 1.629c1.884 0 3.579-.848 4.684-2.156a6.19 6.19 0 0 0 4.706 2.156 6.142 6.142 0 0 0 4.156-1.629 6.08 6.08 0 0 0 5.162 2.824c1.504 0 2.872-.574 3.935-1.496a6.12 6.12 0 0 0 5.292 3.028c1.081 0 2.093-.324 2.996-.817.788 2.088 2.833 3.592 5.252 3.592.571 0 1.088-.33 1.308-.848l3.126-4.748a1.1 1.1 0 0 0 .166-.334 21.28 21.28 0 0 1 2.377-2.895c1.825-1.838 4.335-1.937 4.335-1.937z" fill="#ecd21c"/><path d="M269.02 217.697c0-.973-.856-1.78-1.895-1.78-1.036 0-1.878.807-1.878 1.78 0 .982.842 1.782 1.878 1.782 1.04 0 1.894-.8 1.894-1.782z" fill="#be0027"/><path d="M247.01 353.59a.385.385 0 0 0-.383-.383.383.383 0 0 0 0 .766c.21 0 .383-.172.383-.383z" fill="none" stroke="#000" stroke-width=".208" transform="matrix(4.94855 0 0 4.64896 -953.321 -1426.128)"/><path d="M284.26 220.812c0-.982-.842-1.782-1.89-1.782-1.033 0-1.888.8-1.888 1.782 0 .999.855 1.793 1.888 1.793 1.048 0 1.89-.794 1.89-1.793z" fill="#be0027"/><path d="M250.09 354.26a.383.383 0 1 0-.764 0 .382.382 0 1 0 .764 0z" fill="none" stroke="#000" stroke-width=".208" transform="matrix(4.94855 0 0 4.64896 -953.321 -1426.128)"/><path d="M250.215 217.697c0-.973-.837-1.78-1.876-1.78-1.045 0-1.888.807-1.888 1.78 0 .982.843 1.782 1.888 1.782 1.039 0 1.876-.8 1.876-1.782z" fill="#be0027"/><path d="M243.21 353.59c0-.21-.17-.383-.379-.383a.383.383 0 0 0 0 .766c.21 0 .379-.172.379-.383zM240.14 354.26a.38.38 0 1 0-.763 0c0 .215.173.386.382.386a.38.38 0 0 0 .381-.386z" fill="none" stroke="#000" stroke-width=".208" transform="matrix(4.94855 0 0 4.64896 -953.321 -1426.128)"/><path d="m257.736 215.466-5.463 1.787 5.463 1.78 5.461-1.78z" fill="#be0027"/><path d="m244.73 353.11-1.104.385 1.104.382 1.103-.382z" fill="none" stroke="#000" stroke-width=".208" transform="matrix(4.94855 0 0 4.64896 -953.321 -1426.128)"/><path d="m288.912 221.416-1.353 3.326-2.283-2.755z" fill="#be0027"/><path d="m251.03 354.39-.273.715-.462-.592z" fill="none" stroke="#000" stroke-width=".208" transform="matrix(4.94855 0 0 4.64896 -953.321 -1426.128)"/><path d="m226.264 221.416 1.365 3.326 2.268-2.755z" fill="#be0027"/><path d="m238.37 354.39.276.715.458-.592z" fill="none" stroke="#000" stroke-width=".208" transform="matrix(4.94855 0 0 4.64896 -953.321 -1426.128)"/><path d="M244.425 218.301c.205.96-.447 1.904-1.465 2.109l-3.691.726c-1.024.196-2.018-.425-2.232-1.39-.202-.962.444-1.907 1.468-2.109l3.685-.726c1.02-.201 2.02.423 2.235 1.39z" fill="#4c86c7"/><path d="M242.04 353.72a.386.386 0 0 1-.296.453l-.746.157a.383.383 0 0 1-.45-.3.385.385 0 0 1 .296-.453l.744-.156a.383.383 0 0 1 .452.299z" fill="none" stroke="#000" stroke-width=".208" transform="matrix(4.94855 0 0 4.64896 -953.321 -1426.128)"/><path d="M271.048 218.301c-.2.96.456 1.904 1.468 2.109l3.69.726c1.013.196 2.01-.425 2.224-1.39.22-.962-.435-1.907-1.456-2.109l-3.697-.726c-1.012-.201-2.012.423-2.229 1.39z" fill="#4c86c7"/><path d="M247.42 353.72c-.04.206.092.41.297.453l.745.157a.382.382 0 0 0 .45-.3.381.381 0 0 0-.294-.453l-.748-.156a.383.383 0 0 0-.45.299z" fill="none" stroke="#000" stroke-width=".208" transform="matrix(4.94855 0 0 4.64896 -953.321 -1426.128)"/><path d="M259.468 202.309c0-.99-.842-1.785-1.887-1.785-1.04 0-1.882.795-1.882 1.785 0 .993.843 1.788 1.882 1.788 1.045 0 1.887-.795 1.887-1.788z" fill="#fff"/><path d="M245.08 350.28a.382.382 0 1 0-.762 0 .382.382 0 1 0 .762 0z" fill="none" stroke="#000" stroke-width=".208" transform="matrix(4.94855 0 0 4.64896 -953.321 -1426.128)"/><path d="M279.015 204.262c0-.994-.846-1.788-1.89-1.788-1.037 0-1.885.794-1.885 1.788 0 .987.848 1.784 1.884 1.784 1.045 0 1.891-.797 1.891-1.784z" fill="#fff"/><path d="M249.03 350.7a.382.382 0 0 0-.382-.385c-.21 0-.38.171-.38.385 0 .212.17.384.38.384a.383.383 0 0 0 .382-.384z" fill="none" stroke="#000" stroke-width=".208" transform="matrix(4.94855 0 0 4.64896 -953.321 -1426.128)"/><path d="M296.187 210.63c0-.975-.831-1.779-1.873-1.779-1.033 0-1.882.804-1.882 1.78 0 .987.849 1.787 1.882 1.787 1.042 0 1.873-.8 1.873-1.787z" fill="#fff"/><path d="M252.5 352.07a.38.38 0 0 0-.378-.383.383.383 0 0 0 0 .768.38.38 0 0 0 .378-.385z" fill="none" stroke="#000" stroke-width=".208" transform="matrix(4.94855 0 0 4.64896 -953.321 -1426.128)"/><path d="M236.16 204.262c0-.994.837-1.788 1.888-1.788 1.04 0 1.876.794 1.876 1.788 0 .987-.837 1.784-1.876 1.784-1.05 0-1.887-.797-1.887-1.784z" fill="#fff"/><path d="M240.37 350.7a.381.381 0 1 1 .76 0 .38.38 0 1 1-.76 0z" fill="none" stroke="#000" stroke-width=".208" transform="matrix(4.94855 0 0 4.64896 -953.321 -1426.128)"/><path d="M218.99 210.63c0-.975.848-1.779 1.89-1.779 1.033 0 1.879.804 1.879 1.78 0 .987-.846 1.787-1.879 1.787-1.042 0-1.89-.8-1.89-1.787z" fill="#fff"/><path d="M236.9 352.07c0-.21.172-.383.382-.383.209 0 .38.173.38.383 0 .212-.171.385-.38.385a.384.384 0 0 1-.382-.385z" fill="none" stroke="#000" stroke-width=".208" transform="matrix(4.94855 0 0 4.64896 -953.321 -1426.128)"/><path d="M259.518 175.485v-6.564h2.365v-3.66h-2.365v-2.29h-3.77v2.29h-2.361v3.66h2.361v6.564h-3.319v2.366h10.399v-2.366Z" fill="#fc0"/><path d="M245.09 344.51v-1.412h.478v-.787h-.478v-.493h-.762v.493h-.477v.787h.477v1.412h-.67v.509h2.1v-.509Z" fill="none" stroke="#000" stroke-width=".208" transform="matrix(4.94855 0 0 4.64896 -953.321 -1426.128)"/><path d="M205.579 228.343h103.75v85.48c0 28.222-51.865 28.222-51.865 28.222s-51.885 0-51.885-28.221z" fill="#0077c8"/><path d="M234.19 355.88h20.966v18.387c0 6.07-10.481 6.07-10.481 6.07s-10.485 0-10.485-6.07z" fill="none" stroke="#000" stroke-linecap="round" stroke-linejoin="round" stroke-width=".662" transform="matrix(4.94855 0 0 4.64896 -953.321 -1426.128)"/><path d="M163.912 300.17c5.37 1.969 9.9 5.686 12.9 10.462l.057.102a6.665 6.665 0 0 1 .943 3.428 6.676 6.676 0 0 1-1.912 4.676l-.058.051a8.129 8.129 0 0 0-2.268 5.638 8.14 8.14 0 0 0 6.415 7.965l.05.019c4.352.897 7.63 4.747 7.63 9.372h-9.554c-2.08 0-4.222-1.095-5.385-3.507-1.752-3.882-6.137-10.663-9.985-12.47.111-.66 1.431-2.49 1.431-3.182 0-5.499-3.77-5.323-8.907-6.523l-1.676-.286s.994-3.757 3.467-7.94c2.477-4.177 6.854-7.806 6.854-7.806z" fill="#c88242"/><path d="M225.77 371.33c1.085.424 2 1.223 2.607 2.25l.011.022c.122.216.19.47.19.738 0 .39-.147.747-.386 1.006l-.011.01a1.81 1.81 0 0 0-.459 1.213c0 .843.557 1.545 1.297 1.714l.01.004c.88.193 1.542 1.02 1.542 2.016h-1.93c-.421 0-.854-.236-1.09-.755-.353-.835-1.24-2.293-2.017-2.682.023-.142.29-.535.29-.684 0-1.183-.762-1.145-1.8-1.404l-.34-.061s.202-.808.701-1.708c.5-.898 1.385-1.68 1.385-1.68z" fill="none" stroke="#000" stroke-linecap="round" stroke-linejoin="round" stroke-width=".428" transform="matrix(4.94855 0 0 4.64896 -953.321 -1426.128)"/><path d="m185.982 243.917 13.568-19.74.054-.042a7.055 7.055 0 0 1 5.775-2.982 7.091 7.091 0 0 1 7.09 7.094h-7.09l-5.639 10.03-3.64 14.922-2.035 2.846-.17.363" fill="#c88242"/><path d="m230.23 359.23 2.742-4.246.01-.01c.26-.39.687-.64 1.168-.64.79 0 1.432.682 1.432 1.525h-1.432l-1.14 2.158-.735 3.21-.412.612-.034.078" fill="none" stroke="#000" stroke-linecap="round" stroke-linejoin="round" stroke-width=".428" transform="matrix(4.94855 0 0 4.64896 -953.321 -1426.128)"/><path d="M133.231 312.629a23.665 23.665 0 0 0-.178 2.897c0 1.243.093 2.483.272 3.703l.02.125c.066.468.105.95.105 1.441 0 4.552-2.884 8.41-6.922 9.895l-.03.046c-.07.673-.109 1.365-.109 2.06 0 4.265 1.383 8.175 3.71 11.39l.117.23a23.41 23.41 0 0 1 3.839 8.85c.782 3.294 3.521 4.628 5.648 4.628h11.151a9.55 9.55 0 0 0-9.554-9.56l-.084-.018a11.74 11.74 0 0 1-3.35-8.232 11.79 11.79 0 0 1 7.3-10.905l.052-.05c5.101-2.129 8.687-7.154 8.687-13.022l.044-.14c4.452-12.615 13.845-22.881 25.863-28.497l.085-.032c8.85-3.856 15.023-12.746 15.023-23.026 0-7.923-3.67-14.971-9.4-19.565 0 0 .076-9.193.076-11.45 1.215-1.035 2.22-1.781 5.22-3.998 3.977-2.925 6.693-4.977 7.575-9.389.535-2.758 2.093-12.048-1.836-11.48-3.915.559-9.608 2.866-9.608 2.866-2.271-.911-2.875-2.077-5.473-2.077-1.728 0-4.86.854-6.46 1.26-8.63 2.218-15.005 10.064-15.005 19.388l.153 22.138c0 15.981-8.064 30.066-20.35 38.42l-.026.042c-5.186 3.442-9.024 8.742-10.556 14.945l-.03.162c-.721 2.832-3.283 4.435-5.566 4.435-2.29 0-4.57-.86-6.316-2.608-3.473-3.47-3.473-9.128 0-12.615 1.172-1.19 1.172-3.085 0-4.254a3.008 3.008 0 0 0-4.25 0c-5.81 5.826-5.81 15.315 0 21.131 5.522 5.513 14.302 5.8 20.17.866" fill="#c88242"/><path d="M219.57 374.01a5.414 5.414 0 0 0-.036.623c0 .267.019.534.055.797l.004.027c.013.1.021.204.021.31 0 .979-.583 1.809-1.399 2.128l-.006.01a4.34 4.34 0 0 0 .728 2.893l.024.05c.375.566.642 1.207.775 1.903.159.709.712.996 1.142.996h2.253c0-1.138-.863-2.057-1.93-2.057l-.017-.004a2.612 2.612 0 0 1-.677-1.77c0-1.059.61-1.968 1.475-2.346l.01-.01c1.031-.459 1.756-1.54 1.756-2.802l.009-.03c.9-2.713 2.797-4.922 5.226-6.13l.017-.007c1.788-.83 3.036-2.741 3.036-4.953 0-1.704-.741-3.22-1.9-4.208 0 0 .016-1.978.016-2.463.245-.223.449-.383 1.055-.86.804-.63 1.352-1.07 1.53-2.02.109-.593.423-2.591-.37-2.469-.792.12-1.942.617-1.942.617-.46-.196-.581-.447-1.106-.447-.35 0-.982.183-1.306.27-1.743.478-3.032 2.166-3.032 4.171l.031 4.762c0 3.438-1.63 6.468-4.112 8.264l-.005.01a5.433 5.433 0 0 0-2.134 3.214l-.005.035c-.146.61-.664.954-1.125.954a1.74 1.74 0 0 1-1.277-.56c-.701-.747-.701-1.964 0-2.715a.678.678 0 0 0 0-.914.582.582 0 0 0-.858 0c-1.175 1.253-1.175 3.294 0 4.545 1.115 1.186 2.89 1.247 4.076.186a5.62 5.62 0 0 1 0 0" fill="none" stroke="#000" stroke-linecap="round" stroke-linejoin="round" stroke-width=".428" transform="matrix(4.94855 0 0 4.64896 -953.321 -1426.128)"/><path d="M166.287 223.322s-1.489 4.186.55 8.362c1.398 2.889 4.28 4.566 7.291 4.591 1.821-2.386 2.274-5.686.858-8.566-.136-.29-3.368-6.81-3.368-6.81" fill="#c88242"/><path d="M226.25 354.8s-.3.9.111 1.799c.283.621.865.982 1.473.987a1.85 1.85 0 0 0 .174-1.842 663.22 663.22 0 0 0-.68-1.465" fill="none" stroke="#000" stroke-linecap="round" stroke-linejoin="round" stroke-width=".428" transform="matrix(4.94855 0 0 4.64896 -953.321 -1426.128)"/><path d="M183.954 217.325c-.9.355-1.825.434-2.595.261.441-.655 1.154-1.245 2.05-1.608z"/><path d="M229.82 353.51a.86.86 0 0 1-.524.056.924.924 0 0 1 .414-.346z" fill="none" stroke="#000" stroke-width=".428" transform="matrix(4.94855 0 0 4.64896 -953.321 -1426.128)"/><path d="M183.855 260.84c5.862 3.115 12.41-.02 15.63-5.213 1.124-1.8.529-4.804 1.169-6.586l.054-.11c.689-1.933 2.553-3.343 4.733-3.343l.01 14.79s-1.422 1.415-5.11 5.104c-3.691 3.689-7.738 8.95-11.991 7.718-4.244-1.226-18.228-4.466-18.228-4.466" fill="#c88242"/><path d="M229.8 362.87c1.185.67 2.508-.004 3.159-1.121.227-.387.106-1.034.236-1.417l.01-.024c.14-.415.517-.719.957-.719l.002 3.182-1.032 1.098c-.746.793-1.564 1.925-2.424 1.66-.857-.264-3.683-.96-3.683-.96" fill="none" stroke="#000" stroke-linecap="round" stroke-linejoin="round" stroke-width=".428" transform="matrix(4.94855 0 0 4.64896 -953.321 -1426.128)"/><path d="M192.811 208.91a5.924 5.924 0 0 0 5.917 5.92v-3.811c-.002-1.57-.55-2.338-2.12-2.108h-1.897z"/><path d="M231.61 351.73c0 .702.536 1.273 1.196 1.273v-.82c0-.337-.111-.502-.429-.453h-.383z" fill="none" stroke="#000" stroke-width=".221" transform="matrix(4.94855 0 0 4.64896 -953.321 -1426.128)"/><path d="M198.502 218.952s-3.975 3.967-8.904 5.241"/><path d="M232.76 353.86s-.803.853-1.8 1.127" fill="none" stroke="#000" stroke-linecap="round" stroke-linejoin="round" stroke-width=".428" transform="matrix(4.94855 0 0 4.64896 -953.321 -1426.128)"/><path d="M273.374 331.039 261.226 318.4c-2.13-2.233-5.548-2.233-7.684 0L241.42 331.04z" fill="#fff"/><path d="m247.89 377.97-2.455-2.719c-.43-.48-1.121-.48-1.553 0l-2.45 2.719z" fill="none" stroke="#000" stroke-width=".443" transform="matrix(4.94855 0 0 4.64896 -953.321 -1426.128)"/><path d="m250.413 254.75-12.133-12.63c-2.133-2.237-5.555-2.237-7.678-.01l-12.133 12.641h31.944z" fill="#fff"/><path d="m243.25 361.56-2.452-2.717c-.43-.48-1.122-.48-1.551-.002l-2.452 2.72 6.455-.001z" fill="none" stroke="#000" stroke-width=".443" transform="matrix(4.94855 0 0 4.64896 -953.321 -1426.128)"/><path d="m296.483 254.75-12.138-12.63c-2.136-2.237-5.552-2.237-7.67-.01l-12.138 12.641h31.946z" fill="#fff"/><path d="m252.56 361.56-2.453-2.717c-.432-.48-1.122-.48-1.55-.002l-2.453 2.72 6.456-.001z" fill="none" stroke="#000" stroke-width=".443" transform="matrix(4.94855 0 0 4.64896 -953.321 -1426.128)"/><path d="m250.413 279.993-12.133-12.63c-2.133-2.221-5.555-2.221-7.678-.01l-12.133 12.64h31.944z" fill="#fff"/><path d="m243.25 366.99-2.452-2.717a1.02 1.02 0 0 0-1.551-.002l-2.452 2.719h6.455z" fill="none" stroke="#000" stroke-width=".443" transform="matrix(4.94855 0 0 4.64896 -953.321 -1426.128)"/><path d="m296.483 279.993-12.138-12.63c-2.136-2.221-5.552-2.221-7.67-.01l-12.138 12.64h31.946z" fill="#fff"/><path d="m252.56 366.99-2.453-2.717c-.432-.478-1.122-.478-1.55-.002l-2.453 2.719h6.456z" fill="none" stroke="#000" stroke-width=".443" transform="matrix(4.94855 0 0 4.64896 -953.321 -1426.128)"/><path d="m250.413 305.609-12.133-12.656c-2.133-2.23-5.555-2.23-7.678 0l-12.133 12.656z" fill="#fff"/><path d="m243.25 372.5-2.452-2.722c-.43-.48-1.122-.48-1.551 0l-2.452 2.722z" fill="none" stroke="#000" stroke-width=".443" transform="matrix(4.94855 0 0 4.64896 -953.321 -1426.128)"/><path d="m296.483 305.609-12.138-12.656c-2.136-2.23-5.552-2.23-7.67 0l-12.138 12.656z" fill="#fff"/><path d="m252.56 372.5-2.453-2.722c-.432-.48-1.122-.48-1.55 0l-2.453 2.722z" fill="none" stroke="#000" stroke-width=".443" transform="matrix(4.94855 0 0 4.64896 -953.321 -1426.128)"/><path d="M310.141 149.218c4.045 7.712 18.67 9.903 23.565 9.795 2.438-.049 4.742-.46 6.835-1.314-.23.72-.504 1.41-.836 2.077-2.07 4.302-6.044 7.604-10.913 8.941 1.577 4.66 5.162 6.288 9 7.74-4.264 1.252-32.051 3.42-49.92-14.06" fill="#768692"/><path d="M255.32 338.86c.817 1.659 3.773 2.13 4.762 2.107a3.64 3.64 0 0 0 1.381-.283 3.242 3.242 0 0 1-.169.447 3.507 3.507 0 0 1-2.205 1.923c.319 1.002 1.043 1.353 1.819 1.665-.862.27-6.477.736-10.088-3.024" fill="none" stroke="#000" stroke-linecap="round" stroke-linejoin="round" stroke-width=".443" transform="matrix(4.94855 0 0 4.64896 -953.321 -1426.128)"/><path d="M204.342 149.218c-4.036 7.712-18.66 9.903-23.568 9.795-2.423-.049-4.73-.46-6.83-1.314.23.72.502 1.41.831 2.077 2.066 4.302 6.05 7.604 10.913 8.941-1.58 4.66-5.147 6.288-8.992 7.74 4.256 1.252 32.046 3.42 49.921-14.06" fill="#768692"/><path d="M233.94 338.86c-.815 1.659-3.77 2.13-4.763 2.107a3.65 3.65 0 0 1-1.38-.283 3.509 3.509 0 0 0 2.373 2.37c-.319 1.002-1.04 1.353-1.817 1.665.86.27 6.476.736 10.088-3.024" fill="none" stroke="#000" stroke-linecap="round" stroke-linejoin="round" stroke-width=".443" transform="matrix(4.94855 0 0 4.64896 -953.321 -1426.128)"/><path d="m290.694 157.958-2.87 4.63s3.35.79 6.815 1.581c3.467.786 5.131.179 7.535-2.366 2.86-3.065 5.972-7.585 5.972-7.585l.034-.077a10.272 10.272 0 0 0 1.885-5.939c0-5.238-3.966-9.599-9.197-10.578l-.109-.033a256.038 256.038 0 0 0-43.194-3.657h-.63c-14.74 0-29.183 1.26-43.189 3.657l-.118.033c-5.246.979-9.202 5.34-9.202 10.578 0 2.205.703 4.24 1.893 5.94l.035.076s3.102 4.52 5.962 7.585c2.407 2.545 4.08 3.152 7.545 2.366 3.458-.791 6.814-1.58 6.814-1.58l-2.87-4.631-.39-.803-5.52.777a232.993 232.993 0 0 1 39.04-3.274h.632a233.28 233.28 0 0 1 39.047 3.274l-5.424-.737-.493.763z" fill="#768692"/><path d="m251.39 340.74-.58.996s.677.17 1.377.34 1.037.038 1.523-.509c.578-.66 1.207-1.631 1.207-1.631l.007-.017c.24-.366.38-.803.38-1.277a2.32 2.32 0 0 0-1.858-2.276l-.022-.007a48.688 48.688 0 0 0-8.729-.787h-.127c-2.979 0-5.897.271-8.728.787l-.023.007a2.318 2.318 0 0 0-1.86 2.276c0 .474.142.911.383 1.277l.007.017s.626.972 1.204 1.631c.487.548.825.678 1.525.51.699-.171 1.377-.34 1.377-.34l-.58-.997-.078-.173-1.116.168a44.305 44.305 0 0 1 7.89-.705h.127c2.691 0 5.33.242 7.89.705l-1.096-.16-.1.165z" fill="none" stroke="#000" stroke-linecap="round" stroke-linejoin="round" stroke-width=".443" transform="matrix(4.94855 0 0 4.64896 -953.321 -1426.128)"/><path d="M223.591 152.751c-2.223.42-4.62-.375-5.391-3.689-.674-2.877 1.22-4.985 3.322-5.394 2.22-.431 4.619.335 5.382 3.646.68 2.886-1.21 5.025-3.313 5.437zm-1.911-7.953c-1.04.201-1.746 1.021-1.097 3.833.653 2.81 1.818 3.181 2.854 2.982 1.048-.21 1.74-1.052 1.085-3.864-.656-2.807-1.806-3.153-2.842-2.951zM240.268 149.776c-.39.207-1.31.604-2.283.723-3 .363-5.434-1.302-5.817-3.95-.408-2.862 1.634-4.863 4.702-5.24.592-.074 1.378-.074 1.858-.005.112.005.211.1.22.21l.302 2.043c.01.114-.044.176-.175.199l-.583.07a.217.217 0 0 1-.235-.135l-.242-.693c-.15-.405-.552-.561-1.323-.468-1.945.236-2.386 1.873-2.153 3.453.269 1.865 1.456 3.417 3.802 3.127a4.129 4.129 0 0 0 1.405-.454c.133-.085.266.01.317.105l.26.735c.044.097.03.23-.054.28zM253.332 148.939c0 .122-.054.241-.154.241l-7.17.372c-.124.01-.214-.054-.22-.187l-.025-.383c-.01-.108.044-.204.187-.236l.676-.159c.137-.028.251-.167.23-.454l-.372-6.061c-.014-.286-.145-.411-.287-.431l-.691-.083c-.142-.018-.206-.1-.217-.201l-.02-.397c-.01-.125.063-.199.205-.207l6.941-.355c.097-.003.2.09.202.204l.103 1.708c.01.116-.058.188-.181.193l-.502.033c-.106 0-.2-.054-.22-.165l-.157-.477c-.067-.224-.257-.334-.52-.32l-2.229.113c-.093 0-.16.074-.16.173l.139 2.145c.003.088.079.15.178.145l3.111-.154c.136-.018.211.052.211.165l.052.769c0 .119-.073.198-.194.201l-3.114.148c-.093.014-.154.082-.154.167l.145 2.375c.02.366.227.448.49.431l2.184-.11c.265-.01.47-.157.516-.389l.1-.494c.02-.11.096-.175.202-.175l.52-.028c.126-.01.208.046.208.173l-.015 1.708zM268.97 149.264l-4.045-.096c-.126 0-.214-.068-.205-.198l.01-.392c.003-.093.066-.19.208-.218l.68-.097c.18-.027.287-.187.205-.442l-.314-.97c-.03-.074-.07-.154-.166-.154l-3.377-.071c-.097 0-.145.071-.181.142l-.408.956c-.109.253.003.417.172.442l.686.137c.142.032.2.116.2.22l-.01.395c-.006.136-.1.19-.224.19l-3.338-.07c-.136-.004-.22-.078-.22-.202l.02-.389c0-.105.051-.184.208-.218l.396-.114c.175-.042.26-.119.417-.44l3.494-7.476c.02-.054.04-.108.112-.108l2.003.032c.054.01.078.065.105.125l2.821 7.622c.127.332.203.397.381.456l.398.13c.148.043.2.12.19.23l-.009.384c0 .133-.088.193-.208.193zm-4.785-6.401c-.2-.596-.271-.99-.29-1.257h-.034c-.03.207-.184.678-.414 1.237l-1.057 2.522c-.052.114.02.145.109.145l2.425.054c.118 0 .133-.048.097-.133l-.837-2.568zM284.607 142.616l-.7.047c-.13.005-.27.122-.3.414l-.9 7.37c-.014.084-.063.093-.139.084l-1.202-.119c-.136-.014-.154-.042-.217-.142l-3.15-5.096c-.214-.366-.544-.97-.598-1.098l-.025-.01-.531 4.433c-.04.284.057.429.196.454l.816.21c.132.042.178.136.166.238l-.058.386c-.01.128-.1.182-.232.176l-3.688-.375c-.124-.009-.205-.082-.194-.215l.045-.384c.025-.107.079-.19.218-.204l.71-.048c.142-.019.274-.13.301-.417l.743-6.032c.035-.281-.054-.42-.199-.466l-.677-.19c-.139-.032-.187-.136-.169-.23l.035-.394c.015-.133.112-.184.25-.17l2.97.295c.175.019.25.122.353.287l2.32 3.966c.335.568.522.928.664 1.249h.03l.456-3.734c.03-.284-.06-.429-.208-.468l-.8-.202c-.143-.042-.188-.133-.185-.247l.055-.385c.02-.128.106-.185.235-.168l3.694.369c.14.018.2.091.19.221l-.044.389c-.005.097-.082.187-.23.207zM293.069 152.286c-2.232-.4-4.102-1.995-3.392-5.312.62-2.897 3.25-4.157 5.358-3.782 2.242.394 4.12 1.958 3.407 5.275-.619 2.9-3.27 4.188-5.373 3.819zm1.628-7.993c-1.033-.193-2.039.312-2.649 3.132-.604 2.818.311 3.576 1.356 3.763 1.06.19 2.051-.346 2.655-3.167.604-2.82-.317-3.547-1.362-3.728z"/><path d="M351.165 300.17a25.757 25.757 0 0 0-12.909 10.47l-.057.102a6.615 6.615 0 0 0-.937 3.428c0 1.816.716 3.479 1.903 4.667l.052.06a8.116 8.116 0 0 1 2.274 5.641 8.139 8.139 0 0 1-6.43 7.962l-.025.01c-4.355.893-7.635 4.746-7.635 9.371h9.556c2.09 0 4.231-1.084 5.391-3.498 1.74-3.885 6.134-10.66 9.976-12.474-.114-.658-1.434-2.494-1.434-3.184 0-5.499 3.784-5.32 8.91-6.512l1.685-.303s-.99-3.749-3.477-7.931c-2.467-4.171-6.84-7.809-6.84-7.809z" fill="#c09b5a"/><path d="M263.61 371.33c-1.086.424-2.001 1.224-2.609 2.252l-.011.022c-.122.216-.19.467-.19.738 0 .39.145.748.385 1.004l.01.012c.284.314.46.742.46 1.214 0 .84-.555 1.543-1.3 1.712l-.004.002c-.88.193-1.543 1.021-1.543 2.016h1.93c.423 0 .856-.233 1.09-.752.352-.836 1.24-2.293 2.016-2.683-.023-.142-.29-.537-.29-.685 0-1.183.765-1.145 1.8-1.401l.341-.065s-.2-.807-.702-1.706c-.499-.897-1.382-1.68-1.382-1.68z" fill="none" stroke="#000" stroke-linecap="round" stroke-linejoin="round" stroke-width=".428" transform="matrix(4.94855 0 0 4.64896 -953.321 -1426.128)"/><path d="m329.094 243.917-13.573-19.746-.054-.051a7.07 7.07 0 0 0-5.766-2.98 7.1 7.1 0 0 0-7.098 7.097h7.098l5.641 10.034 3.634 14.925 2.033 2.846.166.366" fill="#c09b5a"/><path d="m259.15 359.23-2.743-4.247-.01-.011a1.405 1.405 0 0 0-1.166-.641c-.792 0-1.434.685-1.434 1.526h1.434l1.14 2.158.734 3.21.411.613.034.079" fill="#c88242" stroke="#000" stroke-linecap="round" stroke-linejoin="round" stroke-width=".428" transform="matrix(4.94855 0 0 4.64896 -953.321 -1426.128)"/><path d="M381.796 312.629c.11.962.167 1.91.167 2.894 0 1.26-.088 2.494-.275 3.694l-.01.137c-.07.474-.096.956-.096 1.438 0 4.549 2.869 8.425 6.916 9.895l.03.048a20.3 20.3 0 0 1 .103 2.068c0 4.254-1.378 8.175-3.703 11.379l-.12.23c-1.858 2.63-3.187 5.615-3.83 8.86-.795 3.295-3.525 4.617-5.643 4.617h-11.169c0-5.271 4.28-9.562 9.56-9.562l.09-.005a11.805 11.805 0 0 0 3.356-8.24c0-4.914-3.03-9.145-7.316-10.91l-.044-.042c-5.105-2.122-8.693-7.156-8.693-13.016l-.034-.156c-4.458-12.601-13.846-22.875-25.867-28.488l-.082-.023c-8.855-3.862-15.026-12.76-15.026-23.032 0-7.917 3.67-14.98 9.402-19.556 0 0-.078-9.202-.078-11.46-1.205-1.04-2.22-1.786-5.228-3.999-3.957-2.925-6.681-4.985-7.557-9.38-.538-2.767-2.105-12.063 1.818-11.487 3.92.557 9.605 2.866 9.605 2.866 2.295-.905 2.893-2.077 5.488-2.077 1.721 0 4.862.84 6.451 1.254 8.635 2.23 15.014 10.054 15.014 19.383l-.154 22.141c0 15.984 8.061 30.075 20.342 38.431l.044.049c5.165 3.436 9.013 8.734 10.548 14.93l.025.16c.724 2.835 3.28 4.452 5.563 4.452a8.93 8.93 0 0 0 6.319-2.61c3.467-3.477 3.467-9.137 0-12.622a2.993 2.993 0 0 1 0-4.25 2.96 2.96 0 0 1 4.231 0c5.838 5.817 5.838 15.3 0 21.125-5.503 5.51-14.29 5.8-20.148.866" fill="#c88242"/><path d="M269.8 374.01a5.832 5.832 0 0 1-.022 1.417l-.002.03c-.014.101-.02.205-.02.309 0 .978.58 1.812 1.398 2.128l.006.01c.014.147.021.294.021.446a4.33 4.33 0 0 1-.748 2.447l-.025.05a5.141 5.141 0 0 0-.774 1.906c-.16.708-.712.993-1.14.993h-2.257c0-1.134.865-2.057 1.932-2.057l.018-.001a2.626 2.626 0 0 0 .678-1.773c0-1.057-.612-1.967-1.478-2.347l-.009-.009c-1.031-.456-1.756-1.539-1.756-2.8l-.007-.033c-.901-2.71-2.798-4.92-5.228-6.128l-.016-.005c-1.79-.83-3.037-2.745-3.037-4.954 0-1.703.742-3.222 1.9-4.206 0 0-.015-1.98-.015-2.466-.244-.223-.449-.384-1.057-.86-.8-.629-1.35-1.072-1.527-2.017-.109-.595-.425-2.595.367-2.471.793.12 1.941.616 1.941.616.464-.194.585-.446 1.11-.446.347 0 .982.18 1.303.27 1.745.48 3.034 2.162 3.034 4.169l-.031 4.762c0 3.438 1.629 6.47 4.11 8.267l.01.01a5.446 5.446 0 0 1 2.131 3.212l.005.034c.147.61.663.958 1.124.958a1.75 1.75 0 0 0 1.277-.562c.7-.747.7-1.965 0-2.715a.673.673 0 0 1 0-.914.573.573 0 0 1 .855 0c1.18 1.251 1.18 3.291 0 4.544-1.112 1.186-2.887 1.248-4.071.186a5.602 5.602 0 0 0 0 0" fill="none" stroke="#000" stroke-linecap="round" stroke-linejoin="round" stroke-width=".428" transform="matrix(4.94855 0 0 4.64896 -953.321 -1426.128)"/><path d="M348.79 223.322s1.498 4.188-.535 8.357c-1.41 2.888-4.286 4.56-7.297 4.597a8.192 8.192 0 0 1-.87-8.57c.142-.292 3.374-6.8 3.374-6.8" fill="#c88242"/><path d="M263.13 354.8s.303.9-.108 1.798c-.285.62-.866.98-1.475.988a1.856 1.856 0 0 1-.175-1.843c.028-.063.681-1.463.681-1.463" fill="none" stroke="#000" stroke-linecap="round" stroke-linejoin="round" stroke-width=".428" transform="matrix(4.94855 0 0 4.64896 -953.321 -1426.128)"/><path d="M331.123 217.325c.888.363 1.816.423 2.583.261-.444-.664-1.148-1.254-2.06-1.614l-.523 1.353z" fill="#c0a151"/><path d="M259.56 353.51c.18.078.367.09.522.056a.903.903 0 0 0-.416-.347l-.106.291z" fill="none" stroke="#000" stroke-width=".428" transform="matrix(4.94855 0 0 4.64896 -953.321 -1426.128)"/><path d="M331.173 260.84c-5.863 3.115-12.41-.005-15.63-5.21-1.136-1.8-.532-4.81-1.158-6.583l-.054-.102a5.032 5.032 0 0 0-4.742-3.346l-.02 14.78s1.423 1.414 5.11 5.117c3.695 3.683 7.742 8.938 11.997 7.706 4.244-1.231 18.231-4.469 18.231-4.469" fill="#c88242"/><path d="M259.57 362.87c-1.185.67-2.508-.001-3.159-1.12-.23-.388-.107-1.035-.233-1.417l-.011-.022c-.14-.42-.517-.72-.959-.72l-.004 3.18s.288.304 1.033 1.1c.747.793 1.564 1.923 2.424 1.658.858-.265 3.684-.961 3.684-.961" fill="none" stroke="#000" stroke-linecap="round" stroke-linejoin="round" stroke-width=".428" transform="matrix(4.94855 0 0 4.64896 -953.321 -1426.128)"/><path d="M322.216 208.864c0 3.266-2.658 5.93-5.914 5.93v-3.819c0-1.57.547-2.341 2.102-2.111h1.909z"/><g fill="none" stroke="#000"><path d="M257.76 351.73c0 .703-.537 1.276-1.195 1.276v-.822c0-.337.11-.503.425-.454h.385z" stroke-width=".221" transform="matrix(4.94855 0 0 4.64896 -953.321 -1426.128)"/><path d="M256.61 353.86s.803.856 1.801 1.13" stroke-linecap="round" stroke-linejoin="round" stroke-width=".428" transform="matrix(4.94855 0 0 4.64896 -953.321 -1426.128)"/></g><g fill="#fff"><path d="M232.884 222.136a1.416 1.416 0 0 1-.79-.393 1.216 1.216 0 0 1-.385-.8c-.054-.592.373-1.157 1.007-1.334.18-.05.536-.05.716 0 .586.162.991.666.991 1.233 0 .792-.72 1.397-1.54 1.294zM248.004 218.982a1.426 1.426 0 0 1-.746-.443 1.23 1.23 0 0 1-.091-1.493c.64-.924 2.06-.749 2.437.3.072.198.066.583-.01.794-.23.629-.92.995-1.59.842zM282.123 222.136a1.383 1.383 0 0 1-1.104-.938 1.528 1.528 0 0 1 0-.697c.133-.428.493-.766.95-.892.157-.044.514-.05.687-.013.348.076.729.362.888.668.086.165.156.428.156.586 0 .164-.071.423-.165.602-.247.471-.864.77-1.412.684zM266.879 219.005a1.607 1.607 0 0 1-.557-.225c-.842-.556-.744-1.763.179-2.197.447-.21.925-.18 1.35.086.932.581.755 1.91-.3 2.271-.173.06-.52.093-.672.065z"/></g><path d="M329.486 338.78c1.27-2.855 1.893-3.398 5.775-5.035 4.1-1.728 6.105-3.575 7.03-6.475.863-2.708.315-5.508-1.671-8.53-2.324-3.536-2.493-4.496-1.254-7.127 1.269-2.694 5.813-7.095 9.14-8.852l2.302-1.215 1.92 2.108c2.286 2.508 6.38 10.068 5.982 11.043-.154.378-1.265.86-2.469 1.072-4.851.855-6.897 3.287-6.285 7.475.296 2.029.15 2.491-1.131 3.61-1.869 1.629-5.316 6.368-7.263 9.986-.83 1.54-2.005 3.05-2.613 3.356-.609.306-3.184.556-5.723.556h-4.617z" fill="#c88242"/><g fill="#fc0"><path d="M224.072 215.425c-.97-1.476-1.194-2.398-.917-3.785.31-1.552.154-1.965-1.016-2.685-.761-.468-1.606-.793-1.878-.722-.743.195-4.781-1.315-4.781-1.787 0-.798 2.024-1.39 3.857-1.128 1.15.164 1.857.573 1.857 1.075 0 .572.21.655.714.281.393-.29 1.486-.702 2.429-.915a54.245 54.245 0 0 0 2-.476c.157-.05.323.876.37 2.057.061 1.582-.223 2.375-1.08 3.011-1.144.85-1.146.893-.104 2.55.583.928 1.397 1.687 1.808 1.687.92 0 1.888-2.242 1.592-3.685-.328-1.604 1.125-1.774 2.595-.303 1.736 1.736 4.209 1.73 5.424-.012 1.54-2.21.912-3.252-1.846-3.065-1.787.12-2.727-.129-3.808-1.012-1.468-1.2-1.476-2.66-.015-2.66.448 0 .968-.377 1.155-.837.188-.46.695-.709 1.125-.554.431.156.784-.035.784-.423 0-1.118 1.737-4.092 2.39-4.092.88 0 3.303 2.304 3.314 3.152.008.574.189.598.816.109.46-.359.945-.418 1.13-.139.177.27.996.421 1.82.336 1.43-.147 1.48-.066 1.12 1.818-.426 2.228-1.603 3.314-3.597 3.314-1.86 0-1.532 1.932.578 3.406l1.571 1.098 1.558-1.092c.857-.601 1.715-1.675 1.908-2.387.424-1.569 1.588-1.435 3.01.347 1.84 2.304 6.096 1.32 6.096-1.41 0-.714-.4-1.038-1.286-1.043-2.12-.012-3.857-.612-3.857-1.332 0-.372-.386-.978-.857-1.345-1.316-1.026-1.035-2.148.537-2.148.768 0 1.568-.262 1.78-.583.21-.321.881-.462 1.49-.312.8.197 1.064.024.955-.624-.084-.493.546-1.596 1.4-2.451l1.552-1.555 1.429 1.448c.785.797 1.428 1.896 1.428 2.444 0 .732.303.921 1.143.715.639-.157 1.143-.016 1.143.319 0 .33.643.6 1.428.6 1.626 0 1.89 1.1.562 2.348-.477.448-.799 1.119-.715 1.49.165.725-.18.822-3.275.926-1.537.052-2 .296-2 1.058 0 2.646 4.444 3.73 6.021 1.47 1.457-2.09 2.452-2.11 3.359-.071 1.173 2.637 2.923 3.376 4.834 2.04 1.962-1.37 2.343-3.356.645-3.356-1.787 0-3.434-.978-3.085-1.833.167-.409.03-.902-.307-1.097-.335-.195-.61-.79-.61-1.323 0-.714.375-.93 1.426-.821.784.08 1.564-.063 1.733-.319.168-.256.684-.33 1.145-.163.523.188.839-.023.839-.56 0-.475.394-.863.875-.863s1.023-.363 1.204-.806c.486-1.189 2.492-1.019 2.492.211 0 .56.366 1.148.813 1.31.52.187.694.72.481 1.483-.21.755-.113 1.064.266.844.328-.19.914.013 1.303.453.388.44 1.045.8 1.46.8 1.414 0 1.513 1.151.209 2.455-.98.98-1.9 1.303-3.713 1.303-2.823 0-3.615 1.067-2.247 3.028 1.17 1.678 3.369 1.635 5.575-.11 1.933-1.528 2.686-1.125 2.702 1.445.01 1.824 1.56 3.167 2.357 2.044 1.745-2.459 1.807-2.802.66-3.673-.893-.678-1.072-1.324-.865-3.126.237-2.068.36-2.22 1.388-1.704.621.312 1.473.444 1.894.292.421-.152.934.132 1.14.63.336.814.442.797 1.047-.168.935-1.492 5.53-1.34 5.53.182 0 .502-3.464 1.896-4.548 1.83-.458-.028-1.323.195-1.922.496-.866.436-1.023.934-.766 2.426.247 1.43-.011 2.379-1.084 3.975-1.752 2.607-3.558 2.768-5.843.522-1.393-1.37-1.898-1.537-3.89-1.286-1.904.24-2.592.048-4.095-1.14-1.464-1.157-2.021-1.32-2.935-.862-2.017 1.015-4.917.67-6.584-.781-1.428-1.244-1.645-1.285-2.782-.537-1.664 1.095-3.754 1.019-5.908-.216-1.557-.891-1.892-.923-2.611-.248-1.305 1.226-4.794 1.545-6.358.583-1.258-.775-1.457-.743-2.957.468-1.734 1.4-3.976 1.653-6.198.702-1.167-.5-1.585-.414-2.584.524-1.442 1.355-3.574 1.918-5.52 1.46-1.105-.261-1.743-.023-2.715 1.015-.699.746-2.07 1.5-3.047 1.676-1.582.285-1.917.107-3.06-1.63zm16.114-10.296c.602-1.242.525-1.524-.666-2.43-1.185-.902-1.492-.935-2.55-.275-2.326 1.448-1.572 4.11 1.163 4.11.925 0 1.593-.458 2.053-1.405zm38.609.761c.949-.891.857-2.339-.213-3.344-1.174-1.103-1.724-1.064-3.089.218-1.606 1.51-.58 3.74 1.73 3.762.487.005 1.194-.282 1.572-.636zm-19.641-1.81c1.07-1.005 1.161-2.452.212-3.344-2.22-2.085-5.706.927-3.602 3.112 1.247 1.295 2.19 1.36 3.39.232z"/><path d="M223.833 215.025c-1.07-1.685-1.286-2.49-.87-3.221.627-1.1-.21-3.07-1.361-3.205-1.552-.183-1.924-.276-3.98-.995-1.178-.413-2.143-.934-2.143-1.16 0-1.297 4.867-1.737 5.672-.512.336.51.96.484 2.815-.117 1.31-.424 2.483-.617 2.606-.43.123.189.223 1.253.223 2.366-.001 1.437-.316 2.18-1.087 2.569-1.38.694-1.364 1.105.115 2.872 1.505 1.796 2.8 1.06 2.8-1.593 0-2.413.926-2.777 2.791-1.098 2.014 1.813 4.305 1.839 5.543.063 1.373-1.968.695-2.957-2.027-2.957-1.544 0-2.77-.385-3.732-1.17-1.798-1.47-1.8-1.947-.004-2.588.785-.28 1.428-.758 1.428-1.06 0-.303.386-.55.857-.55.476 0 .857-.478.857-1.075 0-.59.208-1.073.461-1.073.254 0 .704-.613 1-1.361l.54-1.36 1.847 1.226c1.016.674 1.851 1.489 1.857 1.81.005.32 1.08.622 2.39.67 1.31.048 2.495.195 2.636.327.14.132.024 1.159-.257 2.282-.41 1.634-.875 2.154-2.322 2.598-2.406.739-2.644 1.032-1.9 2.34 1.63 2.86 4.64 2.469 6.09-.791.45-1.01.933-1.836 1.075-1.836.142 0 1.047.725 2.012 1.61 1.995 1.833 3.958 2.064 5.34.63 1.704-1.77 1.213-2.777-1.354-2.777-1.903 0-2.39-.222-2.822-1.29-.287-.71-.795-1.448-1.129-1.642-1.15-.667-.638-1.9.788-1.9.767 0 1.554-.241 1.748-.536.194-.296.868-.537 1.496-.537.644 0 .983-.243.777-.557-.202-.306.42-1.314 1.383-2.238l1.749-1.681 1.44 1.46c.793.803 1.44 1.81 1.44 2.238 0 .428.515.778 1.144.778.628 0 1.143.241 1.143.537 0 .295.642.537 1.428.537 1.668 0 1.723.281.564 2.887-.812 1.825-1.022 1.944-3.429 1.944-2.11 0-2.563.175-2.563.99 0 1.31 1.771 2.768 3.362 2.768.703 0 2.02-.768 2.94-1.714 1.83-1.883 1.942-1.859 3.319.732 1.128 2.124 3.557 2.678 5.286 1.208 1.48-1.258 1.43-2.91-.088-2.91-1.765 0-3.522-1.053-3.175-1.903.168-.41.06-.89-.241-1.064-.3-.175-.547-.786-.547-1.36 0-.804.423-1.056 1.858-1.105 1.02-.035 2.178-.025 2.57.023.394.048.715-.286.715-.741 0-.456.394-.83.875-.83.482 0 1.023-.362 1.204-.805.413-1.01 2.493-1.065 2.493-.065 0 .407.359 1.02.798 1.362.439.342.665 1.1.502 1.684-.226.812-.077.983.63.728.518-.186.927-.066.927.274 0 .334.643.837 1.428 1.118 1.748.624 1.756.955.066 2.757-1.123 1.198-1.679 1.377-3.618 1.166-2.634-.286-3.33.515-2.242 2.576 1.006 1.906 3.528 1.995 5.527.195 1.91-1.72 2.839-1.373 2.839 1.056 0 2.12 1.478 3.641 2.348 2.416 1.762-2.482 1.812-2.8.587-3.673-.985-.702-1.137-1.22-.85-2.877.33-1.89.47-2.01 2.155-1.847.99.095 2.115.356 2.499.578.397.231.824.094.993-.319.488-1.194 5.41-.675 5.41.57 0 .502-3.464 1.897-4.547 1.83-.459-.028-1.323.195-1.922.496-.879.442-1.023.93-.75 2.535.269 1.576.041 2.4-1.099 3.975-1.792 2.478-3.717 2.634-5.88.478-1.283-1.278-1.873-1.477-3.841-1.295-1.88.173-2.669-.057-4.12-1.205-1.454-1.15-2.01-1.312-2.924-.852-1.804.907-4.603.658-6.445-.574-1.42-.95-1.94-1.04-3.115-.537-1.922.823-3.38.758-5.436-.24-1.579-.767-1.908-.767-3.629 0-2.242 1-3.728 1.062-5.653.238-1.186-.508-1.665-.42-2.96.537-1.56 1.152-4.135 1.424-6.222.657-.77-.283-1.742-.009-3.143.885-1.477.943-2.57 1.233-4.028 1.066-1.587-.182-2.387.086-3.877 1.3-2.711 2.21-4.318 2.02-6.054-.716zm16.218-9.566c.434-.763.434-1.384 0-2.147-1.08-1.895-4.572-1.075-4.572 1.073 0 2.149 3.492 2.97 4.572 1.074zm38.742.43c1.003-.943.839-2.28-.41-3.342-.873-.743-1.336-.81-2.285-.333-2.06 1.036-1.227 4.319 1.095 4.319.503 0 1.223-.29 1.6-.644zm-19.788-1.855c1.785-1.518.977-3.944-1.314-3.944-1.054 0-2.784 1.359-2.784 2.186 0 .572 2.093 2.646 2.67 2.646.21 0 .854-.4 1.428-.888z"/><path d="M223.991 215.303c-.863-1.313-1.252-2.658-1.165-4.035.127-2.023-.23-2.455-2.302-2.792-1.621-.263-5.045-1.64-5.045-2.03 0-1.394 4.817-1.691 5.755-.355.18.255 1.378.116 2.663-.31s2.488-.632 2.674-.458c.185.174.337 1.23.337 2.345 0 1.457-.34 2.251-1.211 2.824l-1.211.797 1.267 1.672c1.012 1.335 1.428 1.546 2.068 1.046.44-.343.801-1.426.801-2.406 0-2.415.833-2.723 2.913-1.078 2.111 1.669 3.555 1.746 5.122.274 1.894-1.78 1.234-2.894-1.824-3.08-1.94-.12-2.995-.52-3.995-1.52-1.346-1.347-1.348-1.366-.216-2.103.629-.41 1.454-.994 1.833-1.299.38-.305.958-.555 1.286-.555.327 0 .595-.371.595-.824 0-.662.827-2.223 2.085-3.937.262-.356 3.566 2.332 3.598 2.928.018.32 1.103.623 2.412.67 1.31.049 2.496.196 2.636.328.14.132.024 1.159-.257 2.282-.41 1.634-.875 2.154-2.322 2.598-2.53.777-2.725 1.099-1.622 2.68.765 1.098 1.353 1.356 2.791 1.225 1.461-.133 2.03-.564 2.87-2.179.575-1.107 1.234-2.013 1.464-2.013.23 0 1.156.725 2.06 1.61 1.899 1.863 3.68 2.057 5.123.557 1.474-1.53.74-2.704-1.691-2.704-1.62 0-2.138-.262-2.554-1.29-.287-.71-.795-1.448-1.129-1.642-.987-.573-.692-1.9.422-1.9 1.455 0 4.104-1.233 4.11-1.912.002-.314.782-1.271 1.733-2.127l1.73-1.557 1.413 1.433c.778.788 1.414 1.805 1.414 2.26 0 .463.49.83 1.109.83.61 0 1.268.241 1.462.536.194.296.852.537 1.462.537 1.336 0 1.367.364.245 2.888-.812 1.825-1.022 1.944-3.429 1.944-2.899 0-3.357.865-1.42 2.685 1.588 1.492 2.94 1.343 4.856-.537.904-.886 1.865-1.611 2.136-1.611.272 0 .857.816 1.3 1.814 1.26 2.831 4.183 3.4 5.771 1.122 1.081-1.55.88-1.874-1.644-2.649-1.447-.444-1.912-.964-2.322-2.598-.281-1.123-.397-2.15-.257-2.282.14-.132 1.326-.279 2.636-.327 1.558-.058 2.38-.335 2.38-.805 0-.395.394-.717.875-.717.482 0 1.023-.363 1.204-.806.413-1.01 2.493-1.065 2.493-.065 0 .406.37 1.028.823 1.381.452.353.682.987.51 1.408-.172.421-.017.766.344.766s.967.25 1.347.555c.38.306 1.187.878 1.795 1.273 1.08.701 1.073.755-.286 2.364-1.176 1.391-1.744 1.63-3.676 1.546-1.937-.085-2.313.074-2.46 1.04-.205 1.352 1.252 2.886 2.742 2.886.582 0 1.844-.622 2.805-1.381 2.08-1.645 2.913-1.337 2.913 1.078 0 2.313 1.21 3.345 2.397 2.046 1.71-1.871 1.8-2.404.552-3.293-1-.713-1.152-1.224-.863-2.887.329-1.89.468-2.01 2.154-1.847.99.095 2.115.355 2.499.578.394.23.823.099.986-.3.536-1.311 5.417-.798 5.417.57 0 .594-2.797 1.775-4.759 2.01-2.477.296-2.823.697-2.457 2.848.265 1.557.034 2.389-1.102 3.959-1.775 2.455-3.671 2.619-5.907.51-1.267-1.194-1.993-1.445-3.813-1.318-1.68.118-2.737-.182-4.184-1.186-1.462-1.014-2.19-1.218-2.963-.83-1.755.883-4.854.584-6.492-.626-1.296-.958-1.775-1.045-2.961-.537-2.02.865-3.677.748-5.678-.399-1.704-.976-1.778-.976-3.064.002-1.485 1.13-3.886 1.293-5.958.406-1.164-.498-1.68-.397-3.137.616-1.47 1.02-2.201 1.16-4.645.888-2.31-.257-3.299-.101-4.856.762-1.267.702-2.707 1.024-4.094.915-1.711-.135-2.451.126-3.704 1.308-2.232 2.105-4.11 1.943-5.712-.493zm15.26-9.18c.963-.604 1.273-1.902.702-2.944-.702-1.283-3.142-1.2-3.902.134-1.164 2.043 1.164 4.088 3.2 2.81zm39.882-.796c.861-1.29-.189-2.77-2.119-2.987-1.199-.135-1.567.105-1.863 1.215-.701 2.624 2.472 4.036 3.982 1.772zm-19.29-2.275c.443-1.087-.827-2.96-2.008-2.96-1.702 0-3.13 1.859-2.407 3.13.336.59.935 1.18 1.332 1.314.924.312 2.698-.542 3.082-1.484z"/><path d="M223.991 215.303c-.863-1.313-1.252-2.658-1.165-4.035.127-2.023-.23-2.455-2.302-2.792-1.621-.263-5.045-1.64-5.045-2.03 0-1.394 4.817-1.691 5.755-.355.18.255 1.378.116 2.663-.31s2.488-.632 2.674-.458c.185.174.337 1.23.337 2.345 0 1.457-.34 2.251-1.211 2.824l-1.211.797 1.267 1.672c1.012 1.335 1.428 1.546 2.068 1.046.44-.343.801-1.426.801-2.406 0-2.415.833-2.723 2.913-1.078 2.111 1.669 3.555 1.746 5.122.274 1.894-1.78 1.234-2.894-1.824-3.08-1.94-.12-2.995-.52-3.995-1.52-1.346-1.347-1.348-1.366-.216-2.103.629-.41 1.454-.994 1.833-1.299.38-.305.958-.555 1.286-.555.327 0 .595-.371.595-.824 0-.662.827-2.223 2.085-3.937.262-.356 3.566 2.332 3.598 2.928.018.32 1.103.623 2.412.67 1.31.049 2.496.196 2.636.328.14.132.024 1.159-.257 2.282-.41 1.634-.875 2.154-2.322 2.598-2.53.777-2.725 1.099-1.622 2.68.765 1.098 1.353 1.356 2.791 1.225 1.461-.133 2.03-.564 2.87-2.179.575-1.107 1.234-2.013 1.464-2.013.23 0 1.156.725 2.06 1.61 1.899 1.863 3.68 2.057 5.123.557 1.474-1.53.74-2.704-1.691-2.704-1.62 0-2.138-.262-2.554-1.29-.287-.71-.795-1.448-1.129-1.642-.987-.573-.692-1.9.422-1.9 1.455 0 4.104-1.233 4.11-1.912.002-.314.782-1.271 1.733-2.127l1.73-1.557 1.413 1.433c.778.788 1.414 1.805 1.414 2.26 0 .463.49.83 1.109.83.61 0 1.268.241 1.462.536.194.296.852.537 1.462.537 1.336 0 1.367.364.245 2.888-.812 1.825-1.022 1.944-3.429 1.944-2.899 0-3.357.865-1.42 2.685 1.588 1.492 2.94 1.343 4.856-.537.904-.886 1.865-1.611 2.136-1.611.272 0 .857.816 1.3 1.814 1.26 2.831 4.183 3.4 5.771 1.122 1.081-1.55.88-1.874-1.644-2.649-1.447-.444-1.912-.964-2.322-2.598-.281-1.123-.397-2.15-.257-2.282.14-.132 1.326-.279 2.636-.327 1.558-.058 2.38-.335 2.38-.805 0-.395.394-.717.875-.717.482 0 1.023-.363 1.204-.806.413-1.01 2.493-1.065 2.493-.065 0 .406.37 1.028.823 1.381.452.353.682.987.51 1.408-.172.421-.017.766.344.766s.967.25 1.347.555c.38.306 1.187.878 1.795 1.273 1.08.701 1.073.755-.286 2.364-1.176 1.391-1.744 1.63-3.676 1.546-1.937-.085-2.313.074-2.46 1.04-.205 1.352 1.252 2.886 2.742 2.886.582 0 1.844-.622 2.805-1.381 2.08-1.645 2.913-1.337 2.913 1.078 0 2.313 1.21 3.345 2.397 2.046 1.71-1.871 1.8-2.404.552-3.293-1-.713-1.152-1.224-.863-2.887.329-1.89.468-2.01 2.154-1.847.99.095 2.115.355 2.499.578.394.23.823.099.986-.3.536-1.311 5.417-.798 5.417.57 0 .594-2.797 1.775-4.759 2.01-2.477.296-2.823.697-2.457 2.848.265 1.557.034 2.389-1.102 3.959-1.775 2.455-3.671 2.619-5.907.51-1.267-1.194-1.993-1.445-3.813-1.318-1.68.118-2.737-.182-4.184-1.186-1.462-1.014-2.19-1.218-2.963-.83-1.755.883-4.854.584-6.492-.626-1.296-.958-1.775-1.045-2.961-.537-2.02.865-3.677.748-5.678-.399-1.704-.976-1.778-.976-3.064.002-1.485 1.13-3.886 1.293-5.958.406-1.164-.498-1.68-.397-3.137.616-1.47 1.02-2.201 1.16-4.645.888-2.31-.257-3.299-.101-4.856.762-1.267.702-2.707 1.024-4.094.915-1.711-.135-2.451.126-3.704 1.308-2.232 2.105-4.11 1.943-5.712-.493zm15.26-9.18c.963-.604 1.273-1.902.702-2.944-.702-1.283-3.142-1.2-3.902.134-1.164 2.043 1.164 4.088 3.2 2.81zm39.882-.796c.861-1.29-.189-2.77-2.119-2.987-1.199-.135-1.567.105-1.863 1.215-.701 2.624 2.472 4.036 3.982 1.772zm-19.29-2.275c.443-1.087-.827-2.96-2.008-2.96-1.702 0-3.13 1.859-2.407 3.13.336.59.935 1.18 1.332 1.314.924.312 2.698-.542 3.082-1.484z"/><path d="M223.991 215.303c-.863-1.313-1.252-2.658-1.165-4.035.127-2.023-.23-2.455-2.302-2.792-1.621-.263-5.045-1.64-5.045-2.03 0-1.394 4.817-1.691 5.755-.355.18.255 1.378.116 2.663-.31s2.488-.632 2.674-.458c.185.174.337 1.23.337 2.345 0 1.457-.34 2.251-1.211 2.824l-1.211.797 1.267 1.672c1.012 1.335 1.428 1.546 2.068 1.046.44-.343.801-1.426.801-2.406 0-2.415.833-2.723 2.913-1.078 2.111 1.669 3.555 1.746 5.122.274 1.894-1.78 1.234-2.894-1.824-3.08-1.94-.12-2.995-.52-3.995-1.52-1.346-1.347-1.348-1.366-.216-2.103.629-.41 1.454-.994 1.833-1.299.38-.305.958-.555 1.286-.555.327 0 .595-.371.595-.824 0-.662.827-2.223 2.085-3.937.262-.356 3.566 2.332 3.598 2.928.018.32 1.103.623 2.412.67 1.31.049 2.496.196 2.636.328.14.132.024 1.159-.257 2.282-.41 1.634-.875 2.154-2.322 2.598-2.53.777-2.725 1.099-1.622 2.68.765 1.098 1.353 1.356 2.791 1.225 1.461-.133 2.03-.564 2.87-2.179.575-1.107 1.234-2.013 1.464-2.013.23 0 1.156.725 2.06 1.61 1.899 1.863 3.68 2.057 5.123.557 1.474-1.53.74-2.704-1.691-2.704-1.62 0-2.138-.262-2.554-1.29-.287-.71-.795-1.448-1.129-1.642-.987-.573-.692-1.9.422-1.9 1.455 0 4.104-1.233 4.11-1.912.002-.314.782-1.271 1.733-2.127l1.73-1.557 1.413 1.433c.778.788 1.414 1.805 1.414 2.26 0 .463.49.83 1.109.83.61 0 1.268.241 1.462.536.194.296.852.537 1.462.537 1.336 0 1.367.364.245 2.888-.812 1.825-1.022 1.944-3.429 1.944-2.899 0-3.357.865-1.42 2.685 1.588 1.492 2.94 1.343 4.856-.537.904-.886 1.865-1.611 2.136-1.611.272 0 .857.816 1.3 1.814 1.26 2.831 4.183 3.4 5.771 1.122 1.081-1.55.88-1.874-1.644-2.649-1.447-.444-1.912-.964-2.322-2.598-.281-1.123-.397-2.15-.257-2.282.14-.132 1.326-.279 2.636-.327 1.558-.058 2.38-.335 2.38-.805 0-.395.394-.717.875-.717.482 0 1.023-.363 1.204-.806.413-1.01 2.493-1.065 2.493-.065 0 .406.37 1.028.823 1.381.452.353.682.987.51 1.408-.172.421-.017.766.344.766s.967.25 1.347.555c.38.306 1.187.878 1.795 1.273 1.08.701 1.073.755-.286 2.364-1.176 1.391-1.744 1.63-3.676 1.546-1.937-.085-2.313.074-2.46 1.04-.205 1.352 1.252 2.886 2.742 2.886.582 0 1.844-.622 2.805-1.381 2.08-1.645 2.913-1.337 2.913 1.078 0 2.313 1.21 3.345 2.397 2.046 1.71-1.871 1.8-2.404.552-3.293-1-.713-1.152-1.224-.863-2.887.329-1.89.468-2.01 2.154-1.847.99.095 2.115.355 2.499.578.394.23.823.099.986-.3.536-1.311 5.417-.798 5.417.57 0 .594-2.797 1.775-4.759 2.01-2.477.296-2.823.697-2.457 2.848.265 1.557.034 2.389-1.102 3.959-1.775 2.455-3.671 2.619-5.907.51-1.267-1.194-1.993-1.445-3.813-1.318-1.68.118-2.737-.182-4.184-1.186-1.462-1.014-2.19-1.218-2.963-.83-1.755.883-4.854.584-6.492-.626-1.296-.958-1.775-1.045-2.961-.537-2.02.865-3.677.748-5.678-.399-1.704-.976-1.778-.976-3.064.002-1.485 1.13-3.886 1.293-5.958.406-1.164-.498-1.68-.397-3.137.616-1.47 1.02-2.201 1.16-4.645.888-2.31-.257-3.299-.101-4.856.762-1.267.702-2.707 1.024-4.094.915-1.711-.135-2.451.126-3.704 1.308-2.232 2.105-4.11 1.943-5.712-.493zm15.26-9.18c.963-.604 1.273-1.902.702-2.944-.702-1.283-3.142-1.2-3.902.134-1.164 2.043 1.164 4.088 3.2 2.81zm39.882-.796c.861-1.29-.189-2.77-2.119-2.987-1.199-.135-1.567.105-1.863 1.215-.701 2.624 2.472 4.036 3.982 1.772zm-19.29-2.275c.443-1.087-.827-2.96-2.008-2.96-1.702 0-3.13 1.859-2.407 3.13.336.59.935 1.18 1.332 1.314.924.312 2.698-.542 3.082-1.484z"/><path d="M225.543 217.13c-.48-.323-2.426-3.015-2.811-3.89-.211-.477-.193-.632.148-1.26.214-.394.389-1.033.389-1.42 0-1.32-1.618-2.483-3.092-2.223-.503.088-.904-.016-1.932-.502-.713-.338-1.35-.565-1.413-.505-.064.06-.116.023-.116-.082 0-.105-.274-.247-.608-.314-.335-.067-.678-.161-.763-.208-.203-.113.583-.897 1.202-1.2.53-.259 2.416-.443 2.416-.235 0 .22.635.272 1.086.089.356-.145.503-.1.843.253.226.235.434.621.462.857.07.592.235.689.486.285.408-.657 1.053-1.175 1.29-1.036.458.268.873.221 1.93-.218.59-.245 1.186-.404 1.325-.354.187.068.254.5.254 1.645 0 .895.087 1.635.206 1.747.368.346-.02.913-1.2 1.753l-1.233.878c-.248.178 2.381 3.402 2.775 3.402.173 0 .603-.28.956-.62.623-.606.643-.668.738-2.382.106-1.896.215-2.091 1.169-2.096.401-.002.67.201 1.268.962.417.53 1.021 1.093 1.343 1.249.886.43 2.61.375 3.447-.111 1.08-.627 1.389-1.265 1.39-2.87v-1.384l-.608.11c-.335.059-1.555.158-2.712.22-2.093.11-2.103.109-2.271-.31-.093-.23-.136-.473-.095-.538.086-.139-.873-.812-1.148-.805-.223.006-.648-.72-.652-1.116-.004-.413.607-.861 1.517-1.114.78-.216.962-.375 1.178-1.03.089-.27.24-.298 1.043-.198.786.098.94.072.94-.162 0-.154-.108-.374-.24-.49-.132-.116-.209-.46-.171-.766.053-.423.199-.601.614-.749.424-.15.546-.304.55-.692.004-.568.593-1.886.93-2.081.137-.08.565.18 1.096.666.48.438 1.209.942 1.62 1.12.672.29.755.397.803 1.028.087 1.145.154 1.216.77.803.646-.432 1.012-.46 1.33-.1.17.194.625.264 1.713.264 1.749 0 1.896.148 1.38 1.388-.184.446-.343.949-.35 1.118-.009.17-.086.308-.171.308-.086 0-.101.273-.034.607.11.55.063.64-.491.957-.337.193-.935.401-1.329.464-.394.062-.762.182-.817.266-.056.085-.226.108-.38.053-.152-.055-.529-.003-.836.117-.495.193-.558.302-.558.961 0 1.858 2.828 3.542 4.552 2.71 1.06-.51 2.188-1.859 2.188-2.617 0-.203.129-.603.286-.888.231-.421.406-.519.925-.519.542 0 .764.14 1.447.908 1.798 2.024 2.622 2.452 4.034 2.094 1.387-.35 2.685-1.773 2.355-2.581-.078-.19-.05-.26.072-.189.168.097.43-.594.43-1.134 0-.084-.999-.153-2.22-.153-1.22 0-2.492-.09-2.828-.2-.561-.184-.602-.247-.507-.797.09-.522-.001-.708-.728-1.477-1.05-1.112-1.1-1.66-.183-2.02.357-.141.9-.256 1.206-.256.306 0 .61-.08.674-.178.065-.099.196-.134.292-.079.095.056.271-.101.391-.348.256-.528.252-.528 1.281-.186.438.145.838.264.888.264.05 0 .034-.507-.036-1.126-.136-1.193-.046-1.37.718-1.406.257-.012.614-.33 1.013-.899 1.239-1.764 1.388-1.796 2.16-.463.581 1.004.999 1.379 1.623 1.459.454.058.466.095.405 1.247-.035.653.007 1.185.093 1.181.087-.003.368-.119.625-.257.544-.292 1.31-.344 1.31-.088 0 .35.761.88 1.265.88.824.002 1.93.35 2.05.646.134.326-.351 1.17-1.107 1.925-.467.467-.53.64-.425 1.165.115.576.084.629-.483.814-.333.11-1.605.199-2.825.199h-2.219l.002.66c.003.923.768 2.37 1.521 2.875.51.342.863.422 1.847.422 1.492 0 2.125-.365 3.146-1.819.65-.923.758-.999 1.497-1.05.763-.051.81-.026 1.107.616.171.369.297.726.28.794-.072.276.695 1.661 1.126 2.035.966.84 2.89.998 3.87.318 1.141-.79 2.117-2.466 1.836-3.152-.062-.154-.557-.344-1.195-.46-2.832-.51-3.5-.863-3.31-1.75.073-.347-.058-.852-.414-1.6-.708-1.48-.576-1.655 1.298-1.723.787-.028 1.431-.124 1.431-.213 0-.09.155-.24.344-.335.263-.133.503-.066 1.03.286.378.252.727.421.777.375.049-.047.012-.337-.082-.645s-.098-.56-.01-.56c.09 0 .189-.176.222-.39.046-.303.234-.424.835-.535.612-.113.877-.287 1.256-.826.923-1.31 1.66-1.09 2.356.704.318.82.508 1.07.881 1.157.4.095.458.186.364.573-.062.253-.166.727-.232 1.052l-.12.592.776-.123c.657-.105.793-.074.884.2.225.676.419.85.943.85.298 0 .584.049.635.108.051.059.372.241.712.405.967.466.938.713-.221 1.855-.72.71-1.053 1.18-1.053 1.49 0 .415-.065.452-.795.45-.438 0-1.595-.113-2.571-.25-1.981-.28-2.147-.23-2.332.696-.34 1.696 1.096 3.488 2.89 3.609 1.463.098 1.656.02 3.102-1.239 1.398-1.217 2.118-1.516 2.448-1.014.078.12.195.96.258 1.87.083 1.184.197 1.71.402 1.85.158.108.278.267.268.354-.01.086.216.321.503.523.401.281.595.322.842.178.368-.214 1.764-2.024 1.647-2.134-.043-.04.084-.225.281-.41.551-.518.445-.762-.681-1.56-1.28-.908-1.593-1.445-1.126-1.93.258-.268.32-.614.29-1.628-.02-.708-.027-1.381-.016-1.495.022-.23.546-.119 1.782.38.49.198.95.257 1.392.18.6-.106.713-.056 1.26.556l.602.673.208-.726c.275-.96.64-1.241 1.305-1.006.28.1.673.12.874.046 1.072-.394 2.628-.06 3.596.771.566.487.53.653-.14.653-.31 0-.562.083-.562.186 0 .102-.081.139-.18.081-.24-.14-1.657.538-2.29 1.094-.376.331-.623.415-.982.332-.264-.06-.69-.16-.95-.22-.7-.161-1.502.233-2.05 1.01-.705 1.002-.764 1.538-.285 2.586l.413.901-.572.953c-.315.524-.52 1.001-.458 1.06.063.06.03.108-.072.108-.103 0-.513.444-.91.986-.398.542-.914 1.103-1.149 1.247-1.221.753-4-.804-5.407-3.03-.174-.276-.266-.284-.889-.072-.382.13-.695.284-.695.342 0 .058-.652.099-1.45.091-1.888-.018-3.319-.609-4.578-1.889l-.883-.898-1.178.6c-1.077.548-1.314.6-2.77.6-1.908 0-2.855-.377-4.221-1.68l-.88-.839-1.301.64c-1.038.508-1.562.652-2.581.706-1.798.095-2.46-.145-4.964-1.807-.178-.118-.467.018-1.004.474-2.026 1.72-4.465 1.917-6.823.552l-1.087-.63-1.019.906c-.56.498-1.493 1.11-2.071 1.358-1.44.62-3.034.525-4.76-.28l-1.21-.564-1.09.993c-1.45 1.323-2.447 1.734-4.296 1.772-1.084.022-1.624-.052-2.122-.29-.757-.363-1.128-.299-1.306.226-.205.607-1.605 1.9-2.537 2.344-1.23.586-2.204.702-2.757.329zm13.778-10.904c2.037-1.253 1.076-4.298-1.357-4.298-.596 0-.85.134-1.616.854-.957.9-1.089 1.317-.71 2.256.239.592.874 1.267 1.392 1.48.486.198 1.756.037 2.29-.292zm39.443-.243c.3-.282.562-.657.583-.833.02-.176.106-.474.19-.661.095-.21.077-.366-.047-.404-.11-.035-.158-.218-.106-.407.067-.239-.133-.558-.653-1.047-.638-.6-.866-.703-1.544-.703-2.656 0-3.527 3.073-1.251 4.415.842.497 2.084.338 2.828-.36zm-20.228-1.483c.934-.367 1.376-1.007 1.4-2.03.025-1-.423-1.65-1.517-2.203-1.356-.686-2.993.216-3.244 1.787-.086.541-.062.846.072.888.112.035.163.163.114.284-.116.283.605 1.148 1.12 1.344.596.226 1.366.2 2.055-.07z"/><path d="M225.543 217.13c-.48-.323-2.426-3.015-2.811-3.89-.211-.477-.193-.632.148-1.26.214-.394.389-1.033.389-1.42 0-1.32-1.618-2.483-3.093-2.223-.491.087-.885-.007-1.744-.414-.61-.29-1.161-.477-1.225-.417-.064.06-.116.023-.116-.083 0-.105-.316-.282-.702-.394-.387-.112-.82-.239-.965-.282-.327-.099.38-.857 1.148-1.233.551-.27 2.39-.443 2.39-.226 0 .223.633.276 1.087.092.356-.144.503-.1.843.253.226.236.434.621.462.857.07.592.235.689.486.285.449-.722 1.074-1.205 1.294-1 .316.298.728.244 1.917-.25.595-.247 1.195-.408 1.334-.358.187.068.254.5.254 1.645 0 .895.087 1.636.206 1.747.368.346-.02.913-1.201 1.753l-1.232.878c-.249.178 2.381 3.402 2.775 3.402.173 0 .603-.28.955-.62.624-.606.644-.668.74-2.382.105-1.896.214-2.091 1.168-2.096.401-.002.67.201 1.267.962.943 1.199 1.571 1.515 3.022 1.521.905.004 1.273-.084 1.858-.448.99-.615 1.246-1.174 1.287-2.807l.035-1.384-.62.11c-.34.06-1.564.16-2.72.221-2.094.111-2.104.11-2.272-.308-.093-.231-.136-.474-.095-.539.04-.065-.18-.288-.49-.496-.31-.207-.564-.326-.564-.264 0 .306-.58-.486-.673-.918-.132-.622.318-1.044 1.444-1.357.78-.216.962-.375 1.178-1.03.089-.27.24-.298 1.043-.198.786.098.94.072.94-.162 0-.154-.108-.374-.24-.49-.132-.116-.209-.46-.171-.766.053-.423.199-.601.614-.749.424-.15.546-.304.55-.692.004-.568.593-1.886.93-2.081.137-.08.565.18 1.096.666.48.438 1.209.942 1.62 1.12.672.29.755.397.803 1.028.087 1.145.154 1.216.77.803.646-.432 1.012-.46 1.33-.1.17.194.625.264 1.713.264 1.749 0 1.896.148 1.38 1.388-.184.446-.343.949-.35 1.118-.009.17-.086.308-.171.308-.086 0-.101.273-.034.607.109.548.062.641-.471.946-.326.186-1.114.435-1.751.552-2.033.375-2.189.47-2.189 1.32 0 1.858 2.828 3.542 4.552 2.71 1.06-.51 2.188-1.859 2.188-2.617 0-.203.129-.603.286-.888.231-.421.406-.519.925-.519.542 0 .764.14 1.447.907 1.802 2.03 2.62 2.453 4.045 2.093 1.244-.315 2.03-1.085 2.469-2.42.572-1.74.69-1.635-1.842-1.635-1.22 0-2.493-.09-2.829-.2-.561-.184-.602-.247-.507-.797.09-.522-.001-.708-.728-1.477-1.373-1.453-1.054-2.038 1.284-2.354.703-.095.945-.216 1.107-.55.242-.498.425-.52 1.335-.163.37.145.727.264.794.264.066 0 .063-.507-.007-1.126-.136-1.193-.046-1.37.718-1.406.257-.012.614-.33 1.013-.899 1.238-1.764 1.387-1.796 2.16-.463.581 1.004.998 1.379 1.623 1.459.454.058.466.095.405 1.247-.035.653.007 1.185.093 1.181.087-.003.368-.119.625-.257.707-.38 1.222-.323 1.457.16.222.46.43.544 1.748.712 1.738.22 1.88.822.534 2.258-.67.716-.748.887-.643 1.414.111.557.076.614-.486.798-.334.11-1.605.199-2.825.199h-2.219l.002.66c.003.923.768 2.37 1.521 2.875.51.342.862.422 1.847.422 1.492 0 2.125-.365 3.146-1.819.65-.923.758-.999 1.497-1.05.763-.051.81-.026 1.107.616.171.369.297.726.28.794-.072.276.695 1.661 1.126 2.035.966.84 2.89.998 3.87.318 1.141-.79 2.117-2.466 1.836-3.152-.062-.154-.557-.344-1.195-.46-2.832-.51-3.5-.863-3.31-1.75.073-.347-.058-.852-.414-1.6-.708-1.48-.576-1.655 1.298-1.723.787-.028 1.431-.124 1.431-.213 0-.09.155-.24.344-.336.263-.132.503-.065 1.03.287.378.252.727.42.777.375.049-.047.012-.337-.082-.645s-.098-.56-.01-.56c.09 0 .189-.177.221-.394a.521.521 0 0 1 .435-.446c.979-.138 1.196-.257 1.65-.902.93-1.319 1.665-1.103 2.363.695.318.82.508 1.07.881 1.157.4.095.458.186.364.573-.062.253-.166.727-.232 1.052l-.12.592.776-.123c.657-.105.793-.074.884.2.224.676.418.85.943.85.298 0 .583.049.635.108.051.059.372.241.712.405.967.466.947.73-.137 1.762-.886.842-1.08 1.155-1.122 1.815-.02.293-1.152.282-3.381-.033-1.981-.28-2.148-.23-2.332.697-.34 1.696 1.096 3.488 2.89 3.609 1.463.098 1.656.02 3.102-1.239 1.398-1.217 2.118-1.516 2.448-1.014.078.12.193.942.255 1.83.098 1.388.184 1.699.618 2.233.637.785 1.16.955 1.652.537.432-.368 2.035-2.736 2.035-3.008 0-.1-.468-.516-1.04-.921-1.28-.908-1.593-1.445-1.126-1.93.258-.268.32-.614.29-1.628-.02-.708-.027-1.381-.016-1.495.022-.23.546-.119 1.782.38.49.198.95.257 1.391.18.6-.106.714-.056 1.261.556l.601.673.209-.726c.275-.96.64-1.242 1.305-1.006.28.1.673.12.874.046 1.104-.406 2.89.016 3.72.878.43.447.4.483-.505.617-.87.128-2.35.817-2.83 1.317-.408.423-.684.453-1.522.169-1.187-.404-2.468.371-2.911 1.762-.212.664-.193.836.187 1.698l.423.96-.662 1.113c-1.022 1.716-2.307 3.267-2.807 3.385-1.172.276-3.522-.991-4.59-2.476-.683-.951-.708-.957-2.272-.524-2.002.555-4.266-.107-5.841-1.709l-.884-.898-1.178.6c-1.077.548-1.314.6-2.769.6-1.908 0-2.855-.377-4.222-1.68l-.88-.839-1.3.64c-1.038.508-1.562.652-2.582.706-1.798.095-2.46-.145-4.964-1.807-.178-.118-.466.018-1.003.474-2.026 1.72-4.465 1.917-6.824.552l-1.086-.63-1.02.906c-.56.498-1.492 1.11-2.07 1.358-1.44.62-3.034.525-4.76-.28l-1.21-.564-1.09.993c-1.45 1.323-2.447 1.734-4.296 1.772-1.085.022-1.624-.052-2.123-.29-.756-.363-1.128-.299-1.305.226-.205.607-1.605 1.9-2.537 2.344-1.23.586-2.204.702-2.757.329zm13.778-10.904c2.037-1.253 1.076-4.298-1.357-4.298-.596 0-.85.134-1.616.854-.957.9-1.089 1.317-.71 2.256.239.592.874 1.267 1.392 1.48.486.198 1.756.037 2.29-.292zm39.443-.243c.3-.282.562-.657.583-.833.02-.176.106-.474.19-.661.095-.21.077-.366-.047-.404-.11-.035-.158-.218-.106-.407.067-.239-.133-.558-.653-1.047-.638-.6-.866-.703-1.544-.703-2.656 0-3.527 3.073-1.251 4.415.842.497 2.084.338 2.828-.36zm-20.244-1.48c.983-.392 1.333-.895 1.381-1.99.04-.888-.01-1.024-.555-1.532-1.257-1.171-2.43-1.264-3.482-.275-.597.561-1.024 2.109-.617 2.236.112.035.163.163.114.284-.116.283.605 1.148 1.12 1.344.594.225 1.366.2 2.04-.068z"/></g><g fill="#04a"><path d="M242.131 269.942c-1.282-1.335-2.324-2.434-2.315-2.443.036-.033 4.128 4.096 4.606 4.647.116.135.142.223.064.223-.013 0-1.073-1.093-2.355-2.427zM225.269 230.13c9.919-.005 26.137-.005 36.04 0 9.903.006 1.788.01-18.035.01-19.822 0-27.925-.004-18.006-.01zM225.223 229.929a39021.9 39021.9 0 0 1 36.061 0c9.917.005 1.803.01-18.03.01-19.835 0-27.949-.005-18.032-.01z"/></g><path d="M307.476 252.796c.006-2.102.024-6.68.04-10.171l.029-6.35.006 10.172c.005 8.117-.003 10.171-.04 10.171-.036 0-.044-.782-.035-3.822z" fill="#00a"/></svg>