<svg xmlns="http://www.w3.org/2000/svg" xmlns:xlink="http://www.w3.org/1999/xlink" width="512" height="512" xmlns:v="https://vecta.io/nano"><style><![CDATA[.B{stroke:#000}.C{fill:#e3e4e5}.D{fill:#eac102}.E{stroke-width:1.303}.F{fill:none}.G{fill:#da6b21}.H{fill-rule:evenodd}.I{stroke-width:.959}.J{fill:#ed1c24}.K{stroke-width:1.322}.L{stroke-width:1.129}.M{stroke-width:.434}.N{stroke-width:1.919}.O{fill:#f5f6f6}.P{stroke-linejoin:round}.Q{fill:#0071bc}.R{stroke-width:1.13}.S{stroke-width:.376}.T{stroke-width:1.922}.U{fill:#ebebeb}.V{stroke-width:5.598}.W{fill:#0067f1}.X{stroke-width:3.135}.Y{stroke-width:1.235}.Z{stroke-width:1.198}.a{stroke-width:.397}]]></style><path fill="#fff" d="M0 0h512v256H0z"/><path fill="#db0000" d="M0 256h512v256H0z"/><g class="B E J"><path d="M262.965 117.174c13.044 0 24.633 1.983 32.168 5.024 4.363 1.983 10.135 3.613 16.525 4.495 4.452.616 8.957.764 13.44.441 5.332-.088 13.088 3.569 20.843 7.051 5.596 2.406 10.761 5.71 15.291 9.783l-3.085-.617-.881 7.932-8.417 9.783-4.23 3.613-10.003 8.108-5.068.441-1.586 4.451-64.601-7.712-64.777 7.712-1.586-4.495-5.112-.441-9.959-8.108-4.23-3.613-8.373-9.783-.881-7.888-3.085.617c4.535-4.065 9.699-7.369 15.291-9.783 7.756-3.481 15.511-6.742 20.843-6.61 3.966.264 8.593.132 13.44-.529 6.39-.881 12.162-2.864 16.481-4.847 7.579-3.085 18.508-5.024 31.595-5.024zm.661 85.444c-24.06 0-45.652-2.908-61.031-7.623a2.38 2.38 0 0 1-1.63-2.468c0-1.058.529-2.027 1.63-2.38 15.423-4.671 36.971-7.579 61.031-7.623 24.06.044 45.608 2.952 60.987 7.623 1.102.353 1.675 1.322 1.63 2.38a2.38 2.38 0 0 1-1.63 2.468c-15.423 4.671-36.927 7.579-60.987 7.623"/><path d="M263.89 199.401c-18.967.171-37.883-2.005-56.316-6.478 18.437-4.449 37.351-6.61 56.316-6.434 21.725.044 41.422 2.468 56.404 6.39-18.463 4.471-37.408 6.647-56.404 6.478z" class="P"/><path d="M263.89 199.401c-18.967.171-37.883-2.005-56.316-6.478 18.437-4.449 37.351-6.61 56.316-6.434 21.725.044 41.422 2.468 56.404 6.39-18.463 4.471-37.408 6.647-56.404 6.478"/><path d="M247.18 199.452v-15.228m-2.977 14.83v-14.83m-2.769 14.613v-14.215m-2.769 13.781V185.02m-2.492 13.383V185.02m-4.708 12.66l-.069-12.008m2.319 12.225v-12.732m-6.577 11.828v-10.815m2.181 11.213l-.069-11.719m-7.961 10.308v-8.862m1.904 9.26v-9.694m1.973 9.911v-9.983m-5.919 9.079v-8.247m-1.904 7.849v-7.632m-2.077 7.125v-6.619m-4.154 5.679l-.069-4.449m2.215 5.064v-5.679m-4.292 4.557v-3.617m-1.973 3.255v-2.857m-2.146 2.206v-1.664m-2.181 1.085v-.289m56.284 8.319v-16.276m-5.019 15.987l.069-15.734m-3.738 15.553v-15.264m29.7 15.228v-15.011m2.977 14.83v-14.83m2.769 14.83v-14.83m2.769 14.613v-14.215m2.492 13.781v-13.383m4.708 13.094l.069-12.659m-2.319 12.659v-12.985m6.577 11.828v-10.815m-2.181 11.647l.069-12.153m7.961 10.706v-9.26m-1.904 9.477v-9.911m-1.973 10.128v-10.417m5.885 9.694v-8.681m1.938 8.066v-7.849m2.042 7.523v-7.017m4.154 6.113l.104-5.281m-2.215 5.679v-6.294m4.292 5.389v-4.268m1.938 3.653v-3.255m2.146 2.857v-2.098m2.215 1.483v-1.085m-56.284 8.97v-16.276m5.019 16.168l-.069-16.168m3.704 15.915v-15.625"/></g><g class="D B E"><path d="M263.758 182.524c-24.368.044-46.225 3.129-61.604 7.932 1.322-.573 1.19-2.203-.441-6.346-1.895-5.024-4.891-4.847-4.891-4.847 17.009-5.068 40.673-8.24 67.068-8.284 26.351 0 50.235 3.217 67.245 8.328 0 0-2.996-.22-4.935 4.803-1.586 4.142-1.675 5.729-.441 6.39-15.379-4.847-37.632-7.932-62.001-7.976"/><path d="M263.89 170.979c-26.396.044-50.059 3.217-67.068 8.373-1.146.308-2.335-.132-2.688-1.234a2.1 2.1 0 0 1 1.322-2.688c17.142-5.288 41.422-8.681 68.434-8.725 27.012.044 51.381 3.393 68.479 8.725a2.09 2.09 0 0 1 1.366 2.688c-.353 1.102-1.542 1.542-2.688 1.19-17.009-5.112-40.805-8.284-67.157-8.328m-.22 11.677c-24.06.044-45.652 2.952-61.031 7.623-1.102.353-1.675 1.322-1.63 2.38a2.38 2.38 0 0 0 1.63 2.468c15.423 4.671 36.971 7.579 61.031 7.623 24.06-.044 45.608-2.952 60.987-7.623a2.38 2.38 0 0 0 1.63-2.468c0-1.058-.529-2.027-1.63-2.38-15.379-4.671-36.927-7.579-60.987-7.623zm-.088 4.01c21.725.044 41.466 2.468 56.404 6.39-18.463 4.471-37.408 6.647-56.404 6.478-18.953.167-37.853-2.008-56.272-6.478 14.938-3.966 34.548-6.346 56.272-6.39z"/></g><path d="M205.018 193.629c15.203-4.363 35.87-7.051 58.872-7.051 22.958 0 43.758 2.688 59.004 7.051" class="B E F"/><g class="D B"><path d="M264.022 145.597l2.424.573c-.397 1.146-.441 2.424-.441 3.79 0 5.993 4.318 10.884 9.65 10.884 4.274 0 7.932-3.173 9.166-7.491.132.088.881-3.966 1.322-3.922.308.044.308 4.23.441 4.142.573 5.508 4.803 9.21 9.518 9.21 5.332 0 8.461-4.847 8.461-10.884l-.044-1.322 2.996-3.569 1.63 4.539a10.84 10.84 0 0 0 9.474 15.159c3.217 0 6.037-1.851 7.667-4.627l1.939-2.952v3.613c0 3.613 1.278 6.874 4.23 7.447 0 0 3.393.22 7.932-3.966 2.55-2.354 4.88-4.935 6.962-7.712l.353 4.23s-3.702 6.874-7.8 9.695c-2.203 1.542-5.464 3.305-8.152 2.776l-5.993-2.38-6.962-1.895-13.44-2.115-20.27-2.512-9.386.485-12.162.132-11.193.308-9.298.132s-7.006.969-11.413 1.19l-9.254.441-13.132 1.939-6.698 1.895-6.169 2.203c-2.688.573-6.081-1.058-8.284-2.644a33.93 33.93 0 0 1-7.844-9.695l.441-4.186s2.468 3.481 6.962 7.712c4.495 4.186 7.888 3.966 7.888 3.966 2.952-.573 4.23-3.834 4.23-7.447v-3.613l1.939 2.952a8.99 8.99 0 0 0 7.623 4.627c5.112 0 9.562-4.847 9.562-10.576.048-1.631-.252-3.254-.881-4.759l1.586-4.583 3.041 3.569-.088 1.322c0 6.037 3.966 11.105 9.298 11.105 4.759 0 8.945-3.702 9.562-9.254.132.132.132-4.054.441-4.098.441-.044 1.19 3.966 1.322 3.878 1.278 4.407 4.891 7.535 9.21 7.535 5.288 0 9.606-4.891 9.606-10.884 0-1.322-.044-2.644-.441-3.834l2.512-.529" stroke-width="1.412"/><path d="M264.022 146.126l2.424.529c-.397 1.146-.441 2.38-.441 3.702 0 5.949 4.318 10.752 9.65 10.752 4.274 0 7.932-3.085 9.166-7.403.132.088.881-3.878 1.322-3.834.308 0 .308 4.142.441 4.054a9.83 9.83 0 0 0 9.518 9.078c5.332 0 8.461-4.803 8.461-10.708l-.044-1.322 2.996-3.525 1.63 4.495c-.617 1.41-.881 2.996-.881 4.671 0 5.685 5.288 10.223 10.356 10.223 3.217 0 6.037-1.763 7.667-4.539l1.939-2.864v3.525c0 3.525 1.278 6.742 4.23 7.315 0 0 3.393.264 7.932-3.922a56.67 56.67 0 0 0 6.962-7.579l.353 4.186s-3.702 6.786-7.8 9.518c-2.203 1.542-5.596 3.129-8.284 2.644-2.82-.573-4.847-3.261-5.905-6.346a12.1 12.1 0 0 1-6.962 2.203c-5.508 0-11.633-3.525-13.572-8.813-2.556 3.173-4.891 5.156-9.034 5.156-4.407 0-8.417-2.335-10.928-5.905-2.512 2.644-5.861 4.274-9.562 4.274a13.66 13.66 0 0 1-11.677-7.006c-2.35 4.271-6.804 6.96-11.677 7.051-3.702 0-7.051-1.675-9.562-4.318a13.53 13.53 0 0 1-10.928 5.905c-4.142 0-7.315-2.203-9.871-5.376-1.985 5.349-7.031 8.946-12.735 9.078-2.556 0-4.935-.837-6.962-2.203-1.058 3.085-3.085 5.729-5.905 6.257-2.688.529-6.081-1.058-8.284-2.6-4.098-2.732-7.844-9.518-7.844-9.518l.441-4.186s2.468 3.437 6.962 7.579c4.495 4.186 7.888 3.922 7.888 3.922 2.952-.573 4.23-3.746 4.23-7.315v-3.525l1.939 2.864a8.99 8.99 0 0 0 7.623 4.539c5.112 0 9.562-4.759 9.562-10.4 0-1.675-.264-3.261-.881-4.671l1.586-4.495 3.041 3.525c-.053.439-.082.88-.088 1.322 0 5.905 3.966 10.884 9.298 10.884 4.759 0 8.945-3.657 9.562-9.078.132.088.132-4.01.441-4.054.441-.044 1.19 3.966 1.322 3.834 1.078 4.244 4.833 7.263 9.21 7.403 5.288 0 9.606-4.847 9.606-10.752 0-1.322-.044-2.556-.441-3.702l2.512-.529" stroke-width="1.401"/><g class="M"><path d="M256.487 99.151c-12.338-3.085-21.901-3.085-28.951-1.146-18.243 4.935-20.05 22.782-13.837 37.192.353.837 2.82-.881 3.481-.22l1.763 6.874 1.983-1.939c-.749-2.071-3.349-2.556-3.746-4.759-3.966-22.518-5.596-42.656 38.47-32.785z"/><path d="M256.134 102.324c-42.744-9.166-43.934 8.593-38.866 32.917.485 2.424 3.217 1.586 3.79 4.186-1.586-2.335-.661 27.189 2.644-.22-5.112-24.809-7.844-41.114 31.639-32.3z"/></g></g><path d="M237.335 150.962c0-2.137 1.814-3.831 4.014-3.831s3.976 1.694 3.976 3.831-1.776 3.831-3.976 3.831-4.014-1.694-4.014-3.831zm44.505 0c0-2.137 1.776-3.831 3.976-3.831s3.976 1.694 3.976 3.831-1.776 3.831-3.976 3.831-3.976-1.694-3.976-3.831zm-86.017 7.757c0-2.097 1.776-3.791 3.976-3.791s3.976 1.694 3.976 3.791c0 2.137-1.776 3.831-3.976 3.831s-3.976-1.694-3.976-3.831zm127.994 0c0-2.097 1.776-3.791 3.976-3.791 2.239 0 4.014 1.694 4.014 3.791 0 2.137-1.776 3.831-4.014 3.831-2.2 0-3.976-1.694-3.976-3.831z" stroke-width="1.323" class="C B"/><path d="M269.839 99.151c12.338-3.085 21.901-3.085 28.951-1.146 18.243 4.935 20.05 22.782 13.837 37.192-.353.837-2.82-.881-3.481-.22l-1.763 6.874-1.983-1.939c.749-2.071 3.349-2.556 3.746-4.759 3.966-22.518 5.596-42.656-38.47-32.785zm88.528 41.466c15.379-19.609-18.331-35.253-31.904-35.473-4.23 0-8.284.441-12.03 1.322.837.925 1.454 1.939 2.115 2.996 3.085-.617 4.363.793 7.844.793 16.525-1.058 32.3 11.81 27.718 29.436l-3.437 11.986.881 2.996 6.654-2.908 1.939-11.149" class="D M B"/><path d="M351.185 111.578c3.79 2.424 6.61 5.376 8.196 8.637 1.182 2.476 1.785 5.188 1.763 7.932 0 4.627-1.542 19.698-4.451 22.958l.353-1.586c2.996-3.966 7.315-12.559 7.315-17.406 0-8.373-5.244-15.687-13.176-20.491z" class="B F M"/><path d="M270.191 102.324c42.744-9.166 43.934 8.593 38.866 32.917-.485 2.424-3.217 1.586-3.79 4.186 1.586-2.335.661 27.189-2.644-.22 5.112-24.809 7.844-41.114-31.639-32.3z" class="B D M"/><g class="E B"><g class="C"><use xlink:href="#B"/><path d="M334.263 102.765c0-2.027-1.763-3.702-3.966-3.702s-3.966 1.675-3.966 3.746 1.763 3.702 3.966 3.702 3.966-1.63 3.966-3.702z"/><path d="M341.358 104.087c0-2.071-1.763-3.702-3.966-3.702s-3.966 1.63-3.966 3.702 1.763 3.746 3.966 3.746 3.966-1.675 3.966-3.746z"/><path d="M348.1 107.171c0-2.071-1.807-3.702-3.966-3.702-2.247 0-4.01 1.63-4.01 3.702s1.763 3.702 3.966 3.702 3.966-1.63 3.966-3.702z"/><use xlink:href="#C"/><use xlink:href="#C" x="6.125" y="3.877"/><path d="M364.228 120.259c0-2.071-1.763-3.746-3.966-3.746s-3.966 1.675-3.966 3.746c0 2.027 1.763 3.702 3.966 3.702s3.966-1.675 3.966-3.702z"/><use xlink:href="#B" x="40.32" y="23.267"/><use xlink:href="#B" x="41.025" y="30.142"/><path d="M365.991 140.221c0-2.071-1.763-3.746-3.966-3.746s-3.966 1.675-3.966 3.746 1.763 3.702 3.966 3.702 3.966-1.63 3.966-3.702z"/></g><path d="M273.32 98.314l.881 28.819-4.539 8.24-5.949 1.983-6.478-1.983-4.671-8.24 1.498-28.819s1.014-5.949 9.606-6.037c8.24-.088 9.606 6.037 9.606 6.037z" class="D"/></g><g class="C B"><g transform="matrix(-.40878 -.05667 -.05584 .41482 675.4 -508.8)" class="X"><use xlink:href="#D"/><path d="M644 1601.7c0-5 4.4-8.9 9.7-8.9s9.6 4 9.6 8.9c0 5-4.3 8.9-9.6 8.9s-9.7-4-9.7-9z"/><use xlink:href="#E"/><path d="M643.3 1636c0-4.9 4.4-8.8 9.7-8.8 5.4 0 9.7 3.9 9.7 8.8 0 5-4.3 9-9.7 9-5.3 0-9.7-4-9.7-9zm120-72c0-5 4.4-8.8 9.7-8.8 5.4 0 9.7 3.9 9.7 8.8 0 5-4.3 9-9.7 9-5.3 0-9.6-4-9.6-9z"/><use xlink:href="#E" x="101.4" y="-61.1"/><path d="M727 1553.1c0-4.9 4.4-8.8 9.7-8.8 5.4 0 9.7 3.9 9.7 8.8 0 5-4.3 9-9.7 9-5.3 0-9.6-4-9.6-9z"/><path d="M708.3 1551.3c0-5 4.3-8.9 9.6-8.9 5.4 0 9.7 4 9.7 8.9 0 5-4.3 8.9-9.7 8.9-5.3 0-9.6-4-9.6-8.9zm-19.7 1.6c0-5 4.3-8.8 9.6-8.8 5.4 0 9.7 3.9 9.7 8.8 0 5-4.3 9-9.7 9-5.3 0-9.6-4-9.6-9z"/><use xlink:href="#F"/></g><path d="M318.444 105.1c0-2.071-1.763-3.702-3.966-3.702s-4.01 1.63-4.01 3.702 1.763 3.746 3.966 3.746 3.966-1.675 3.966-3.746zm44.991 42.039c0-2.071-1.763-3.746-3.966-3.746s-3.966 1.675-3.966 3.746 1.763 3.702 3.966 3.702 3.966-1.63 3.966-3.702z" class="E"/></g><g class="D B"><g stroke-width="1.403"><path d="M266.916 151.482c.556-.83-5.242-1.908-4.368-2.572l4.448-3.402s1.35-1.577 2.859-2.572l4.448-3.07 1.986-.498s0 .415-.318 1.494c-.318 1.245-1.271 3.817-1.271 3.817 2.303.249 4.606 1.66 6.115 3.817-1.442 2.091-3.664 3.447-6.115 3.734 0 0 1.43 1.908 1.747 3.153l.318 1.577-1.986-.581a31.94 31.94 0 0 1-4.924-2.406c-1.588-.996-2.939-2.489-2.939-2.489"/><path d="M260.721 151.482c-.477-.83 2.939-1.908 2.383-2.821l-2.383-3.153s-1.35-1.577-2.939-2.572c-1.112-.83-3.733-2.904-4.448-3.07l-1.906-.498s0 .415.318 1.494c.238 1.245 1.271 3.817 1.271 3.817-2.465.307-4.689 1.695-6.115 3.817 1.442 2.091 3.664 3.447 6.115 3.734 0 0-1.43 1.908-1.747 3.153l-.318 1.494 1.986-.498c.635-.166 3.733-1.66 4.845-2.406 1.588-.996 2.939-2.489 2.939-2.489"/></g><path d="M263.58 129.825c1.588 1.66 2.859 4.149 3.018 6.638 0 0 .238-.415 1.35-.83 1.112-.498 1.986-.332 1.986-.332l-.794 2.489c-.318.664-.635 2.655-1.35 4.398l-1.906 5.394c-.635-.83-1.35-.664-2.383-.664s-1.35-.166-1.986.581l-2.144-5.311c-.715-1.743-1.032-3.734-1.271-4.398-.318-.664-.874-2.489-.874-2.489s.794-.166 1.986.249c1.112.498 1.43.913 1.43.913.159-2.489 1.271-4.979 2.939-6.638" stroke-width="1.109"/><path d="M259.371 150.487c0-2.24 1.827-4.149 4.13-4.149s4.209 1.908 4.209 4.149c0 2.323-1.906 4.149-4.209 4.149-1.074.022-2.113-.402-2.888-1.181s-1.221-1.846-1.242-2.968" class="J K"/><g transform="matrix(.41708 0 0 .3917 419.1 16.7)"><circle transform="matrix(.84922 0 0 .84922 1139.2 -253)" cx="-1780.8" cy="502.7" r="26.2" stroke-width="3.796" class="Q"/><path d="M-379.4 113v14H-392v12.7h12.6v26h-15.9v15.8h45v-15.9h-16.5v-26h12.6V127h-12.6v-14z" stroke-width="3.223"/></g></g><g class="Q B"><path d="M245.23 177.126c0-1.41 1.158-2.546 2.663-2.546 1.467 0 2.663 1.175 2.663 2.546 0 1.41-1.197 2.585-2.702 2.585-1.428 0-2.625-1.175-2.625-2.585" class="R"/><path d="M231.799 180.956l-4.538.628c-1.238 0-2.682-1.256-2.888-2.303 0-1.256.825-2.093 2.063-2.303l4.538-.628 4.745-.628c1.238 0 2.269.837 2.475 1.884 0 1.047-.413 2.721-1.65 2.931l-4.745.628" class="E"/><path d="M212.807 180.887c0-1.371 1.158-2.468 2.586-2.468s2.548 1.097 2.548 2.468-1.158 2.468-2.548 2.468a2.49 2.49 0 0 1-1.797-.69c-.485-.463-.769-1.102-.789-1.778" class="R"/><path d="M195.699 187.237l4.745-5.024h6.807l-4.745 6.071z" class="E"/><path d="M278.657 176.97c0-1.41 1.158-2.585 2.625-2.585s2.702 1.175 2.702 2.546c0 1.41-1.235 2.585-2.702 2.585s-2.625-1.175-2.625-2.585m32.423 3.839c0-1.371 1.158-2.546 2.625-2.546s2.663 1.175 2.663 2.546c0 1.449-1.197 2.585-2.702 2.585-1.428 0-2.625-1.175-2.625-2.585" class="R"/><g class="E"><path d="M263.603 179.242h-5.095c-1.197 0-2.2-1.567-2.2-2.703s.965-2.742 2.162-2.742h10.383c1.158 0 2.123 1.606 2.123 2.742 0 1.175-.965 2.742-2.162 2.742h-5.211" class="P"/><path d="M297.03 181.043l4.632.548c1.197.157 2.702-1.253 2.818-2.35a2.1 2.1 0 0 0-.443-1.592c-.359-.445-.883-.72-1.449-.758l-4.632-.548-4.786-.548c-1.158-.157-2.239.666-2.393 1.802-.116 1.136.386 2.742 1.544 2.899l4.709.548m34.353 6.15l-4.709-4.975-6.871.078 4.786 5.954z"/></g></g><g class="D B"><path d="M259.88 80.82h8.152" class="E"/><path d="M167.914 140.617c-15.335-19.609 18.376-35.253 31.948-35.473 4.23 0 8.284.441 12.03 1.322-.837.925-1.454 1.939-2.115 2.996-3.085-.617-4.363.793-7.844.793-16.525-1.058-32.3 11.81-27.718 29.436l3.393 11.986-.881 2.996-6.654-2.908-1.939-11.149" class="M"/></g><path d="M175.141 111.578c-3.483 2.059-6.322 5.051-8.196 8.637-1.182 2.476-1.785 5.188-1.763 7.932 0 4.627 1.542 19.698 4.451 22.958l-.353-1.586c-2.996-3.966-7.315-12.559-7.315-17.406 0-8.373 5.244-15.687 13.176-20.491z" class="B F M"/><g class="C E B"><use xlink:href="#G"/><path d="M192.062 102.765c0-2.027 1.763-3.702 3.966-3.702s3.966 1.675 3.966 3.746-1.763 3.702-3.966 3.702-3.966-1.63-3.966-3.702z"/><path d="M184.968 104.087c0-2.071 1.763-3.702 3.966-3.702s3.966 1.63 3.966 3.702-1.763 3.746-3.966 3.746-3.966-1.675-3.966-3.746z"/><use xlink:href="#G" x="-21.592" y="3.878"/><use xlink:href="#H"/><use xlink:href="#H" x="-6.126" y="3.877"/><path d="M162.097 120.259c0-2.071 1.763-3.746 3.966-3.746s3.966 1.675 3.966 3.746c0 2.027-1.763 3.702-3.966 3.702s-3.966-1.675-3.966-3.702z"/><use xlink:href="#G" x="-40.32" y="23.267"/><path d="M158.793 133.435c0-2.071 1.763-3.702 3.966-3.702s3.966 1.63 3.966 3.702-1.763 3.702-3.966 3.702-3.966-1.63-3.966-3.702z"/><path d="M160.335 140.221c0-2.071 1.763-3.746 3.966-3.746s3.966 1.675 3.966 3.746-1.763 3.702-3.966 3.702-3.966-1.63-3.966-3.702z"/></g><g transform="matrix(.40878 -.05667 .05584 .41482 -149.2 -508.8)" class="B C X"><use xlink:href="#D"/><path d="M644 1601.7c0-5 4.4-8.9 9.7-8.9s9.6 4 9.6 8.9c0 5-4.3 8.9-9.6 8.9s-9.7-4-9.7-9z"/><use xlink:href="#E"/><path d="M643.3 1636c0-4.9 4.4-8.8 9.7-8.8 5.4 0 9.7 3.9 9.7 8.8 0 5-4.3 9-9.7 9-5.3 0-9.7-4-9.7-9zm122-72.3c0-5 4.3-8.9 9.7-8.9 5.3 0 9.6 4 9.6 8.9s-4.3 8.9-9.6 8.9c-5.4 0-9.7-4-9.7-9zm-18.7-5.7c0-4.9 4.4-8.8 9.7-8.8s9.6 3.9 9.6 8.8c0 5-4.3 9-9.6 9s-9.7-4-9.7-9zm-18.9-4.8c0-5 4.3-8.8 9.7-8.8 5.3 0 9.6 3.9 9.6 8.8 0 5-4.3 9-9.6 9-5.4 0-9.7-4-9.7-9zm-19.4-1.9c0-5 4.3-8.9 9.6-8.9 5.4 0 9.7 4 9.7 8.9 0 5-4.3 8.9-9.7 8.9-5.3 0-9.6-4-9.6-8.9z"/><path d="M690.1 1553.1c0-5 4.4-8.8 9.7-8.8s9.6 3.9 9.6 8.8c0 5-4.3 9-9.6 9s-9.7-4-9.7-9z"/><use xlink:href="#F"/></g><path d="M207.882 105.1c0-2.071 1.763-3.702 3.966-3.702s4.01 1.63 4.01 3.702-1.763 3.746-3.966 3.746-3.966-1.675-3.966-3.746zm-44.991 42.039c0-2.071 1.763-3.746 3.966-3.746s3.966 1.675 3.966 3.746-1.763 3.702-3.966 3.702-3.966-1.63-3.966-3.702z" class="B C E"/><g class="B D"><path d="M221.543 154.221c.318-.83.477-1.66.318-2.655-.117-.914-.474-1.775-1.032-2.489 0 0 3.892-1.494 5.083-2.489.953-.83 2.78-1.411 3.336-1.66l1.588-.664v1.328l-.318 1.826c1.985 0 4.05 1.245 5.559 2.904-.905 1.95-2.593 3.379-4.606 3.9.335 1.034.76 2.034 1.271 2.987l-1.827-.249c-.556-.166-2.541-.415-3.653-.996-1.43-.747-5.718-1.743-5.718-1.743" class="Y"/><path d="M213.284 135.468c1.032-.498 5.321.415 7.068 3.153 0 0 .238-.581 1.35-1.245s2.065-.581 2.065-.581.238 1.991.079 2.738c-.238.581-.635 6.887-1.032 8.796-.397 1.826-1.191 3.319-1.191 3.319-.847-.714-1.945-1.016-3.018-.83-1.093.164-2.056.835-2.621 1.826 0 0-1.191-1.162-2.303-2.738l-4.368-6.638-1.35-2.323s.794-.332 2.144 0c1.271.166 1.668.581 1.668.581-.238-3.485.159-4.647 1.509-6.057z" class="K"/><path d="M215.905 155.465c-.564-.613-.926-1.398-1.032-2.24a4.49 4.49 0 0 1 .318-2.489s-1.35-.83-2.859-1.411c-1.032-.415-3.018-.415-3.574-.415h-1.827l.477 1.079.794 1.494c-1.986.664-3.653 2.323-4.765 4.315 1.494 1.466 3.519 2.191 5.559 1.991l-.238 1.826-.159 1.245 1.668-.83c.556-.249 2.383-1.162 3.336-1.991 1.191-1.079 2.303-2.489 2.303-2.489" class="Z"/><g class="K"><path d="M214.713 153.142c0-2.323 1.906-4.149 4.209-4.149a4.16 4.16 0 0 1 4.13 4.149c0 2.24-1.827 4.149-4.13 4.149-1.088.045-2.147-.37-2.939-1.15a4.32 4.32 0 0 1-1.27-2.999" class="J"/><path d="M310.097 136.795c-2.08 1.415-3.602 3.565-4.289 6.057 0 0-.238-.498-1.35-1.162-1.191-.664-2.144-.664-2.144-.664l.477 2.655c.159.664.238 2.738.635 4.647a15.96 15.96 0 0 0 1.191 3.319c.847-.714 1.945-1.016 3.018-.83a3.73 3.73 0 0 1 2.621 1.826 21.85 21.85 0 0 0 2.303-2.738c1.032-1.66 1.747-3.568 2.144-4.149l1.35-2.323s-.874-.332-2.144-.083-1.747.581-1.747.581a9.91 9.91 0 0 0-1.986-7.136"/></g><path d="M304.757 154.221c-.318-.83-.477-1.66-.318-2.655.117-.914.474-1.775 1.032-2.489 0 0-3.892-1.494-5.083-2.489-.953-.83-2.78-1.411-3.336-1.66l-1.588-.664v1.328l.318 1.826c-1.985 0-4.05 1.245-5.559 2.904.905 1.95 2.593 3.379 4.606 3.9-.335 1.034-.76 2.034-1.271 2.987l1.827-.249c.556-.166 2.541-.415 3.653-.996 1.43-.747 5.718-1.743 5.718-1.743" class="Y"/><path d="M313.016 135.468c-1.032-.498-5.321.415-7.068 3.153 0 0-.238-.581-1.35-1.245s-2.065-.581-2.065-.581-.238 1.991-.079 2.738c.238.581.635 6.887 1.032 8.796a14.48 14.48 0 0 0 1.191 3.319c.847-.714 1.945-1.016 3.018-.83 1.093.164 2.056.835 2.621 1.826 0 0 1.191-1.162 2.303-2.738l4.368-6.638 1.35-2.323s-.794-.332-2.144 0c-1.271.166-1.668.581-1.668.581.238-3.485-.159-4.647-1.509-6.057z" class="K"/><path d="M310.395 155.465c.564-.613.926-1.398 1.032-2.24a4.49 4.49 0 0 0-.318-2.489s1.35-.83 2.859-1.411c1.032-.415 3.018-.415 3.574-.415h1.827l-.477 1.079-.794 1.494c1.986.664 3.653 2.323 4.765 4.315-1.494 1.466-3.519 2.191-5.559 1.991l.238 1.826.159 1.245-1.668-.83c-.556-.249-2.383-1.162-3.336-1.991-1.191-1.079-2.303-2.489-2.303-2.489" class="Z"/><path d="M311.587 153.142c0-2.323-1.906-4.149-4.209-4.149a4.16 4.16 0 0 0-4.13 4.149c0 2.24 1.827 4.149 4.13 4.149 1.088.045 2.147-.37 2.939-1.15a4.32 4.32 0 0 0 1.27-2.999" class="J K"/></g><g stroke-width="3.945" class="B C"><use xlink:href="#I" transform="matrix(-.32479 -.04503 -.04437 .3296 316.4 -101.2)"/><use xlink:href="#I" transform="matrix(-.32479 -.04503 -.04437 .3296 316.4 -108.5)"/><use xlink:href="#I" transform="matrix(-.32479 -.04503 -.04437 .3296 316.4 -115.8)"/><use xlink:href="#I" transform="matrix(-.32479 -.04503 -.04437 .3296 316.4 -123.2)"/><use xlink:href="#I" transform="matrix(-.32479 -.04503 -.04437 .3296 316.4 -130.5)"/></g><g class="S B"><path d="M360.336 324.045v35.915c-7.387 47.878-48.591 83.212-97.035 83.212s-89.648-35.334-97.035-83.212V202.634h194.07v121.412z" class="F"/><path d="M306.388 199.283H162.501V356.61c5.372 51.485 48.772 90.591 100.536 90.591s95.164-39.106 100.536-90.591l.188-157.327h-57.374z"/><path d="M165.551 323.405V202.672h194.07v120.809z" class="Q"/><g class="G"><path d="M255.376 291.293l-1.016-1.054-.64-1.807-4.141 1.468-7.228 1.28 2.635.339 3.652 1.092.602.188 2.748-.678zm10.654-4.216l.941-3.576-5.534 2.259-4.706 1.694 1.882 2.936 3.087-1.205 2.146-.753z"/><path d="M266.972 283.5l.602-5.421-4.48 1.882-4.028 2.598-4.518 1.656 1.506 2.259.678.979 4.706-1.694zm-73.148 4.141l-2.259-4.894 4.555 2.071 5.534 1.882 7.153 2.635 8.056 2.372 3.802.527-4.104 1.129-3.162.414h-2.522l-6.4-1.882-4.518-1.656z"/><path d="M191.565 282.747l-1.318-4.856 10.353 4.744 9.035 2.824 9.713 1.958 8.659 1.581 9.148-.113 7.002-1.129 7.906-2.447 1.393 2.447.264.678-4.141 1.468-7.228 1.28-2.635-.339-4.518-.602-3.012-.038-5.459.715-1.958.376-2.861.602-1.242.339-3.802-.527-8.019-2.409-7.191-2.598-5.534-1.882z"/></g><path d="M359.621 305.184l-3.2.828-6.965.452-5.534-.075-10.278-1.506-3.991-1.167-7.454.038-4.706.678-4.367 1.092-7.793.678-6.024.301-3.388-.979-.828-.113-6.325-.753-7.492-.866h-5.647l-3.539.376-7.078.753-2.711 1.318-6.776-.339-6.325-1.092-6.776-.979-3.765-1.054h-5.572l-5.233 1.129-4.781.527-9.035 1.581-4.066-.188-7.416-1.318-7.906-.828H187.8l-2.974.113-1.882.113-4.518.904-4.179.904-8.659-1.016v-5.045l6.212.113 4.744.376.264-.075 3.953-.866.753-.226 3.991-1.054 4.668-.452 8.132.452 6.965 1.393 5.572 1.393 7.304-.565 5.722-1.769 6.136-1.28 6.024.113 5.722 1.28 6.626 1.28 6.099.979 8.96.188 5.271-1.882 5.647-1.205 8.207.452 6.212.188 3.84 1.167.565.264 3.275 1.355 2.146.188 3.614.376 4.894.038 5.007-.452 4.518-2.184 5.986-.753 5.12-.376 6.852.64 6.249 1.732 6.099.64h3.878l5.496-.414 3.313-.527v5.007z" class="W"/><g class="G"><path d="M268.139 271.942l-.565 6.136-.602 5.421-.941 3.576-.376 5.647 3.012-.715 1.581-2.259.828-3.464.753-2.598.866-3.275-.038-3.727.075-9.6-.753-2.861-1.769-.151-1.882 1.355-.188 3.991v2.522z"/><path d="M257.56 279.81l-4.593 2.146 1.544 2.259 4.518-1.656 4.066-2.635 4.518-1.882.527-6.099-1.506 1.506-2.071 1.995-2.409 1.732-1.092.828zm-29.101-37.233v42.993l-3.727-.151.188-11.031.565-31.812zm0 0v-1.769h14.682v1.769z"/></g><path d="M165.551 311.547v5.798l4.631.151 6.626.376 2.899-.452 4.518-.979 2.824-.866 3.727-.075 2.184-.038 2.635.678 2.409.264 3.426.376 3.84.678 7.454.376 5.158-.301 5.459-.489 5.346-1.506 5.911-.866 7.642.904 5.12 1.506 4.518.941 7.981.565 4.894-.151 6.551-1.129 3.464-1.205 8.659-.264 5.271 1.016 5.685.979 4.518 1.544 8.132-.376 3.539-.753 5.534-1.054 5.12-1.054 5.835-.264 4.894-.188 4.668.602 4.932.979 7.416.527h4.48l4.894-.414 1.28-.264v-5.948l-3.991 1.129-2.824.753h-6.889l-5.459-.753-4.894-1.129-3.125-.414-2.447-.226h-8.019l-7.379 1.242-4.819 1.092-5.798.64-5.685-.602-6.325-.753-6.475-.904-3.878-.602-3.915.075-6.249.301-4.066 1.581-5.647.376-5.873-.527-6.776-1.167-6.4-1.242-5.911-.678-6.739.414-3.464 1.092-7.341 1.431-4.593.452-6.4-.715-3.727-.753-5.045-1.129-5.609.264h-2.108l-3.765.075-3.501.602-1.431.226-4.329 1.431h-6.212l-6.927-1.205z" class="W"/><path d="M227.48 220.253l3.765.226 2.522.376 1.995.678 4.706.264 2.334.602 2.296.979c-2.146.151-4.405.188-5.948.979 1.845.565 3.878.489 5.421 1.958l-1.506.376c-1.694-.452-3.125.414-4.706.715l4.367 1.732-2.673-.188h-12.649z" class="C"/><path d="M227.48 220.253l-.075 8.696.113 2.56 2.56.226 1.845.376 1.882 1.242.565 1.882-.828 1.393-1.619.565-3.464.151h-5.609l-1.92-1.656v-1.958l.489-1.619 1.694-.376 2.673-.301-.113-13.252 1.845 2.071z" class="G"/><path d="M243.028 242.803l-.941 2.221-1.205 2.899-1.393 2.409-1.431 3.464-.602 4.066.602 4.442 1.619 4.216 2.334 5.308 2.522 3.501-2.033 2.598-2.786-1.242-3.2-1.355-2.447-.602-1.694-.64-1.807-.075-.979-.113-1.129-.151-.376-31.172zm-34.221-.226l-.828 2.635-1.129 2.748-1.129 3.313-.753 3.576-.075 2.748.489 4.405.753 3.652.941 4.518 1.28 3.614 1.882 3.915 3.238 5.647 1.506.452 1.769-2.635 1.882-2.184 2.824-2.899 1.769-.941 1.694-.753.565-31.812h-16.678z" class="C"/><path d="M208.807 242.577h16.678l.038-1.769h-16.715v1.769z" class="G"/><path d="M294.717 293.438l-5.948-1.694-6.814-1.769-5.835.113-3.802.602-3.652 1.318-3.012.753-4.856.678-1.205.527-1.544.075h-4.969l-3.802-1.242-.64-.188-3.652-1.129-2.635-.301-2.635-.339-4.518-.602-3.012-.038-5.459.715-1.958.376-2.861.602-1.242.339-4.104 1.129-3.162.414h-5.045l-3.388-.753-3.689-1.092-3.539-1.28h-2.635l-2.108.075h-2.56l-4.819.527-4.969 1.054-4.104 1.167-.979.301-3.162.64h-3.012l-3.878-.226v5.496l6.212.113 4.744.376.264-.075 3.953-.866.753-.226 3.991-1.054 4.668-.452 8.132.452 6.965 1.393 5.572 1.393 7.304-.565 5.722-1.769 6.136-1.28 6.024.113 5.722 1.28 6.626 1.28 6.099.979 8.96.188 5.271-1.882 5.647-1.205 8.207.452 6.212.188 3.84 1.167.565.264 3.275 1.355 2.146.188 3.614.376 4.894.038 5.007-.452 4.518-2.184 5.986-.753 5.12-.376 6.852.64 6.249 1.732 6.099.64h3.953l5.496-.414 3.313-.527v-7.68l-1.882.113h-5.045l-7.68.565-7.191-.904-8.282-1.129-1.506.151-4.518.339-4.254.866-5.045 1.054-4.254 1.129-1.995.565-4.141 1.506-3.012-1.054-1.506-.527-2.748-.753-.301-.038-1.581-.979z" class="C"/><g class="G"><path d="M246.454 275.067l.866 3.125 1.656 2.372 1.732 2.259 1.393 2.485 1.355 2.447.264.678.64 1.807 1.016 1.054 2.635 2.748 1.581-.075 1.205-.527-2.146-3.049-1.92-2.936-.64-.979-1.581-2.259-1.544-2.259-1.431-2.673-2.146-4.518z"/><path d="M242.84 284.516l-.188-6.4v-14.193l3.238.075v4.104l2.372-1.958 1.431-.791 1.431-.527.376-3.012 3.125-.188v3.539l1.242 1.129 1.355.414 1.242.678v-3.84l3.614-.075.075 13.666-1.092.828-3.501 1.807.151-3.689.113-2.334-1.431-2.635-1.619-1.468-1.769-.452h-3.727l-1.619.979-1.205 2.146v2.711l.866 3.125 1.656 2.372 1.732 2.259-2.259.452z"/><path d="M213.475 283.349l1.506.452 7.266 1.544 2.485.113 3.765.113 1.694.038 7.416-.376 5.233-.715 5.647-1.242 2.259-.414 1.355 2.447-7.944 2.447-7.002 1.129-9.148.113-8.659-1.581-9.675-1.958-9.035-2.824-10.391-4.744-.527-2.071-.904-4.518 5.421 3.313 3.275 1.506 4.969 2.673 6.099 2.899z"/><path d="M190.473 290.728h2.522l2.108-.075-.715-1.694-.565-1.318-2.259-4.894-1.318-4.894-.527-2.071-.904-4.518v-3.652l-1.393-1.958-2.56-1.092-.301 1.318.188 6.061.791 4.028.866 4.028 1.016 4.254 1.431 3.313z"/></g><path d="M165.551 311.547l6.965 1.167h6.249l4.329-1.431 1.431-.226 3.539-.602 3.765-.038 2.071-.038 5.647-.264 5.007 1.129 3.727.753 6.4.753 4.593-.489 7.341-1.431 3.464-1.092 6.739-.376 5.873.64 6.4 1.242 6.776 1.129 5.911.527 5.647-.339 4.066-1.581 6.249-.301 3.915-.075 3.878.602 6.475.904 6.325.753 5.647.602 5.835-.64 4.781-1.054 7.379-1.242h8.019l2.447.226 3.125.414 4.894 1.129 5.459.753h6.889l2.824-.753 3.991-1.129v-6.024l-3.2.866-6.965.452-5.534-.075-10.278-1.506-3.991-1.167-7.454.038-4.706.678-4.367 1.092-7.793.678-6.024.301-3.388-.979-.828-.113-6.325-.753-7.492-.866h-5.647l-3.539.376-7.078.753-2.711 1.318-6.776-.339-6.325-1.092-6.776-.979-3.765-1.054h-5.572l-5.233 1.129-4.781.527-9.035 1.581-4.066-.188-7.416-1.318-7.906-.828H187.8l-2.974.113-1.882.113-4.518.904-4.179.904-8.659-1.016v6.852z" class="C"/></g><g stroke="#666" class="a"><path d="M287.928 304.545c-1.266-1.288-2.171-2.912-1.928-4.213l.189-.197 6.151-6.225.151-.177c2.579-.578 6.708 3.453 6.202 6.016l-.227.218-6.131 6.263-.189.197c-1.291.241-2.934-.652-4.218-1.882zm1.817-1.838c.592.567 1.471.935 2.105.748l.153-.081 3.614-3.714.113-.157c.416-1.343-1.579-3.273-2.962-2.837l-.115.06-3.614 3.714-.095.099c-.197.739.188 1.562.801 2.168zm-13.321 12.742c-1.189-1.328-1.98-3.013-1.64-4.316l.171-.139 6.526-5.885.229-.121c2.583-.384 6.447 3.884 5.766 6.393l-.248.179-6.488 5.864-.248.179c-1.272.182-2.88-.828-4.069-2.156zm1.936-1.705c.574.626 1.376 1.034 2.03.885l.153-.081 3.831-3.486.153-.081c.474-1.325-1.35-3.394-2.755-3.093l-.133.119-3.831 3.486-.115.06c-.237.663.072 1.526.666 2.19z" class="H"/><path d="M284.851 309.833h0c-.511.514-1.341.609-1.873.156-.455-.493-.434-1.286.095-1.859h0 0l5.897-6.335h0 0c.529-.572 1.379-.629 1.852-.195.494.473.492 1.304-.037 1.877h0l-5.936 6.355h0zm10.705-11.216h0c-.358.433-1.055.41-1.605.015-.532-.453-.643-1.127-.343-1.578l.038-.02 4.068-5.077h0c.358-.433 1.073-.468 1.643-.035.512.414.643 1.127.305 1.599h0l-4.068 5.077h0z" class="P"/></g><g class="B"><path d="M193.823 287.641l.565 1.318.753 1.694h2.635l3.501 1.28 3.727 1.129 3.351.753h2.522l-6.4-1.882-4.518-1.694-6.136-2.56zm71.793 5.082l.414-5.647-2.184 1.355-2.146.753-3.049 1.205 2.146 3.049zm-7.567 1.318l-2.673-2.748-3.388.828-2.748.678 3.84 1.242h4.969zm-29.591-51.463v-1.769h-2.936v1.769h2.936zm-2.936-1.769l.075-3.464h2.861v3.464z" class="G S"/><g class="D L"><path d="M294.717 290.427v3.012l1.544.979.301.075 2.748.753v-1.205l-.151-3.576-4.48-.038zm37.572-1.581l-4.254-.038h-4.48l.113-4.706h8.546l.075 4.744zm-11.219-10.88l5.647-.038 4.48-.075v-5.647l-5.045.075-5.271.038.188 5.647zM306.2 284.29l-5.647-.075-5.835-.038v-5.911l6.024-.038 5.308-.075.151 6.136z"/><path d="M300.741 278.229l5.308-.075 15.059-.188-.264-5.647-4.518.038-9.525.075-6.024.075v5.722z"/><path d="M300.741 278.229v-5.722h-2.861l-3.162 4.48v1.28l6.024-.038zm15.586-5.873h4.518l5.271-.075-.151-5.685-4.781-.075-4.894-.038v5.873z"/><path d="M316.327 272.356l-9.525.075v-6.061l4.555.038 4.932.075v5.873z"/><path d="M306.764 272.431l-6.024.075h-2.861l4.367-6.212 4.518.075v6.061zm4.593-6.024l-4.555-.038-4.518-.075v-6.249l4.329-.075 4.744-.113v6.551zm14.532-6.551h-4.706l-3.878-.075.376-6.249h8.056l.151 6.287z"/><path d="M306.614 259.97l.075-6.325h-4.329l-.038 6.4 4.292-.075zm9.788-11.859l9.336-.075v-3.501l-9.336-.075v3.652zm15.887 40.734l-.113-4.744h5.647v4.781l-5.534-.038zm-22.287 1.769l4.216.075v2.899l-4.254 1.129.038-4.104zm-3.802-6.325l8.019.075 9.412-.264h3.313l-.188-6.174-20.706.226.151 6.136z"/><path d="M310.002 290.615l-9.336-.113-.113-6.287 5.647.075 8.019.075v6.287l-4.216-.038zm21.233-12.762v-5.647h2.861l3.765 5.572-6.626.075z"/><path d="M325.964 266.559l.188 5.722 5.045-.038h2.861l-3.689-5.647h-4.405zm0 0h-4.781v-6.776l4.706.038 4.48.038v6.739l-4.405-.038z"/><path d="M311.357 259.857v6.551l4.932.075 4.894.038v-6.701h-6.287l-3.539.038zm14.532 0l-.151-6.287h4.631v6.325h-4.518z"/><path d="M325.739 253.57h-8.056v-4.518h-2.786v4.593H302.36l.038-5.459 4.292-.038 9.675-.038 9.374-.075h4.631v5.534h-4.631z"/><path d="M306.689 248.149l.075-3.765h-4.329v3.765h4.254zm19.049-3.614v3.501h4.631v-3.501h-4.631zm9.976-3.802v-13.214h-6.927v6.212h-3.878v-6.287l-6.626.075v5.835l-3.351.151-.151-5.835-7.002-.226v5.572l-3.576.113-.151-5.158-7.341-.151.226 12.461zm-7.68 48.075h-4.48v2.861l4.518-.376v-2.485z"/></g><path d="M314.219 290.653v-6.287c1.732-7.906 8.508-6.701 9.412-.264l-.075 4.668v2.899l-4.292.866-5.045 1.054v-2.899z" class="L Q"/><path d="M306.689 248.149l9.675-.038v-3.652l-9.6-.038zm8.207 5.496v6.136l-3.539.038-4.744.113.075-6.325h8.207z" class="D L"/><path d="M314.896 253.646v-4.593h2.786v4.518l-.376 6.249h-2.409z" class="L Q"/><path d="M300.666 290.502h-1.506l-4.48-.075v-6.249l5.873.038.113 6.287zm31.511-6.4h-5.271l-.151-6.174 4.442-.075 6.588-.075v6.325h-5.609zm5.647 4.744v3.464l-8.282-1.129-1.506.151v-2.56h4.254l5.534.038zm-27.821 1.769l-9.336-.113h-1.506l.113 3.539.038 1.167 1.506.527 3.012 1.054 4.141-1.506 1.995-.527.038-4.141zm-3.238-46.193l9.638.038 9.336.075h4.631l5.346-3.802-38.776-.452 5.496 4.141h4.329z" class="D L"/><g class="S"><path d="M228.873 271.415h-.151" class="G"/><path d="M359.621 324.761v35.878c-7.387 47.878-48.591 83.212-97.035 83.212s-89.648-35.334-97.035-83.212v-35.576l194.07-.301z" class="J"/></g></g><g stroke="#666" class="a"><path d="M200.777 320.452h0c.608.302 1.35.169 1.624-.36.311-.533.071-1.224-.504-1.567h0l-6.755-3.841h0 0c-.608-.302-1.355-.206-1.661.365-.311.533-.071 1.224.579 1.558h0l6.717 3.846h0z" class="P"/><path d="M196.578 317.005c.724-1.459 1.004-3.127.384-4.11l-.206-.125-7.01-3.467-.201-.088c-2.353.301-4.645 4.922-3.481 6.898l.243.121 7.048 3.462.243.121c1.12-.144 2.288-1.394 2.98-2.811zm-2.067-1.026c-.329.687-.939 1.259-1.546 1.261l-.159-.056-4.171-2.047-.122-.06c-.741-1.044.345-3.232 1.624-3.32l.122.06 4.171 2.047.122.06c.375.559.289 1.367-.04 2.055zm-19.807-16.25c1.15-1.096 1.949-2.565 1.8-3.722l-.173-.168-5.434-5.68-.173-.168c-2.304-.502-6.061 3.054-5.625 5.275l.183.242 5.392 5.648.215.2c1.131.235 2.59-.522 3.777-1.623zm-1.621-1.69c-.54.525-1.296.849-1.889.66l-.126-.098-3.167-3.39-.122-.06c-.312-1.25 1.448-2.918 2.71-2.549l.052.107 3.204 3.385.084.065c.193.62-.206 1.355-.746 1.879zm11.737 11.629c1.098-1.203 1.855-2.705 1.557-3.843l-.173-.168-5.727-5.301-.173-.168c-2.322-.348-5.864 3.408-5.273 5.648l.178.205 5.769 5.334.211.163c1.159.155 2.566-.708 3.669-1.874zm-1.681-1.569c-.498.557-1.249.919-1.837.767l-.126-.098-3.437-3.127-.089-.102c-.419-1.199 1.247-3.006 2.499-2.711l.126.098 3.4 3.132.089.102c.193.62-.089 1.378-.624 1.94z" class="H"/><path d="M177.367 304.512h0c.44.475 1.211.566 1.654.168.438-.436.459-1.159.014-1.672h0l-5.257-5.779h0c-.483-.508-1.216-.603-1.691-.163-.442.398-.426 1.117.024 1.667h0l5.21 5.709h0zm-9.14-9.722h0c.421.326 1.019.249 1.456-.187.4-.431.473-1.047.084-1.415h0l-4.234-4.012h0c-.347-.335-1.019-.249-1.419.182-.438.436-.468 1.085-.084 1.415h0 0l4.196 4.017h0zm19.666 19.305h0c.51.428 1.202.491 1.634.018.438-.436.379-1.187-.136-1.653h0l-5.62-5.353h0c-.515-.465-1.276-.482-1.677-.051-.438.436-.379 1.187.141 1.69h0l5.62 5.353h0z" class="P"/></g><path d="M359.621 324.045v-6.927l-1.28.264-4.932.414h-4.48l-7.416-.527-4.932-.979-4.706-.602-4.856.188-5.835.264-5.12 1.054-5.534 1.054-3.539.753-8.132.376-4.518-1.544-5.685-.979-5.271-1.016-8.659.264-3.464 1.205-6.588 1.129-4.819.151-8.056-.602-4.518-.941-5.082-1.468-7.642-.904-5.911.828-5.346 1.544-5.459.489-5.158.301-7.454-.376-3.84-.678-3.388-.376-2.447-.264-2.635-.678h-2.184l-3.727.113-2.824.866-4.518.979-2.899.452-6.626-.376-4.631-.151v7.04z" class="B C S"/><path d="M272.656 311.133c.414.489 7.002 1.129 14.118.904.376 0 1.581-.602 1.581-.188v3.388c0 .376-.301.678-.678.678h-15.059a.68.68 0 0 1-.64-.678v-3.388c0-.376.376-.979.678-.715z" class="W"/><g class="B"><path d="M263.1 186.2v12.4" class="F L"/><path d="M183.623 159.258l.755-2.169c1.51-3.944 1.132-2.761 3.114-5.719.872 1.386 1.392 2.981 1.51 4.634a9.05 9.05 0 0 1 5.096-.296c.566.493-.283 3.55-1.227 5.127 0 0 .661.592 1.227 1.479l.661 1.183-1.887.394c-.566.197-5.191 1.479-6.417 1.282.661-2.761-1.132-5.423-2.831-5.916zm-3.681 4.043l-5.662-6.902-5.191-5.916c2.548-1.38 5.474-.789 8.399-.592 0-1.775 1.038-3.155 1.887-4.634a39.38 39.38 0 0 1 4.247 13.903c-2.831.986-4.058 2.169-3.681 4.141z" class="D R"/><path d="M178.768 163.255a4.16 4.16 0 0 1 8.32 0 4.16 4.16 0 0 1-8.32 0" class="J K"/><path d="M343.477 159.258l-.755-2.169c-1.51-3.944-1.132-2.761-3.114-5.719-.872 1.386-1.392 2.981-1.51 4.634a9.05 9.05 0 0 0-5.096-.296c-.566.493.283 3.55 1.227 5.127 0 0-.661.592-1.227 1.479l-.661 1.183 1.887.394c.566.197 5.191 1.479 6.417 1.282-.661-2.761 1.132-5.423 2.831-5.916zm3.681 4.043l5.662-6.902 5.191-5.916c-2.548-1.38-5.474-.789-8.399-.592 0-1.775-1.038-3.155-1.887-4.634a39.38 39.38 0 0 0-4.247 13.903c2.831.986 4.058 2.169 3.681 4.141z" class="D R"/><path d="M348.332 163.255a4.16 4.16 0 0 0-8.32 0 4.16 4.16 0 0 0 8.32 0" class="J K"/></g><g transform="matrix(.5121 0 0 .5121 -208.6 58.7)"><g class="B C"><circle cx="778.1" cy="318.6" r="23" stroke-width="2"/><use xlink:href="#J" class="N"/></g><use xlink:href="#K" class="B G N"/><use xlink:href="#L" class="B O T"/><g class="N B"><path d="M778.3 310.4v11.3" class="F"/><use xlink:href="#M" class="O"/></g><use xlink:href="#N" class="B H I U"/><ellipse transform="matrix(.09763 0 0 .3008 746.8 236.1)" cx="268.8" cy="306.9" rx="6.6" ry="2.1" class="B V"/><use xlink:href="#O" class="B H I U"/><ellipse transform="matrix(-.09763 0 0 .3008 809.3 236.1)" cx="268.8" cy="306.9" rx="6.6" ry="2.1" class="B V"/><path d="M769.8 326.5c3 .1 6.7 0 7.3 1.8-.5-1 .3-1.8-2-3h-5.3c-.3.5-.8.9 0 1.2zm17 0c-2.9.1-6.7 0-7.2 1.8.5-1-.4-1.8 2-3h5.3c.2.5.8.9 0 1.2z" class="H I B"/><path d="M775.2 334.7c1 .5 6 .5 6.8 0" class="B F I"/><use xlink:href="#P" class="B O T"/><use xlink:href="#Q"/></g><g class="B C L"><path d="M271.636 333.907c3.728.632 7.37 1.694 10.853 3.165 3.323 1.396 6.482 3.152 9.421 5.238a49.48 49.48 0 0 1 8.29 7.348 50.12 50.12 0 0 1 5.125 6.896c1.67 2.674 3.083 5.501 4.22 8.441a50.27 50.27 0 0 1 2.902 10.853c.503 3.291.68 6.623.528 9.948-.186 3.878-.818 7.722-1.884 11.456-1.118 3.947-2.712 7.743-4.748 11.305-1.714 3.002-3.734 5.818-6.029 8.403a49.59 49.59 0 0 1-8.667 7.763c-3.298 2.311-6.867 4.209-10.627 5.652a48.76 48.76 0 0 1-9.232 2.525c-2.774.494-5.586.746-8.403.754l-2.6-.075c-3.859-.213-7.679-.883-11.38-1.997-3.64-1.074-7.142-2.566-10.438-4.447-3.019-1.721-5.848-3.754-8.441-6.067-2.891-2.58-5.471-5.489-7.687-8.667a50.23 50.23 0 0 1-5.125-9.383 50.61 50.61 0 0 1-3.354-11.757c-.595-3.775-.759-7.606-.49-11.418a50.57 50.57 0 0 1 2.449-12.36 50.23 50.23 0 0 1 5.502-11.531c2.186-3.391 4.786-6.481 7.687-9.232 2.745-2.6 5.779-4.876 9.044-6.783a48.95 48.95 0 0 1 8.78-4.032 49.1 49.1 0 0 1 11.757-2.525 46.84 46.84 0 0 1 4.296-.188c2.789 0 5.464.226 8.215.716z"/><path d="M269.958 343.152a40.51 40.51 0 0 1 8.969 2.562c2.737 1.144 5.34 2.585 7.763 4.296a40.62 40.62 0 0 1 6.783 6.029c1.58 1.758 3.005 3.649 4.258 5.652a40.7 40.7 0 0 1 3.505 6.858 40.81 40.81 0 0 1 2.374 8.856c.406 2.68.545 5.394.415 8.102-.136 3.176-.642 6.325-1.507 9.383-.924 3.226-2.24 6.327-3.919 9.232a40.81 40.81 0 0 1-4.974 6.858 40.7 40.7 0 0 1-7.16 6.331c-2.717 1.881-5.653 3.425-8.742 4.597-2.451.935-4.988 1.629-7.574 2.073-2.29.4-4.609.602-6.934.603a36.25 36.25 0 0 1-2.148-.038 40.51 40.51 0 0 1-9.345-1.62c-2.995-.884-5.878-2.11-8.592-3.655-2.49-1.397-4.827-3.051-6.971-4.936-2.381-2.118-4.506-4.509-6.331-7.122-1.673-2.38-3.088-4.932-4.22-7.612-1.305-3.079-2.228-6.306-2.751-9.609-.482-3.09-.609-6.226-.377-9.345.226-3.429.904-6.783 1.997-10.061 1.098-3.321 2.618-6.487 4.522-9.421 1.799-2.758 3.925-5.288 6.331-7.537 2.265-2.139 4.768-4.011 7.461-5.577 2.274-1.323 4.672-2.421 7.16-3.278a40.7 40.7 0 0 1 9.722-2.035 38.89 38.89 0 0 1 10.325.377z"/><path d="M269.882 344.132c3.026.504 5.984 1.351 8.818 2.525a40.17 40.17 0 0 1 7.65 4.145 39.87 39.87 0 0 1 10.89 11.343 39.34 39.34 0 0 1 3.429 6.67 39.19 39.19 0 0 1 2.751 16.505c-.145 3.076-.651 6.124-1.507 9.082-.907 3.136-2.198 6.149-3.844 8.969a39.72 39.72 0 0 1-4.899 6.67c-2.084 2.34-4.437 4.427-7.009 6.218a40.36 40.36 0 0 1-8.592 4.484c-2.43.906-4.941 1.574-7.499 1.997-2.261.377-4.522.603-6.821.603l-2.11-.075a40.47 40.47 0 0 1-9.232-1.545 40.32 40.32 0 0 1-8.479-3.542 40.17 40.17 0 0 1-6.821-4.823 39.83 39.83 0 0 1-6.255-6.896c-1.657-2.317-3.06-4.806-4.183-7.424a39.49 39.49 0 0 1-2.713-9.345 39.19 39.19 0 0 1-.377-9.044 39.38 39.38 0 0 1 1.96-9.798 39.49 39.49 0 0 1 4.484-9.157c1.768-2.691 3.856-5.159 6.218-7.348a39.98 39.98 0 0 1 7.348-5.389 40.17 40.17 0 0 1 7.122-3.203 40.62 40.62 0 0 1 9.571-1.997 38.89 38.89 0 0 1 10.137.415z"/><path d="M269.543 345.262a38.89 38.89 0 0 1 8.516 2.449c2.591 1.099 5.055 2.476 7.348 4.107 2.364 1.637 4.538 3.533 6.481 5.652 1.524 1.673 2.898 3.476 4.107 5.389 1.31 2.063 2.42 4.246 3.316 6.519 1.067 2.694 1.825 5.501 2.261 8.366.385 2.556.511 5.144.377 7.725a38.55 38.55 0 0 1-1.432 8.856c-.893 3.058-2.158 5.994-3.768 8.742a38.7 38.7 0 0 1-4.71 6.481 38.74 38.74 0 0 1-6.821 6.029c-2.591 1.775-5.387 3.23-8.328 4.334-2.354.9-4.789 1.569-7.273 1.997a38.85 38.85 0 0 1-6.595.565c-.754 0-1.281 0-2.035-.075a38.89 38.89 0 0 1-8.931-1.507c-2.862-.836-5.619-1.999-8.215-3.467a38.89 38.89 0 0 1-6.632-4.673 38.74 38.74 0 0 1-6.029-6.745c-1.597-2.248-2.949-4.661-4.032-7.197a38.7 38.7 0 0 1-2.638-9.119c-.466-2.927-.593-5.899-.377-8.856.236-3.246.882-6.45 1.922-9.534 1.054-3.151 2.511-6.153 4.334-8.931 1.714-2.621 3.738-5.025 6.029-7.16a38.74 38.74 0 0 1 14.018-8.366c2.999-1.027 6.112-1.685 9.27-1.96l3.391-.151c2.148 0 4.258.188 6.406.528z"/><path d="M268.676 348.54c2.714.456 5.368 1.214 7.913 2.261 2.436.966 4.76 2.191 6.934 3.655 2.196 1.504 4.219 3.248 6.029 5.2a35.61 35.61 0 0 1 3.844 4.899 34.93 34.93 0 0 1 3.09 5.954c1.007 2.459 1.728 5.026 2.148 7.65a34.52 34.52 0 0 1 .377 7.084c-.141 2.746-.609 5.466-1.394 8.102a35.12 35.12 0 0 1-3.467 7.989 35.42 35.42 0 0 1-4.409 5.954 35.95 35.95 0 0 1-6.406 5.464c-2.419 1.636-5.025 2.977-7.763 3.994a36.78 36.78 0 0 1-6.783 1.809c-2.029.346-4.084.523-6.142.528l-1.884-.038c-2.833-.143-5.64-.61-8.366-1.394-2.661-.763-5.227-1.825-7.65-3.165-2.203-1.214-4.274-2.654-6.18-4.296-2.118-1.819-4.015-3.881-5.652-6.142-1.493-2.068-2.756-4.291-3.768-6.632-1.16-2.663-1.983-5.461-2.449-8.328a34.52 34.52 0 0 1-.377-8.064 34.67 34.67 0 0 1 1.809-8.742c.982-2.89 2.338-5.639 4.032-8.177 1.611-2.407 3.509-4.609 5.652-6.557a36.1 36.1 0 0 1 6.632-4.786c2.04-1.145 4.185-2.091 6.406-2.826 2.807-.946 5.716-1.553 8.667-1.809l3.128-.113c2.035 0 3.994.151 6.029.49z"/><path d="M268.224 350.688a33.84 33.84 0 0 1 7.424 2.073 33.69 33.69 0 0 1 6.406 3.505c2.048 1.419 3.931 3.062 5.615 4.899a33.54 33.54 0 0 1 3.542 4.635 33.16 33.16 0 0 1 2.864 5.652 33.05 33.05 0 0 1 2.336 13.867c-.126 2.591-.556 5.159-1.281 7.65-.766 2.636-1.855 5.167-3.241 7.537-1.158 2.008-2.522 3.89-4.07 5.615a33.54 33.54 0 0 1-5.954 5.163 33.84 33.84 0 0 1-7.197 3.768c-2.038.767-4.146 1.335-6.293 1.696a33.84 33.84 0 0 1-5.728.49h-1.771c-2.631-.149-5.237-.604-7.763-1.357-2.48-.717-4.87-1.716-7.122-2.977-2.044-1.142-3.964-2.493-5.728-4.032-1.98-1.721-3.751-3.669-5.276-5.803a33.35 33.35 0 0 1-3.467-6.255c-1.075-2.522-1.835-5.167-2.261-7.876a33.05 33.05 0 0 1-.377-7.612 33.16 33.16 0 0 1 1.696-8.253c.919-2.714 2.186-5.298 3.768-7.687a33.54 33.54 0 0 1 11.38-10.702 33.65 33.65 0 0 1 5.954-2.675 34.03 34.03 0 0 1 8.026-1.696l2.939-.113a34.44 34.44 0 0 1 5.577.452z"/><path d="M267.169 353.778c2.238.377 4.425 1.009 6.519 1.884 2.035.867 3.919 1.884 5.69 3.165a29.77 29.77 0 0 1 4.974 4.409c1.16 1.289 2.207 2.676 3.128 4.145 1.01 1.586 1.868 3.264 2.562 5.012a29.96 29.96 0 0 1 1.733 6.519c.298 1.97.399 3.964.301 5.954a30.07 30.07 0 0 1-1.13 6.858c-.662 2.368-1.611 4.646-2.826 6.783a29.92 29.92 0 0 1-3.655 5.012c-1.558 1.745-3.316 3.301-5.238 4.635-1.989 1.387-4.141 2.526-6.406 3.391-1.793.681-3.648 1.186-5.539 1.507a29.58 29.58 0 0 1-5.087.452 26.38 26.38 0 0 1-1.545-.038 29.62 29.62 0 0 1-6.858-1.168c-2.194-.646-4.306-1.544-6.293-2.675-1.819-1.037-3.524-2.262-5.087-3.655-1.742-1.547-3.298-3.292-4.635-5.2-2.649-3.762-4.402-8.08-5.125-12.624-.362-2.267-.463-4.568-.301-6.858a30.11 30.11 0 0 1 1.507-7.386c.795-2.429 1.896-4.746 3.278-6.896 1.316-2.026 2.873-3.886 4.635-5.539a29.77 29.77 0 0 1 5.464-4.07 29.62 29.62 0 0 1 5.276-2.412 29.77 29.77 0 0 1 7.122-1.507c.852-.076 1.707-.114 2.562-.113a31.27 31.27 0 0 1 4.974.415z"/><path d="M266.981 354.909a28.64 28.64 0 0 1 6.331 1.846c1.939.801 3.783 1.812 5.502 3.015a28.75 28.75 0 0 1 4.786 4.258c1.12 1.254 2.128 2.603 3.015 4.032.981 1.538 1.814 3.166 2.487 4.861a28.94 28.94 0 0 1 1.696 6.255c.292 1.907.393 3.838.301 5.765-.119 2.247-.498 4.473-1.13 6.632-.619 2.299-1.518 4.514-2.675 6.595a28.94 28.94 0 0 1-3.542 4.861c-1.499 1.701-3.194 3.218-5.05 4.522-1.921 1.327-3.996 2.415-6.18 3.241-1.744.665-3.549 1.157-5.389 1.47-1.618.279-3.257.417-4.899.415h-1.507a28.64 28.64 0 0 1-12.699-3.768c-1.751-.994-3.393-2.169-4.899-3.505-1.698-1.488-3.216-3.17-4.522-5.012-2.547-3.655-4.222-7.844-4.899-12.247-.351-2.18-.452-4.392-.301-6.595a29.09 29.09 0 0 1 1.432-7.16c.779-2.351 1.855-4.592 3.203-6.67a28.98 28.98 0 0 1 4.409-5.351 28.75 28.75 0 0 1 5.276-3.919 28.6 28.6 0 0 1 5.087-2.336 28.79 28.79 0 0 1 6.858-1.47c2.427-.222 4.873-.12 7.273.301z"/><path d="M266.981 357.321a26.38 26.38 0 0 1 5.765 1.658c1.764.72 3.445 1.63 5.012 2.713a26.04 26.04 0 0 1 7.122 7.386 25.7 25.7 0 0 1 2.261 4.371c.717 1.82 1.222 3.717 1.507 5.652.264 1.696.377 3.391.301 5.125a25.66 25.66 0 0 1-1.017 5.954 25.89 25.89 0 0 1-2.525 5.879c-.902 1.55-1.963 3.002-3.165 4.334-1.381 1.522-2.937 2.875-4.635 4.032a26.38 26.38 0 0 1-5.615 2.939c-1.587.596-3.227 1.038-4.899 1.319-1.507.226-2.939.377-4.447.377-.465.001-.93-.011-1.394-.038-2.042-.105-4.066-.446-6.029-1.017a26.34 26.34 0 0 1-5.539-2.336c-1.599-.884-3.102-1.932-4.484-3.128a26 26 0 0 1-4.07-4.522 25.89 25.89 0 0 1-2.713-4.823c-1.634-3.799-2.332-7.934-2.035-12.059a25.7 25.7 0 0 1 1.281-6.406c.719-2.103 1.707-4.104 2.939-5.954 1.156-1.767 2.523-3.386 4.07-4.823a26.15 26.15 0 0 1 4.786-3.505c1.474-.839 3.027-1.533 4.635-2.073 2.024-.69 4.125-1.133 6.255-1.319a25.4 25.4 0 0 1 6.632.264z"/><path d="M266.717 358.3a25.89 25.89 0 0 1 5.615 1.583c1.711.701 3.341 1.586 4.861 2.638a25.25 25.25 0 0 1 4.258 3.655 25.06 25.06 0 0 1 2.675 3.429c.863 1.333 1.595 2.746 2.186 4.22a24.42 24.42 0 0 1 1.507 5.389c.258 1.645.346 3.311.264 4.974a24.42 24.42 0 0 1-.98 5.728 24.76 24.76 0 0 1-2.449 5.652c-.884 1.485-1.919 2.874-3.09 4.145-1.349 1.467-2.867 2.77-4.522 3.881-1.702 1.157-3.536 2.106-5.464 2.826a25.85 25.85 0 0 1-4.748 1.244 26 26 0 0 1-4.334.377h-1.357a26 26 0 0 1-5.841-1.017c-1.875-.535-3.682-1.281-5.389-2.223a25.55 25.55 0 0 1-4.371-3.015c-1.484-1.285-2.812-2.739-3.957-4.334-1.046-1.458-1.93-3.024-2.638-4.673-.821-1.88-1.403-3.854-1.733-5.879-.307-1.867-.396-3.764-.264-5.652.147-2.105.565-4.182 1.244-6.18a24.68 24.68 0 0 1 2.864-5.765c1.128-1.687 2.457-3.23 3.957-4.597a25.4 25.4 0 0 1 4.673-3.391 25.66 25.66 0 0 1 4.522-1.997c1.966-.654 4.002-1.071 6.067-1.244l2.223-.113c1.432 0 2.826.113 4.22.377z"/><path d="M315.38 383.558c0 28.949-23.468 52.417-52.417 52.417s-52.417-23.468-52.417-52.417 23.468-52.417 52.417-52.417 52.417 23.468 52.417 52.417z"/><path d="M263.076 341.881c-22.997 0-41.64 18.643-41.64 41.64s18.643 41.64 41.64 41.64 41.64-18.643 41.64-41.64-18.643-41.64-41.64-41.64z"/><path d="M262.398 345.8c-20.843 0-37.74 16.897-37.74 37.74s16.897 37.74 37.74 37.74a37.72 37.72 0 0 0 32.671-56.6 37.72 37.72 0 0 0-32.671-18.841z"/><path d="M262.398 351.791c-11.343.005-21.823 6.057-27.496 15.88s-5.678 21.925-.013 31.752c5.675 9.826 16.161 15.88 27.509 15.88s21.833-6.053 27.509-15.88c5.665-9.827 5.66-21.929-.013-31.752s-16.153-15.875-27.496-15.88z"/><path d="M262.398 378.396c-1.844 0-3.549.984-4.471 2.581s-.922 3.565 0 5.163 2.627 2.581 4.471 2.581c2.851 0 5.163-2.311 5.163-5.163s-2.311-5.163-5.163-5.163z"/><path d="M271.743 331.706a52.23 52.23 0 0 1 21.479 8.78c3.179 2.23 6.098 4.809 8.705 7.687 2.04 2.248 3.881 4.669 5.502 7.235a52.08 52.08 0 0 1 4.522 8.818c1.426 3.643 2.437 7.435 3.015 11.305a52.19 52.19 0 0 1 .565 10.438c-.198 4.058-.868 8.08-1.997 11.983a52.53 52.53 0 0 1-11.38 20.613c-2.737 3.052-5.823 5.771-9.195 8.102-3.49 2.42-7.261 4.406-11.23 5.916a52.08 52.08 0 0 1-9.798 2.638c-2.924.515-5.887.78-8.856.791-1.017 0-1.733 0-2.751-.075a52.23 52.23 0 0 1-23.1-6.708 52.38 52.38 0 0 1-8.931-6.368c-3.056-2.688-5.787-5.723-8.14-9.044a52.34 52.34 0 0 1-5.426-9.798c-1.68-3.947-2.87-8.086-3.542-12.322a52.23 52.23 0 0 1-.49-11.946 52.38 52.38 0 0 1 2.562-12.925c1.422-4.253 3.385-8.306 5.841-12.059a52.38 52.38 0 0 1 8.14-9.647c2.896-2.73 6.095-5.12 9.534-7.122a52.08 52.08 0 0 1 9.232-4.183 52.49 52.49 0 0 1 12.473-2.638 50.12 50.12 0 0 1 13.227.528z" class="F"/><path d="M243.971 368.259c5.214 3.403 8.382 9.187 8.441 15.412.067 6.215-2.972 12.053-8.102 15.563a23.55 23.55 0 0 1-2.261-3.015c4.171-2.788 6.651-7.494 6.595-12.511-.065-5-2.643-9.632-6.858-12.322a23.59 23.59 0 0 1 2.186-3.128zm27.998 37.231a9.57 9.57 0 0 0-15.525 1.244 23.93 23.93 0 0 0 15.525-1.244zm-60.82-13.792a52.23 52.23 0 0 1-.49-11.946l10.815 6.029-10.325 5.916zm3.542 12.322c-1.68-3.947-2.87-8.086-3.542-12.322l11.908 3.505-8.366 8.818zm5.502 9.76a52.34 52.34 0 0 1-5.464-9.798l11.493-1.093-6.029 10.928zm8.102 9.082c-3.056-2.688-5.787-5.723-8.14-9.044l11.116-3.467-2.977 12.511zm8.931 6.331a52.38 52.38 0 0 1-8.931-6.331l9.647-6.18-.716 12.548zm11.041 4.71a52.23 52.23 0 0 1-11.041-4.673l9.986-7.235 1.055 11.908zm12.059 2.035a52.23 52.23 0 0 1-12.059-2.035l7.461-9.421 4.597 11.456zm11.644-.678c-2.937.505-5.913.757-8.893.754-1.017 0-1.733 0-2.751-.075l4.296-10.853 7.348 10.174z"/><path d="M281.729 432.584a52.08 52.08 0 0 1-9.798 2.638l1.583-11.418 8.215 8.78zm11.23-5.916c-3.49 2.42-7.261 4.406-11.23 5.916l.377-12.059 10.853 6.142zm9.195-8.102c-2.737 3.052-5.823 5.771-9.195 8.102l-2.562-11.795 11.757 3.693zm6.406-8.78c-1.825 3.141-3.972 6.084-6.406 8.78l-5.728-10.174 12.096 1.394zm4.974-11.832a52.53 52.53 0 0 1-5.012 11.832l-6.896-10.627 11.908-1.206zm1.997-11.983c-.198 4.058-.868 8.08-1.997 11.983l-9.308-8.064 11.305-3.919zm-.565-10.401a52.19 52.19 0 0 1 .565 10.401l-10.928-5.351 10.363-5.05zm-3.015-11.305c1.426 3.643 2.437 7.435 3.015 11.305l-11.983-3.844 8.931-7.499zm-4.522-8.856a52.04 52.04 0 0 1 4.522 8.818l-12.059-.113 7.537-8.667zm-5.464-7.235c2.04 2.248 3.881 4.669 5.502 7.235l-11.531 2.562 6.029-9.76zm-8.742-7.687c3.179 2.23 6.098 4.809 8.705 7.687l-11.116 4.296 2.412-11.983zm-9.986-5.464a52.23 52.23 0 0 1 9.986 5.464l-10.099 6.557.075-12.059zm-11.493-3.316a52.23 52.23 0 0 1 11.493 3.316l-8.856 8.403-2.638-11.719zm0 0c-2.863-.493-5.762-.745-8.667-.754-1.583 0-2.977.075-4.522.226l6.595 10.74 6.595-10.212zm-25.7 2.11a52.49 52.49 0 0 1 12.473-2.638l-4.522 11.682-7.913-9.044zm-9.27 4.183a52.08 52.08 0 0 1 9.27-4.183l.377 11.531-9.647-7.348zm-9.496 7.16c2.882-2.741 6.068-5.143 9.496-7.16l1.055 12.36-10.627-5.276zm-8.215 9.609c2.326-3.534 5.072-6.773 8.177-9.647l3.203 12.511-11.343-2.864z"/><path d="M213.259 366.827a52.32 52.32 0 0 1 5.841-12.059l6.029 11.569-11.87.49zm26.34 9.458a23.93 23.93 0 0 0 .151 15.073 9.57 9.57 0 0 0-.151-15.073zm11.493-13.83a23.55 23.55 0 0 0-3.165 2.035c3.2 5.271 8.802 8.615 14.96 8.931 6.175.319 12.105-2.448 15.827-7.386a23.59 23.59 0 0 0-2.977-2.336 14.85 14.85 0 0 1-24.607-1.243zm5.05-1.997a23.93 23.93 0 0 1 14.809.754 9.57 9.57 0 0 1-14.809-.754zm25.624 9.044a23.59 23.59 0 0 1 1.997 3.241 14.85 14.85 0 0 0-5.012 10.966c-.045 4.2 1.694 8.23 4.786 11.079a23.59 23.59 0 0 1-2.073 3.241c-4.168-3.588-6.54-8.833-6.482-14.333s2.54-10.693 6.783-14.193zm3.618 7.311a23.89 23.89 0 0 1-.113 13.717 9.57 9.57 0 0 1 .113-13.717z"/><path d="M262.398 355.823c-9.906.005-19.057 5.294-24.008 13.874s-4.949 19.149.004 27.728c4.958 8.567 14.106 13.842 24.004 13.842s19.046-5.275 24.004-13.842c4.953-8.579 4.954-19.148.004-27.728s-14.102-13.868-24.008-13.874z" class="F"/><path d="M279.468 400.327a23.55 23.55 0 0 1-2.864 2.487c-3.059-4.126-8.033-6.378-13.151-5.954-5.105.418-9.634 3.437-11.983 7.989a23.55 23.55 0 0 1-3.241-1.997c2.982-5.593 8.605-9.285 14.922-9.798 6.323-.514 12.472 2.227 16.317 7.273zm-68.771-20.575a52.38 52.38 0 0 1 2.562-12.925l8.818 9.421-11.38 3.505z"/></g><g transform="matrix(.5121 0 0 .5121 -128.2 58.7)"><g class="B C"><circle cx="778.1" cy="318.6" r="23" stroke-width="2"/><use xlink:href="#J" class="N"/></g><use xlink:href="#K" class="B G N"/><use xlink:href="#L" class="B O T"/><g class="N B"><path d="M778.3 310.4v11.3" class="F"/><use xlink:href="#M" class="O"/></g><use xlink:href="#N" class="B H I U"/><ellipse transform="matrix(.09763 0 0 .3008 746.8 236.1)" cx="268.8" cy="306.9" rx="6.6" ry="2.1" class="B V"/><use xlink:href="#O" class="B H I U"/><ellipse transform="matrix(-.09763 0 0 .3008 809.3 236.1)" cx="268.8" cy="306.9" rx="6.6" ry="2.1" class="B V"/><path d="M769.8 326.5c3 .1 6.7 0 7.3 1.8-.5-1 .3-1.8-2-3h-5.3c-.3.5-.8.9 0 1.2zm17 0c-2.9.1-6.7 0-7.2 1.8.5-1-.4-1.8 2-3h5.3c.2.5.8.9 0 1.2z" class="H I B"/><path d="M775.2 334.7c1 .5 6 .5 6.8 0" class="B F I"/><use xlink:href="#P" class="B O T"/><use xlink:href="#Q"/></g><defs ><path id="B" d="M326.508 103.293c0-2.071-1.763-3.702-3.966-3.702s-4.01 1.63-4.01 3.702 1.763 3.702 3.966 3.702 3.966-1.63 3.966-3.702z"/><path id="C" d="M354.093 110.697c0-2.071-1.763-3.702-3.966-3.702s-4.01 1.63-4.01 3.702 1.763 3.746 3.966 3.746 3.966-1.675 3.966-3.746z"/><path id="D" d="M650.2 1585.8c0-5 4.3-9 9.7-9 5.3 0 9.6 4 9.6 9 0 4.9-4.3 8.9-9.6 8.9-5.4 0-9.7-4-9.7-9z"/><path id="E" d="M643.4 1618.9c0-5 4.3-8.9 9.6-8.9 5.4 0 9.7 4 9.7 8.9 0 5-4.3 8.9-9.7 8.9-5.3 0-9.6-4-9.6-9z"/><path id="F" d="M673.2 1560.6c0-5 4.3-8.8 9.7-8.8 5.3 0 9.6 3.9 9.6 8.8 0 5-4.3 9-9.6 9-5.4 0-9.7-4-9.7-9z"/><path id="G" d="M199.818 103.293c0-2.071 1.763-3.702 3.966-3.702s4.01 1.63 4.01 3.702-1.763 3.702-3.966 3.702-3.966-1.63-3.966-3.702z"/><path id="H" d="M172.233 110.697c0-2.071 1.763-3.702 3.966-3.702s4.01 1.63 4.01 3.702-1.763 3.746-3.966 3.746-3.966-1.675-3.966-3.746z"/><path id="I" d="M54.5 702c0-6.1 5.4-11 12.1-11 6.8 0 12.2 4.9 12.2 11 0 6.3-5.4 11.3-12.2 11.3-6.7 0-12.1-5-12.1-11.2z"/><path id="J" d="M761.3 325.8c1.5 10 7.6 18.4 17 18.4 9.3 0 14.6-8.5 16.9-18.4.6-2.7.7-5.6-1.7-7.8.5-2.8-1.6-4.6-3.3-6.2a10.2 10.2 0 0 0-5.5-2.6c-2-.3-4.1 1.2-6.5 1.2s-4.5-1.5-6.5-1.2c-2 .4-3.8 1-5.4 2.6-2 1-3 1-4.1 6.4-2.3 2-1.5 5-1 7.6z"/><path id="K" d="M788.8 318.3c1.9 3.2 2.8 6.5 0 10 1.7 3.4 1.7 9 1.3 12.4l-11.5 9-11.5-9c-.5-3.8-.8-9.4 1.2-13.3-3-4.4-1-6.6.3-9.1 5.2-1 7.3 1.3 10 3 2.4-2.3 5.4-4.3 10.2-3z"/><path id="L" d="M763.889 334l4.049 6.5-.46 6c-3.497 2.8-6.625 2-10.766 3 .184-3 1.104-4 2.945-6.9.92-2.9 1.748-6.2 4.233-8.6z"/><path id="M" d="M785.8 343.3l1 5.6c0 .2-2.9 6.7-4.7 6.6-1.6-.3-3.5-3.9-4-6-2-2.8 0-3-2-.2.2 0-3.4 6.6-5.7 7-2.6-.7-1.7-4.7-2.7-7v-6.6c1.8 0 3.6 2.5 5.3 2.5 1.5.4 3.6 4 5.3 4.1 1.7 0 3.1-3.4 5.2-4.1 1.8 0 3.9-3 5.6-3z"/><path id="N" d="M770.4 328.4c0 .5.8 1 1.4.9h2.3c.7 0 1.2 0 1.3-.2.3-.4-1-1.5-2.1-1.4h-1.8c-.5 0-1.1.3-1 .7z"/><path id="O" d="M785.7 328.4c0 .5-.7.9-1.4.9H782c-.7 0-1.1 0-1.3-.2-.3-.4 1-1.5 2.1-1.5l1.8.1c.6 0 1.2.3 1.1.7z"/><path id="P" d="M790.947 337.3l-2.484 3.2-3.865 3.6c2.577 2.6 3.773 5.6 9.938 6.9.276-3.4.92-4.7-1.288-8.2-.92-2.9.184-3.1-2.3-5.5z"/><path id="Q" d="M777.5 336c-3 .2-9.7 3.9-10.6 5.3 1.5 3 6.2 8.3 11.5 10 5.4-1.5 9.5-6.7 11.6-10-.7-1.3-9.4-6.2-11.5-5a2 2 0 0 0-1-.2zm1 6c2.1-.8 4.3-.3 6 .9a13.5 13.5 0 0 1-6 1.4c-2.1 0-4.1-.4-5.9-1.3 2-1.4 3.9-2 5.8-1z"/></defs></svg>