<svg width="512" height="512" xmlns:xlink="http://www.w3.org/1999/xlink" xmlns="http://www.w3.org/2000/svg"><path d="M0 0v512h512V0Z" fill="#fff" style="stroke-width:1.024"/><path d="M0 0h256v512h256Zm512 0v256H0v256z"/><g transform="translate(155.6 128) scale(.2828)"><symbol id="b" viewBox="-41.7 -50 83.3 100"><g fill="#fff" stroke="#000"><path d="M-41.2 49.5V-8.3a41.2 41.2 0 0 1 82.4 0v57.8z" fill="#0069af" stroke-width="1.5"/><path d="M-9.4 23.7a10.4 10.4 0 1 0-20.8-.1v.1a10.4 10.4 0 1 0 20.8.2v-.2zm39.6 0a10.4 10.4 0 1 0-20.8-.1v.1a10.4 10.4 0 1 0 20.8.2v-.2zM10.4 3a10.4 10.4 0 1 0-20.8-.2V3a10.4 10.4 0 1 0 20.8 0ZM-9.4-17.8a10.4 10.4 0 1 0-20.8-.1 10.4 10.4 0 1 0 20.8.2v-.1zm39.6 0A10.4 10.4 0 1 0 9.4-18a10.4 10.4 0 1 0 20.8.2v-.1z"/></g></symbol><symbol id="a" viewBox="-29.2 -45 58.4 90"><path d="M22.4 30.3V4.9l-3.8 3.3v23z" fill="#eac102" stroke="#000" stroke-linecap="round" stroke-linejoin="round" stroke-width=".5"/><path d="m20.6 30.6 1.9-1.2 2 2-2 1.2z" fill="#eac102" stroke="#000" stroke-linecap="round" stroke-linejoin="round" stroke-width=".5"/><path d="m22.4 36.7 2.2-1.6v-3.7l-2.2 1.2zM9.6 30.3V4.9l4 3.4v23z" fill="#eac102" stroke="#000" stroke-linecap="round" stroke-linejoin="round" stroke-width=".5"/><path d="m11.4 30.6-1.8-1.2-2.1 2 2.1 1.2Z" fill="#eac102" stroke="#000" stroke-linecap="round" stroke-linejoin="round" stroke-width=".5"/><path d="M9.6 36.7 7.5 35v-3.7l2.1 1.2zM9.6 32.6l1.7-2h9.4l1.7 2zm0 4h2.5v-1.8h2.7v1.9h2.5v-1.9h2.6v1.9h2.5v-4H9.6Zm1.8-6V6.5h9.3v24zm4.7-4.3c1 0 2-.5 2-2.6v-6h-4l-.1 6c0 2 1 2.6 2 2.6zM6.4 38.4V4.8L2.7 7.7V39z" fill="#eac102" stroke="#000" stroke-linecap="round" stroke-linejoin="round" stroke-width=".5"/><path d="m4.6 38.7 1.9-1.2 2 2-2.1 1.2Z" fill="#eac102" stroke="#000" stroke-linecap="round" stroke-linejoin="round" stroke-width=".5"/><path d="m6.4 44.8 2.1-1.6v-3.8l-2.1 1.3Zm-12.8-6.4V4.9l3.6 3V39z" fill="#eac102" stroke="#000" stroke-linecap="round" stroke-linejoin="round" stroke-width=".5"/><path d="m-4.6 38.7-1.9-1.2-2 2 2.1 1.2z" fill="#eac102" stroke="#000" stroke-linecap="round" stroke-linejoin="round" stroke-width=".5"/><path d="m-6.4 44.8-2.1-1.6v-3.8l2.1 1.2zM-6.4 40.7l1.7-2h9.4l1.7 2zm0 4H-4V43h2.7v1.9h2.5v-2H4v2h2.5v-4H-6.4v4zM-4.6 38.7V6.2h9.2v32.5ZM0 34.3c1 0 2-.5 2-2.6v-6l-4 .1v6c0 1.9 1 2.5 2 2.5zm-9.6-4V4.9l-3.8 3.3v23z" fill="#eac102" stroke="#000" stroke-linecap="round" stroke-linejoin="round" stroke-width=".5"/><path d="m-11.4 30.6 1.8-1.2 2.1 2-2.1 1.2z" fill="#eac102" stroke="#000" stroke-linecap="round" stroke-linejoin="round" stroke-width=".5"/><path d="m-9.7 36.7 2.2-1.6v-3.7l-2.2 1.2zm-12.8-6.4V4.9l4 3.4v23z" fill="#eac102" stroke="#000" stroke-linecap="round" stroke-linejoin="round" stroke-width=".5"/><path d="m-20.6 30.6-2-1.2-2 2 2.2 1.2z" fill="#eac102" stroke="#000" stroke-linecap="round" stroke-linejoin="round" stroke-width=".5"/><path d="m-22.4 36.7-2.2-1.6v-3.7l2.2 1.2z" fill="#eac102" stroke="#000" stroke-linecap="round" stroke-linejoin="round" stroke-width=".5"/><path d="m-22.5 32.6 1.8-2h9.3l1.8 2zm0 4h2.5v-1.8h2.7v1.9h2.5v-1.9h2.6v1.9h2.5v-4h-12.8zm1.8-6V6.5h9.3v24zm4.7-4.3c1 0 2-.5 2-2.6v-6h-4l-.1 6c0 2 1 2.6 2 2.6z" fill="#eac102" stroke="#000" stroke-linecap="round" stroke-linejoin="round" stroke-width=".5"/><path d="m4.7 21 1.7-1.2m-1.7 4.6 1.7-1M4.7 28l1.7-1.1m-1.7 4.6 1.7-1.1M4.7 35l1.7-1.1m-11-13-1.8-1m1.7 4.5-1.7-1m1.7 4.6-1.7-1.1m1.7 4.6-1.7-1.1m1.7 4.6-1.7-1.1" fill="none" stroke="#000" stroke-width=".5"/><path d="M0 24.6v1.1M-4.8 35h9.2m-2.3-3.4h2.3M2 27.9h2.3m-9-3.4h9.1M-4.7 21h9.2M0 17.7v3.1m-1.5.2v3.4M1.9 21v3.4m-3.4 10.7v3.5m3.3-3.5v3.5" fill="#eac102" stroke="#000" stroke-linecap="round" stroke-linejoin="round" stroke-width=".5"/><path d="m4.7 17.5 1.7-1m-11 1-1.8-1" fill="none" stroke="#000" stroke-width=".5"/><path d="M-4.7 17.6h9.2" fill="#eac102" stroke="#000" stroke-linecap="round" stroke-linejoin="round" stroke-width=".5"/><path d="m4.7 14 1.7-1.2m-11 1.1-1.8-1" fill="none" stroke="#000" stroke-width=".5"/><path d="M-4.7 14h9.2m-6 0v3.4M1.9 14v3.4m-2-11v7.4m-4.4 17.7h2.2m-2.2-3.6h2.3m2.1 6.5v.5" fill="#eac102" stroke="#000" stroke-linecap="round" stroke-linejoin="round" stroke-width=".5"/><path d="m20.7 12.8 1.7-1m-1.7 4.6 1.7-1.2M20.7 20l1.7-1.1m-1.7 4.6 1.7-1.1m-1.7 4.6 1.7-1.1m-11-13-1.8-1m1.8 4.6-1.8-1.2m1.8 4.7-1.8-1.1m1.8 4.6-1.8-1.1m1.8 4.6-1.8-1.1" fill="none" stroke="#000" stroke-width=".5"/><path d="M16 16.6v1M11.4 27h9.2M18 23.4h2.3m-2.1-3.6h2.1m-9-3.4h9.2m-9.2-3.6h9.2M16 6.6v6.2m-1.5.1v3.4m3.4-3.4v3.4m-3.4 10.5v3.7m3.3-3.7v3.7m-6.2-7.1h2.2m-2.3-3.6h2.2m2.3 6.5v.5" fill="#eac102" stroke="#000" stroke-linecap="round" stroke-linejoin="round" stroke-width=".5"/><path d="m-11.4 12.8 1.8-1m-1.8 4.6 1.8-1.2m-1.8 4.7 1.8-1.1m-1.8 4.6 1.8-1.1m-1.8 4.6 1.8-1.1m-11.1-13-1.8-1m1.8 4.6-1.8-1.2m1.8 4.7-1.8-1.1m1.8 4.6-1.8-1.1m1.8 4.6-1.8-1.1" fill="none" stroke="#000" stroke-width=".5"/><path d="M-16.1 16.6v1m-4.6 9.3h9.2m-2.4-3.5h2.2m-2.1-3.6h2.2m-9.1-3.4h9.2m-9.2-3.6h9.2m-4.6-6.2v6.2m-1.5.1v3.4m3.4-3.4v3.4m-3.4 10.5v3.7m3.3-3.7.1 3.7m-6.3-7.1h2.2m-2.3-3.6h2.2m2.3 6.5v.5" fill="#eac102" stroke="#000" stroke-linecap="round" stroke-linejoin="round" stroke-width=".5"/><path d="M-13.2-15.9v9.5c0 3.1 1.3 4 2.7 4 1.4 0 2.6-.8 2.7-4V-16zm21 0v9.5c0 3.1 1.4 4 2.7 4 1.4 0 2.7-.8 2.7-4V-16zM-3.8-44.8v10.2c0 4.5 1.9 5.8 3.8 5.8 2 0 3.8-1.2 3.8-5.9v-10zM-18 17.6v6c0 2 1 2.5 2 2.5 1.1 0 2-.5 2.1-2.6v-5.9zm32.1 0v6c0 2 1 2.5 2 2.5s2-.5 2-2.6v-5.9zm-16 8.1v6c0 2 1 2.5 2 2.5s2-.5 2-2.6v-5.9Z" fill="#0071bc" stroke="#000" stroke-linecap="round" stroke-linejoin="round" stroke-width=".5"/><path d="m-18.8 7.7-8.6-2.3 2.5-2.6v-29l-4-4v-9.2l9.1-5.4h16v10.2a10.6 10.6 0 0 0 .7 3.8l.5.8a3.2 3.2 0 0 0 1.2 1l1.4.2c.5 0 1-.1 1.4-.3a3.1 3.1 0 0 0 1.7-1.7l.4-1c.2-.8.3-1.7.3-2.9v-10h16l9.1 5.3v9.1l-4 4.1v29l2.5 2.6-8.6 2.3zm8-10h.3c1.3-.1 2.6-.9 2.7-4.2v-9.4h-5.4v9.5c0 3 1.1 4 2.4 4zm21 0h.3c1.4-.1 2.7-.9 2.7-4.2v-9.4H7.8v9.5c0 3 1.2 4 2.5 4z" fill="#eac102" stroke="#000" stroke-linecap="round" stroke-linejoin="round" stroke-width=".5"/><path d="m-29-30.3 9.3-5.2v-9.2m-5.1 18.5 9-2.4m-4-6.9 4 6.9m0 0V4.7m-3 3 3-2.9m-9-1.9 9 1.9m44.7-35-9.2-5.2v-9.2m5.1 18.5-9-2.4m4-6.9-4 6.9m0 0V4.7m2.9 3-2.9-2.9m9-1.9-9 1.9m-31.6-33.3h31.6M-15.8 4.7h31.6M4.7-35.5h15m-39.4 0h15" fill="none" stroke="#000" stroke-width=".5"/><path d="M-.1-26.4c-3.2.1-6.4-1.7-6.5-7.5 0-5.8.2-10.9.2-10.9h2.6v10.2a10.6 10.6 0 0 0 .7 3.8 4 4 0 0 0 1 1.3l.7.4c.4.2 1 .3 1.4.3a4 4 0 0 0 1.4-.3l.7-.4.5-.5a4 4 0 0 0 .5-.8l.4-1c.2-.8.3-1.7.3-2.9v-10h2.4s.2 4.5 0 10.7c0 6.1-3 7.5-6.3 7.6zm25 39.2-1.3-.4V9.6l2 .5V12z" fill="#eac102" stroke="#000" stroke-linecap="round" stroke-linejoin="round" stroke-width=".5"/><path d="m18.6 15.6 3.3-1.5v-2.4l3-1v2l2.6-1V5.5l-9 2zM-25 12.8l1.4-.4V9.6l-2 .5V12z" fill="#eac102" stroke="#000" stroke-linecap="round" stroke-linejoin="round" stroke-width=".5"/><path d="M-18.6 15.6-22 14v-2.4l-3-1v2l-2.6-1V5.5l9 1.8z" fill="#eac102" stroke="#000" stroke-linecap="round" stroke-linejoin="round" stroke-width=".5"/><path d="M-11.1 15.6h-7.6V7.4h37.4v8.2h-7.5v-3.4H3.7v3.4h-7.3v-3.4h-7.5z" fill="#eac102" stroke="#000" stroke-linecap="round" stroke-linejoin="round" stroke-width=".5"/><path d="m24.7-2-9 1.1m9-6-8.8.5m8.8-5.3L16-12m8.8-4.6-9-1m9-3.8-9-1.7m4-17 9.2 5.3M20.3 3.7v-5.1m0-5.3v-5m0-5.4v-5m0-5.3 4-5.4m0-9.2v4.5M17.7-1v-5.4m5.6 4.6v-4.8M17.7-12v-5.2m5.6 5.3v-4.8m-5.6-6V-28m5.6 6.3v-5m-1.7-7.7v-4.5m5.7 7.7v-4.6m-47-4.3-9.2 5.3M-24.8-2l9 1.2m-9-6 9 .5m-9-5.3 9-.3m-9-4.6 9-1m-9-3.8 9-1.7m-4-17-9 5.3m8.5 38.5v-5.1m0-5.3v-5m0-5.4v-5m0-5.3-4-5.4m0-9.2v4.5M-17.7-1v-5.4m-5.6 4.6v-4.8m5.6-5.3v-5.2m-5.6 5.3v-4.8m5.6-6V-28m-5.6 6.3v-5m1.7-7.7v-4.5m-5.7 7.7v-4.6M10.4-2.3V-1m-4-39h13.4M-16-1h31.6M-7.6-6.4H7.7M-7.7-12H7.6m-23.5-5.5h31.6M-16-23.1h31.6M-5.3-.8v5.5M5-.8v5.5M-5.4-12v5.5m10.5-5.5v5.5M-5.4-23.1v5.5M5.1-23v5.5M-10.6-2.2V-1M0-6.3V-1m-10.6-16.5v1.4M0-17.4v5.4m10.4-5.3v1.3m-21-12.6v5.4M0-26.3v3.1m10.4-5.4v5.4m-23-12.1 2 6.7m23-6.7-2 6.7m-23-16.2v4.7m25-4.7v4.7m-28.9 0v4.6m6.6-4.5v4.5M9.6-40v4.5m6.6-4.5v4.5m-36-4.6h13.2M13.3-6.4h2.6m-31.6 0h2.3M13.4-12h2.3m-31.4 0h2.4m-2 16.7c0 1.2 1 2.1 2.3 2.1 1.2 0 2.2-1 2.2-2.1H-13zm5.2 0c0 1.2 1 2.1 2.3 2.1 1.2 0 2.2-1 2.2-2.1h-2.2zm20.9 0c0 1.2 1 2.1 2.3 2.1 1.2 0 2.2-1 2.2-2.1H13Zm-5.2 0c0 1.2 1 2.1 2.2 2.1 1.2 0 2.2-1 2.2-2.1H7.8Zm-5.3 0c0 1.2 1 2.1 2.3 2.1 1.2 0 2.2-1 2.2-2.1H2.6Zm-5.2 0c0 1.2 1 2.1 2.3 2.1 1.2 0 2.2-1 2.2-2.1h-2.2zm-19.3-1.8s-1.8 2 0 2.5c1.6.4 3.4-1.8 3.4-1.8m.6.3s-1.8 2 0 2.4c1.6.5 3.4-1.7 3.4-1.7m41-1.7s1.8 2 0 2.5c-1.6.4-3.4-1.8-3.4-1.8m-.6.3s1.8 2 0 2.4c-1.6.5-3.4-1.7-3.4-1.7M.1-28.7v2.2m-6.5-15.9h2.6M-6.4-40h2.6m-2.6 7h2.8m-2.8-2.4h2.6m-2.6-2.3h2.6m2 8.1-1.5 2.5m.2-4-2.7 1.4M6.4-42.4H3.8M6.4-40H3.8m2.6 7H3.8m2.6-2.4H3.8m2.6-2.3H3.8m-2 8.3L3.3-27m0-3.9 2.5 1.3" fill="none" stroke="#000" stroke-width=".5"/></symbol><g stroke="#000"><g fill="#eac102"><path d="M81.3 195.9c10.5 19.3 23 44 32.7 41 2.1-.9 2.8-5.7-.3-21.2l-19-35.1c-2.6-4-10-1-10.5 3.2z"/><path d="m97.4 217.2 3.4-9.5c-7-8.5-17.8-24-29.4-43.1-2.4-4-10.6-1.7-8.7 2.7 15.7 28 26.8 42.6 34.7 49.9zm531.4-21.3c-10.5 19.3-23 44-32.7 41-2.1-.9-2.8-5.7.3-21.2l19-35.1c2.6-4 10-1 10.5 3.2z"/><path d="m609.2 207.8 3.4 9.5c7.9-7.3 19-22 34.8-50 2-4.4-6.3-6.7-8.7-2.7a389.6 389.6 0 0 1-29.5 43.2z"/><path d="M1.2 83.3 8 78.6c19.7-4.5 37.2 12 37 19 5-4 9.9-2.6 14.8-2.4-2.9 8.5 0 14.8-3.5 23.8 4.6 1.3 8.1 3 9.1 6.2l4.6-2.6 5.6-.3c1 23.6-7.7 18.4-5.9 27.1l9.4-10.1 10.2 1c5 .8 6.4 6 11.7 6.5-3.8 4.6-6 12.5-9.6 18a11.5 11.5 0 0 1-11.8.7c11.8 3.8 15 12.8 19.6 17.6-4.9.3-9.2.7-11.3 1 7.5 9.4 11.8 16.9 19 22.1l-4.3.7-22.2-9.6-18.7-17-23-31.3-.9-49.5C26.1 94.2 28 82 1.2 83.3Z" stroke-linecap="round" stroke-linejoin="round"/><path d="M.5 83.6c32 3 32 42.7 38.3 66.3l20.5 30.4c12.9 11 21.2 24.7 29.2 26.3 7.8 1.6 7.3-1.3 15.1.3-15.4-6-8.3-20-40.4-28.4 10.4-5 10.4 8.9 31.1 4.9-5.7-12.5-17.9-13.1-23.4-17.8 8.4-2.4 9.4 2.4 15.5.2 6.9-2.4 5.3-11.7 10.7-18-7-2.7-12.8-11-21.6-7-3 2.3-7.5 9.8-12.5 11.5-2.1-10 5-10.9 6.5-16 1.5-5-1-6.5.4-13.6-23 7.4-14.3 21-24.8 26.9-.1-14.4 4.5-8.3 13-24-3.2-4.3-5.5-3.5-8.1-4.8 4.2-8 .4-12.9 4.8-24.1-8.4-2.5-11.3 1.5-13.7 4-.8-6.9-19.3-29.4-40.6-17Z" stroke-linejoin="round"/></g><path d="M46.2 110.6c-6.8 13.4-6.1 26.9-5.6 40.3m16.5-7.1c-1.3 6.7-6.2 10.4-11.2 13.9m35.2-4c-12.2.8-13 7.6-31 9.9m3.5 4.3a63.3 63.3 0 0 1 23.3 7.2m-18.7 2.4C70 190.1 80 191.3 83.6 197.7" fill="none"/><path d="m57.7 176.8-.3.2c-6 3.5-14.8 1-19.7-5.5-4.9-6.5-4-14.6 2-18.1l.4-.2z" fill="#fff"/><g fill="#eac102"><path d="m39.8 150.3-3.3 2 20.6 27.5 3.3-1.9a136.5 136.5 0 0 0-20.6-27.6Z"/><path d="m708.9 83.3-6.9-4.7c-19.6-4.5-37.1 12-37 19-5-4-9.8-2.6-14.7-2.4 2.9 8.5 0 14.8 3.4 23.8-4.5 1.3-8 3-9 6.2l-4.6-2.6-5.6-.3c-1.1 23.6 7.6 18.4 5.9 27.1l-9.4-10.1-10.2 1c-5 .8-6.4 6-11.8 6.5 3.8 4.6 6.1 12.5 9.7 18 4.3 2.7 8.1 2.3 11.8.7-11.9 3.8-15 12.8-19.6 17.6 4.9.3 9.2.7 11.3 1-7.5 9.4-11.8 16.9-19 22.1l4.2.7 22.2-9.6 18.8-17 23-31.3.8-49.5c11.8-5.3 10-17.5 36.7-16.2z" stroke-linecap="round" stroke-linejoin="round"/><path d="M709.6 83.6c-32 3-32 42.7-38.3 66.3l-20.5 30.4c-13 11-21.3 24.7-29.3 26.3-7.7 1.6-7.2-1.3-15 .3 15.4-6 8.3-20 40.4-28.4-10.4-5-10.4 8.9-31.2 4.9 5.7-12.5 18-13.2 23.5-17.8-8.5-2.4-9.4 2.4-15.6.2-6.8-2.4-5.2-11.8-10.7-18 7.1-2.7 12.9-11 21.6-7 3 2.3 7.6 9.8 12.6 11.5 2.1-10-5-10.9-6.5-16-1.5-5 .9-6.5-.5-13.6 23 7.4 14.4 21 24.9 26.9 0-14.4-4.5-8.3-13-24 3.2-4.3 5.4-3.5 8.1-4.8-4.2-8-.4-13-4.9-24.1 8.5-2.5 11.4 1.5 13.7 4 .9-6.9 19.4-29.4 40.7-17z" stroke-linejoin="round"/></g><path d="M663.8 110.6c6.9 13.4 6.2 26.9 5.7 40.3m-16.6-7.1c1.4 6.7 6.2 10.4 11.3 13.9m-35.2-4c12.1.8 13 7.6 31 9.9m-3.6 4.3a63.3 63.3 0 0 0-23.2 7.2m18.7 2.4c-11.9 12.6-21.8 13.8-25.4 20.2" fill="none"/><path d="m652.4 176.8.3.2c6 3.5 14.8 1 19.7-5.5 4.8-6.5 4-14.6-2-18.1l-.4-.2z" fill="#fff"/><g fill="#eac102"><path d="m670.3 150.3 3.2 2-20.6 27.5-3.2-1.9a136.6 136.6 0 0 1 20.6-27.6zM355 124.3c-1.8 0-3.6 1.1-3.6 3.2-1.7 20.9-10.3 53.4-42.3 59.3-31.7 5.8-59.7-38.6-60.9-56.2 0-2.7-2-3.7-4.3-3.6-2.4.1-5 1.7-4.3 4 4.7 24.2-.2 54.9-22.2 60.4-21.9 5.4-45.8-20.2-62.8-52.2-1.6-6-10.7-3.7-9 .8 14 33.2 9.3 56.6-.7 61.5-12.2 3.7-37.5-25.6-51.7-51.3-2.4-3.5-11.4-1.7-9.2 2.8 10.3 19.8 20.6 39.6 21 59.7-1.1-1.1-2.7-2.9-4.3-5l-3.5 9.6c8.4 7.8 13 7.3 15.3 5.2 4.7-4 4.8-12.6-1.5-31.6 11.5 11.4 29.6 25.5 41.2 17.8 11.6-7.8 12.7-21.8 11.6-38.7 14.2 17.5 35.8 35.5 55.2 31 19.7-4.5 28.2-21.6 30.9-43.5 10.8 19.8 33.1 42.4 60.6 39 26.4-3.4 41.6-32.6 44.4-42.2 2.8 9.6 18 38.8 44.4 42.2 27.5 3.4 49.8-19.2 60.7-39 2.6 21.8 11.2 39 30.8 43.5 19.4 4.5 41-13.5 55.2-31-1 17 0 31 11.7 38.7 11.6 7.7 29.6-6.4 41-17.8-6.1 19-6 27.5-1.4 31.6 2.3 2 7 2.6 15.2-5l-3.5-9.6c-1.6 2-3 3.7-4.3 4.8.5-20.1 10.8-40 21.2-59.7 2-4.5-6.8-6.3-9.2-2.8-14.3 25.8-39.6 55-51.7 51.3-10-4.9-14.7-28.3-.8-61.5 1.7-4.5-7.4-6.8-9-.8-17 32-40.9 57.6-62.8 52.2-22-5.5-26.9-36.2-22.2-60.3 1.2-4.4-8.6-6.2-8.6-.5-1.2 17.6-29.2 62-60.9 56.2-32-6-40.6-38.4-42.2-59.3 0-2.2-1.8-3.2-3.5-3.2zm-59.7-53.6S310 68 318 80c7.7 11.8 26.8 10.6 26.8 10.6l-8 26.6-51.9-20c-.4 0 3.2-5 9.8-4.5 6.7.5 10.4 9.2 20.6 5.1zm119.3 0S400 68 392.1 80c-7.8 11.8-26.8 10.6-26.8 10.6l8 26.6 51.9-20c.3 0-3.2-5-9.9-4.5-6.6.5-10.4 9.2-20.5 5.1z"/><path d="M355 .6c-9 9.8-18 20.8-18.6 35.2-7.1-7.5-14.3-2.2-21.4-.9 3.6 5-.1 18.4 4.8 27.5-5.2.5-7.6 5.1-10.8 7.9 2.2 8 26.5 9.2 30.7 23.9-26.4-2.7-18-22.1-44.6-23.6-4.3 22.2 12.6 17.8 14 30-8.1 1.5-10.2-6.8-17.2-6.5-9.9.5-14.1 11.5-20.4 15.2 9.6 2.7 13.3 12 23 14.2 5.1 1.2 7.6-8.1 15.7-4-8 11.3-16 8-11.9 24 30.3 2.7 18-18.3 38.1-15.1-30.5 19-13.7 26.3-21.4 41 15.7-6.4 21.4-2 40-15.5 18.7 13.5 24.4 9 40.1 15.6-7.7-14.8 9.1-22-21.4-41.1 20.2-3.1 7.8 17.8 38 15 4.1-15.9-3.8-12.6-11.8-23.8 8.1-4.2 10.6 5.1 15.8 4 9.6-2.3 13.3-11.6 22.9-14.3-6.3-3.7-10.5-14.7-20.4-15.2-7-.3-9 8-17.1 6.4 1.3-12 18.2-7.7 14-29.9-26.6 1.5-18.2 20.9-44.7 23.6 4.2-14.7 28.5-15.9 30.7-24-3.2-2.7-5.5-7.3-10.7-7.8 4.8-9.1 1.1-22.6 4.7-27.5-7.1-1.3-14.3-6.6-21.4 1-.5-14.5-9.6-25.5-18.5-35.3l-.1-.1z"/></g><g stroke-linecap="round"><path d="M355.2 96c-.9-1.7 0-81.4 0-81.4m-4.8 110c-2.4 9.5-10.9 24.8-20.8 30.2m10.4-38.9c-7.9.4-22.5 8.5-28.3 12.3m27-16c-28 2.7-39.4-8.8-48-5.2m49.1-3L325 99.8c-5.2-1.5-8.3-7.9-11.6-11.4m38.1 5.9S351 89 344.7 74c-6-14.5-14-22.2-14-22.2m29 72.6c2.3 9.6 10.8 24.9 20.8 30.3M370 115.9c8 .4 22.6 8.5 28.4 12.3m-27-16c28 2.7 39.4-8.8 48-5.2m-49.1-3 14.9-4.2c5.1-1.5 8.3-7.9 11.6-11.4m-38.1 5.9s.4-5.3 6.6-20.2c6.1-14.5 14-22.2 14-22.2" fill="none"/><path d="M373.9 110c0 9.7-8.2 17.5-18.3 17.5a17.9 17.9 0 0 1-18.4-17.4v0c0-9.6 8.2-17.4 18.3-17.5 10.1 0 18.4 7.8 18.4 17.4h0z" fill="#eac102" stroke-linejoin="round"/><path d="M370.1 110c0 7.7-6.5 13.9-14.5 14-8.1 0-14.6-6.2-14.7-13.9v0c0-7.7 6.5-13.9 14.6-13.9 8 0 14.6 6.2 14.6 13.8 0 0 0 0 0 0z" fill="#fff" stroke-linejoin="round"/></g><g fill="#eac102"><path d="M354.8 194.6c-73.1.7-147 .8-218.9 15.2-16 4.8-39 7.5-45 24.4-2 14.2 16.2 20.2 27.5 24 54 15.4 110.9 16.7 166.8 19 86.9 1.7 174.3 2.4 260.6-9 23.6-4.3 49.5-7 68.9-21.5 11.6-10.7-1.2-25.7-14-28.8-44-16-91.8-17.6-138.2-20.9-35.9-1.8-71.8-2.4-107.7-2.4z"/><path d="M355 212a2273.8 2273.8 0 0 0-118.2 2.8c-63 3.5-96.7 9.8-114.8 15.5l-4.3 1.4a49.9 49.9 0 0 0-14 7.4 13.2 13.2 0 0 0-1 1c-1.7 1.7-1.6 2.8-1.6 2.8l13.7 47h480.4l13.8-47s0-1-1.6-2.8a43.2 43.2 0 0 0-15-8.3h-.2c-16.8-6.1-50.8-13.2-119-17l-16.4-.8c-28.3-1.3-62-2-101.8-2z"/><path d="M468.8 235c0 9.3-7.3 16.9-16.3 17-9.1 0-16.6-7.5-16.6-16.8a8.6 8.6 0 0 1 0-.2c0-9.2 7.2-16.8 16.3-16.9 9.1 0 16.6 7.4 16.6 16.7v.2z" stroke-linecap="round" stroke-linejoin="round"/><path d="M470.2 235c0 9.3-7.1 16.9-16 17-8.9 0-16.1-7.5-16.2-16.8a8.6 8.6 0 0 1 0-.2c0-9.2 7.1-16.8 16-16.9 8.9 0 16.1 7.4 16.2 16.7v.2z" stroke-linecap="round" stroke-linejoin="round"/></g><g stroke-linecap="round" stroke-linejoin="round"><path d="M468.7 235c0 8-6.3 14.6-14.2 14.6-7.8.1-14.2-6.3-14.3-14.4v-.2c0-8 6.3-14.5 14.2-14.6 7.8 0 14.2 6.4 14.3 14.4v.2z" fill="#fff"/><path d="M241.2 235c0 9.3 7.3 16.9 16.4 17 9 0 16.5-7.5 16.6-16.8v-.2c0-9.2-7.3-16.8-16.4-16.9-9 0-16.5 7.4-16.6 16.7a8.4 8.4 0 0 0 0 .2z" fill="#eac102"/><path d="M239.9 235c0 9.3 7 16.9 16 17 8.8 0 16.1-7.5 16.2-16.8v-.2c0-9.2-7.1-16.8-16-16.9-9 0-16.2 7.4-16.2 16.7a8.4 8.4 0 0 0 0 .2z" fill="#eac102"/><path d="M241.4 235c0 8 6.3 14.6 14.1 14.6 7.9.1 14.3-6.3 14.4-14.4v-.2c0-8-6.3-14.5-14.2-14.6-7.9 0-14.3 6.4-14.3 14.4z" fill="#fff"/></g><path d="m205.8 236.9-26.4-12.6-1.7.3 25.2 12.8zm0 0-26.4 22-1.7.4 25.2-21.9zm-28.1 22.3L154 246.7l23.6-22" fill="none" stroke-linecap="round" stroke-linejoin="round"/><path d="m196.4 238.8-19 16.8-18.6-10.2 18.7-16.5z" fill="#008f4c" stroke-linecap="round" stroke-linejoin="round"/><path d="m183.6 241.1-10 8.9-9.9-5.4 10-8.7zm-6 14.4-4-5.5m-14.5-4.6 4.7-.8m19.8-3.5 12.4-2.3m-22.4-2.8 3.9-7m326.7 7.9 26.4-12.6 1.7.3-25.2 12.8zm0 0 26.4 22 1.7.4-25.2-21.9zm28.1 22.3 23.7-12.5-23.6-22" fill="none" stroke-linecap="round" stroke-linejoin="round"/><path d="m513.6 238.8 19 16.8 18.6-10.2-18.7-16.5z" fill="#008f4c" stroke-linecap="round" stroke-linejoin="round"/><path d="m526.4 241.1 10 8.9 9.9-5.4-10-8.7zm6 14.4 4-5.5m14.5-4.6-4.7-.8m-19.8-3.5-12.4-2.3m22.4-2.8-4-7" fill="none" stroke-linecap="round" stroke-linejoin="round"/><path d="M338.4 216h33.3c9.6 0 17.4 7.7 17.4 17.1s-7.8 17-17.4 17h-33.3c-9.6 0-17.4-7.6-17.4-17s7.8-17 17.4-17z" fill="#eac102"/><path d="M340 218.4h30c8.6 0 15.7 6.6 15.7 14.7s-7 14.7-15.7 14.7h-30c-8.6 0-15.6-6.6-15.6-14.7s7-14.7 15.7-14.7z" fill="#ed1c24"/><path d="m99.7 208-3.5 7.3a56.6 56.6 0 0 0 2.7 2.5l2.3-8.6c-.4-.5-1-1.2-1.5-1.1zm510.7 0c-.7 0-.7 0-1.8 1.4l2.7 8.2a36 36 0 0 0 2.1-2z" fill="#eac102"/><path d="m114 281.4-.4.2c-7.4 2.2-15.7-3-18.6-11.5-3-8.6.7-17.3 8-19.5h.5z" fill="#ed1c24"/><g fill="#eac102"><path d="m104.1 247.2-4 1.2 12.3 36.2 4-1.2a150.7 150.7 0 0 0-12.3-36.2z"/><path d="M126 234c3.7 0 8.6 6.9 11.2 16 2.6 9 2 17.3-1.2 19.1l-.2.1a2.9 2.9 0 0 1-.6.2l-6.4 1.6-2.8-10a43.4 43.4 0 0 1-4.4-15.2l-2.8-10z" stroke-linecap="round" stroke-linejoin="round"/><path d="M117.1 255.1c2.8 9.8 8.2 17 12 16 4-1 5-9.6 2.2-19.3v-.2c-2.8-9.7-8.2-16.9-12.1-16-4 1-4.9 9.6-2.1 19.3v.2z" stroke-linecap="round" stroke-linejoin="round"/></g><path d="M119 238c-13.5 8-6 30.8 9.1 32 9-4.4-.8-34-9.1-32z" fill="#fff" stroke-linecap="round" stroke-linejoin="round"/><path d="m596 281.4.4.2c7.4 2.2 15.7-3 18.6-11.5 3-8.6-.7-17.3-8-19.5h-.5z" fill="#ed1c24"/><g fill="#eac102"><path d="m605.9 247.2 4 1.2-12.3 36.2-4-1.2c3.3-14.4 7.6-27.7 12.3-36.2z"/><path d="M584.1 234c-3.8 0-8.7 6.9-11.3 16-2.6 9-2 17.3 1.3 19.1l.1.1.6.2 6.4 1.6 2.9-10a43.4 43.4 0 0 0 4.3-15.2l2.8-10z" stroke-linecap="round" stroke-linejoin="round"/><path d="M592.9 255.1c-2.8 9.8-8.2 17-12 16-4-1-5-9.6-2.2-19.3v-.2c2.8-9.7 8.2-16.9 12.1-16 4 1 4.9 9.6 2.2 19.3l-.1.2z" stroke-linecap="round" stroke-linejoin="round"/></g><path d="M591 238c13.6 8 6 30.8-9.1 32-9-4.4.8-34 9.1-32z" fill="#fff" stroke-linecap="round" stroke-linejoin="round"/><path d="M133.4 292S181.4 269 355 269c173 0 221.5 22.9 221.5 22.9S536 314.9 355 314.9c-181.6 0-221.5-23-221.5-23Z" fill="#eac102"/><path d="M298.6 317v-50m-10.2 50v-50m-9.7 50v-50m-9.5 50v-50m-8.4 50v-50m-16.4 50v-50m7.8 50v-50m-22.5 50v-50m7.3 50v-50m-27.5 50v-50m6.7 50v-50m6.8 50v-50m-20.5 50v-50m-6.5 50v-50m-7 50v-50m-14.5 50v-50m7.5 50v-50m-14.8 50v-50m-6.7 35v-20m-7.5 20v-20m-7.5 20v-20m-8 20v-20M339 317v-50m-17 50v-50m-12.8 50v-50m102.1 50v-50m10.2 50v-50m9.5 50v-50m9.6 50v-50m8.4 50v-50m16.4 50v-50m-7.7 50v-50m22.5 50v-50m-7.4 50v-50m27.5 50v-50m-6.5 50v-50m-6.8 50v-50m20.4 50v-50m6.5 50v-50m7.1 50v-50m14.5 50v-50m-7.5 50v-50m14.7 50v-50m6.7 35v-20m7.4 20v-20m7.6 20v-20m8 20v-20m-201.6 35v-50m17.2 50v-50m12.7 50v-50" fill="none"/><path d="M354.7 253.4c-67.4.7-135.5.8-201.7 14.1-14.8 4.4-35.9 6.9-41.4 22.5-1.8 13 14.8 18.6 25.3 22.2 49.7 14 102.2 15.3 153.6 17.5 80.1 1.5 160.7 2 240.2-8.4 21.7-4 45.6-6.5 63.5-19.8 10.7-10-1.1-23.7-12.9-26.6-40.4-14.6-84.5-16.2-127.3-19.2-33-1.7-66.2-2.2-99.3-2.3zm.2 15.7c173 0 221.5 22.9 221.5 22.9S536 314.9 355 314.9c-181.6 0-221.5-23-221.5-23s47.9-22.8 221.5-22.8zm192.4-121a38 38 0 0 0 14.5 4.7c-1.2 2.7-3.8 1-4 3.5-.3 2.4-12.1-1-10.3-3.2 1.8-2.3-1.6-2.4-.2-5z" fill="#eac102"/><path d="M558 155c-3.3-.4-7-1.6-9.7-3.3" fill="none"/><path d="M159.3 141a38 38 0 0 1-14.5 4.8c1.2 2.7 3.8 1 4 3.4.3 2.5 12.1-.9 10.3-3.1-1.8-2.3 1.6-2.4.2-5z" fill="#eac102"/><path d="M101.3 100.6c-19.7 26.1 15.9 55 47 41.7 14-15.9-32.2-53-47-41.7z" fill="#fff" stroke-linecap="round" stroke-linejoin="round"/><path d="M148.6 148c3.3-.5 7-1.6 9.7-3.3" fill="none"/><g fill="#fff" stroke-linecap="round" stroke-linejoin="round"><path d="M98 87.9C106.9 103 124.3 109 137 101s15.9-26.8 7.1-42l-.2-.4c-8.7-15.2-26-21.2-38.8-13.2-12.7 8-15.9 26.8-7.1 42l.2.4z"/><path d="M186.6 104.1c4.6 16.5-3.8 33-18.8 37-15.1 3.8-31.1-6.4-35.8-22.9l-.1-.4c-4.7-16.5 3.7-33 18.8-36.9 15-3.9 31 6.3 35.7 22.8l.1.4zm419 2.1c22 24.5-11 56-43.1 45.3-15.5-14.6 27.3-55.4 43-45.3z"/><path d="M610.8 95.1c-8.7 15.3-26.1 21.2-38.8 13.2-12.7-8-15.9-26.7-7.2-42l.2-.4c8.8-15.2 26.2-21.1 38.8-13.2 12.7 8 16 26.8 7.2 42l-.2.4z"/><path d="M522.2 111.4c-4.6 16.5 3.8 33 18.8 36.9 15.1 3.9 31.1-6.4 35.8-22.9l.1-.3c4.7-16.5-3.7-33-18.8-37-15-3.8-31 6.4-35.8 22.9v.4z"/></g></g><path d="M105.5 304v350.2a249.3 249.3 0 0 0 498.6 0V304Z" fill="#ed1c24" stroke="#000" stroke-width="3"/><path d="M188.9 404.5v233.3a166 166 0 0 0 332 0V404.5Z" fill="#fff" stroke="#000"/><use transform="matrix(1 0 0 -1 148.6 366.8)" x="-29.2" y="-45" width="58.4" height="90" xlink:href="#a"/><use transform="matrix(1 0 0 -1 561.4 366.8)" x="-29.2" y="-45" width="58.4" height="90" xlink:href="#a"/><use transform="matrix(1 0 0 -1 148.6 592.9)" x="-29.2" y="-45" width="58.4" height="90" xlink:href="#a"/><use transform="matrix(1 0 0 -1 561.4 592.9)" x="-29.2" y="-45" width="58.4" height="90" xlink:href="#a"/><use transform="matrix(1 0 0 -1 197.9 776.3)" x="-29.2" y="-45" width="58.4" height="90" xlink:href="#a"/><use transform="matrix(1 0 0 -1 512.1 776.3)" x="-29.2" y="-45" width="58.4" height="90" xlink:href="#a"/><use transform="matrix(1 0 0 -1 355 851.9)" x="-29.2" y="-45" width="58.4" height="90" xlink:href="#a"/><use transform="matrix(1 0 0 -1 355 603.3)" x="-41.7" y="-50" width="83.3" height="100" xlink:href="#b"/><use transform="matrix(1 0 0 -1 249 603.3)" x="-41.7" y="-50" width="83.3" height="100" xlink:href="#b"/><use transform="matrix(1 0 0 -1 461 603.3)" x="-41.7" y="-50" width="83.3" height="100" xlink:href="#b"/><use transform="matrix(1 0 0 -1 355 478.4)" x="-41.7" y="-50" width="83.3" height="100" xlink:href="#b"/><use transform="matrix(1 0 0 -1 355 728.2)" x="-41.7" y="-50" width="83.3" height="100" xlink:href="#b"/></g></svg>