<svg height="512" width="512" xmlns="http://www.w3.org/2000/svg"><g fill-rule="evenodd"><path d="M-6-6h512v512H-6Z" fill="#da121a" style="stroke-width:1.024" transform="translate(6 6)"/><g stroke="#000"><path d="M-460 711c32 0 63 3 81 6 22 2 31 9 47 10 14 1 95 38 82 88l-8 19-34 13-5 4-4 12-158-21-144 20-7-11-8-1c-11 3-32-13-41-18l-8-5s-8-1 1-12c-23-15 37-85 80-88 13-1 32-7 48-10 22-4 47-6 78-6z" fill="#ed1c24" stroke-width=".9" transform="matrix(.28955 0 0 .30793 389 -56)"/><g fill="#eac102"><path d="M-21 59c39-14 82-13 118-1-3 3-5 7-4 10-37-10-66-13-108 0 0-4-2-8-6-9z" fill-rule="nonzero" stroke-linecap="round" stroke-linejoin="round" stroke-width=".3" transform="matrix(.89008 0 0 1.17956 222 139)"/><path d="M59 46v4l-2 3-3 2c-3-1-4-2-5-4l-1-1v-2h-1v4c-1 2-2 4-5 4l-4-2-2-2v-1h-1v1a4 4 0 0 1 0 3l-2 3-4 1-4-3h-1v1l-1 4-3 3-5-2a13 13 0 0 1-1-1 6 6 0 0 1-1-1h-1a1 1 0 0 0 0 1h1l2 2 5 2 4-2 9-4 10-2c3 0 8-2 11-1h11c3-1 8 1 11 1l19 6 4 2 5-2a14 14 0 0 0 2-2h1a1 1 0 0 0 0-1h-1l-1 1-1 1-5 2-3-3-1-4v-1h-1l-4 3-4-1-2-3a4 4 0 0 1 0-3v-1h-1v1l-2 2-4 2c-3 0-4-2-5-4v-4h-1v2l-1 1c-1 2-2 3-5 4l-3-2-2-3v-4Z" stroke-width=".2" transform="matrix(1.25164 0 0 1.17498 182 128)"/><path d="M58 76a109 109 0 0 0-34 6l-1 1v1l2-1s0 0 0 0a22 22 0 0 1 2-1l8-2a107 107 0 0 1 46 0 66 66 0 0 1 11 4h1a1 1 0 0 0 0-1l-4-3-8-2-23-2Z" fill-rule="nonzero" stroke-linecap="round" stroke-linejoin="round" stroke-width=".2" transform="matrix(1.486 0 0 1.9206 169 48)"/><path d="M59 46v4l-2 3c-1 1-2 2-3 1-3 0-4-1-5-3l-1-1v-2h-1v4c-1 2-2 4-5 4l-4-2-2-2v-1h-1v1a4 4 0 0 1 0 3l-2 3-4 1-4-3h-1v1l-1 4-3 3-5-2a13 13 0 0 1-1-1 6 6 0 0 1-1-1h-1a1 1 0 0 0 0 1h1l2 2 5 2 4-3 1-4 3 2 5-1 3-3v-2h1c1 2 3 3 6 3s4-3 5-5c1 2 3 3 6 3 1 1 2 0 3-1l3-3 2 3c1 1 2 2 3 1 3 0 5-1 6-3 1 2 2 4 5 5 3 0 5-1 6-3h1v2l3 3 5 1 3-2 1 4 4 3 5-2a14 14 0 0 0 2-2h1a1 1 0 0 0 0-1h-1l-1 1-1 1-5 2-3-3-1-4v-1h-1l-4 3-4-1-2-3a4 4 0 0 1 0-3v-1h-1v1l-2 2-4 2c-3 0-4-2-5-4v-4h-1v2l-1 1c-1 2-2 3-5 3-1 1-2 0-3-1l-2-3v-4Z" stroke-width=".2" transform="matrix(1.25164 0 0 1.17498 182 128)"/></g><g fill="#e3e4e5" fill-rule="nonzero" stroke-linejoin="round" stroke-width="1.2"><path d="M-268 623a13 13 0 1 1-27 0 13 13 0 1 1 27 0z" transform="matrix(-.22996 0 0 .21588 146 57)"/><path d="M-268 623a13 13 0 1 1-27 0 13 13 0 1 1 27 0z" transform="matrix(-.22996 0 0 .21588 236 57)"/></g><g stroke-width=".9"><path d="M189 820c0-4 3-6 6-6s6 2 6 6c0 3-3 6-6 6s-6-3-6-6z" fill="#e3e4e5" transform="matrix(-.35842 0 0 .3542 365 -82)"/><path d="M189 820c0-4 3-6 6-6s6 2 6 6c0 3-3 6-6 6s-6-3-6-6z" fill="#e3e4e5" transform="matrix(.35842 0 0 .3542 147 -82)"/><g fill="#008f4c"><path d="m151 831 6-9 18 2-14 12z" transform="matrix(-.2645 -.04824 -.0541 .26138 392 4)"/><path d="m151 831 6-9 18 2-14 12z" transform="matrix(.2645 -.04824 .0541 .26138 120 4)"/></g></g><g fill="#eac102"><g fill-rule="nonzero" stroke-linejoin="round"><path d="M-493 507c146-31 150 111 119 169l-7-5c3-15 16-51 0-81-28-50-75-66-110-65z" transform="matrix(.2663 0 0 .25 416 24)"/><path d="M-503 507c141-13 162 116 131 174l-11-10c7-7 16-46 4-74-26-61-81-76-121-72z" transform="matrix(.2663 0 0 .25 419 23)"/><path d="M-512 516c139-30 154 95 156 151l-22 19v-21c-1-3-1 3 0 0 23-52-22-154-129-139z" transform="matrix(.2663 0 0 .25 420 21)"/><g fill="#e3e4e5"><path d="M-268 623a13 13 0 1 1-27 0 13 13 0 1 1 27 0z" stroke-width="1.2" transform="matrix(.22714 0 0 .21323 364 18)"/><path d="M-268 623a13 13 0 1 1-27 0 13 13 0 1 1 27 0z" stroke-width="1.4" transform="matrix(.19232 0 0 .18054 349 38)"/><path d="M-268 623a13 13 0 1 1-27 0 13 13 0 1 1 27 0z" stroke-width="1.6" transform="matrix(.17056 0 0 .16012 338 51)"/><path d="M-268 623a13 13 0 1 1-27 0 13 13 0 1 1 27 0z" stroke-width="1.8" transform="matrix(.14445 0 0 .1356 326 66)"/></g></g><g fill-rule="nonzero" stroke-linejoin="round"><path d="M-493 507c146-31 150 111 119 169l-7-5c9-29 13-57 0-81-27-51-75-66-110-65z" transform="matrix(-.2663 0 0 .25 96 24)"/><path d="M-503 507c141-13 162 116 131 174l-11-10c9-10 14-47 4-74-24-62-81-76-121-72z" transform="matrix(-.2663 0 0 .25 93 23)"/><path d="M-512 516c139-30 154 95 156 151l-22 19v-21c-1-3-1 3 0 0 23-52-22-154-129-139z" transform="matrix(-.2663 0 0 .25 92 21)"/></g><path d="M-465 658c0-3 3-6 6-6 4 0 6 3 6 7 0 3-2 6-6 6-3 0-6-3-6-7z" fill="#e3e4e5" stroke-width=".9" transform="matrix(-.30025 0 0 .25228 118 -18)"/><g fill-rule="nonzero" stroke-linejoin="round"><g fill="#e3e4e5"><path d="M-268 623a13 13 0 1 1-27 0 13 13 0 1 1 27 0z" stroke-width=".8" transform="matrix(-.31853 0 0 .29902 99 2)"/><path d="M-268 623a13 13 0 1 1-27 0 13 13 0 1 1 27 0z" stroke-width=".9" transform="matrix(-.29677 0 0 .2786 104 7)"/><path d="M-268 623a13 13 0 1 1-27 0 13 13 0 1 1 27 0z" transform="matrix(-.27936 0 0 .26225 109 10)"/><path d="M-268 623a13 13 0 1 1-27 0 13 13 0 1 1 27 0z" transform="matrix(-.27066 0 0 .25408 114 9)"/><path d="M-268 623a13 13 0 1 1-27 0 13 13 0 1 1 27 0z" transform="matrix(-.27066 0 0 .25408 119 3)"/><path d="M-268 623a13 13 0 1 1-27 0 13 13 0 1 1 27 0z" transform="matrix(-.27066 0 0 .25408 123 -2)"/><path d="M-268 623a13 13 0 1 1-27 0 13 13 0 1 1 27 0z" stroke-width="1.1" transform="matrix(-.24455 0 0 .22957 137 10)"/><path d="M-268 623a13 13 0 1 1-27 0 13 13 0 1 1 27 0z" stroke-width="1.2" transform="matrix(-.22714 0 0 .21323 148 18)"/><path d="M-268 623a13 13 0 1 1-27 0 13 13 0 1 1 27 0z" stroke-width="1.4" transform="matrix(-.19232 0 0 .18054 163 38)"/><path d="M-268 623a13 13 0 1 1-27 0 13 13 0 1 1 27 0z" stroke-width="1.6" transform="matrix(-.17056 0 0 .16012 174 51)"/><path d="M-268 623a13 13 0 1 1-27 0 13 13 0 1 1 27 0z" stroke-width="1.8" transform="matrix(-.14445 0 0 .1356 186 66)"/></g><path d="m-594 524-6-23c127 8 136 66 131 128l-41 8c1-8 2-7 2-16-2-62-17-94-86-97z" transform="matrix(-.2663 0 0 .25 92 21)"/><path d="m-594 516-6-15c119 8 129 67 124 127l-33 10c8-54 17-117-85-122z" transform="matrix(-.2663 0 0 .25 92 21)"/><g fill="#e3e4e5"><path d="M-268 623a13 13 0 1 1-27 0 13 13 0 1 1 27 0z" stroke-width=".8" transform="matrix(-.31853 0 0 .29902 133 -14)"/><path d="M-268 623a13 13 0 1 1-27 0 13 13 0 1 1 27 0z" stroke-width=".9" transform="matrix(-.30163 0 0 .28315 138 -11)"/><path d="M-268 623a13 13 0 1 1-27 0 13 13 0 1 1 27 0z" stroke-width=".9" transform="matrix(-.30163 0 0 .28315 141 -18)"/><path d="M-268 623a13 13 0 1 1-27 0 13 13 0 1 1 27 0z" stroke-width="1.1" transform="matrix(-.24246 0 0 .22762 162 12)"/><path d="M-268 623a13 13 0 1 1-27 0 13 13 0 1 1 27 0z" stroke-width="1.2" transform="matrix(-.21711 0 0 .20381 173 24)"/><path d="M-268 623a13 13 0 1 1-27 0 13 13 0 1 1 27 0z" stroke-width="1.4" transform="matrix(-.19598 0 0 .18398 184 35)"/><path d="M-268 623a13 13 0 1 1-27 0 13 13 0 1 1 27 0z" stroke-width="1.5" transform="matrix(-.17485 0 0 .16414 195 47)"/><path d="M-268 623a13 13 0 1 1-27 0 13 13 0 1 1 27 0z" stroke-width="1.9" transform="matrix(-.14105 0 0 .1324 209 66)"/><path d="M-268 623a13 13 0 1 1-27 0 13 13 0 1 1 27 0z" stroke-width="2.1" transform="matrix(-.12414 0 0 .11654 217 76)"/></g><path d="m-594 524-6-23c127 8 136 66 131 128l-41 8c1-8 2-7 2-16-2-62-17-94-86-97z" transform="matrix(.2663 0 0 .25 420 21)"/><path d="m-594 516-6-15c119 8 129 67 124 127l-33 10c8-54 17-117-85-122z" transform="matrix(.2663 0 0 .25 420 21)"/><g fill="#e3e4e5"><path d="M-268 623a13 13 0 1 1-27 0 13 13 0 1 1 27 0z" stroke-width=".8" transform="matrix(.31853 0 0 .29902 379 -14)"/><path d="M-268 623a13 13 0 1 1-27 0 13 13 0 1 1 27 0z" stroke-width=".9" transform="matrix(.30163 0 0 .28315 373 -11)"/><path d="M-268 623a13 13 0 1 1-27 0 13 13 0 1 1 27 0z" stroke-width=".9" transform="matrix(.30163 0 0 .28315 371 -18)"/><path d="M-268 623a13 13 0 1 1-27 0 13 13 0 1 1 27 0z" stroke-width="1.1" transform="matrix(.24246 0 0 .22762 350 12)"/><path d="M-268 623a13 13 0 1 1-27 0 13 13 0 1 1 27 0z" stroke-width="1.2" transform="matrix(.21711 0 0 .20381 338 24)"/><path d="M-268 623a13 13 0 1 1-27 0 13 13 0 1 1 27 0z" stroke-width="1.4" transform="matrix(.19598 0 0 .18398 327 35)"/><path d="M-268 623a13 13 0 1 1-27 0 13 13 0 1 1 27 0z" stroke-width="1.5" transform="matrix(.17485 0 0 .16414 317 47)"/><path d="M-268 623a13 13 0 1 1-27 0 13 13 0 1 1 27 0z" stroke-width="1.9" transform="matrix(.14105 0 0 .1324 303 66)"/><path d="M-268 623a13 13 0 1 1-27 0 13 13 0 1 1 27 0z" stroke-width="2.1" transform="matrix(.12414 0 0 .11654 294 76)"/></g></g><g fill-rule="nonzero" stroke-linejoin="round"><g fill="#e3e4e5"><path d="M-268 623a13 13 0 1 1-27 0 13 13 0 1 1 27 0z" stroke-width=".8" transform="matrix(.31853 0 0 .29902 413 2)"/><path d="M-268 623a13 13 0 1 1-27 0 13 13 0 1 1 27 0z" stroke-width=".9" transform="matrix(.29677 0 0 .2786 408 7)"/><path d="M-268 623a13 13 0 1 1-27 0 13 13 0 1 1 27 0z" transform="matrix(.27936 0 0 .26225 403 10)"/><path d="M-268 623a13 13 0 1 1-27 0 13 13 0 1 1 27 0z" transform="matrix(.27066 0 0 .25408 398 9)"/><path d="M-268 623a13 13 0 1 1-27 0 13 13 0 1 1 27 0z" transform="matrix(.27066 0 0 .25408 393 3)"/><path d="M-268 623a13 13 0 1 1-27 0 13 13 0 1 1 27 0z" transform="matrix(.27066 0 0 .25408 389 -2)"/><path d="M-268 623a13 13 0 1 1-27 0 13 13 0 1 1 27 0z" stroke-width="1.1" transform="matrix(.24455 0 0 .22957 375 10)"/></g><g stroke-width=".9"><path d="M-179 246a25 69 0 1 1-49 0 25 69 0 1 1 49 0z" transform="matrix(.29753 0 0 .26085 317 95)"/><path d="M-179 246a25 76 0 1 1-49 0 25 76 0 1 1 49 0z" stroke-width="1.2" transform="matrix(.22507 0 0 .19733 302 110)"/></g></g><g fill="#e3e4e5"><g stroke-width=".9"><path d="M-465 658c0-3 3-6 6-6 4 0 6 3 6 7 0 3-2 6-6 6-3 0-6-3-6-7z" transform="matrix(.30025 0 0 .25228 394 -18)"/><path d="M-467 669c0-5 4-8 8-8 5 0 8 4 8 9 0 4-3 8-8 8-4 0-8-4-8-9z" transform="matrix(.30025 0 0 .25228 394 -18)"/><path d="M-470 683c0-6 5-11 11-11 7 0 11 5 11 12 0 6-5 11-11 11s-11-5-11-12z" transform="matrix(.30025 0 0 .25228 394 -18)"/><path d="M-471 698c0-7 6-13 12-13 7 0 12 6 12 14 0 7-5 13-12 13-7-1-12-7-12-14z" transform="matrix(.30025 0 0 .25228 394 -18)"/></g><path d="M-471 718c0-7 6-13 12-13 7 0 12 6 12 13 0 8-5 14-12 14-7-1-12-7-12-14z" stroke-width=".9" transform="matrix(.3273 0 0 .275 406 -36)"/><path d="M-268 623a13 13 0 1 1-27 0 13 13 0 1 1 27 0z" fill-rule="nonzero" stroke-linejoin="round" stroke-width="2.1" transform="matrix(.12414 0 0 .11654 295 76)"/><path d="M-1276 599a61 61 0 1 1-122 0 61 61 0 1 1 122 0z" fill-rule="nonzero" stroke-linejoin="round" stroke-width="2.3" transform="matrix(.11654 0 0 .1094 412 79)"/><path d="M-471 718c0-7 6-13 12-13 7 0 12 6 12 13 0 8-5 14-12 14-7-1-12-7-12-14z" stroke-width=".7" transform="matrix(.38137 0 0 .32043 431 -63)"/></g><path d="M-1276 599a61 61 0 1 1-122 0 61 61 0 1 1 122 0z" fill-rule="nonzero" stroke-linejoin="round" stroke-width="2.3" transform="matrix(.11654 0 0 .1094 412 79)"/></g><g fill="none"><path d="M-931 249c-5 4-8 4-10 11 0 0-1-2-5-3l-7-1 3 7 4 13a132 132 0 0 1-16-7s-1 3 1 7l2 5c-7 4-6 5-11 11 5 5 5 8 11 10l-2 5c-2 4-1 7-1 7l7-3 12-5c3-1 2 1 12-7l12 8 13 4 7 3-1-7c-1-4-3-5-3-5 7-2 7-5 11-10-4-6-4-7-11-11 0 0 2-1 3-5l1-7-7 3-10 4 5-13 3-7-7 1c-4 1-5 3-5 3-4-7-5-7-11-11z" fill="#eac102" transform="matrix(.25321 -.07407 .08396 .25292 436 43)"/><path d="M314 717c0-6 6-11 12-11 7 0 12 5 12 11s-5 11-12 11c-6 0-12-5-12-11z" fill="#e3e4e5" transform="matrix(.26333 -.07703 .09468 .28521 71 5)"/></g><g fill="none"><path d="M-931 249c-5 4-8 4-10 11 0 0-1-2-5-3l-7-1 3 7 4 13a132 132 0 0 1-16-7s-1 3 1 7l2 5c-7 4-6 5-11 11 5 5 5 8 11 10l-2 5c-2 4-1 7-1 7l7-3 12-5c3-1 2 1 12-7l12 8 13 4 7 3-1-7c-1-4-3-5-3-5 7-2 7-5 11-10-4-6-4-7-11-11 0 0 2-1 3-5l1-7-7 3-10 4 5-13 3-7-7 1c-4 1-5 3-5 3-4-7-5-7-11-11z" fill="#eac102" transform="matrix(-.25321 -.07407 -.08396 .25292 76 43)"/><path d="M314 717c0-6 6-11 12-11 7 0 12 5 12 11s-5 11-12 11c-6 0-12-5-12-11z" fill="#e3e4e5" transform="matrix(-.26333 -.07703 -.09468 .28521 441 5)"/></g><g fill="#eac102"><path d="M-922 246c-5 5-17 7-19 14 0 0-1-2-5-3l-7-1 3 7 4 13a132 132 0 0 1-16-7s-1 3 1 7l2 5c-7 4-6 5-11 11 5 5 5 8 11 10l-2 5c-2 4-1 7-1 7l7-3 12-5c3-1 2 1 12-7 0-1 0-7 8-11 1-8 4-47 1-42z" transform="matrix(-.19676 .18974 .20212 .1847 -46 320)"/><path d="M314 717c0-6 6-11 12-11 7 0 12 5 12 11s-5 11-12 11c-6 0-12-5-12-11z" fill="#e3e4e5" stroke-width=".9" transform="matrix(-.20462 .19733 .22792 .20829 99 -17)"/><path d="M-922 246c-5 5-17 7-19 14 0 0-1-2-5-3l-7-1 3 7 4 13a132 132 0 0 1-16-7s-1 3 1 7l2 5c-7 4-6 5-11 11 5 5 5 8 11 10l-2 5c-2 4-1 7-1 7l7-3 12-5c3-1 2 1 12-7 0-1 0-7 8-11 1-8 4-47 1-42z" transform="matrix(.19676 .18974 -.20212 .1847 558 320)"/><path d="M314 717c0-6 6-11 12-11 7 0 12 5 12 11s-5 11-12 11c-6 0-12-5-12-11z" fill="#e3e4e5" stroke-width=".9" transform="matrix(.20462 .19733 -.22792 .20829 413 -17)"/></g><path d="m239 819-12 1c-3 1-6-2-6-5-1-4 1-7 5-7l12-2 13-1c3-1 6 2 6 5s-2 7-5 7z" fill="#ed1c24" stroke-width=".9" transform="matrix(-.35692 -.0412 -.04094 .28874 401 -20)"/><path d="m239 819-12 1c-3 1-6-2-6-5-1-4 1-7 5-7l12-2 13-1c3-1 6 2 6 5s-2 7-5 7z" fill="#ed1c24" stroke-width=".9" transform="matrix(.35692 -.0412 .04094 .28874 112 -20)"/><g fill="#e3e4e5"><path d="M276 808c0-3 2-6 5-6s6 3 6 6c0 4-3 7-6 7s-5-3-5-7z" transform="matrix(.34986 0 0 .34573 144 -77)"/><path d="M276 808c0-3 2-6 5-6s6 3 6 6c0 4-3 7-6 7s-5-3-5-7z" transform="matrix(-.34986 0 0 .34573 368 -77)"/></g><g fill="#e3e4e5" fill-rule="nonzero" stroke-linejoin="round" stroke-width="1.2"><path d="M-268 623a13 13 0 1 1-27 0 13 13 0 1 1 27 0z" transform="matrix(-.22996 0 0 .21588 176 49)"/><path d="M-268 623a13 13 0 1 1-27 0 13 13 0 1 1 27 0z" transform="matrix(-.22996 0 0 .21588 207 49)"/></g><g fill="none"><path d="M-931 249c-5 4-8 4-10 11 0 0-1-2-5-3l-7-1 3 7 4 13a132 132 0 0 1-16-7s-1 3 1 7l2 5c-7 4-6 5-11 11 5 5 5 8 11 10l-2 5c-2 4-1 7-1 7l7-3 12-5c3-1 2 1 12-7l12 8 13 4 7 3-1-7c-1-4-3-5-3-5 7-2 7-5 11-10-4-6-4-7-11-11 0 0 2-1 3-5l1-7-7 3-10 4 5-13 3-7-7 1c-4 1-5 3-5 3-4-7-5-7-11-11z" fill="#eac102" transform="matrix(.26522 0 0 .26492 503 103)"/><path d="M314 717c0-6 6-11 12-11 7 0 12 5 12 11s-5 11-12 11c-6 0-12-5-12-11z" fill="#e3e4e5" transform="matrix(.27582 0 0 .29874 166 -36)"/><g stroke-width=".7"><path d="m140 185 5 10" transform="matrix(.26522 0 0 .26492 216 124)"/><path d="m140 185 5 10" transform="matrix(-.26522 0 0 .26492 296 124)"/><path d="M149 179v15M145 183l2 12" transform="matrix(.26522 0 0 .26492 216 124)"/><path d="m145 183 2 12" transform="matrix(-.26522 0 0 .26492 296 124)"/><path d="m140 185 5 10" transform="matrix(0 -.24898 .2822 0 198 216)"/><path d="m140 185 5 10" transform="matrix(0 .24898 .2822 0 198 141)"/><path d="M149 179v15M145 183l2 12" transform="matrix(0 -.24898 .2822 0 198 216)"/><path d="m145 183 2 12" transform="matrix(0 .24898 .2822 0 198 141)"/><path d="m140 185 5 10" transform="matrix(0 -.24898 -.2822 0 314 216)"/><path d="m140 185 5 10" transform="matrix(0 .24898 -.2822 0 314 141)"/><path d="M149 179v15M145 183l2 12" transform="matrix(0 -.24898 -.2822 0 314 216)"/><path d="m145 183 2 12" transform="matrix(0 .24898 -.2822 0 314 141)"/><path d="m140 185 5 10" transform="matrix(0 -.24898 .2822 0 198 216)"/><path d="m140 185 5 10" transform="matrix(0 .24898 .2822 0 198 141)"/><path d="M149 179v15M145 183l2 12" transform="matrix(0 -.24898 .2822 0 198 216)"/><path d="m145 183 2 12" transform="matrix(0 .24898 .2822 0 198 141)"/><path d="m140 185 5 10" transform="matrix(0 -.24898 -.2822 0 314 216)"/><path d="m140 185 5 10" transform="matrix(0 .24898 -.2822 0 314 141)"/><path d="M149 179v15M145 183l2 12" transform="matrix(0 -.24898 -.2822 0 314 216)"/><path d="m145 183 2 12" transform="matrix(0 .24898 -.2822 0 314 141)"/><path d="m140 185 4 9" transform="matrix(.25244 -.07635 .08654 .25215 169 144)"/><path d="m140 185 5 10" transform="matrix(-.25244 .07635 .08654 .25215 245 121)"/><path d="M149 179v15M145 183l2 11" transform="matrix(.25244 -.07635 .08654 .25215 169 144)"/><path d="m145 183 2 11" transform="matrix(-.25244 .07635 .08654 .25215 245 121)"/><path d="m140 185 5 10M149 179v15" transform="matrix(-.08133 -.23698 .2686 -.08124 182 237)"/><path d="m145 183 2 11" transform="matrix(.08133 .23698 .2686 -.08124 158 166)"/><path d="m140 185 5 10M149 179v15M145 183l2 12" transform="matrix(-.08133 -.23698 -.2686 .08124 292 203)"/><path d="m140 185 5 10" transform="matrix(-.08133 -.23698 .2686 -.08124 182 237)"/><path d="m140 185 4 9" transform="matrix(.08133 .23698 .2686 -.08124 157 166)"/><path d="M149 179v15M145 183l2 11" transform="matrix(-.08133 -.23698 .2686 -.08124 182 237)"/><path d="m140 185 5 10" transform="matrix(-.08133 -.23698 -.2686 .08124 292 203)"/><path d="m140 185 4 9" transform="matrix(.08133 .23698 -.2686 .08124 268 133)"/><path d="M149 179v15M145 183l2 12" transform="matrix(-.08133 -.23698 -.2686 .08124 292 203)"/><path d="m145 183 2 11" transform="matrix(.08133 .23698 -.2686 .08124 268 133)"/><path d="m140 185 4 9" transform="matrix(-.25244 -.07635 -.08654 .25215 343 144)"/><path d="m140 185 5 10" transform="matrix(.25244 .07635 -.08654 .25215 267 121)"/><path d="M149 179v15M145 183l2 11" transform="matrix(-.25244 -.07635 -.08654 .25215 343 144)"/><path d="m145 183 2 11" transform="matrix(.25244 .07635 -.08654 .25215 267 121)"/><path d="m140 185 5 10M149 179v15" transform="matrix(.08133 -.23698 -.2686 -.08124 330 237)"/><path d="m145 183 2 11" transform="matrix(-.08133 .23698 -.2686 -.08124 355 166)"/><path d="m140 185 5 10M149 179v15M145 183l2 12" transform="matrix(.08133 -.23698 .2686 .08124 220 203)"/><path d="m140 185 5 10" transform="matrix(.08133 -.23698 -.2686 -.08124 330 237)"/><path d="m140 185 4 9" transform="matrix(-.08133 .23698 -.2686 -.08124 355 166)"/><path d="M149 179v15M145 183l2 11" transform="matrix(.08133 -.23698 -.2686 -.08124 330 237)"/><path d="m140 185 5 10" transform="matrix(.08133 -.23698 .2686 .08124 220 203)"/><path d="m140 185 4 9" transform="matrix(-.08133 .23698 .2686 .08124 244 133)"/><path d="M149 179v15M145 183l2 12" transform="matrix(.08133 -.23698 .2686 .08124 220 203)"/><path d="m145 183 2 11" transform="matrix(-.08133 .23698 .2686 .08124 244 133)"/><path d="m140 185 4 9" transform="matrix(.19847 -.16515 .1872 .19825 127 181)"/><path d="m140 185 5 10" transform="matrix(-.19847 .16515 .1872 .19825 186 131)"/><path d="M149 179v15M145 183l2 11" transform="matrix(.19847 -.16515 .1872 .19825 127 181)"/><path d="m145 183 2 11" transform="matrix(-.19847 .16515 .1872 .19825 186 131)"/><path d="m140 185 5 10M149 179v15M145 183l2 12M140 185l5 10" transform="matrix(-.1379 -.21267 -.24105 .13775 266 200)"/><path d="m140 185 4 9" transform="matrix(.1379 .21267 -.24105 .13775 225 137)"/><path d="M149 179v15M145 183l2 12" transform="matrix(-.1379 -.21267 -.24105 .13775 266 200)"/><path d="m145 183 2 11" transform="matrix(.1379 .21267 -.24105 .13775 225 137)"/><path d="m140 185 4 9" transform="matrix(-.19847 -.16515 -.1872 .19825 385 181)"/><path d="m140 185 5 10" transform="matrix(.19847 .16515 -.1872 .19825 326 131)"/><path d="M149 179v15M145 183l2 11" transform="matrix(-.19847 -.16515 -.1872 .19825 385 181)"/><path d="m145 183 2 11" transform="matrix(.19847 .16515 -.1872 .19825 326 131)"/><path d="m140 185 5 10M149 179v15M145 183l2 12M140 185l5 10" transform="matrix(.1379 -.21267 .24105 .13775 246 200)"/><path d="m140 185 4 9" transform="matrix(-.1379 .21267 .24105 .13775 287 137)"/><path d="M149 179v15M145 183l2 12" transform="matrix(.1379 -.21267 .24105 .13775 246 200)"/><path d="m145 183 2 11" transform="matrix(-.1379 .21267 .24105 .13775 287 137)"/></g></g><path d="m-300 1516-22-10 22-9 22 9z" fill="#008f4c" stroke-width=".8" transform="matrix(.36804 0 0 .34033 366 -311)"/><g fill="#eac102"><path d="M489-307s27 36 19 48c-8 13-39-18-39-18v51s29-28 39-18v161h14v-161c10-10 38 18 38 18v-51s-30 31-38 19c-8-13 18-49 18-49z" fill-rule="nonzero" stroke-linecap="round" stroke-linejoin="round" stroke-width="2.4" transform="matrix(.15035 0 0 .11024 179 161)"/><path d="M505-198v120h19v-120z" fill-rule="nonzero" stroke-linecap="round" stroke-linejoin="round" stroke-width="2.4" transform="matrix(.1176 0 0 .1104 195 160)"/><path d="M406-72a95 95 0 0 0-43 0l-2 3 1 4c7-2 11-3 22-3 12 0 21 2 22 3v-7z" stroke-width=".9" transform="matrix(.31803 0 0 .29855 134 165)"/><path d="M-340 401c-45 0-90 10-124 20-17 6-26 12-37 17l-8 4s0 0 0 0c-8 4-8 11 0 14 0 0 0 0 0 0l8 4 37 17a405 405 0 0 0 245 1c16-5 24-11 35-16l10-6c8-4 8-10 0-14l-10-6c-11-5-19-11-35-16-33-10-76-19-121-19z" fill-rule="nonzero" stroke-linecap="round" stroke-linejoin="round" transform="matrix(.28207 0 0 .27592 352 96)"/><path d="M1104 490v-43" stroke-width=".6" transform="matrix(.2742 0 0 .47288 -60 -2)"/><path d="M1095 488v-41" stroke-width=".9" transform="matrix(.2742 0 0 .47288 -60 -2)"/><path d="M1087 488v-39" stroke-width="1.1" transform="matrix(.2742 0 0 .47288 -60 -2)"/><path d="M1079 487v-37" stroke-width="1.4" transform="matrix(.2742 0 0 .47288 -60 -2)"/><path d="M1072 487v-37" stroke-width="1.7" transform="matrix(.2742 0 0 .47288 -60 -2)"/><path d="M1058 485v-34m7 34v-35" stroke-width="2" transform="matrix(.2742 0 0 .47288 -60 -2)"/><path d="M1046 483v-30m6 31v-33" stroke-width="2.3" transform="matrix(.2742 0 0 .47288 -60 -2)"/><path d="M1029 480v-25m6 26v-27m5 28v-28" stroke-width="2.6" transform="matrix(.2742 0 0 .47288 -60 -2)"/><path d="M1023 479v-23" stroke-width="2.9" transform="matrix(.2742 0 0 .47288 -60 -2)"/><path d="M1018 478v-21" stroke-width="3.2" transform="matrix(.2742 0 0 .47288 -60 -2)"/><path d="M1012 476v-18" stroke-width="3.4" transform="matrix(.2742 0 0 .47288 -60 -2)"/><path d="m1000 474-1-12m7 14v-16" stroke-width="3.7" transform="matrix(.2742 0 0 .47288 -60 -2)"/><path d="M993 473v-11" stroke-width="3.9" transform="matrix(.2742 0 0 .47288 -60 -2)"/><path d="M988 471v-7" stroke-width="4.2" transform="matrix(.2742 0 0 .47288 -60 -2)"/><path d="M982 470v-5" stroke-width="4.5" transform="matrix(.2742 0 0 .47288 -60 -2)"/><path d="M975 468v-1" stroke-width="4.8" transform="matrix(.2742 0 0 .47288 -60 -2)"/><path d="M1138 490v-45m-15 45v-44m-10 43v-42" stroke-width=".3" transform="matrix(.2742 0 0 .47288 -60 -2)"/><path d="M1199 489v-42" stroke-width=".6" transform="matrix(.2742 0 0 .47288 -60 -2)"/><path d="M1207 488v-41" stroke-width=".9" transform="matrix(.2742 0 0 .47288 -60 -2)"/><path d="M1215 488v-41" stroke-width="1.1" transform="matrix(.2742 0 0 .47288 -60 -2)"/><path d="M1223 488v-39" stroke-width="1.4" transform="matrix(.2742 0 0 .47288 -60 -2)"/><path d="M1230 487v-37" stroke-width="1.7" transform="matrix(.2742 0 0 .47288 -60 -2)"/><path d="M1244 486v-35m-7 35v-36" stroke-width="2" transform="matrix(.2742 0 0 .47288 -60 -2)"/><path d="M1256 483v-30m-6 32v-34" stroke-width="2.3" transform="matrix(.2742 0 0 .47288 -60 -2)"/><path d="M1273 481v-26m-5 27v-28m-6 28v-29" stroke-width="2.6" transform="matrix(.2742 0 0 .47288 -60 -2)"/><path d="M1279 480v-24" stroke-width="2.9" transform="matrix(.2742 0 0 .47288 -60 -2)"/><path d="M1285 478v-21" stroke-width="3.2" transform="matrix(.2742 0 0 .47288 -60 -2)"/><path d="M1291 478v-20" stroke-width="3.4" transform="matrix(.2742 0 0 .47288 -60 -2)"/><path d="M1303 475v-15m-7 16v-17" stroke-width="3.7" transform="matrix(.2742 0 0 .47288 -60 -2)"/><path d="M1309 474v-12" stroke-width="3.9" transform="matrix(.2742 0 0 .47288 -60 -2)"/><path d="M1315 472v-9" stroke-width="4.2" transform="matrix(.2742 0 0 .47288 -60 -2)"/><path d="M1321 471v-6" stroke-width="4.5" transform="matrix(.2742 0 0 .47288 -60 -2)"/><path d="M1327 469v-3" stroke-width="4.8" transform="matrix(.2742 0 0 .47288 -60 -2)"/><path d="M1164 491v-45m15 45v-45m11 44v-43" stroke-width=".3" transform="matrix(.2742 0 0 .47288 -60 -2)"/><path d="M-340 401c-45 0-90 10-124 20-17 6-39 18-45 21 0 0 0 0 0 0-7 4-8 11 0 14 0 0 0 0 0 0 3 1 27 14 45 21a382 382 0 0 0 245 1c16-5 24-11 35-16l10-6c8-4 8-10 0-14l-10-6c-11-5-19-11-35-16-33-10-76-19-121-19zm0 13c44 0 86 8 118 18 16 5 23 11 34 16l2 1-2 1c-11 5-18 11-34 16a404 404 0 0 1-239-1c-17-5-25-11-35-16 10-5 18-10 35-16 33-10 77-19 121-19z" fill-rule="nonzero" stroke-linecap="round" stroke-linejoin="round" transform="matrix(.28207 0 0 .27592 352 96)"/></g><path d="M-2754 1008s0 503 2 513c1 12 8 18 12 22 7 7 67 33 124 55a4002 4002 0 0 1 112 45c9 2 15 2 20 0l41-16 72-29c57-22 117-48 124-55 5-4 12-6 13-22l1-513z" fill="#ed1c24" stroke-width="3.1" transform="matrix(.25982 0 0 .25874 904 -40)"/></g><g fill="#eac102"><g stroke="#110f06" stroke-width="2"><path d="M256 342v1l1 1-1 5v10a20 20 0 0 1 1 4l-1 1v1h2l2-1v-2l-2-3v-11l1-4c0-1-1-2-3-2z" stroke="none"/><path d="M352 553c1 4 0 8-1 12-2 4-5 6-9 7-4 2-7 1-10 0l-21-6h-66c-7 2-15 5-23 5-8-1-15-8-14-17m10 0c0 1 1 6 6 7l25-7h63l25 7c4-1 6-3 7-8" fill="none" stroke-width="1.5" transform="matrix(0 .16283 .19674 0 147 308)"/></g><g stroke="#110f06" stroke-width="2"><path d="M250 293h-2l-1 2-4-2h-11a20 20 0 0 1-4 2l-1-2h-1v2l2 2h1l4-1h10l4 1c1-1 3-2 3-4z" stroke="none"/><path d="M352 553c1 4 0 8-1 12-2 4-6 6-9 7-4 2-7 1-11 0l-21-6h-67c-8 2-17 5-25 5-8-1-15-8-14-17m11 0c0 1 1 6 6 7l26-7h64l25 7c4-1 7-3 7-7" fill="none" stroke-width="1.5" transform="matrix(-.15967 0 0 .19478 282 185)"/></g><path d="M201 236v2l1 1-1 5v8h2v-8l1-5c0-2-2-3-3-3z"/><path d="M107 242v-23l2-12c0-5-3-8-8-8m0 6c2 0 3 0 4 2l-3 14v21" fill="none" stroke="#110f06" stroke-width=".7" transform="matrix(.444 0 0 .37085 156 162)"/><path d="M203 252v-8l1-5c0-2-2-3-3-3m0 2 1 1-1 5v8" fill="none"/><path d="M200 250v6a27 27 0 0 1 2 5l-2 2v1h3l1-2v-2l-1-4v-6h-3z"/><path d="M102 274h5l3-5v-5l-3-11v-16m-5 0v16l3 13c0 2-1 4-3 4" fill="none" stroke="#110f06" stroke-width=".7" transform="matrix(.444 0 0 .37085 156 162)"/><path d="M201 260v2l-2 1 2 5v13a28 28 0 0 0-2 5l2 1v2h-3l-1-2v-2l1-4v-13l-1-5c0-2 2-3 4-3z"/><path d="M352 553c1 4 0 8-1 12-2 4-6 6-9 7-4 2-7 1-11 0l-21-6h-67c-8 2-17 5-25 5-8-1-15-8-14-17m11 0c0 1 1 6 6 7l26-7h64l26 7c4-1 6-3 6-8" fill="none" stroke="#110f06" stroke-width="1.4" transform="matrix(0 .19407 -.19715 0 310 221)"/><path d="M200 260v2l2 1-2 5v8h3v-8l1-5c0-2-2-3-4-3z"/><path d="M107 306v-23l2-12c0-4-4-7-8-7m0 5c1 0 3 1 3 3l-3 13v22" fill="none" stroke="#110f06" stroke-width=".7" transform="matrix(.44374 0 0 .38327 156 159)"/><path d="M201 329v6a26 26 0 0 0-2 5l2 1v2h-2l-2-2v-2l1-4v-6h3z"/><path d="m418-396-1-11c-3-4-6-6-10-7-3-2-7-1-10 0l-22 6h-30m0 12h32l25-7c4 0 7 3 7 7" fill="none" stroke="#110f06" stroke-width="1.4" transform="matrix(0 .1864 .19345 0 277 265)"/><path d="M201 317v2l-2 1 2 4v7h-3v-7l-1-4c0-2 2-3 4-3z"/><path d="M353-408h-45c-8-2-16-5-24-5s-15 8-15 17m11 1c0-3 1-7 6-7l26 6h42" fill="none" stroke="#110f06" stroke-width="1.5" transform="matrix(0 .16068 .19392 0 277 274)"/><path d="M201 309v5a20 20 0 0 0-2 4l2 1v2h-3l-1-2v-2l1-3v-5h3z"/><path d="m418-396-1-11c-3-4-6-6-10-7-3-2-7-1-10 0l-22 6h-30m0 12h32l25-7c4 0 7 3 7 7" fill="none" stroke="#110f06" stroke-width="1.5" transform="matrix(0 .15713 .19402 0 277 255)"/><path d="M201 298v2l1 1-1 4v9a18 18 0 0 1 1 4l-1 1v2l2-1 1-1v-2l-1-3v-10l1-4-3-2z"/><path d="M352 554c1 3 0 7-1 11-2 4-6 6-9 7-4 2-7 1-11 0l-21-6h-67c-8 2-17 5-25 5-8-1-15-8-14-17m11 0c0 1 1 6 6 7l26-7h64l26 7c4-1 6-3 7-7" fill="none" stroke="#110f06" stroke-width="1.5" transform="matrix(0 .1519 .19436 0 93 267)"/><path d="m306 235-1 1 1 2-4 3-5 5 2 2 5-6 3-3c1-1 1-3-1-4z"/><g fill="none"><path d="M107 242v-23l2-12c0-5-3-8-8-8m0 6c2 0 3 0 4 2l-3 14v21" stroke="#110f06" stroke-width=".7" transform="matrix(.33221 .28326 -.2177 .26232 316 154)"/><path d="m299 248 5-6 3-3c1-1 1-3-1-4m-1 1 1 2-4 3-5 5"/></g><path d="m298 245-3 4a24 24 0 0 1-2 5h-2l-1 1 2 1h2l1-2 2-4 3-4-2-1z"/><path d="M102 274h5l3-5v-5l-3-11v-16m-5 0v16l3 13c0 2-1 4-3 4" fill="none" stroke="#110f06" stroke-width=".7" transform="matrix(.33221 .28326 -.2177 .26232 316 154)"/><g stroke="#110f06"><g stroke-width="2"><path d="m278 269-1 2h-2l-2 4-7 9a23 23 0 0 0-4 2v2l-1 1-1-1-1-3 2-1 3-2 1-1 7-8 2-4h4z" stroke="none"/><path d="M352 553c1 4 0 8-1 12-2 4-6 6-9 7-4 2-7 1-11 0l-21-6h-67c-8 2-17 5-25 5-8-1-15-8-14-17m11 0c0 1 1 6 6 7l26-7h64l26 7c4-1 6-3 6-8" stroke-width="1.4" transform="matrix(-.11405 .13537 -.15271 -.12826 386 313)"/></g><path d="m284 262-4 4a23 23 0 0 1-2 5h-2l-1 1 2 1h3l1-1 1-4 4-4-2-2z" stroke="none"/><path d="m418-396-1-11c-3-4-6-6-10-7-3-2-7-1-10 0l-22 6h-30m0 12h32l25-7c4 0 7 3 7 7" fill="none" stroke-width="1.4" transform="matrix(-.11405 .13537 -.15271 -.12826 263 165)"/><g stroke-width="2"><path d="m293 252-2 1h-1l-2 5-8 8a23 23 0 0 0-4 3l1 2-1 1-2-2v-2l1-1 4-2v-1l7-8 2-4h5z" stroke="none"/><path d="M352 553c1 4 0 8-1 12-2 4-6 6-9 7-4 2-7 1-11 0l-21-6h-67c-8 2-17 5-25 5-8-1-15-8-14-17m11 0c0 1 1 6 6 7l26-7h64l26 7c4-1 6-3 6-8" fill="none" stroke-width="1.4" transform="matrix(-.11405 .13537 -.15271 -.12826 400 295)"/></g></g><path d="m292 252-1 1 1 2-4 3-5 5 2 2 5-6 3-3c1-1 1-3-1-4z"/><path d="M107 306v-23l2-12c0-4-4-7-8-7m0 5c1 0 3 1 3 3l-3 13v22" fill="none" stroke="#110f06" stroke-width=".7" transform="matrix(.34373 .28868 -.22524 .26734 317 152)"/><path d="m278 269-1 2v1l-4 3-5 5 2 2 5-6 4-3c1-1 0-3-1-4z"/><path d="M107 306v-23l2-12c0-4-4-7-8-7m0 5c1 0 3 1 3 3l-3 13v22" fill="none" stroke="#110f06" stroke-width=".7" transform="matrix(.34373 .28868 -.22524 .26734 303 169)"/><path d="m213 244 4 5a24 24 0 0 0 2 4h2l1 2-2 1h-2l-1-2-2-4-4-4 2-2z"/><path d="M102 274h5l3-5v-5l-3-11v-16m-5 0v16l3 13c0 2-1 4-3 4" fill="none" stroke="#110f06" stroke-width=".7" transform="matrix(-.34314 .28868 .22485 .26734 195 152)"/><g stroke="#110f06"><g stroke-width="2"><path d="m234 269 1 2h2l2 4 7 9a23 23 0 0 1 4 2v2l1 1 1-1v-3l-1-1-3-2-1-1-7-8-2-4h-4z" stroke="none"/><path d="M352 553c1 4 0 8-1 12-2 4-6 6-9 7-4 2-7 1-11 0l-21-6h-67c-8 2-17 5-25 5-8-1-15-8-14-17m11 0c0 1 1 6 6 7l26-7h64l26 7c4-1 6-3 6-8" stroke-width="1.4" transform="matrix(.11385 .13537 .15245 -.12826 126 313)"/></g><path d="m228 262 4 4a23 23 0 0 0 2 5h1l1 1-1 1h-3l-1-1-1-4-4-4 2-2z" stroke="none"/><path d="m418-396-1-11c-3-4-6-6-10-7-3-2-7-1-10 0l-22 6h-30m0 12h32l25-7c4 0 7 3 7 7" fill="none" stroke-width="1.4" transform="matrix(.11385 .13537 .15245 -.12826 249 165)"/><g stroke-width="2"><path d="m219 252 2 1h1l2 5 8 8a23 23 0 0 1 4 3l-1 2 1 1 2-2v-2l-1-1-4-2v-1l-7-8-2-4h-5z" stroke="none"/><path d="M352 553c1 4 0 8-1 12-2 4-6 6-9 7-4 2-7 1-11 0l-21-6h-67c-8 2-17 5-25 5-8-1-15-8-14-17m11 0c0 1 1 6 6 7l26-7h64l26 7c4-1 6-3 6-8" fill="none" stroke-width="1.4" transform="matrix(.11385 .13537 .15245 -.12826 112 295)"/></g></g><path d="m204 234 2 2h1l2 4 8 9 4 3v2l1 1 1-2v-2l-1-2-3-2-1-1-7-8-2-4h-5z"/><path d="M102 274h-5l-4-5v-5l3-11v-34l-2-12c0-4 4-8 8-8m0 6c-1 0-3 0-3 3l3 13v33l-3 12c0 2 1 4 3 4" fill="none" stroke="#110f06" stroke-width=".7" transform="matrix(-.34853 .29623 .22838 .27433 195 149)"/><path d="m220 252 1 1-1 2 4 3 5 5-2 2-5-6-3-3c-1-1-1-3 1-4z"/><path d="M107 306v-23l2-12c0-4-4-7-8-7m0 5c1 0 3 1 3 3l-3 13v22" fill="none" stroke="#110f06" stroke-width=".7" transform="matrix(-.34314 .28868 .22485 .26734 195 152)"/><path d="m234 269 1 2v1l4 3 5 5-2 2-5-6-4-3c-1-1 0-3 1-4z"/><path d="M107 306v-23l2-12c0-4-4-7-8-7m0 5c1 0 3 1 3 3l-3 13v22" fill="none" stroke="#110f06" stroke-width=".7" transform="matrix(-.34314 .28868 .22485 .26734 209 169)"/><path d="m242 306-3 4a21 21 0 0 1-2 4h-2l-1 1 2 1h2l1-1 2-3 3-4-2-2z"/><path d="M102 274h5l3-5v-5l-3-11v-16m-5 0v16l3 13c0 2-1 4-3 4" fill="none" stroke="#110f06" stroke-width=".7" transform="matrix(.32177 .30557 -.21828 .22968 261 221)"/><g stroke="#110f06" stroke-width="2"><path d="m237 313-2 1h-1l-2 4-7 7a20 20 0 0 0-4 2v2l-1 1-1-2v-2l1-1 3-2h1l7-8 1-3c2-1 3-1 5 1z" stroke="none"/><path d="M352 553c1 4 0 8-1 12-2 4-6 6-9 7-4 2-7 1-11 0l-21-6h-67c-8 2-17 5-25 5-8-1-15-8-14-17m11 0c0 1 1 6 6 7l26-7h64l26 7c4-1 6-3 6-8" stroke-width="1.4" transform="matrix(-.11053 .1163 -.14296 -.13576 338 364)"/></g><path d="m251 298-1 1h-2l-2 4-7 7a20 20 0 0 0-4 2v2l-1 1-1-2v-2l1-1 3-2h1l7-7 2-4c1-1 3-1 4 1z"/><path d="M102 274h-5l-4-5v-5l3-11v-34l-2-12c0-4 4-8 8-8m0 6c-1 0-3 0-3 3l3 13v33l-3 12c0 2 1 4 3 4" fill="none" stroke="#110f06" stroke-width=".7" transform="matrix(.32177 .30557 -.21828 .22968 261 221)"/><path d="m236 313-1 1 1 1-4 3-5 4 2 2 5-5 3-2c1-1 1-3-1-4z"/><path d="M107 306v-23l2-12c0-4-4-7-8-7m0 5c1 0 3 1 3 3l-3 13v22" fill="none" stroke="#110f06" stroke-width=".7" transform="matrix(.32177 .30557 -.21828 .22968 261 221)"/><g stroke="#110f06"><path d="m214 336-4 4a20 20 0 0 1-2 4h-2l-1 1 2 2 2-1 1-1 2-3 4-4-2-2z" stroke="none"/><path d="m418-396-1-11c-3-4-6-6-10-7-3-2-7-1-10 0l-22 6h-30m0 12h32l25-7c4 0 7 3 7 7" fill="none" stroke-width="1.4" transform="matrix(-.12705 .12299 -.16433 -.14357 193 237)"/></g><path d="m222 327-1 2 1 1-4 2-5 5 2 2 5-6 3-2c1-1 1-2-1-4z"/><path d="M107 306v-23l2-12c0-4-4-7-8-7m0 5c1 0 3 1 3 3l-3 13v22" fill="none" stroke="#110f06" stroke-width=".7" transform="matrix(.32177 .30557 -.21828 .22968 247 236)"/><g stroke="#110f06"><path d="m228 321-3 4a20 20 0 0 1-2 4h-2l-1 1 2 1h2l1-1 1-4 4-3-2-2z" stroke="none"/><path d="m418-396-1-11c-3-4-6-6-10-7-3-2-7-1-10 0l-22 6h-30m0 12h32l25-7c4 0 7 3 7 7" fill="none" stroke-width="1.4" transform="matrix(-.11053 .1163 -.14296 -.13576 210 228)"/></g><path d="m270 306 3 4a21 21 0 0 0 2 4h2l1 1-2 1h-2l-1-1-2-3-3-4 2-2z"/><path d="M102 274h5l3-5v-5l-3-11v-16m-5 0v16l3 13c0 2-1 4-3 4" fill="none" stroke="#110f06" stroke-width=".7" transform="matrix(-.32177 .30557 .21828 .22968 251 221)"/><g stroke="#110f06" stroke-width="2"><path d="m275 313 2 1h1l2 4 7 7a20 20 0 0 1 4 2v2l1 1 1-2v-2l-1-1-3-2h-1l-7-8-1-3c-2-1-3-1-5 1z" stroke="none"/><path d="M352 553c1 4 0 8-1 12-2 4-6 6-9 7-4 2-7 1-11 0l-21-6h-67c-8 2-17 5-25 5-8-1-15-8-14-17m11 0c0 1 1 6 6 7l26-7h64l26 7c4-1 6-3 6-8" fill="none" stroke-width="1.4" transform="matrix(.11053 .1163 .14296 -.13576 174 364)"/></g><path d="m261 298 1 1h2l2 4 7 7a20 20 0 0 1 4 2v2l1 1 1-2v-2l-1-1-3-2h-1l-7-7-2-4c-1-1-3-1-4 1z"/><path d="M102 274h-5l-4-5v-5l3-11v-34l-2-12c0-4 4-8 8-8m0 6c-1 0-3 0-3 3l3 13v33l-3 12c0 2 1 4 3 4" fill="none" stroke="#110f06" stroke-width=".7" transform="matrix(-.32177 .30557 .21828 .22968 251 221)"/><path d="m276 313 1 1-1 1 4 3 5 4-2 2-5-5-3-2c-1-1-1-3 1-4z"/><path d="M107 306v-23l2-12c0-4-4-7-8-7m0 5c1 0 3 1 3 3l-3 13v22" fill="none" stroke="#110f06" stroke-width=".7" transform="matrix(-.32177 .30557 .21828 .22968 251 221)"/><g stroke="#110f06"><path d="m298 336 4 4a21 21 0 0 0 2 4h2l1 1-2 2h-2l-1-2-2-3-4-4 2-2z" stroke="none"/><path d="m418-396-1-11c-3-4-6-6-10-7-3-2-7-1-10 0l-22 6-31 1m1 11h32l25-7c4 0 7 3 7 7" fill="none" stroke-width="1.4" transform="matrix(.12324 .12595 .1594 -.14703 319 234)"/></g><path d="m290 327 1 2-1 1 4 2 5 5-2 2-5-6-3-2c-1-1-1-2 1-4z"/><path d="M107 306v-23l2-12c0-4-4-7-8-7m0 5c1 0 3 1 3 3l-3 13v22" fill="none" stroke="#110f06" stroke-width=".7" transform="matrix(-.32177 .30557 .21828 .22968 265 236)"/><g stroke="#110f06"><path d="m284 321 3 4a20 20 0 0 0 2 4h2l1 1-2 1h-2l-1-1-1-4-4-3 2-2z" stroke="none"/><path d="m418-396-1-11c-3-4-6-6-10-7-3-2-7-1-10 0l-22 6h-30m0 12h32l25-7c4 0 7 3 7 7" fill="none" stroke-width="1.4" transform="matrix(.11053 .1163 .14296 -.13576 302 228)"/><g stroke-width="2"><path d="M204 554h11c0 1 1 6 6 7l26-7h64l26 7c4-1 6-3 7-7h8c1 3 0 7-1 11-2 4-6 6-9 7-4 2-7 1-11 0l-21-6h-67c-8 2-17 5-25 5-8-1-15-8-14-17z" transform="matrix(0 .19643 -.19362 0 420 196)"/><path d="M352 554c1 3 0 7-1 11-2 4-6 6-9 7-4 2-7 1-11 0l-21-6h-67c-8 2-17 5-25 5-8-1-15-8-14-17m11 0c0 1 1 6 6 7l26-7h64l26 7c4-1 6-3 7-7" stroke-width="1.4" transform="matrix(0 .19643 -.19362 0 420 196)"/></g><path d="M312 261v2l1 1-1 5v8h3v-8l1-5c0-2-2-3-4-3z" stroke="none"/><path d="M353-408h-45l-24-6c-8 0-15 8-15 18m11 0c0-3 1-7 6-7l26 7h42" fill="none" stroke-width="1.4" transform="matrix(0 .19148 -.1937 0 236 210)"/><path d="M312 251v6a29 29 0 0 1 2 5l-2 1v2h2l2-2v-2l-1-4v-6h-3z" stroke="none"/><path d="m418-396-2-11c-2-4-5-6-9-7-4-2-7-1-10 0l-22 6h-31m1 12h32l25-7c4 0 7 3 7 7" fill="none" stroke-width="1.4" transform="matrix(0 .19643 -.19362 0 236 183)"/><g stroke-width="2"><path d="M312 298v2l1 1-1 4v10a21 21 0 0 1 2 5l-2 1v1h2l2-1v-2l-2-4v-11l2-4-4-2z" stroke="none"/><path d="M352 554c1 3 0 7-1 11-2 4-6 6-9 7-4 2-7 1-11 0l-21-6h-67c-8 2-17 5-25 5-8-1-15-8-14-17m11 0c0 1 1 6 6 7l26-7h64l26 7c4-1 6-3 7-7" stroke-width="1.5" transform="matrix(0 .16464 .19427 0 205 264)"/></g></g><path d="M312 319v2l-1 1 1 4v6h-2v-7l-1-4c0-1 1-2 3-2z"/><path d="m398 464-1-22-2-13c0-4 4-7 8-7m0 5c-1 0-3 1-3 3l3 14v21" fill="none" stroke="#110f06" stroke-width=".7" transform="matrix(.43746 0 0 .31772 136 185)"/><g stroke="#110f06"><path d="M312 310v6a21 21 0 0 0-1 4l1 1v1h-2l-1-1v-2l1-4v-5h2z" stroke="none"/><path d="m418-396-1-11c-3-4-6-6-10-7-3-2-7-1-10 0l-22 6h-30m0 12h32l25-7c4 0 7 3 7 7" fill="none" stroke-width="1.5" transform="matrix(0 .16464 .19427 0 389 254)"/><path d="M312 276v5a25 25 0 0 1 2 5l-2 1v2h2l2-2v-2l-2-4 1-5h-3z" stroke="none"/><path d="M418-396c1-4 0-7-1-11-2-4-6-6-9-8-4-1-7 0-11 1l-21 6h-31m0 12h32l26-7c4 0 6 2 6 7" fill="none" stroke-width="1.4" transform="matrix(0 .1829 -.1939 0 235 213)"/><path d="M312 331v5a19 19 0 0 0-1 4l1 1v1h-2l-1-1v-2l1-3v-5h2z" stroke="none"/><path d="m418-396-1-11c-3-4-6-6-10-7-3-2-7-1-10 0l-22 6h-30m0 12h32l25-7c4 0 7 3 7 7" fill="none" stroke-width="1.5" transform="matrix(0 .15544 .19449 0 389 278)"/><g stroke-width="2"><path d="M285 232h-2l-1 2-4-2h-11a22 22 0 0 1-4 2l-1-2h-1v2l1 2h2l4-1h11l4 1 2-4z" stroke="none"/><path d="m353 554-1 11c-2 4-6 6-9 8h-11l-21-7h-68l-24 6c-8-2-15-9-14-18m10 0c0 2 2 7 6 7l26-7h65c8 4 16 6 25 7 4 0 7-2 7-7" fill="none" stroke-width="1.5" transform="matrix(-.16398 0 0 .18414 319 130)"/></g><path d="M293 232h-5a21 21 0 0 0-4-1l-1 1h-1v-2l1-1h2l3 1h5v2z" stroke="none"/><path d="M416-388c1-4 0-8-1-12-2-4-5-5-9-7h-11l-21 7h-31m0 11h32l26-7c4 1 6 3 6 8" fill="none" stroke-width="1.5" transform="matrix(-.16034 0 0 .18423 348 304)"/></g><path d="M305 232h-1l-1-1-5 1h-6v-2h7l4-1 2 3z"/><path d="M352 186h21l11-2c4 0 7 3 7 7m-5 0c0-1 0-3-2-3l-13 3h-19" fill="none" stroke="#110f06" stroke-width=".7" transform="matrix(.34553 0 0 .45094 170 146)"/><g stroke="#110f06"><path d="M285 232h-2l-1-1-4 1h-7v-2h8l4-1 2 3z" stroke="none"/><path d="M353-407h-45c-8-2-16-5-24-5-8-1-15 8-15 17m11 0c0-3 1-6 6-7l27 7h41" fill="none" stroke-width="1.5" transform="matrix(-.16398 0 0 .18414 329 305)"/></g><path d="M226 232h2l1 1 5-1h11a23 23 0 0 0 4 1l1-1h2l-1 2-1 1h-2l-4-1h-11l-4 1c-1 0-3-1-3-3z"/><path d="M240 190v4c-1 2-3 3-5 3h-4l-10-2h-31l-11 2c-4 0-7-3-7-7m5 0c0 1 1 3 3 3l12-3h29l12 3c2 0 3-1 3-3" fill="none" stroke="#110f06" stroke-width=".7" transform="matrix(.36732 0 0 .45043 163 146)"/><path d="M218 232h5a23 23 0 0 1 4-1l1 1h2v-2l-2-1h-2l-3 1h-6l1 2z"/><path d="M181 191v-5c-1-2-3-2-5-3h-5l-10 3h-14m0 4h15l12-2c2 0 3 1 3 3" fill="none" stroke="#110f06" stroke-width=".7" transform="matrix(.36732 0 0 .45043 163 146)"/><g stroke="#110f06"><path d="M226 232h2l1-1 5 1h7v-2h-8l-4-1c-1 0-3 1-3 3z" stroke="none"/><path d="M353-408h-45c-8-2-16-5-24-5s-15 8-15 17m11 0c0-3 1-6 6-7l26 7h42" fill="none" stroke="#000" stroke-width="1.5" transform="matrix(.17045 0 0 .18402 181 305)"/></g><path d="M205 232h2l1-1 4 1h7v-2h-7l-5-1c-1 0-2 1-2 3z" fill-rule="nonzero"/><path d="M151 186h-20l-11-3c-3 0-6 4-6 8m5 0c0-2 0-3 2-3l12 2 19 1" fill="none" stroke="#000" stroke-width=".7" transform="matrix(.36732 0 0 .45043 163 146)"/><g stroke="#110f06" stroke-width="2"><path d="M286 359h-2l-1 2-5 1-11 4a26 26 0 0 1-3 3h-4l1 2 3 1 1-1 3-3h2l10-5h4c2-1 2-3 2-4z" stroke="none"/><path d="M352 553c1 4 0 8-1 12-2 4-6 6-9 7-4 2-7 1-11 0l-21-6h-67c-8 2-17 5-25 5-8-1-15-8-14-17m11 0c0 1 1 6 6 7l26-7h64l26 7c4-1 6-3 6-8" fill="none" stroke-width="1.4" transform="matrix(-.16944 .07238 .07339 .17246 279 248)"/></g><g stroke="#110f06" stroke-width="2"><path d="m226 358 2 1 1 2h5l11 5a26 26 0 0 0 3 3l2-1 2 1-1 2-3 1-1-1-3-3h-2l-10-5-4-1c-2 0-2-2-2-4z" stroke="none"/><path d="M352 553c1 4 0 8-1 12-2 4-6 6-9 7-4 2-7 1-11 0l-21-6h-67c-8 2-17 5-25 5-8-1-15-8-14-17m11 0c0 1 1 6 6 7l26-7h64l26 7c4-1 6-3 6-8" fill="none" stroke-width="1.4" transform="matrix(.16944 .07238 -.07339 .17246 233 248)"/></g><path d="M256 362a8 8 0 1 0 0 16 8 8 0 0 0 0-16zm0 2c3 0 6 3 6 6a6 6 0 0 1-12 0c0-3 3-6 6-6z" fill-rule="nonzero" stroke="#000" stroke-linejoin="round" stroke-width=".3"/><g stroke="#110f06"><g stroke-width="2"><path d="M263 293h1l1 2 4-2h11a20 20 0 0 0 4 2l1-2h1v3l-1 1h-2l-4-1h-10l-4 1-2-4z" stroke="none"/><path d="M352 553c1 4 0 8-1 12-2 4-6 6-9 7-4 2-7 1-11 0l-21-6h-67c-8 2-17 5-25 5-8-1-15-8-14-17m11 0c0 1 1 6 6 7l26-7h64l25 7c4-1 7-3 7-7" fill="none" stroke-width="1.5" transform="matrix(.15863 0 0 .19493 230 186)"/></g><g stroke-width="2"><path d="M256 300v2l1 1-1 4v11a21 21 0 0 1 1 4l-1 1v1h2l2-1v-2l-2-4v-11l1-4c0-1-1-2-3-2z" stroke="none"/><path d="M352 554c1 3 0 7-1 11-2 4-6 6-9 7-4 2-7 1-11 0l-21-6h-67c-8 2-17 5-25 5-8-1-15-8-14-17m11 0c0 1 1 6 6 7l26-7h64l26 7c4-1 6-3 7-7" stroke-width="1.5" transform="matrix(0 .16283 .19674 0 147 267)"/></g><path d="M256 274v6a26 26 0 0 1 1 4l-1 2v1h2l2-2v-2l-2-4v-5h-2z" stroke="none"/><path d="m418-396-1-11c-3-4-6-6-10-7-3-2-7-1-10 0l-22 6h-30m0 12h32l25-7c4 0 7 3 7 7" fill="none" stroke-width="1.4" transform="matrix(0 .1849 -.19614 0 178 210)"/><path d="M252 329c-10 0-20 6-20 19 1 25 39 26 40 0-1-12-11-19-20-19zm-1 4c8 0 16 5 16 15 0 21-30 20-31 0 1-10 8-15 15-15z" stroke-width=".5" transform="matrix(.5515 0 0 .56336 117 98)"/><path d="m269 279-3 5a23 23 0 0 1-2 4h-2l-1 1 2 1h2l1-1 2-4 3-4-2-2z" stroke="none"/><path d="m418-396-1-11c-3-4-6-6-10-7-3-2-7-1-10 0l-22 6h-30m0 12h32l25-7c4 0 7 3 7 7" fill="none" stroke-width="1.4" transform="matrix(-.11405 .13537 -.15271 -.12826 248 182)"/><path d="m243 279 3 5a23 23 0 0 0 2 4h2l1 1-2 1h-2l-1-1-2-4-3-4 2-2z" stroke="none"/><path d="m418-396-1-11c-3-4-6-6-10-7-3-2-7-1-10 0l-22 6h-30m0 12h32l25-7c4 0 7 3 7 7" fill="none" stroke-width="1.4" transform="matrix(.11385 .13537 .15245 -.12826 264 182)"/></g><path d="m261 298 2 1-1 2 4 2 5 4-2 2-5-5-4-2 1-4z"/><g fill="none"><path d="M107 242v-23l2-12c0-5-3-8-8-8m0 6c2 0 3 0 4 2l-3 14v21" stroke="#110f06" stroke-width=".7" transform="matrix(-.32177 .30557 .21828 .22968 251 221)"/><path d="m269 309-5-5-4-2 1-4m2 1-1 2 4 2 5 5"/></g><g stroke="#110f06"><path d="M256 260v2l1 1-1 5v7h2v-8l1-5c0-1-1-2-3-2z" stroke="none"/><path d="M353-408h-45c-8-2-16-5-24-5s-15 8-15 17m11 1c0-3 1-7 6-7l26 6h42" fill="none" stroke-width="1.4" transform="matrix(0 .1849 -.19614 0 178 210)"/><path d="M256 250v6a25 25 0 0 1 1 5l-1 1v1h2l2-1v-2l-2-4v-6h-2z" stroke="none"/><path d="m418-396-1-11c-3-4-6-6-10-7-3-2-7-1-10 0l-22 6h-30m0 12h32l25-7c4 0 7 3 7 7" fill="none" stroke-width="1.4" transform="matrix(0 .1826 -.19618 0 178 187)"/><g stroke-width="2"><path d="M256 236v2l-1 1 1 5v12a25 25 0 0 0-1 5l1 1v1h-2l-2-1v-2l2-4v-13l-1-4c0-1 1-3 3-3z" stroke="none"/><path d="M352 554c1 3 0 7-1 11-2 4-6 6-9 7-4 2-7 1-11 0l-21-6h-67c-8 2-17 5-25 5-8-1-15-8-14-17m11 0c0 1 1 6 6 7l26-7h64l26 7c4-1 6-3 7-7" fill="none" stroke-width="1.4" transform="matrix(0 .1826 -.19618 0 365 199)"/></g><g stroke-width="2"><path d="M256 260v2l-1 1 1 5v12a26 26 0 0 0-1 4l1 2v1h-2l-2-2v-2l2-4v-12l-1-5c0-1 1-2 3-2z" stroke="none"/><path d="M352 553c1 4 0 8-1 12-2 4-6 6-9 7-4 2-7 1-11 0l-21-6h-67c-8 2-17 5-25 5-8-1-15-8-14-17m11 0c0 1 1 6 6 7l26-7h64l26 7c4-1 6-3 6-8" fill="none" stroke-width="1.4" transform="matrix(0 .1849 -.19614 0 365 222)"/></g><path d="M256 353v6a21 21 0 0 0-1 4l1 1v1h-2l-2-1v-2l2-4v-5h2z" stroke="none"/><path d="m418-396-1-11c-3-4-6-6-10-7-3-2-7-1-10 0l-22 6h-30m0 12h32l25-7c4 0 7 3 7 7" fill="none" stroke-width="1.5" transform="matrix(0 .16283 .19674 0 334 297)"/><g stroke-width="2"><path d="M256 321v2l1 1-1 4v10a21 21 0 0 1 1 5l-1 1v1h2l2-2v-1l-2-4v-11l1-4c0-1-1-2-3-2z" stroke="none"/><path d="M352 553c1 4 0 8-1 12-2 4-6 6-9 7-4 2-7 1-11 0l-21-6h-67c-8 2-17 5-25 5-8-1-15-8-14-17m11 0c0 1 1 6 6 7l26-7h64l26 7c4-1 6-3 6-8" fill="none" stroke-width="1.5" transform="matrix(0 .16283 .19674 0 147 288)"/></g><path d="M256 321v2l-1 1 1 4v7h-2v-8l-1-4c0-1 1-2 3-2z" stroke="none"/><path d="M353-408h-45c-8-2-16-5-24-5s-15 8-15 17m11 1c0-3 1-7 6-7l26 6h42" fill="none" stroke-width="1.5" transform="matrix(0 .16283 .19674 0 334 277)"/><path d="M256 312v6a21 21 0 0 0-1 4l1 1v1h-2l-2-1v-2l2-4v-5h2z" stroke="none"/><path d="m418-396-1-11c-3-4-6-6-10-7-3-2-7-1-10 0l-22 6h-30m0 12h32l25-7c4 0 7 3 7 7" fill="none" stroke-width="1.5" transform="matrix(0 .16283 .19674 0 334 256)"/><path d="M256 333v5a21 21 0 0 0-1 5l1 1v1h-2l-2-2v-1l2-4v-5h2z" stroke="none"/><path d="m418-396-1-11c-3-4-6-6-10-7-3-2-7-1-10 0l-22 6h-30m0 12h32l25-7c4 0 7 3 7 7" fill="none" stroke-width="1.5" transform="matrix(0 .16283 .19674 0 334 277)"/><path d="M256 342v1l-1 1 1 4v7h-2v-7l-1-4c0-1 1-2 3-2z" stroke="none"/><path d="M353-408h-45c-8-2-16-5-24-5s-15 8-15 17m11 1c0-3 1-7 6-7l26 6h42" fill="none" stroke-width="1.5" transform="matrix(0 .1557 .19698 0 334 300)"/><path d="M256 300v2l-1 1 1 4v7h-2v-8l-1-4c0-1 1-2 3-2z" stroke="none"/><path d="M353-408h-45c-8-2-16-5-24-5s-15 8-15 17m11 1c0-3 1-7 6-7l26 6h42" fill="none" stroke-width="1.5" transform="matrix(0 .16283 .19674 0 334 256)"/></g><g fill="#008f4c" stroke="#000" stroke-width=".9"><path d="m313 283 9 11v21l-11 11-20-1-12-11v-21l11-10h23zm-18 10-5-11m16 11 7-10m-2 16 10-5m-11 16 11 5m-16 1 6 9m-15-10-5 10m-1-16-10 5m11-16-11-5" transform="matrix(.27554 0 0 .29437 173 204)"/><path d="m307 293 4 6-1 11-4 6-10-1c-5-4 0-1-5-6v-11l5-5h11z" stroke-width=".7" transform="matrix(.36078 0 0 .38544 147 177)"/></g><g stroke="#110f06"><path d="M295 293h5a19 19 0 0 1 4-1l1 1h1v-2l-1-1h-2l-3 1h-5v2z" stroke="none"/><path d="m418-396-1-11c-3-4-6-6-10-7-3-2-7-1-10 0l-22 6h-30m0 12h32l25-7c4 0 7 3 7 7" fill="none" stroke-width="1.5" transform="matrix(.15584 0 0 .19502 241 371)"/><path d="M283 293h2l1-1 4 1h6v-2h-7l-4-1-2 3z" stroke="none"/><path d="M353-408h-45c-8-2-16-5-24-5s-15 8-15 17m11 1c0-3 1-7 6-7l26 6h42" fill="none" stroke-width="1.5" transform="matrix(.15863 0 0 .19493 240 371)"/><path d="M263 294h1l1-2 5 2h6v-3h-7l-4-1-2 4z" stroke="none"/><path d="M353-408h-45c-8-2-16-5-24-5s-15 8-15 17m11 1c0-3 1-7 6-7l26 6h42" fill="none" stroke-width="1.5" transform="matrix(.15863 0 0 .19493 220 371)"/><path d="M275 294h5a20 20 0 0 1 4-2l1 2h1v-3l-1-1h-2l-3 1h-5v3z" stroke="none"/><path d="m418-396-1-11c-3-4-6-6-10-7-3-2-7-1-10 0l-22 6h-30m0 12h32l25-7c4 0 7 3 7 7" fill="none" stroke-width="1.5" transform="matrix(.15863 0 0 .19493 220 371)"/><path d="M250 293h-2l-1-1-4 1h-7v-2h7l4-1c2 0 3 1 3 3z" stroke="none"/><path d="M353-408h-45c-8-2-16-5-24-5s-15 8-15 17m11 1c0-3 1-7 6-7l26 6h42" fill="none" stroke-width="1.5" transform="matrix(-.15967 0 0 .19478 293 370)"/><path d="M217 293h-5a21 21 0 0 0-4-1l-1 1h-2v-2l2-1h2l3 1h5v2z" stroke="none"/><path d="m418-396-1-11c-3-4-6-6-10-7-3-2-7-1-10 0l-22 6h-30m0 12h32l25-7c4 0 7 3 7 7" fill="none" stroke-width="1.5" transform="matrix(-.16283 0 0 .19468 273 370)"/><path d="M229 293h-2l-1-1-4 1h-6v-2h7l4-1c1 0 2 1 2 3z" stroke="none"/><path d="M353-408h-45c-8-2-16-5-24-5s-15 8-15 17m11 1c0-3 1-7 6-7l26 6h42" fill="none" stroke-width="1.5" transform="matrix(-.15967 0 0 .19478 272 370)"/><path d="M237 293h-5a20 20 0 0 0-4-1l-1 1h-1v-2l1-1h2l4 1h5l-1 2z" stroke="none"/><path d="m418-396-1-11c-3-4-6-6-10-7-3-2-7-1-10 0l-22 6h-30m0 12h32l25-7c4 0 7 3 7 7" fill="none" stroke-width="1.5" transform="matrix(-.15967 0 0 .19478 293 370)"/></g><path d="M311 285a8 8 0 1 0 0 17 8 8 0 0 0 0-17zm0 2c4 0 6 3 6 6a6 6 0 0 1-12 0c0-3 3-6 6-6z" fill-rule="nonzero" stroke="#000" stroke-linejoin="round" stroke-width=".3"/><g stroke="#110f06"><path d="M312 298v2l-1 1 1 4v7h-2v-8l-1-4c0-1 1-2 3-2z" stroke="none"/><path d="M353-408h-45c-8-2-16-5-24-5s-15 8-15 17m11 1c0-3 1-7 6-7l26 6h42" fill="none" stroke-width="1.5" transform="matrix(0 .16464 .19427 0 389 254)"/><g stroke-width="2"><path d="M312 261v2l-1 1 1 5v12a27 27 0 0 0-1 5l1 1v2h-2l-1-2v-2l1-4v-13l-1-4c0-2 2-3 3-3z" stroke="none"/><path d="m353 553-1 12c-3 4-6 6-10 7-3 2-7 1-10 0l-22-6h-67c-8 2-16 5-24 5-8-1-15-8-15-17m11 0c0 1 1 6 6 7l26-7h65l25 7c4-1 7-3 7-8" fill="none" stroke-width="1.4" transform="matrix(0 .1879 -.1939 0 420 223)"/><path d="M283 293h2l1 2 4-2h10a19 19 0 0 0 4 2l1-2h1v2l-1 2h-2l-3-1h-11l-4 1-2-4z" stroke="none"/><path d="M352 553c1 4 0 8-1 12-2 4-6 6-9 7-4 2-7 1-11 0l-21-6h-67c-8 2-17 5-25 5-8-1-15-8-14-17m11 0c0 1 1 6 6 7l26-7h64l26 7c4-1 6-3 6-8" fill="none" stroke-width="1.5" transform="matrix(.15723 0 0 .19502 251 185)"/></g></g><path d="M310 224a8 8 0 1 0 0 17 8 8 0 0 0 0-17zm0 2c3 0 6 3 6 6a6 6 0 0 1-12 0c0-3 2-6 6-6z" fill-rule="nonzero" stroke="#000" stroke-linejoin="round" stroke-width=".3"/><g stroke="#110f06"><path d="M312 236v2l2 1-2 5v8h3v-8l1-5c0-2-2-3-4-3z" stroke="none"/><path d="M353-408h-45c-8-2-16-5-24-5s-15 8-15 17m11 1c0-3 1-7 6-7l26 6h42" fill="none" stroke-width="1.4" transform="matrix(0 .19643 -.19362 0 236 183)"/></g><path d="m307 235-2 2-1-1-2 5-7 8a23 23 0 0 0-4 3v2l-1 1-1-2v-2l1-1 3-2 1-1 6-8 2-4h5z"/><path d="M102 274h-5l-4-5v-5l3-11v-34l-2-12c0-4 4-8 8-8m0 6c-1 0-3 0-3 3l3 13v33l-3 12c0 2 1 4 3 4" fill="none" stroke="#110f06" stroke-width=".7" transform="matrix(.33221 .28326 -.2177 .26232 316 154)"/><g stroke="#110f06" stroke-width="2"><path d="M305 232h-1l-1 2-5-2h-10a21 21 0 0 1-4 2l-1-2h-1v2l1 2h2l3-2h11l4 1c1 0 2-1 2-3z" stroke="none"/><path d="M352 553c1 4 0 8-1 11-2 5-6 6-9 8h-11l-21-7h-67c-8 3-17 5-25 6-8-2-15-9-14-18m11 0c0 2 1 7 6 7l26-6h64c8 3 17 5 26 6 4 0 6-2 7-7" fill="none" stroke="#000" stroke-width="1.5" transform="matrix(-.16034 0 0 .18423 338 130)"/></g><path d="M201 285a8 8 0 1 0 0 17 8 8 0 0 0 0-17zm0 2c3 0 6 3 6 6a6 6 0 0 1-13 0c0-3 3-6 7-6z" fill-rule="nonzero" stroke="#000" stroke-linejoin="round" stroke-width=".3"/><g stroke="#110f06" stroke-width="2"><path d="M229 293h-2l-1 1-4-1h-10a20 20 0 0 1-4 1l-1-1h-2v2l2 2h2l3-2h11l4 2 2-4z" stroke="none"/><path d="M352 553c1 4 0 8-1 12-2 4-6 6-9 7-4 2-7 1-11 0l-21-6h-67c-8 2-17 5-25 5-8-1-15-8-14-17m11 0c0 1 1 6 6 7l26-7h64l26 7c4-1 6-3 6-8" fill="none" stroke-width="1.5" transform="matrix(-.16125 0 0 .19468 262 185)"/></g><path d="m308 349-2 1-2-1-4 3-7 3-1-2 8-3 4-3 4 2z"/><g fill="none"><path d="M107 242v-23l2-12c0-5-3-8-8-8m0 6c2 0 3 0 4 2l-3 14v21" stroke="#110f06" stroke-width=".7" transform="matrix(-.16867 -.39025 -.3417 .14371 393 360)"/><path d="m292 353 8-3 4-3 4 2m-2 1-2-1-4 3-7 3"/></g><path d="m204 349 2 1 2-1 4 3 7 3 1-2-8-3-4-3c-1-1-3 0-4 2z"/><g fill="none"><path d="M107 242v-23l2-12c0-5-3-8-8-8m0 6c2 0 3 0 4 2l-3 14v21" stroke="#110f06" stroke-width=".7" transform="matrix(.16886 -.4018 .34209 .14797 119 360)"/><path d="m220 353-8-3-4-3c-1-1-3 0-4 2m2 1 2-1 4 3 7 3"/></g><path d="M311 339a8 8 0 1 0 0 16 8 8 0 0 0 0-16zm0 2c4 0 7 3 7 6a6 6 0 0 1-13 0c0-3 3-6 6-6zm-110-2a8 8 0 1 0 0 16 8 8 0 0 0 0-16zm0 2c3 0 6 3 6 6a6 6 0 0 1-13 0c0-3 3-6 7-6z" stroke-width=".3" fill-rule="nonzero" stroke="#000" stroke-linejoin="round"/><g stroke="#110f06" stroke-width="2"><path d="M312 319v2l2 1-2 4v10a20 20 0 0 1 2 4l-2 1v1h2l2-1v-2l-1-3v-11l1-4-4-2z" stroke="none"/><path d="M352 553c1 4 0 8-1 12-2 4-6 6-9 7-4 2-7 1-11 0l-21-6h-67c-8 2-17 5-25 5-8-1-15-8-14-17m11 0c0 1 1 6 6 7l26-7h64l26 7c4-1 6-3 7-8" fill="none" stroke="#000" stroke-width="1.5" transform="matrix(0 .15871 .19449 0 205 287)"/></g><path d="M201 224a8 8 0 1 0 0 17 8 8 0 0 0 0-17zm0 2c3 0 6 3 6 6a6 6 0 0 1-13 0c0-3 3-6 7-6z" fill-rule="nonzero" stroke="#000" stroke-linejoin="round" stroke-width=".3"/><path d="M205 232h2l1 1 4-1h11a23 23 0 0 0 4 1l1-1h2v2l-2 2-2-1-3-1h-11l-5 1c-1 0-2-1-2-3z"/><path d="M181 190v5l-4 3h-5l-10-3h-30l-11 2c-4 0-7-3-7-7m5 0c0 1 1 3 3 3l12-3h29l11 3c2 0 3-1 3-3" fill="none" stroke="#110f06" stroke-width=".7" transform="matrix(.36732 0 0 .45043 163 146)"/><path d="m204 234 2 2-1 1 5 3 4 6-2 1-5-6-4-2c-1-2 0-4 1-5z"/><g fill="none"><path d="M107 242v-23l2-12c0-5-3-8-8-8m0 6c2 0 3 0 4 2l-3 14v21" stroke="#110f06" stroke-width=".7" transform="matrix(-.35861 .29807 .235 .27603 194 149)"/><path d="m213 247-6-6-4-2c-1-2 0-4 1-5m2 2-1 1 5 3 5 6"/></g><path d="M256 224a8 8 0 1 0 0 17 8 8 0 0 0 0-17zm0 2c3 0 6 3 6 6a6 6 0 0 1-12 0c0-3 3-6 6-6z" fill-rule="nonzero" stroke="#000" stroke-linejoin="round" stroke-width=".3"/><g stroke="#110f06"><path d="M256 236v2l1 1-1 5v8h2v-9l1-4c0-1-1-3-3-3z" stroke="none"/><path d="M353-408h-45c-8-2-16-5-24-5s-15 8-15 17m11 1c0-3 1-7 6-7l26 6h42" fill="none" stroke-width="1.4" transform="matrix(0 .1826 -.19618 0 178 187)"/></g><path d="M239 232h6a22 22 0 0 1 4-1l1 1h1v-2l-1-1h-2l-4 1h-5v2zm-22 123 6 2a27 27 0 0 1 5 1v1l2 1 1-2-1-2-2-1h-5l-5-3-1 3z"/><path d="M102 274h5l3-5v-5l-3-11v-16m-5 0v16l3 13c0 2-1 4-3 4" fill="none" stroke="#110f06" stroke-width=".7" transform="matrix(.16518 -.38817 .33462 .14295 121 360)"/><g stroke="#110f06"><path d="m239 364 6 2 4 1 1 2h2v-2l-1-2-2-1h-4l-5-2-1 2z" stroke="none"/><path d="m418-396-1-11c-3-4-6-6-10-7-3-2-7-1-10 0l-22 6h-30m0 12h32l25-7c4 0 7 3 7 7" fill="none" stroke-width="1.4" transform="matrix(.16944 .07238 -.07339 .17246 152 407)"/></g><path d="m205 349 1 1 1 1 5 1 11 5a27 27 0 0 0 4 3l1-1 2 1-1 2h-2l-2-1-3-2-1-1-11-4-4-1c-1-1-2-3-1-4z"/><path d="M102 274h-5l-4-5v-5l3-11v-34l-2-12c0-4 4-8 8-8m0 6c-1 0-3 0-3 3l3 13v33l-3 12c0 2 1 4 3 4" fill="none" stroke="#110f06" stroke-width=".7" transform="matrix(.16736 -.39809 .33905 .1466 120 360)"/><path d="m226 358 2 1 2-1 4 4 7 2v-2l-7-3-4-3-4 2z"/><path d="M107 306v-23l2-12c0-4-4-7-8-7m0 5c1 0 3 1 3 3l-3 13v22" fill="none" stroke="#110f06" stroke-width=".7" transform="matrix(.16518 -.38817 .33462 .14295 121 360)"/><path d="m295 355-6 2a28 28 0 0 0-5 1v2h-2l-1-2 1-2 2-1h5l5-2 1 2z"/><path d="M102 274h5l3-5v-5l-3-11v-16m-5 0v16l3 13c0 2-1 4-3 4" fill="none" stroke="#110f06" stroke-width=".7" transform="matrix(-.16867 -.39025 -.3417 .14371 393 360)"/><g stroke="#110f06"><path d="m273 364-6 2-4 1-1 2h-2v-2l1-2h2l4-1 5-2 1 2z" stroke="none"/><path d="m418-396-1-11c-3-4-6-6-10-7-3-2-7-1-10 0l-22 6h-30m0 12h32l25-7c4 0 7 3 7 7" fill="none" stroke-width="1.4" transform="matrix(-.16944 .07238 .07339 .17246 360 407)"/></g><path d="m308 349-2 1-1 2h-5l-11 5a27 27 0 0 1-4 3l-1-1-2 1 1 2h4l3-3h1l11-5 5-1c1 0 2-2 1-4z"/><path d="M102 274h-5l-4-5v-5l3-11v-34l-2-12c0-4 4-8 8-8m0 6c-1 0-3 0-3 3l3 13v33l-3 12c0 2 1 4 3 4" fill="none" stroke="#110f06" stroke-width=".7" transform="matrix(-.16867 -.39025 -.3417 .14371 393 360)"/><path d="M286 359h-4l-4 3-7 3v-2l7-4 4-2c1-1 3 0 4 2z"/><path d="M107 306v-23l2-12c0-4-4-7-8-7m0 5c1 0 3 1 3 3l-3 13v22" fill="none" stroke="#110f06" stroke-width=".7" transform="matrix(-.16518 -.38817 -.33462 .14295 391 360)"/><path d="m251 298-2 1 1 2-4 2-5 4 2 2 5-5 4-2-1-4z"/><g fill="none"><path d="M107 242v-23l2-12c0-5-3-8-8-8m0 6c2 0 3 0 4 2l-3 14v21" stroke="#110f06" stroke-width=".7" transform="matrix(.32177 .30557 -.21828 .22968 261 221)"/><path d="m243 309 5-5 4-2-1-4m-2 1 1 2-4 2-5 5"/></g><path d="M200 275v6a28 28 0 0 1 2 5l-2 1v2h3l1-2v-2l-1-4v-6h-3z"/><path d="m418-396-1-11c-3-4-6-6-10-7-3-2-7-1-10 0l-22 6h-30m0 12h32l25-7c4 0 7 3 7 7" fill="none" stroke="#110f06" stroke-width="1.4" transform="matrix(0 .19407 -.19715 0 122 208)"/><path d="M201 298v2l-2 1 2 3v6h-3v-6l-1-4 4-2z"/><path d="M353-408h-45c-8-2-16-5-24-5s-15 8-15 17m11 1c0-3 1-7 6-7l26 6h42" fill="none" stroke="#110f06" stroke-width="1.6" transform="matrix(0 .14807 .19433 0 278 258)"/><path d="M201 317v2l1 1-1 5v11a23 23 0 0 1 1 4l-1 1v2h2l1-2v-2l-1-3v-12l1-4-3-3z"/><path d="M352 553c1 4 0 8-1 12-2 4-6 6-9 7-4 2-7 1-11 0l-21-6h-67c-8 2-17 5-25 5-8-1-15-8-14-17m11 0c0 1 1 6 6 7l26-7h64l26 7c4-1 6-3 6-8" fill="none" stroke="#110f06" stroke-width="1.5" transform="matrix(0 .1717 .1941 0 93 282)"/><g stroke="#110f06" stroke-width="2"><path d="m223 327-2 2-1-1-3 5-7 7a21 21 0 0 0-4 3v1l-1 2-1-2v-2l1-2 3-1 1-1 7-8 2-3h5z" stroke="none"/><path d="M352 553c1 4 0 8-1 12-2 4-6 6-9 7-4 2-7 1-11 0l-21-6h-67c-8 2-17 5-25 5-8-1-15-8-14-17m11 0c0 1 1 6 6 7l26-7h64l26 7c4-1 6-3 6-8" fill="none" stroke-width="1.4" transform="matrix(-.11724 .12185 -.15164 -.14224 330 381)"/></g><path d="M201 236v2l-2 1 2 5v12a26 26 0 0 0-2 5l2 1v2h-3l-1-2v-2l1-4v-12l-1-5c0-2 2-3 4-3z"/><path d="M102 274h-5l-4-5v-5l3-11v-34l-2-12c0-4 4-8 8-8m0 6c-1 0-3 0-3 3l3 13v33l-3 12c0 2 1 4 3 4" fill="none" stroke="#110f06" stroke-width=".7" transform="matrix(.444 0 0 .37085 156 162)"/><g stroke="#110f06" stroke-width="2"><path d="m289 327 2 2h1l2 4 8 8a21 21 0 0 1 4 2v1l1 2 1-2v-2l-1-2-3-1-1-1-7-8-2-3h-5z" stroke="none"/><path d="M352 553c1 4 0 8-1 12-2 4-6 6-9 7-4 2-7 1-11 0l-21-6h-67c-8 2-17 5-25 5-8-1-15-8-14-17m11 0c0 1 1 6 6 7l26-7h64l26 7c4-1 6-3 6-8" fill="none" stroke-width="1.4" transform="matrix(.11646 .12213 .15063 -.14256 182 381)"/></g><g stroke="#110f06"><path d="M240 190v-4l-4-4-5 1-10 2h-14m0 5h15l11-3c2 0 3 1 3 3" fill="none" stroke-width=".7" transform="matrix(.36732 0 0 .45043 163 146)"/><path d="M273 232h-6a22 22 0 0 0-4-1l-1 1h-1v-2l1-1h2l4 1h5v2z" stroke="none"/><path d="m418-395-1-11c-2-4-6-6-10-8h-10l-22 7h-30m0 12h32c8-3 16-6 25-7 4 0 7 2 7 7" fill="none" stroke-width="1.5" transform="matrix(-.16398 0 0 .18414 329 305)"/></g></g></g></svg>