<svg width="512" height="512" xml:space="preserve" xmlns="http://www.w3.org/2000/svg"><path fill="#0072bc" style="stroke-width:1.13274" d="M0 1.133h254.867v509.735H0z"/><path fill="#fcdd09" style="stroke-width:1.13274" d="M153 0h359v512H153z"/><path fill="#da121a" style="stroke-width:1.13274" d="M182 284h330v56.889H182zM182 398h330v56.889H182zM182 171h330v56.889H182zM182 57h330v56.889H182z"/><path fill="#da121a" d="M133.145 1.133h56.372v509.735h-56.372z"/><path fill="#fcdd09" stroke="#000" stroke-width=".56637" d="M50.66 465.889s-23.092 51.272-33.428 26.693c0 0 2.994 1.16 5.235-1.134 2.01-2.068 1.798-3.999-.571-6.87-2.527-3.08-9.793-1.72-11.236 1.937-3.324 8.407 4.476 19.518 11.636 19.025 18.755-1.276 20.857-21.47 33.339-38.699.752-1.04-4.975-.952-4.975-.952zM51.037 406.813S27.945 355.54 17.61 380.12c0 0 2.998-1.161 5.233 1.14 2.01 2.063 1.799 3.993-.564 6.87-2.535 3.075-9.798 1.72-11.244-1.941-3.318-8.407 4.477-19.513 11.636-19.026 18.755 1.277 20.858 21.472 33.339 38.7.753 1.036-4.973.949-4.973.949z"/><path fill="#fcdd09" stroke="#000" stroke-width=".56637" d="M128.653 418.875c-3.335 6.42-30.478 16.797-30.478 16.797s26.562 10.077 30.147 16.874l.332 9.93c-13.522-18.446-26.921-20.145-37.377-20.71-7.42-.397-6.723 3.95-5.362 5.687 12.127 15.503-3.52 19.9-5.932 32.726-.122.643-1.943-2.179-2.521-5.885-.389-2.446.375-6.051.375-6.051-5.393 9.02-12.244 1.809-16.432 10.758 0 0-.869-1.421-1.306-1.841-1.202-1.141-5.068-.565-5.628-10.752-.021-.354-4.425.813-4.425.813 2.447-8.431 23.873-17.806 18.296-23.269-6.296-6.178-6.789 13.208-16.648 14.525-.564.077 1.468-5.608 1.468-5.608-4.599.256-6.646 5.608-7.183 8.76l-1.078-2.918c-4.465-2.522 1.078-15.154-.952-17.319-1.583-1.687-6.855 5.26-9.15 6.39-2.281 1.117-15.188 1.117-8.868 8.993.503.63-1.29-3.519 1.693-4.066 3.297-.604 3.181 3.275 3.176 3.657-.028 1.62-2.954 5.551-7.547 3.323-.26-.128-8.857-6.393 2.353-15.303 0 0-6.861 4.208-14.087-3.343-1.544-1.614-3.623-3.656-6.12-5.22 2.492-1.573 4.322-3.468 5.86-5.089 7.2-7.567 14.075-3.39 14.075-3.39-11.247-8.866-2.667-15.164-2.406-15.292 4.58-2.247 7.522 1.675 7.556 3.297.012.38.14 4.26-3.164 3.662-2.98-.537-1.206-4.69-1.71-4.055-6.291 7.9 6.622 7.854 8.901 8.962 2.302 1.117 7.601 8.074 9.178 6.382 2.02-2.168-3.567-14.812.886-17.344l1.073-2.925c.543 3.148 2.613 8.501 7.21 8.739 0 0-2.052-5.686-1.49-5.608 9.866 1.283 10.429 20.67 16.704 14.464 5.555-5.486-15.907-14.78-18.384-23.198 0 0 4.41 1.15 4.425.795.527-10.193 4.393-9.628 5.59-10.773.441-.426 1.3-1.848 1.3-1.848 4.22 8.934 11.049 1.7 16.471 10.698 0 0-.775-3.607-.4-6.05.571-3.707 2.374-6.538 2.502-5.895 2.46 12.815 18.119 17.162 6.053 32.704-1.35 1.743-2.036 6.09 5.384 5.663 10.45-.598 23.845-2.343 37.3-20.839z"/><path fill="none" stroke="#000" stroke-width=".56637" d="M44.9 458.71c1.467-12.539 12.017-16.617 11.78-22.745-.244-6.134-10.906-12.543-12.107-23.018m15.016 63.981c-8.326-17.316 18.395-23.086 17.517-40.95-.842-16.969-26.025-24.475-17.678-41.196m38.424 41-92.454.035"/><path fill="#fcdd09" stroke="#000" stroke-width=".56637" d="M89.431 340.053c-2.926-8.118-11.485-10.315-16.337-10.48-5.456-.19-13.97 7.24-19.164 10.48-4.626 2.875-13.03-.901-14.358-4.155-2.965-7.283 1.71-8.682 3.928-8.262 0 0-2.748 5.254 1.831 4.579 2.888-.426 3.59-4.697 3.12-6.416-.94-3.402-5.726-3.026-7.65-2.456-6.226 1.842-5.184 10.542-3.115 13.877 3.076 4.956 10.772 5.72 15.674 5 7.42-1.084 13.516-8.779 17.947-8.59 1.174.05 2.375 4.133 1.223 4.342-7.504 1.372-6.511 6.705-6.511 6.705v.094s-.993 5.288 6.51 6.66c1.153.211-.343 4.386-1.51 4.435-4.436.19-10.24-7.6-17.66-8.683-4.901-.72-12.596.044-15.674 4.999-2.07 3.334-3.11 12.036 3.114 13.877 1.926.57 6.712.946 7.65-2.455.47-1.715-.231-5.99-3.119-6.416-4.58-.676-1.831 4.579-1.831 4.579-2.217.42-6.894-.974-3.928-8.264 1.328-3.253 9.732-7.03 14.358-4.154 5.195 3.243 13.708 10.67 19.164 10.48 4.852-.171 13.41-2.36 16.337-10.48v-9.297h.001z"/><path fill="#fcdd09" stroke="#000" stroke-width=".56637" d="M127.009 334.72c-1.034 5.383-14.445 10.006-14.445 10.006s13.217 6.89 15.11 12.554l-.332 6.516c-4.249-14.658-20.748-15.792-20.748-15.792 3.468 4.956 6.584 11.826-1.843 18.625 0 0 2.468-6.33 1.201-7.86 0 0-1.135 3.965-5.875 7.642-1.977 1.532-7.227 1.278-9.633 2.695l2.053-6.443c-2.479 5.238-9.56 5.944-9.56 5.944-.41-1.787-.2-6.139 1.98-9.485 4.111-6.3 3.114-10.765 3.114-10.765-3.54 7.86-17.417 8.567-20.04 6.583-.354-.268 3.115-3.68 3.115-3.68-1.272.21-4.746-2.268-4.674-2.975.1-.996 2.413-3.186 2.832-3.822 0 0-2.634-2.162-2.733-3.164-.073-.709 3.396-3.18 4.669-2.97 0 0-3.469-3.412-3.114-3.682 2.622-1.981 16.497-1.274 20.044 6.587 0 0 .99-4.463-3.114-10.765-2.186-3.346-2.397-7.698-1.988-9.485 0 0 7.082.709 9.56 5.944l-2.052-6.442c2.406 1.416 7.656 1.156 9.633 2.688 4.747 3.685 5.875 7.649 5.875 7.649 1.268-1.532-1.2-7.86-1.2-7.86 8.426 6.797 5.312 13.661 1.844 18.617 0 0 16.497-1.13 20.746-15.785zM48.933 346.474c-4.53.139-10.777 3.345-16.381 2.5-4.061-.615-11.381-5.427-11.381-5.427s7.37-3.827 11.048-4.674c5.992-1.383 12.038 3.865 16.572 3.966.906.019 1.05 3.609.142 3.635z"/><path fill="#fcdd09" stroke="#000" stroke-width=".56637" d="M49.049 337.314c2.524-.564 2.01 7.225 2.01 7.225 0 1.08.327 6.799-2.01 7.269-2.667-.332-1.96-7.318-1.96-7.318s-.28-7.269 1.96-7.176zM65.973 344.44l46.879.33m-20.68 18.646 6.705-18.783m-.002 0-6.562-18.457M51.037 283.89S27.945 335.17 17.61 310.589c0 0 2.998 1.158 5.233-1.138 2.01-2.063 1.799-3.994-.564-6.87-2.535-3.076-9.798-1.72-11.244 1.94-3.318 8.409 4.477 19.515 11.636 19.028 18.755-1.278 20.858-21.471 33.339-38.699.753-1.04-4.973-.958-4.973-.958zM51.418 224.821S28.32 173.543 17.99 198.124c0 0 2.992-1.158 5.228 1.138 2.01 2.069 1.803 3.994-.564 6.871-2.535 3.076-9.798 1.721-11.244-1.94-3.319-8.408 4.476-19.513 11.636-19.028 18.755 1.28 20.857 21.471 33.339 38.7.753 1.04-4.968.956-4.968.956z"/><path fill="#fcdd09" stroke="#000" stroke-width=".56637" d="M129.028 236.878c-3.335 6.42-30.475 16.798-30.475 16.798s26.556 10.077 30.143 16.874l.332 9.936c-13.522-18.447-26.922-20.15-37.38-20.71-7.42-.398-6.717 3.95-5.361 5.686 12.128 15.5-3.517 19.901-5.93 32.727-.122.643-1.937-2.18-2.524-5.892-.386-2.438.377-6.045.377-6.045-5.395 9.015-12.243 1.803-16.431 10.76 0 0-.865-1.422-1.306-1.843-1.196-1.14-5.068-.565-5.628-10.752-.022-.353-4.42.807-4.42.807 2.441-8.43 23.866-17.798 18.296-23.269-6.301-6.178-6.794 13.208-16.653 14.53-.564.078 1.465-5.607 1.465-5.607-4.597.248-6.639 5.608-7.175 8.755l-1.086-2.914c-4.464-2.522 1.08-15.156-.951-17.324-1.583-1.68-6.855 5.266-9.15 6.39-2.28 1.117-15.186 1.117-8.868 8.997.503.632-1.284-3.517 1.694-4.065 3.296-.607 3.186 3.276 3.175 3.656-.027 1.616-2.954 5.547-7.547 3.318-.261-.122-8.857-6.393 2.351-15.304 0 0-6.86 4.21-14.086-3.334-1.544-1.615-3.623-3.662-6.119-5.22 2.49-1.579 4.32-3.47 5.859-5.09 7.198-7.572 14.075-3.39 14.075-3.39-11.249-8.865-2.667-15.165-2.407-15.293 4.58-2.245 7.524 1.677 7.557 3.293.011.38.14 4.264-3.164 3.668-2.98-.537-1.202-4.69-1.71-4.06-6.29 7.904 6.623 7.854 8.9 8.966 2.302 1.117 7.601 8.074 9.18 6.384 2.018-2.168-3.57-14.817.885-17.35l1.074-2.92c.547 3.143 2.616 8.495 7.209 8.734 0 0-2.053-5.686-1.483-5.608 9.86 1.288 10.425 20.67 16.699 14.47 5.554-5.492-15.907-14.785-18.379-23.203 0 0 4.409 1.15 4.426.795.52-10.194 4.393-9.629 5.588-10.774.437-.42 1.294-1.847 1.294-1.847 4.222 8.934 11.05 1.698 16.472 10.697 0 0-.775-3.606-.398-6.045.57-3.712 2.38-6.537 2.501-5.897 2.46 12.81 18.118 17.159 6.052 32.704-1.35 1.738-2.035 6.084 5.384 5.664 10.457-.598 23.846-2.35 37.302-20.846z"/><path fill="none" stroke="#000" stroke-width=".56637" d="M45.276 276.714c1.466-12.535 12.023-16.611 11.78-22.745-.243-6.134-10.906-12.538-12.105-23.02m15.014 63.988c-8.325-17.318 18.396-23.086 17.517-40.95-.835-16.97-26.025-24.475-17.676-41.196m38.429 41-92.46.034"/><path fill="#fcdd09" stroke="#000" stroke-width=".56637" d="M50.283 103.787s-23.091 51.278-33.427 26.697c0 0 2.992 1.158 5.234-1.138 2.01-2.063 1.798-3.994-.57-6.871-2.533-3.076-9.798-1.721-11.244 1.94-3.319 8.408 4.481 19.513 11.641 19.028 18.755-1.279 20.853-21.471 33.334-38.7.753-1.04-4.968-.956-4.968-.956zM50.66 44.715S27.568-6.563 17.232 18.017c0 0 2.994-1.157 5.235 1.139 2.01 2.063 1.798 3.994-.571 6.871-2.527 3.075-9.793 1.72-11.236-1.94-3.324-8.409 4.476-19.515 11.636-19.028C41.05 6.338 43.153 26.53 55.634 43.758c.753 1.04-4.974.957-4.974.957z"/><path fill="#fcdd09" stroke="#000" stroke-width=".56637" d="M128.27 56.774c-3.33 6.42-30.473 16.798-30.473 16.798s26.556 10.077 30.146 16.874l.334 9.936c-13.528-18.453-26.922-20.15-37.378-20.71-7.425-.398-6.723 3.95-5.36 5.68 12.126 15.504-3.518 19.907-5.937 32.732-.116.638-1.938-2.18-2.523-5.89-.38-2.437.377-6.043.377-6.043-5.39 9.014-12.24 1.802-16.427 10.75 0 0-.869-1.415-1.306-1.84-1.2-1.14-5.068-.565-5.627-10.752-.022-.348-4.425.812-4.425.812 2.445-8.43 23.871-17.798 18.296-23.269-6.297-6.179-6.789 13.208-16.648 14.53-.565.072 1.466-5.614 1.466-5.614-4.598.256-6.645 5.614-7.182 8.762l-1.08-2.92c-4.463-2.516 1.074-15.154-.95-17.317-1.583-1.686-6.856 5.26-9.157 6.39-2.272 1.117-15.185 1.117-8.862 8.992.504.632-1.29-3.517 1.689-4.066 3.301-.603 3.186 3.276 3.18 3.657-.028 1.62-2.954 5.553-7.545 3.326-.266-.128-8.863-6.396 2.35-15.305 0 0-6.866 4.21-14.085-3.34-1.544-1.615-3.624-3.656-6.126-5.221 2.496-1.57 4.321-3.468 5.865-5.087 7.199-7.567 14.07-3.39 14.07-3.39-11.244-8.868-2.666-15.166-2.408-15.294 4.587-2.246 7.53 1.677 7.564 3.298.012.381.14 4.259-3.163 3.662-2.983-.537-1.208-4.684-1.71-4.054-6.292 7.898 6.617 7.854 8.9 8.959 2.302 1.116 7.601 8.074 9.173 6.384 2.024-2.168-3.563-14.812.89-17.35l1.073-2.92c.543 3.147 2.611 8.5 7.21 8.734 0 0-2.052-5.68-1.49-5.603 9.866 1.284 10.43 20.664 16.704 14.463 5.555-5.49-15.906-14.783-18.383-23.202 0 0 4.408 1.15 4.425.795.526-10.193 4.392-9.63 5.588-10.773.443-.42 1.3-1.848 1.3-1.848 4.222 8.934 11.05 1.698 16.472 10.698 0 0-.775-3.607-.398-6.046.57-3.712 2.374-6.537 2.501-5.894 2.464 12.81 18.119 17.156 6.054 32.704-1.35 1.737-2.037 6.09 5.384 5.664 10.45-.598 23.845-2.35 37.3-20.846z"/><path fill="none" stroke="#000" stroke-width=".56637" d="M44.524 96.606c1.46-12.533 12.016-16.615 11.778-22.743-.248-6.134-10.905-12.544-12.11-23.02m15.021 63.984c-8.326-17.311 18.395-23.08 17.517-40.95-.842-16.97-26.03-24.469-17.676-41.19m38.423 41-92.461.033"/><path fill="#fcdd09" stroke="#000" stroke-width=".56637" d="M89.05 159.191c-2.926-8.12-11.485-10.311-16.332-10.482-5.455-.187-13.97 7.242-19.17 10.482-4.62 2.875-13.023-.896-14.352-4.155-2.965-7.283 1.705-8.683 3.923-8.257 0 0-2.745 5.249 1.837 4.575 2.888-.42 3.59-4.696 3.114-6.416-.934-3.4-5.72-3.024-7.646-2.455-6.223 1.842-5.183 10.542-3.114 13.878 3.076 4.955 10.773 5.719 15.675 4.998 7.413-1.085 13.516-8.772 17.946-8.583 1.175.05 2.375 4.126 1.22 4.337-7.504 1.372-6.508 6.703-6.508 6.703v.101s-.996 5.282 6.507 6.654c1.157.21-.337 4.385-1.512 4.436-4.43.187-10.24-7.601-17.653-8.684-4.901-.72-12.6.05-15.675 5.006-2.07 3.333-3.108 12.036 3.114 13.871 1.927.57 6.713.946 7.646-2.45.476-1.72-.226-5.994-3.114-6.42-4.582-.669-1.837 4.58-1.837 4.58-2.22.425-6.89-.974-3.923-8.257 1.33-3.259 9.732-7.036 14.352-4.155 5.2 3.236 13.715 10.67 19.17 10.476 4.847-.173 13.405-2.362 16.332-10.476z"/><path fill="#fcdd09" stroke="#000" stroke-width=".56637" d="M126.633 153.864c-1.041 5.376-14.446 10.004-14.446 10.004s13.217 6.889 15.11 12.55l-.332 6.515c-4.25-14.656-20.752-15.79-20.752-15.79 3.468 4.955 6.59 11.824-1.837 18.621 0 0 2.468-6.323 1.2-7.86 0 0-1.135 3.966-5.876 7.645-1.977 1.538-7.227 1.277-9.633 2.694l2.052-6.443c-2.48 5.239-9.56 5.946-9.56 5.946-.409-1.788-.198-6.14 1.982-9.488 4.104-6.3 3.114-10.762 3.114-10.762-3.54 7.86-17.423 8.566-20.038 6.586-.36-.27 3.114-3.682 3.114-3.682-1.273.216-4.748-2.269-4.675-2.976.1-.996 2.406-3.18 2.832-3.822 0 0-2.638-2.162-2.74-3.165-.065-.709 3.404-3.18 4.676-2.969 0 0-3.469-3.411-3.114-3.684 2.618-1.98 16.497-1.272 20.044 6.588 0 0 .992-4.464-3.12-10.765-2.18-3.345-2.39-7.698-1.98-9.484 0 0 7.082.709 9.56 5.944l-2.052-6.443c2.406 1.416 7.656 1.158 9.63 2.69 4.742 3.682 5.877 7.648 5.877 7.648 1.267-1.532-1.202-7.86-1.202-7.86 8.426 6.798 5.312 13.662 1.843 18.619 0 0 16.498-1.129 20.747-15.786zM48.558 165.612c-4.532.138-10.778 3.345-16.382 2.499-4.061-.614-11.381-5.425-11.381-5.425s7.364-3.82 11.049-4.673c5.99-1.383 12.039 3.87 16.57 3.965.907.017 1.05 3.607.144 3.634z"/><path fill="#fcdd09" stroke="#000" stroke-width=".56637" d="M48.675 156.458c2.522-.57 2.004 7.219 2.004 7.219 0 1.083.332 6.797-2.004 7.267-2.667-.326-1.96-7.312-1.96-7.312s-.287-7.267 1.96-7.174zM65.598 163.58l46.877.327m-20.68 18.646L98.5 163.77m0 0-6.562-18.457M128.05 399.01c-4.604-12.463-21.462-11.119-21.462-11.119s16.787.145 21.035-14.514zM128.05 473.766c-4.604 12.46-21.462 11.115-21.462 11.115s16.787-.143 21.035 14.514z"/><path fill="#fcdd09" stroke="#000" stroke-width=".56637" d="M89.37 485.235s6.905 5.52 11.502 4.458c0 0-5.311 5.171-.918 9.204 0 0 1.35-5.31 7.718-6.302 5.355-.829 7.522-5.243 7.436-7.361v.072c.089-2.118-2.08-6.531-7.436-7.361-6.374-.996-7.718-6.3-7.718-6.3-4.387 4.03.918 9.203.918 9.203-4.597-1.065-11.502 4.39-11.502 4.387zM127.48 290.828c-4.604 12.462-21.456 11.117-21.456 11.117s16.78-.145 21.028 14.514zM128.05 218.332c-4.604-12.463-21.462-11.116-21.462-11.116s16.787.144 21.035-14.508zM128.05 109.024c-4.604 12.463-21.462 11.113-21.462 11.113s16.787-.14 21.035 14.513zM128.05 37.094c-4.604-12.462-21.462-11.116-21.462-11.116s16.787.144 21.035-14.508z"/><path fill="#fcdd09" d="M126.914.283h6.232v511.434h-6.232z"/><path d="M132.863.566v510.868h-5.666V.566h5.666m.566-.566h-6.798V512h6.798V.566z"/><path fill="#fcdd09" stroke="#000" stroke-width=".56637" d="M89.747 387.067s6.906 5.52 11.508 4.458c0 0-5.312 5.171-.92 9.204 0 0 1.345-5.31 7.717-6.302 5.352-.829 7.519-5.243 7.436-7.361v.072c.084-2.118-2.086-6.531-7.436-7.367-6.373-.99-7.717-6.3-7.717-6.3-4.392 4.036.92 9.203.92 9.203-4.602-1.06-11.508 4.393-11.508 4.393zM89.37 302.11s6.905 5.52 11.508 4.46c0 0-5.312 5.17-.924 9.203 0 0 1.35-5.31 7.724-6.302 5.35-.829 7.516-5.243 7.43-7.361v.072c.089-2.118-2.08-6.531-7.43-7.361-6.374-.996-7.724-6.306-7.724-6.306-4.387 4.037.924 9.203.924 9.203-4.603-1.059-11.508 4.393-11.508 4.393zM89.747 207.339s6.906 5.518 11.508 4.457c0 0-5.312 5.171-.92 9.204 0 0 1.345-5.31 7.717-6.3 5.352-.83 7.519-5.244 7.436-7.362v.07c.084-2.117-2.086-6.53-7.436-7.366-6.373-.99-7.717-6.3-7.717-6.3-4.392 4.037.92 9.203.92 9.203-4.602-1.06-11.508 4.394-11.508 4.394zM89.747 120.114s6.906 5.519 11.508 4.457c0 0-5.312 5.172-.92 9.204 0 0 1.345-5.31 7.717-6.3 5.352-.83 7.519-5.244 7.436-7.362v.072c.084-2.118-2.086-6.531-7.436-7.361-6.373-.997-7.717-6.302-7.717-6.302-4.392 4.033.92 9.204.92 9.204-4.602-1.066-11.508 4.388-11.508 4.388zM90.123 25.718s6.906 5.524 11.508 4.463c0 0-5.311 5.166-.918 9.203 0 0 1.345-5.31 7.718-6.3 5.35-.835 7.526-5.243 7.436-7.362v.067c.084-2.118-2.086-6.531-7.436-7.362-6.374-.99-7.718-6.301-7.718-6.301-4.392 4.033.918 9.204.918 9.204-4.604-1.062-11.508 4.388-11.508 4.388z"/><g stroke="#000" stroke-width=".25"><path fill="#fff" stroke-miterlimit="10" d="M168.11 482.736a8.496 8.496 0 0 1-8.497 8.496c-4.692 0-8.498-3.808-8.498-8.496a8.494 8.494 0 0 1 8.498-8.496 8.493 8.493 0 0 1 8.498 8.496zM168.11 369.462a8.496 8.496 0 0 1-8.497 8.495c-4.692 0-8.498-3.807-8.498-8.495a8.498 8.498 0 0 1 8.498-8.496 8.497 8.497 0 0 1 8.498 8.496zM168.11 256.188a8.495 8.495 0 0 1-8.497 8.495c-4.692 0-8.498-3.807-8.498-8.495 0-4.69 3.805-8.494 8.498-8.494a8.493 8.493 0 0 1 8.498 8.494zM168.11 142.914a8.495 8.495 0 0 1-8.497 8.494c-4.692 0-8.498-3.807-8.498-8.494 0-4.69 3.805-8.495 8.498-8.495a8.493 8.493 0 0 1 8.498 8.495zM168.11 29.64a8.492 8.492 0 0 1-8.497 8.494c-4.692 0-8.498-3.802-8.498-8.495 0-4.69 3.805-8.494 8.498-8.494a8.492 8.492 0 0 1 8.498 8.494z" stroke-width=".283185"/><g stroke-miterlimit="10"><path fill="#fcdd09" d="m145.516 86.756 14.067-14.07 14.066 14.07-14.066 14.066z" stroke-width=".283185"/><path fill="#da121a" d="M159.485 99.782h.193l4.25-4.242V91.1h4.442l4.243-4.242v-.2l-4.243-4.242h-4.443v-4.441l-4.249-4.248h-.193l-4.25 4.248v4.441h-4.442l-4.243 4.242v.2l4.243 4.242h4.443v4.441z" stroke-width=".283185"/><path fill="#fcdd09" d="M153.676 75.545c.638.638-.033 2.335-1.493 3.795-1.462 1.454-3.153 2.124-3.79 1.488-.637-.636.038-2.33 1.495-3.79 1.46-1.453 3.151-2.124 3.788-1.493zM165.51 75.545c-.637.638.033 2.335 1.493 3.795 1.462 1.454 3.153 2.124 3.79 1.488.637-.636-.033-2.33-1.493-3.79-1.461-1.453-3.16-2.124-3.79-1.493zM165.51 97.936c-.637-.631.033-2.33 1.493-3.79 1.462-1.46 3.159-2.13 3.79-1.498.637.637-.033 2.333-1.493 3.794-1.461 1.461-3.16 2.128-3.79 1.494zM153.682 97.942c-.637.636-2.334-.034-3.794-1.5-1.457-1.46-2.125-3.158-1.495-3.79.637-.631 2.334.04 3.79 1.5 1.46 1.46 2.13 3.159 1.499 3.79zM155.136 70.723c0-.73 1.638-1.399 3.524-1.581.38-.039.923-.509.923-.509s.549.48.842.509c2.035.15 3.662.817 3.662 1.58 0 .88-2.003 1.588-4.475 1.588-2.466 0-4.476-.708-4.476-1.587zM164.09 102.792c0 .724-1.633 1.399-3.525 1.587-.382.033-.925.503-.925.503s-.547-.481-.836-.503c-2.041-.156-3.667-.824-3.667-1.587 0-.879 2.009-1.587 4.481-1.587 2.468-.001 4.471.708 4.471 1.587zM143.574 91.237c-.73 0-1.401-1.643-1.583-3.529-.039-.38-.503-.923-.503-.923s.481-.542.503-.835c.145-2.04.814-3.667 1.583-3.667.88 0 1.588 2.007 1.588 4.474 0 2.472-.709 4.48-1.588 4.48zM175.651 82.281c.73 0 1.4 1.638 1.588 3.524.039.381.504.924.504.924s-.481.542-.504.834c-.148 2.04-.819 3.668-1.588 3.668-.874 0-1.582-2.001-1.582-4.475.001-2.472.708-4.475 1.582-4.475z" stroke-width=".283185"/></g><g stroke-miterlimit="10"><path fill="#fcdd09" d="M157.067 218.997a2.546 2.546 0 0 0 2.547 2.544 2.552 2.552 0 0 0 2.552-2.544 2.547 2.547 0 0 0-2.552-2.544 2.542 2.542 0 0 0-2.547 2.544zM157.067 179.063a2.546 2.546 0 0 0 2.547 2.544 2.552 2.552 0 0 0 2.552-2.544 2.552 2.552 0 0 0-2.552-2.544 2.547 2.547 0 0 0-2.547 2.544zM169.046 199.084c0 9.27-4.237 16.782-9.466 16.782-5.228 0-9.471-7.511-9.471-16.782 0-9.269 4.243-16.785 9.47-16.785 5.229 0 9.467 7.517 9.467 16.785z" stroke-width=".283185"/><path fill="#078930" d="M167.562 198.925c0-7.922-3.12-14.43-7.12-15.21-.266-.055-.83.996-.83.996s-.532-1.046-.804-.996c-3.994.795-7.109 7.3-7.109 15.21v.16c0 7.922 3.12 14.432 7.12 15.211.273.05.837-.996.837-.996s.531 1.046.802.99c3.995-.79 7.104-7.297 7.104-15.205v-.16z" stroke-width=".283185"/><path fill="#fcdd09" d="M172.026 199.084c0-.702-.57-1.276-1.272-1.276a1.274 1.274 0 0 0 0 2.548 1.269 1.269 0 0 0 1.272-1.272zM149.67 199.084c0-.702-.57-1.276-1.278-1.276a1.274 1.274 0 0 0 0 2.548 1.27 1.27 0 0 0 1.278-1.272zM167.729 213.907a1.272 1.272 0 1 0-2.545 0 1.273 1.273 0 0 0 2.545 0zM153.963 213.907a1.272 1.272 0 1 0-2.545 0 1.272 1.272 0 0 0 2.545 0zM150.544 206.829a2.548 2.548 0 1 0-5.096 0 2.546 2.546 0 0 0 2.552 2.544 2.545 2.545 0 0 0 2.544-2.544zM173.777 206.746a2.545 2.545 0 0 0-2.547-2.544 2.545 2.545 0 0 0-2.546 2.544 2.545 2.545 0 0 0 2.546 2.543 2.545 2.545 0 0 0 2.547-2.543zM151.495 184.153c0 .709.571 1.276 1.28 1.276.702 0 1.271-.57 1.271-1.276a1.276 1.276 0 0 0-2.55 0zM165.26 184.153a1.276 1.276 0 1 0 2.55.002 1.276 1.276 0 0 0-2.55-.002zM168.686 191.231a2.546 2.546 0 1 0 5.092.005 2.546 2.546 0 0 0-5.092-.005zM145.449 191.314a2.546 2.546 0 0 0 2.552 2.544 2.545 2.545 0 0 0 0-5.088 2.546 2.546 0 0 0-2.552 2.544z" stroke-width=".283185"/></g><path fill="#fcdd09" d="M157.067 443.733c0 1.41 1.141 2.55 2.547 2.55a2.553 2.553 0 0 0 2.552-2.55 2.55 2.55 0 0 0-2.552-2.544 2.546 2.546 0 0 0-2.547 2.544zM157.067 403.805a2.546 2.546 0 0 0 2.547 2.544 2.552 2.552 0 0 0 2.552-2.544 2.547 2.547 0 0 0-2.552-2.544 2.543 2.543 0 0 0-2.547 2.544zM169.046 423.823c0 9.27-4.237 16.785-9.466 16.785-5.228 0-9.471-7.516-9.471-16.785 0-9.27 4.243-16.781 9.47-16.781 5.229 0 9.467 7.51 9.467 16.781z" stroke-width=".283185"/><path fill="#078930" d="M167.562 423.661c0-7.914-3.12-14.424-7.12-15.204-.266-.055-.83.996-.83.996s-.532-1.044-.804-.996c-3.994.797-7.109 7.301-7.109 15.204v.168c0 7.915 3.12 14.424 7.12 15.21.267.049.837-.997.837-.997s.531 1.046.802.99c3.99-.79 7.104-7.3 7.104-15.203v-.168z" stroke-width=".283185"/><path fill="#fcdd09" d="M172.026 423.829c0-.703-.57-1.278-1.272-1.278a1.274 1.274 0 0 0 0 2.55 1.272 1.272 0 0 0 1.272-1.272zM149.67 423.829c0-.703-.57-1.278-1.278-1.278a1.274 1.274 0 0 0 0 2.55 1.274 1.274 0 0 0 1.278-1.272zM167.729 438.646a1.273 1.273 0 0 0-2.545 0 1.273 1.273 0 0 0 2.545 0zM153.963 438.646a1.27 1.27 0 1 0-2.545 0 1.272 1.272 0 0 0 2.545 0zM150.544 431.567a2.544 2.544 0 0 0-2.544-2.545 2.546 2.546 0 0 0-2.552 2.545c0 1.41 1.14 2.543 2.552 2.543a2.54 2.54 0 0 0 2.544-2.543zM173.777 431.488a2.546 2.546 0 0 0-5.093 0 2.547 2.547 0 0 0 5.093 0zM151.495 408.895c0 .702.571 1.272 1.28 1.272a1.272 1.272 0 0 0 0-2.546 1.274 1.274 0 0 0-1.28 1.274zM165.26 408.895c0 .702.57 1.272 1.273 1.272.708 0 1.279-.57 1.279-1.272a1.276 1.276 0 0 0-2.551 0zM168.686 415.974a2.546 2.546 0 0 0 5.093 0 2.546 2.546 0 0 0-5.093 0zM145.449 416.056A2.546 2.546 0 0 0 148 418.6a2.543 2.543 0 1 0 0-5.087 2.543 2.543 0 0 0-2.552 2.543zM173.668 312.993l-14.07 14.064-14.066-14.062 14.067-14.065z" stroke-width=".283185"/><path fill="#da121a" stroke-miterlimit="10" d="M159.485 326.143h.2l4.242-4.242v-4.441h4.443l4.243-4.243v-.205l-4.243-4.236h-4.443v-4.442l-4.243-4.248h-.2l-4.243 4.248v4.442h-4.448l-4.243 4.242v.2l4.243 4.242h4.448v4.441z" stroke-width=".283185"/><path fill="#fcdd09" d="M153.67 301.913c.638.636-.032 2.329-1.493 3.788-1.456 1.46-3.153 2.13-3.79 1.494-.636-.631.033-2.33 1.495-3.79 1.46-1.46 3.157-2.129 3.788-1.492zM165.493 301.906c.636-.638 2.33.033 3.79 1.492 1.46 1.46 2.13 3.159 1.499 3.789-.637.636-2.334-.033-3.794-1.494-1.461-1.458-2.132-3.15-1.495-3.787zM165.481 324.3c-.63-.636.04-2.332 1.5-3.795 1.455-1.46 3.153-2.13 3.79-1.491.63.63-.04 2.329-1.5 3.788-1.458 1.46-3.153 2.13-3.79 1.498zM153.699 324.307c-.637.63-2.334-.039-3.796-1.5-1.455-1.46-2.125-3.158-1.493-3.788.637-.637 2.334.033 3.793 1.492 1.457 1.463 2.124 3.16 1.496 3.796zM155.136 297.083c0-.73 1.638-1.4 3.524-1.587.38-.033.923-.503.923-.503s.549.481.842.503c2.035.15 3.662.817 3.662 1.587 0 .874-2.003 1.587-4.475 1.587-2.466 0-4.476-.712-4.476-1.587zM164.09 329.152c0 .724-1.633 1.399-3.525 1.581-.382.039-.925.503-.925.503s-.547-.48-.836-.503c-2.041-.15-3.667-.818-3.667-1.581 0-.88 2.009-1.587 4.481-1.587 2.468 0 4.471.708 4.471 1.587zM143.574 317.593c-.73 0-1.401-1.637-1.583-3.524-.039-.38-.503-.923-.503-.923s.481-.548.503-.835c.145-2.04.814-3.668 1.583-3.668.88 0 1.588 2.008 1.588 4.476 0 2.472-.709 4.474-1.588 4.474zM175.651 308.642c.73 0 1.4 1.634 1.588 3.524.039.38.504.923.504.923s-.481.543-.504.835c-.148 2.04-.819 3.668-1.588 3.668-.874 0-1.582-2.007-1.582-4.474.001-2.472.708-4.476 1.582-4.476z" stroke-width=".283185"/></g></svg>