<svg xmlns="http://www.w3.org/2000/svg" xmlns:xlink="http://www.w3.org/1999/xlink" width="512" height="512" xmlns:v="https://vecta.io/nano"><style><![CDATA[.q{stroke-width:.903}.r{fill:#eac102}.s{fill-rule:evenodd}.t{stroke:#000}.u{fill:none}.v{fill:#e3e4e5}.w{stroke-linejoin:round}.x{stroke-width:.25}.y{stroke-width:.249}.z{stroke-width:.255}.AA{stroke-linecap:round}.AB{stroke-width:.476}.AC{stroke-width:.477}.AD{fill:#ed1c24}.AE{stroke-width:.23}.AF{fill:#008f4c}.AG{stroke-width:1.095}.AH{stroke-width:1.098}.AI{stroke-width:.941}.AJ{stroke-width:.574}.AK{stroke-width:.389}]]></style><defs><linearGradient y2="490.072" y1="490.072" x2="492.393" x1="170.508" id="A" gradientUnits="userSpaceOnUse"><stop offset="0" stop-color="#403800"/><stop offset=".5" stop-color="#c8af00"/><stop offset="1" stop-color="#403900"/></linearGradient><path id="B" d="M298.701 226.299l1.345.708 1.345-1.18-1.614-.708z"/><path id="C" d="M299.776 222.759l1.614.944v2.124l-1.614-.708zm-8.607 3.776v15.341l2.69-1.888v-14.161z"/><path id="D" d="M292.245 226.299l-1.345.708-1.345-1.18 1.614-.708z"/><path id="E" d="M287.672 234.324l1.076.708m-7.531-.708l-1.345.708"/><path id="F" d="M298.701 237.156l1.076.708m-1.076-2.832l1.076.708m-1.076-2.832l1.076.708m-1.076-2.832l1.076.708m-1.076-2.832l1.076.708m-7.531 7.788l-1.076.708m1.076-2.832l-1.076.708m1.076-2.832l-1.076.708m1.076-2.832l-1.076.708m1.076-2.832l-1.076.708"/><path id="G" d="M295.473 234.796v-.472m-3.228-5.664h6.456m-1.883 2.124h1.614m-1.345 2.124h1.345m-6.187 2.124h6.456m-6.456 2.124h6.456m-3.228 3.776v-3.776m-1.076 0v-2.124m2.421 2.124v-2.124m-2.421-6.372v-2.36m2.421 2.36v-2.36m-4.573 4.484h1.614m-1.614 2.124h1.614m1.614-4.012v-.236"/><path id="H" d="M273.976 242.149c-.025-.65.493-1.228 1.245-1.391.917 0 1.661.623 1.661 1.391h-1.661z"/><path id="I" d="m-272 340 3 3 3 1 4 1c1 0 3 5 4 4l1 2 2 2-1 1 1 3-1 1v2l-1 1-1 2-2-1-2 1c1-1-2-2-2-1 1 0 0-2-1-1 0-2-2-2-3-4l-1-1-2-10v-3l-1-2zm-8 14 1 3c1 2 2 2 4 2l2 3c1 1 1 6 3 6l-1 2 1 2-1 1v3h-1l-1 3h-2l-1 1-2-1-1-1s-2-2-2 0c1 0 0-3-1-2 1-2-1-3-1-5v-1c-1-4 0-7 2-10l1-3-1-3zm0-7-4 1-2 3-3 2c-1 2-6 1-6 2h-2l-2 1-1-1-3-1-1-1-2-1v-2l-1-1 1-2 1-1 1-2c0 1 2 1 2-1h6c3-1 7 0 10 2l2 2 3-1zm-2 5-2 3v8c1 1-3 4-2 6-1-1-1 0-2 1l-1 2h-1l-2 1h-2l-2 1-1-1h-2v-3l-1-1c1 0 0-3-1-2 1 1 2-1 1-2 2 0 2-3 3-4l1-1 8-5 3-1 2-2z"/><path id="J" d="m-274 337-2 4 2 3 1 4c1 1-2 5-1 6l-1 2v2l-1 1-2 2h-1l-2 1h-4v-2l-1-1s-1-3-2-2c1 1 2-1 0-2 2-1 1-3 2-4l1-1c1-4 3-6 6-8l3-2 1-3z"/><path id="K" d="M-270 336h-3l-4 2-3 1h-6l-2-1h-2l-1-1-2-1v-2l-2-1v-4l2-1v-1c1 1 3-1 2-1s2 1 2-1c1 2 3 1 5 2h1c3 0 6 3 8 5l2 3h3z"/><path id="L" d="m-264 327-3 3 1 4v3l-3 6-1 1-1 2h-2l-1 2-2-1-2 1-1-1h-2v-2l-1-1c1-1 0-3-1-2l1-2 3-4v-1c2-3 6-5 9-6h3l2-3zm-30 30-4 2-1 4-1 3c-1 2-5 3-5 5h-2c-2 0-1 1-2 2l-1-1-3 1-1-2h-2l-1-1-2-1 1-2v-2c1 1 2-2 0-2 0 1 3 0 2-1l4-2c1 0 2 0 1-1 3-2 7-2 10-1h3l3-1z"/></defs><path d="M0 0h512v171H0z" fill="#087339"/><path d="M0 171h512v170H0z" fill="#fff"/><path d="M0 341h512v171H0z"/><g class="t"><g class="r AE"><path d="M253.084 219.278c-15.63 0-29.882-2.069-39.766-5.057-.919-.23-1.149-.919-1.149-1.609s.46-1.149 1.149-1.379a153.78 153.78 0 0 1 79.761 0c.69.23.919.69.919 1.379.23.69-.23 1.379-.919 1.609-10.114 2.988-24.135 5.057-39.996 5.057"/><path d="M253.084 206.176c-16.09.23-30.342 2.069-40.455 5.287.919-.46-.23-3.908-1.379-6.666-1.149-3.218-2.988-3.678-2.988-3.678 11.033-3.448 27.583-5.746 44.823-5.746s33.789 2.299 45.053 5.517c0 0-2.299.69-3.448 4.137-1.149 2.528-2.069 5.976-1.149 6.436-10.114-3.218-24.595-5.057-40.455-5.287"/><path d="M253.084 196.292c-17.24 0-32.64 2.069-43.903 5.287-.69.23-1.379 0-1.609-.69s0-1.609.919-1.839c11.033-3.448 26.894-5.517 44.593-5.517s33.56 2.069 44.823 5.517c.69.23 1.149 1.149.919 1.839s-1.149.919-1.839.69c-11.033-3.218-26.664-5.287-43.903-5.287"/><path d="M253.084 182.96l1.609.23-.23 2.069c0 3.218 2.528 5.746 5.976 5.746 2.528 0 4.827-1.609 5.517-3.908l.919-2.069.23 2.069c.46 2.988 2.988 5.057 5.976 5.057a5.98 5.98 0 0 0 5.977-6.666l1.839-1.839.919 2.528-.46 2.528c0 2.988 2.528 5.517 5.746 5.517 1.839 0 3.678-.919 4.827-2.528l1.149-1.609v2.069c0 1.839.69 3.448 2.528 3.908 0 0 2.069 0 4.827-2.069 2.988-2.299 4.367-4.137 4.367-4.137l.23 2.299s-2.299 3.678-4.827 5.057c-1.379.919-3.448 1.609-5.057 1.379-1.839-.23-2.988-1.609-3.678-3.448a8.28 8.28 0 0 1-4.367 1.379c-3.448 0-6.436-2.069-7.585-4.827-1.609 1.609-3.908 2.758-6.436 2.758-2.758 0-5.287-1.379-6.666-3.218-1.609 1.379-3.678 2.299-5.976 2.299-2.988 0-5.747-1.609-7.356-3.678-1.45 2.068-3.725 3.407-6.237 3.672s-5.016-.572-6.865-2.292c-1.609 1.839-4.137 3.218-6.896 3.218-2.528 0-4.597-1.149-6.206-2.758-1.379 2.758-4.367 4.827-7.815 4.827a8.28 8.28 0 0 1-4.367-1.379c-.46 1.839-1.839 3.218-3.678 3.448-1.609.23-3.678-.46-5.057-1.379-2.528-1.379-4.827-5.057-4.827-5.057l.23-2.299 4.367 4.137c2.758 2.069 4.827 2.069 4.827 2.069 1.839-.46 2.758-2.069 2.758-3.908v-2.069l1.149 1.609c.919 1.609 2.758 2.528 4.827 2.528a5.52 5.52 0 0 0 4.826-2.579c1.039-1.653 1.127-3.732.231-5.466l.919-2.528 2.069 1.839a5.72 5.72 0 0 0-.23.919c0 2.988 2.758 5.746 5.976 5.746 2.988 0 5.746-2.069 5.976-5.057.23.23 0-2.069.23-2.069l.919 2.069c.69 2.299 2.988 3.908 5.746 3.908 3.218 0 5.976-2.528 5.976-5.746l-.23-2.069 1.379-.23"/></g><g class="AE"><path d="M210.789 190.086c0-1.46 1.183-2.643 2.643-2.643s2.643 1.183 2.643 2.643-1.183 2.643-2.643 2.643-2.643-1.183-2.643-2.643m26.204-5.057c0-1.46 1.183-2.643 2.643-2.643s2.643 1.183 2.643 2.643-1.183 2.643-2.643 2.643-2.643-1.183-2.643-2.643m53.328 5.057a2.53 2.53 0 0 1 2.528-2.528 2.53 2.53 0 0 1 2.528 2.528 2.53 2.53 0 0 1-2.528 2.528 2.53 2.53 0 0 1-2.528-2.528m-25.974-5.057c0-1.46 1.183-2.643 2.643-2.643s2.643 1.183 2.643 2.643-1.183 2.643-2.643 2.643-2.643-1.183-2.643-2.643" class="v"/><path d="M253.084 161.583l-1.839 1.379c-1.149.69-1.609 2.528-1.609 2.528l-1.609-.23-1.609.23s-.23.69.23 1.609l.69 1.839-.919.46-.69.69 1.839 1.149 1.379.23c.46.23.69 1.149.69 1.149h-.919c-.69-.23-.46-.69-1.609-1.149-.919-.46-2.988 0-2.988 0s.23 1.149 1.149 1.839c.69.919 1.609.69 1.609.69l.23.919s-.919.23-1.379-.23c-.69-.46-.919-1.149-1.839-1.149-1.149.23-1.149 1.149-1.839 2.069l-1.609 1.379 1.609 1.609c.919.919 1.149 1.379 1.839 1.379s1.839-1.149 1.839-1.149h.69l-.23.919-1.379.919c-.69.69-.46 2.988-.46 2.988s2.069.23 2.758-.69c.919-.69.919-1.839.919-1.839l.919-.46v1.149s-.919.69-1.149 1.609c-.46 1.149-.23 1.379-.23 2.069l-.46 1.839s2.988-.69 4.137-1.379c3.218-2.758.69-2.528 3.678 0 1.149.69 4.137 1.379 4.137 1.379l-.46-1.839v-2.069c-.23-.919-1.379-1.609-1.379-1.609l.23-1.149.919.46s-.23 1.149.69 1.839c.69.919 2.988.69 2.988.69s.23-2.299-.69-2.988l-1.149-.919-.23-.919h.69s.919 1.149 1.609 1.149c.919 0 1.149-.46 1.839-1.379l1.609-1.609-1.609-1.379c-.46-.919-.46-1.839-1.609-2.069-1.149 0-1.379.69-1.839 1.149-.69.46-1.609.23-1.609.23l.23-.919s.919.23 1.839-.69c.69-.69.919-1.839.919-1.839s-2.069-.46-2.988 0-.919.919-1.379 1.149h-1.149s.23-.919.69-1.149l1.379-.23 2.069-1.149-.69-.69-.919-.46.69-1.839.23-1.609-1.609-.23-1.609.23s-.69-1.839-1.609-2.528l-2.069-1.379z" class="r s"/><path d="M251.705 181.121l-.46 1.379-.919 1.379m-.23-5.287c-1.149.23-2.069.69-2.988 1.379m2.758-2.988c-1.149-.23-2.528-.46-4.137-.23m4.367-1.839l-1.149-.919-.919-.46m5.057-1.609v-4.597m-1.149 5.057l-.69-1.149c-.46-.919-1.149-1.379-1.149-1.379m4.367 11.263l.46 1.379.919 1.379m.23-5.287c1.149.23 2.069.69 2.988 1.379m-2.758-2.988c1.149-.23 2.528-.46 4.137-.23m-4.367-1.839l1.149-.919.919-.46m-3.908-1.149l.69-1.149c.46-.919 1.149-1.379 1.149-1.379" class="u AA"/><path d="M250.095 176.984c0-2.758 1.379-4.827 2.988-4.827 1.839 0 3.218 2.069 3.218 4.827s-1.379 4.827-3.218 4.827c-1.609 0-2.988-2.069-2.988-4.827" class="r"/><path d="M251.015 176.984c0-2.069.919-3.678 2.069-3.678s2.299 1.609 2.299 3.678-1.149 3.678-2.299 3.678-2.069-1.609-2.069-3.678" class="v"/><path d="M285.264 164.801l-2.069.919c-1.149.46-2.069 2.069-2.069 2.069l-1.609-.46-1.609-.23v1.839l.23 1.839-.919.23-.919.69 1.609 1.379 1.149.69c.69.23.69 1.149.69 1.149l-1.149-.23c-.46-.23-.23-.69-1.149-1.379-.69-.69-2.758-.69-2.758-.69s0 1.149.46 2.069c.69.919 1.609.919 1.609.919v.919s-.919.23-1.379-.23c-.46-.69-.46-1.379-1.609-1.609s-1.379.919-2.069 1.609l-1.839.919 1.149 1.839c.69 1.149.69 1.609 1.609 1.839.69.23 1.839-.69 1.839-.69h.69l-.46 1.149-1.379.46c-.919.46-1.379 2.758-1.379 2.758s2.069.69 2.988 0c1.149-.69 1.149-1.839 1.149-1.839h1.149l-.23 1.149s-1.149.46-1.609 1.379l-.46 1.839-.919 1.609s2.988 0 4.367-.46c3.448-1.839 1.149-2.299 3.448.69.919 1.149 3.678 2.299 3.678 2.299v-1.839c.23-.69.46-.919.23-1.839 0-1.149-.69-2.069-.69-2.069l.23-.919.69.46s-.23 1.149.46 2.069c.46.919 2.528 1.379 2.528 1.379s.919-2.299.23-3.218l-1.149-1.149v-.919h.69s.69 1.379 1.379 1.609c.919.23 1.149-.23 2.069-1.149l1.839-1.149-1.149-1.609c-.46-.919-.23-2.069-1.149-2.299-1.149-.23-1.379.46-2.069.69s-1.609-.23-1.609-.23l.46-.69s.919.23 1.839-.23c.919-.69 1.379-1.839 1.379-1.839s-1.839-.919-2.988-.46c-.919.23-.919.69-1.609.69l-.919-.23s.46-.919.919-.919h1.379l2.069-.69-.46-.919-.69-.46.919-1.609.69-1.609-1.609-.69h-1.609s-.23-1.839-.919-2.758l-1.609-1.839z" class="r s"/><path d="M279.747 183.88l-.69 1.149-1.379.919m.919-5.057a7.08 7.08 0 0 0-2.988.69m3.218-2.299c-.919-.69-2.299-.919-3.908-1.149m4.597-.919l-.919-.919-.69-.919m5.057-.23l.919-4.597m-2.069 4.597l-.46-1.149c-.23-.919-.919-1.609-.919-1.609m1.839 11.953l.23 1.379.69 1.379m1.379-4.827c.919.23 1.609.919 2.299 1.839m-1.839-3.678a8.77 8.77 0 0 1 3.908.919m-3.678-2.758l1.149-.69c.69 0 1.149-.46 1.149-.46m-3.448-1.609l.69-1.149c.69-.69 1.609-.919 1.609-.919" class="u AA"/><path d="M279.058 179.282c.46-2.528 2.299-4.367 3.908-4.137 1.609.46 2.528 2.758 2.069 5.517-.69 2.528-2.528 4.367-4.137 4.137-1.609-.46-2.528-2.758-1.839-5.517" class="r"/><path d="M279.977 179.512c.46-1.839 1.609-3.218 2.758-2.988s1.609 1.839 1.379 3.908c-.46 1.839-1.839 3.448-2.988 2.988-1.149-.23-1.609-1.839-1.149-3.908" class="v"/><path d="M221.133 164.801l2.069.919c1.149.46 2.069 2.069 2.069 2.069l1.379-.46 1.609-.23.23 1.839-.23 1.839.919.23.69.69s-.919 1.149-1.609 1.379l-1.149.69c-.46.23-.46 1.149-.46 1.149l.919-.23 1.149-1.379c.919-.69 2.988-.69 2.988-.69s0 1.149-.69 2.069c-.46.919-1.379.919-1.379.919l-.23.919s1.149.23 1.609-.23c.46-.69.46-1.379 1.379-1.609 1.149-.23 1.379.919 2.069 1.609l1.839.919-1.149 1.839c-.69 1.149-.69 1.609-1.379 1.839s-1.839-.69-1.839-.69h-.69l.23 1.149 1.379.46c1.149.46 1.379 2.758 1.379 2.758s-2.069.69-2.988 0-1.149-1.839-1.149-1.839h-.919l.23 1.149s.919.46 1.379 1.379l.69 1.839c0 .69.69 1.609.69 1.609s-2.988 0-4.137-.46c-3.678-1.839-1.149-2.299-3.678.69-.919 1.149-3.678 2.299-3.678 2.299l.23-1.839-.46-1.839c0-1.149.919-2.069.919-2.069l-.46-.919-.69.46s.23 1.149-.23 2.069c-.69.919-2.758 1.379-2.758 1.379s-.69-2.299 0-3.218l.919-1.149v-.919h-.69s-.69 1.379-1.379 1.609-1.149-.23-2.069-1.149l-1.839-1.149 1.149-1.609c.46-.919.23-2.069 1.379-2.299.919-.23 1.379.46 2.069.69.46.23 1.379-.23 1.379-.23l-.46-.69s-.919.23-1.839-.23c-.919-.69-1.379-1.839-1.379-1.839s2.069-.919 2.988-.46l1.609.69.919-.23s-.23-.919-.919-.919h-1.379l-2.069-.69.46-.919.919-.46-1.149-1.609-.46-1.609 1.379-.69h1.609s.23-1.839.919-2.758l1.839-1.839z" class="r s"/><path d="M226.42 183.88l.919 1.149 1.149.919m-.919-5.057c1.149 0 2.069.23 2.988.69m-3.218-2.299c1.149-.69 2.299-.919 3.908-1.149m-4.597-.919l.919-.919c.69-.23.919-.919.919-.919m-5.057-.23l-1.149-4.597m2.069 4.597l.46-1.149.919-1.609m-1.839 11.953l-.23 1.379-.69 1.379m-1.149-4.827c-1.149.23-1.839.919-2.528 1.839m1.839-3.678c-1.149 0-2.299.23-3.908.919m3.908-2.758l-1.379-.69c-.69 0-1.149-.46-1.149-.46m3.678-1.609l-.919-1.149c-.69-.69-1.609-.919-1.609-.919" class="u AA"/><path d="M227.339 179.282c-.69-2.528-2.528-4.367-4.137-4.137-1.609.46-2.528 2.758-1.839 5.517.46 2.528 2.299 4.367 3.908 4.137 1.609-.46 2.528-2.758 2.069-5.517" class="r"/><path d="M226.42 179.512c-.46-1.839-1.839-3.218-2.988-2.988s-1.609 1.839-1.149 3.908c.46 1.839 1.609 3.448 2.758 2.988 1.149-.23 1.609-1.839 1.379-3.908" class="v"/><path d="M202.744 194.683c.919.46 1.149.69 2.299.69 1.379 0 3.908-.919 3.908-.919l-.919-1.149-1.149-1.839c-.46-.69-1.609-.919-1.609-.919l-.46-.919.919-.23s.46.919 1.379 1.379c1.149.46 2.758-.919 2.758-.919s-.919-2.069-1.839-2.299l-1.379-.23-.69-.69.69-.46s1.149.69 1.839.23.46-.919.69-2.069l.69-2.299s-1.149 0-1.839-.46-1.379-1.379-2.299-.919-.69 1.379-.919 2.069-1.149.69-1.149.69l-.23-.919s.919-.23 1.149-1.379v-2.069s-1.379 0-2.069.919c-.46.919-.23 1.149-.69 1.379-.23.46-.69.46-.69.46v-1.149l.69-.919 1.379-2.299h-2.299l-.46-1.379-.919-1.839-1.839 1.149-1.609 1.609c-.919-.23-2.299-.69-3.678 0-1.149.69-1.609.919-2.299 2.528 2.299 0 4.597 1.609 6.206 3.908l.919.919.46 1.379 1.379 2.758.919 2.528c.122.395.275.779.46 1.149l.919 1.379 1.379 1.149z" class="r s"/><path d="M201.365 191.235l1.149 1.149 1.379.69m-1.839-4.597c.919-.46 1.839-.23 2.988 0m-3.678-1.839c.919-.69 2.069-1.149 3.678-1.609m-4.597 0l.69-1.379c.46-.23.46-.919.46-.919m-3.678.69v-1.379l.69-1.839" class="u AA"/><path d="M200.676 192.384c1.379-.69 1.839-3.218.69-5.517-.919-2.528-3.218-3.908-4.597-3.448l-.23.23.23.919a33.33 33.33 0 0 0 .919 4.137l.919 1.609 1.379 1.379.69.69z" class="r"/><path d="M197.458 188.477c-.919-1.839-1.379-3.448-.23-3.908.919-.46 2.528.69 3.218 2.528.919 1.839.69 3.678-.23 4.137-1.149.46-2.069-.919-2.758-2.758" class="v"/><path d="M303.423 194.683c-.919.46-1.149.69-2.299.69-1.379 0-3.908-.919-3.908-.919l1.149-1.149c.23-.69.23-1.149.919-1.839s1.609-.919 1.609-.919l.46-.919-.69-.23s-.46.919-1.609 1.379c-.919.46-2.528-.919-2.528-.919s.69-2.069 1.839-2.299l1.379-.23.46-.69-.46-.46s-1.379.69-2.069.23c-.46-.46-.46-.919-.69-2.069l-.46-2.299s.919 0 1.609-.46c.919-.46 1.379-1.379 2.299-.919s.69 1.379 1.149 2.069c.23.69 1.149.69 1.149.69v-.919s-.69-.23-.919-1.379c-.46-.919 0-2.069 0-2.069s1.379 0 1.839.919.23 1.149.69 1.379l.919.46s.23-.919-.23-1.149l-.69-.919-1.149-2.299h2.299c0-.23-.23-.23.23-1.379l.919-1.839 1.839 1.149 1.609 1.609c.919-.23 2.299-.69 3.678 0s1.609.919 2.528 2.528c-2.299 0-4.827 1.609-6.436 3.908l-.69.919-.69 1.379-1.149 2.758-1.149 2.528c-.122.395-.275.779-.46 1.149l-.69 1.379-1.609 1.149z" class="r s"/><path d="M304.802 191.235l-.919 1.149-1.379.69m1.839-4.597c-1.149-.46-2.069-.23-2.988 0m3.448-1.839c-.919-.69-2.069-1.149-3.448-1.609m4.597 0l-.69-1.379-.69-.919m3.908.69v-1.379l-.69-1.839" class="u AA"/><path d="M305.492 192.384c-1.379-.69-1.609-3.218-.69-5.517 1.149-2.528 3.218-3.908 4.827-3.448v1.149a33.33 33.33 0 0 1-1.149 4.137l-.919 1.609-1.149 1.379-.919.69z" class="r"/><path d="M308.94 188.477c.69-1.839 1.149-3.448 0-3.908-.919-.46-2.528.69-3.218 2.528-.919 1.839-.69 3.678.46 4.137.919.46 1.839-.919 2.758-2.758" class="v"/></g><path d="M331 362c-62 0-118-7-160-18 42-11 98-18 160-18s118 7 160 18c-42 11-98 18-160 18" transform="matrix(.22986 0 0 .22986 177 134)" fill="url(#A)"/><g class="AE"><path d="M253.084 204.337c-3.678 0-6.666-1.379-6.666-2.988s2.988-3.218 6.666-3.218 6.666 1.379 6.666 3.218c0 1.609-2.988 2.988-6.666 2.988" class="r"/><path d="M253.084 203.418c-2.758 0-4.827-.919-4.827-2.069s2.069-2.299 4.827-2.299 5.057 1.149 5.057 2.299-2.299 2.069-5.057 2.069" class="AD"/><path d="M295.608 203.418l-.46-.23c-3.448-.919-6.666-.46-7.126 1.149s1.839 3.678 5.287 4.827l.69-.69.69-.919c.189-.368.342-.753.46-1.149.237-.668.391-1.363.46-2.069v-.919z" class="r"/><path d="M295.608 204.337l-.69-.23c-2.528-.69-5.057-.46-5.287.69-.46 1.149 1.379 2.758 4.137 3.448h.46l.46-.46a3.91 3.91 0 0 0 .69-.46 2.53 2.53 0 0 0 .23-.69l.23-.69c.017-.23.017-.46 0-.69l-.23-.919z" class="AD"/><path d="M210.56 203.418l.23-.23c3.678-.919 6.896-.46 7.356 1.149s-2.069 3.678-5.517 4.827l-.46-.69-.69-.919c-.189-.368-.342-.753-.46-1.149-.102-.378-.179-.761-.23-1.149l-.23-.919v-.919z" class="r"/><path d="M210.56 204.337l.69-.23c2.528-.69 4.827-.46 5.287.69.23 1.149-1.609 2.758-4.137 3.448h-.46l-.69-.46a3.91 3.91 0 0 1-.46-.46 2.53 2.53 0 0 1-.23-.69 2.99 2.99 0 0 1-.23-.69c-.017-.23-.017-.46 0-.69l.23-.919z" class="AD"/></g><path d="M240.901 201.349c0-.69.69-1.149 1.379-1.149.919 0 1.379.46 1.379 1.149 0 .919-.46 1.379-1.379 1.379-.69 0-1.379-.46-1.379-1.379m-21.147 2.528c0-.69.69-1.379 1.379-1.379s1.379.69 1.379 1.379-.69 1.379-1.379 1.379-1.379-.69-1.379-1.379m42.984-2.528c0-.69.69-1.149 1.379-1.149.919 0 1.379.46 1.379 1.149 0 .919-.46 1.379-1.379 1.379-.69 0-1.379-.46-1.379-1.379m20.917 2.528c0-.69.69-1.379 1.379-1.379.919 0 1.609.69 1.609 1.379s-.69 1.379-1.609 1.379c-.69 0-1.379-.69-1.379-1.379" stroke-width=".276" class="v"/><g class="s"><path transform="matrix(.21454 .0825 -.18727 .1333 177 134)" d="M438 213h35v36h-35z" class="r AG"/><path transform="matrix(.21483 .08175 -.18773 .13264 177 134)" d="M446 222h23v23h-23z" class="AF AH"/><path transform="matrix(-.21454 .0825 .18727 .1333 177 134)" d="M-23 499h35v35h-35z" class="r AG"/><path transform="matrix(-.21483 .08175 .18773 .13264 177 134)" d="M-15 506H8v23h-23z" class="AF AH"/></g></g><g transform="matrix(.22986 0 0 .22986 177 146)"><path d="M385 731c-2-2 5-9 15-16l14-9c13-11 23-22 21-25h-1c2 1 7 16 7 16 2 3-6 13-19 24l-17 12c-8 4-15 12-13 14l-7-16" class="t v AB"/><path d="M88 298v362a250 250 0 1 0 498-36V298H88z" fill="#0071bc" class="s"/><g class="t"><path d="M88 297v363a250 250 0 1 0 498-36V296H88z" stroke-width="3" class="u"/><g class="s"><g stroke-width=".975"><path d="M338 298v272h248V298H338z" class="AD"/><path d="M88 298v272h250V298H88z" class="r"/></g><path d="M175 619h31l1-9 1-6 3-4 3-4v-9l-49-1 1 11 8 7v7z" class="r AC"/></g><g class="r"><path d="M174 792h33V620h-33z" class="x"/><g class="s"><ellipse transform="matrix(.29397 0 0 .2107 164 564)" cx="126.5" cy="148" rx="3.9" ry="3"/><g class="y"><path d="M174 595h1-1 1-1 1-1 1l-1 1-1-1 1-2c2 0 2 2 2 2 0 1-1 2-3 2l-2-3 4-2c3 0 4 2 4 4s-3 4-6 3c-4 0-6-2-6-5 1-4 5-6 10-5h2l6 3h-6 22"/><rect height="1.4" x="170" y="618.5" ry=".6" width="40.8"/><path d="M195 588h22m-54 0h23m32-2v1l-1 1m-1-2v1l-1 1m-51-2v1l1 1m-1 0h22m31 0h-22m22 0v1c-3 0-2 2-2 2l-1 1-1-1c0-1 0-2 2-3z"/><path d="M209 589c4 2 4 5 7 3v-1h-4c0-1 0-2-3-2z"/><path d="M206 595h1-1l1 1 1-1-2-2-2 2 3 2c2 0 3-2 3-3l-5-2c-2 0-3 2-3 4s3 4 6 3c3 0 6-2 5-5 0-4-4-6-9-5h-3l-6 3h6-22"/><path d="M206 595h1-1 1l-1-1-1 1 2 1c1 1 2 0 2-2l-3-2c-2 1-4 2-3 4 0 2 2 3 4 3 3 0 5-3 5-5-1-3-4-5-7-5l-3 1"/><path d="M210 593c-2-2-5-2-8-1l-3 1-2-1 5-2m-3 3 1 1 3-1m-3 1-1 1v-1m0-1-1 1m0-1-1 1"/></g></g></g></g><g class="r s"><circle transform="matrix(.42463 0 0 .30435 126 550)" cx="188.3" cy="147.2" r="1.5"/><g class="t y"><path d="M215 592c2 2 1 7-3 7m1-1-3 2m5-2h-1"/><path d="M210 600c5-3 9 3 2 3 3-1 1-3-1-2z"/><path d="M213 602c1 0 2-1 0-1 1 0 1-1 3 1m-9 16 2-1v-4c0-1 1-2 2-1 2 0 1-1 1-2l-2-1h-3l-1 2c-2-2-1 1-1 1-2-1-2 1-1 2h-1v1l2 1v2h-1"/><path d="m207 611-1 5-2 2m2-2v2m-3-3 1 1-1 2h-2m6-9 1 1 1 2m1-3h1l1 1m-8 0a4 4 0 0 0 0-1l-1 2 2-1v-1c3-1 1-1 1-1l-2 1m-1 4 1-2v-1m2-2v-1l-1 1v-2c2 0 1-1 2-2h-1l1-1-1 1v-1l-2 2"/><path d="M207 609c1-2 0-5 3-7l-1-1-1 2-1-2c0 2-1 1-1 1l-1-1v-1"/><path d="M210 600h-8l-1 2h-1"/><path d="M203 601v1l-1 1m2-1c-3 4-2 9-2 14m-2-14c-2 1-1 3 0 3 2-1 1-2 1-3m1 16c-1 0-2 0-1-1l1-1a3 3 0 0 1 2 0"/><path d="M201 617h2m-4-13v3c2 1 1 2 1 2h-3l1 1"/><path d="m199 606-1 2 1 1m2-1 1 1m-5 0c-2 0-3 0-3 2l-1-1c-1 0-2 0-1-1l1-1m2 2 2 1v5l-2 3m2-3c1 1 0 1-1 2m1 0h2m0 0v-3h1-1l1-2 2-1"/><path d="M200 616l2-2-1-1h-1m-10 5v-8c1-3 2-5 4-5m-1 3c0-2 1-2 3-2l-1 2c-1 0-2 1 0 1m0-2h1m0 1h1c1-3-1-2-2-4m1 6c1 2 2 1 1 0l2 1c1 1 2 0 0-1h1v-1m0 3l2-1m-2-1l2-1m-8 8l-1 1c-1-1 1-1 2-2l-2-1c1 0 2 0 1-1l-1-2-1-1c-1 1 0 2 2 3"/><path d="m193 614-2-1 1 2-1-1 1 3h-1l2 1m-3-10v-4m0-2c1-3 3-2 4-1h-1c2 1 0 2-1 1h-1c1 0 2 2 0 1 0 1 0 1 0 0m3-2c1 1 2 1 0 2v1h1c1-1 2-1 2 1l1-2c-1-1 1-1-2-3h-2m1 4h2m12-3c1 3 3 0 1-1m-15 7h1m-3 2v1m7-8h-1v-1l-1-1h1l1-1v1a1 1 0 0 0 1 0v-1h-3v2-1m-1 0h1l-1-1h-1"/><path d="M198 600v-2h-1l-1-1h-1l-1 1h-1v2h1l1-1v-1"/><path d="M195 599h1l1-1m-2 1v1m-1 0h2l1-1m-4 0h-2 1m1-1h-1m0-1a1 1 0 0 0-1 0s0 1 0 0v1c-1 0 0 0 0 0v1h1v-1h-1m-23 0 3 2m-5-2h1m4 2c-5-3-9 3-3 3-2-1 0-3 2-2z"/><path d="M167 602v-1s-1-1-2 1m9 16-2-1v-4c0-1-1-2-2-1-2 0-2-1-1-2l2-1h3l1 2c2-2 1 1 1 1 2-1 2 1 1 2h1v1l-2 1v2h1"/><path d="m174 611 1 5 2 2m-2-2v2m2-3v1l1 2h1m-5-9-1 1-1 2m-1-3h-1l-1 1m8 0a4 4 0 0 1 0-1c1 1 2 2 0 2l-1-1-1-1c-2-1 0-1 0-1l2 1m1 4-1-2v-1m-2-2v-1l1 1v-2c-2 0-2-1-2-2h1l-1-1 1 1v-1l2 2"/><path d="M174 609c-1-2 0-5-3-7l1-1 1 2 1-2c0 2 0 1 1 1-1-1 0-1 1-1v-1"/><path d="M171 600h7c2 0 2 1 2 2h1"/><path d="M178 601v1l1 1m-2-1c2 4 2 9 2 14m2-14v3c-2-1-1-2-1-3m-1 16s2 0 1-1l-1-1a3 3 0 0 0-2 0m3 1h-2m4-13v2l-1 1-1 2h4l-1 1m-1-4v3m-2-1-1 1m5 0c2 0 3 0 3 2l1-1c1 0 2 0 1-1l-1-1m-2 2-2 1v5l2 3"/><path d="M184 616c-1 1 0 1 1 2m-2 0h-1m0 0v-3h-1 1l-1-2-2-1m2 4l-2-2 1-1h1m9 5v-8c0-3-2-5-3-5m1 3c0-2-2-2-3-2l1 2v1m0-2h-1"/><path d="M185 608h-1c-1-3 1-2 2-4m-2 6c0 2-1 1-1 0l-1 1c-1 1-2 0 0-1h-2v-1m1 3-2-1m2-1-2-1m8 8 1 1c1-1-1-1-2-2l2-1c-1 0-2 0-1-1 0-1-1-2 1-2l1-1c1 1 0 2-2 3"/><path d="m188 614 2-1-1 2 1-1-1 3h1l-2 1m2-10 1-4m-1-2c0-3-2-2-3-1h1c-2 1 0 2 0 1h2l-1 1h1m-3-2c-1 1-2 1 0 2v1h-2c-1-1-2-1-1 1l-1-2c0-1-1-1 1-3h2m0 4h-2m-12-3c-1 3-3 0-1-1m15 7h-1m3 2v1m-7-8h1v-2l-1-1v1a1 1 0 0 1-1 0v-1h3v2-1m1 0h-1l1-1"/><path d="M183 600v-2h1l1-1h1l1 1h1v2h-1l-1-1v-1"/><path d="M186 599h-1l-1-1m2 1v1m0 0h-2v-1m4 0h1 0m-2-1h2m-1-1h2s0 1 0 0v1h0v1h-1v-1m-25-10v1c2 0 2 2 2 2v1l2-1-2-3z"/><path d="M172 589c-4 2-5 5-7 3l-1-1h4c1-1 1-2 4-2zm2 6h1-2l2-1 1 1-2 1c-1 1-2 0-2-2l3-2c2 1 3 2 3 4s-2 3-5 3-4-3-4-5c0-3 3-5 7-5l2 1"/><path d="M171 593c2-3 6-2 11 0l2-1-6-2m4 3-1 1-3-1m3 1v1l1-1h-1m1-1 1 1m0-1 1 1"/></g><circle transform="matrix(-.42463 0 0 .30435 254 550)" cx="188.3" cy="147.2" r="1.5"/></g><g class="t"><g class="r"><g class="s"><g class="y"><path d="M165 592c-2 2 0 7 3 7h1m-2-1 4 2m-5-2h1m17 2h-1l1-1m1 0 1 1m2-6h-1l-1-1v-3h1"/><path d="M186 592h1l1-1h0l-1-1h-1v-1m2 5h1v-2h1-1v-3h-1"/><path d="M188 589v1h-1l-1-1a2 2 0 0 1 0-1h1a2 2 0 0 1-1 0v-1l1-1v1h1c0 1 0 0 0 0s-1 0 0 0v-1 1-1 1h1v1h-1m1-1h1v1h-1m1-1h1v1m0-1c0 1 0 0 0 0h1v1m0-1h1c0-1-1-1 0 0v1-1h1v-1l1 1v1h-1m0 0h1l-1 1h-1v1"/><path d="M194 588h1v1a2 2 0 0 1-1 0m-1 0h-1l-1 1h1l-1 1m2-2v1m-2 0h-2m2 1h1l-1 1 1 1m0-1v2m-2-2h1v2m2 0h1v-1h1v-2l-1-1m0-1v1h-1v2"/><path d="M193 591v1h2m-1 2h1m-16 2h23m0 1h-23m1-3h21m-21 0"/></g><ellipse transform="matrix(.29397 0 0 .2107 151 564)" cx="132.8" cy="148.1" rx="1.4" ry="3.2"/><ellipse transform="matrix(.29397 0 0 .2107 152 564)" cx="132.8" cy="148.1" rx="1.4" ry="3.2"/><ellipse transform="matrix(.29397 0 0 .2107 156 564)" cx="132.8" cy="148.1" rx="1.4" ry="3.2"/><ellipse transform="matrix(.29397 0 0 .2107 160 564)" cx="132.8" cy="148.1" rx="1.4" ry="3.2"/><ellipse transform="matrix(.29397 0 0 .2107 147 564)" cx="132.8" cy="148.1" rx="1.4" ry="3.2"/><ellipse transform="matrix(.29397 0 0 .2107 144 564)" cx="132.8" cy="148.1" rx="1.4" ry="3.2"/><ellipse transform="matrix(.29397 0 0 .2107 151 564)" cx="126.5" cy="148" rx="3.9" ry="3"/><ellipse transform="matrix(.29397 0 0 .2107 156 564)" cx="126.5" cy="148" rx="3.9" ry="3"/><ellipse transform="matrix(.29397 0 0 .2107 160 564)" cx="126.5" cy="148" rx="3.9" ry="3"/><ellipse transform="matrix(.29397 0 0 .2107 144 564)" cx="126.5" cy="148" rx="3.9" ry="3"/><ellipse transform="matrix(.29397 0 0 .2107 147 564)" cx="126.5" cy="148" rx="3.9" ry="3"/><path d="M202 595v1-1z" class="AC"/><path d="M190 589v-1" class="y"/></g><path d="M165 585h51l3 1-3 1h-51l-3-1 3-1z" class="AI"/><path d="M174 793v1c0 3-2 5-5 5h43a5 5 0 0 1-5-6h-33" class="AC"/><g class="x"><path d="M174 793v1c0 3-2 5-5 5h43a5 5 0 0 1-5-6h-33z" class="w"/><path d="M175 790h3V629c0-8-3-8-3 0z" class="s"/></g><path d="M175 790h31l2 1-2 2h-31l-2-2 2-1" class="AC"/><g class="x"><path d="M180 790h5V629c0-8-5-8-5 0zm7 0h7V629c0-8-7-8-7 0zm13 0h-4V629c0-8 4-8 4 0zm5 0h-3V629c0-8 3-8 3 0z" class="s"/><path d="M175 790h31l2 1-2 2h-31l-2-2 2-1z"/></g><path d="M169 811h43v-12h-43z" class="AC"/><path d="M169 811h43v-12h-43z" class="x"/></g><g class="v"><path d="M325 759c-10 0-18 11-18 16 17 10 61 3 62-1-8-6-5-16-16-17-13 12-25 6-28 2z" stroke-width=".379"/><path d="M322 761c1 5 1 8-1 9l-5 1c-4 0-9 1-9 4 0-3 1-7 4-9 3-3 7-5 11-5m-70-58-12 2c-2 2 2 7 8 14l4-16" class="AC"/><path d="M322 768c-1 5 9-15 7-19-1-5-10-2-28-6l-23-7c-24-7-42-28-39-31h1c-2 1-7 19-7 19-3 3 13 23 35 31l30 8c13 3 24 0 24 5z" class="AJ"/><path d="M187 671c-20 3-36 12-35 20l7 17v-1c-1-6 13-14 31-17 21-3 57-1 59 23l7-17c-1-11-14-22-26-24-14-4-29-3-43-1z" class="AK"/><g class="AC"><path d="M167 752c-5 2-7 5-7 7l4 3c3 3 4 7 3 9 3-3 4-6 4-10s-2-7-4-9m7-37c-8-1-14-4-15-8 0-3 2-6 8-9l7 1v16m33-17c5 1 9 2 11 4h1c1 2-4 7-12 12v-16"/><path d="M157 742c-1-3 8-8 19-13l16-7c16-7 28-16 27-20h-1l3 17c1 3-10 12-25 20l-20 8c-8 3-17 9-16 12l-3-17"/></g></g><g class="r"><path d="M467 619h31l1-9 1-6 4-4 3-4v-9l-49-1 1 11 7 7 1 7z" class="s AB"/><path d="M467 792h32V620h-32Z" class="x"/><g class="s"><ellipse transform="matrix(.29383 0 0 .2107 456 564)" cx="126.5" cy="148" rx="3.9" ry="3"/><path d="M467 595h1l-2 1-1-1 2-2 2 2-3 2c-2 0-3-2-3-3l5-2c2 0 4 2 3 4 0 2-2 4-5 3-4 0-7-2-6-5 0-4 5-6 9-5h3l6 3h-6 22" class="y"/><path d="M468 790h3V629c0-8-3-9-3 0z" class="x"/><g class="y"><rect height="1.4" x="462.5" y="618.5" ry=".6" width="40.8"/><path d="M487 588h23m-54 0h23m32-2v1l-1 1m-1-2v1l-1 1m-51-2v1l1 1m-1 0h-1 22m31 0h-22m22 0v1c-2 0-2 2-2 2v1l-1-1 1-3z"/><path d="M502 589c3 2 4 5 6 3l1-1h-4c-1-1-1-2-3-2z"/><path d="M499 595h-1l1 1 1-1-1-2-2 2c0 1 1 2 3 2 1 0 3-2 2-3l-4-2c-2 0-4 2-4 4 1 2 3 4 6 3 4 0 6-2 6-5-1-4-5-6-9-5a12 12 0 0 0-3 0l-6 3h6-22"/><path d="M499 595h-1 2l-1-1-1 1 1 1c2 1 2 0 2-2 0-1-1-2-3-2-2 1-3 2-3 4s3 3 5 3c3 0 5-3 4-5 0-3-3-5-7-5l-2 1"/><path d="M502 593c-2-2-4-2-8-1l-3 1-2-1 6-2m-4 3 1 1 3-1m-3 1v1-1m-1-1v1m0-1-1 1"/></g></g></g></g><g class="r s"><circle transform="matrix(.42442 0 0 .30435 419 550)" cx="188.3" cy="147.2" r="1.5"/><g class="t y"><path d="M508 592c2 2 1 7-3 7m1-1l-4 2m5-2h-1m-3 2c5-3 8 3 2 3 2-1 0-3-2-2z"/><path d="M506 602v-1c1 0 1-1 2 1m-9 16 2-1v-4c1-1 1-2 3-1v-2l-2-1h-2l-2 2c-2-2-1 1-1 1-1-1-2 1 0 2h-2l1 1 1 1v2h-1"/><path d="m500 611-2 5-1 2m2-2-1 2m-2-3v1l-1 2h-1m6-9v1l2 2m0-3h1l1 1m-8 0a4 4 0 0 0 0-1v2l1-1 1-1 1-1-3 1h1m-1 4v-3m2-2c0-1 2-2 0-1l-1 1c-1-1 0-1 1-2l1-2h-1l2-1-2 1v-1l-2 2"/><path d="M500 609c0-2 0-5 3-7l-1-1-1 2-1-2c0 2-1 1-2 1 1-1 0-1-1-1v-1"/><path d="M502 600h-7l-2 2h-1"/><path d="M495 601v1h1l-2 1m3-1c-3 4-3 9-3 14m-2-14c-1 1 0 3 1 3 2-1 0-2 0-3m1 16v-1s-2 0 0-1a3 3 0 0 1 2 0"/><path d="M494 617h1m-3-13-1 2 1 1 1 2h-4l2 1"/><path d="M492 606c-1 1-2 1-1 2v1m3-1v1m-5 0c-2 0-3 0-3 2l-1-1-1-1 1-1m2 2l2 1v5l-1 3m1-3v2m1 0h1-1 2m-1 0l1-1v-2h-1l3-3"/><path d="M493 616l1-2v-1h-1m-10 5v-8l3-5m-1 3c1-2 2-2 3-2v2l-1 1m1-2"/><path d="M488 608h1c1-3-1-2-2-4m2 6c1 2 1 1 1 0l1 1c2 1 2 0 1-1h1v-1m0 3l1-1m-1-1l1-1m-7 8l-1 1c-1-1 0-1 1-2s0-1-1-1c0 0 2 0 1-1l-1-2-2-1 2 3m-1 0c1-1-1-1-1-1-1 2 1 2 1 2l-1-1c-1 2 0 2 1 3h-2l2 1m-2-10v-4m0-2c0-3 3-2 3-1 1 1-1 2-1 1h-1s2 2 0 1h-1"/><path d="M486 601c1 1 2 1 1 2l-1 1h2c1-1 2-1 2 1v-2c0-1 1-1-1-3h-2m0 4h3m12-3c0 3 2 0 0-1m-15 7h1m-3 2v1m7-8-1-1v-1l1-1 1 1h-1 1v-1h-2l-1 1v1l1-1m-2 0h1v-1h-1"/><path d="M490 600v-2h-1l-1-1h-1l-1 1-1 1 1 1 1-1v-1"/><path d="M487 599h2v-1m-1 1v1m-1 0h2v-1m-4 0h-1m2-1h-2m1-1a2 2 0 0 0-1 0s0 1 0 0l-1 1 1 1v-1m-24 0 4 2m-1 0c-5-3-8 3-2 3-2-1-1-3 2-2z"/><path d="M460 602v-1c-1 0-1-1-2 1m8 16s-2 0-1-1v-4c-1-1-2-2-3-1-2 0-1-1 0-2l2-1h2c1 0 2 1 1 2 3-2 2 1 2 1v2h2l-1 1-1 1v2h1"/><path d="m466 611 1 5 2 2m-2-2 1 2m2-3v3h2m-6-9v1c-2 0-1 1-2 2m0-3h-1l-2 1m8 0a4 4 0 0 1 0-1l1 2-1-1-1-1c-3-1-1-1-1-1l2 1m1 4v-2l-1-1m-1-2c-1-1-2-2 0-1v1c2-1 1-1 0-2l-1-2h1l-2-1 2 1v-1l1 2"/><path d="M466 609c0-2 0-5-3-7l1-1 1 2 1-2c0 2 1 1 2 1v-1l1-1"/><path d="M463 600h8l1 2h2"/><path d="M471 601v1h-1l2 1m-3-1c3 4 3 9 3 14m2-14c1 1 0 3-1 3-2-1 0-2 0-3m-1 16v-2a3 3 0 0 0-2 0"/><path d="M472 617h-1m3-13v3l-1 2h4l-2 1"/><path d="M474 606c1 1 2 1 1 2v1m-3-1v1m5 0c1 0 3 0 3 2l1-1 1-1-1-1m-3 2-1 1v5l1 3m-2-3 1 2m-1 0h-2m0 0v-3l-1-2-1-1"/><path d="M473 616l-1-2v-1h1m10 5v-8l-3-5m1 3c-1-2-2-2-3-2v2l1 1m-1-2"/><path d="M478 608h-1c-1-3 1-2 2-4m-2 6c-1 2-1 1-1 0l-1 1c-2 1-3 0-1-1h-1v-1m0 3-1-1m1-1-2-1m8 8 1 1c1-1 0-1-1-2s0-1 1-1c0 0-2 0-1-1l1-2 2-1-2 3"/><path d="m480 614 2-1c1 2-1 2-1 2l1-1c1 2 0 2-1 3h2l-2 1m2-10v-4m0-2c0-3-3-2-3-1-2 1 1 2 1 1h1s-2 2 0 1h1"/><path d="M480 601c-1 1-2 1-1 2l1 1h-2c-1-1-2-1-2 1v-2c0-1-1-1 1-3h2m0 4h-3m-12-3c-1 3-3 0 0-1m14 7h-1m3 2v1h1m-7-8 1-1v-1l-1-1-1 1h1-1v-1h2v1l1 1-1-1m2 0h-1v-1h1"/><path d="m476 600-1-1v-1h2l1-1h1l1 1v2h-1v-1l-1-1"/><path d="M479 599h-2v-1m1 1v1m1 0h-2v-1m4 0h1m-2-1h1m0-1h1s0 1 0 0l1 1-1 1-1-1h1m-26-10v1c3 0 2 2 2 2l1 1 1-1c0-1 0-2-2-3z"/><path d="M464 589c-4 2-4 5-7 3v-1h4c0-1 1-2 3-2zm3 6h-1l1-1 1 1-2 1c-1 1-2 0-2-2l4-2c1 1 3 2 3 4-1 2-3 3-5 3-3 0-5-3-5-5 1-3 4-5 7-5l3 1"/><path d="M464 593c2-3 5-2 11 0l1-1-5-2m4 3-2 1-3-1m3 1 1 1v-1m0-1 1 1m0-1 1 1"/></g><circle transform="matrix(-.42442 0 0 .30435 547 550)" cx="188.3" cy="147.2" r="1.5"/></g><g class="t"><g class="r"><g class="s"><g class="y"><path d="M458 592c-2 2-1 7 3 7m-1-1 4 2m12 0v-1h1m1 0v1m2-6h-1l-1-1v-2l1-1"/><path d="M478 592h2v-1h1l-1-1h-2l1-1m2 5v-1l1-1v-1c-1 0-1 0 0 0v-1l-1-1a3 3 0 0 0-1 0"/><path d="M481 589l-1 1-1-1a2 2 0 0 1-1-1h1 0l-1-1h1v-1l1 1c0 1 0 0 0 0l1-1-1 1 1-1v2m0-1h1v1m0-1h1v1h1"/><path d="M483 587c0 1 0 0 0 0h1v1h1m-1-1h1c0-1 0-1 0 0v1-1h1l1-1v2h-1m1 0v1h-1l-1 1"/><path d="M487 588v1a1 1 0 0 0-1 0m0 0h-2v2m1-2v1m-2 0h-1m1 1h1v2m0-1h1l-1 1v1h1m-2-2c-1 0 0 0 0 0l1 1-1 1m3 0h1v-4h-1"/><path d="M486 589h1v1h-1l-1 1v1m1-1s-1 0 0 0v1h1m-9 2h1m-8 2h23m0 1h-23m1-3h21m-21 0"/></g><ellipse transform="matrix(.29383 0 0 .2107 443 564)" cx="132.8" cy="148.1" rx="1.4" ry="3.2"/><ellipse transform="matrix(.29383 0 0 .2107 445 564)" cx="132.8" cy="148.1" rx="1.4" ry="3.2"/><ellipse transform="matrix(.29383 0 0 .2107 449 564)" cx="132.8" cy="148.1" rx="1.4" ry="3.2"/><ellipse transform="matrix(.29383 0 0 .2107 453 564)" cx="132.8" cy="148.1" rx="1.4" ry="3.2"/><ellipse transform="matrix(.29383 0 0 .2107 440 564)" cx="132.8" cy="148.1" rx="1.4" ry="3.2"/><ellipse transform="matrix(.29383 0 0 .2107 436 564)" cx="132.8" cy="148.1" rx="1.4" ry="3.2"/><ellipse transform="matrix(.29383 0 0 .2107 443 564)" cx="126.5" cy="148" rx="3.9" ry="3"/><ellipse transform="matrix(.29383 0 0 .2107 449 564)" cx="126.5" cy="148" rx="3.9" ry="3"/><ellipse transform="matrix(.29383 0 0 .2107 452 564)" cx="126.5" cy="148" rx="3.9" ry="3"/><ellipse transform="matrix(.29383 0 0 .2107 436 564)" cx="126.5" cy="148" rx="3.9" ry="3"/><ellipse transform="matrix(.29383 0 0 .2107 440 564)" cx="126.5" cy="148" rx="3.9" ry="3"/><path d="M495 595v1-1z" class="AB"/><path d="M483 589v-1" class="y"/></g><path d="M458 585h50l3 1-3 1h-50l-3-1 3-1z" class="AI"/><path d="M467 793v1c0 3-3 5-6 5h44a5 5 0 0 1-5-6h-33" class="AB"/><path d="M467 793v1c0 3-3 5-6 5h44a5 5 0 0 1-5-6h-33z" class="w x"/><path d="M467 790h32l2 1-2 2h-32l-2-2 2-1" class="AB"/><g class="x"><path d="M480 790h6V629c0-8-6-8-6 0zm-7 0h4V629c0-8-4-8-4 0zm20 0h-4V629c0-8 4-8 4 0zm5 0h-3V629c0-8 3-9 3 0z" class="s"/><path d="M467 790h32l2 1-2 2h-32l-2-2 2-1z"/></g><path d="M462 811h43v-12h-43z" class="AB"/><path d="M462 811h43v-12h-43z" class="x"/></g><g class="v"><path d="m422 703 12 2h1c1 2-2 7-9 14l-4-16" class="AB"/><path d="M487 671c21 3 36 12 35 20l-7 17v-1c1-6-13-14-31-17-21-3-57-1-59 23l-6-17c0-11 13-22 26-24 13-4 29-3 42-1z" class="AK"/><g class="AB"><path d="M508 752c4 2 7 5 6 7l-3 3c-3 3-5 7-4 9-2-3-4-6-4-10s2-7 5-9m-8-37c9-1 14-4 15-8 1-3-2-6-7-9l-8 1v16m-33-17c-5 1-9 2-11 4-1 2 3 7 11 12v-16"/><path d="M517 742c1-3-7-8-19-13l-15-7c-17-7-29-16-27-20l-2 17c-2 3 9 12 24 20l20 8c9 3 17 9 16 12l3-17"/></g><path d="M310 810a33 33 0 0 0-11 2 69 69 0 0 1-2 1 31 31 0 0 1-6 1h-2-2-4a27 27 0 0 1-4 0l-3-1-2-1-2-1a26 26 0 0 0-3-1 27 27 0 0 0-4 0h-3-1-2a41 41 0 0 0-6 1h-3l-1 1h-1l-2 1a37 37 0 0 1-10 1h-2-3a35 35 0 0 1-3 0 33 33 0 0 1-3-1 60 60 0 0 1-3-1l-2-1h-3a34 34 0 0 0-3-1 47 47 0 0 0-4 0h-2-2a27 27 0 0 0-9 2l-2 1a31 31 0 0 1-15 1 27 27 0 0 1-3 0l-3-1-2-1-3-1a25 25 0 0 0-2-1 27 27 0 0 0-4 0h-3-1-4a35 35 0 0 0-6 1 260 260 0 0 0 7 9 49 49 0 0 1 3 0 36 36 0 0 1 4 0 27 27 0 0 1 4 0 25 25 0 0 1 5 2l2 1a28 28 0 0 0 15 1 28 28 0 0 0 8-2l3-1 2-1a26 26 0 0 1 4 0 35 35 0 0 1 4 0 47 47 0 0 1 4 0h3l3 1 2 1a70 70 0 0 0 6 1 36 36 0 0 0 7 1h5a24 24 0 0 0 3 0 22 22 0 0 0 3-1 95 95 0 0 0 5-2h3l3-1a48 48 0 0 1 4 0 36 36 0 0 1 4 0h1a27 27 0 0 1 8 2 87 87 0 0 0 5 2 28 28 0 0 0 8 0 37 37 0 0 0 4 0 27 27 0 0 0 6-1l3-1 2-1 3-1h3 2a40 40 0 0 1 10 0l2 1 3 1 2 1a32 32 0 0 0 11 1h4a24 24 0 0 0 3 0 22 22 0 0 0 3-1 44 44 0 0 0 2-1h1l2-1a34 34 0 0 1 3-1h3 2 2 4 1 1 2l2 1 3 1a69 69 0 0 0 2 1h1 1a25 25 0 0 0 5 1 37 37 0 0 0 6 0 34 34 0 0 0 2 0 25 25 0 0 0 3 0 21 21 0 0 0 3-1 44 44 0 0 0 2-1h2l1-1a34 34 0 0 1 6-1h1 1 1 1a47 47 0 0 1 4 0 34 34 0 0 1 6 1l3 1 2 1 3 1h2 1 1a49 49 0 0 0 8 0 24 24 0 0 0 3 0 22 22 0 0 0 3-1l2-1 3-1a24 24 0 0 1 2-1h4a41 41 0 0 1 9 0h1 2l2 1 3 1 2 1h2a25 25 0 0 0 5 1 50 50 0 0 0 8 0 25 25 0 0 0 4 0 21 21 0 0 0 2-1l2-1 3-1a24 24 0 0 1 2-1h4l4-1 2 1a233 233 0 0 0 8-9l-1-1a32 32 0 0 0-9 0 43 43 0 0 0-8 0 24 24 0 0 0-5 2 43 43 0 0 1-2 1 21 21 0 0 1-6 1 39 39 0 0 1-4 0 52 52 0 0 1-8 0 33 33 0 0 1-2-1l-2-1a47 47 0 0 0-3-1 28 28 0 0 0-3 0l-3-1a47 47 0 0 0-5 0 36 36 0 0 0-4 0 26 26 0 0 0-3 0 26 26 0 0 0-5 2l-3 1a31 31 0 0 1-14 1 26 26 0 0 1-3 0l-3-1-3-1a55 55 0 0 0-2-1 25 25 0 0 0-3-1 26 26 0 0 0-3 0h-3-2-2-1-1-2-1l-1 1h-2l-3 1-1 1h-1a39 39 0 0 1-9 1h-2-1-1-1a25 25 0 0 1-4 0 28 28 0 0 1-2-1l-2-1-3-1a29 29 0 0 0-3-1h-3a31 31 0 0 0-2 0 47 47 0 0 0-3 0h-2-1-1-1a26 26 0 0 0-2 0h-1v1h-1-1-1l-1 1-3 1-2 1h-1-1-1-1-1a40 40 0 0 1-3 0h-5a29 29 0 0 1-2 0h-1l-2-1-3-1a55 55 0 0 0-2-1 26 26 0 0 0-3-1 26 26 0 0 0-3 0h-4-1-2zm0 19a33 33 0 0 0-11 2l-2 1-3 1a27 27 0 0 1-3 1h-2-2-4a27 27 0 0 1-4-1l-3-1a73 73 0 0 1-2-1l-2-1a26 26 0 0 0-3 0 27 27 0 0 0-4-1h-3-1-2a41 41 0 0 0-6 1l-3 1h-1-1a73 73 0 0 1-8 3h-4-2-3a35 35 0 0 1-3-1 33 33 0 0 1-3-1 60 60 0 0 1-3-1h-2l-3-1a34 34 0 0 0-3-1 47 47 0 0 0-4 0h-2-2a27 27 0 0 0-9 2 71 71 0 0 1-2 1l-3 1a28 28 0 0 1-3 1 36 36 0 0 1-9 0 27 27 0 0 1-3-1l-3-1a75 75 0 0 1-2-1l-3-1 15 14h1a36 36 0 0 0 10-2 81 81 0 0 0 5-2l2-1a26 26 0 0 1 4 0 35 35 0 0 1 4 0 47 47 0 0 1 7 1l3 1h2a70 70 0 0 0 6 2 36 36 0 0 0 7 1h5a24 24 0 0 0 3-1 22 22 0 0 0 3-1 95 95 0 0 0 5-1l3-1 3-1a48 48 0 0 1 4 0 36 36 0 0 1 4 0h1a27 27 0 0 1 8 2l2 1a28 28 0 0 0 15 2 27 27 0 0 0 6-2l3-1h2l3-1 3-1h2a40 40 0 0 1 10 1l2 1h3l2 1a32 32 0 0 0 11 2h4a24 24 0 0 0 3-1 22 22 0 0 0 3-1 44 44 0 0 0 2 0l1-1h2a34 34 0 0 1 6-2h2 2 4 1 1l2 1 2 1h3a68 68 0 0 0 3 2h1a25 25 0 0 0 5 1 37 37 0 0 0 6 0 34 34 0 0 0 2 0 25 25 0 0 0 3-1 21 21 0 0 0 3-1 44 44 0 0 0 2-1h2l1-1a33 33 0 0 1 6-1h1 1 1 1a47 47 0 0 1 4 0 34 34 0 0 1 6 2h3l2 1 3 1h2 1 1a49 49 0 0 0 8 1 24 24 0 0 0 3-1 22 22 0 0 0 3-1l2-1h3a23 23 0 0 1 2-1l4-1a41 41 0 0 1 9 0h1l2 1h3l2 1 2 1h2v1a25 25 0 0 0 5 1v-1l4 1a243 243 0 0 0 17-14l-2 1-3 1a43 43 0 0 1-4 1l-4 1a39 39 0 0 1-4 0 52 52 0 0 1-8-1 33 33 0 0 1-2-1h-2l-3-1a28 28 0 0 0-3-1l-3-1a47 47 0 0 0-5 0 36 36 0 0 0-4 0 26 26 0 0 0-8 2 70 70 0 0 1-6 2 27 27 0 0 1-7 1h-4a26 26 0 0 1-3-1l-3-1a73 73 0 0 1-3-1 55 55 0 0 0-2-1 25 25 0 0 0-3 0 26 26 0 0 0-3-1h-3-2-2-1-1l-2 1h-1-1-2l-2 1-2 1h-1a39 39 0 0 1-3 1 33 33 0 0 1-6 1h-2-1-1-1a25 25 0 0 1-4-1 28 28 0 0 1-2-1l-2-1h-3a29 29 0 0 0-3-1 32 32 0 0 0-3-1 31 31 0 0 0-2 0 47 47 0 0 0-3 0h-2-1-1-2l-1 1h-1-1-1v1h-1-1l-3 1-2 1h-1-1-1a25 25 0 0 1-1 1h-1a40 40 0 0 1-3 0h-5a29 29 0 0 1-2-1h-1l-2-1-3-1a55 55 0 0 0-2-1 26 26 0 0 0-3 0 26 26 0 0 0-3-1h-4-1-2zm0 19a33 33 0 0 0-11 3l-2 1a31 31 0 0 1-6 1h-2-2-4a27 27 0 0 1-4-1h-3a73 73 0 0 1-2-1l-2-1a26 26 0 0 0-3-1 27 27 0 0 0-4 0l-3-1h-1l-2 1h-3a27 27 0 0 0-3 0l-3 1-1 1h-1a74 74 0 0 1-2 1 37 37 0 0 1-10 1h-2-3a35 35 0 0 1-3-1 33 33 0 0 1-3 0 60 60 0 0 1-3-1l-2-1-3-1a34 34 0 0 0-3 0 47 47 0 0 0-4-1h-2l-2 1a27 27 0 0 0-9 2l-2 1 10 6h1a35 35 0 0 1 4 0 47 47 0 0 1 4 1h3l3 1 2 1a70 70 0 0 0 6 1 36 36 0 0 0 7 1h5a24 24 0 0 0 3-1 22 22 0 0 0 3 0 95 95 0 0 0 5-2l3-1h3a48 48 0 0 1 4-1 36 36 0 0 1 4 1h1a27 27 0 0 1 3 0 25 25 0 0 1 5 2 87 87 0 0 0 5 1 28 28 0 0 0 8 1 37 37 0 0 0 4 0 27 27 0 0 0 6-1v-1h3l2-1 3-1h3l2-1a38 38 0 0 1 10 1l2 1 3 1 2 1a32 32 0 0 0 11 1h4a24 24 0 0 0 3 0 22 22 0 0 0 3-1 44 44 0 0 0 2-1l1-1h2a34 34 0 0 1 3-1h3 2l2-1 4 1h1 1 2l2 1 3 1a69 69 0 0 0 2 1h1 1a25 25 0 0 0 5 1 37 37 0 0 0 6 0 34 34 0 0 0 2 0 25 25 0 0 0 3-1 21 21 0 0 0 3 0 44 44 0 0 0 2-1l2-1h1a34 34 0 0 1 6-1l1-1h1 1 1a47 47 0 0 1 4 1 34 34 0 0 1 6 1l3 1 2 1h3l2 1h1 1a49 49 0 0 0 8 0 24 24 0 0 0 3 0 22 22 0 0 0 3-1l2-1 3-1a24 24 0 0 1 2-1h4a41 41 0 0 1 4-1l5 1a252 252 0 0 0 11-7l-2-1-3-1a28 28 0 0 0-3-1h-3a47 47 0 0 0-5-1 36 36 0 0 0-4 0 26 26 0 0 0-3 1 26 26 0 0 0-5 2 70 70 0 0 1-6 1 27 27 0 0 1-7 1h-4a26 26 0 0 1-4-1h-2a73 73 0 0 1-3-1 55 55 0 0 0-2-1 25 25 0 0 0-3-1 26 26 0 0 0-3-1h-3-2-2l-1 1h-1-2-1-1l-2 1-3 1h-1l-1 1a38 38 0 0 1-9 1h-2-1-1-1a25 25 0 0 1-4-1 28 28 0 0 1-2 0l-2-1-3-1a29 29 0 0 0-3-1h-3a31 31 0 0 0-2 0 47 47 0 0 0-3-1h-2l-1 1h-1-2-1-1-1l-1 1h-1l-1 1-3 1h-2-1l-1 1h-1-1-1a40 40 0 0 1-3 0h-5a29 29 0 0 1-2 0l-1-1h-2l-3-1a55 55 0 0 0-2-1 26 26 0 0 0-3-1 26 26 0 0 0-3 0l-4-1h-1-2zm0 20a33 33 0 0 0-11 2l-2 1a31 31 0 0 1-6 1l-2 1h-2l-4-1a27 27 0 0 1-4 0l-3-1a73 73 0 0 1-2-1l-2-1a26 26 0 0 0-3-1 27 27 0 0 0-7 0h-1-2a40 40 0 0 0-6 1h-3l-1 1h-1a73 73 0 0 1-8 2l-4 1h-2l-3-1a27 27 0 0 1-1 0 234 234 0 0 0 19 8l2-1h3l3-1a48 48 0 0 1 4 0 36 36 0 0 1 4 0h1a27 27 0 0 1 8 2l2 1a29 29 0 0 0 15 1 27 27 0 0 0 6-1l3-1 2-1h3l3-1h2a40 40 0 0 1 10 1h2l3 1 2 1a32 32 0 0 0 11 2 39 39 0 0 0 7-1 22 22 0 0 0 3-1 44 44 0 0 0 2-1h1l2-1a34 34 0 0 1 6-1h2 2 4 1 1l2 1h2l3 1a68 68 0 0 0 3 1h1a27 27 0 0 0 5 1 36 36 0 0 0 6 0 34 34 0 0 0 2 0h3a21 21 0 0 0 3-1 44 44 0 0 0 2-1h2l1-1a34 34 0 0 1 6-1h1 1 1 1a47 47 0 0 1 4 0l4 1a28 28 0 0 1 2 0 258 258 0 0 0 16-6l-4-1a26 26 0 0 1-4 0l-2-1a73 73 0 0 1-3-1 55 55 0 0 0-2-1 25 25 0 0 0-3-1 26 26 0 0 0-6 0h-2-2-1-1-2-1l-1 1h-2a62 62 0 0 0-4 2h-1a39 39 0 0 1-3 1 33 33 0 0 1-6 1h-2-1-1c0-1 0 0 0 0l-1-1a25 25 0 0 1-4 0 28 28 0 0 1-2-1l-2-1-3-1a29 29 0 0 0-3 0l-3-1a31 31 0 0 0-2 0 47 47 0 0 0-3 0h-2-1-1-1-1-1l-1 1h-1-1-1l-1 1-3 1-2 1h-1-1-1a25 25 0 0 1-1 0h-1a40 40 0 0 1-3 1l-5-1a29 29 0 0 1-2 0h-1l-2-1-3-1a55 55 0 0 0-2-1 26 26 0 0 0-3-1 26 26 0 0 0-7 0h-1-2z" stroke-width=".5" class="s"/><path d="M354 761c-1 5-1 9 1 9l5 1c4 0 9 2 9 4 0-3-1-7-4-9-3-3-7-5-11-5" class="AC"/><path d="M346 748c2-5 15-5 32-10l23-6c25-8 36-24 33-27l7 19c3 3-7 19-29 26l-30 8c-13 4-29 5-28 11l-8-21" class="AJ"/></g><path d="m251 734-3 3-1 1 1 2 1 1-7-7h1l1 1h2l7-7 1-1-1-2h-1l1-1 4 5 3 2 1 3-1 2-2 2-5-2a10 10 0 0 1-1-1l-1-1m0-1a17 17 0 0 0 2 2l3 1 2-1v-4l-1-1-1-1-5 4m23 16 1 1-3 3-15-7h1l2 1 1-2 4-8v-2l-1-1v-1l7 4h-3l-1 1-3 9-1 1h1l2 1 1 1 3 1h2l2-2m25-4v1h-2l-2 1-9 10h-1l-4-14v-1a3 3 0 0 0-1-1l-1-1 8 2-1 1-1-1-1 1v2l3 9 7-7 1-1-1-1-1-1 6 1m13 3-1 5-1-3a4 4 0 0 0-1-1 7 7 0 0 0-2-1h-3l-1 1v1l4 3 3 3 1 1 1 2-3 3h-4a13 13 0 0 1-2-1h-2l-1-1h-1l-1 1v-1l1-4h1v2l2 2 2 1h4l1-1v-2l-1-1-3-2-3-2-2-2a3 3 0 0 1 0-2l2-2h5l3 1h1c0 1 0 1 0 0h1" stroke-width=".2" class="AD"/></g></g><g class="s"><g stroke-width=".254" class="t AD"><path d="M223.093 224.976c1.307 1.718 2.091 3.681 1.307 4.417h3.136c-.261-.982-2.352-4.417-4.182-4.417h-.261z"/><path d="M225.968 227.43l-1.829-.245-2.091.491-1.568.245c-1.568 0-2.352-.736-2.352-1.472l.523-.982-.523-.245c-.523 0-1.045.491-1.045 1.472 0 1.472 1.307 2.209 2.614 2.209 1.045 0 2.091-.491 2.613-.736l1.568-.491 2.091.245v-.491m9.931 41.718l.784.982c.261-.245.784-.736.784-1.227l-.261-.736-.523-.245c-.261 0-.784.491-.784 1.227m-18.556-4.908c-.523 0-1.045.736-1.045.736l.261 1.227c.523 0 1.568-.982 1.568-1.472 0 0-.261-.491-.784-.491m-4.966.736c-.523 0-.784.491-1.045.736l1.045 1.718.523-1.227c.261-.245 0-1.227-.523-1.227m-2.614-3.436c-.523 0-1.568.736-1.568 1.472l.523 1.472 1.045-.982v-1.963m3.136-2.209l-.784-.491c-.784 0-2.091.736-2.091 1.472h1.568c0-.491.784-.736 1.307-.982m-3.92-12.515c-.523 0-.523.736-.523.982l.261 1.227c.784-.491 1.045-.982 1.307-1.472-.261-.491-.523-.736-1.045-.736m19.863 19.387l-.523-.245c-.784 0-1.829.982-1.568 2.209l1.307-.491c0-.491.261-1.227.784-1.472m-.523 4.172h-.261l-.523.982.523 1.227c.261-.736.784-.982 1.045-1.227 0-.491-.261-.982-.784-.982m3.92.736l-.784.491.523 1.718 1.045-1.472c-.261-.245-.261-.736-.784-.736m-29.01-25.767c-.523.245-1.307.736-1.307 1.227l.784 1.472c.261-.736 1.045-.982 1.307-1.227 0-.245-.261-1.227-.784-1.472m2.352 2.699c-.523 0-.784.491-1.045.736 0 .491 1.045 1.472 1.829 1.472v-1.718c0-.491-.523-.491-.784-.491m-.784-6.38l-.784-.245c-.784 0-1.829.245-2.091.982.523-.245 1.307 0 1.568.245 0-.491.523-.736 1.307-.982m3.659-18.16c-.784-.736-1.307-.736-1.568-.736.261-.491.523-.736 1.307-.736.523 0 1.045.736 1.307 1.227h-1.307m-1.307.982c-.261-.491-1.045-.736-1.829-.736-1.045 0-2.091.736-2.091 1.227l1.829.491c.523-.491 1.045-.982 2.091-.982m-2.352 2.454c-.784 0-2.091.491-2.091 1.227 0 .491.523.736.784.982l1.307-.982c-.523-.245-.261-.245.261-.982m.523 2.945l-1.829.245c.261.245 1.568 1.227 2.352 1.227s1.307-.491 1.829-.982l-2.352-.491m22.737 18.405c-.784.491.261.491.523.736l1.829 1.227c.784-.245 1.568.245 2.091.491-.784-1.472-2.614-2.454-4.443-2.454z"/><path d="M227.798 248.78c-.523.982-1.568.245-2.352.491-3.136-.245-6.534 1.472-7.579 4.417-.523 1.472.261 3.19-.784 4.417l.784.491c-.784.982-2.091 1.472-3.398 1.472-.523-.245-1.045-.982-1.829-.736-.784 0-1.568.982-1.307 1.718-1.307-.245-2.352.982-1.829 1.963 0 .736.784 1.472 1.307 1.227-.261.736 0 1.472.523 1.963 0-.491 1.045-1.227 1.568-.736v1.227c1.307-.245 1.829-1.227 1.829-2.209l.784.245c0 .245.784.736 1.045.491 0-.491.784-.982 1.307-.245 0 .736.523 0 .784-.491v-.736l2.613-1.227c0 .491.523.736 1.045.245l.784-.736c.261.491-.261 1.718.261 1.227 1.829-.982 2.875-2.945 2.614-4.908.261-.982-1.045-1.963-.261-2.945.261-.982 1.307-1.472 2.352-1.227l.523-1.472c.261-.982 1.045-1.963 2.091-2.209-.523-.982-1.568-1.472-2.613-1.718h-.261z"/><path d="M246.615 221.295c-.261.982-1.307 1.963-2.614 2.699v-1.963c-1.568.982-3.659 1.472-4.443 3.19-.523.982-.523 1.963-.523 3.19-2.821 2.433-3.664 6.291-2.091 9.571 1.045 2.209 2.875 4.417 5.227 5.644 1.829.982 3.136 2.454 2.875 4.417 0 1.718-1.568 3.436-3.659 3.436l-1.307-.491c.784-1.963-.523-3.926-2.091-4.908-2.091-1.718-4.443-2.699-6.272-4.172-.523-.491-.523-.982-1.045-.491-1.045.245-2.091 0-3.136-.491-2.352 2.209-6.011 3.19-8.886 1.963-1.307-.245-2.875-.245-3.659.736-.523-.736-.523-1.718-.261-2.699-1.045 0-1.829-.736-2.352-1.472-1.045.982-2.352 1.718-3.92 2.209-.523.245-1.307.982-2.091.736-.523-.245-1.307-1.227-2.091-.491-1.045.245-1.307 1.472-.523 2.209-.784.245-1.307 1.227-.784 1.718.784 0 .784.982.784 1.472.261.245.523.245.261.491 0 .736.261 1.227.784 1.472 0-.491.784-.982 1.045-.491.261.245.261.736.784.491.784-.491.523-1.472.784-1.718l1.045.491c0-.245 0-1.227.784-.982.523.245.523.982 1.045.491s.261-1.227.261-1.718c1.307-.736 2.875-.245 3.92.736l.784-.982 1.045 1.472c.784-.245 1.045-.982 1.307-1.472.784 0 1.307.491 2.091.736.523-.245.784-.491.784-.982 2.091 1.963 4.966 3.19 7.841 3.19 1.307 0 2.875.736 3.659 1.718-1.568-.245-2.875.736-3.398 1.718-1.307 2.454-.784 5.644 1.307 7.607.784.736 1.307 1.718 1.307 2.945l1.045-.491c.261.736.784 1.472 1.568 1.718l.784-1.227c-.261 1.718-1.568 3.436-3.398 3.926-.784 0-1.307-.736-2.091-.491-1.307.491-1.568 1.963-.784 2.699-.784.491-.784 1.227-.784 1.963.784-.245 1.307 0 1.307.491s-.261.736.523.736c.261.245.784 0 1.045-.245.261.491 1.045.982 1.045.245.523-.491 1.307-.491 1.307.245 0 .491.784 0 1.045-.245l.261-1.472c.523 0 .523-.491.784-.736.523.491 1.568.491 1.307-.245 0-.736.784-1.227 1.307-.736.261 0 .523-.736.261-.982 0-.491-.523-.736 0-.982l1.045-1.227c.523.245 1.045.491 1.307 0 .261-.245 0-.982.523-.736.784.245 1.568 0 1.829-.736-1.045-.982 0-2.209 0-3.436s-.523-2.699-2.091-2.699l-1.568.491c-2.352-.491-2.614-3.681-.784-4.908.523-.491 1.307.245 2.091.245 1.045.245 2.613.245 3.398-.491 1.307.736 2.875 0 3.398-.982a7.74 7.74 0 0 1 1.307-1.472l-1.568-.491c.784-1.472.523-3.19.523-4.908.261-1.227 1.829-2.454 1.307-3.926-.261-.491-.261-.982-.784-.245-.523.491-1.829.491-2.352 1.472-.261.245 0 .982-.523.491-.784-.736-1.829-1.963-1.045-2.945s2.614-.982 2.875-2.454v-.982c-.523.491-1.045 1.472-1.829.982-1.307-.245-2.875-.491-3.659.491-.523.491-.523 1.472-.523 1.963-1.829-1.472-1.307-4.663 1.045-5.399 1.568-.736 3.659-1.227 4.182-2.945.523-1.227.261-.982-.523-.245-1.307.982-3.136.245-4.443.982l1.045-.982c-1.307 0-2.352.245-3.136.736.261-1.472 1.829-2.454 3.398-2.699 2.875-.491 5.227-2.699 5.488-5.153.166-1.41-.013-2.837-.523-4.172l-.523.982z"/><path d="M208.719 223.013a1.09 1.09 0 0 0-1.045 1.472v.982c-.261-.491 0-1.472-.784-1.718-1.568-.736-3.136 1.227-1.829 2.209l.523.491c-1.045-.245-2.091.491-1.829 1.472-.261.736.523 1.718 1.568 1.963 0 .982 1.045 2.209 2.614 1.963l.523.736.784 3.681 1.307-.245c.261.982.261 2.209-.261 3.436.784 0 1.568 0 2.091-.491l.261 1.963c1.045-1.227 1.045-2.699 2.352-3.926.523-.736 1.045-1.227 2.091-1.472v-2.454c-1.829-1.227-3.659-1.963-4.704-3.436-.784-1.227-2.091-2.209-2.352-3.681 0-.736.784-1.963-.261-2.699l-1.045-.245z"/><path d="M234.331 233.81c.523-3.19.261-4.417.261-5.153l1.307-.245c-.523-.491-1.307-1.472-1.307-2.209-.261-.736-.784-1.963-1.307-2.209l1.045-.736-2.352-1.718.523-.736-1.307-.491-.523 1.227-.261-.245.523-.982c0-.736-.523-1.227-.784-1.472s-.784-.245-1.307.245c-.523 0-.784.491-1.045.736l.784-.736a2.18 2.18 0 0 0-.523 0l-1.568.245c-2.613 0-3.92 1.718-4.182 2.454-1.045.736-2.091 1.718-2.091 2.454v.245l1.045-.491-1.045.736v.736c0 .982.784 1.472 1.568 1.472 1.045 0 1.568-.982 1.307-1.472.784 0 2.352.491 2.352 2.454 0 1.227-1.045 1.227-1.568 1.227h-1.307l-.523.491c0 .491.523.982 1.045.982l1.045-.491c.261 0 .523 0 .523.736s-.784 1.227-1.307 1.227c-1.829 0-2.875-1.472-3.398-1.472v1.718c-1.568 0-2.091-.491-2.613-1.227-.523.491-1.307 1.472-1.307 2.454l.261 1.718c-1.307.245-2.614 1.472-3.398 3.19-.261.982-.523 1.472-1.307 1.963.523 1.227 1.568 1.963 2.614 1.963-.784.736-.261 2.454.261 2.454.523-.491 1.045-.736 1.829-.736 1.568 0 2.613.736 4.182.736 2.875 0 4.704-1.227 6.272-2.454l3.136.491c.784 0 1.568-.491 2.091-.982-.261-.491-.784-1.472-.523-2.209l1.568.491c0-1.472-.784-2.699-.523-3.19.523-.491.784-1.227.784-1.718h1.568l-.523-1.472z"/><path d="M221.525 226.939s0 .736.261.491l.261-.491m.523 2.209l-.523-.491v.736"/></g><path d="M224.661 222.767l-.523-.491c-2.091-.982.261 0-.784.245l-.523-.245.261-.491c.523 0 1.045.245 1.568.982z"/><g class="r t w z"><path d="M299.776 226.535v15.341l-2.421-1.888v-13.925z"/><use xlink:href="#B"/><use xlink:href="#C"/><use xlink:href="#D"/><path d="M291.169 222.759l-1.614.944v2.124l1.614-.708z"/><path d="M290.9 225.119l1.345 1.18h6.456l1.076-1.18zm.269-2.36h1.614v.944h1.883v-.944h1.614v.944h1.883v-.944h1.614v2.36h-8.607zm1.076 3.54v14.633h6.456v-14.633zm3.228 2.596c.807.236 1.345.472 1.345 1.652v3.54h-2.69v-3.54c0-1.18.538-1.652 1.345-1.652zm-6.724-7.316v20.533l-2.421-1.888v-18.881z"/><path d="M287.672 221.579l1.076.708 1.614-1.416-1.614-.708z"/><path d="M288.748 217.803l1.614.944v2.124l-1.614-.708zm-8.876 3.776v20.533l2.421-1.888v-19.117z"/><path d="M281.217 221.579l-1.345.708-1.345-1.416 1.345-.708z"/><path d="M279.872 217.803l-1.345.944v2.124l1.345-.708zm0 2.36l1.345 1.416h6.456l1.076-1.416zm0-2.36h1.614v1.18h1.883v-1.18h1.883v1.18h1.883v-1.18h1.614v2.36h-8.876zm1.345 3.776v19.589h6.456v-19.589zm3.228 2.596c.538 0 1.345.236 1.345 1.416v3.776h-2.69l-.269-3.776c0-1.18.807-1.416 1.614-1.416zm-6.669 2.36v15.341l-2.421-1.888v-13.925z"/><use xlink:href="#B" x="-22"/><use xlink:href="#C" x="-22"/><use xlink:href="#D" x="-22"/><path d="M269.169 222.759l-1.614.944v2.124l1.614-.708z"/><path d="M268.9 225.119l1.345 1.18h6.456l1.076-1.18zm.269-2.36h1.614v.944h1.883v-.944h1.614v.944h1.883v-.944h1.614v2.36h-8.607zm1.076 3.54v14.633h6.456v-14.633zm3.228 2.596c.807.236 1.345.472 1.345 1.652v3.54h-2.69v-3.54c0-1.18.538-1.652 1.345-1.652z"/></g></g><g class="t w z AA"><path d="M287.672 232.2l1.076.708m-1.076-2.832l1.076.708m-1.076-2.832l1.076.708m-1.076-2.832l1.076.708m-1.076-2.832l1.076.708m-7.531 7.788l-1.345.708m1.345-2.832l-1.345.708m1.345-2.832l-1.345.708m1.345-2.832l-1.345.708m1.345-2.832l-1.345.708" class="u"/><path d="M284.445 230.076v-.708m-3.228-5.664h6.187m-1.614 2.124h1.614m-1.614 2.124h1.614m-6.187 2.124h6.187m-6.187 2.124h6.187m-2.959 1.888V232.2m-1.076 0v-2.124m2.152 2.124v-2.124m-2.152-6.372v-2.124m2.152 2.124v-2.124" class="r s"/><use xlink:href="#E" class="u"/><path d="M281.217 234.324h6.187" class="r s"/><use xlink:href="#E" y="2.124" class="u"/><path d="M281.217 236.448h6.187m-4.035 0v-2.124m2.152 2.124v-2.124m-1.076 6.844v-4.484m-3.228-10.856h1.614m-1.614 2.124h1.614m1.614-3.776v-.472" class="r s"/><use xlink:href="#F" class="u"/><use xlink:href="#G" class="r s"/><use xlink:href="#F" x="-22" class="u"/><use xlink:href="#G" x="-22" class="r s"/></g><g class="s t w z"><path d="M275.915 254.499v-5.664c0-1.888.807-2.36 1.883-2.36s1.883.472 1.883 2.36v5.664zm14.525 0v-5.664c0-1.888 1.076-2.36 1.883-2.36 1.076 0 1.883.472 1.883 2.36v5.664zm-8.069 17.701v-6.136c0-2.832 1.345-3.54 2.69-3.54s2.69.708 2.69 3.54v6.136zm-10.074-37.998v-3.54c0-1.18.807-1.652 1.614-1.652.538.236 1.345.472 1.345 1.652v3.54zm22.325 0v-3.54c0-1.18.538-1.652 1.345-1.652.807.236 1.345.472 1.345 1.652v3.54zm-11.028-4.956l-.269-3.54c.269-1.18.807-1.416 1.614-1.416.538 0 1.345.236 1.345 1.416v3.54z" fill="#0071bc"/><path d="M272.15 240.338l-5.918 1.416 1.614 1.416v17.701l-2.69 2.596v5.428l6.187 3.304h11.028v-6.136a5.7 5.7 0 0 1 .538-2.36l.269-.472a2.04 2.04 0 0 1 .538-.472 2.04 2.04 0 0 1 .269-.236h1.076l1.076.236c.306.101.582.263.807.472l.269.472.269.472.269 1.888v6.136h11.028l6.456-3.304v-5.428l-2.959-2.596V243.17l1.883-1.416-6.187-1.416zm5.38 6.136h.269c.807 0 1.883.472 1.883 2.36v5.9l-3.766-.236v-5.664c0-1.652.807-2.36 1.614-2.36zm14.525 0h.269c1.076 0 1.883.472 1.883 2.36v5.9l-3.766-.236v-5.664c0-1.652.807-2.36 1.614-2.36z" class="r"/></g><path d="M265.156 263.467l6.187 3.068v5.664m-3.497-11.328l6.187 1.416m-2.69 4.248l2.69-4.248m0 0v-20.061m-1.883-1.888l1.883 1.652m-6.187 1.18l6.456-.944m30.664 21.241l-6.187 3.068v5.664m3.497-11.328l-6.187 1.416m2.69 4.248l-2.69-4.248m0 0v-20.061m1.883-1.888l-1.883 1.652m6.187 1.18l-6.187-.944m-22.056 20.061h22.056m-22.056-20.061h22.056m-7.8 24.309h10.49m-27.436 0h10.49" class="t u w z AA"/><g class="r t w z"><g class="s"><path d="M285.061 260.871c-2.421 0-4.573 1.18-4.573 4.72v6.608h1.883v-6.136a5.7 5.7 0 0 1 .538-2.36l.269-.472a2.04 2.04 0 0 1 .538-.472 2.04 2.04 0 0 1 .269-.236h1.076l1.076.236c.306.101.582.263.807.472l.269.472.269.472.269 1.888v6.136h1.614v-6.608c0-3.776-2.152-4.484-4.304-4.72zm17.215-23.601l-.807.236v1.652l1.345-.236v-1.18z"/><path d="M297.972 235.618l2.152.708v1.652l2.152.472v-1.18l1.883.708v3.776l-6.187-1.416zm-30.126 1.652l.807.236v1.652l-1.345-.236v-1.18z"/><path d="M272.15 235.618l-2.152.708v1.652l-2.152.472v-1.18l-1.883.708v3.776l6.187-1.18z"/></g><path d="M277.26 235.618h-5.111v4.956h25.822v-4.956h-5.111v1.888h-5.111v-1.888h-5.111v1.888h-5.38z"/></g><g class="t u z"><g class="w"><path d="M302.275 246.239l-6.187-.708m6.187 3.54l-6.187-.236m6.187 3.304h-6.187m6.187 2.832l-6.187.708m6.187 2.36l-6.187.944m2.69 10.384l6.187-3.304m-5.918-23.365v3.068m0 3.304v3.068m0 3.304v3.068m0 3.068l2.959 3.304m0 5.664v-2.832m-4.573-21.949v3.068m3.766-2.596v2.832m-3.766 3.068v3.304m3.766-3.304v3.068m-3.766 3.54v3.304m3.766-3.776v2.832m-1.076 4.72v2.832m3.766-4.72v2.832m-32.547 2.596l-6.187-3.304m2.69-19.825l6.187-.708m-6.187 3.54l6.187-.236m-6.187 3.304h6.187m-6.187 2.832l6.187.708m-6.187 2.36l6.187.944m-2.69 10.384l-6.187-3.304m5.918-23.365v3.068m0 3.304v3.068m0 3.304v3.068m0 3.068l-2.959 3.304m0 5.664v-2.832m4.842-21.949v3.068m-4.035-2.596v2.832m4.035 3.068v3.304m-4.035-3.304v3.068m4.035 3.54v3.304m-4.035-3.776v2.832m1.076 4.72v2.832m-3.766-4.72v2.832m26.091-20.297v-.944m-2.959 23.837h9.414m-24.746-23.837h21.787m-15.87 3.304h10.49m-10.759 3.304h10.759m-16.408 3.54h21.787m-21.787 3.304h21.787m-14.525-13.453v-3.304m7.262 3.304v-3.304m-7.262 9.912v-3.304m7.262 3.304v-3.304m-7.262 10.148v-3.304m7.262 3.304v-3.304m-10.759-9.44v-.708m7.262 3.304v-3.304m-7.262 9.912v-.708m7.262.708v-3.068m7.262 3.068v-.708m-14.525 7.552v-3.304m7.262 1.888v-1.888m7.262 3.304v-3.304m-15.87 7.552l1.345-4.248m15.87 4.248l-1.345-4.248m-16.139 9.912v-2.832m17.484 2.832v-2.832m-19.905 0v-2.832m4.573 2.832v-2.832m13.449 2.832v-2.832m4.573 2.832v-2.832m-25.015 2.832h9.145m13.718-20.533h1.883m-21.787 0h1.614m18.56 3.304h1.345m-21.518 0h1.614" class="AA"/><use xlink:href="#H"/><use xlink:href="#H" x="4"/><use xlink:href="#H" x="18"/><use xlink:href="#H" x="15"/><use xlink:href="#H" x="11"/><use xlink:href="#H" x="7"/></g><path d="M267.499 243.292s-1.076-1.416 0-1.652c1.345-.236 2.421 1.18 2.421 1.18m.538-.236s-1.345-1.18 0-1.416c1.076-.236 2.152.944 2.152.944m28.512 1.18s1.345-1.416 0-1.652c-1.076-.236-2.421 1.18-2.421 1.18m-.269-.236s1.076-1.18 0-1.416c-1.345-.236-2.421.944-2.421.944m-11.566 20.297v-1.416m-4.573 9.676h1.614m-1.614-1.416h1.614m-1.614-4.248h1.883m-1.883 1.416h1.614m-1.614 1.416h1.614m1.614-4.956l-1.076-1.416m0 2.36l-1.883-.708m8.607 7.552h-1.883m1.883-1.416h-1.883m1.883-4.248h-1.883m1.883 1.416h-1.883m1.883 1.416h-1.883m-1.345-4.956l1.076-1.416m0 2.36l1.614-.708"/></g><g class="s t"><path d="M235.742 260.94v27.813a19.31 19.31 0 1 0 38.156-2.758V260.94h-37.927z" class="v AE"/><path d="M247.695 284.156l-.919.23c-.46.23-1.379 0-.919.23.23.46 2.758.69 4.137 1.379s2.069.69 2.758 1.379c.46.46 0 .919 0 1.149v1.379.919 1.149l-.23.919c-.46 1.609.46 2.528-.919 3.448-.919.919-1.379.69-1.379.69-1.149.919-1.379 1.379-1.609 1.839l1.609-1.149-.23.69c.69-.69 1.149-1.149 2.299-1.379l.69-.46c-.46.23-.69.46-.919 1.149l-.919.46v.919l.69-.69c.23.69-.46 1.609-1.609 2.299h.69c.69-.23 1.149-.919 1.609-1.609l-.23-1.149c.23-.46.46-.69.919-.69v1.149l.919 1.379c.23.46-.23 1.379-.919 2.069.919-.46 2.069-1.149.69-2.988l.919.23-.919-.919c-.23-.69.46-.69.69-1.149l-.23.46c.46 0 .69.46.69.919l.46.919-.23 1.379c.23-.23.46-.23.46-1.149l1.149 1.379-.69-1.149-.46-1.149.69.23c-.69-.46-1.149-.919-.919-1.839v.23h.46l.919.919 1.149.23.46.69v-.46h.69l-1.149-.46-1.149-.69-.919-1.379.46.46 1.379.46 1.609.69-1.149-.919 2.299.23-1.379-.46-2.069-.23-1.379-.919-.46-2.069v-1.149l.23-1.609-.23-.69.23-.46-.23-2.069 2.758-1.149 3.218-1.609c.69-.46-.23-.23-.46-.46s-.23-.69-.69-.46c-.46 0-.23.46-.919.919l-2.528.919c-.46-.23 0-.69-.23-1.149l.46-2.299-.69.919c-.69.69-1.379 2.988-1.839 2.988-.46-.23-.46-.919-.919-1.609s-.46-1.379-.919-1.609v1.379c-.23.69.23 1.149-.23 1.379l-1.609-.69-2.988-.69z" fill="#784421" stroke-width=".085"/><g class="AF"><g transform="matrix(.0425 -.0303 -.0373 -.04277 267 286)" class="q"><use xlink:href="#I"/><use xlink:href="#J"/><use xlink:href="#K"/><use xlink:href="#L"/></g><g transform="matrix(.0166 -.04658 -.05733 -.01671 267 274)" class="q"><use xlink:href="#I"/><use xlink:href="#J"/><use xlink:href="#K"/><use xlink:href="#L"/></g><g transform="matrix(-.01985 .04553 -.05604 -.01998 263 302)" class="q"><use xlink:href="#I"/><use xlink:href="#J"/><use xlink:href="#K"/><use xlink:href="#L"/></g><g transform="matrix(-.04454 .0278 -.03422 -.04483 250 305)" class="q"><use xlink:href="#I"/><use xlink:href="#J"/><use xlink:href="#K"/><use xlink:href="#L"/></g><g transform="matrix(-.0521 .01327 .01633 .05243 244 269)" class="q"><use xlink:href="#I"/><use xlink:href="#J"/><use xlink:href="#K"/><use xlink:href="#L"/></g><g transform="matrix(-.03508 .03726 .04587 .0353 239 281)" class="q"><use xlink:href="#I"/><use xlink:href="#J"/><use xlink:href="#K"/><use xlink:href="#L"/></g><g transform="matrix(-.02741 .0422 .05194 .0276 227 283)" class="q"><use xlink:href="#I"/><use xlink:href="#J"/><use xlink:href="#K"/><use xlink:href="#L"/></g><g transform="matrix(.00324 .04885 .06013 -.00326 232 294)" class="q"><use xlink:href="#I"/><use xlink:href="#J"/><use xlink:href="#K"/><use xlink:href="#L"/></g><g transform="matrix(.0473 -.02378 -.02927 -.0476 270 285)" class="q"><use xlink:href="#I"/><use xlink:href="#J"/><use xlink:href="#K"/><use xlink:href="#L"/></g><g transform="matrix(.02462 -.04358 -.05364 -.02478 272 273)" class="q"><use xlink:href="#I"/><use xlink:href="#J"/><use xlink:href="#K"/><use xlink:href="#L"/></g><g transform="matrix(.03436 -.03781 -.04655 -.03458 274 280)" class="q"><use xlink:href="#I"/><use xlink:href="#J"/><use xlink:href="#K"/><use xlink:href="#L"/></g><g transform="matrix(.00523 -.0487 -.05996 -.00526 270 268)" class="q"><use xlink:href="#I"/><use xlink:href="#J"/><use xlink:href="#K"/><use xlink:href="#L"/></g><g transform="matrix(-.0473 .02378 -.02927 -.0476 251 306)" class="q"><use xlink:href="#I"/><use xlink:href="#J"/><use xlink:href="#K"/><use xlink:href="#L"/></g><g transform="matrix(-.05393 -.0041 .00504 -.05428 239 301)" class="q"><use xlink:href="#I"/><use xlink:href="#J"/><use xlink:href="#K"/><use xlink:href="#L"/></g><g transform="matrix(.0541 .00116 .00143 -.05445 257 297)" class="q"><use xlink:href="#I"/><use xlink:href="#J"/><use xlink:href="#K"/><use xlink:href="#L"/></g><g transform="matrix(.04564 -.0263 -.03237 -.04594 265 287)" class="q"><use xlink:href="#I"/><use xlink:href="#J"/><use xlink:href="#K"/><use xlink:href="#L"/></g><g transform="matrix(.05114 .01602 .01972 -.05147 273 293)" class="q"><use xlink:href="#I"/><use xlink:href="#J"/><use xlink:href="#K"/><use xlink:href="#L"/></g><g transform="matrix(.05234 -.01247 -.01535 -.05267 284 286)" class="q"><use xlink:href="#I"/><use xlink:href="#J"/><use xlink:href="#K"/><use xlink:href="#L"/></g><g transform="matrix(.05407 -.00206 -.00254 -.05442 277 289)" class="q"><use xlink:href="#I"/><use xlink:href="#J"/><use xlink:href="#K"/><use xlink:href="#L"/></g><g transform="matrix(.04363 -.02896 -.03565 -.0439 285 278)" class="q"><use xlink:href="#I"/><use xlink:href="#J"/><use xlink:href="#K"/><use xlink:href="#L"/></g><g transform="matrix(-.05114 -.01602 .01972 -.05147 244 285)" class="q"><use xlink:href="#I"/><use xlink:href="#J"/><use xlink:href="#K"/><use xlink:href="#L"/></g><g transform="matrix(-.0326 -.03907 .0481 -.0328 240 273)" class="q"><use xlink:href="#I"/><use xlink:href="#J"/><use xlink:href="#K"/><use xlink:href="#L"/></g><g transform="matrix(.03512 .03723 .04583 -.03535 259 297)" class="q"><use xlink:href="#I"/><use xlink:href="#J"/><use xlink:href="#K"/><use xlink:href="#L"/></g><g transform="matrix(.05211 .01322 .01627 -.05245 272 294)" class="q"><use xlink:href="#I"/><use xlink:href="#J"/><use xlink:href="#K"/><use xlink:href="#L"/></g><g transform="matrix(.05114 .01602 .01972 -.05147 266 291)" class="q"><use xlink:href="#I"/><use xlink:href="#J"/><use xlink:href="#K"/><use xlink:href="#L"/></g><g transform="matrix(.05234 -.01247 -.01535 -.05267 277 284)" class="q"><use xlink:href="#I"/><use xlink:href="#J"/><use xlink:href="#K"/><use xlink:href="#L"/></g><g transform="matrix(.05407 -.00206 -.00254 -.05442 270 287)" class="q"><use xlink:href="#I"/><use xlink:href="#J"/><use xlink:href="#K"/><use xlink:href="#L"/></g><g transform="matrix(.04363 -.02896 -.03565 -.0439 277 277)" class="q"><use xlink:href="#I"/><use xlink:href="#J"/><use xlink:href="#K"/><use xlink:href="#L"/></g><g transform="matrix(-.05114 -.01602 .01972 -.05147 236 284)" class="q"><use xlink:href="#I"/><use xlink:href="#J"/><use xlink:href="#K"/><use xlink:href="#L"/></g><g transform="matrix(-.0326 -.03907 .0481 -.0328 232 272)" class="q"><use xlink:href="#I"/><use xlink:href="#J"/><use xlink:href="#K"/><use xlink:href="#L"/></g><g transform="matrix(.03512 .03723 .04583 -.03535 251 296)" class="q"><use xlink:href="#I"/><use xlink:href="#J"/><use xlink:href="#K"/><use xlink:href="#L"/></g><g transform="matrix(.05211 .01322 .01627 -.05245 264 293)" class="q"><use xlink:href="#I"/><use xlink:href="#J"/><use xlink:href="#K"/><use xlink:href="#L"/></g><g transform="matrix(-.05114 .01602 -.01972 -.05147 234 295)" class="q"><use xlink:href="#I"/><use xlink:href="#J"/><use xlink:href="#K"/><use xlink:href="#L"/></g><g transform="matrix(-.05234 -.01247 .01535 -.05267 223 288)" class="q"><use xlink:href="#I"/><use xlink:href="#J"/><use xlink:href="#K"/><use xlink:href="#L"/></g><g transform="matrix(-.05407 -.00206 .00254 -.05442 230 291)" class="q"><use xlink:href="#I"/><use xlink:href="#J"/><use xlink:href="#K"/><use xlink:href="#L"/></g><g transform="matrix(-.04363 -.02896 .03565 -.0439 223 280)" class="q"><use xlink:href="#I"/><use xlink:href="#J"/><use xlink:href="#K"/><use xlink:href="#L"/></g><g transform="matrix(.05114 -.01602 -.01972 -.05147 263 287)" class="q"><use xlink:href="#I"/><use xlink:href="#J"/><use xlink:href="#K"/><use xlink:href="#L"/></g><g transform="matrix(.0326 -.03907 -.0481 -.0328 267 275)" class="q"><use xlink:href="#I"/><use xlink:href="#J"/><use xlink:href="#K"/><use xlink:href="#L"/></g><g transform="matrix(-.03512 .03723 -.04583 -.03535 249 299)" class="q"><use xlink:href="#I"/><use xlink:href="#J"/><use xlink:href="#K"/><use xlink:href="#L"/></g><g transform="matrix(-.05211 .01322 -.01627 -.05245 235 296)" class="q"><use xlink:href="#I"/><use xlink:href="#J"/><use xlink:href="#K"/><use xlink:href="#L"/></g><g transform="matrix(-.05114 .01602 -.01972 -.05147 240 293)" class="q"><use xlink:href="#I"/><use xlink:href="#J"/><use xlink:href="#K"/><use xlink:href="#L"/></g><g transform="matrix(-.05234 -.01247 .01535 -.05267 229 286)" class="q"><use xlink:href="#I"/><use xlink:href="#J"/><use xlink:href="#K"/><use xlink:href="#L"/></g><g transform="matrix(-.05407 -.00206 .00254 -.05442 236 289)" class="q"><use xlink:href="#I"/><use xlink:href="#J"/><use xlink:href="#K"/><use xlink:href="#L"/></g><g transform="matrix(-.04363 -.02896 .03565 -.0439 229 279)" class="q"><use xlink:href="#I"/><use xlink:href="#J"/><use xlink:href="#K"/><use xlink:href="#L"/></g><g transform="matrix(.05114 -.01602 -.01972 -.05147 270 286)" class="q"><use xlink:href="#I"/><use xlink:href="#J"/><use xlink:href="#K"/><use xlink:href="#L"/></g><g transform="matrix(.0326 -.03907 -.0481 -.0328 273 274)" class="q"><use xlink:href="#I"/><use xlink:href="#J"/><use xlink:href="#K"/><use xlink:href="#L"/></g><g transform="matrix(-.03512 .03723 -.04583 -.03535 255 298)" class="q"><use xlink:href="#I"/><use xlink:href="#J"/><use xlink:href="#K"/><use xlink:href="#L"/></g><g transform="matrix(-.05211 .01322 -.01627 -.05245 242 294)" class="q"><use xlink:href="#I"/><use xlink:href="#J"/><use xlink:href="#K"/><use xlink:href="#L"/></g><g transform="matrix(.03962 .03333 .04103 -.03988 266 301)" class="q"><use xlink:href="#I"/><use xlink:href="#J"/><use xlink:href="#K"/><use xlink:href="#L"/></g><g transform="matrix(.05345 .00771 .0095 -.05379 279 298)" class="q"><use xlink:href="#I"/><use xlink:href="#J"/><use xlink:href="#K"/><use xlink:href="#L"/></g><g transform="matrix(.05039 .01787 .022 -.05071 271 299)" class="q"><use xlink:href="#I"/><use xlink:href="#J"/><use xlink:href="#K"/><use xlink:href="#L"/></g><g transform="matrix(.05285 -.01055 -.01299 -.05319 282 292)" class="q"><use xlink:href="#I"/><use xlink:href="#J"/><use xlink:href="#K"/><use xlink:href="#L"/></g><g transform="matrix(-.03962 -.03333 .04103 -.03988 242 283)" class="q"><use xlink:href="#I"/><use xlink:href="#J"/><use xlink:href="#K"/><use xlink:href="#L"/></g><g transform="matrix(-.01236 -.04765 .05865 -.01244 244 271)" class="q"><use xlink:href="#I"/><use xlink:href="#J"/><use xlink:href="#K"/><use xlink:href="#L"/></g><g transform="matrix(.0155 .04689 .05772 -.0156 250 300)" class="q"><use xlink:href="#I"/><use xlink:href="#J"/><use xlink:href="#K"/><use xlink:href="#L"/></g><g transform="matrix(.04176 .03113 .03832 -.04203 263 301)" class="q"><use xlink:href="#I"/><use xlink:href="#J"/><use xlink:href="#K"/><use xlink:href="#L"/></g><g transform="matrix(.03962 .03333 .04103 -.03988 259 297)" class="q"><use xlink:href="#I"/><use xlink:href="#J"/><use xlink:href="#K"/><use xlink:href="#L"/></g><g transform="matrix(.05345 .00771 .0095 -.05379 273 294)" class="q"><use xlink:href="#I"/><use xlink:href="#J"/><use xlink:href="#K"/><use xlink:href="#L"/></g><g transform="matrix(.05039 .01787 .022 -.05071 265 294)" class="q"><use xlink:href="#I"/><use xlink:href="#J"/><use xlink:href="#K"/><use xlink:href="#L"/></g><g transform="matrix(.05285 -.01055 -.01299 -.05319 276 288)" class="q"><use xlink:href="#I"/><use xlink:href="#J"/><use xlink:href="#K"/><use xlink:href="#L"/></g><g transform="matrix(-.03962 -.03333 .04103 -.03988 235 279)" class="q"><use xlink:href="#I"/><use xlink:href="#J"/><use xlink:href="#K"/><use xlink:href="#L"/></g><g transform="matrix(-.01236 -.04765 .05865 -.01244 237 267)" class="q"><use xlink:href="#I"/><use xlink:href="#J"/><use xlink:href="#K"/><use xlink:href="#L"/></g><g transform="matrix(.0155 .04689 .05772 -.0156 244 295)" class="q"><use xlink:href="#I"/><use xlink:href="#J"/><use xlink:href="#K"/><use xlink:href="#L"/></g><g transform="matrix(.04176 .03113 .03832 -.04203 257 297)" class="q"><use xlink:href="#I"/><use xlink:href="#J"/><use xlink:href="#K"/><use xlink:href="#L"/></g><g transform="matrix(-.053 -.00995 -.01225 .05333 250 264)" class="q"><use xlink:href="#I"/><use xlink:href="#J"/><use xlink:href="#K"/><use xlink:href="#L"/></g><g transform="matrix(-.05013 .01844 .0227 .05046 240 272)" class="q"><use xlink:href="#I"/><use xlink:href="#J"/><use xlink:href="#K"/><use xlink:href="#L"/></g><g transform="matrix(-.0311 -.04006 -.0493 .0313 265 260)" class="q"><use xlink:href="#I"/><use xlink:href="#J"/><use xlink:href="#K"/><use xlink:href="#L"/></g><g transform="matrix(-.0505 -.0176 -.02166 .05083 252 260)" class="q"><use xlink:href="#I"/><use xlink:href="#J"/><use xlink:href="#K"/><use xlink:href="#L"/></g><g transform="matrix(-.04082 -.03213 -.03955 .04108 254 260)" class="q"><use xlink:href="#I"/><use xlink:href="#J"/><use xlink:href="#K"/><use xlink:href="#L"/></g><g transform="matrix(-.0537 -.00611 -.00753 .05404 241 262)" class="q"><use xlink:href="#I"/><use xlink:href="#J"/><use xlink:href="#K"/><use xlink:href="#L"/></g><g transform="matrix(-.0521 .01327 .01633 .05243 226 271)" class="q"><use xlink:href="#I"/><use xlink:href="#J"/><use xlink:href="#K"/><use xlink:href="#L"/></g><g transform="matrix(-.03508 .03726 .04587 .0353 222 282)" class="q"><use xlink:href="#I"/><use xlink:href="#J"/><use xlink:href="#K"/><use xlink:href="#L"/></g><g transform="matrix(-.00576 -.04866 -.0599 .0058 263 267)" class="q"><use xlink:href="#I"/><use xlink:href="#J"/><use xlink:href="#K"/><use xlink:href="#L"/></g><g transform="matrix(-.03477 -.0375 -.04616 .035 251 261)" class="q"><use xlink:href="#I"/><use xlink:href="#J"/><use xlink:href="#K"/><use xlink:href="#L"/></g><g transform="matrix(-.01985 .04553 -.05604 -.01998 269 301)" class="q"><use xlink:href="#I"/><use xlink:href="#J"/><use xlink:href="#K"/><use xlink:href="#L"/></g><g transform="matrix(-.04454 .0278 -.03422 -.04483 256 304)" class="q"><use xlink:href="#I"/><use xlink:href="#J"/><use xlink:href="#K"/><use xlink:href="#L"/></g><g transform="matrix(-.01985 .04553 -.05604 -.01998 273 300)" class="q"><use xlink:href="#I"/><use xlink:href="#J"/><use xlink:href="#K"/><use xlink:href="#L"/></g><g transform="matrix(-.04454 .0278 -.03422 -.04483 260 303)" class="q"><use xlink:href="#I"/><use xlink:href="#J"/><use xlink:href="#K"/><use xlink:href="#L"/></g><g transform="matrix(-.04647 .02509 -.03088 -.04677 257 305)" class="q"><use xlink:href="#I"/><use xlink:href="#J"/><use xlink:href="#K"/><use xlink:href="#L"/></g><g stroke-width=".049"><path d="M260.783 282.206l-.153-.171-.159-.062-.213-.065c-.054-.003-.146-.28-.203-.228l-.048-.111-.102-.114.057-.052-.045-.166.057-.052.006-.109.057-.052.06-.106.105.06.111-.049c-.057.052.102.114.105.06-.054-.003-.006.109.051.057-.006.109.102.114.149.225l.051.057.076.549-.01.163.048.111zm.477-.741l-.045-.166c-.048-.111-.102-.114-.21-.119l-.099-.168c-.051-.057-.035-.329-.143-.334l.06-.106-.048-.111.057-.052.01-.163.054.003.064-.161.108.005.057-.052.105.06.051.057s.102.114.108.005c-.054-.003-.01.163.048.111-.06.106.045.166.038.275l-.003.054a.64.64 0 0 1-.14.539l-.064.161.045.166zm-.022.381l.219-.044.118-.158.169-.101c.06-.106.327-.039.331-.093l.108.005.111-.049.051.057.159.062.051.057.105.06-.006.109.051.057-.06.106-.057.052-.06.106c.003-.054-.105-.06-.111.049l-.324-.015c-.165.047-.378-.018-.534-.135l-.102-.114-.165.047zm.124-.267l.118-.158.025-.435c-.051-.057.175-.21.127-.321.051.057.054.003.111-.049l.06-.106.054.003.111-.049.108.005.111-.049.051.057.108.005-.01.163.051.057c-.054-.003-.01.163.048.111-.051-.057-.111.049-.06.106-.108-.005-.118.158-.175.21l-.057.052-.448.251-.165.047-.114.104z"/><path d="M260.881 282.374l.121-.212-.099-.168-.041-.22c-.051-.057.124-.267.073-.324l.06-.106.006-.109.057-.052.114-.104.054.003.111-.049.216.01-.006.109.051.057s.045.166.102.114c-.051-.057-.111.049-.006.109-.111.049-.064.161-.121.212l-.057.052c-.067.215-.181.319-.35.42l-.169.101-.064.161z"/><path d="M260.662 282.418l.162.008.223-.098.165-.047.324.015.105.06.108.005.051.057.105.06-.006.109.105.06-.013.218-.111.049-.003.054c-.051-.057-.165.047-.111.049s-.105-.06-.111.049c-.048-.111-.159-.062-.264-.122l-.054-.003c-.162-.008-.315-.179-.416-.293l-.099-.168-.162-.008z"/><path d="M260.309 282.892l.172-.155-.041-.22.01-.163.181-.319.057-.052.06-.106.108.005.06-.106.105.06.111-.049.051.057.108.005-.006.109.051.057c-.057.052-.01.163.048.111l-.06.106-.175.21-.003.054c-.118.158-.34.257-.506.303l-.162-.008-.118.158zm1.717-1.555l.223-.098.067-.215.064-.161c.06-.106.28-.15.286-.259l.108.005c.108.005.057-.052.114-.104l.051.057.165-.047.048.111.108.005.051.057.105.06-.06.106-.006.109c-.051-.057-.114.104-.006.109.003-.054-.162-.008-.111.049l-.223.098c-.054-.003-.108-.005-.057.052a.64.64 0 0 1-.544.029l-.162-.008-.165.047z"/></g><g transform="matrix(-.01985 .04553 -.05604 -.01998 276 299)" class="q"><use xlink:href="#I"/><use xlink:href="#J"/><use xlink:href="#K"/><use xlink:href="#L"/></g><g transform="matrix(-.04454 .0278 -.03422 -.04483 263 302)" class="q"><use xlink:href="#I"/><use xlink:href="#J"/><use xlink:href="#K"/><use xlink:href="#L"/></g><g transform="matrix(-.02168 -.04484 .0552 -.02182 239 275)" class="q"><use xlink:href="#I"/><use xlink:href="#J"/><use xlink:href="#K"/><use xlink:href="#L"/></g><g transform="matrix(.00963 -.04816 .05928 .0097 246 264)" class="q"><use xlink:href="#I"/><use xlink:href="#J"/><use xlink:href="#K"/><use xlink:href="#L"/></g><g transform="matrix(.01058 -.048 .05908 .01065 244 264)" class="q"><use xlink:href="#I"/><use xlink:href="#J"/><use xlink:href="#K"/><use xlink:href="#L"/></g><g transform="matrix(.03836 -.03452 .0425 .03861 257 260)" class="q"><use xlink:href="#I"/><use xlink:href="#J"/><use xlink:href="#K"/><use xlink:href="#L"/></g><g transform="matrix(-.02741 .0422 .05194 .0276 226 280)" class="q"><use xlink:href="#I"/><use xlink:href="#J"/><use xlink:href="#K"/><use xlink:href="#L"/></g><g transform="matrix(.00324 .04885 .06013 -.00326 231 291)" class="q"><use xlink:href="#I"/><use xlink:href="#J"/><use xlink:href="#K"/><use xlink:href="#L"/></g><g transform="matrix(-.02741 .0422 .05194 .0276 225 277)" class="q"><use xlink:href="#I"/><use xlink:href="#J"/><use xlink:href="#K"/><use xlink:href="#L"/></g><g transform="matrix(.00324 .04885 .06013 -.00326 230 288)" class="q"><use xlink:href="#I"/><use xlink:href="#J"/><use xlink:href="#K"/><use xlink:href="#L"/></g><g transform="matrix(.02741 .0422 -.05194 .0276 275 281)" class="q"><use xlink:href="#I"/><use xlink:href="#J"/><use xlink:href="#K"/><use xlink:href="#L"/></g><g transform="matrix(-.00324 .04885 -.06013 -.00326 270 292)" class="q"><use xlink:href="#I"/><use xlink:href="#J"/><use xlink:href="#K"/><use xlink:href="#L"/></g><g transform="matrix(-.02741 .0422 .05194 .0276 218 279)" class="q"><use xlink:href="#I"/><use xlink:href="#J"/><use xlink:href="#K"/><use xlink:href="#L"/></g><g transform="matrix(.00324 .04885 .06013 -.00326 223 290)" class="q"><use xlink:href="#I"/><use xlink:href="#J"/><use xlink:href="#K"/><use xlink:href="#L"/></g><g transform="matrix(-.02741 .0422 .05194 .0276 219 283)" class="q"><use xlink:href="#I"/><use xlink:href="#J"/><use xlink:href="#K"/><use xlink:href="#L"/></g><g transform="matrix(.00324 .04885 .06013 -.00326 224 294)" class="q"><use xlink:href="#I"/><use xlink:href="#J"/><use xlink:href="#K"/><use xlink:href="#L"/></g><g transform="matrix(-.01664 .04657 .05732 .01674 222 290)" class="q"><use xlink:href="#I"/><use xlink:href="#J"/><use xlink:href="#K"/><use xlink:href="#L"/></g><g transform="matrix(.01489 .04705 .05792 -.01498 230 300)" class="q"><use xlink:href="#I"/><use xlink:href="#J"/><use xlink:href="#K"/><use xlink:href="#L"/></g><g transform="matrix(-.02741 .0422 .05194 .0276 233 286)" class="q"><use xlink:href="#I"/><use xlink:href="#J"/><use xlink:href="#K"/><use xlink:href="#L"/></g><g transform="matrix(.00324 .04885 .06013 -.00326 239 297)" class="q"><use xlink:href="#I"/><use xlink:href="#J"/><use xlink:href="#K"/><use xlink:href="#L"/></g><g transform="matrix(-.05114 .01602 -.01972 -.05147 246 296)" class="q"><use xlink:href="#I"/><use xlink:href="#J"/><use xlink:href="#K"/><use xlink:href="#L"/></g><g transform="matrix(-.05234 -.01247 .01535 -.05267 235 289)" class="q"><use xlink:href="#I"/><use xlink:href="#J"/><use xlink:href="#K"/><use xlink:href="#L"/></g><g transform="matrix(-.05407 -.00206 .00254 -.05442 242 292)" class="q"><use xlink:href="#I"/><use xlink:href="#J"/><use xlink:href="#K"/><use xlink:href="#L"/></g><g transform="matrix(-.04363 -.02896 .03565 -.0439 235 282)" class="q"><use xlink:href="#I"/><use xlink:href="#J"/><use xlink:href="#K"/><use xlink:href="#L"/></g><g transform="matrix(.05114 -.01602 -.01972 -.05147 276 288)" class="q"><use xlink:href="#I"/><use xlink:href="#J"/><use xlink:href="#K"/><use xlink:href="#L"/></g><g transform="matrix(.0326 -.03907 -.0481 -.0328 279 277)" class="q"><use xlink:href="#I"/><use xlink:href="#J"/><use xlink:href="#K"/><use xlink:href="#L"/></g><g transform="matrix(-.03512 .03723 -.04583 -.03535 261 301)" class="q"><use xlink:href="#I"/><use xlink:href="#J"/><use xlink:href="#K"/><use xlink:href="#L"/></g><g transform="matrix(-.05211 .01322 -.01627 -.05245 248 297)" class="q"><use xlink:href="#I"/><use xlink:href="#J"/><use xlink:href="#K"/><use xlink:href="#L"/></g><g transform="matrix(-.03436 -.03781 .04655 -.03458 231 278)" class="q"><use xlink:href="#I"/><use xlink:href="#J"/><use xlink:href="#K"/><use xlink:href="#L"/></g><g transform="matrix(-.00523 -.0487 .05996 -.00526 235 266)" class="q"><use xlink:href="#I"/><use xlink:href="#J"/><use xlink:href="#K"/><use xlink:href="#L"/></g></g></g><path d="M262.636 317.255l-.23.23-.23.46-.46 2.988h-.23l-2.069-2.528v-.23a.46.46 0 0 0-.23 0h-.46l1.609-.46v.23h-.23v.46l1.379 1.839.46-2.069v-.69h-.46l1.149-.23m3.908 1.379v.919l-2.988.919v-.23h.23l.23-.23v-.23l-.46-2.299-.23-.23h-.46l1.609-.46-.46.23v.46l.46 2.069.23.23h.69l.69-.23a.69.69 0 0 0 .23-.46l.23-.46m2.528-3.218l.23.69-.23-.23a.46.46 0 0 0-.23-.23l-.46.23h-.46l.69 2.528.23.23h.46l.23.23-1.609.46v-.23l.23-.23v-.23l-.69-2.528-.46.23h-.23l-.23.23v.46h-.23v-.69l2.758-.919m5.057 1.609l-1.149.46-1.609-1.149-.23.23h-.23l.46.919v.23h.69l-1.609.69v-.23l.46-.23-.23-.23-.69-2.069-.23-.46h-.23l-.23.23v-.23l1.149-.46.919-.23a.92.92 0 0 1 .46.23.69.69 0 0 1 .46.23v.69l-.46.46.919.69.69.23.46-.23.23.23m-3.218-.69c.46 0 .69-.23.69-.46v-.69l-.23-.23h-.69l-.23.23.46 1.149m4.827-1.839l-1.149.919v.919h.69l-1.149.69-.23-.23.46-.23v-.46l-.46-2.988.23-.23 2.758 1.609h.46l.23-.23.23.23-1.379.919.23-.23v-.23l-.46-.23-.46-.23m0 0l-1.379-.69.23 1.379 1.149-.69" stroke-width=".046" class="t AD"/><path d="M197.228 214.268v83.439c.409 21.253 12.516 40.544 31.476 50.153s41.677 7.967 59.058-4.269 26.588-33.068 23.936-54.159v-75.394h-114.47z" stroke-width=".69" class="t u"/></svg>