<svg width="512" height="512" xmlns:xlink="http://www.w3.org/1999/xlink" xmlns="http://www.w3.org/2000/svg"><path fill="#ffc82e" style="stroke-width:1.024" d="M0 0h512v512H0z"/><path fill="#66bc29" style="stroke-width:1.024" d="M0 0h512v384H0z"/><path fill="#fff" style="stroke-width:1.024" d="M0 0h512v256H0z"/><path fill="#dc291e" style="stroke-width:1.024" d="M0 0h512v128H0z"/><g transform="translate(-128 102) scale(1.024)"><g id="a"><g stroke="#010101" stroke-width="2.5" fill="#eac102"><path d="M3614 1143c-3 6-7 11-14 16l-60-63c6-9 8-14 7-25-2-41-88-94-199-112-111-19-299-119-356-99l22-37c22 2 75 35 103 41l45 16c38 14 77 30 113 42a1020 1020 0 0 0 139 37 430 430 0 0 1 37 12 383 383 0 0 1 87 46c7 5 13 11 18 17a80 80 0 0 1 15 25 35 35 0 0 1 1 8c1 5 0 9-1 13l-6 12 49 51z" transform="matrix(-.10907 -.00104 .00023 .10397 701 -40)"/><path d="m3614 1143-49-51 6-12c1-4 2-8 1-13a35 35 0 0 0-1-8l-3-8c-3-6-7-11-12-17s-11-12-18-17a229 229 0 0 0-53-33c-10-5-22-9-34-13a430 430 0 0 0-37-12 448 448 0 0 0-62-13 531 531 0 0 1-77-24c-36-12-75-28-113-42l-45-16c88 21 199 60 271 74 119 22 233 93 233 165 0 15 0 28-7 40z" transform="matrix(-.10907 -.00104 .00023 .10397 701 -40)"/></g><path stroke-linejoin="round" d="M2983-135a24 24 0 1 1-48 0 24 24 0 0 1 48 0z" fill-rule="evenodd" transform="matrix(.11426 .00115 .00024 .11654 27 54)" stroke="#000" stroke-linecap="round" stroke-width="2.3" fill="#e3e4e5"/><path stroke-linejoin="round" d="M2983-135a24 24 0 1 1-48 0 24 24 0 0 1 48 0z" fill-rule="evenodd" transform="matrix(.11426 .00115 .00024 .11654 19 57)" stroke="#000" stroke-linecap="round" stroke-width="2.3" fill="#e3e4e5"/><path stroke-linejoin="round" d="M2983-135a24 24 0 1 1-48 0 24 24 0 0 1 48 0z" fill-rule="evenodd" transform="matrix(.11426 .00115 .00024 .11654 11 59)" stroke="#000" stroke-linecap="round" stroke-width="2.3" fill="#e3e4e5"/><path stroke-linejoin="round" d="M2983-135a24 24 0 1 1-48 0 24 24 0 0 1 48 0z" fill-rule="evenodd" transform="matrix(.11426 .00115 .00024 .11654 2 61)" stroke="#000" stroke-linecap="round" stroke-width="2.3" fill="#e3e4e5"/><path stroke-linejoin="round" d="M2983-135a24 24 0 1 1-48 0 24 24 0 0 1 48 0z" fill-rule="evenodd" transform="matrix(.11426 .00115 .00024 .11654 -6 63)" stroke="#000" stroke-linecap="round" stroke-width="2.3" fill="#e3e4e5"/><path stroke-linejoin="round" d="M2983-135a24 24 0 1 1-48 0 24 24 0 0 1 48 0z" fill-rule="evenodd" transform="matrix(.11426 .00115 .00024 .11654 -15 66)" stroke="#000" stroke-linecap="round" stroke-width="2.3" fill="#e3e4e5"/><path stroke-linejoin="round" d="M2983-135a24 24 0 1 1-48 0 24 24 0 0 1 48 0z" fill-rule="evenodd" transform="matrix(.11426 .00115 .00024 .11654 -24 70)" stroke="#000" stroke-linecap="round" stroke-width="2.3" fill="#e3e4e5"/><path stroke-linejoin="round" d="M2983-135a24 24 0 1 1-48 0 24 24 0 0 1 48 0z" fill-rule="evenodd" transform="matrix(.11426 .00115 .00024 .11654 -30 75)" stroke="#000" stroke-linecap="round" stroke-width="2.3" fill="#e3e4e5"/><g stroke="#000" fill-rule="evenodd" stroke-width="1.3"><path stroke-linejoin="round" d="M346 1a11 11 0 1 0 0 22c6 0 10-5 10-11s-4-11-10-11zm-20 13a11 11 0 1 0 0 21c6 0 10-5 10-10 0-6-4-11-10-11zm-21 12a11 11 0 1 0 0 22 11 11 0 0 0 0-22zm-21 11a11 11 0 1 0 0 21 11 11 0 0 0 0-21zm-22 10c-6 0-11 4-11 10a11 11 0 0 0 22 0c0-6-5-10-11-10zm-22 11c-5 0-10 4-10 10a11 11 0 1 0 10-10zm-21 13c-6 0-10 5-10 10a11 11 0 0 0 21 0c0-5-5-10-11-10zm-18 20a11 11 0 1 0 0 21c5 0 10-5 10-11s-5-10-10-10z" stroke-linecap="round" fill="#e3e4e5" transform="matrix(.18632 .00342 -.00199 .22196 304 41)"/><path d="M371-7c-6 0-12 2-12 6-97 79-146 65-172 117 11 15 0 38 12 69l11 1c-1-23-4-47 14-61 8-44 73-50 147-113V-7z" fill="#eac102" transform="matrix(.18632 .00342 -.00199 .22196 304 41)"/></g></g><use xlink:href="#a" transform="matrix(-1 0 0 1 750 0)"/><path d="M375 53c8 0 20 2 23 5l11 4 9 1c2-1 8 1 13 5 4 3 4 6 6 9l-17 33h-90l-17-33c2-3 2-6 6-9 5-4 11-6 14-5l8-1 11-4c4-3 14-5 23-5z" stroke="#000" stroke-width=".3" fill="#ed1c24"/><g stroke-linejoin="round" fill-rule="evenodd" stroke="#000" stroke-linecap="round" stroke-width=".3"><path d="M381 38a6 6 0 1 1-12 0 6 6 0 0 1 12 0z" fill="#0071bc"/><path d="M374 24v2h-2v1h2v5h2v-5h2v-1h-2v-2z" fill="#eac102"/><path d="M374 31v5h-5 0v3h0s0 0 0 0 0 0 0 0a6 6 0 0 1 0-1h12a6 6 0 0 1 0 1s0 0 0 0 0 0 0 0a1 1 0 0 0 0 0v-3h0-5v-5h-2z" fill="#eac102"/></g><use xlink:href="#b" transform="matrix(-1 0 0 1 750 0)"/><g id="b"><g stroke="#010101" stroke-width=".9" fill="#eac102"><path d="M2041-9c0 5 0 12-2 17l-6 9-15-32c2-2 3-1 3-7 0-16-25-22-47-28-27-7-62-44-73-31 4-7 12-8 21-6l1 1 11 6 12 8a230 230 0 0 0 23 12 52 52 0 0 0 6 2h5l10 2a73 73 0 0 1 10 3l8 4a61 61 0 0 1 8 5 49 49 0 0 1 6 6l5 6 2 6 1 7c-1 11-1 5-5 8l10 17 3-6 2-7v-2z" transform="matrix(-.39389 .06688 .05599 .20878 1133 -68)"/><path d="m2041-9-1 2-2 7-3 6-11-17c6 1 7-10 5-15l-2-6-5-6a49 49 0 0 0-6-6 61 61 0 0 0-8-5l-8-4a73 73 0 0 0-10-3 72 72 0 0 0-10-2 35 35 0 0 1-5 0 52 52 0 0 1-6-2l-11-6-12-6-12-8-11-6-1-1c18 5 42 19 60 21 28 4 63 20 59 56v1z" transform="matrix(-.39389 .06688 .05599 .20878 1133 -68)"/></g><g stroke-linejoin="round" fill-rule="evenodd" stroke="#000" stroke-linecap="round" stroke-width="2.3" fill="#e3e4e5"><path d="M2983-135a24 24 0 1 1-48 0 24 24 0 0 1 48 0z" transform="matrix(.11415 -.00966 .01057 .12017 31 87)"/><path d="M2983-135a24 24 0 1 1-48 0 24 24 0 0 1 48 0z" transform="matrix(.11415 -.00966 .01057 .12017 4 97)"/><path d="M2983-135a24 24 0 1 1-48 0 24 24 0 0 1 48 0z" transform="matrix(.11415 -.00966 .01057 .12017 -2 99)"/><path d="M2983-135a24 24 0 1 1-48 0 24 24 0 0 1 48 0z" transform="matrix(.11415 -.00966 .01057 .12017 -6 103)"/><path d="M2983-135a24 24 0 1 1-48 0 24 24 0 0 1 48 0z" transform="matrix(.11415 -.00966 .01057 .12017 26 89)"/><path d="M2983-135a24 24 0 1 1-48 0 24 24 0 0 1 48 0z" transform="matrix(.11415 -.00966 .01057 .12017 20 91)"/><path d="M2983-135a24 24 0 1 1-48 0 24 24 0 0 1 48 0z" transform="matrix(.11415 -.00966 .01057 .12017 15 93)"/><path d="M2983-135a24 24 0 1 1-48 0 24 24 0 0 1 48 0z" transform="matrix(.11415 -.00966 .01057 .12017 10 95)"/></g></g><g stroke="#000" fill="#eac102"><path d="M1884-88c-5 2-8 5-9 9-2 6-2 12-2 19v3l-1 2c0 15-3 28-6 36l28 22 28-22c-3-8-6-21-6-36l-1-2 1-3c-1-7-1-13-3-19-1-4-4-7-8-9v42a97 97 0 0 0 4 23l-15 14-15-14 3-10 1-13v-42z" transform="matrix(.25821 0 0 .25508 -114 64)"/><path d="m1884-88-1 8v1a33293 33293 0 0 1-1 46l-3 10 15 14 15-14-3-10-1-13v-42c-3-2-7-3-11-3s-7 1-10 3z" transform="matrix(.25821 0 0 .25508 -114 64)"/></g><g stroke-linejoin="round" fill-rule="evenodd" stroke="#000" stroke-linecap="round" stroke-width="2" fill="#e3e4e5"><path d="M2983-135a24 24 0 1 1-48 0 24 24 0 0 1 48 0z" transform="matrix(.12796 0 0 .13734 -4 61)"/><path d="M2983-135a24 24 0 1 1-48 0 24 24 0 0 1 48 0z" transform="matrix(.12796 0 0 .13734 -4 63)"/><path d="M2983-135a24 24 0 1 1-48 0 24 24 0 0 1 48 0z" transform="matrix(.12796 0 0 .13734 -4 65)"/><path d="M2983-135a24 24 0 1 1-48 0 24 24 0 0 1 48 0z" transform="matrix(.12796 0 0 .13734 -4 66)"/><path d="M2983-135a24 24 0 1 1-48 0 24 24 0 0 1 48 0z" transform="matrix(.12796 0 0 .13734 -4 67)"/><path d="M2983-135a24 24 0 1 1-48 0 24 24 0 0 1 48 0z" transform="matrix(.12796 0 0 .13734 -4 68)"/><path d="M2983-135a24 24 0 1 1-48 0 24 24 0 0 1 48 0z" transform="matrix(.12796 0 0 .13734 -4 70)"/><path d="M2983-135a24 24 0 1 1-48 0 24 24 0 0 1 48 0z" transform="matrix(.12796 0 0 .13734 -4 74)"/></g><g fill-rule="evenodd" stroke="#000" stroke-width="2.6" fill="#eac102"><path d="M2417 230c21 41 46 93 65 86 4-2 5-12-1-44l-37-74c-6-8-20-2-21 7l-6 25z" transform="matrix(.10405 0 0 .09871 67 74)"/><path d="m2449 275 7-20c-14-18-36-50-58-91-5-8-21-3-17 6 30 59 52 90 68 105zm1048-45c-21 41-46 93-65 86-4-2-5-12 1-44l37-74c6-8 20-2 21 7l6 25z" transform="matrix(.10405 0 0 .09871 67 74)"/><path d="m3458 255 7 20c15-15 37-46 68-105 4-9-12-14-17-6-23 41-44 73-58 91z" transform="matrix(.10405 0 0 .09871 67 74)"/></g><g id="c" stroke="#000"><path stroke-linejoin="round" d="m2259-21 14-11c38-10 73 27 73 43 9-9 19-6 29-6-6 19 0 33-7 54 9 3 16 6 18 13l9-5 11-1c2 53-15 41-12 61l19-23 20 2c10 2 12 14 23 15-7 10-12 28-19 40-8 6-16 5-23 2 23 8 29 28 38 39l-22 2c15 21 23 38 38 50l-9 2-44-22-37-38-45-70-2-111c-23-12-19-39-72-36z" fill-rule="evenodd" stroke-linecap="round" stroke-width="2.7" fill="#eac102" transform="matrix(.10405 0 0 .09243 67 75)"/><path stroke-linejoin="round" d="M2258-21c63 7 63 96 75 149l41 68c25 25 42 55 57 59 16 3 15-3 30 1-30-14-16-45-80-64 21-11 21 20 62 11-11-28-35-30-46-40 16-5 18 5 30 1 14-6 11-27 21-41-14-6-25-24-42-15-6 5-15 21-25 25-4-22 10-24 13-35 3-12-2-15 1-31-46 17-29 47-49 60 0-32 9-18 25-54-6-9-10-7-16-10 9-18 1-29 10-54-17-6-22 3-27 9-2-16-38-66-80-39z" fill-rule="evenodd" stroke-width="2.7" fill="#eac102" transform="matrix(.10405 0 0 .09243 67 75)"/><path d="M2348 40c-13 30-12 60-11 90m33-16c-3 15-13 24-23 31m70-9c-24 2-26 17-61 23m7 9c17 4 34 7 45 16m-36 6c23 28 43 31 50 45" stroke-width="1.4" fill="none" transform="matrix(.10405 0 0 .09243 67 75)"/><g stroke-width="2.4"><path d="M2069 731h1c13 0 23-13 23-29s-10-28-23-28h-1v57z" fill="#e3e4e5" transform="matrix(-.09654 .05642 .06351 .08576 467 -87)"/><path d="M2066 669h7v66h-7c-2-25-3-50 0-66z" fill="#eac102" transform="matrix(-.09654 .05642 .06351 .08576 467 -87)"/></g></g><use xlink:href="#c" transform="matrix(-1 0 0 1 750 0)"/><path d="M375 82h-1c0 5-2 11-8 13-7 1-13-8-13-12l-1-1-1 1c1 5 0 11-4 13-5 1-10-5-13-11 0-2-2-1-2 0 3 7 2 12 0 13-3 0-8-6-11-11l-2 1c3 4 5 8 5 12a14 14 0 0 1-1-1l-1 2c2 2 3 1 3 1v-7c2 3 6 6 8 4 3-1 3-4 3-8 3 4 7 7 11 7 4-1 6-5 6-9 3 4 7 8 13 8 5-1 8-7 9-9 1 2 4 8 9 9 6 0 10-4 13-8 0 4 2 8 6 9 4 0 8-3 11-7 0 4 0 7 3 8 2 2 6-1 8-4v7s1 1 3-1l-1-2-1 1c0-4 2-8 5-12l-2-1c-3 5-8 11-11 11-2-1-3-6 0-13 0-1-2-2-2 0-3 6-8 12-13 11-4-2-5-8-4-13h-2c0 4-6 13-13 12-6-2-8-8-8-13h-1z" fill-rule="evenodd" stroke="#000" stroke-width=".3" fill="#eac102"/><g fill-rule="evenodd" stroke="#000" stroke-width="2.6"><path stroke-linejoin="round" d="M3198 1390a29 29 0 1 1-59 0 29 29 0 0 1 59 0z" transform="matrix(.10405 0 0 .09928 68 -56)" stroke-linecap="round" fill="#e3e4e5"/><path d="M3154 1446c11 4 22 6 35 5-1 7-8 4-7 11 1 6-27 4-24-3 2-7-5-5-4-13z" fill="#eac102" transform="matrix(.10405 0 0 .09928 67 -59)"/><path stroke-linejoin="round" d="M3198 1390a29 29 0 1 1-59 0 29 29 0 0 1 59 0z" transform="matrix(-.10405 0 0 .09928 682 -56)" stroke-linecap="round" fill="#e3e4e5"/><path d="M3154 1446c11 4 22 6 35 5-1 7-8 4-7 11 1 6-27 4-24-3 2-7-5-5-4-13z" fill="#eac102" transform="matrix(-.10405 0 0 .09928 683 -59)"/></g><g fill-rule="evenodd" stroke="#000" stroke-width="2.6"><path stroke-linejoin="round" d="M3198 1390a29 29 0 1 1-59 0 29 29 0 0 1 59 0z" transform="matrix(-.098 .0331 .0343 .09233 583 -147)" stroke-linecap="round" fill="#e3e4e5"/><path d="M3154 1446c11 4 22 6 35 5-1 7-8 4-7 11 1 6-27 4-24-3 2-7-5-5-4-13z" fill="#eac102" transform="matrix(-.098 .0331 .0343 .09233 582 -150)"/><path stroke-linejoin="round" d="M3198 1390a29 29 0 1 1-59 0 29 29 0 0 1 59 0z" transform="matrix(.098 .0331 -.0343 .09233 167 -147)" stroke-linecap="round" fill="#e3e4e5"/><path d="M3154 1446c11 4 22 6 35 5-1 7-8 4-7 11 1 6-27 4-24-3 2-7-5-5-4-13z" fill="#eac102" transform="matrix(.098 .0331 -.0343 .09233 168 -150)"/></g><g stroke="#000"><path d="M2842 4s28-5 44 18c15 23 53 21 53 21l-16 51-102-38c-1 0 6-10 19-9s21 18 41 10l-40-53zm235 0s-29-5-45 18c-15 23-53 21-53 21l16 51 102-38c1 0-6-10-19-9s-21 18-41 10l40-53z" fill-rule="evenodd" stroke-width="2.5" fill="#eac102" transform="matrix(.1042 0 0 .10682 67 70)"/><path d="M2959-132c-18 19-36 41-37 69-14-15-28-5-42-2 7 9 0 36 10 53-11 1-15 10-22 16 5 15 53 17 61 46-52-5-36-43-88-46-8 43 25 35 27 58-15 3-19-13-33-12-20 1-28 22-40 29 19 5 26 23 45 28 10 2 15-16 31-8-16 22-32 16-24 46 60 6 36-35 75-29-60 37-27 51-42 80 31-13 42-4 79-30 37 26 48 17 79 30-15-29 18-43-42-80 40-6 15 35 75 29 8-30-8-24-24-46 16-8 21 10 31 8 19-5 27-23 46-28-13-7-21-28-41-29-13-1-17 15-33 12 2-23 36-15 27-58-52 3-36 41-88 46 9-29 56-31 61-46-7-6-11-15-21-16 9-17 2-44 9-53-14-3-28-13-42 2-1-28-19-50-37-69z" fill-rule="evenodd" stroke-width="2.5" fill="#eac102" transform="matrix(.1042 0 0 .10682 67 70)"/><path d="M2959 53v-157m-9 213c-5 18-22 48-41 58m20-75c-15 1-44 16-55 24m53-31c-55 5-78-17-95-10m97-6-29-8c-11-3-17-16-23-22m75 11s-1-10-13-39c-12-28-28-43-28-43m57 141c5 18 22 48 41 58m-20-75c15 1 44 16 55 24m-53-31c55 5 78-17 95-10m-97-6 29-8c11-3 17-16 23-22m-75 11s1-10 13-39c12-28 28-43 28-43" stroke-linecap="round" stroke-width="1.3" fill="none" transform="matrix(.1042 0 0 .10682 67 70)"/><g stroke-linejoin="round" fill-rule="evenodd" stroke-linecap="round"><path d="M2990 82a28 28 0 1 1-55 0 28 28 0 0 1 55 0z" transform="matrix(.13666 0 0 .13068 -30 68)" stroke-width="2" fill="#eac102"/><path d="M2990 82a28 28 0 1 1-55 0 28 28 0 0 1 55 0z" transform="matrix(.10864 0 0 .10386 53 70)" stroke-width="2.5" fill="#e3e4e5"/></g></g><path d="M375 96c-15 0-30 0-45 3-3 1-8 2-9 5s3 5 5 5a352 352 0 0 0 88 2c5 0 10-1 14-4 3-2 0-5-3-6a430 430 0 0 0-50-5z" fill-rule="evenodd" stroke="#000" stroke-width=".3" fill="#eac102"/><path d="M375 100h-21a301 301 0 0 0-3 0 103 103 0 0 0-25 4l-2 1a4 4 0 0 0-1 1l3 10h98l3-10a3 3 0 0 0 0-1l-3-1c-4-1-11-3-25-4a303 303 0 0 0-24 0z" fill-rule="evenodd" stroke="#000" stroke-width=".3" fill="#eac102"/><g stroke-linejoin="round" fill-rule="evenodd" stroke="#000" stroke-linecap="round"><path d="M1796 707a23 23 0 1 1-46 0 23 23 0 0 1 46 0z" transform="matrix(.14645 0 0 .15068 135 -2)" stroke-width="1.8" fill="#eac102"/><path d="M1796 707a23 23 0 1 1-46 0 23 23 0 0 1 46 0z" transform="matrix(.14315 0 0 .15068 141 -2)" stroke-width="1.8" fill="#eac102"/><path d="M1796 707a23 23 0 1 1-46 0 23 23 0 0 1 46 0z" transform="matrix(.12665 0 0 .13033 171 12)" stroke-width="2.1" fill="#e3e4e5"/></g><g stroke-linejoin="round" fill-rule="evenodd" stroke="#000" stroke-linecap="round"><path d="M1796 707a23 23 0 1 1-46 0 23 23 0 0 1 46 0z" transform="matrix(-.14645 0 0 .15068 615 -2)" stroke-width="1.8" fill="#eac102"/><path d="M1796 707a23 23 0 1 1-46 0 23 23 0 0 1 46 0z" transform="matrix(-.14315 0 0 .15068 609 -2)" stroke-width="1.8" fill="#eac102"/><path d="M1796 707a23 23 0 1 1-46 0 23 23 0 0 1 46 0z" transform="matrix(-.12665 0 0 .13033 579 12)" stroke-width="2.1" fill="#e3e4e5"/></g><g stroke-linejoin="round" stroke="#000" stroke-linecap="round"><path d="m1881 701 50-34h4l-48 34h-6zm0 0 50 35h4l-48-35h-6zm54 35 45-34-45-35" stroke-width="2.5" fill="none" transform="matrix(-.10735 .0195 0 .1044 546 -5)"/><path d="m1897 702 36 26 36-26-36-26z" fill-rule="evenodd" stroke-width="2.5" fill="#008f4c" transform="matrix(-.10735 .0195 0 .1044 546 -5)"/><path d="m1921 702 20 14 18-14-19-14-19 14zm12 26 7-12m28-14h-9m-38 0h-23m43-14-8-12" stroke-width="1.5" fill="none" transform="matrix(-.10735 .0195 0 .1044 546 -5)"/></g><g stroke-linejoin="round" stroke="#000" stroke-linecap="round"><path d="m1881 701 50-34h4l-48 34h-6zm0 0 50 35h4l-48-35h-6zm54 35 45-34-45-35" stroke-width="2.5" fill="none" transform="matrix(.10735 .0195 0 .1044 204 -5)"/><path d="m1897 702 36 26 36-26-36-26z" fill-rule="evenodd" stroke-width="2.5" fill="#008f4c" transform="matrix(.10735 .0195 0 .1044 204 -5)"/><path d="m1921 702 20 14 18-14-19-14-19 14zm12 26 7-12m28-14h-9m-38 0h-23m43-14-8-12" stroke-width="1.3" fill="none" transform="matrix(.10735 .0195 0 .1044 204 -5)"/></g><g transform="matrix(.10973 0 0 .1041 200 31)" stroke="#000" stroke-width="2.5"><rect rx="32.6" ry="33.9" height="67.8" width="127.3" y="669.2" x="1531.8" fill="#eac102"/><rect rx="29.3" ry="29.3" height="58.6" width="114.5" y="673.8" x="1538.2" fill="#ed1c24"/></g><path d="m323 99-1 2 1-2Zm104 0 1 2-1-2Z" fill-rule="evenodd" fill="#eac102"/><g id="d" stroke="#000"><path d="m2485-95 12-5c34-5 51 34 54 56 13-5 31-10 51-5-5 21-1 24-9 52 20 4 20 11 26 14-24 20-60 26-61 51l38-6c18-16 18-46 55-46 4 44-21 30-30 62 29 2 90-2 88 7-27 18-25 23-39 33l-10 1c-9-4-14-19-28-10 0 0 8 6 29 15 21 8 17 31 17 31-31 5-43-3-57-11 37 27 27 43 47 65l-5-1c-41 2-62-16-89-25 4 11-15 30-20 41h-4l-23-54c-3 8-7 6-11 8l-25-67c-16-5-13-17-15-28 4 1 4-1 13 2l-11-27-2-20c4 3 12 1 11 12 3 12 8 21 12 31l13-44-25-75 14-6c-5-17 22-36-16-51z" fill-rule="evenodd" stroke-width="2.6" fill="#eac102" transform="matrix(.10405 0 0 .09871 67 73)"/><path stroke-linejoin="round" d="M2484-95c35-12 57 22 59 50 17-5 34-9 52-3-11 24-1 38-13 56 21 1 17 6 28 11-33 28-62 22-64 53 53-16 32-29 57-43 11-7 25-12 43-13 4 47-25 33-33 62 27-3 30-19 47-21 16-3 31 15 48 26-31 12-34 37-49 35s-16-13-33-5c15 13 40 11 48 41-38 12-64-17-101-18 91 25 58 52 91 72-25-2-46 5-92-22 2 13-15 23-23 39-5-25-29-38-25-77-9 1 6 28-10 29-13-11-14-26-14-37-7-9 3 17-29-24-3-4 2-31 5-33 3 7 5 14 11 14-2-10-4-20-10-27-3-2-3-20-1-31 11 14 3 35 22 39-1-36-31-25-14-58-3-18-3-76 9-54-1-30 13-51-9-61z" fill-rule="evenodd" stroke-linecap="round" stroke-width="2.6" fill="#eac102" transform="matrix(.10405 0 0 .09871 67 73)"/><path stroke-linejoin="round" d="M2515 75c-15-89 11-116-7-159m59 70c-34 30-42 59-45 89m33 27c43 3 63-17 108-19m-111 8c34-5 43-24 54-39m-50 59c29 1 54 9 66 19m-78 5c28 33 46 31 70 45m-76-46c-4 26 6 42 9 55m-32-59c-3 4-5 10-6 16m-4-32c-13 5-12-2-27 1m27-21c-6-1-11-4-16-13m21-3c-4-23-8-47-20-82" stroke-linecap="round" stroke-width="1.3" fill="none" transform="matrix(.10405 0 0 .09871 67 73)"/><g stroke-linejoin="round" fill-rule="evenodd" stroke-linecap="round"><path d="M1796 707a23 23 0 1 1-46 0 23 23 0 0 1 46 0z" transform="matrix(-.10387 .06687 .07249 .12618 463 -125)" stroke-width="2" fill="#eac102"/><path d="M1796 707a23 23 0 1 1-46 0 23 23 0 0 1 46 0z" transform="matrix(-.10153 .06536 .07249 .12618 459 -122)" stroke-width="2" fill="#eac102"/><path d="M1796 707a23 23 0 1 1-46 0 23 23 0 0 1 46 0z" transform="matrix(-.08982 .05783 .0627 .10914 445 -97)" stroke-width="2.3" fill="#e3e4e5"/></g></g><use xlink:href="#d" transform="matrix(-1 0 0 1 750 0)"/><path d="m352 86 2-1m45 1-3-1m33 5-2-1m-107 1 3-1" stroke="#000" stroke-width=".1" fill="none"/><g stroke="#000"><g stroke-width="2.2"><path d="M2069 731h1c13 0 23-13 23-29s-10-28-23-28h-1v57z" fill="#ed1c24" transform="matrix(-.11882 .03597 .0379 .11273 544 -43)"/><path d="M2066 669h7v66h-7c-2-25-3-50 0-66z" fill="#eac102" transform="matrix(-.11882 .03597 .0379 .11273 544 -43)"/></g><g stroke-linejoin="round" fill-rule="evenodd" stroke-linecap="round"><path d="M2030 671c-6 1-10 15-10 31 0 17 4 31 10 32h0l2 1h10v-19a79 79 0 0 0 0-27v-18h-12z" stroke-width="2.2" fill="#eac102" transform="matrix(-.12047 .03063 .03228 .1143 551 -34)"/><path d="M2048 702c0 18-2 33-6 33s-6-15-6-33c0-17 3-32 6-32 4 0 6 15 6 32z" transform="matrix(-.23838 .0606 .03209 .11362 792 -95)" stroke-width="1.6" fill="#eac102"/><path d="M2043 674c25 8 24 50 0 58-16-3-14-57 0-58z" stroke-width="2.2" fill="#e3e4e5" transform="matrix(-.12047 .03063 .03228 .1143 551 -34)"/></g><g stroke-width="2.2"><path d="M2069 731h1c13 0 23-13 23-29s-10-28-23-28h-1v57z" fill="#ed1c24" transform="matrix(.11882 .03597 -.0379 .11273 206 -43)"/><path d="M2066 669h7v66h-7c-2-25-3-50 0-66z" fill="#eac102" transform="matrix(.11882 .03597 -.0379 .11273 206 -43)"/></g><g stroke-linejoin="round" fill-rule="evenodd" stroke-linecap="round"><path d="M2030 671c-6 1-10 15-10 31 0 17 4 31 10 32h0l2 1h10v-19a79 79 0 0 0 0-27v-18h-12z" stroke-width="2.2" fill="#eac102" transform="scale(.12472 .11833) rotate(15 1904 5916)"/><path d="M2048 702c0 18-2 33-6 33s-6-15-6-33c0-17 3-32 6-32 4 0 6 15 6 32z" transform="matrix(.23838 .0606 -.03209 .11362 -42 -95)" stroke-width="1.6" fill="#eac102"/><path d="M2043 674c25 8 24 50 0 58-16-3-14-57 0-58z" stroke-width="2.2" fill="#e3e4e5" transform="scale(.12472 .11833) rotate(15 1904 5916)"/></g></g><g stroke="#000"><path d="M1147 293s40-20 186-20 186 20 186 20-34 21-186 21-186-21-186-21z" fill-rule="evenodd" stroke-width="1.1" fill="#ed1c24" transform="matrix(.24423 0 0 .2317 49 48)"/><g fill="none"><path d="M1104 495v-48" stroke-width=".6" transform="matrix(.24423 0 0 .2317 94 7)"/><path d="M1095 495v-48" stroke-width=".9" transform="matrix(.24423 0 0 .2317 94 7)"/><path d="M1087 495v-48" stroke-width="1.1" transform="matrix(.24423 0 0 .2317 94 7)"/><path d="M1079 495v-48" stroke-width="1.4" transform="matrix(.24423 0 0 .2317 94 7)"/><path d="M1072 495v-48" stroke-width="1.7" transform="matrix(.24423 0 0 .2317 94 7)"/><path d="M1058 492v-43m7 44v-45" stroke-width="2" transform="matrix(.24423 0 0 .2317 94 7)"/><path d="M1046 490v-39m6 40v-42" stroke-width="2.3" transform="matrix(.24423 0 0 .2317 94 7)"/><path d="M1029 488v-35m6 35v-36m5 38v-38" stroke-width="2.6" transform="matrix(.24423 0 0 .2317 94 7)"/><path d="M1023 488v-34" stroke-width="2.9" transform="matrix(.24423 0 0 .2317 94 7)"/><path d="M1018 486v-32" stroke-width="3.2" transform="matrix(.24423 0 0 .2317 94 7)"/><path d="M1012 485v-29" stroke-width="3.4" transform="matrix(.24423 0 0 .2317 94 7)"/><path d="m1000 483-1-24m7 25v-26" stroke-width="3.7" transform="matrix(.24423 0 0 .2317 94 7)"/><path d="M993 481v-21" stroke-width="3.9" transform="matrix(.24423 0 0 .2317 94 7)"/><path d="M988 479v-17" stroke-width="4.2" transform="matrix(.24423 0 0 .2317 94 7)"/><path d="M982 477v-14" stroke-width="4.5" transform="matrix(.24423 0 0 .2317 94 7)"/><path d="M975 476v-10" stroke-width="4.8" transform="matrix(.24423 0 0 .2317 94 7)"/><path d="M968 473v-5" stroke-width="5.6" transform="matrix(.24423 0 0 .2317 94 7)"/><path d="M1138 492v-43m-15 45v-46m-10 46v-47" stroke-width=".3" transform="matrix(.24423 0 0 .2317 94 7)"/><path d="M1199 495v-48" stroke-width=".6" transform="matrix(.24423 0 0 .2317 94 7)"/><path d="M1207 495v-48" stroke-width=".9" transform="matrix(.24423 0 0 .2317 94 7)"/><path d="M1215 495v-48" stroke-width="1.1" transform="matrix(.24423 0 0 .2317 94 7)"/><path d="M1223 495v-48" stroke-width="1.4" transform="matrix(.24423 0 0 .2317 94 7)"/><path d="M1230 495v-48" stroke-width="1.7" transform="matrix(.24423 0 0 .2317 94 7)"/><path d="M1244 492v-43m-7 44v-45" stroke-width="2" transform="matrix(.24423 0 0 .2317 94 7)"/><path d="M1256 490v-39m-6 40v-42" stroke-width="2.3" transform="matrix(.24423 0 0 .2317 94 7)"/><path d="M1273 488v-35m-5 35v-36m-6 38v-38" stroke-width="2.6" transform="matrix(.24423 0 0 .2317 94 7)"/><path d="M1279 488v-34" stroke-width="2.9" transform="matrix(.24423 0 0 .2317 94 7)"/><path d="M1285 486v-32" stroke-width="3.2" transform="matrix(.24423 0 0 .2317 94 7)"/><path d="M1291 485v-29" stroke-width="3.4" transform="matrix(.24423 0 0 .2317 94 7)"/><path d="M1303 483v-24m-6 25v-26" stroke-width="3.7" transform="matrix(.24423 0 0 .2317 94 7)"/><path d="M1309 481v-21" stroke-width="3.9" transform="matrix(.24423 0 0 .2317 94 7)"/><path d="M1315 479v-17" stroke-width="4.2" transform="matrix(.24423 0 0 .2317 94 7)"/><path d="M1321 477v-14" stroke-width="4.5" transform="matrix(.24423 0 0 .2317 94 7)"/><path d="M1327 476v-10" stroke-width="4.8" transform="matrix(.24423 0 0 .2317 94 7)"/><path d="M1334 473v-5" stroke-width="5.6" transform="matrix(.24423 0 0 .2317 94 7)"/><path d="M1165 492v-43m14 45v-46m11 46v-47" stroke-width=".3" transform="matrix(.24423 0 0 .2317 94 7)"/></g><path d="M1333 259c-57 1-114 1-170 13-12 3-30 6-34 20-2 11 12 16 21 19 42 13 86 14 129 16 67 1 135 2 202-7 18-4 38-6 53-18 9-9-1-21-11-24-34-13-71-14-107-17-27-2-55-2-83-2zm0 14c145 0 186 20 186 20s-34 21-186 21c-153 0-186-21-186-21s40-20 186-20z" fill-rule="evenodd" stroke-width="1.1" fill="#eac102" transform="matrix(.24423 0 0 .2317 49 48)"/></g></g><g transform="translate(-128 102) scale(1.024)"><path d="M441 118H309v114c0 21 21 34 33 34s29-2 33 10c4-12 19-10 33-10s33-17 33-34V118z" fill-rule="evenodd" stroke="#000" stroke-width=".3" fill="#ed1c24"/><g stroke="#000"><g stroke-linejoin="round" fill-rule="evenodd" stroke-linecap="round" stroke-width="1.5" fill="#eac102"><path d="M278 337v65l-9-8v-59l9 2z" transform="matrix(.18822 0 0 .17271 354 97)"/><path d="m274 336 5 3 5-5-6-3-4 5z" transform="matrix(.18822 0 0 .17271 354 97)"/><path d="m278 321 6 4v9l-6-3v-10zm-32 16v65l10-8v-60l-10 3z" transform="matrix(.18822 0 0 .17271 354 97)"/><path d="m250 336-5 3-5-5 6-3 4 5z" transform="matrix(.18822 0 0 .17271 354 97)"/><path d="m246 321-6 4v9l6-3v-10z" transform="matrix(.18822 0 0 .17271 354 97)"/><path d="m245 331 5 5h24l4-5h-33zm1-10h6v4h7v-4h6v4h7v-4h6v10h-32v-10Zm4 15v62h24v-62Zm12 11c3 1 5 2 5 7v15h-10v-15c0-5 2-7 5-7zm-25-31v87l-9-8v-80l9 1z" transform="matrix(.18822 0 0 .17271 354 97)"/><path d="m233 316 4 3 6-6-6-3-4 6z" transform="matrix(.18822 0 0 .17271 354 97)"/><path d="m237 300 6 4v9l-6-3v-10zm-33 16v87l9-8v-81l-9 2z" transform="matrix(.18822 0 0 .17271 354 97)"/><path d="m209 316-5 3-5-6 5-3 5 6z" transform="matrix(.18822 0 0 .17271 354 97)"/><path d="m204 300-5 4v9l5-3v-10zM204 310l5 6h24l4-6h-33zm0-10h6v5h7v-5h7v5h7v-5h6v10h-33v-10ZM209 316v83h24v-83Zm12 11c2 0 5 1 5 6v16h-10l-1-16c0-5 3-6 6-6z" transform="matrix(.18822 0 0 .17271 354 97)"/><path d="M278 337v65l-9-8v-59l9 2z" transform="matrix(.18822 0 0 .17271 339 97)"/><path d="m274 336 5 3 5-5-6-3-4 5z" transform="matrix(.18822 0 0 .17271 339 97)"/><path d="m278 321 6 4v9l-6-3v-10zm-32 16v65l10-8v-60l-10 3z" transform="matrix(.18822 0 0 .17271 339 97)"/><path d="m250 336-5 3-5-5 6-3 4 5z" transform="matrix(.18822 0 0 .17271 339 97)"/><path d="m246 321-6 4v9l6-3v-10z" transform="matrix(.18822 0 0 .17271 339 97)"/><path d="m245 331 5 5h24l4-5h-33zm1-10h6v4h7v-4h6v4h7v-4h6v10h-32v-10Zm4 15v62h24v-62Zm12 11c3 1 5 2 5 7v15h-10v-15c0-5 2-7 5-7z" transform="matrix(.18822 0 0 .17271 339 97)"/></g><g stroke-linejoin="round" fill-rule="evenodd" stroke-linecap="round" stroke-width="1.5" fill="#eac102"><path d="m233 361 4 3m-4-12 4 3m-4-12 4 3m-4-12 4 3m-4-12 4 3m-28 33-5 3m5-12-5 3m5-12-5 3m5-12-5 3m5-12-5 3m17 24v-3m-12-24h23m-6 9h6m-6 9h6m-23 9h23m-23 9h23m-11 8v-8m-4 0v-9m8 9v-9m-8-27v-9m8 9v-9m8 54 4 3m-28-3-5 3m5-3h23m1 9 4 3m-28-3-5 3m5-3h23m-15 0v-9m8 9v-9m-4 29v-19m-12-46h6m-6 9h6m6-16v-2m53 57 4 3m-4-12 4 3m-4-12 4 3m-4-12 4 3m-4-12 4 3m-28 33-4 3m4-12-4 3m4-12-4 3m4-12-4 3m4-12-4 3m16 23v-2m-12-24h24m-7 9h6m-5 9h5m-23 9h24m-24 9h24m-12 16v-16m-4 0v-9m9 9v-9m-9-27v-10m9 10v-10m-17 19h6m-6 9h6m6-17v-1" transform="matrix(.18822 0 0 .17271 354 97)"/><path d="m274 382 4 3m-4-12 4 3m-4-12 4 3m-4-12 4 3m-4-12 4 3m-28 33-4 3m4-12-4 3m4-12-4 3m4-12-4 3m4-12-4 3m16 23v-2m-12-24h24m-7 9h6m-5 9h5m-23 9h24m-24 9h24m-12 16v-16m-4 0v-9m9 9v-9m-9-27v-10m9 10v-10m-17 19h6m-6 9h6m6-17v-1" transform="matrix(.18822 0 0 .17271 339 97)"/></g><path stroke-linejoin="round" d="M389 176v-4l2-2 1 2v4h-3zm11 0v-4l1-2 1 2v4h-2zm-13-15v-2l1-2 1 2v2h-2zm16 0v-2l1-2 1 2v2h-2zm-8-3v-3l1-1 1 1v3h-2z" fill-rule="evenodd" stroke-linecap="round" fill="#ed1c24" stroke-width=".3"/><path stroke-linejoin="round" d="m387 166-5 1 2 1v13l-2 2v12l4 2h19l5-2v-12l-2-2v-13l1-1-4-1h-18zm4 4s0 0 0 0l1 2v4h-3v-4l2-2zm10 0s0 0 0 0l1 2v4h-2v-4l1-2z" fill-rule="evenodd" stroke-linecap="round" fill="#eac102" stroke-width=".3"/><path stroke-linejoin="round" d="m382 183 4 2v4" fill-rule="evenodd" stroke-linecap="round" fill="#eac102" stroke-width=".3"/><path stroke-linejoin="round" d="m384 181 4 1m-2 3 2-3m0 0v-15m-1-1 1 1m-4 1 4-1" fill-rule="evenodd" stroke-linecap="round" fill="#e3e4e5" stroke-width=".3"/><path stroke-linejoin="round" d="m410 183-5 2v4" fill-rule="evenodd" stroke-linecap="round" fill="#eac102" stroke-width=".3"/><path stroke-linejoin="round" d="m408 181-5 1m2 3-2-3m0 0v-15m2-1-2 1m5 1-5-1m-15 15h15m-15-15h15m-5 18h7m-19 0h7" fill-rule="evenodd" stroke-linecap="round" fill="#e3e4e5" stroke-width=".3"/><g stroke-linejoin="round" stroke-linecap="round" stroke-width="1.5" fill="#eac102"><path d="m436 624-3 1v7l5-1v-5l-2-2z" fill-rule="evenodd" transform="matrix(.18822 0 0 .17271 326 56)"/><path d="m420 617 8 3v7l8 2v-5l7 3v16l-23-6v-20zm-112 7 3 1v7l-5-1v-5l2-2z" fill-rule="evenodd" transform="matrix(.18822 0 0 .17271 326 56)"/><path d="m324 617-8 3v7l-8 2v-5l-7 3v16l23-5v-21z" fill-rule="evenodd" transform="matrix(.18822 0 0 .17271 326 56)"/><path d="M343 617h-19v21h96v-21h-19v8h-19v-8h-19v8h-20Z" transform="matrix(.18822 0 0 .17271 326 56)"/></g><path d="m436 662-23-3m23 15-23-1m23 14h-23m23 12-23 3m23 10-23 4m10 44 23-14m-22-99v13m0 14v13m0 14v13m0 13 11 14m0 24v-12m-17-93v13m14-11v12m-14 13v14m14-14v13m-14 15v14m14-16v12m-4 20v12m14-20v12m-121 11-23-14m10-84 23-3m-23 15 23-1m-23 14h23m-23 12 23 3m-23 10 23 4m-10 44-23-14m22-99v13m0 14v13m0 14v13m0 13-11 14m0 24v-12m18-93v13m-15-11v12m15 13v14m-15-14v13m15 15v14m-15-16v12m4 20v12m-14-20v12m97-86v-4m-11 101h35m-92-101h81m-59 14h39m-40 14h40m-61 15h81m-81 14h81m-54-57v-14m27 14v-14m-27 42v-14m27 14v-14m-27 43v-14m27 14v-14m-40-40v-3m27 14v-14m-27 42v-3m27 4v-14m27 13v-3m-54 32v-14m27 9v-9m27 14v-14m-59 32 5-18m59 18-5-18m-60 42v-12m65 12v-12m-74 0v-12m17 12v-12m50 12v-12m17 12v-12m-93 12h34m51-87h7m-81 0h6m69 14h5m-80 0h6" transform="matrix(.18822 0 0 .1732 326 56)" stroke-linejoin="round" fill-rule="evenodd" stroke-linecap="round" stroke-width="1.5" fill="#eac102"/><g fill="none"><g stroke-linejoin="round" stroke-linecap="round"><path d="M1067 150a4 4 0 1 1 7 0h-4z" transform="matrix(.2905 0 0 .25442 79 129)"/><path d="M1067 150a4 4 0 1 1 7 0h-4z" transform="matrix(.2905 0 0 .25442 81 129)"/><path d="M1067 150a4 4 0 1 1 7 0h-4z" transform="matrix(.2905 0 0 .25442 91 129)"/><path d="M1067 150a4 4 0 1 1 7 0h-4z" transform="matrix(.2905 0 0 .25442 89 129)"/><path d="M1067 150a4 4 0 1 1 7 0h-4z" transform="matrix(.2905 0 0 .25442 86 129)"/><path d="M1067 150a4 4 0 1 1 7 0h-4z" transform="matrix(.2905 0 0 .25442 84 129)"/></g><path d="M158 408s-4-6 0-7c5-1 9 5 9 5m2-1s-5-5 0-6c4-1 8 4 8 4m106 5s5-6 0-7c-4-1-9 5-9 5m-1-1s4-5 0-6c-5-1-9 4-9 4" transform="matrix(.18822 0 0 .17271 354 98)" stroke-width="1.5"/></g><path stroke-linejoin="round" d="m405 189 5-2m-5 5 5-3m-2 3v-2m-3 1v-2m-19 0-4-2m4 5-4-3m2 4v-3m2 1v-2m13 0h6m-19 0h7" fill-rule="evenodd" stroke-linecap="round" fill="#eac102" stroke-width=".3"/><path d="M424 200c-9-4-19-5-28-9l-30 10 3 31c-2 0 33 4 51 0 2-2 4-12 4-32zm-55 20h55" fill-rule="evenodd" fill="#eac102" stroke-width=".3"/><path d="M377 220v4m37-4v4m-34-9v5m4 0v5m6-5v4m6-4v4m6-4v4m5-4v5m4-10v5m9-10v5m0 5v4m-3-9v5m-3-10v5" fill="none" stroke-width=".3"/><path d="M366 229h55m-56-5h55m-39 5v-5m6 5v-5m6 5v-5m5 5v-5m6 5v-5m-23 5v-5m6 5v-5m6 5v-5m5 5v-5m6 5v-5m-20 10v-5m6 5v-5m6 5v-5m5 5v-5" fill-rule="evenodd" fill="#eac102" stroke-width=".3"/><path d="M377 229v5m31-5v5m9-9v4m-3 0v5m-3-10v5" fill="none" stroke-width=".3"/><g stroke-width="1.6"><path d="M238 798h216m-151 0v-18m22 18v-18m22 18v-18m23 18v-18" fill-rule="evenodd" fill="#eac102" transform="matrix(.22376 0 0 .12977 318 97)"/><path d="M266 798v18m139-18v18m-127-36v18m13 1v18m23-19v18m22-18 1 18m22-18v18m22-18v18m12-36v18m35 0v18m-12-36v18m-172 0v18m10-36v18" fill="none" transform="matrix(.22376 0 0 .12977 318 97)"/><path d="M245 817h208" fill-rule="evenodd" fill="#eac102" transform="matrix(.22376 0 0 .12977 318 97)"/></g><g stroke-width="1.5"><path d="M238 798h204m-139 0v-18m22 18v-18m22 18v-18m23 18v-18" fill-rule="evenodd" fill="#eac102" transform="matrix(.23047 0 0 .12977 317 102)"/><path d="M266 798v18m139-18v18m-127-36v18m13 1v18m23-19v18m22-18 1 18m22-18v18m22-18v18m12-36v18m35 0v18m-12-36v18m-172 0v18m10-36v18" fill="none" transform="matrix(.23047 0 0 .12977 317 102)"/><path d="M245 817h208" fill-rule="evenodd" fill="#eac102" transform="matrix(.23047 0 0 .12977 317 102)"/></g><g stroke-width="1.6"><path d="M238 798h204m-139 0v-18m22 18v-18m22 18v-18m23 18v-18" fill-rule="evenodd" fill="#eac102" transform="matrix(.22376 0 0 .12977 318 107)"/><path d="M266 798v18m139-18v18m-127-36v18m13 1v18m23-19v18m22-18 1 18m22-18v18m22-18v18m12-36v18m35 0v18m-12-36v18m-172 0v18m10-36v18" fill="none" transform="matrix(.22376 0 0 .12977 318 107)"/><path d="M245 817h208" fill-rule="evenodd" fill="#eac102" transform="matrix(.22376 0 0 .12977 318 107)"/></g><g stroke-width="1.6"><path d="M238 798h204m-139 0v-18m22 18v-18m22 18v-18m23 18v-18" fill-rule="evenodd" fill="#eac102" transform="matrix(.22376 0 0 .12977 324 112)"/><path d="M266 798v18m139-18v18m-127-36v18m13 1v18m23-19v18m22-18 1 18m22-18v18m22-18v18m12-36v18m35 0v18m-12-36v18m-172 0v18m10-36v18" fill="none" transform="matrix(.22376 0 0 .12977 324 112)"/><path d="M245 817h208" fill-rule="evenodd" fill="#eac102" transform="matrix(.22376 0 0 .12977 324 112)"/></g><path stroke-linejoin="round" d="M396 202c-14 9-13 13-12 25h25c0-12 0-18-13-25z" fill-rule="evenodd" stroke-linecap="round" fill="#eac102" stroke-width=".3"/><path stroke-linejoin="round" d="M387 227c0-10-2-15 9-22 11 7 10 13 10 22h-19z" fill-rule="evenodd" stroke-linecap="round" fill="#ed1c24" stroke-width=".3"/><path stroke-linejoin="round" d="M419 205c-10 9-10 13-9 26h19c0-13 0-19-10-26z" fill-rule="evenodd" stroke-linecap="round" fill="#eac102" stroke-width=".3"/><path stroke-linejoin="round" d="M412 231c0-10-1-16 7-22 8 6 7 12 8 22h-15z" fill-rule="evenodd" stroke-linecap="round" fill="#ed1c24" stroke-width=".3"/><path stroke-linejoin="round" d="M373 205c-10 9-9 13-9 26h19c0-13 0-19-10-26z" fill-rule="evenodd" stroke-linecap="round" fill="#eac102" stroke-width=".3"/><path stroke-linejoin="round" d="M367 230c0-10-1-15 7-22 8 7 7 13 7 23l-14-1z" fill-rule="evenodd" stroke-linecap="round" fill="#ed1c24" stroke-width=".3"/><g stroke-width="1.6"><path d="M238 798h204m-139 0v-18m22 18v-18m23 18v-24m22 24v-18" fill-rule="evenodd" fill="#eac102" transform="matrix(.22376 0 0 .12977 318 92)"/><path d="M266 798v18m139-18v18m-127-36v18m13 1v18m23-19v18m22-18 1 18m22-18v18m22-18v18m12-36v18m35 0v18m-12-36v18m-172 0v18m10-36v18" fill="none" transform="matrix(.22376 0 0 .12977 318 92)"/><path d="M245 817h208" fill-rule="evenodd" fill="#eac102" transform="matrix(.22376 0 0 .12977 318 92)"/></g><path d="M418 199v2" fill="none" stroke-width=".3"/><path stroke-linejoin="round" d="M396 181c-6 4-6 6-5 11h10c0-5 0-8-5-11z" fill-rule="evenodd" stroke-linecap="round" fill="#eac102" stroke-width=".3"/><path stroke-linejoin="round" d="M392 192c0-4-1-7 4-9 4 2 4 5 4 9h-8z" fill-rule="evenodd" stroke-linecap="round" fill="#ed1c24" stroke-width=".3"/><path d="m424 196-28-7-29 7v5l29-8 28 7v-4z" fill-rule="evenodd" fill="#eac102" stroke-width=".3"/><path d="M418 203v3" fill="none" stroke-width=".3"/></g><g stroke="#000"><path d="M370 226v5" fill="none" stroke-width=".3"/><path d="M371 219a11 11 0 0 0-1 0h-1a8 8 0 0 0-1 1h-1a8 8 0 0 1-2 0 10 10 0 0 1-3 0v2h-2v32h64v-32a7 7 0 0 1 3 1 6 6 0 0 0 2 1 7 7 0 0 0 2 0l1-3h-1a11 11 0 0 1-2 0 6 6 0 0 1-2-1h-1a7 7 0 0 0-1 0 7 7 0 0 0-1-1 11 11 0 0 0-1 0 9 9 0 0 0-1 0 6 6 0 0 0-1 1h-2a5 5 0 0 1-1 1 9 9 0 0 1-1 0 11 11 0 0 1-1 0l-1-1a8 8 0 0 1-1 0h-1a7 7 0 0 0-1 0 8 8 0 0 0-1-1 10 10 0 0 0-1 0 8 8 0 0 0-2 0 6 6 0 0 0 0 1h-2l-1 1v-1 1a11 11 0 0 1-3 0 6 6 0 0 1-1-1h-1a7 7 0 0 0-1-1 7 7 0 0 0-1 0 11 11 0 0 0-1 0 9 9 0 0 0-1 0 6 6 0 0 0-1 0 5 5 0 0 0-1 1h-1a5 5 0 0 1-1 1 9 9 0 0 1-2 0 11 11 0 0 1-1-1h-1a15 15 0 0 1-2 0 7 7 0 0 0 0-1 8 8 0 0 0-1 0 10 10 0 0 0-1 0 8 8 0 0 0-2 0 6 6 0 0 0-1 1h-1a6 6 0 0 1-2 1 8 8 0 0 1-1 0h-1a6 6 0 0 1-1-1h-2a6 6 0 0 0 0-1 6 6 0 0 0-1 0h-1z" fill="#e3e4e5" stroke-width=".3"/><path d="M371 219a10 10 0 0 0-2 0 8 8 0 0 0-1 0h-1v1a8 8 0 0 1-2 0 10 10 0 0 1-3 0l1 3a11 11 0 0 0 2 0 8 8 0 0 0 1 0h1v-1h1a8 8 0 0 1 2 0 11 11 0 0 1 2 0 6 6 0 0 1 1 0h1l1 1a6 6 0 0 0 1 0 8 8 0 0 0 2 0 6 6 0 0 0 2 0 19 19 0 0 0 1-1 6 6 0 0 1 1 0h1a8 8 0 0 1 2 0 7 7 0 0 1 1 0 32 32 0 0 1 2 1h3a8 8 0 0 0 1 0h1l1-1a8 8 0 0 1 2 0 11 11 0 0 1 2 0 6 6 0 0 1 2 0l1 1a6 6 0 0 0 1 0 8 8 0 0 0 3 0 6 6 0 0 0 1 0 21 21 0 0 0 1-1 6 6 0 0 1 1 0h1a8 8 0 0 1 2 0 7 7 0 0 1 2 0 29 29 0 0 1 2 1 8 8 0 0 0 2 0h1a5 5 0 0 0 1 0l1-1a5 5 0 0 1 2 0 9 9 0 0 1 1 0 11 11 0 0 1 2 0 7 7 0 0 1 2 0v1a6 6 0 0 0 2 0 7 7 0 0 0 2 0l1-3h-1a12 12 0 0 1-2 0 6 6 0 0 1-2 0v-1h-1a7 7 0 0 0-1 0 7 7 0 0 0-1 0 11 11 0 0 0-1 0 9 9 0 0 0-1 0 6 6 0 0 0-1 0 5 5 0 0 0-1 0v1h-1a5 5 0 0 1-1 0 9 9 0 0 1-1 0 11 11 0 0 1-2 0 8 8 0 0 1-1 0 13 13 0 0 1-1-1 7 7 0 0 0-1 0 8 8 0 0 0-1 0 10 10 0 0 0-1 0 8 8 0 0 0-2 0 6 6 0 0 0-1 0l-1 1h-4a6 6 0 0 1-1 0l-1-1a7 7 0 0 0-1 0 7 7 0 0 0-1 0 11 11 0 0 0-1 0 9 9 0 0 0-1 0 6 6 0 0 0-1 0 5 5 0 0 0-1 0h-1v1a5 5 0 0 1-2 0 9 9 0 0 1-1 0 11 11 0 0 1-1 0h-1a13 13 0 0 1-2-1 8 8 0 0 0-1 0 10 10 0 0 0-1 0 8 8 0 0 0-2 0 6 6 0 0 0-1 0h-1v1a6 6 0 0 1-2 0 8 8 0 0 1-1 0h-1a6 6 0 0 1-1 0l-1-1h-1a6 6 0 0 0-1 0h-1zm0 6a11 11 0 0 0-2 0 8 8 0 0 0-1 0l-1 1a8 8 0 0 1-2 0 10 10 0 0 1-3 0l1 3a10 10 0 0 0 2 0 8 8 0 0 0 1 0h1v-1h1a8 8 0 0 1 2 0 11 11 0 0 1 2 0 6 6 0 0 1 1 0h1l1 1a6 6 0 0 0 1 0 8 8 0 0 0 2 0 6 6 0 0 0 2 0 19 19 0 0 0 1-1 6 6 0 0 1 1 0h1a8 8 0 0 1 2 0 7 7 0 0 1 1 0 32 32 0 0 1 2 1h3a8 8 0 0 0 1 0h2v-1a8 8 0 0 1 2 0 11 11 0 0 1 2 0 6 6 0 0 1 2 0v1h1a6 6 0 0 0 1 0 8 8 0 0 0 3 0 6 6 0 0 0 1 0 19 19 0 0 0 1-1 6 6 0 0 1 1 0h1a8 8 0 0 1 2 0 7 7 0 0 1 2 0 29 29 0 0 1 2 1 8 8 0 0 0 2 0h1a5 5 0 0 0 1 0h1v-1a5 5 0 0 1 2 0 9 9 0 0 1 1 0 11 11 0 0 1 2 0 6 6 0 0 1 2 1 6 6 0 0 0 2 0 7 7 0 0 0 2 0l1-3h-1a11 11 0 0 1-2 0 6 6 0 0 1-2 0l-1-1a7 7 0 0 0-1 0 7 7 0 0 0-1 0 11 11 0 0 0-1 0 9 9 0 0 0-1 0 6 6 0 0 0-1 0 5 5 0 0 0-1 0v1h-1a5 5 0 0 1-1 0 9 9 0 0 1-1 0 11 11 0 0 1-2 0 8 8 0 0 1-1 0 13 13 0 0 1-1-1 7 7 0 0 0-1 0 8 8 0 0 0-1 0 10 10 0 0 0-1 0 8 8 0 0 0-2 0 6 6 0 0 0-1 0v1h-3a11 11 0 0 1-2 0 6 6 0 0 1-1 0h-1v-1a7 7 0 0 0-1 0 7 7 0 0 0-1 0 11 11 0 0 0-1 0 9 9 0 0 0-1 0 6 6 0 0 0-1 0 5 5 0 0 0-1 0l-1 1a5 5 0 0 1-2 0 9 9 0 0 1-1 0 11 11 0 0 1-1 0h-2l-1-1a8 8 0 0 0-1 0 10 10 0 0 0-1 0 8 8 0 0 0-2 0 6 6 0 0 0-1 0h-1v1a6 6 0 0 1-2 0 8 8 0 0 1-1 0h-1a6 6 0 0 1-1 0l-1-1h-1a6 6 0 0 0-1 0h-1zm-1 6a10 10 0 0 0-2 0 8 8 0 0 0-1 0v1h-1a8 8 0 0 1-1 0 10 10 0 0 1-4 0l1 3a11 11 0 0 0 3 0h2v-1a8 8 0 0 1 2 0 11 11 0 0 1 2 0 6 6 0 0 1 2 0v1h1a6 6 0 0 0 1 0 8 8 0 0 0 3 0 6 6 0 0 0 1 0 21 21 0 0 0 1-1 6 6 0 0 1 1 0h1a8 8 0 0 1 2 0 7 7 0 0 1 2 0 26 26 0 0 1 2 1h3a8 8 0 0 0 1 0 8 8 0 0 0 1 0h1a8 8 0 0 1 1-1 11 11 0 0 1 2 0 6 6 0 0 1 2 0l1 1a6 6 0 0 0 2 0 8 8 0 0 0 2 0 6 6 0 0 0 1 0 21 21 0 0 0 2-1h1a8 8 0 0 1 2 0 7 7 0 0 1 2 1 26 26 0 0 1 2 0 8 8 0 0 0 2 0h1a5 5 0 0 0 2 0h1a5 5 0 0 1 1-1 9 9 0 0 1 1 0 11 11 0 0 1 3 0 7 7 0 0 1 1 1h1a6 6 0 0 0 1 0 7 7 0 0 0 2 0l1-3h-1a11 11 0 0 1-2 0 6 6 0 0 1-1 0h-2a7 7 0 0 0 0-1 7 7 0 0 0-1 0 11 11 0 0 0-2 0 9 9 0 0 0-1 0 6 6 0 0 0-1 0 5 5 0 0 0 0 1h-1a5 5 0 0 1-2 1 9 9 0 0 1-1 0 11 11 0 0 1-1-1h-1a8 8 0 0 1-1 0 16 16 0 0 1-1 0 7 7 0 0 0-1-1 8 8 0 0 0-1 0 10 10 0 0 0-1 0 8 8 0 0 0-2 0 6 6 0 0 0 0 1h-3a12 12 0 0 1-2 0 6 6 0 0 1-2 0l-1-1a7 7 0 0 0-1 0 7 7 0 0 0-1 0 11 11 0 0 0-1 0 9 9 0 0 0-1 0 6 6 0 0 0-1 0 5 5 0 0 0-1 0v1h-1a5 5 0 0 1-1 0 9 9 0 0 1-1 0 11 11 0 0 1-2 0 8 8 0 0 1-1 0 13 13 0 0 1-1-1 7 7 0 0 0-1 0 8 8 0 0 0-1 0 10 10 0 0 0-1 0 8 8 0 0 0-2 0 6 6 0 0 0-1 0v1h-1a6 6 0 0 1-1 0 8 8 0 0 1-1 0h-2a6 6 0 0 1-1 0h-1v-1a6 6 0 0 0-1 0 6 6 0 0 0-1 0h-1zm0 6a10 10 0 0 0-2 0 8 8 0 0 0 0 1h-2a8 8 0 0 1-1 1 10 10 0 0 1-3-1v3h1a11 11 0 0 0 2 0 8 8 0 0 0 1 0h2a8 8 0 0 1 1-1 11 11 0 0 1 2 0 6 6 0 0 1 2 0l1 1a6 6 0 0 0 2 0 8 8 0 0 0 2 0 6 6 0 0 0 2 0 19 19 0 0 0 1 0 6 6 0 0 1 1-1 8 8 0 0 1 3 0 7 7 0 0 1 1 1 26 26 0 0 1 1 0h1l2 1h1a8 8 0 0 0 1-1h2a8 8 0 0 1 2-1 11 11 0 0 1 2 0 6 6 0 0 1 1 1h2a6 6 0 0 0 1 1 8 8 0 0 0 2 0 6 6 0 0 0 2-1 21 21 0 0 0 1 0 6 6 0 0 1 1-1h1a8 8 0 0 1 2 0 7 7 0 0 1 1 1 26 26 0 0 1 2 0 8 8 0 0 0 2 1h1a5 5 0 0 0 2-1h1a5 5 0 0 1 2-1 9 9 0 0 1 1 0 11 11 0 0 1 2 0 7 7 0 0 1 1 1h1a6 6 0 0 0 1 1 7 7 0 0 0 3 0v-3a11 11 0 0 1-3 0 6 6 0 0 1-1-1h-1a7 7 0 0 0-1 0 7 7 0 0 0-1-1 11 11 0 0 0-1 0 9 9 0 0 0-1 0 6 6 0 0 0-1 1 5 5 0 0 0-1 0h-1a5 5 0 0 1-2 1 9 9 0 0 1-1 0 11 11 0 0 1-1 0l-1-1a15 15 0 0 1-2 0 8 8 0 0 0-1-1 10 10 0 0 0-1 0 8 8 0 0 0-2 0 6 6 0 0 0-1 1h-1l-2 1a11 11 0 0 1-2 0 6 6 0 0 1-1-1h-2a7 7 0 0 0 0-1 7 7 0 0 0-1 0 11 11 0 0 0-1 0 9 9 0 0 0-2 0 5 5 0 0 0-1 1h-1a5 5 0 0 1-2 1 9 9 0 0 1-1 0 11 11 0 0 1-1 0l-1-1a8 8 0 0 1-1 0 13 13 0 0 1-1 0 7 7 0 0 0-1-1 10 10 0 0 0-2 0 8 8 0 0 0-1 0 6 6 0 0 0-1 1h-1a6 6 0 0 1-2 1 8 8 0 0 1-1 0h-1a6 6 0 0 1-2-1h-1a6 6 0 0 0-1-1 6 6 0 0 0-1 0h-1z" fill-rule="evenodd" stroke-width=".2" fill="#0071bc"/></g><path d="M329 134v70c1 20-14 38 5 43l41 2V134h-46z" fill-rule="evenodd" stroke="#000" stroke-width=".3" fill="#eac102"/><path d="m353 200-4 5-5 2-2 1-5 4-2 1-1 1h-4c-3 0 1 19 0 19l2 7c2 3 7 6 11 7l11 2c11-1 16 8 21 4v-40l-6-2-8-5-5-4-2-1-1-1z" stroke="#000" stroke-width=".3" fill="#008f4c"/><path d="m353 200-4 4c-2 2-3 3-5 3h-2l-5 5h-2l-1 1 2-1v3l-1 1a1 1 0 0 1 0 1 1 1 0 0 0 0 1h-1v1l1-1v-1l2-1 2-3 1-1 2-3 2-2 1 2-1 1v5l-1 2v2l2-1 1-1 1-1v-2h1l1-3a4 4 0 0 1 0-1v-1l1 1 2 1v-2h-1v-3l2-4 1-1-1-1z" fill="#00743e"/><path fill="none" d="M312 100v96c1 29 23 55 51 61a66 66 0 0 0 81-70v-87H312z"/><path d="M309 117v115c0 21 21 34 33 34s29-2 33 10c4-12 19-10 33-10s33-17 33-34V117H309zm22 22h88v86c0 11-12 22-22 22-9 0-19-1-22 7-3-8-14-7-22-7s-22-8-22-22v-86z" fill-rule="evenodd" stroke="#000" stroke-width=".3" fill="#0071bc"/><path d="M441 118H309v114c0 21 21 34 33 34s29-2 33 10c4-12 19-10 33-10s33-17 33-34V118z" stroke="#000" stroke-width=".8" fill="none"/><path d="m353 141-1 3a2 2 0 0 0-1-1l-2 2 1 2 1-1 1 1v7h-8l-1-1 1-1a2 2 0 0 0-2 0l-2 1 1 1-3 2 3 1a2 2 0 0 0-1 1l2 2 2-1h-1l1-1h8v7l-1 1-1-1a2 2 0 0 0-1 2l4 32 5-32a2 2 0 0 0-1-2l-1 1-1-1v-7h8l1 1h-1l2 1 2-2-1-1 3-1-3-2 1-1-2-1h-2l1 1-1 1h-8v-7l1-1 1 1 1-2-2-2-1 1-2-3z" stroke="#000" stroke-width=".3" fill="#ed1c24"/><g id="e" fill="#e3e4e5"><path d="M-29 1079c-5 0-10 6-14 17a122 122 0 0 1-35-5c-4-1-6 1-6 5 1 3 2 5 5 7a36 36 0 0 0 10 4l3 3c3 7 7 11 13 13l-10 10-17 7-8 1c-6 1-9 3-9 8 0 1 0 3 2 3 2 1 2 1 0 2l-3 3c-1 5 1 7 4 7v5l-3 6c0 3 1 5 4 6-2 6-1 9 3 9l5 6c-3 2-3 5-1 9 2 2 3 2 5 1 1-1 2-1 1 1-1 3 0 5 2 6 3 2 6 2 9-1l5 4c-1 5 0 8 2 9 4 0 6 0 8-2 1-1 2 0 3 1 1 3 3 4 7 4 3 0 5-1 5-4a16 16 0 0 1 20 0c1 3 3 4 6 4s5-1 7-4c1-1 2-2 3-1 1 2 4 2 7 2 3-1 4-4 3-9l5-4c1 2 3 3 5 2h1l2-1c3-1 3-3 2-6 0-2 0-2 2-1 1 1 3 1 4-1 3-4 2-7 0-9l4-6c4 0 5-3 4-9 3-1 4-3 4-6 0-2-1-4-4-6v-5c4 0 5-2 5-7l-3-3c-2-1-2-1-1-2 2 0 3-2 3-3 0-5-3-7-10-8l-7-1-17-7-10-10 8-6 4-7 3-3 11-4c2-2 4-4 4-7 1-4-1-6-6-5-11 3-22 5-35 5-4-11-9-17-14-17z" stroke="#ed1c24" stroke-width="8" transform="matrix(.09801 0 0 .09415 343 81)"/><g stroke="#000" stroke-width=".8"><path d="M382 248c1-3-1-5-5-4-9 2-19 4-30 3l4 12 5 9c5-1 8-4 11-9l3-3c3 0 6-2 8-3h1c2-1 3-3 3-5z" transform="matrix(.11396 0 0 .12169 302 154)"/><path d="M365 276c-4-2-6-5-9-8l-5-9-4-12c-4-8-8-13-12-13s-8 5-12 13l-4 12-5 9c-3 3-5 6-9 8-1 5 1 7 4 7 5-5 10-13 15-21-4 9-9 17-14 23 3 1 5 2 5 5l8-16 1-3 2-4-2 4-1 3c-1 7-3 13-6 18l-1 1c0 4 2 5 6 4a208 208 0 0 0 8-47v8c0 13-2 27-5 40 1 3 3 4 6 2l1-7 3-48 3 48 1 7c3 2 5 1 6-2-3-13-5-27-5-40v-8l2 20 6 27c4 1 6 0 6-4l-1-1c-3-5-5-11-6-18l-1-3-2-4 2 4 1 3 8 16c0-3 2-4 5-5-5-6-10-14-14-23 5 8 10 16 15 21 3 0 5-2 4-7z" transform="matrix(.11396 0 0 .12169 302 154)"/><path d="M365 276c1 5-1 7-4 7 5 6 11 10 16 13 2-2 3-4 1-6 2-2 2-5 2-8-6-1-11-3-15-6z" transform="matrix(.11396 0 0 .12169 302 154)"/><path d="m386 283-6-1c0 3 0 6-2 8 2 2 1 4-1 6l12 4h2c3 0 4-2 4-5l-3-3v-1c1 0 2-1 2-3 0-3-3-5-8-5z" transform="matrix(.11396 0 0 .12169 302 154)"/><path d="M391 304v-4h-2a58 58 0 0 1-28-17c-5-5-10-13-15-21a87 87 0 0 0 18 27c3 4 7 7 12 10l15 5z" transform="matrix(.11396 0 0 .12169 302 154)"/><path d="M376 299c-5-2-9-6-12-10l-4-4c-3 1-5 2-5 5l8 11 7 8c2 0 4-2 4-5 2-1 3-2 2-5zm-18 23c3 0 5-1 8-4 4 0 5-2 3-6-6-6-11-12-15-19 0 4-2 5-6 4l2 6 8 19z" transform="matrix(.11396 0 0 .12169 302 154)"/><path d="M366 318c-3 3-5 5-8 4 3 6 7 11 12 16 2 2 4 2 7 0 2-1 3-2 2-5-1-1 0-1 1-1h4c2-3 2-5-1-7l-14-13c2 4 1 6-3 6z" transform="matrix(.11396 0 0 .12169 302 154)"/><path d="m387 320-2-1c-4-1-9-4-15-10a133 133 0 0 1-15-19l-8-16c1 7 3 13 6 18l1 1a128 128 0 0 0 30 32c0-2 1-4 3-5z" transform="matrix(.11396 0 0 .12169 302 154)"/><path d="m385 319 2 1c4 0 5-2 4-7 2 0 3-2 3-4s-1-4-3-5l-15-5c1 2 0 4-2 5 0 3-2 4-4 5 6 6 11 9 15 10zm-45-69v8a210 210 0 0 0 14 66l12 16c0-2 2-2 4-2a87 87 0 0 1-20-34l-2-7a208 208 0 0 1-8-48zm-10 8v-8l-2 20-6 27-2 6-8 19c-3 6-7 11-12 16 2 0 4 0 4 2 5-5 9-10 12-16l8-24 1-2c3-13 5-27 5-40zm-11 1 4-12c-11 0-21-1-30-3-4-1-6 0-5 4 0 2 1 3 3 5h1c2 1 5 3 8 3l3 3c3 4 6 8 11 9 2-2 3-5 4-9zm-28 23-7 1c-5 0-8 2-8 5 0 2 1 3 2 3v1l-3 3c0 3 1 5 4 5h2l12-4c-2-2-3-4-1-6-2-2-2-5-1-8z" transform="matrix(.11396 0 0 .12169 302 154)"/><path d="M309 284c-3-1-5-3-4-8-4 3-9 5-14 6-1 3-1 6 1 8-2 2-1 4 1 6l16-12zm-2 17 8-11c0-3-2-4-5-5l-4 4c-3 4-7 7-12 10-1 2 0 4 2 5 0 3 2 4 4 5l7-8z" transform="matrix(.11396 0 0 .12169 302 154)"/><path d="M316 290a100 100 0 0 1-16 19c-6 6-11 9-15 10l-2 1 4 5a135 135 0 0 0 29-32l1-1c3-5 5-11 6-18l-8 16zm-10-1 4-4c5-6 10-14 14-23l-15 22a62 62 0 0 1-28 16h-2v4c5-1 10-2 15-5 5-2 9-6 12-10z" transform="matrix(.11396 0 0 .12169 302 154)"/><path d="M294 299c-5 3-10 4-15 5-2 1-3 3-3 5s1 4 3 4c-1 5 0 7 4 7l2-1c4-1 9-4 15-10-2 0-4-2-4-5-2-1-3-2-2-5zm-7 26c-3 2-3 4-1 7h4c1 0 2 0 1 1-1 2 0 4 2 5 3 2 5 2 7 0 5-5 9-10 12-16-3 1-5-1-8-4-4 0-5-2-3-6l-14 13z" transform="matrix(.11396 0 0 .12169 302 154)"/><path d="M304 318c3 3 5 5 8 4l8-19 2-6c-4 1-6 0-6-4-4 7-9 13-15 19-2 4-1 6 3 6zm42-18-1-2c-1 3-3 4-6 2l2 27c3 0 4-1 5-3h1c3 2 6 2 7 0l-8-24z" transform="matrix(.11396 0 0 .12169 302 154)"/><path d="m339 300-1-7-3-48-3 48-1 7a1120 1120 0 0 1-4 46v1c2-2 5-3 8-3s6 1 8 3v-1a563 563 0 0 1-4-46z" transform="matrix(.11396 0 0 .12169 302 154)"/><path d="M331 300c-3 2-5 1-6-2l-1 2-8 24c1 2 3 2 6 0h2c1 2 2 3 5 3l2-27z" transform="matrix(.11396 0 0 .12169 302 154)"/><path d="M323 324c-3 2-6 2-7 0l-11 16c-1 4-1 6 2 7s5 0 6-1 2-1 3 1 3 3 6 3c2 0 4-2 5-3v-1l2-19c-3 0-4-1-5-3h-2zm31 0c-1 2-4 2-7 0h-1c-1 2-2 3-5 3a563 563 0 0 0 2 20c1 1 3 3 5 3 3 0 5-1 6-3s2-2 3-1 4 2 6 1c3-1 3-3 2-7l-11-16z" transform="matrix(.11396 0 0 .12169 302 154)"/><path stroke-linejoin="round" d="M356 268c5-1 8-5 11-9l3-3 9-3h0c2-2 3-3 3-5 1-4-1-5-5-4-9 2-19 3-30 3m18 29c-4-2-6-5-9-8m5 16c3-1 5-3 4-8m26 24c3 0 4-2 4-5l-3-3v-1c1 0 2-1 2-3 0-3-3-5-8-5l-6-1m0 0c-6-1-11-3-15-6m12 20c2-2 3-4 1-6 2-2 2-5 1-8M391 304v-4M377 296l12 4h2m-15-1c-5-2-9-6-12-10l-4-4m9 27c2 4 1 6-3 6-3 3-5 5-8 4m12 16c2 2 4 2 7 0 2-1 3-2 2-5-1-1 0-1 1-1h4c2-3 2-5-1-7m-13-16c6 6 11 9 15 10l2 1m-3 5c0-2 1-4 3-5" stroke-linecap="round" transform="matrix(.11396 0 0 .12169 302 154)"/><path stroke-linejoin="round" d="M369 312a126 126 0 0 0 15 13m3-5c4 0 5-2 4-7 2 0 3-2 3-4s-1-4-3-5m0 0-15-5m-21-9 8 11 7 8m0 0c2-1 4-2 4-5 2-1 3-3 2-5m-15-15 16 12m-29 1a208 208 0 0 1-8-48v8c0 14 2 28 5 41m-20 0c3-13 5-27 5-40v-8l-2 20-6 27m25-50c-4-8-8-12-12-13-4 1-8 5-12 13m0 27 1-3s0 0 0 0l2-4 1-14m16 0 1 14 2 4s0 0 0 0l1 3m9-6-5-9-4-12m-33 21c2-2 3-5 4-9l5-12" stroke-linecap="round" transform="matrix(.11396 0 0 .12169 302 154)"/><path stroke-linejoin="round" d="M323 247c-11 1-21-1-30-3-4-1-6 1-5 4 0 2 1 4 3 5h1c2 1 5 3 8 3l3 3c3 5 6 8 11 9m-23 14-7 1c-5 0-8 2-8 5 0 2 1 3 2 3v1l-3 3c0 3 1 5 4 5M314 268c-3 3-5 6-9 8m0 0c-1 5 1 7 4 7m-4-7c-4 3-9 5-14 6m25 8a100 100 0 0 1-16 19m10-24c3 1 5 2 5 5m-21 9c5-2 9-6 12-10l4-4m-17 11c-2-2-3-4-1-6-2-2-2-5-1-8m-12 18v4m14-8-12 4h-2M279 304l15-5m-15 5c-2 1-3 3-3 5s1 4 3 4c-1 5 0 7 4 7m0 0 4 5m0 0c-3 2-3 4-1 7h4c1 0 2 0 1 1-1 2 0 4 2 5 3 2 5 2 7 0m0-29c-6 6-11 9-15 10l-2 1M301 312l-14 13v0M312 322c-3 0-5-1-8-4-4 0-5-2-3-6m-1-3c-2-1-4-2-4-5-2-1-3-3-2-5m53-25c1 7 3 13 6 18l1 1m4 29-8-19-2-6M354 293c0 4-2 5-6 4m-3 1 1 2 8 24m-9-26c-1 3-3 4-6 2M339 300l-1-7-3-48-3 48-1 7m0 0c-3 2-5 1-6-2m-3-1c-4 1-6 0-6-4M316 293l1-1c3-5 5-11 6-18m2 24-1 2-8 24m6-27-2 6-8 19m17 5c-3 0-4-1-5-3h-1c-3 2-6 2-7 0m38 0c-1 2-4 2-7 0h-1c-1 2-2 3-5 3M331 300l-2 27m12 0-2-27m-30-16-16 12m23-3c-4 7-9 13-15 19M310 285c5-6 10-14 14-23-5 8-10 16-15 21m14-9-8 16m32-16 8 16m-50 50c-1 4-1 6 2 7s5 0 6-1 2-1 3 1 3 3 6 3c2 0 4-2 5-3m2-20-2 19v1m16 0c1 2 3 3 5 3 3 0 5-1 6-3 1-1 2-2 3-1s4 2 6 1c3 0 3-3 2-7m-24-13a563 563 0 0 0 2 20M300 338c2 0 4 0 4 2m62 0c0-2 2-2 4-2m-10-53c-5-6-10-14-14-23 5 8 10 16 15 21m-45 41-11 16m-5-2c5-5 9-10 12-16M370 338c-5-5-9-10-12-16m-4 2 11 16m-11-47c4 7 9 13 15 19m-14-22c0-3 2-4 5-5" stroke-linecap="round" transform="matrix(.11396 0 0 .12169 302 154)"/></g></g><path fill="#00a658" d="m358 206 1 2-1 2h-1v2h1l2 2v3l-2-1h-2v2l2 2h1l2 1h2l3 1a451 451 0 0 1 6 1l3 1v-11a29 29 0 0 0-5-2l-2-1-2-1a71 71 0 0 0-2-1 19 19 0 0 1-2-1c-1-1-2 0-1 1v1c-1 1-1 0-1-1l-2-2zm-5 1v1l2 1h1l-1-1h-1a5 5 0 0 0-1-1zm2 3 1 3 1 1-1-3-1-1zm14 1v1-1zm-28 2-1 1-1 5-1 1-1 2h1l2 1 1-1 1-2v-7h-1zm10 0-1 2v1h3c2 1 1-1-1-2l-1-1zm17 1v2l-1-1 1-1zm-36 3c0 1 0 1 0 0zm2 0-1 1 1-1zm31 0 4 3-4-2v-1zm-7 1 3 1h-2l-1-1zm12 0 2 1h-1l-1-1zm-39 1v1l1-1h-1zm5 1h-1l1 1 1-1h-1z"/><g id="f" stroke="#000" stroke-width="6" fill="#eac102"><path d="M403 605c2-62 17-120 45-174 75-158 303-154 253 38-19 71-81 113-156 120 5-19 35-85 11-98-39 2-86 68-98 100-1 4-1 10-3 14m-147 4c-1-62-17-120-45-174-75-157-303-154-253 39 19 70 82 112 156 119-5-19-35-85-11-97 39 1 86 67 98 99 1 4 1 10 3 14" fill-rule="evenodd" transform="matrix(.02055 0 0 .01836 313 122)"/><path d="M351 9c-79 84-131 183-109 298 13 63 43 122 65 183 13 38 17 78 15 119h67c-3-41 4-80 15-119 21-62 52-120 65-183C493 188 436 98 360 9l-4-6-5 6z" transform="matrix(.02055 0 0 .01836 313 122)"/><path d="M289 656c-14 39-71 111-101 131-8 5 37-3 58-7 26-6 61-35 60-25 0 46 13 123 46 158l4 3 3-3c33-39 46-108 46-158-1-10 34 19 61 25 20 4 65 12 57 7-30-20-87-92-101-131H289z" fill-rule="evenodd" transform="matrix(.02055 0 0 .01836 313 122)"/><path d="M197 607h318v51H197z" transform="matrix(.02055 0 0 .01836 313 122)"/></g><use xlink:href="#e" transform="translate(25)"/><use xlink:href="#f" transform="translate(108 -1)"/><use xlink:href="#f" transform="translate(55 134)"/></g></svg>