<svg width="512" height="512" xmlns:xlink="http://www.w3.org/1999/xlink" xmlns="http://www.w3.org/2000/svg"><path fill="#0071bc" style="stroke-width:1.024" d="M0 0h512v512H0z"/><g transform="translate(-119 6)"><path d="M273 288c-5 0-9-2-9-5-1-3 1-5 5-8l5 1-1 12m21-9c3 0 6 1 7 3h1c0 2-3 5-8 9v-12" fill-rule="evenodd" stroke="#000" stroke-width=".3" fill="#e3e4e5"/><g id="a" fill="#e3e4e5" stroke="#000" stroke-width=".3" fill-rule="evenodd"><path d="m274 230 1 1v4h18v-4l1-1h-13zm-2-5v2c0 2 2 3 2 3h20l2-3v-2h-13zm-1-6h25v6h-25z"/><path d="M271 218v1h25l1-1h-26zm3 19-1 54v60h22v-1l-1-59-1-54h1zm-2 115h24c1 0 2 1 2 3s-1 2-2 2h-24l-2-2 2-3zm2-118h19l1 1-1 1h-19v-2z"/><path d="M274 231h20v-1h-20zm-2 120h24v1h-24zm-3 6h30v5h-30zm5-120h20v-1h-20z" stroke-linejoin="round"/></g><path d="M267 321c-3 2-5 4-4 5l2 3c2 2 3 5 2 6 2-2 3-4 3-7s-1-6-3-7m48-49c-5-2-12-4-21-4l-10 1c-12 3-21 9-20 14l-5-13c-1-6 9-13 23-16l12-1c9 0 16 1 21 4v15" fill-rule="evenodd" stroke="#000" stroke-width=".3" fill="#e3e4e5"/><path d="M261 313c-1-2 5-6 13-10l10-5c11-6 19-13 18-16h-1l2 13c1 2-6 9-16 15l-13 7c-6 2-12 7-11 9l-2-13m217-25c6 0 9-2 10-5 0-3-2-5-5-8l-5 1v12m-21-9c-3 0-6 1-7 3s2 5 7 9v-12" fill-rule="evenodd" stroke="#000" stroke-width=".3" fill="#e3e4e5"/><use xlink:href="#a" transform="matrix(-1 0 0 1 751 0)"/><path d="m484 321 5 5-3 3c-2 2-3 5-2 6-2-2-3-4-3-7s1-6 3-7" fill-rule="evenodd" stroke="#000" stroke-width=".3" fill="#e3e4e5"/><path d="m306 264-1-3a212 212 0 0 0-2-3l1-1 2 1v2l1-3h-3l-2 2v1l2 2v1l1 1-1 2-1-1-1-2v3h2l2-2zm-4-7-2-1v1h1l-1 1-1 5a330 330 0 0 0-1-5v-1h1v-1a89 89 0 0 0-4 0v1l1 1 2 8h1a371 371 0 0 1 2-8l1-1zm-6 5-1 2-2 1-1-1v-6l1-1v-1a68 68 0 0 0-3 0v1l1 1v6l-1 1a67 67 0 0 1 5 0l1-3zm-6-3c0-2-1-3-3-2a55 55 0 0 0-3 0l1 1v8h3v-1l-1-1v-2l2-1 1-2zm-2 0v2h-1l-1-3 1-1 1 2zm-7-1a37 37 0 0 0-2 0l1 1 1 4a50 50 0 0 0-5-4 38 38 0 0 0-2 1l1 1 2 6-1 1h2v-1l-1-1-1-5a49 49 0 0 1 5 6l-1-8v-1h1zm-6 6c-1-2-3-4-5-3s-2 4-1 7c1 2 2 3 4 2s2-3 2-6zm-2 1v5l-3-3v-5c2-1 3 0 3 3zm-6-1-2 1v1h1l2 4a37 37 0 0 0-5-3 48 48 0 0 0-2 2h1l3 5v2a40 40 0 0 1 1-1v-1h-1l-2-5a36 36 0 0 1 6 4v-1l-2-6v-2z"/><path stroke="#000" stroke-width=".3" fill="#e3e4e5" d="M266 362h219v2H266z"/><path d="M437 272a50 50 0 0 1 30-3c12 3 22 9 21 14l4-13c1-6-9-13-23-16l-12-1c-8 0-16 1-20 4v15" fill-rule="evenodd" stroke="#000" stroke-width=".3" fill="#e3e4e5"/><path d="M485 274v-10a72 72 0 0 0-5 5l-2 1 2 1-1-1 1-1 1-1 2 2v2h-2a47 47 0 0 1 4 2zm-2-5a49 49 0 0 0-2-1 75 75 0 0 1 2-2 85 85 0 0 1 0 3zm-5 1v-1a1 1 0 0 1-1 0 62 62 0 0 0-1-5h2l1-1c1-1 0-3-3-4a51 51 0 0 0-4-1l1 2-2 6h-1v1l4 1-1-2 1-2 1 5 3 1zm-1-8-1 2-2-1 1-3h1l1 2zm-6-2v-2l-1-1a56 56 0 0 0-7-1v3c0-2 1-2 3-2l-1 7-1 1 4 1-1-2 1-6h2v2h1zm-8 2h-1l-1 2-2 1-1-1v-6l1-2h1a65 65 0 0 0-5 0l1 1v7l-1 1a56 56 0 0 1 7 0l1-3zm-9-6h-3l2 1-1 1a134 134 0 0 0-1 4 130 130 0 0 0-2-4l-1-1h2v-1l-5 1 1 1a130 130 0 0 1 4 7h1a134 134 0 0 1 2-8l1-1z"/><path d="M491 313c0-2-5-6-13-10l-10-5c-11-6-19-13-18-16l-2 13c-1 2 7 9 17 15l13 7c5 2 11 7 11 9l2-13" fill-rule="evenodd" stroke="#000" stroke-width=".3" fill="#e3e4e5"/></g><g transform="translate(-119 6)"><g id="b" fill-rule="evenodd" stroke="#000" stroke-width=".3" fill="#e3e4e5"><path d="M298 151c-1 2-4 2-8 3-10 3-13 7-20 14 1-5 5-14 9-17-6 0-13 6-15 7 7-13 12-14 25-18 5 2 8 5 9 11z"/><path d="M272 138c-1 8 22 0 26 13 2-5-2-14-1-14l4-8-16-5-13 14z"/><path d="M309 127c2 0 5-1 7-3l6 13c1 2 0 5-3 6-3 3-8 2-13 1-8-2-14-8-23-9-4 0-8 1-11 3 0-7 3-8 1-16 17-7 24 2 36 5z"/></g><use xlink:href="#b" transform="matrix(-1 0 0 1 750 0)"/><path d="M437 143v-1h1v-11a1 1 0 0 0-1 0l3-1 2 1 1 2 1 3-1 3v1l-1 2h-1l-1 1zm2-12v10l1 1 1-1 1-5-1-3-1-2h-1zm6-2 1 5 1-1v-3l1 7-1-2v-1l-1 1 1 3v1h1l1-1 1-3v4l-6 2h1v-2l-1-8v-1h-1l5-3 1 4-1-2h-2zm11-6 1 4-1 1-1-3h-1l-1 1-1 2v3l1 3 1 2h1l1-1 1-2v1l-1 2-1 1h-2l-2-2v-6l1-3 1-1 2-1 1 1v-2zm4 0 1 5 1-1v-2l1 6h-1v-2h-1v5h1v-1l2-1v-2 4l-5 1h-1 1v-11l-1-1h-1l6-1 1 3h-1v-2h-2zm12-1v3-2l-1-1h-1v11h1v1l-4-1h1v-11h-1l-1 2v-3zm-194 7v5h1l-3 1v-1h1v-2l-1-7v-1a1 1 0 0 0 0-1h-1l3-1 1 1 1 2v2l-1 1-1 1zm-1-6 1 5 1-1v-2l-1-2h-1zm6 5v4l1 1h-3 1v-11h-1v-1h3l2 1v1l1 2-1 2-1 1 2 4v1h1-2l-2-5zm0-6v5h2v-4l-1-1zm14 2-1 4v-3l-1-1h-1v5l1-2v6h-1v-4l-1 4v1l1 1h1l1-1v-2 4l-5-2h1v-4l-2-1-1 2v3l-2-1h1l1-2 3-6v-2h-1v-1zm-5 5 1-5-3 4zm8-2v5h1v-2 6h-1v-3h-1v5h1l-3-1v-1l1-1 1-7v-1a2 2 0 0 0 0-1 1 1 0 0 0-1 0v-1l5 3-1 3v-3l-1-1zm5 3v5l1-1v-2 6l-1-1v-2l-1 3v2h1v1l1-1 1-2v4l-5-2 1-1v-1l1-8v-1a1 1 0 0 0-1 0v-1l5 2-1 4v-3l-1-1zm5 7v5h1v1l-3-1v-2l1-7v-2a1 1 0 0 0-1 0v-1l3 1h1l1 1v4l-1 1 1 4 1 1v1h-2l-2-6zm0-6v6l1-1h1v-4l-1-1zm6 0v5l1-1v-2l1 6h-1v-3h-1v5h1l1-1 1-3v4l-5 2v-1h1v-1l-1-8v-2h-1l5-2v4-2h-2z"/><g id="c" stroke-width=".3" fill="#e3e4e5"><path d="M309 135c2 3 7-2 13 2 0-6-5-9-7-19 0-2 0-5-1-2l-5 13v6z" fill-rule="evenodd" stroke="#000"/><path d="M347 105s-15-1-24 2c-11 4-14 7-17 12-1 5 3 9 3 16 0 0 1-5 5-7 7-4 17-7 23-7l11-1c2 0-1-10-1-15z" stroke="#1f1a17"/></g><path d="M310 124v3l1 1-2 3v-3l-1-7-1-1 2-2 1-1 1 1a6 6 0 0 1 0 4l-1 2zm-1-5 1 4v-5l-1 1zm7 2-2 1v3h1l-2 1 1-1v-13l4 9v1h1l-3 2 1-1v-1h-1zm0-1-2-3v4zm7-11v3-2h-2l1 9v1h1v1l-3 1v-1a1 1 0 0 0 1 0v-1l-1-10v1h-1v3h-1v-3zm3 5v5h1v1h-3 1v-10l-1-1v-1h4v1l1 2-1 2v1l1 4 1 1h-2l-2-5zm0-5v5l1-1v-4l-1-1zm7 9v1h-3 1v-10l-1-1s0-1 0 0v-1h3-1v11h1zm3-3h-2v3h1v1h-2v-1l1-2 2-9 2 9v2h1v1h-3v-1h1v-1zm0 0-1-4-1 4zm7 0 1-8h2l-1 1v10h1v1h-3v-1h1v-10l-2 11-2-11v10h1v1h-2v-1l1-1v-9a1 1 0 0 0-1-1h2z"/><use xlink:href="#c" transform="matrix(-1 0 0 1 750 0)"/><path d="M407 113v4l1 1h-2v-12h2l1 1v4l-1 1-1 1zm0-6v5h1v-5zm5 8h-1v1l-1 1 1 1h-1v-2l2-10 1 10 1 2v1l-2-1 1-1h-1v-1zm0-1v-4l-1 4zm4-1v6h-2v-1h1v-11h-1v-1l2 1h1l1 1a8 8 0 0 1 0 4l-1 1 1 4v2h1-2l-1-6zm0-6v6h1v-5l-1-1zm5 1v5-3h1l-1 7v-3a1 1 0 0 0-1 0v5h1l1-1 1-2-1 4-3-1v-2l1-8v-1a2 2 0 0 0-1 0v-1l4 1-1 3v-2l-1-1zm4 0 2 9v-7l-1-1h2v1h-1v11l-3-10v10l-1-1v-1l1-1v-9a1 1 0 0 0-1-1zm7 3v3l-1-1v-1a1 1 0 0 0 0-1h-1v11h1l-1 1-2-1v-1 1l1-1v-10l-1 2v-4zm2 2v5-1l1-2v1l-1 6v-4l-1 4a15 15 0 0 0 0 1l1 1h1v-2h1l-1 3-3-2v-2l1-7v-2h-1v-1l4 2v4l-1-2v-1l-1-1zm5 11 2-6 2 1-1 1s0-1 0 0v1l-1 7v3l-2-2v-1 1h1v-2l1-8-3 9v-12l-1 8v3l-1-2 1-1v-8l1-1h-1a1 1 0 0 0 0-1l2 2z"/><g stroke-width=".3" fill="#e3e4e5"><path d="M401 120s-2-11 3-15c3-2 2 4 2 6 0 3 1 1-1 5-1 2-4 2-4 4zm-53 0c1 0 2-11-3-15-2-2-1 4-1 6v5c1 2 5 2 4 4z" stroke="#1f1a17"/><path stroke-linejoin="round" d="M364 92c-13 0-23 4-23 9 2 7 0 10 4 15-1-3 2-5 5-6 15-4 36-4 50 0 3 1 6 3 5 6 4-5 2-8 4-15 0-5-10-9-23-9h-22z" stroke="#000"/></g><path d="M355 102v4l-8 3v-1h1v-2l-1-7-1-1h-1v-1l5-1h-1v2l1 7 1 1v1h1v-1h2v-2l1-2zm6 3v1h-5 1l1-1v-1l-1-7v-2a1 1 0 0 0-1 0l4-1v1h-1v1l1 8v1h1zm7-6 2 1v4l-3 1-5 1v-1h1V95a1 1 0 0 0-1-1h-1 7l1 1 1 2a2 2 0 0 1-1 1l-1 1zm-3 0h2v-4a2 2 0 0 0-1 0h-1zm0 1v5h1l1-1 1-1v-2l-1-1h-2zm10-6v5l1-1 1-2v6l-1-1v-1h-1v4l1 1 2-1 2-2-1 3h-8 1l1-1v-9l-1-1h-1 8v3l-1-2a2 2 0 0 0-1-1h-1zm9 6v5h1v1l-4-1h1V95a1 1 0 0 0 0-1h-1 7l1 2 1 1-1 3h-2l2 4 1 1 1 1h-3l-3-6zm1-5-1 5h2l1-1v-4h-2zm11 11v1l-5-1h1v-2l1-7v-1a1 1 0 0 0 0-1h-1 5v1h-2v9l-1 1h1zm9-9-1 4-1-3-1-1h-2v3l2 1 1 2 1 2-2 3h-3l-1-1h-1v-4h1v3l2 1h1l1-1a2 2 0 0 0 0-1 3 3 0 0 0-1 0l-1-2-1-1-1-2a4 4 0 0 1 0-1l1-3h3a3 3 0 0 1 1 1l1 1v-1z"/></g><g stroke-miterlimit="9.2" stroke="#000"><path d="m261 115-6 1c-1 0-4 7-5 13-2 6 0 7-1 11-1 5-11 5-4 7 8 1 24 2 29-1 5-4-5-6-8-13-3-8 2-11 1-15-2-5-4-2-6-3z" fill-rule="evenodd" stroke-width=".3" fill="#ed1c24"/><path d="m265 136 3 2 1 3 1 2v1l-1 1a18 18 0 0 1-5 1v-1l-1-1h-2l-1 2h-2a28 28 0 0 1-4 0v-1l1-2v-2l1-3 3-2" fill-rule="evenodd" stroke-width=".3" fill="#e3e4e5"/><path d="m269 142-5 1-4-1h-5m14-16v5h-3v-5Z" fill-rule="evenodd" stroke-width=".3" fill="#e3e4e5"/><path d="M268 120v8l-2 9h-8l-2-8v-9" fill-rule="evenodd" stroke-width=".3" fill="#e3e4e5"/><path d="m267 107 2 3 1 5-2 3h-2l-2-3h-3l-2-1 2-4 3-3h3z" fill-rule="evenodd" stroke-width=".3"/><path d="M265 123h-2l-2-1" stroke-width=".3" fill="none"/><path d="M268 139a219 219 0 0 1-8 1l-4-1m-9-24a5 5 0 0 1 2 3l-1 1a9 9 0 0 1-1 1l-1 1-1-1v-5h2z" fill-rule="evenodd" stroke-width=".3" fill="#e3e4e5"/><path d="m256 119-4 2h-2l-2-3h-1l-1 2 1 2 1 3 1 1h2a8 8 0 0 0 2 0l2-1 2-1" fill-rule="evenodd" stroke-width=".3" fill="#e3e4e5"/><path d="m266 116 1 1v2a3 3 0 0 1-1 2h-4a4 4 0 0 1-1 0 5 5 0 0 1-1-2l-1-1v-2l1-1h2" fill-rule="evenodd" stroke-width=".3" fill="#ed1c24"/><path d="M252 121v6h-2l-2 1h-1v-6h1a7 7 0 0 0 2-1l1-1v-1h1v1m7-3v1l1 1 1 2v2l-1 2-1 2h-1v-3h-1l-1 1-1-2-1-3 1-1 1-1h2l1-1v1m13 9-1 8c0 2 0 2-2 2l-5-1-1-2v-3h4l1-5" fill-rule="evenodd" stroke-width=".3" fill="#e3e4e5"/><path d="m270 132 1 2h1l-1 3v1h-2l-2-1v-1l-1-2-1-1v-2h2l1-1h2v2zm3-6v2h-5l-1-1 1-2m-5 6v4l-1 1-1-1-1-2v-1l1-2v-1l2 1v1z" fill-rule="evenodd" stroke-width=".3" fill="#e3e4e5"/><path d="M267 117h1l1 1v2l1 1h2l1 2v3h-1l-3-1-1 1-1 1a3 3 0 0 1-1-1 3 3 0 0 1-1-1v-3l2-2v-3m-7 10 1 1v2l-2 2h-2l-1-1a4 4 0 0 1 0-2 6 6 0 0 1 0-1v-1l1 2h1l1-1v-1h-1v-1h2v1z" fill-rule="evenodd" stroke-width=".3" fill="#e3e4e5"/><path d="m241 112 1 2 2 3 1-1 1-2v-1h-1l-1-1v-1h-1v1h1v2h-1v-1l-1-1h-1z" fill-rule="evenodd" stroke-width=".2" fill="#e3e4e5"/><path d="M239 120c-1 1-1 0-1-1l3-3c1-1 2 0 1 1l-3 3z" stroke-width=".3" fill="#eac102"/><g stroke-width="8.5"><path d="M244 372h42l7 193-13 192-15 60-15-60-13-192 7-193z" fill="#e3e4e5" transform="matrix(-.04348 -.03264 .01255 -.01375 249 130)"/><path d="m263 375 2 367 4-367z" fill-rule="evenodd" transform="matrix(-.04348 -.03264 .01255 -.01375 249 130)"/></g><path d="m239 120-1-1 1 1zm0 0v-2a9 9 0 0 0-1 1l1 1zm1 0-1-2 1 2zm0-1-1-2 1 2zm0 0h1l-1-2v2zm1-1-1-1 1 1zm0 0v-2 2zm1-1-1-1 1 1z" stroke-width=".3"/><path transform="matrix(-.79968 -.60042 .67434 -.73842 -119 6)" stroke-width=".3" fill="#eac102" d="M-345 129h6-6z"/><g fill="#eac102"><path d="M318 38a29 29 0 1 1-58 0 29 29 0 0 1 58 0z" transform="matrix(-.02775 -.02084 .02082 -.0228 246 126)" stroke-width="8.3"/><path d="M162 36a14 14 0 1 1-29 0 14 14 0 0 1 29 0z" transform="matrix(-.02384 -.0179 .0179 -.0196 242 123)" stroke-width="9.6"/></g><path d="m266 110 2 2v4l-3 3h-2l-1-3v-4l2-2h2z" fill-rule="evenodd" stroke-width=".3" fill="#f6cb7e"/><path d="M268 112h-2l-1 1v2h-1m1-2-1-1v-1h-1m2 6a9 9 0 0 1-1 0l-1-1m1 2h-1m3 1-1 1h-2a3 3 0 0 1-1-1l-1-1v-1" stroke-width=".3" fill="none"/><path d="M266 114v-1l1 1h-1zm-3-1v-1l1 1h-1zm1 5-2-3v2l1 2h2s2-1 1-2c0-1-1 2-2 1z" fill-rule="evenodd" stroke-width=".3"/><path d="m264 116 2 2c-1 0 0 1 0 0l-1-3-2 1-1 1 2-1z" fill-rule="evenodd" stroke-width=".3"/><path d="M259 116c-3 0-3 2-5 1" stroke-width=".3" fill="none"/><path d="m254 123 8 1h8s1 6-1 15c-2 7-8 13-9 13-3-1-5-7-7-15l1-14z" fill-rule="evenodd" stroke-width=".3" fill="#e3e4e5"/><path d="M260 124h4l-1 7 7 2-1 4-6-1-1 14-2 2-3-2 1-15h-5v-4h6l1-7z" fill-rule="evenodd" stroke-width=".3" fill="#e3e4e5"/></g><g fill-rule="evenodd" stroke="#000" stroke-width=".3"><path d="M236 146h42c-1 1-5 5-4 10h-34c1-2 0-7-4-10zm5 10v1c1 12-3 24-11 32l-1 20h55v-20c-9-9-11-21-11-32v-1z" fill="#eac102"/><path fill="#e9b703" d="M241 156h33v2h-33z"/><path fill="#e9b703" d="M240 155h34v2h-34zm-4-10h43v2h-43zM235 144h44v1h-44zm22 41h3c5 1 8 7 8 10v14h-21v-14c0-4 2-9 8-10h3"/><path d="M257 187h3c4 1 7 7 7 9l-1 13h-18v-13c0-4 2-8 7-9h3m-6 7-4-4" fill="#e9b703"/><path d="M251 209h13v-14s-2-4-6-5c-5 0-7 5-7 5z" fill="#0071bc"/><path d="m263 194 4-4m-10 0v-5" fill="#e9b703"/><path d="M234 133v11h46v-11h-6v5h-4v-5h-6v5h-4v-5h-6v5h-4v-5h-6v5h-4v-5z" fill="#eac102"/><path d="M247 163c-2 0-3 1-3 3v8h7v-8c0-2-2-3-4-3z" fill="#e9b703"/><path d="m247 164-2 2v7h5v-7c0-1-1-2-3-2z" fill="#0071bc"/><path d="M267 163c-2 0-4 1-4 3v8h7v-8c0-2-1-3-3-3z" fill="#e9b703"/><path d="M267 164c-2 0-3 1-3 2v7h5v-7l-2-2z" fill="#0071bc"/></g><g transform="translate(-119 6)"><path d="M303 191c3 5 6 11 9 11l-1-6-5-10-2 1zm146 0c-3 5-7 11-9 11v-6l5-10c1-1 3 0 3 1z" fill-rule="evenodd" stroke="#000" stroke-width=".3" fill="#eac102"/><g id="d" stroke="#000"><path d="m307 196 1-2-8-12c0-1-3 0-2 1l9 13z" fill-rule="evenodd" stroke-width=".3" fill="#eac102"/><path stroke-linejoin="round" d="m282 160 1-1c6-1 10 3 10 5l4-1-1 7 3 2 1-1h1c1 6-2 5-1 7l2-3 3 1 3 1-2 5h-4c4 1 4 4 6 5h-3l5 6h-1l-6-2-5-5-6-8-1-13c-3-2-2-5-9-5z" fill-rule="evenodd" stroke-linecap="round" stroke-width=".3" fill="#eac102"/><path stroke-linejoin="round" d="M281 160c9 1 9 12 11 18l5 8c3 3 6 7 8 7h4c-4-1-2-5-11-7 3-2 3 2 8 1-1-3-4-3-6-5h4c2 0 2-3 3-4-2-1-3-3-6-2l-3 3c-1-3 1-3 2-4v-4c-6 2-4 5-7 7 0-4 1-2 4-6l-2-2 1-6c-2-1-3 0-4 1 0-2-5-8-11-5z" fill-rule="evenodd" stroke-width=".3" fill="#eac102"/><path d="M294 168c-2 3-2 7-2 10m4-1-3 3m10-1c-3 0-4 2-8 3m0 1 7 2m-5 1c3 3 6 3 6 5" stroke-width=".1" fill="none"/><g stroke-width="1.9"><path d="M2069 731h1c12 0 23-13 23-29 0-15-11-28-23-28h-1z" fill="#e3e4e5" transform="matrix(-.12518 .07316 .08236 .1112 495 -47)"/><path d="M2066 669h7v66h-7c-2-25-3-50 0-66z" fill="#eac102" transform="matrix(-.12518 .07316 .08236 .1112 495 -47)"/></g></g><use xlink:href="#d" transform="matrix(-1 0 0 1 751 0)"/><path d="m376 171-1 1c-1 6-3 14-11 16-9 2-16-10-17-15l-1-1-1 1c1 7 0 15-6 16-6 2-12-5-17-14h-2c4 9 2 16 0 17-3 1-10-7-14-14-1-1-3 0-2 1 2 5 5 11 5 16l-1-1-1 2 4 2v-9c3 3 8 7 11 5s3-6 3-10c4 4 9 9 15 8 5-1 7-6 8-12 3 6 9 12 16 11s11-9 12-12c0 3 4 11 12 12 7 1 13-5 16-11 0 6 3 11 8 12s11-4 15-8c-1 4 0 8 3 10s8-2 11-5c-2 5-2 8-1 9l4-2-1-2-1 1c0-5 3-11 6-16 0-1-2-2-3-1-3 7-10 15-13 14s-4-8-1-17h-2c-5 9-11 16-17 14-6-1-7-9-6-16 1-1-2-2-2 0 0 5-8 17-16 15-9-2-11-10-11-16l-1-1z" fill-rule="evenodd" stroke="#000" stroke-width=".3" fill="#eac102"/><g stroke="#000"><path d="M360 157s4-1 6 2c2 4 7 3 7 3l-2 7-14-5 3-1c1 0 2 2 5 1l-5-7zm32 0s-4-1-6 2c-3 4-8 3-8 3l3 7 13-5-2-1c-2 0-3 2-6 1l6-7z" fill-rule="evenodd" stroke-width=".3" fill="#eac102"/><path d="M376 138c-3 3-5 6-5 10-2-2-4-1-6-1l1 8-3 2c1 2 7 2 9 6-7-1-5-6-12-6-1 6 3 5 3 8l-4-2c-3 0-4 3-6 4l7 4c1 0 2-2 4-1-2 3-4 2-3 6 8 1 4-4 10-4-8 6-4 7-6 11 4-1 6 0 11-4 5 4 6 3 10 4-2-4 3-5-5-11 5 0 2 5 10 4 1-4-1-3-3-6 2-1 2 1 4 1l6-4c-2-1-3-4-6-4l-4 2c0-3 5-2 4-8-7 0-5 5-12 6 1-4 7-4 8-6l-3-2 1-8c-2 0-3-1-5 1 0-4-3-7-5-10z" fill-rule="evenodd" stroke-width=".3" fill="#eac102"/><path d="M376 164v-22m-2 29c0 3-2 7-5 8m3-10-8 3m7-4c-7 1-10-2-12-1m13-1-4-1-3-3m10 1-2-5-4-6m8 19c1 3 3 7 5 8m-2-10 7 3m-7-4c7 1 11-2 13-1m-13-1 4-1 3-3m-10 1 1-5 4-6" stroke-linecap="round" stroke-width=".1" fill="none"/><path stroke-linejoin="round" d="M381 167c0 3-3 5-5 5-3 0-5-2-5-5 0-2 2-4 5-4s5 2 5 4z" fill-rule="evenodd" stroke-linecap="round" stroke-width=".3" fill="#eac102"/><path stroke-linejoin="round" d="M380 167c0 3-2 4-4 4s-4-1-4-4 2-3 4-3 4 1 4 3z" fill-rule="evenodd" stroke-linecap="round" stroke-width=".3" fill="#e3e4e5"/></g><path d="m308 194-1 2h1v-2zm136 0h-1l1 2z" fill-rule="evenodd" fill="#eac102"/><g id="e" stroke="#000"><path d="M312 147h1c5-1 7 4 8 7l6-1-1 7c3 0 3 1 4 2-4 2-8 3-9 6l6-1c2-2 2-5 7-6 1 6-3 4-4 8l12 1-6 5h-1c-1-1-2-3-4-2l4 2c3 1 3 4 3 4-5 1-6 0-8-1 5 3 4 5 6 8-6 0-9-2-12-3l-3 5h-1l-3-7-1 1-4-8c-2-1-1-3-2-4h2l-1-3-1-3c1 1 2 0 2 2l1 4 2-6-3-9 2-1c-1-2 3-5-2-7z" fill-rule="evenodd" stroke-width=".3" fill="#eac102"/><path stroke-linejoin="round" d="M311 147c5-1 8 3 8 7l7-1-1 7 3 2c-4 3-8 3-8 7 7-2 4-4 7-6l6-1c1 6-3 4-4 7l6-2c2-1 4 2 7 3-4 2-5 5-7 5-2-1-2-2-4-1 2 2 5 1 6 5-5 2-9-2-14-2 13 3 8 7 13 9-4 0-6 1-13-3 1 2-2 3-3 5 0-3-4-5-3-10-1 1 1 4-1 4-2-1-2-3-2-5-1-1 0 3-4-3v-4l2 2-2-4v-4c2 2 1 5 3 5 0-4-4-3-2-7 0-2 0-10 2-7 0-4 1-6-2-8z" fill-rule="evenodd" stroke-linecap="round" stroke-width=".3" fill="#eac102"/><path stroke-linejoin="round" d="M316 169c-2-11 1-15-1-20m8 9c-5 3-6 7-6 11m4 4c6 0 9-3 15-3m-15 1c4-1 5-3 7-5m-7 8 9 2m-11 1c4 4 7 4 10 5m-10-5c-1 3 1 5 1 7m-4-8-1 2m-1-4h-3m3-3-2-1m3-1-3-10" stroke-linecap="round" stroke-width=".1" fill="none"/><g stroke-linejoin="round" fill-rule="evenodd" stroke-linecap="round"><path d="M1796 707a23 23 0 1 1-46 0 23 23 0 0 1 46 0z" transform="matrix(-.13469 .08671 .094 .16362 490 -97)" stroke-width="1.6" fill="#eac102"/><path d="M1796 707a23 23 0 1 1-46 0 23 23 0 0 1 46 0z" transform="matrix(-.13166 .08476 .094 .16362 484 -93)" stroke-width="1.6" fill="#eac102"/><path d="M1796 707a23 23 0 1 1-46 0 23 23 0 0 1 46 0z" transform="matrix(-.11648 .07499 .0813 .14153 466 -60)" stroke-width="1.8" fill="#e3e4e5"/></g></g><use xlink:href="#e" transform="matrix(-1 0 0 1 751 0)"/></g><path d="M257 196c-20 0-40 0-59 4-4 2-10 2-12 7 0 4 5 5 8 6a456 456 0 0 0 114 3c6-1 13-2 18-6 3-3-1-7-4-8-12-4-24-4-37-5l-28-1z" fill-rule="evenodd" stroke="#000" stroke-width=".3" fill="#eac102"/><path d="M257 201h-27l-5 1c-17 1-25 2-30 4h-1l-4 2-1 1 4 13h128l3-13v-1l-4-2c-5-1-14-3-32-4l-4-1h-27z" fill-rule="evenodd" stroke="#000" stroke-width=".3" fill="#eac102"/><g transform="translate(-119 6)"><rect rx="3.6" ry="3.6" height="9.2" width="18.1" stroke="#000" y="195.9" x="366.6" stroke-width=".3" fill="#eac102"/><rect rx="3.3" ry="3.1" height="7.9" width="16.3" stroke="#000" y="196.6" x="367.5" stroke-width=".3" fill="#ed1c24"/><g id="f" stroke="#000"><path stroke-linejoin="round" d="M345 201c0 3 2 5 5 5s4-2 4-5-2-4-4-4-5 2-5 4z" fill-rule="evenodd" stroke-linecap="round" stroke-width=".3" fill="#eac102"/><path stroke-linejoin="round" d="M345 201c0 3 2 5 4 5 3 0 5-2 5-5s-2-4-5-4c-2 0-4 2-4 4z" fill-rule="evenodd" stroke-linecap="round" stroke-width=".3" fill="#eac102"/><path stroke-linejoin="round" d="M345 201c0 2 2 4 4 4a4 4 0 0 0 0-8c-2 0-4 2-4 4z" fill-rule="evenodd" stroke-linecap="round" stroke-width=".3" fill="#e3e4e5"/><path stroke-linejoin="round" d="m336 202-7-4h0l6 4zM336 202l-7 5v1l6-6zm-7 6-7-4 6-6" stroke-linecap="round" stroke-width=".3" fill="none"/><path stroke-linejoin="round" d="m333 202-5 5-5-3 5-5z" fill-rule="evenodd" stroke-linecap="round" stroke-width=".3" fill="#008f4c"/><path stroke-linejoin="round" d="m330 203-3 2-2-1 2-3zm-2 4-1-2m-3-1h1m5-1 3-1m-6-1 1-2" stroke-linecap="round" stroke-width=".2" fill="none"/><g stroke-width="1.7"><path d="M2069 731h1c12 0 23-13 23-29 0-15-11-28-23-28h-1z" fill="#ed1c24" transform="matrix(-.15408 .04664 .04916 .14618 594 10)"/><path d="M2066 669h7v66h-7c-2-25-3-50 0-66z" fill="#eac102" transform="matrix(-.15408 .04664 .04916 .14618 594 10)"/></g><g stroke-linejoin="round" fill-rule="evenodd" stroke-linecap="round"><path d="M2030 671c-6 1-10 15-10 32s4 30 10 31h0l2 1h10v-19a73 73 0 0 0 0-27v-18Z" stroke-width="1.7" fill="#eac102" transform="matrix(-.15622 .03971 .04186 .14821 604 21)"/><path d="M2048 702c0 12-1 23-3 28-1 6-4 6-6 0-2-5-3-16-3-28 0-11 1-22 3-27 2-6 5-6 6 0 2 5 3 16 3 27z" transform="matrix(-.30912 .07858 .04161 .14734 916 -58)" stroke-width="1.2" fill="#eac102"/><path d="M2043 674c25 8 24 50 0 58-16-3-14-57 0-58z" stroke-width="1.7" fill="#e3e4e5" transform="matrix(-.15622 .03971 .04186 .14821 604 21)"/></g></g><use xlink:href="#f" transform="matrix(-1 0 0 1 751 0)"/></g><path d="M198 222s12-6 59-6c46 0 59 6 59 6s-11 6-59 6c-49 0-59-6-59-6z" fill-rule="evenodd" stroke="#000" stroke-width=".3" fill="#eac102"/><g stroke="#000" fill="none"><path d="M242 229v-14" stroke-width=".1"/><path d="M239 229v-14" stroke-width=".2"/><path d="M236 229v-14M234 229v-14" stroke-width=".3"/><path d="M232 229v-14" stroke-width=".4"/><path d="M227 229v-13m2 13v-14" stroke-width=".5"/><path d="M223 228v-12m2 12v-12M218 227v-10m2 11v-11m2 11v-11" stroke-width=".6"/><path d="M216 227v-10" stroke-width=".7"/><path d="M214 227v-10M213 227v-9" stroke-width=".8"/><path d="M209 226v-7m2 7v-8" stroke-width=".9"/><path d="M207 225v-6M205 225v-5"/><path d="M203 224v-4" stroke-width="1.1"/><path d="M201 224v-3" stroke-width="1.2"/><path d="M199 223v-1" stroke-width="1.4"/><path d="M252 229v-13m-4 13v-14m-3 14v-14M272 229v-14" stroke-width=".1"/><path d="M274 229v-14" stroke-width=".2"/><path d="M277 229v-14M279 229v-14" stroke-width=".3"/><path d="M282 229v-14" stroke-width=".4"/><path d="M286 229v-13m-2 13v-14" stroke-width=".5"/><path d="M290 228v-12m-2 12v-12M295 227v-10m-1 11v-11m-2 11v-11" stroke-width=".6"/><path d="M297 227v-10" stroke-width=".7"/><path d="M299 227v-10M301 227v-9" stroke-width=".8"/><path d="M305 226v-7m-2 7v-8" stroke-width=".9"/><path d="M307 225v-6M308 225v-5"/><path d="M310 224v-4" stroke-width="1.1"/><path d="M312 224v-3" stroke-width="1.2"/><path d="M315 223v-1" stroke-width="1.4"/><path d="M261 229v-13m5 13-1-14m4 14v-14" stroke-width=".1"/></g><path d="M257 212c-18 0-36 0-54 4-4 1-10 2-11 6-1 3 4 5 7 6a421 421 0 0 0 105 2c5-1 12-2 16-5 3-3 0-6-3-7a506 506 0 0 0-60-6zm0 4c46 0 59 6 59 6s-11 6-59 6c-49 0-59-6-59-6s12-6 59-6z" fill-rule="evenodd" stroke="#000" stroke-width=".3" fill="#eac102"/><path d="m238 401 9 3h21l14-1 8-5 4-2v-1l3-1 2-2 2-2 2-2 2-2 1-4-6-2-2 3s-1-1-2 0l-2 3-1-3-1 3-3 1v-4l-1 3-4 2 1-3-4 2-3 1 2-3-3 1h-3s-2 0-1-1l2-2h-5c-2 0-5 0-3-3 1-2-7 1-7 0s2-2-3-1l-4 1c-6 0-1-3-5-2l-7 2-1-2c-2 0-5 4-8 3l-5 4z" fill-rule="evenodd" stroke="#000" stroke-width=".2" fill="#008f4c"/><g transform="translate(-119 6)"><path fill-rule="evenodd" fill="#0071bc" d="M308 218v98c1 29 24 56 52 62a68 68 0 0 0 83-72v-88z"/><path d="M309 218v98c1 29 23 56 52 62a68 68 0 0 0 82-72v-88H309zm22 27h90v59c0 10-2 21-8 29a45 45 0 0 1-47 19c-19-4-34-22-35-42v-65z" fill-rule="evenodd" stroke="#000" stroke-width=".3" fill="#ed1c24"/><path d="M331 218v27h31v-27h-31zm58 0 1 27h31v-27h-32zm54 27h-22v22h22zm-81 133 3-26h22l4 26-14 2-15-2zm-31-133h-22v22h22zm84 85a39 39 0 0 1-2 3c-3 4-6 8-11 11l18 20c9-9 13-16 17-24l-22-10zm28-42h-22v22h22zm-106 42a39 39 0 0 0 2 3c2 4 5 7 11 11l-18 20c-9-9-14-16-18-24l23-10zm-6-42h-22v22h22z" fill-rule="evenodd" stroke="#000" stroke-width=".3" fill="#e3e4e5"/><path d="M308 218v98c1 29 24 56 52 62a68 68 0 0 0 83-72v-88H308z" stroke="#000" stroke-width=".8" fill="none"/><g id="g"><ellipse cx="235.8" cy="170.3" rx="92.6" transform="matrix(.2411 0 0 .22303 318 236)" ry="19.4" stroke="#231f20" stroke-width="1.2" fill="#eac102"/><path d="m354 273-1 1-1-1v-2h2z" stroke="#231f20" stroke-width=".3" fill="#eac102"/><path d="m398 272-1-2c-1-10-10-19-22-19s-21 9-21 20l-1 1-3-1c0 1 1 2 3 2l3-2c0-10 8-19 19-19s20 8 20 18v1c0 1 1 2 3 2 1 0 3-1 3-3l-3 2z" stroke="#231f20" stroke-width=".3" fill="#eac102"/><path d="M399 274h-2v-2l1-1 1 1z" stroke="#231f20" stroke-width=".3" fill="#eac102"/><path d="M353 275c2-2 11-4 22-4s21 2 22 4" stroke="#010101" stroke-width=".3" fill="#eac102"/><path d="M354 275c3-1 12-3 21-3 10 0 18 2 21 3" stroke="#010101" stroke-width=".3" fill="#eac102"/><path d="m356 276 19-2 19 2" stroke="#010101" stroke-width=".3" fill="#eac102"/><path d="M359 277a85 85 0 0 1 33 0m-28 1a100 100 0 0 1 23 0" stroke="#010101" stroke-width=".3" fill="#eac102"/><path d="m355 254-3 1h-1 1l-1 1 1-1h4v-1h-1z" fill-rule="evenodd" stroke="#000" stroke-width=".3" fill="#008f4c"/><path d="M356 269v-4c3 0 4-4 4-7s-1-5-3-6h-3l-1 2h2v1h-1l-1 1h4c1 1 2 4 0 6l-2 1c-2 1-2 2-2 4 0 3 1 4 2 4 0 10 5 5 1-2zM356 253h-1 1zm-10 3-2 1-1 1 1-1v1l1-1 2-1-1-1v1z" fill-rule="evenodd" stroke="#000" stroke-width=".3" fill="#008f4c"/><path d="M354 265c2-2 1-5-1-8-2-2-4-4-6-4l-3 1v3l1-1h2l-1 1v1l2-2c3 1 5 3 5 5l-2 2 2 4c2 3 3 3 4 3l-3-5z" fill-rule="evenodd" stroke="#000" stroke-width=".3" fill="#008f4c"/><path d="M346 254v1h-1v-1h1zm-2 8-2 2v1l1-1-1 1 1-1v-1l1-1v-1 1z" fill-rule="evenodd" stroke="#000" stroke-width=".3" fill="#008f4c"/><path d="M358 271c-2 1-4-1-4-2 2-3 0-5-3-7l-8-3-2 2 1 2h1l1-1v2l2-2c2 0 5 2 6 4l-1 2 3 4 4-1z" fill-rule="evenodd" stroke="#000" stroke-width=".3" fill="#008f4c"/><path d="M343 261h-1 1s0-1 0 0zm1 7-1 2-1 1 1-1v1h1v-2l1-1-1-1v1z" fill-rule="evenodd" stroke="#000" stroke-width=".3" fill="#008f4c"/><path d="M360 275c-1 1-4-1-4-2 1-3-2-5-5-6-3-2-6-2-8-2l-2 2 1 2 1 1 1-1v-1h1l-1 1v1l2-2c2-1 5 0 7 3v2l3 3 6 1c-3-1-2-2-2-2z" fill-rule="evenodd" stroke="#000" stroke-width=".3" fill="#008f4c"/><path d="M343 267v1l-1-1h1zm18-3 3 1h1-2l1 1h-1l-1-1-2-1v-1l1 1z" fill-rule="evenodd" stroke="#000" stroke-width=".3" fill="#008f4c"/><path d="m357 278 1-3c-4-2-4-5-3-8s2-5 4-6l3 1 1 2v1l-1-1h-1v1h1v1l-3-1c-2 1-3 4-2 6l2 1 1 5-3 4v-3z" fill-rule="evenodd" stroke="#000" stroke-width=".3" fill="#008f4c"/><path d="M360 263h1v-1l-1 1zm9 5 2 1 1 1-1-1v1l-1-2-1-1v1z" fill-rule="evenodd" stroke="#000" stroke-width=".3" fill="#008f4c"/><path d="M357 277c1 0 3-1 3-3-2-2 0-5 2-7l7-3 3 2v2l-1 1-1-1-1-1v1l1 1h-1l-2-2c-2 0-5 2-5 4l1 2c0 2-1 3-3 4-2 2-3 2-5 2l2-2z" fill-rule="evenodd" stroke="#000" stroke-width=".3" fill="#008f4c"/><path d="M370 266c-1 0 0 0 0 0v1-1zm0 8 1 2 1 1-1-1v1-1l-1-1v-2 1z" fill-rule="evenodd" stroke="#000" stroke-width=".3" fill="#008f4c"/><path d="M358 279c-1-3 2-5 5-7 3-1 6-2 8-1l2 2-1 2-1 1v-1l-1-1v2l-2-3c-2 0-5 1-6 3l-1 2c-3 1 2 4-3 1zM371 273h1-1zm25-19 3 1h1-1l1 1-1-1h-4v-1h1z" fill-rule="evenodd" stroke="#000" stroke-width=".3" fill="#008f4c"/><path d="M395 269v-4c-3 0-4-4-4-7s1-5 3-6h3l1 2h-2v1h1l1 1h-4c-1 1-2 4 0 6l2 1c2 1 2 2 2 4 0 3-1 4-2 4 0 10-5 5-1-2zM395 253h1-1zm10 3 2 1 1 1-1-1v1l-1-1-2-1 1-1v1z" fill-rule="evenodd" stroke="#000" stroke-width=".3" fill="#008f4c"/><path d="M397 265c-2-2-1-5 1-8 2-2 4-4 6-4l3 1v3l-1-1h-2l1 1v1l-2-2c-3 1-5 3-5 5l2 2-2 4c-2 3-3 3-4 3l3-5z" fill-rule="evenodd" stroke="#000" stroke-width=".3" fill="#008f4c"/><path d="M405 254v1h1v-1h-1zm2 8 2 2v1l-1-1 1 1-1-1v-1l-1-1v-1 1z" fill-rule="evenodd" stroke="#000" stroke-width=".3" fill="#008f4c"/><path d="M393 271c2 1 4-1 4-2-2-3 0-5 3-7l8-3 2 2-1 2h-1l-1-1v2l-2-2c-2 0-5 2-6 4l1 2-3 4-4-1z" fill-rule="evenodd" stroke="#000" stroke-width=".3" fill="#008f4c"/><path d="M408 261c1 0 1 0 0 0 0 0 0-1 0 0zm-1 7 1 2 1 1-1-1v1h-1v-2l-1-1 1-1v1z" fill-rule="evenodd" stroke="#000" stroke-width=".3" fill="#008f4c"/><path d="M391 275c1 1 4-1 4-2-1-3 2-5 5-6 3-2 6-2 8-2l2 2-1 2-1 1-1-1v-1h-1l1 1v1l-2-2c-2-1-5 0-7 3v2l-3 3-6 1c3-1 2-2 2-2z" fill-rule="evenodd" stroke="#000" stroke-width=".3" fill="#008f4c"/><path d="M408 267v1l1-1h-1zm-18-3-3 1h-1 2l-1 1h1l1-1 2-1v-1l-1 1z" fill-rule="evenodd" stroke="#000" stroke-width=".3" fill="#008f4c"/><path d="m394 278-1-3c4-2 4-5 3-8s-2-5-4-6l-3 1-1 2v1l1-1h1v1h-1v1l3-1c2 1 3 4 2 6l-2 1-1 5 3 4v-3z" fill-rule="evenodd" stroke="#000" stroke-width=".3" fill="#008f4c"/><path d="M391 263h-1v-1l1 1zm-9 5-2 1-1 1 1-1v1l1-2 1-1v1z" fill-rule="evenodd" stroke="#000" stroke-width=".3" fill="#008f4c"/><path d="M394 277c-1 0-3-1-3-3 2-2 0-5-2-7-3-2-5-3-8-3l-2 2v2l1 1 1-1 1-1v1l-1 1h1l2-2c2 0 5 2 5 4l-1 2c0 2 1 3 3 4 2 2 3 2 5 2l-2-2zM381 266v1-1zm0 8-1 2-1 1 1-1v1-1l1-1v-2 1z" fill-rule="evenodd" stroke="#000" stroke-width=".3" fill="#008f4c"/><path d="M393 279c1-3-2-5-5-7-3-1-6-2-8-1l-2 2 1 2 1 1v-1l1-1v2l2-3c2 0 5 1 6 3v2c4 1-1 4 4 1zM380 273h-1 1z" fill-rule="evenodd" stroke="#000" stroke-width=".3" fill="#008f4c"/><path d="M352 273c0 12 11 22 23 22 13 0 23-10 23-22h-1a1 1 0 0 1 1 1c0 2-10 4-23 4-12 0-22-2-22-4a1 1 0 0 1 0-1h-1z" stroke="#231f20" stroke-width=".3" fill="#eac102"/><path d="m352 273 1 6 4 2v5l1 1 6 2v3a24 24 0 0 0 8 2v-4h8v4a24 24 0 0 0 8-3v-2l4-1 3-3v-4l2-1 1-6-3 2v5l-7 2v-6l-8 1v6h-8v-6a96 96 0 0 1-8-1v6l-7-2v-5l-4-2v-1h-1zm12 10 8 1v6l-8-1v-6zm23 0v6l-7 1v-6l7-1z" stroke="#000" stroke-width=".3" fill="#ed1c24"/></g><use xlink:href="#g" transform="translate(0 50)"/><g id="h" stroke="#000"><g stroke-linejoin="round" fill-rule="evenodd" stroke-linecap="round" fill="#eac102"><path d="M278 337v65l-9-8v-59l9 2z" transform="matrix(.09 0 0 .08124 300 198)"/><path d="m274 336 5 3 5-5-6-3-4 5z" transform="matrix(.09 0 0 .08124 300 198)"/><path d="m278 321 6 4v9l-6-3v-10zm-32 16v65l10-8v-60l-10 3z" transform="matrix(.09 0 0 .08124 300 198)"/><path d="m250 336-5 3-5-5 6-3 4 5z" transform="matrix(.09 0 0 .08124 300 198)"/><path d="m246 321-6 4v9l6-3v-10z" transform="matrix(.09 0 0 .08124 300 198)"/><path d="m245 331 5 5h24l4-5h-33zm1-10h6v4h7v-4h6v4h7v-4h6v10h-32v-10Zm4 15v62h24v-62Zm12 11c3 1 5 2 5 7v15h-10v-15c0-5 2-7 5-7z" transform="matrix(.09 0 0 .08124 300 198)"/></g><path stroke-linejoin="round" d="M322 223v7h-1v-7h1zM321 223h1zM322 222h0v1h0Zm-3 1v7h1v-7h-1ZM319 223h0-1 1zm0-1h-1v1h1Z" fill-rule="evenodd" stroke-linecap="round" stroke-width=".1" fill="#eac102"/><path stroke-linejoin="round" d="M319 223h3-3zm0-1h0v0h1v0h0v0h1v0h1v1h-3v-1Zm0 1v7h2v-7h-2zm1 1 1 1v1h-1v-2z" fill-rule="evenodd" stroke-linecap="round" stroke-width=".1" fill="#eac102"/><g stroke-linejoin="round" fill-rule="evenodd" stroke-linecap="round" fill="#eac102"><path d="M278 337v65l-9-8v-59l9 2z" transform="matrix(.09 0 0 .08124 293 198)"/><path d="m274 336 5 3 5-5-6-3-4 5z" transform="matrix(.09 0 0 .08124 293 198)"/><path d="m278 321 6 4v9l-6-3v-10zm-32 16v65l10-8v-60l-10 3z" transform="matrix(.09 0 0 .08124 293 198)"/><path d="m250 336-5 3-5-5 6-3 4 5z" transform="matrix(.09 0 0 .08124 293 198)"/><path d="m246 321-6 4v9l6-3v-10z" transform="matrix(.09 0 0 .08124 293 198)"/><path d="m245 331 5 5h24l4-5h-33zm1-10h6v4h7v-4h6v4h7v-4h6v10h-32v-10Zm4 15v62h24v-62Zm12 11c3 1 5 2 5 7v15h-10v-15c0-5 2-7 5-7z" transform="matrix(.09 0 0 .08124 293 198)"/></g><g stroke-linejoin="round" stroke-linecap="round"><path d="m233 361 4 3m-4-12 4 3m-4-12 4 3m-4-12 4 3m-4-12 4 3m-28 33-5 3m5-12-5 3m5-12-5 3m5-12-5 3m5-12-5 3" fill="none" transform="matrix(.09 0 0 .08124 300 198)"/><path d="M221 352v-3m-12-24h23m-6 9h6m-6 9h6m-23 9h23m-23 9h23m-11 8v-8m-4 0v-9m8 9v-9m-8-27v-9m8 9v-9" fill-rule="evenodd" fill="#eac102" transform="matrix(.09 0 0 .08124 300 198)"/><path d="m233 370 4 3m-28-3-5 3" fill="none" transform="matrix(.09 0 0 .08124 300 198)"/><path d="M209 370h23" fill-rule="evenodd" fill="#eac102" transform="matrix(.09 0 0 .08124 300 198)"/><path d="m233 379 4 3m-28-3-5 3" fill="none" transform="matrix(.09 0 0 .08124 300 198)"/><path d="M209 379h23m-15 0v-9m8 9v-9m-4 29v-19m-12-46h6m-6 9h6m6-16v-2" fill-rule="evenodd" fill="#eac102" transform="matrix(.09 0 0 .08124 300 198)"/></g><g stroke-linejoin="round" stroke-linecap="round"><path d="m274 382 4 3m-4-12 4 3m-4-12 4 3m-4-12 4 3m-4-12 4 3m-28 33-4 3m4-12-4 3m4-12-4 3m4-12-4 3m4-12-4 3" fill="none" transform="matrix(.09 0 0 .08124 300 198)"/><path d="M262 372v-2m-12-24h24m-7 9h6m-5 9h5m-23 9h24m-24 9h24m-12 16v-16m-4 0v-9m9 9v-9m-9-27v-10m9 10v-10m-17 19h6m-6 9h6m6-17v-1" fill-rule="evenodd" fill="#eac102" transform="matrix(.09 0 0 .08124 300 198)"/></g><g stroke-linejoin="round" stroke-linecap="round"><path d="m274 382 4 3m-4-12 4 3m-4-12 4 3m-4-12 4 3m-4-12 4 3m-28 33-4 3m4-12-4 3m4-12-4 3m4-12-4 3m4-12-4 3" fill="none" transform="matrix(.09 0 0 .08124 293 198)"/><path d="M262 372v-2m-12-24h24m-7 9h6m-5 9h5m-23 9h24m-24 9h24m-12 16v-16m-4 0v-9m9 9v-9m-9-27v-10m9 10v-10m-17 19h6m-6 9h6m6-17v-1" fill-rule="evenodd" fill="#eac102" transform="matrix(.09 0 0 .08124 293 198)"/></g><path stroke-linejoin="round" d="M317 235v-2l1-1v3h-1zm5 0v-2l1-1v3h-1zm-6-7v-2s0 0 0 0h1a41 41 0 0 1 0 2h-1zm7 0v-2h1s0 0 0 0a41 41 0 0 1 0 2h-1zm-3-2v-2l1 1a41 41 0 0 1 0 1h-1z" fill-rule="evenodd" stroke-linecap="round" stroke-width=".1" fill="#0071bc"/><path stroke-linejoin="round" d="M316 230h-2v7l-1 1v2l3 1h3v-3s0 0 0 0a1 1 0 0 1 1 0 1 1 0 0 1 0-1 1 1 0 0 1 0 0h1a1 1 0 0 1 0 1s0 0 0 0v3h4l2-1v-2l-1-1v-6l1-1h-11zm2 2h0v3h-1v-2l1-1zm5 0h0v3h-1v-2l1-1z" fill-rule="evenodd" stroke-linecap="round" stroke-width=".1" fill="#eac102"/><path stroke-linejoin="round" d="m313 238 3 1v2m-2-4h3m-1 2 1-2m0 0v-7m-1 0h1m-3 1 3-1m10 8-2 1v2m1-4h-2m1 2-1-2m0 0v-7m1 0h-1m2 1-2-1m-7 7h7m-7-7h7m-3 9h4m-9 0h3" stroke-linecap="round" stroke-width=".1" fill="none"/><path stroke-linejoin="round" d="m320 237-1 1v3h0v-3s0 0 0 0a1 1 0 0 1 1 0 1 1 0 0 1 0-1 1 1 0 0 1 0 0h1a1 1 0 0 1 0 1s0 0 0 0v3h1v-3l-2-1zm6-8h0v0h0v0h0zM324 228h1v1h1v0h1v1h-3v-2zm-10 1h1v0h-1v0h0zM316 228h-1v1h-1v0h0v1h2v-2z" fill-rule="evenodd" stroke-linecap="round" stroke-width=".1" fill="#eac102"/><path stroke-linejoin="round" d="M318 228h-2v2h9v-2h-2v1h-2v-1h-2v1h-1Z" stroke-linecap="round" stroke-width=".1" fill="#eac102"/><path d="m436 662-23-3m23 15-23-1m23 14h-23m23 12-23 3m23 10-23 4m10 44 23-14m-22-99v13m0 14v13m0 14v13m0 13 11 14m0 24v-12m-17-93v13m14-11v12m-14 13v14m14-14v13m-14 15v14m14-16v12m-4 20v12m14-20v12M321 760l-23-14m10-84 23-3m-23 15 23-1m-23 14h23m-23 12 23 3m-23 10 23 4m-10 44-23-14m22-99v13m0 14v13m0 14v13m0 13-11 14m0 24v-12m18-93v13m-15-11v12m15 13v14m-15-14v13m15 15v14m-15-16v12m4 20v12m-14-20v12M399 663v-4m-11 101h35m-92-101h81m-59 14h39m-40 14h40m-61 15h81m-81 14h81m-54-57v-14m27 14v-14m-27 42v-14m27 14v-14m-27 43v-14m27 14v-14m-40-40v-3m27 14v-14m-27 42v-3m27 4v-14m27 13v-3m-54 32v-14m27 8v-8m27 14v-14m-59 32 5-18m59 18-5-18m-60 42v-12m65 12v-12m-74 0v-12m17 12v-12m50 12v-12m17 12v-12m-93 12h34m51-87h7m-81 0h6m69 14h5m-80 0h6" transform="matrix(.09 0 0 .08147 287 178)" stroke-linejoin="round" stroke-linecap="round" fill="none"/><g stroke-linejoin="round" stroke-linecap="round" stroke-width=".7" fill="none"><path d="M1067 150a4 4 0 0 1 7 0h-4z" transform="matrix(.13891 0 0 .11967 168 212)"/><path d="M1067 150a4 4 0 0 1 7 0h-4z" transform="matrix(.13891 0 0 .11967 170 212)"/><path d="M1067 150a4 4 0 0 1 7 0h-4z" transform="matrix(.13891 0 0 .11967 175 212)"/><path d="M1067 150a4 4 0 0 1 7 0h-4z" transform="matrix(.13891 0 0 .11967 173 212)"/><path d="M1067 150a4 4 0 0 1 7 0h-4z" transform="matrix(.13891 0 0 .11967 172 212)"/><path d="M1067 150a4 4 0 0 1 7 0h-4z" transform="matrix(.13891 0 0 .11967 171 212)"/></g><path d="M158 408s-4-6 0-7c5-1 9 5 9 5m2-1s-5-5 0-6c4-1 8 4 8 4m106 5s5-6 0-7c-4-1-9 5-9 5m-1-1s4-5 0-6c-5-1-9 4-9 4" transform="matrix(.09 0 0 .08124 300 198)" fill="none"/><path d="m320 238-1-1m3 4h-1m1-1h-1m1-2h-1m1 1h-1m1 1h-1m0-2v-1m0 1h1" stroke-width=".1" fill="none"/><path stroke-linejoin="round" d="M319 241v-2l1-2 1 2v2h-2z" fill-rule="evenodd" stroke-linecap="round" stroke-width=".1" fill="#0071bc"/></g><g id="i"><path fill-rule="evenodd" fill="#d576ad" d="M347 226a2 2 0 0 0-1 0h-2v-1 1h3"/><path fill-rule="evenodd" d="M346 224z"/><path d="M346 225v2h1l-1-2zM348 233c-1 0 0 0 0 0v1h1l-1-1zm-4 5v1-1m-2 1a1 1 0 0 0 1 0h-1m-1-2v1h1l-1-1m1 0" fill-rule="evenodd" stroke="#000" stroke-width="0" fill="#ed1c24"/><path d="M339 232v1h1l-1-1M340 233v1-1" fill-rule="evenodd" stroke="#000" stroke-width=".1" fill="#ed1c24"/><path d="m347 233-3 2v1l-1 1h-1l-1 1h1v1h1v-1 1h1s0-1 0 0v-1h2l1-2v-1h1v-1l-1-1z" fill-rule="evenodd" stroke="#000" stroke-width="0" fill="#ed1c24"/><path d="M341 232v1h1l-1-1M340 231h-1 1" fill-rule="evenodd" stroke="#000" stroke-width=".1" fill="#ed1c24"/><path d="m348 239-1 1h1a1 1 0 0 1 0-1m0 1h-1v1h1v-1m2 0h1-1" fill-rule="evenodd" stroke="#000" stroke-width="0" fill="#ed1c24"/><path d="m354 224-1 1v-1l-2 1v1l-1 3 2 2 1 2-1 1-1-2-2-1h-1l-1-1c0 1-2 2-3 1h-1v-1a1 1 0 0 1-1 0 4 4 0 0 1-1 1h-1v1h-1l1 1h1s0-1 0 0h1v-1h1l1 1v-1h1l3 1 1 1h-1a2 2 0 0 0 0 3l1 1h1l-1 1h-1v1h-1l1 1h1l1-1h1v-1h1v-3a1 1 0 0 0-1 0v-1c0-1 0 0 0 0h2l1-1v-3c0-1 0-1 0 0h-1v-1l1-1h-1l-1 1v-2l1-1c1 0 0 0 0 0l-1 1v-1l-1 1a1 1 0 0 1 1-1l2-2a3 3 0 0 0 0-2v1zm-7 2a5 5 0 0 0-1 0h-2v-1 1h3" fill-rule="evenodd" stroke="#000" stroke-width="0" fill="#ed1c24"/><path d="M341 225v-1 1s0-1 0 0M341 225h-2 2M340 226h-1 1c-1 0 0 0 0 0M340 227h-1 2-1" fill-rule="evenodd" stroke="#000" stroke-width=".1" fill="#ed1c24"/><path d="M341 224v1h-1v1c0-1-1 0 0 0v1h1v2h1v1l1-1h1v-1l-2-1v-2l-1-1zm5 2v1" fill-rule="evenodd" stroke="#000" stroke-width="0" fill="#ed1c24"/><g stroke-width=".2" stroke="#000" fill="#ed1c24" fill-rule="evenodd"><path d="M473 418h1M489 426v-6h2l-2-3-1-3 1-1-3-1 1-2h-2l-1 1 1-1-1-2h-2l-1 1 1-1a3 3 0 0 0-1 0l-1 1c-4 0-5 2-6 3l-2 2v1l1-1-1 1v1l2 2 1-2c1 0 3 1 3 3l-2 2-1-1-1 1 1 1h1l1 1-2 1-4-2v2l-3-1-1 3v2c-2 0-4 2-4 4l-2 2 3 2v3l3-1 5 1c4 0 6-1 8-3l4 1 2-1v-3l2 1-1-4 1-2h2l-1-2z" transform="matrix(.26487 0 0 .28384 220 107)"/></g><path d="M346 224z" fill-rule="evenodd" stroke="#000" stroke-width="0"/><path d="m348 224-2-1a8 8 0 0 1 4 1v1h-1l-1-1" stroke="#000" stroke-width="0" fill="#eac102"/><path d="M348 223h-2 2l2 1-2-1" stroke="#000" stroke-width="0" fill="#eac102"/><path d="M348 223h1v1h1-2v-1h-2v-1 1c0 1 0 0 0 0h2" stroke="#000" stroke-width="0" fill="#eac102"/><path d="M346 222h1v1l-1-1m3 1" stroke="#000" stroke-width="0" fill="#eac102"/><path d="M349 222h-1v1-1 1-1 1h1-1 1v-1z" fill-rule="evenodd" stroke="#000" stroke-width="0" fill="#eac102"/><path d="M348 223h0m0 0h0m0 0a1 1 0 0 0 0 0m0 0h0s0 0 0 0m1 0v-1m-1 1h0v-1m0 1h0s0 0 0 0m1 0s0 0 0 0m0 0s0 0 0 0m0 0h0m0 0h0s0 0 0 0" fill-rule="evenodd" stroke="#000" stroke-linecap="round" stroke-width="0" fill="#eac102"/><path d="M348 223h1-1M348 223h1-1" stroke="#000" stroke-width="0" fill="#eac102"/><path d="M350 223h-1 1-1v1h1v-1z" fill-rule="evenodd" stroke="#000" stroke-width="0" fill="#eac102"/><path d="M349 223v1h0m0-1h0m0 0h0m0 0h0s0 0 0 0m1 0s0 0 0 0m0 0h0s0 0 0 0m-1 1h0m1 0h0m0-1v1m0-1h0s0 0 0 0m0 0h0s0 0 0 0" fill-rule="evenodd" stroke="#000" stroke-linecap="round" stroke-width="0" fill="#eac102"/><path d="M349 223h1l-1 1v-1" stroke="#000" stroke-width="0" fill="#eac102"/><path d="M349 223h1l-1 1v-1" stroke="#000" stroke-width="0" fill="#eac102"/><path d="M347 222h1-1 1v1-1h-1v1h1-1v-1 1-1z" fill-rule="evenodd" stroke="#000" stroke-width="0" fill="#eac102"/><path d="M347 223h0s0 0 0 0m0-1v1m0-1h1m-1 0h0s0 0 0 0m0 0a3 3 0 0 0 0 0m0 0h0s0 0 0 0m0 1h0m0-1h0m0 0a1 1 0 0 0 0 0m0 0h0m0 0h0s0 0 0 0" fill-rule="evenodd" stroke="#000" stroke-linecap="round" stroke-width="0" fill="#eac102"/><path d="M347 222v1-1M347 222c0 1 0 0 0 0" stroke="#000" stroke-width="0" fill="#eac102"/><path d="M346 223v-1h1-1v1z" fill-rule="evenodd" stroke="#000" stroke-width="0" fill="#eac102"/><path d="M346 222h0s0 0 0 0m0 0h0m0 0a1 1 0 0 1 0 0m0 0h0s0 0 0 0m0 0h0" fill-rule="evenodd" stroke="#000" stroke-linecap="round" stroke-width="0" fill="#eac102"/><path d="M346 222zM346 222" stroke="#000" stroke-width="0" fill="#eac102"/><path d="M350 224h1a1 1 0 0 0-1 0z" fill-rule="evenodd" stroke="#000" stroke-width="0" fill="#eac102"/><path d="M350 224h0s0 0 0 0m0 0h0m0 0h0m0 0h0s0 0 0 0m1 0h0s0 0 0 0" fill-rule="evenodd" stroke="#000" stroke-linecap="round" stroke-width="0" fill="#eac102"/><path d="M350 224h1-1zM350 224h1-1m-2 0a8 8 0 0 0-2-1l2 1 1 1-1-1m0 0c0-1 0-1 0 0M350 225v-1h-1v1h1z" stroke="#000" stroke-width="0" fill="#eac102"/><path d="m350 225-1-1v1h1zm-4-2zM346 223zm1 0h1v1h-1v-1m2 1" stroke="#000" stroke-width="0" fill="#eac102"/><path fill-rule="evenodd" transform="matrix(.7032 .711 -.98584 .16769 0 0)" stroke="#000" stroke-linecap="round" stroke-width="0" fill="#eac102" d="M340-110h0v1h0z"/><path fill-rule="evenodd" transform="matrix(.70576 .70845 -.98637 .16452 0 0)" stroke="#000" stroke-linecap="round" stroke-width="0" fill="#eac102" d="M340-108h0v0h0z"/><path fill-rule="evenodd" transform="matrix(-.99774 -.06716 .4935 .86975 0 0)" stroke="#000" stroke-linecap="round" stroke-width="0" fill="#eac102" d="M-231 240h0v0h0z"/><path fill-rule="evenodd" transform="matrix(-.99752 -.07045 .49668 .86793 0 0)" stroke="#000" stroke-linecap="round" stroke-width="0" fill="#eac102" d="M-231 239h1v1h-1z"/></g><use xlink:href="#h" transform="translate(56)"/><use xlink:href="#h" transform="translate(31 129)"/><use xlink:href="#h" transform="translate(80 129)"/><use xlink:href="#h" transform="translate(0 46)"/><use xlink:href="#h" transform="translate(1 91)"/><use xlink:href="#h" transform="translate(112)"/><use xlink:href="#h" transform="translate(112 46)"/><use xlink:href="#h" transform="translate(110 91)"/><use xlink:href="#i" transform="translate(58)"/><use xlink:href="#i" transform="translate(85 24)"/><use xlink:href="#i" transform="translate(85 68)"/><use xlink:href="#i" transform="translate(-26 24)"/><use xlink:href="#i" transform="translate(-27 68)"/><use xlink:href="#i" transform="translate(-15 114)"/><use xlink:href="#i" transform="translate(72 115)"/><use xlink:href="#i" transform="translate(30 135)"/></g><g stroke="#000" stroke-width=".2"><path d="m213 378 8-9 2-4 1-2v4l-3 4-6 8z" fill-rule="evenodd" fill="#ed1c24"/><path d="m219 367 1 1v1l-1-1-1-1h1zM218 368l1 1v1l-1-1-1-1h1zM217 369l1 1 1 1h-2l-1-1 1-1z" fill-rule="evenodd" fill="#e3e4e5"/><path d="M216 370h1v2h-1l-1-1 1-1z" fill-rule="evenodd" fill="#e3e4e5"/><path d="m215 371 1 1v1l-1-1v-1zM214 372l1 1v1l-1-1v-1zM214 373l1 1h-1l-1-1h1zM213 374h1v1h-1v-1zM212 375h1l1 1h-1l-1-1zm8-2-1-1-1 1h2z" fill-rule="evenodd" fill="#e3e4e5"/><path d="m216 377-3 1 1 1h1z" fill-rule="evenodd" fill="#008f4c"/><path d="m227 385-3 4-3 3h-2l-2 2-2-1h-2v1-1l-1-2h-3l1-2-1-2 4-1 1-1h-3 3l2-1 1-1h-4 5l1-1h2l-1-1h-1l-5 1 5-1 1-1h2l-1-1-3 1h-3l4-4 3-1 2-1 1-1h-3l3-1h2l-2-1-3 2-1-2-5 7h-3l-1-2 1-2 6-7-1-2-2 1-2-1v1h-1l-5 5-3 1-3 3-1 2h-2l-2 2-6 5-2 2 6-2-1 1-2 2-2 2 4-2 4-2 2-1-1 1-1 2-1 2 1-1 2-2-1 5v7l2-3a22 22 0 0 0 5 10l3 2-1-3-2-1 2 1 2 2 4 2h5l-2-2h3l7-2 7-2h10" fill-rule="evenodd" fill="#008f4c"/><path d="m257 404-3 5 5-3zm2 3-2 5 5-3zm5 3-1 4 4-4z" fill-rule="evenodd" fill="#e3e4e5"/><path d="m221 392 1 2v1m-5-1v3" fill-rule="evenodd" fill="#c8b100"/><path d="M208 371v3l-1 2v2l3-2-1-3-1-2z" fill-rule="evenodd" fill="#e3e4e5"/><path d="m201 376-1 3" fill-rule="evenodd" fill="#058e6e"/><path d="m194 385 2-1 3-2 3-1v2" fill-rule="evenodd" fill="#008f4c"/><path d="m214 380-2-1v-1" fill-rule="evenodd" fill="#058e6e"/><path stroke-linejoin="round" d="m209 376-1-1-1-1v1h1v1h1z" fill-rule="evenodd"/><path d="m216 366-1 1h-1l-1 1 1 1 1-1v-1m-20 16 7-4m131 2-6-2-6 4 2-5-4 3c-1 1-7 9-13 8-7-1-13-8-14-14 0-4 2-8 6-9s7 0 9 5 1 6 0 10l-2 3-4-4s2-4 1-6l-2-3c-2 0-2 2-2 4l2 4 6 6 5-1c2-2 4-2 6-5 3-4 6-4 6-4l-4-2s6-2 10 1c3 3 4 5 4 7z" fill-rule="evenodd" fill="#008f4c"/><path d="M303 388h-5m1 4-2-1h-1m-2 3h-2" fill="none"/><path d="m285 393 6 4 1 4-2 3-12 1c-5 1-11 6-11 6h-4v-3l-1 2-3-1c-1-2 1-3 1-3h-2l-2-1c0-2 2-3 2-3l6 1 5 1 3-2 5-1s-4 0-7-4m-21-2 3 5 3 7s-1 3-4 4l-8 1-9-3-2 1-2-2-3 1-2-1-3-2-1-2-1-2 5-2 4 1c2 1 2 3 2 3h6l5 2-3-3-2-4" fill-rule="evenodd" fill="#008f4c"/><path d="M262 403v-7m-5 8-2-2-1-2 1-2m14 7-1-2-1-4 1-1" fill="none"/><path d="m221 402-2 1-1 3 4-2zm1 4-1 3 3-2zm4 2v4l2-4z" fill-rule="evenodd" fill="#e3e4e5"/><path d="m221 405 1-1 2-1m1 4 1-1 1-1m2-4v-2" fill="none"/></g></svg>