<svg width="512" height="512" xmlns="http://www.w3.org/2000/svg"><path fill="#06f" style="stroke-width:.853333" d="M.003-.003h512v512h-512z"/><g fill="#f7d417"><path d="m184.518 269.043 1.807 4.064-12.726 22.88-3.84 4.364h12.5l-2.034-4.892 2.41-4.364 8.66 7.676 8.584-7.676 2.41 4.364-2.033 4.892h12.5l-3.765-4.365-12.802-22.88 1.883-4.063h-13.555zm6.777 6.623 5.422 9.783-5.422 4.892-5.497-4.892z"/><path d="M234.028 256.951c2.188 3.999 5.27 7.375 8.95 9.816l-1.443 135.5c-1.662.309-12.748 11.614-13.225 13.505-.199.934-.348 1.921-.348 2.856 0 6.337 4.922 11.478 11.038 11.478 3.182 0 6.265-1.454 8.354-3.999 2.784 2.597 6.363 4 10.042 4 3.73 0 7.31-1.403 10.044-4 2.089 2.545 5.171 4 8.353 4 6.116 0 11.038-5.142 11.038-11.48 0-.934-.098-1.92-.347-2.803-.276-1.168-11.932-13.316-13.226-13.556l-1.442-135.501a28.287 28.287 0 0 0 8.999-9.816l75.476-.624c.547 4.648 9.93 17.14 14.568 17.14 4.921 0 8.9-4.207 8.9-9.297 0-3.012-1.343-5.765-3.68-7.53-2.04-1.559-.995-4.935 1.541-4.935.895 0 1.74.467 2.237 1.298a9.43 9.43 0 0 0 2.388.312c3.579 0 6.761-2.181 8.203-5.557.596-1.506.945-3.116.945-4.727 0-1.61-.349-3.168-.945-4.674-1.442-3.376-4.624-5.61-8.203-5.61-.796 0-1.592.157-2.388.364-1.391 2.338-4.822 1.299-4.822-1.454 0-.83.398-1.662 1.044-2.182 2.337-1.765 3.68-4.57 3.68-7.53 0-5.142-3.979-9.297-8.9-9.297-4.63 0-14.023 12.505-14.568 17.14l-75.467-.65c-2.377-4.365-5.813-7.987-9.992-10.476l-.706-93.286c4.22-.542 16.358-10.812 16.358-15.218 0-5.09-3.978-9.297-8.9-9.297-2.834 0-5.518 1.455-7.16 3.843-1.491 2.13-4.723 1.04-4.723-1.609 0-.935.448-1.818 1.194-2.285.249-.831.348-1.715.348-2.546 0-3.687-2.089-7.063-5.32-8.518a10.627 10.627 0 0 0-4.525-.986c-1.542 0-3.083.312-4.476.986-3.28 1.455-5.37 4.831-5.37 8.518 0 .884.101 1.715.35 2.546.745.467 1.242 1.35 1.242 2.285 0 1.506-1.193 2.752-2.635 2.752-.845 0-1.591-.415-2.088-1.143-1.69-2.388-4.375-3.843-7.21-3.843-4.923 0-8.9 4.207-8.9 9.297 0 4.833 11.972 14.72 16.408 15.218l-.745 93.277c-4.127 2.493-7.557 6.077-9.944 10.44l-75.526.675c-.515-4.374-10.385-17.14-14.568-17.14-4.922 0-8.9 4.156-8.9 9.297 0 2.96 1.393 5.765 3.68 7.531a2.853 2.853 0 0 1 1.044 2.182c0 1.506-1.144 2.753-2.585 2.753-.896 0-1.74-.468-2.189-1.299-.795-.207-1.64-.363-2.436-.363-3.53 0-6.761 2.233-8.154 5.609-.646 1.454-.944 3.064-.944 4.674 0 1.663.298 3.22.944 4.727 1.393 3.376 4.624 5.557 8.154 5.557.796 0 1.641-.104 2.436-.364 1.393-2.285 4.774-1.247 4.774 1.454 0 .883-.398 1.715-1.044 2.234-2.287 1.714-3.68 4.519-3.68 7.531 0 5.09 3.978 9.297 8.9 9.297 4.164 0 14.056-12.789 14.568-17.14l75.526.624z"/><path d="m188.844 256.601 4.87.056v12.352h-4.87zM318.15 271.296c1.342 1.039 2.188 2.596 2.337 4.363.098.675.148 1.35.148 2.077 0 3.272-.795 6.492-2.287 9.349-2.287 4.518-8.503 4.207-10.391-.468a16.493 16.493 0 0 1-1.144-6.388c.199-4.779 2.835-9.14 6.961-11.219h-11.138c.597.572.895 1.299.895 2.13 0 .26 0 .519-.098.78a39.638 39.638 0 0 0-1.343 10.283c0 1.713.1 3.376.348 5.09.696 5.713 5.42 10.023 10.989 10.023 4.376 0 8.353-2.7 10.093-6.855 1.79 4.207 5.767 6.855 10.142 6.855 5.57 0 10.293-4.31 10.99-10.075.198-1.714.347-3.377.347-5.038 0-3.48-.497-6.908-1.392-10.284-.248-1.039.05-2.181.795-2.909h-11.099c4.127 2.13 6.762 6.44 6.911 11.22v.519c0 1.973-.348 3.998-1.094 5.868-1.89 4.675-8.104 4.986-10.392.52-1.839-3.532-2.585-7.53-2.187-11.53.199-1.715 1.044-3.272 2.386-4.311h-10.79z"/><path d="m321.094 256.652 4.925-.055v14.691h-4.925z"/></g></svg>