<svg width="512" height="512.1" xmlns="http://www.w3.org/2000/svg"><path style="fill:#99011a;fill-rule:evenodd;stroke-width:1.03226pt" d="M0 0h512v512H0z"/><path style="fill:#fc0;stroke:#000;stroke-width:.774173;stroke-linejoin:round" d="M370 376.6v-.5l-.2-.5v-1l-.4-1-.3-1.2-.5-1-.4-1-.6-1-.6-1.1-1-1.7-.9-1.3-.6-1-.3-.2h.3l.9.3 1.2.4 1.6.5.9.3.7.5.8.3.8.5.8.4.7.6.6.4.6.7.4.4.3.6v1.2l-.3.3-.2.4-.3.2-.3.2-.3.3-.3.2h-.2l-.6.2-.2.1v.6l.2.5.3.6.1.3.3.5.3.2.3.2.4.2.5.3h2.5l.5-.3.6-.2.5-.3.4-.2.3-.4.4-.3.5-.8.5-.6.2-.4v-.1l.1.1.2.4.4.7.6.7.4.4.3.4.5.3.5.3.6.3h.5l.7.3h2l.6-.1.4-.1.4-.1.3-.2h.3l.1-.3.3-.2v-.1l.2-.2v-.3l.1-.4v-1l-.1-.4-.1-.2v-.2l-.3-.1v-.1l-.3-.1-.2-.1-.3-.2h-.4l-.4.2h-1l-.6.3v-.1l.2-.5.1-.6.5-.7.2-.4.2-.3.3-.2.3-.2.3-.3.4-.2h.7v-.2l.3-.5.3-.5.3-.7.5-.5.4-.6.4-.2.2-.2.3-.2h.5l.3.2.2.2.4.2.5.6.5.5.3.7.3.5.3.5v.1h.4l.4.1.3.2.3.3.4.2.2.2.3.3.1.4.5.7.2.6.2.5-.6-.1-.6-.2h-1.6l-.2.2h-.2l-.1.2-.3.1v.4l-.2.5v.9l.1.4v.3l.1.2h.2l.2.3.2.2.2.1.4.2h.3l.4.2.6.1h2l.7-.2.5-.1.7-.3.5-.3.4-.3.3-.4.5-.4.6-.7.3-.7.3-.4v-.1.1l.4.4.3.6.6.8.3.3.3.4.5.2.4.3.6.2.5.3h2.6l.4-.3.5-.2.2-.2.4-.2.2-.5.2-.3.2-.6.1-.5.1-.5-.2-.2-.4-.1-.4-.1-.3-.2-.2-.3-.4-.2-.3-.2-.2-.4-.2-.3V370l.3-.6.3-.4.6-.7.7-.4.6-.6.8-.4.8-.5.9-.3.8-.5.8-.3 1.5-.5 1.3-.4.8-.2.4-.1-.4.3-.5.9-1 1.3-1 1.7-.6 1-.4 1-.6 1-.4 1.1-.4 1.2-.2 1-.1.5-.1.5v13.2h-46v-12.2m0 32.6v-.6l-.2-.5v-1l-.4-1.1-.3-1.2-.5-1-.4-1-.6-1.1-.6-1-1-1.7-.9-1.4-.6-1-.3-.3.3.2.9.3 1.2.4 1.6.6.9.3.7.4.8.4.8.5.8.4.7.6.6.5.6.6.4.5.3.5v1.3l-.3.4-.2.2-.3.3-.3.2-.3.3h-.3l-.2.2-.6.2h-.2V406.2l.2.5.3.7.1.3.3.4.3.3.3.2.4.3h.5l.5.2H376.3l.7-.1.5-.3.6-.2.5-.2.4-.4.3-.4.4-.3.5-.7.5-.7.2-.4v-.2l.1.2.2.4.4.7.6.7.4.3.3.4.5.4.5.2.6.2.5.3h.7l.7.2h.8l.5-.1h.6l.4-.1.4-.1.3-.3h.3l.1-.2.3-.2v-.2l.2-.3.1-.5v-1l-.1-.4h-.1v-.3l-.3-.1v-.2l-.3-.1-.2-.2h-1.6l-.5.2h-.6l.2-.4.2-.6.4-.6.2-.3.3-.4.2-.2.3-.3.3-.1.4-.2h.8v-.3l.2-.4.3-.6.4-.7.4-.6.5-.7.3-.2.2-.3h1.1l.3.3.3.2.5.7.5.6.3.7.4.6.2.4v.2h.4l.4.1.3.2h.3l.4.4.2.2.3.4.1.3.5.6.2.6.2.4h-.6l-.6-.2h-1.6l-.2.2h-.2l-.1.3-.2.1-.2.2v2l.2.3v.2l.3.2.2.1.2.1.4.3h.3l.5.2h2.5l.7-.1.6-.3.6-.2.5-.2.4-.4.4-.4.4-.3.6-.7.3-.7.3-.4v-.2.2l.4.4.3.7.6.7.3.3.3.4.5.4.4.2.6.2.5.3h.7l.7.2.7-.1.5-.1.5-.1.4-.3.2-.2.4-.3.2-.4.2-.3.2-.7.2-.5V405.6h-.2l-.4-.2-.3-.1-.4-.1-.2-.3-.3-.2-.4-.3-.2-.2-.2-.4v-1.3l.3-.5.4-.5.5-.6.7-.5.7-.6.7-.4.8-.5 1-.4.7-.4.8-.3 1.5-.6 1.3-.4.9-.3.3-.2-.3.4-.6.9-.9 1.4-1.1 1.7-.6 1-.4 1-.6 1.1-.4 1-.4 1.2-.2 1v.6l-.2.5v13h-46v-12m34.7 32.4v-1l-.1-.6-.1-.4-.4-1.1-.3-1-.4-1.2-.5-1-.5-1-.5-1-1.1-1.7-.9-1.3-.7-.9-.2-.3h.2l1 .3 1.1.5 1.6.5 1 .4.7.3.8.4.8.5.7.4.8.5.7.4.4.6.5.5.2.6.1.4v.9l-.3.4-.2.3-.4.2-.2.4-.3.2-.4.1-.2.1-.6.2V439.3l.4.5v.4l.3.3.4.2.3.3.3.3h.6l.4.2h1.4l.6-.1.6-.2.6-.3.4-.3.5-.2.3-.4.3-.3.6-.8.4-.5.3-.5v-.1.1l.3.5.3.6.7.7.3.5.5.3.3.3.6.4.5.2h.7l.6.3h1.4l.6-.1h.5l.5-.1.3-.1.3-.1.4-.3h.2l.1-.3.1-.1.1-.2v-.2l.2-.5v-.9l-.2-.3v-.5l-.3-.2-.1-.1-.2-.1-.3-.1h-.3l-.3-.1h-.9l-.6.2-.5.2v-.2l.2-.5.2-.5.3-.7.3-.3.2-.4.2-.2.4-.3.3-.2.3-.2h.8l.1-.2.1-.4.4-.6.3-.7.4-.5.6-.7.2-.1.2-.2.4-.1h.8l.3.3.2.1.6.7.4.5.4.7.3.6.2.4v.1h.5l.3.1.3.2.4.2.3.3.2.2.4.4.2.3.3.7.3.5.2.5v.2l-.7-.2-.6-.1h-.4l-.4-.1H431.3l-.3.2h-.3v.2l-.2.2-.1.3-.1.2v1.7l.1.2v.2l.1.1.2.2.3.1.2.3h.3l.4.2.4.1h.6l.6.1h1.4l.6-.2.6-.1.7-.2.4-.4.5-.3.3-.3.4-.5.6-.7.3-.6.4-.5v-.1.1l.3.5.3.5.6.8.3.3.5.4.3.2.6.3.4.3.6.2h2.6l.4-.1.5-.3.2-.3.3-.2.2-.3.3-.4.2-.5v-.6l.2-.3v-.1l-.2-.2-.5-.2-.3-.1-.2-.1-.4-.2-.3-.4-.3-.2-.3-.3v-.4l-.2-.4v-.5l.1-.4.1-.2.2-.4v-.2l.3-.3.6-.6.6-.4.7-.5.8-.4.8-.5.9-.4.7-.3.8-.4 1.6-.5 1.2-.5.9-.2.3-.1-.3.3-.6 1-.8 1.2-1.2 1.7-.5 1-.5 1-.4 1-.5 1.2-.4 1-.2 1-.1.5-.2.6v13.2h-46v-12.2M369.9 474v-1.5l-.2-.7-.3-1-.3-1.1-.5-1.2-.4-1-.6-1-.6-1-1-1.6-.9-1.5-.6-.9-.3-.3h.3l.9.4 1.2.5 1.6.5.9.4.7.3.8.4.8.5.8.4.7.6.6.6.6.5.4.6.3.4v1.4l-.3.2-.2.3-.3.4-.3.2h-.3l-.3.3-.2.1-.6.2h-.2v.6l.2.6.3.6.1.4.3.3.3.2.3.4.4.2.5.1.5.1.6.1h.7l.7-.2.5-.2.6-.3.5-.3.4-.3.3-.4.4-.3.5-.8.5-.5.2-.5v-.2l.1.2.2.5.4.6.6.8.4.4.3.4.5.3.5.3.6.3.5.2.7.1.7.1h1.3l.6-.2h.4l.4-.2.3-.1.3-.1.1-.2.3-.2v-.2l.2-.2v-.3l.1-.5v-.9l-.1-.4-.1-.1v-.3h-.3v-.3l-.3-.1-.2-.1h-.3l-.4-.1h-.9l-.5.2-.6.1v-.1l.2-.5.2-.5.4-.6.2-.3.3-.3.2-.3.3-.3.3-.2.4-.1h.8v-.3l.2-.4.3-.6.4-.6.4-.8.5-.6.3-.2.2-.2h.3l.2-.1h.6l.3.3.3.2.5.6.5.8.3.6.4.6.2.4v.3h1.1l.3.3.4.3.2.3.3.3.1.3.5.6.2.5.2.5v.1l-.6-.1-.6-.1-.4-.1H396.4l-.2.2-.2.1-.1.2-.2.1-.2.3V473l.2.2v.2l.3.2.2.2h.2l.4.2.3.2h.5l.5.1.6.1h1.4l.7-.2.6-.2.6-.3.5-.3.4-.3.4-.4.4-.4.6-.8.3-.6.3-.5v-.2.2l.4.5.3.5.6.8.3.3.3.4.5.3.4.4.6.2.5.2.7.1.7.1h.7l.5-.2.5-.1.4-.2.2-.4.4-.2.2-.3.2-.4.2-.6.2-.6v-.6h-.2l-.4-.2h-.3l-.4-.3-.2-.1-.3-.2-.4-.4-.2-.3-.2-.2v-1.4l.3-.4.4-.6.5-.5.7-.6.7-.6.7-.4.8-.5 1-.4.7-.3.8-.4 1.5-.5 1.3-.5.9-.3.3-.1-.3.3-.6.9-.9 1.5-1.1 1.6-.6 1-.4 1-.6 1-.4 1.2-.4 1-.2 1v.8l-.2.4v13h-46V474"/><path style="fill:#fc0;stroke:#1f1a16;stroke-width:.774173" d="M433.5 409.2V408l-.2-.5-.1-.5-.2-1.1-.4-1.2-.4-1-.6-1-.5-1.1-.6-1-1.1-1.7-1-1.4-.6-1-.2-.3.3.2.8.3 1.4.4 1.4.6.8.3.9.4.9.4.8.5.6.4.8.6.7.5.4.6.5.5.2.5.1.4v.5l-.1.4-.2.4-.2.2-.3.3-.3.2-.3.3h-.4l-.3.2-.5.2v1.1l.4.7v.3l.4.4.4.3.3.2.4.3h.5l.5.2h1.4l.5-.1.6-.3.6-.2.3-.2.4-.4.4-.4.4-.3.5-.7.4-.7.2-.4.2-.2v.2l.2.4.4.7.6.7.3.3.5.4.3.4.6.2.5.2.6.3h.8l.6.2h.7l.6-.1h.5l.5-.1.4-.1.4-.3h.2l.2-.2.1-.2.1-.2.1-.3h.2v-1.9h-.2v-.3l-.2-.1v-.2l-.3-.1-.2-.2h-1.7l-.5.2h-.6v-.4l.4-.6.4-.6.2-.3.2-.4.3-.2.3-.3.3-.1.3-.2h.8l.1-.3.2-.4.3-.6.4-.7.5-.6.5-.7.2-.2.3-.3h1.2l.2.3.4.2.4.7.6.6.3.7.3.6.3.4v.2h.3l.4.1.4.2h.2l.3.4.3.2.2.4.2.3.3.6.3.6v.4h.2-.7l-.4-.2h-1.7l-.2.2h-.2l-.2.3v.1l-.2.2v.1l-.2.5v.9l.1.4v.1l.1.3.1.2.3.2.2.1.2.1.3.3h.5l.3.2H463.5l.7-.1.6-.3.5-.2.5-.2.5-.4.4-.4.4-.3.5-.7.5-.7v-.4l.2-.2.1.2.2.4.4.7.5.7.4.3.4.4.5.4.4.2.6.2.5.3h.6l.8.2.5-.1.6-.1.4-.1.5-.3.3-.2.2-.3.3-.4.2-.3.2-.7.1-.5.1-.4v-.2h-.2l-.4-.2-.4-.1-.2-.1-.3-.3-.4-.2-.2-.3-.3-.2-.1-.4v-1.3l.3-.5.4-.5.5-.6.7-.5.6-.6.8-.4.8-.5.8-.4.9-.4.7-.3 1.5-.6 1.2-.4 1-.3.3-.2-.3.4-.6.9-1 1.4-1 1.7-.6 1-.5 1-.5 1.1-.4 1-.4 1.2-.2 1-.1.6-.1.5v13h-45.9v-12"/><path style="fill:#fc0;stroke:#000;stroke-width:.774173;stroke-linejoin:round" d="M306.6 409.2v-.6l-.1-.5-.1-.5-.2-.5-.2-1.1-.3-1.2-.5-1-.4-1-.6-1.1-.5-1-1-1.7-1-1.4-.6-1-.2-.3.2.2.9.3 1.2.4 1.6.6.8.3.8.4.7.4.8.5.8.4.7.6.5.5.6.6.4.5.3.5.2.4v.5l-.1.4-.1.4-.4.2-.2.3-.3.2-.4.3h-.2l-.3.2-.5.2h-.2v.2l.1.4.1.5.3.7.2.3.2.4.2.3.5.2.3.3h.6l.4.2h1.4l.5-.1.7-.3.4-.2.6-.2.3-.4.5-.4.3-.3.6-.7.3-.7.2-.4.1-.2.1.2.3.4.3.7.7.7.2.3.4.4.5.4.6.2.4.2.7.3h.6l.7.2h.8l.6-.1h.5l.5-.1.3-.1.3-.3h.4l.2-.2.1-.2.1-.2.1-.3.1-.5v-1.4h-.2l-.1-.3-.1-.1-.1-.2-.2-.1-.3-.2h-1.5l-.6.2h-.7.1l.2-.4.3-.6.2-.6.2-.3.4-.4v-.2l.4-.3.4-.1.3-.2h.7v-.3l.2-.4.3-.6.5-.7.4-.6.6-.7.2-.2.2-.3H330.1l.2.3.2.2.6.7.4.6.5.7.3.6.1.4.1.2h.5l.3.1.3.2h.4l.2.4.3.2.2.4.3.3.3.6.3.6.1.4h.2-.8l-.6-.2H333l-.3.2h-.2l-.1.3-.1.1-.1.2v.1l-.1.5V407.7l.2.3.1.2.1.2.2.1.4.1.2.3h.4l.5.2h2.6l.6-.1.6-.3.5-.2.5-.2.6-.4.3-.4.3-.3.6-.7.4-.7.2-.4.2-.2v.2l.2.4.4.7.5.7.4.3.4.4.3.4.6.2.4.2.6.3h.5l.7.2.7-.1.5-.1.5-.1.4-.3.5-.2.2-.3.3-.4.1-.3.4-.7v-1.1l-.5-.2-.3-.1-.4-.1-.3-.3-.3-.2-.2-.3-.3-.2-.2-.4-.1-.4v-.5l.1-.4.3-.5.4-.5.5-.6.6-.5.7-.6.7-.4.8-.5 1-.4.7-.4.8-.3 1.4-.6 1.3-.4.9-.3.2-.2-.2.4-.7.9-.9 1.4-1 1.7-.6 1-.5 1-.5 1.1-.4 1-.4 1.2-.3 1-.1.6v.5l-.1.5V421h-45.7v-11.8m74.5 32.3.1-.5v-.5l.1-.6v-.4l.4-1.1.3-1 .5-1.2.5-1 .5-1 .5-1 1.1-1.7 1-1.3.5-.9.3-.3h-.3l-.9.3-1.2.5-1.6.5-.8.4-.9.3-.8.4-.7.5-.8.4-.8.5-.6.4-.5.6-.2.3-.2.2-.2.4v.2l-.2.4.1.5v.4l.2.4.3.3.3.2.2.4.4.2.3.1.3.1.5.2.2.2-.1.4-.1.6-.4.5v.4l-.3.3-.3.2-.4.3-.3.3h-.5l-.6.2h-1.3l-.6-.1-.6-.2-.6-.3-.4-.3-.4-.2-.4-.4-.3-.3-.6-.8-.4-.5-.2-.5v-.1l-.2.1-.2.5-.4.6-.5.7-.4.5-.4.3-.4.3-.6.4-.5.2h-.6l-.7.3H364l-.6-.1h-.5l-.5-.1-.3-.1-.3-.1-.3-.3h-.2l-.2-.3-.1-.1-.1-.2v-.3l-.1-.4v-1.5l.2-.2.2-.2.1-.1.2-.1.3-.1h.3l.3-.1h.9l.6.2.5.2v-.7l-.4-.5-.3-.7-.3-.3-.2-.4-.2-.2-.3-.3-.4-.2-.3-.2h-.8l-.1-.2-.1-.4-.4-.6-.4-.7-.4-.5-.5-.7-.3-.1-.3-.2-.3-.1h-.8l-.2.3-.3.1-.5.7-.4.5-.3.7-.4.6-.2.4v.1h-.5l-.3.1-.3.2-.4.2-.3.3-.2.2-.2.4-.3.3-.4.7-.2.5-.1.5-.2.2.7-.2.6-.1h.4l.5-.1h.6l.3.2h.2v.2l.2.2.1.2.1.3.1.3v1.6l-.2.2-.1.1-.2.2-.2.1-.3.3h-.3l-.3.2-.5.1h-.5l-.7.1h-1.4l-.6-.2-.6-.1-.5-.2-.6-.4-.4-.3-.4-.3-.4-.5-.6-.7-.3-.6-.2-.5-.2-.1v.1l-.3.5-.3.5-.6.8-.3.3-.4.4-.5.2-.5.3-.5.3-.6.2h-2.3l-.6-.1-.3-.3-.4-.3-.3-.2-.2-.3-.2-.4-.3-.5v-.6l-.2-.3v-.1l.2-.2.5-.2.3-.1.4-.1.2-.2.3-.4.3-.2.3-.3v-.4l.2-.4v-.5l-.1-.4-.1-.6-.5-.5-.5-.6-.7-.4-.7-.5-.8-.4-.7-.5-.8-.4-1-.3-.7-.4-1.6-.5-1.2-.5-.9-.2-.2-.1.2.3.7.9.9 1.3 1 1.7.5 1 .5 1 .5 1 .4 1.2.4 1 .4 1v14.3h46.1v-12.2"/><path style="fill:#fc0;stroke:#000;stroke-width:.69039" transform="translate(-20.4 -288.7) scale(1.12134)" d="m118.9 361.8 14.1-46.7h28.5l14.2 46.7H157v-20.1l-.1-1-.1-1-.3-.9-.3-.9-.4-.8-.5-.8-.5-.7-.6-.7-.7-.7-.8-.5-.8-.5-.8-.4-.9-.4-.9-.2-1-.1-1-.1h-.5l-.5.1h-.4l-.5.1-1 .2-.8.4-.9.4-.8.5-.7.5-.7.7-.6.7-.6.7-.5.8-.4.8-.3.9-.2.9-.1.5-.1.5v21.1h-18.8m16.4-65.2v8.9h3.8v-16.8h-9.5v7.9h5.7m8.1 8.9v-8.9h7.9v8.9h.7V283h-9.6v22.5h1m16 0v-8.9h5.7v-7.9h-9.7v16.8h4"/><path style="fill:#fc0;stroke:#000;stroke-width:.69039" transform="translate(-20.4 -288.7) scale(1.12134)" d="M135.3 296.6v8.9h8.1v-8.9h7.9v8.9h8.1v-8.9h7.8V312h-39.8v-15.4h7.9m-82.7 65.2 14-46.7h28.7l14 46.7H90.6v-20.1l-.1-1-.1-1-.2-.9-.4-.9-.4-.8-.5-.8-.5-.7-.6-.7-.7-.7-.8-.5-.8-.5-.8-.4-.9-.4-.9-.2-1-.1-.9-.1h-.6l-.4.1h-.5l-.5.1-.9.2-.9.4-.8.4-.8.5-.8.5-.6.7-.7.7-.5.7-.5.8-.4.8-.4.9-.2.9-.1.5v.5l-.1.5v20.6H52.6M69 296.6v8.9h3.7v-16.8h-9.5v7.9H69m8 8.9v-8.9h7.9v8.9h.8V283h-9.5v22.5h.8m16 0v-8.9h5.7v-7.9h-9.5v16.8H93"/><path style="fill:#fc0;stroke:#000;stroke-width:.69039" transform="translate(-20.4 -288.7) scale(1.12134)" d="M69 296.6v8.9h8v-8.9h7.9v8.9H93v-8.9h7.9V312H61.1v-15.4H69m58.3 88h14.1v-5.3h-14.1zm12.9-5.7h14.2v-5.5h-14.2zm13 5.7h14.2v-5.3h-14.2zm-34.3 74.2 14.1-46.6h28.5l14.2 46.6H157v-20.1l-.1-1-.1-.9-.3-.9-.3-.9-.4-.8-.5-.8-.5-.8-.6-.7-.7-.6-.8-.5-.8-.5-.8-.4-.9-.4-.9-.2-1-.1-1-.1h-.5l-.5.1h-.4l-.5.1-1 .2-.8.4-.9.4-.8.5-.7.5-.7.6-.6.7-.6.8-.5.8-.4.8-.3.9-.2.9-.1.5-.1.4v21.1h-18.8m16.4-65.1v8.8h3.8v-16.7h-9.5v7.9h5.7m8.1 8.8v-8.8h7.9v8.8h.7v-22.4h-9.6v22.4h1m16 0v-8.8h5.7v-7.9h-9.7v16.7h4"/><path style="fill:#fc0;stroke:#000;stroke-width:.69039" transform="translate(-20.4 -288.7) scale(1.12134)" d="M135.3 393.7v8.8h8.1v-8.8h7.9v8.8h8.1v-8.8h7.8V409h-39.8v-15.3h7.9m-74.4-9.1H75v-5.3H60.9Zm13-5.7H88v-5.5H73.9Zm13 5.7h14.2v-5.3H86.9Zm-34.3 74.2 14-46.6h28.7l14 46.6H90.6v-20.1l-.1-1-.1-.9-.2-.9-.4-.9-.4-.8-.5-.8-.5-.8-.6-.7-.7-.6-.8-.5-.8-.5-.8-.4-.9-.4-.9-.2-1-.1-.9-.1h-.6l-.4.1h-.5l-.5.1-.9.2-.9.4-.8.4-.8.5-.8.5-.6.6-.7.7-.5.8-.5.8-.4.8-.4.9-.2.9-.1.5v.4l-.1.6v20.5H52.6M69 393.7v8.8h3.7v-16.7h-9.5v7.9H69m8 8.8v-8.8h7.9v8.8h.8v-22.4h-9.5v22.4h.8m16 0v-8.8h5.7v-7.9h-9.5v16.7H93"/><path style="fill:#fc0;stroke:#000;stroke-width:.69039" transform="translate(-20.4 -288.7) scale(1.12134)" d="M69 393.7v8.8h8v-8.8h7.9v8.8H93v-8.8h7.9V409H61.1v-15.3H69"/><path style="fill:#fc0;stroke:#000;stroke-width:.75" d="M118.5 33H134v-5.8h-15.4zm14-6.2H148v-6h-15.4zm14.2 6.2H162v-5.8h-15.4ZM46.4 33h15.3v-5.8H46.4Zm14.1-6.2h15.3v-6H60.5ZM74.7 33H90v-5.8H74.7Z" transform="scale(1.03226)"/></svg>