<svg width="512" height="512.062" xmlns="http://www.w3.org/2000/svg"><path style="fill:#99011a;fill-rule:evenodd;stroke-width:1.03226pt" d="M0 0h512v512.062H0z"/><path style="fill:#fc0;stroke:#000;stroke-width:.774173;stroke-linejoin:round" d="M369.946 376.572v-.447l-.112-.558v-.447l-.112-.56-.335-1.005-.335-1.117-.447-1.118-.447-1.005-.559-1.006-.559-1.006-1.005-1.676-.894-1.34-.67-.895-.224-.335.223.112.894.223 1.23.447 1.564.447.894.336.782.447.782.335.782.447.783.447.67.558.67.447.56.67.446.448.224.558v1.23l-.224.335-.223.335-.335.224-.224.223-.335.224-.335.223-.224.112-.559.112-.223.111v.112l.112.447.111.559.336.558.111.336.224.447.335.223.335.224.336.223.558.224.447.111h1.341l.67-.111.56-.224.558-.223.447-.336.447-.223.335-.335.335-.336.56-.782.446-.558.224-.447v-.112l.111.112.224.447.335.67.67.67.336.447.335.336.447.335.559.335.558.224.559.111.67.224h2.012l.558-.112.447-.112.336-.111.335-.112.335-.112.112-.223.223-.224.112-.112.112-.223v-.224l.112-.447v-.894l-.112-.446-.112-.224v-.223l-.223-.112-.112-.112-.224-.112-.223-.111-.335-.112h-.336l-.447.112h-.446l-.56.111-.558.224v-.112l.224-.447.111-.67.447-.67.224-.336.223-.335.224-.224.335-.223.335-.224.335-.223.447-.112h.336v-.112l.223-.447.335-.558.336-.67.447-.56.446-.558.336-.224.223-.223.335-.112h.447l.336.112.223.223.335.224.559.558.447.56.335.67.335.558.224.447v.112h.447l.335.112.335.223.336.224.335.223.223.224.336.335.111.335.447.67.224.671.223.447v.112l-.67-.224-.559-.111h-.447l-.447-.112h-.335l-.335.112-.224.111-.223.112-.112.112-.224.112-.111.223v.224l-.112.446v.894l.112.447v.224l.111.223.112.112.224.224.223.223.224.112.335.112.335.111.447.112.559.112h2.011l.67-.224.56-.111.67-.224.447-.335.447-.335.335-.336.447-.447.559-.67.335-.67.335-.447v-.112.112l.335.447.335.558.56.782.334.336.336.335.447.223.447.336.558.223.559.224.67.111h1.341l.56-.111.446-.224.447-.223.223-.224.336-.223.223-.447.224-.336.223-.558.112-.559.112-.447v-.112l-.224-.111-.447-.112-.335-.112-.335-.223-.224-.224-.335-.223-.335-.224-.224-.335-.223-.335v-.783l.112-.446.223-.56.335-.446.559-.67.67-.448.67-.558.783-.447.782-.447.894-.335.782-.447.783-.336 1.564-.447 1.23-.447.893-.223.335-.112-.335.335-.559.894-.894 1.341-1.117 1.676-.559 1.006-.447 1.006-.558 1.005-.447 1.118-.336 1.117-.223 1.006-.112.559-.111.447v13.186h-46.038v-12.18M369.946 409.192v-.559l-.112-.559v-.447l-.112-.558-.335-1.118-.335-1.117-.447-1.006-.447-1.117-.559-1.006-.559-1.006-1.005-1.676-.894-1.452-.67-.894-.224-.336.223.112.894.335 1.23.447 1.564.559.894.335.782.335.782.447.782.447.783.447.67.56.67.558.56.558.446.56.224.446v1.341l-.224.335-.223.224-.335.335-.224.223-.335.224-.335.112-.224.111-.559.224h-.223v.223l.112.336.111.558.336.67.111.336.224.335.335.335.335.224.336.223.558.112.447.112.67.112.671-.112.67-.112.56-.223.558-.224.447-.223.447-.447.335-.335.335-.336.56-.67.446-.67.224-.448v-.223l.111.223.224.447.335.67.67.671.336.336.335.335.447.447.559.223.558.224.559.223.67.112.67.112h.783l.559-.112h.558l.447-.112.336-.112.335-.223.335-.112.112-.112.223-.223.112-.223.112-.224v-.112l.112-.447v-.894l-.112-.447-.112-.111v-.224l-.223-.112-.112-.223-.224-.112-.223-.112h-.32l-.335-.111-.447.111h-.447l-.559.112-.559.112v-.112l.224-.335.112-.67.447-.56.223-.334.223-.336.224-.223.335-.335.335-.112.336-.112.447-.112h.335v-.223l.223-.447.336-.559.335-.67.447-.67.447-.671.335-.224.223-.223h.336l.111-.112.336.112h.335l.223.223.336.224.558.67.447.67.335.671.336.559.223.447v.223h.447l.335.112.336.112.335.112.335.335.224.223.335.336.111.335.447.559.224.67.223.335v.112l-.67-.112-.559-.112h-.447l-.447-.111-.335.111h-.335l-.224.112-.223.112-.112.223-.223.112-.112.224v.111l-.112.447v.894l.112.447v.112l.112.224.111.223.224.223.223.112.224.112.335.223.335.112.447.112h.559l.559.112h.782l.67-.112.67-.112.56-.223.67-.224.447-.223.447-.447.335-.335.447-.336.559-.67.335-.67.335-.448v-.223.223l.335.447.336.67.558.671.336.336.335.335.447.447.447.223.559.224.558.223.67.112.671.112.67-.112.56-.112.446-.112.447-.223.224-.224.335-.335.223-.335.224-.335.223-.67.112-.56.112-.335v-.223h-.224l-.447-.224-.335-.111-.335-.112-.224-.224-.335-.223-.335-.335-.223-.224-.224-.335v-.894l.112-.447.223-.447.336-.559.558-.558.67-.559.671-.559.782-.447.783-.447.893-.447.783-.335.782-.335 1.564-.559 1.23-.447.893-.335.336-.112-.336.336-.558.894-.894 1.452-1.118 1.676-.558 1.006-.447 1.006-.56 1.117-.446 1.006-.335 1.117-.224 1.118-.112.558-.111.447v12.962H369.96v-11.844M404.702 441.491v-1.006l-.112-.558-.112-.447-.335-1.118-.335-1.005-.447-1.118-.447-1.006-.559-1.005-.447-1.006-1.117-1.676-.894-1.341-.67-.894-.224-.335.224.112 1.005.223 1.118.447 1.564.559.894.335.782.335.782.447.783.447.782.447.782.447.67.447.447.559.447.558.224.56.112.446v.447l-.112.447-.224.335-.223.336-.335.223-.224.335-.335.224-.335.111-.224.112-.559.224-.111.111v.447l.111.56.336.558.111.335.224.335.335.224.335.335.336.223.558.112.447.112h1.341l.67-.112.56-.223.558-.224.447-.335.447-.223.335-.336.335-.335.56-.782.446-.559.224-.447v-.112l.111.112.224.447.335.67.67.671.336.447.447.335.335.336.559.335.558.223.67.112.56.223h1.452l.559-.111h.559l.446-.112.336-.112.335-.112.335-.223.224-.112.111-.223.112-.112.112-.223v-.224l.112-.447v-.894l-.112-.335v-.224l-.112-.223-.223-.224-.112-.111-.224-.112-.223-.112h-.335l-.336-.111-.446.111h-.447l-.56.112-.558.223v-.223l.224-.447.223-.559.335-.67.224-.335.223-.336.224-.223.335-.335.335-.224.335-.112.447-.111h.336l.111-.112.112-.447.335-.559.336-.67.447-.559.558-.67.224-.112.223-.224.335-.111h.447l.336.111.335.224.223.112.56.67.446.559.335.67.335.559.224.447v.112h.447l.335.111.335.112.336.224.335.335.223.223.336.336.223.335.335.67.224.559.223.447v.223l-.67-.223-.559-.112h-.447l-.447-.111-.335.111h-.224l-.335.112-.223.112-.112.111-.112.224-.112.223-.111.224v1.676l.111.224v.223l.112.112.224.223.223.112.224.224.335.111.335.112.447.112h.559l.67.111h1.341l.67-.223.56-.112.67-.223.447-.335.447-.336.335-.335.447-.447.559-.67.335-.67.335-.448v-.111l.112.111.223.447.336.559.558.782.335.335.447.336.336.223.558.335.447.224.559.223.67.112h1.341l.56-.112.446-.111.447-.224.224-.335.335-.224.223-.335.224-.335.223-.559.112-.559.112-.335v-.112l-.224-.111-.447-.224-.335-.111-.223-.112-.336-.224-.335-.335-.335-.223-.224-.336-.111-.335-.112-.447v-.447l.112-.447.111-.223.112-.335.112-.224.223-.335.559-.559.67-.447.67-.447.783-.447.782-.447.894-.447.782-.335.783-.335 1.564-.559 1.23-.447.893-.223.335-.112-.335.335-.559.894-.893 1.341-1.118 1.676-.559 1.006-.447 1.006-.447 1.005-.447 1.118-.446 1.005-.224 1.118-.112.447-.111.558v13.186h-46.038v-12.18M369.946 474.12v-.558l-.112-.559v-.447l-.112-.67-.335-1.006-.335-1.117-.447-1.118-.447-1.005-.559-1.006-.559-1.006-1.005-1.676-.894-1.452-.67-.894-.224-.336.223.112.894.335 1.23.447 1.564.559.894.335.782.335.782.447.782.447.783.447.67.56.67.558.56.559.446.558.224.447v1.341l-.224.224-.223.335-.335.335-.224.224-.335.111-.335.224-.224.111-.559.224h-.223v.223l.112.336.111.558.336.67.111.336.224.335.335.224.335.335.336.223.558.112.447.112.67.112.671-.112.67-.112.56-.223.558-.224.447-.335.447-.335.335-.335.335-.336.56-.782.446-.559.224-.447v-.223l.111.223.224.447.335.67.67.783.336.335.335.447.447.336.559.223.558.335.559.224.67.111.67.112h.783l.559-.112.558-.111h.447l.336-.224.335-.112.335-.111.112-.224.223-.111.112-.224.112-.223v-.336l.112-.447v-.894l-.112-.447-.112-.111v-.224l-.223-.112-.112-.223-.224-.112-.223-.111h-.32l-.335-.112h-.447l-.447.112-.559.111-.559.112v-.112l.224-.447.112-.558.447-.56.223-.334.223-.336.224-.223.335-.335.335-.224.336-.112h.782v-.223l.223-.447.336-.559.335-.67.447-.782.447-.559.335-.224.223-.223h.336l.111-.112.336.112h.335l.223.223.336.224.558.559.447.782.335.67.336.559.223.447v.223h.782l.336.112.335.224.335.335.224.223.335.336.111.335.447.559.224.558.223.447v.112l-.67-.112-.559-.111-.447-.112h-.447l-.335.112h-.335l-.224.111-.223.112-.112.223-.223.112-.112.224v.111l-.112.447v.894l.112.447v.336l.112.223.111.224.224.111.223.224.224.111.335.112.335.224h.447l.559.111.559.112h.782l.67-.112.67-.111.56-.224.67-.335.447-.223.447-.336.335-.447.447-.335.559-.782.335-.67.335-.448v-.223.223l.335.447.336.56.558.781.336.336.335.335.447.335.447.335.559.224.558.223.67.112.671.112.67-.112.56-.112.446-.112.447-.223.224-.335.335-.224.223-.335.224-.335.223-.67.112-.56.112-.335v-.223h-.224l-.447-.224-.335-.111-.335-.224-.224-.111-.335-.224-.335-.335-.223-.335-.224-.224v-.894l.112-.447.223-.447.336-.558.558-.56.67-.558.671-.559.782-.447.783-.447.893-.447.783-.335.782-.335 1.564-.559 1.23-.447.893-.335.336-.112-.336.336-.558.894-.894 1.452-1.118 1.676-.558 1.006-.447 1.006-.56 1.005-.446 1.118-.335 1.117-.224 1.006-.112.67-.111.447v12.962H369.96v-11.844"/><path style="fill:#fc0;stroke:#1f1a16;stroke-width:.774173" d="M433.523 409.192v-.559l-.112-.559-.112-.447-.112-.558-.223-1.118-.335-1.117-.447-1.006-.56-1.117-.558-1.006-.559-1.006-1.117-1.676-.894-1.452-.67-.894-.224-.336.335.112.783.335 1.34.447 1.453.559.782.335.894.335.894.447.782.447.67.447.783.56.67.558.447.558.447.56.224.446.112.447v.447l-.112.447-.224.335-.223.224-.224.335-.335.223-.335.224-.335.112-.335.111-.447.224h-.114v.559l.112.558.335.67.112.336.335.335.335.335.335.224.447.223.447.112.559.112.67.112.671-.112.559-.112.558-.223.56-.224.334-.223.447-.447.336-.335.446-.336.447-.67.447-.67.224-.448.112-.223v.223l.223.447.447.67.559.671.335.336.447.335.335.447.559.223.559.224.558.223.783.112.67.112h.67l.56-.112h.567l.447-.112.447-.112.335-.223.224-.112.223-.112.112-.223.112-.223.111-.224.112-.112v-1.788l-.112-.111-.111-.224-.112-.112-.112-.223-.223-.112-.224-.112h-.33l-.335-.111-.447.111h-.558l-.447.112-.67.112v-.112l.111-.335.336-.67.335-.56.223-.334.224-.336.335-.223.224-.335.335-.112.335-.112.447-.112h.335l.112-.223.223-.447.224-.559.447-.67.447-.67.559-.671.223-.224.224-.223h.34l.335-.112.336.112h.223l.224.223.335.224.447.67.559.67.335.671.335.559.223.447.112.223h.224l.447.112.335.112.223.112.336.335.223.223.224.336.223.335.335.559.224.67.111.335.112.112-.67-.112-.447-.112h-.559l-.335-.111-.447.111h-.335l-.224.112-.223.112-.112.223-.112.112-.112.224-.111.111-.112.447v.894l.112.447v.112l.111.224.112.223.224.223.223.112.224.112.335.223.447.112.335.112h.559l.67.112h.67l.671-.112.67-.112.671-.223.447-.224.559-.223.447-.447.447-.335.335-.336.559-.67.447-.67.111-.448.112-.223.112.223.223.447.336.67.558.671.335.336.447.335.447.447.447.223.56.224.558.223.558.112.783.112.558-.112.56-.112.446-.112.447-.223.335-.224.224-.335.223-.335.224-.335.223-.67.112-.56.112-.335v-.223h-.224l-.447-.224-.335-.111-.223-.112-.336-.224-.335-.223-.223-.335-.336-.224-.111-.335v-.894l.111-.447.224-.447.447-.559.447-.558.67-.559.67-.559.783-.447.782-.447.782-.447.894-.335.782-.335 1.453-.559 1.23-.447.893-.335.335-.112-.223.336-.67.894-1.006 1.452-1.006 1.676-.559 1.006-.447 1.006-.558 1.117-.336 1.006-.447 1.117-.223 1.118-.112.558-.111.447v12.962h-45.814v-11.844"/><path style="fill:#fc0;stroke:#000;stroke-width:.774173;stroke-linejoin:round" d="M306.586 409.192v-.559l-.112-.559-.112-.447-.112-.558-.223-1.118-.335-1.117-.447-1.006-.447-1.117-.559-1.006-.559-1.006-1.005-1.676-1.006-1.452-.559-.894-.223-.336.223.112.894.335 1.23.447 1.564.559.782.335.782.335.782.447.783.447.782.447.67.56.559.558.559.558.447.56.223.446.224.447v.447l-.112.447-.112.335-.335.224-.224.335-.335.223-.335.224-.223.112-.336.111-.447.224h-.223v.223l.112.336.111.558.224.67.223.336.224.335.223.335.447.224.335.223.56.112.446.112.67.112.671-.112.559-.112.67-.223.447-.224.559-.223.335-.447.447-.335.335-.336.559-.67.335-.67.224-.448.111-.223.112.223.224.447.335.67.67.671.224.336.447.335.447.447.559.223.446.224.67.223.671.112.67.112h.783l.559-.112h.558l.447-.112.336-.112.335-.223.335-.112.224-.112.111-.223.112-.223.112-.224v-.112l.112-.447v-.894l-.112-.447-.112-.111-.112-.224-.111-.112-.112-.223-.224-.112-.223-.112h-.335l-.336-.111-.447.111h-.447l-.558.112-.67.112.111-.112.112-.335.335-.67.224-.56.223-.334.335-.336.112-.223.335-.335.335-.112.336-.112.335-.112h.335l.112-.223.112-.447.335-.559.447-.67.447-.67.558-.671.224-.224.223-.223h.336l.335-.112.223.112h.336l.223.223.224.224.558.67.447.67.447.671.335.559.112.447.112.223h.447l.335.112.335.112.336.112.223.335.335.223.224.336.223.335.335.559.336.67.111.335.112.112-.782-.112-.559-.112h-.447l-.447-.111-.335.111h-.335l-.224.112-.223.112-.112.223-.112.112-.111.224v.111l-.112.447v.894l.112.447v.112l.111.224.112.223.112.223.223.112.336.112.223.223.447.112.447.112h.559l.558.112h.783l.67-.112.67-.112.56-.223.558-.224.447-.223.559-.447.335-.335.335-.336.559-.67.447-.67.223-.448.112-.223.112.223.112.447.446.67.447.671.447.336.336.335.335.447.559.223.447.224.558.223.559.112.67.112.67-.112.56-.112.447-.112.447-.223.446-.224.224-.335.335-.335.112-.335.335-.67.112-.56v-.558h-.114l-.447-.224-.335-.111-.335-.112-.335-.224-.336-.223-.223-.335-.223-.224-.224-.335-.112-.447v-.447l.112-.447.335-.447.335-.559.56-.558.558-.559.67-.559.783-.447.782-.447.894-.447.782-.335.782-.335 1.453-.559 1.229-.447.894-.335.223-.112-.223.336-.67.894-.895 1.452-1.005 1.676-.559 1.006-.559 1.006-.447 1.117-.447 1.006-.335 1.117-.335 1.118-.112.558v.447l-.112.559v12.404h-45.698v-11.845M381.115 441.491l.112-.447v-.559l.111-.558v-.447l.335-1.118.336-1.005.447-1.118.558-1.006.447-1.005.56-1.006 1.116-1.676.894-1.341.56-.894.334-.335-.335.112-.894.223-1.229.447-1.564.559-.783.335-.894.335-.782.447-.782.447-.782.447-.782.447-.559.447-.559.559-.223.335-.112.223-.223.336-.112.223-.112.447.112.447v.447l.223.335.224.336.335.223.223.335.336.224.335.111.335.112.447.224.224.111v.112l-.112.335-.112.56-.335.558-.112.335-.223.335-.336.224-.335.335-.335.223-.447.112-.67.112h-1.24l-.67-.112-.558-.223-.559-.224-.447-.335-.447-.223-.335-.336-.335-.335-.56-.782-.446-.559-.224-.447v-.112l-.111.112-.224.447-.447.67-.447.671-.447.447-.335.335-.447.336-.559.335-.558.223-.559.112-.67.223h-1.453l-.559-.111h-.558l-.447-.112-.336-.112-.335-.112-.223-.223-.224-.112-.223-.223-.112-.112-.112-.223v-.224l-.112-.447v-.894l.112-.335v-.224l.112-.223.223-.224.112-.111.224-.112.223-.112h.335l.336-.111.447.111h.447l.558.112.559.223v-.223l-.112-.447-.335-.559-.335-.67-.224-.335-.223-.336-.224-.223-.335-.335-.335-.224-.335-.112-.336-.111h-.447l-.111-.112-.112-.447-.335-.559-.447-.67-.447-.559-.447-.67-.335-.112-.224-.224-.335-.111h-.547l-.224.111-.223.224-.335.112-.447.67-.447.559-.336.67-.335.559-.223.447v.112h-.447l-.335.111-.336.112-.335.224-.335.335-.224.223-.223.336-.224.335-.447.67-.223.559-.112.447-.112.223.67-.223.56-.112h.447l.447-.111.335.111h.335l.223.112.224.112.112.111.111.224.112.223.112.224.112.335v.894l-.112.447v.224l-.112.223-.112.112-.223.223-.224.112-.223.223-.335.112-.335.112-.447.112h-.56l-.67.111h-1.34l-.67-.223-.56-.112-.558-.223-.56-.335-.446-.336-.335-.335-.447-.447-.559-.67-.335-.67-.224-.448-.111-.112v.112l-.336.447-.335.559-.559.782-.335.335-.335.336-.559.223-.447.335-.558.224-.56.223-.558.112h-1.34l-.448-.112-.558-.112-.336-.223-.335-.335-.335-.224-.224-.335-.223-.335-.224-.559-.111-.559-.112-.335v-.112l.223-.111.447-.224.336-.112.335-.111.223-.224.336-.335.335-.223.223-.336.112-.335.112-.447v-.447l-.112-.447-.112-.559-.447-.558-.558-.559-.67-.447-.671-.447-.782-.447-.783-.447-.782-.447-.894-.335-.782-.335-1.564-.559-1.23-.447-.894-.223-.223-.112.223.335.67.894.895 1.34 1.006 1.677.558 1.006.447 1.005.559 1.006.335 1.118.447 1.005.335 1.118.112.447v13.744h46.038v-12.18"/><path style="fill:#fc0;stroke:#000;stroke-width:.69039" transform="translate(-20.388 -288.713) scale(1.12134)" d="m118.9 361.8 14.1-46.7h28.5l14.2 46.7H157v-20.1l-.1-1-.1-1-.3-.9-.3-.9-.4-.8-.5-.8-.5-.7-.6-.7-.7-.7-.8-.5-.8-.5-.8-.4-.9-.4-.9-.2-1-.1-1-.1h-.5l-.5.1h-.4l-.5.1-1 .2-.8.4-.9.4-.8.5-.7.5-.7.7-.6.7-.6.7-.5.8-.4.8-.3.9-.2.9-.1.5-.1.5v21.1h-18.8M135.3 296.6v8.9h3.8v-16.8h-9.5v7.9h5.7M143.4 305.5v-8.9h7.9v8.9h.7V283h-9.6v22.5h1M159.4 305.5v-8.9h5.7v-7.9h-9.7v16.8h4"/><path style="fill:#fc0;stroke:#000;stroke-width:.69039" transform="translate(-20.388 -288.713) scale(1.12134)" d="M135.3 296.6v8.9h8.1v-8.9h7.9v8.9h8.1v-8.9h7.8V312h-39.8v-15.4h7.9M52.6 361.8l14-46.7h28.7l14 46.7H90.6v-20.1l-.1-1-.1-1-.2-.9-.4-.9-.4-.8-.5-.8-.5-.7-.6-.7-.7-.7-.8-.5-.8-.5-.8-.4-.9-.4-.9-.2-1-.1-.9-.1h-.6l-.4.1h-.5l-.5.1-.9.2-.9.4-.8.4-.8.5-.8.5-.6.7-.7.7-.5.7-.5.8-.4.8-.4.9-.2.9-.1.5v.5l-.1.5v20.6H52.6M69 296.6v8.9h3.7v-16.8h-9.5v7.9H69M77 305.5v-8.9h7.9v8.9h.8V283h-9.5v22.5h.8M93 305.5v-8.9h5.7v-7.9h-9.5v16.8H93"/><path style="fill:#fc0;stroke:#000;stroke-width:.69039" transform="translate(-20.388 -288.713) scale(1.12134)" d="M69 296.6v8.9h8v-8.9h7.9v8.9H93v-8.9h7.9V312H61.1v-15.4H69M127.3 384.6h14.1v-5.3h-14.1zM140.2 378.9h14.2v-5.5h-14.2zM153.2 384.6h14.2v-5.3h-14.2zM118.9 458.8l14.1-46.6h28.5l14.2 46.6H157v-20.1l-.1-1-.1-.9-.3-.9-.3-.9-.4-.8-.5-.8-.5-.8-.6-.7-.7-.6-.8-.5-.8-.5-.8-.4-.9-.4-.9-.2-1-.1-1-.1h-.5l-.5.1h-.4l-.5.1-1 .2-.8.4-.9.4-.8.5-.7.5-.7.6-.6.7-.6.8-.5.8-.4.8-.3.9-.2.9-.1.5-.1.4v21.1h-18.8M135.3 393.7v8.8h3.8v-16.7h-9.5v7.9h5.7M143.4 402.5v-8.8h7.9v8.8h.7v-22.4h-9.6v22.4h1M159.4 402.5v-8.8h5.7v-7.9h-9.7v16.7h4"/><path style="fill:#fc0;stroke:#000;stroke-width:.69039" transform="translate(-20.388 -288.713) scale(1.12134)" d="M135.3 393.7v8.8h8.1v-8.8h7.9v8.8h8.1v-8.8h7.8V409h-39.8v-15.3h7.9M60.9 384.6H75v-5.3H60.9ZM73.9 378.9H88v-5.5H73.9ZM86.9 384.6h14.2v-5.3H86.9ZM52.6 458.8l14-46.6h28.7l14 46.6H90.6v-20.1l-.1-1-.1-.9-.2-.9-.4-.9-.4-.8-.5-.8-.5-.8-.6-.7-.7-.6-.8-.5-.8-.5-.8-.4-.9-.4-.9-.2-1-.1-.9-.1h-.6l-.4.1h-.5l-.5.1-.9.2-.9.4-.8.4-.8.5-.8.5-.6.6-.7.7-.5.8-.5.8-.4.8-.4.9-.2.9-.1.5v.4l-.1.6v20.5H52.6M69 393.7v8.8h3.7v-16.7h-9.5v7.9H69M77 402.5v-8.8h7.9v8.8h.8v-22.4h-9.5v22.4h.8M93 402.5v-8.8h5.7v-7.9h-9.5v16.7H93"/><path style="fill:#fc0;stroke:#000;stroke-width:.69039" transform="translate(-20.388 -288.713) scale(1.12134)" d="M69 393.7v8.8h8v-8.8h7.9v8.8H93v-8.8h7.9V409H61.1v-15.3H69"/><path style="fill:#fc0;stroke:#000;stroke-width:.75" d="M118.54 32.975h15.32v-5.757h-15.32zM132.56 26.783h15.42v-5.975h-15.42zM146.68 32.975h15.42v-5.757h-15.42ZM46.408 32.975h15.317v-5.757H46.408ZM60.53 26.783h15.318v-5.975H60.53ZM74.653 32.975h15.426v-5.757H74.653Z" transform="matrix(1.03226 0 0 1.03226 0 0)"/></svg>